<?xml version="1.0" encoding="UTF-8" standalone="no"?>
<!-- Created with Inkscape (http://www.inkscape.org/) -->

<svg
   xmlns:dc="http://purl.org/dc/elements/1.1/"
   xmlns:cc="http://creativecommons.org/ns#"
   xmlns:rdf="http://www.w3.org/1999/02/22-rdf-syntax-ns#"
   xmlns:svg="http://www.w3.org/2000/svg"
   xmlns="http://www.w3.org/2000/svg"
   xmlns:xlink="http://www.w3.org/1999/xlink"
   xmlns:sodipodi="http://sodipodi.sourceforge.net/DTD/sodipodi-0.dtd"
   xmlns:inkscape="http://www.inkscape.org/namespaces/inkscape"
   width="98.385803"
   height="392.3642"
   id="svg2"
   version="1.1"
   inkscape:version="0.47pre4 "
   sodipodi:docname="2.svg">
  <defs
     id="defs4">
    <inkscape:perspective
       sodipodi:type="inkscape:persp3d"
       inkscape:vp_x="0 : 526.18109 : 1"
       inkscape:vp_y="0 : 1000 : 0"
       inkscape:vp_z="744.09448 : 526.18109 : 1"
       inkscape:persp3d-origin="372.04724 : 350.78739 : 1"
       id="perspective10" />
    <inkscape:perspective
       sodipodi:type="inkscape:persp3d"
       inkscape:vp_x="0 : 0.5 : 1"
       inkscape:vp_y="0 : 1000 : 0"
       inkscape:vp_z="1 : 0.5 : 1"
       inkscape:persp3d-origin="0.5 : 0.33333333 : 1"
       id="perspective2824" />
    <inkscape:perspective
       id="perspective10-4"
       inkscape:persp3d-origin="372.04724 : 350.78739 : 1"
       inkscape:vp_z="744.09448 : 526.18109 : 1"
       inkscape:vp_y="0 : 1000 : 0"
       inkscape:vp_x="0 : 526.18109 : 1"
       sodipodi:type="inkscape:persp3d" />
  </defs>
  <sodipodi:namedview
     id="base"
     pagecolor="#ffffff"
     bordercolor="#666666"
     borderopacity="1.0"
     inkscape:pageopacity="0.0"
     inkscape:pageshadow="2"
     inkscape:zoom="1.2692289"
     inkscape:cx="59.435341"
     inkscape:cy="353.75809"
     inkscape:document-units="px"
     inkscape:current-layer="layer14"
     showgrid="false"
     inkscape:window-width="1280"
     inkscape:window-height="740"
     inkscape:window-x="-4"
     inkscape:window-y="-4"
     inkscape:window-maximized="1" />
  <metadata
     id="metadata7">
    <rdf:RDF>
      <cc:Work
         rdf:about="">
        <dc:format>image/svg+xml</dc:format>
        <dc:type
           rdf:resource="http://purl.org/dc/dcmitype/StillImage" />
        <dc:title></dc:title>
      </cc:Work>
    </rdf:RDF>
  </metadata>
  <g
     inkscape:label="Layer 1"
     inkscape:groupmode="layer"
     id="layer1"
     style="display:none"
     transform="translate(-1148.6424,-622.11219)">
    <g
       id="g2846"
       transform="translate(-1063.1846,-351.69165)">
      <g
         style="display:inline"
         transform="translate(1620.3433,-106.47701)"
         id="layer1-4"
         inkscape:label="Layer 1">
        <image
           xlink:href="file:///C:/Documents%20and%20Settings/zhangbo/%E6%A1%8C%E9%9D%A2/%E7%9B%90%E5%9F%8E%E6%A0%87%E5%87%86%E5%BA%97%E5%BB%BA%E7%AD%91%E9%9D%A2%E7%A7%AF%E7%BC%96%E5%8F%B71F.jpg"
           width="2425"
           height="1672"
           id="image2826"
           x="-1618.2301"
           y="108.81656" />
        <path
           transform="translate(-1620.3433,106.47701)"
           id="path2839"
           d="m 161.65805,518.20532 c 0,4.57855 0,9.1571 0,13.73565 0,2.81757 0,5.63514 0,8.45271 0,0.91562 0.20401,3.6143 0,4.22635 -0.24904,0.74712 -0.86559,1.34916 -1.05659,2.11318 -0.17084,0.68336 0,1.40878 0,2.11317 0,1.40879 0,2.81757 0,4.22636 0,4.57855 0,9.1571 0,13.73565 0,4.93075 0,9.86149 0,14.79224 0,1.05659 0,2.11318 0,3.16977 0,0.35219 0.35219,1.05658 0,1.05658 -0.3522,0 0,-0.70439 0,-1.05658 0,-0.3522 0,-0.7044 0,-1.05659 0,-0.3522 -0.3522,-1.05659 0,-1.05659 0.35219,0 0,0.70439 0,1.05659 l 4.22639,-1.05659 c 5.28294,0 10.56589,0 15.84883,0 1.22741,0 4.32509,-0.23946 5.28294,0 0.76402,0.19101 1.36606,0.80755 2.11318,1.05659 0.33412,0.11137 0.70439,0 1.05659,0 1.40878,0 2.81757,0 4.22635,0 0.70439,0 1.42982,-0.17084 2.11318,0 1.08049,0.27012 2.07765,0.83816 3.16976,1.05659 1.19009,0.23801 2.95483,0 4.22636,0 3.16976,0 6.33953,0 9.50929,0 1.05659,0 2.1337,-0.20722 3.16977,0 0.77224,0.15445 1.34916,0.86558 2.11318,1.05659 1.02504,0.25626 2.11317,0 3.16976,0 2.46538,0 4.93075,0 7.39612,0 6.69173,0 13.38346,0 20.07518,0 7.74832,0 15.49664,0 23.24495,0 0.3522,0 0.70439,0 1.05659,0 0.3522,0 0.80755,0.24904 1.05659,0 0.24904,-0.24904 -0.15751,-0.74158 0,-1.05659 0.38187,-0.76375 2.13185,-1.39634 1.05659,-2.11318 -0.92669,-0.61779 -2.07765,-0.83817 -3.16977,-1.05659 -1.38142,-0.27628 -2.81757,0 -4.22635,0 -0.3522,0 0.70439,0 1.05659,0 0.35219,0 0.80754,-0.24904 1.05659,0 0.034,0.034 0,2.91352 0,3.16977 0,0.35219 0.35219,1.05659 0,1.05659 -0.3522,0 0,-0.7044 0,-1.05659 0,-0.3522 0,-0.70439 0,-1.05659 l -1.05659,-4.22635 c 0.35219,-0.7044 0.86558,-1.34916 1.05659,-2.11318 0.17084,-0.68336 0,-1.40879 0,-2.11318 0,-2.11318 0,-4.22635 0,-6.33953 0,-6.33953 0,-12.67906 0,-19.01859 0,-2.46538 0,-4.93075 0,-7.39612 0,-0.3522 0.24904,-0.80755 0,-1.05659 -0.24905,-0.24904 -0.80755,0.24904 -1.05659,0 -0.034,-0.034 0,-2.91352 0,-3.16977 0,-1.05659 0,-2.11317 0,-3.16976 0,-0.3522 -0.3522,-1.05659 0,-1.05659 0.35219,0 0,1.40878 0,1.05659 0,-2.46538 0.70439,-2.11318 -1.05659,-2.11318"
           style="fill:none;stroke:#000000;stroke-width:1px;stroke-linecap:butt;stroke-linejoin:miter;stroke-opacity:1" />
        <path
           transform="translate(-1620.3433,106.47701)"
           id="path2841"
           d="m 230.3363,473.8286 -68.67825,38.03719"
           style="fill:none;stroke:#000000;stroke-width:1px;stroke-linecap:butt;stroke-linejoin:miter;stroke-opacity:1" />
        <path
           transform="translate(-1620.3433,106.47701)"
           id="path2843"
           d="M 264.14713,534.05415 230.3363,470.65883"
           style="fill:none;stroke:#000000;stroke-width:1px;stroke-linecap:butt;stroke-linejoin:miter;stroke-opacity:1" />
      </g>
      <g
         style="display:inline"
         inkscape:label="商铺"
         id="layer2">
        <path
           id="path2845"
           d="m 158.48828,512.92237 3.16977,69.73485 105.65885,2.11318 0,-49.65967 -35.92401,-62.33872 -72.90461,40.15036 z"
           style="fill:none;stroke:#000000;stroke-width:1px;stroke-linecap:butt;stroke-linejoin:miter;stroke-opacity:1" />
      </g>
      <g
         inkscape:label="1003"
         id="layer3">
        <path
           id="path2848"
           d="m 230.3363,471.71542 36.9806,62.33873 72.90461,-41.20696 -32.75425,-63.39531 -77.13096,42.26354 z"
           style="fill:none;stroke:#000000;stroke-width:1px;stroke-linecap:butt;stroke-linejoin:miter;stroke-opacity:1" />
      </g>
      <g
         inkscape:label="1041"
         id="layer4">
        <path
           id="path2851"
           d="m 267.3169,535.11073 2.11318,48.60308 88.75343,0 2.11318,-48.60308 -19.01859,-41.20695 -73.9612,41.20695 z"
           style="fill:none;stroke:#000000;stroke-width:1px;stroke-linecap:butt;stroke-linejoin:miter;stroke-opacity:1" />
      </g>
      <g
         inkscape:label="1004"
         id="layer5">
        <path
           id="path2854"
           d="m 385.65482,390.3581 31.69765,64.45191 79.24414,-31.69766 -28.52789,-67.62167 -82.4139,34.86742 z"
           style="fill:none;stroke:#000000;stroke-width:1px;stroke-linecap:butt;stroke-linejoin:miter;stroke-opacity:1" />
      </g>
      <g
         inkscape:label="1040"
         id="layer6">
        <path
           id="path2857"
           d="m 416.29588,456.92318 79.24414,-33.81083 27.47131,65.50849 -71.84802,30.64107 -6.33954,-5.28295 -28.52789,-57.05578 z"
           style="fill:none;stroke:#000000;stroke-width:1px;stroke-linecap:butt;stroke-linejoin:miter;stroke-opacity:1" />
      </g>
      <g
         inkscape:label="1039"
         id="layer7">
        <path
           id="path2860"
           d="m 495.54002,423.11235 26.41472,64.4519 54.9426,-19.01859 -23.24495,-68.67826 -58.11237,23.24495 z"
           style="fill:none;stroke:#000000;stroke-width:1px;stroke-linecap:butt;stroke-linejoin:miter;stroke-opacity:1" />
      </g>
      <g
         inkscape:label="1005"
         id="layer8">
        <path
           id="path2863"
           d="m 490.25708,348.09456 11.62248,26.41472 50.71625,-21.13177 -3.16977,-7.39612 8.45271,-3.16977 -5.28294,-15.84883 -62.33873,21.13177 z"
           style="fill:none;stroke:#000000;stroke-width:1px;stroke-linecap:butt;stroke-linejoin:miter;stroke-opacity:1" />
      </g>
      <g
         inkscape:label="1006"
         id="layer9" />
      <g
         inkscape:label="1007"
         id="layer10">
        <path
           id="path2867"
           d="m 637.12289,299.49149 19.01859,68.67825 82.41391,-23.24494 -14.79224,-69.73485 -86.64026,24.30154 z"
           style="fill:none;stroke:#000000;stroke-width:1px;stroke-linecap:butt;stroke-linejoin:miter;stroke-opacity:1" />
      </g>
    </g>
  </g>
  <g
     inkscape:groupmode="layer"
     id="layer14"
     inkscape:label="1121-b"
     transform="translate(-2209.7138,-971.46429)">
    <path
       style="fill:none;stroke:#000000;stroke-width:1px;stroke-linecap:butt;stroke-linejoin:miter;stroke-opacity:1"
       d="m 2240.5183,1057.8273 c 1.0102,41.4162 0,41.4162 0,41.4162 l 64.6498,0 -1.0102,-39.3959 -63.6396,-2.0203 z"
       id="path2880"
       sodipodi:nodetypes="ccccc" />
  </g>
  <g
     inkscape:groupmode="layer"
     id="layer15"
     inkscape:label="1121-A"
     transform="translate(-2209.7138,-971.46429)">
    <path
       style="fill:none;stroke:#000000;stroke-width:1px;stroke-linecap:butt;stroke-linejoin:miter;stroke-opacity:1"
       d="m 2210.2138,971.96429 0,127.27921 29.2944,0 2.0203,-127.27921 -31.3147,0 z"
       id="path2883" />
  </g>
  <g
     inkscape:groupmode="layer"
     id="layer11"
     inkscape:label="1124"
     transform="translate(-1148.6424,-622.11219)">
    <path
       style="fill:none;stroke:#000000;stroke-width:1px;stroke-linecap:butt;stroke-linejoin:miter;stroke-opacity:1"
       d="m 1180.8682,923.06266 1.0103,90.91374 64.6497,-2.0203 -1.0101,-89.9036 -64.6499,1.01016 z"
       id="path2871"
       sodipodi:nodetypes="ccccc" />
  </g>
  <g
     inkscape:groupmode="layer"
     id="layer12"
     inkscape:label="1123-B"
     transform="translate(32.736103,300.45051)">
    <path
       style="fill:none;stroke:#000000;stroke-width:1px;stroke-linecap:butt;stroke-linejoin:miter;stroke-opacity:1"
       d="m -1.0101525,-102.03555 0,102.02541044 64.6497635,-2.02030514 -2.020306,-98.9949453 -59.5989999,0 -3.0304576,-1.01016 z"
       id="path2874"
       sodipodi:nodetypes="cccccc" />
  </g>
  <g
     inkscape:groupmode="layer"
     id="layer13"
     inkscape:label="1122-b"
     transform="translate(32.736103,300.45051)">
    <path
       style="fill:none;stroke:#000000;stroke-width:1px;stroke-linecap:butt;stroke-linejoin:miter;stroke-opacity:1"
       d="m -2.0203051,-171.73607 1.0101526,68.69037 63.6396105,0 0,-68.69037 -64.6497631,0 z"
       id="path2877"
       sodipodi:nodetypes="ccccc" />
  </g>
</svg>
