<?xml version="1.0" encoding="UTF-8" standalone="no"?>
<!-- Created with Inkscape (http://www.inkscape.org/) -->

<svg xmlns:dc="http://purl.org/dc/elements/1.1/" xmlns:cc="http://creativecommons.org/ns#" xmlns:rdf="http://www.w3.org/1999/02/22-rdf-syntax-ns#" xmlns:svg="http://www.w3.org/2000/svg" xmlns="http://www.w3.org/2000/svg" xmlns:xlink="http://www.w3.org/1999/xlink" xmlns:sodipodi="http://sodipodi.sourceforge.net/DTD/sodipodi-0.dtd" xmlns:inkscape="http://www.inkscape.org/namespaces/inkscape" width="770" height="410" id="svg2" version="1.1" inkscape:version="0.47pre4 " sodipodi:docname="test.svg" style="display:inline">
<defs id="defs4">
<inkscape:perspective sodipodi:type="inkscape:persp3d" inkscape:vp_x="0 : 526.18109 : 1" inkscape:vp_y="0 : 1000 : 0" inkscape:vp_z="744.09448 : 526.18109 : 1" inkscape:persp3d-origin="372.04724 : 350.78739 : 1" id="perspective10" />
<inkscape:perspective id="perspective2832" inkscape:persp3d-origin="0.5 : 0.33333333 : 1" inkscape:vp_z="1 : 0.5 : 1" inkscape:vp_y="0 : 1000 : 0" inkscape:vp_x="0 : 0.5 : 1" sodipodi:type="inkscape:persp3d" />
<script type="text/ecmascript" id="script6">
		var fdat="",sdat="";
		function onAreaOver(evt){
			var ele=evt.target; 
			fdat=ele.getAttribute('fill'); 
			sdat=ele.getAttribute('stroke');
			ele.setAttribute('fill','#006fb6');//多边形填充颜色
			ele.setAttribute('stroke','#006fb6');//stroke 多边形 边框颜色
			
		}
		function onAreaOut(evt){
			var ele=evt.target; 
			ele.setAttribute('fill',fdat);
			ele.setAttribute('stroke',sdat);
		}
		</script>
<symbol overflow="visible" id="symbol" style="overflow:visible">
<path d="m 626,156 2,-2 2,-4 0,-3 -1,-3 -4,-3 -6,-3 -5,-2 -4,-2 -4,8 -6,14" id="path9" style="fill:#000000;stroke:none" />
</symbol>
</defs>
<sodipodi:namedview id="base" pagecolor="#ffffff" bordercolor="#666666" borderopacity="1.0" inkscape:pageopacity="0.0" inkscape:pageshadow="2" inkscape:zoom="5.6" inkscape:cx="583.1007" inkscape:cy="273.63795" inkscape:document-units="px" inkscape:current-layer="svg2" showgrid="false" inkscape:window-width="1280" inkscape:window-height="740" inkscape:window-x="-4" inkscape:window-y="-4" inkscape:window-maximized="1" />
<metadata id="metadata7">
<rdf:RDF>
<cc:Work>
<dc:format>
image/svg+xml</dc:format>
<dc:type rdf:resource="http://purl.org/dc/dcmitype/StillImage" />
<dc:title>
</dc:title>
</cc:Work>
</rdf:RDF>
</metadata>
<image xlink:href="wangzhuang_mall_2f.png" width="770" height="410" id="image2834" x="-485" y="255.93361" transform="translate(485,-255.9336)" inkscape:label="Layer 1" inkscape:groupmode="layer" style="display:inline" />
<polygon id="2247" points="11.75 43,237.75 43,237.75 77.75,228.5 77.75,228.5 224.25,156.5 224.25,47 224.25,47 242.75,6.75 242.75,6.75 187.5,11.25 187.5" fill="#000000" stroke="none" stroke-opacity="0" />
<polygon id="2026" points="11.25 242.5,46.75 242.5,46.75 223.75,84.5 223.75,84.5 315,85.75 319.5,89.75 322,101.75 322.5,101.75 351.5,84.25 352,79 356.5,65.5 343,70.25 338.5,42.25 310.25,37.75 314.5,24.25 302,29 298,29 260.5,11 260.5" fill="#000000" stroke="none" stroke-opacity="0" />
<polygon id="2025-1" points="108.25 322,108.25 333,119.75 333,119.75 322.25" fill="#000000" stroke="none" stroke-opacity="0" />
<polygon id="2025" points="119.75 322,143.75 322,143.5 328.5,148.75 329,149 347.5,155.75 347.5,155.75 351.75,102 351.75,102 343,119.25 343" fill="#000000" stroke="none" stroke-opacity="0" />
<polygon id="2023B" points="157.25 322.25,174 322.25,174 352.25,156.75 352.25" fill="#000000" stroke="none" stroke-opacity="0" />
<polygon id="2023A" points="174.5 322.75,174.5 352,227.75 352,227.75 322.75" fill="#000000" stroke="none" stroke-opacity="0" />
<polygon id="2022" points="242.25 323,251 323,255.75 327.25,255.75 352,230.75 352.25,230.75 347.75,237 347.75,237 329.75,242.25 329.75" fill="#000000" stroke="none" stroke-opacity="0" />
lns="http://www.w3.org/2000/svg" /&gt;
<polygon id="2021" points="256 351.75,265.5 351.75,265.5 323.75,256 327" fill="#000000" stroke="none" stroke-opacity="0" />
<polygon id="2020" points="265.75 323.25,271 321.5,274.75 321.5,274.75 351.25,265.75 351" fill="#000000" stroke="none" stroke-opacity="0" />
<polygon id="2019" points="275.25 321.75,284 321.75,284 351.5,274.75 351.5" fill="#000000" stroke="none" stroke-opacity="0" />
<polygon id="2017-1" points="284.25 322,302.75 322,302.75 345.5,312.25 345.5,312.25 351.5,284.25 351.5" fill="#000000" stroke="none" stroke-opacity="0" />
<polygon id="2018" points="310 322,320 322,320 333.5,310 333.5" fill="#000000" stroke="none" stroke-opacity="0" />
<polygon id="2017" points="320.25 322,338 322,338 351.75,334.25 352.25,334.25 358.25,312 358.25,312 345.75,320 345.75" fill="#000000" stroke="none" stroke-opacity="0" />
<polygon id="2016" points="338.25 322.25,355.5 322.25,355.5 343.25,352.5 343.75,352.5 351.75,338 351.75" fill="#000000" stroke="none" stroke-opacity="0" />
<polygon id="2015" points="355.5 322.75,365.25 322.75,368.75 324.25,368.75 338.5,364.75 342.75,355.5 342.75" fill="#000000" stroke="none" stroke-opacity="0" />
<polygon id="2014" points="369 324.75,377.5 329,389.25 329.5,398 323.75,398 338.5,369 338.5" fill="#000000" stroke="none" stroke-opacity="0" />
<polygon id="2013" points="398.25 323.5,401.75 322.25,411 322.25,410.75 343,402 342.75,398 338.5" fill="#000000" stroke="none" stroke-opacity="0" />
<polygon id="2012" points="411.5 322.25,429 322.25,429 351.25,414 351.25,414.25 343.25,411.25 342.75" fill="#000000" stroke="none" stroke-opacity="0" />
<polygon id="2010A" points="429.25 322.25,447.5 322.25,447.5 345.75,456 345.75,456 357.25,433.5 357.25,433.5 351,429.25 351" fill="#000000" stroke="none" stroke-opacity="0" />
<polygon id="2011" points="447.5 322.25,457.25 322.25,457.25 333.75,447.5 333.75" fill="#000000" stroke="none" stroke-opacity="0" />
<polygon id="2010B" points="464.25 322.5,483.75 322.5,483.75 352,456.25 352,456.25 345.75,463.75 346" fill="#000000" stroke="none" stroke-opacity="0" />
<polygon id="2009" points="483.75 322.25,492.5 322.25,492.5 351,483.5 351" fill="#000000" stroke="none" stroke-opacity="0" />
<polygon id="2008" points="492.75 322.25,492.75 351,501.75 351,501.75 324.25,497 322.25" fill="#000000" stroke="none" stroke-opacity="0" />
<polygon id="2007" points="501.75 324.5,501.75 351,510.5 351,510.5 326.25,506.25 324.25" fill="#000000" stroke="none" stroke-opacity="0" />
<polygon id="2006" points="510.75 326.25,515.75 324,526 324,526 329.25,530 329.25,530 348,538.5 348.25,538.25 351.75,511 351.75" fill="#000000" stroke="none" stroke-opacity="0" />
<polygon id="2005" points="539 322,556.75 322,593.25 322,593.25 353,538.5 353" fill="#000000" stroke="none" stroke-opacity="0" />
<polygon id="2004" points="593.5 322.25,593.5 352.5,611.25 352.5,611.25 322.5" fill="#000000" stroke="none" stroke-opacity="0" />
<polygon id="2003" points="611.5 347,618 346.75,618 336.75,621.25 336.75,621.25 323,647.25 323,647.25 343,664.25 343,664.25 351.5,611.25 351.5" fill="#000000" stroke="none" stroke-opacity="0" />
<polygon id="2002" points="647.5 323,660.25 322.75,660.25 334,647.25 334" fill="#000000" stroke="none" stroke-opacity="0" />
<polygon id="2001" points="664.25 243.5,664.25 351.25,683.5 351.25,689 356.75,701.5 344,696.5 339,725.25 310,729.75 314.5,742.5 301.5,737.5 296.75,737.5 261.25,719.25 261.25,719.25 244" fill="#000000" stroke="none" stroke-opacity="0" />
<polygon id="2133" points="228.5 96.75,246.75 96.75,246.75 102,243.25 107.25,241.5 111.5,241.5 115.75,228.5 115.75" fill="#000000" stroke="none" stroke-opacity="0" />
<polygon id="2132" points="228.5 115.5,241.25 115.5,241.75 119.75,244 124.25,228.5 124.25" fill="#000000" stroke="none" stroke-opacity="0" />
<polygon id="2131" points="228.75 124,244 124,247 128.25,247 133.75,228.5 133.75" fill="#000000" stroke="none" stroke-opacity="0" />
<polygon id="2130" points="237.75 133.5,246.75 133.75,246.75 152.25,238 152.25" fill="#000000" stroke="none" stroke-opacity="0" />
<polygon id="2129" points="228.25 156.75,246 156.75,246 162.5,237.75 170.5,228.25 170.5" fill="#000000" stroke="none" stroke-opacity="0" />
<polygon id="2128" points="228.75 188,238.75 188,247.25 196.5,247.25 207,228.5 207" fill="#000000" stroke="none" stroke-opacity="0" />
<polygon id="2127" points="237.75 207.25,246.75 207.25,246.75 215.75,237.75 215.75" fill="#000000" stroke="none" stroke-opacity="0" />
<polygon id="2126" points="247 225,247 243.75,238 243.75,238 225" fill="#000000" stroke="none" stroke-opacity="0" />
<polygon id="2125" points="238 225.25,238 244,229 244,229 225" fill="#000000" stroke="none" stroke-opacity="0" />
<polygon id="2124" points="222.75 224,222.75 244.25,211.25 244.25,211.25 223.75" fill="#000000" stroke="none" stroke-opacity="0" />
<polygon id="2123" points="211.5 223.5,211.5 243.75,202 243.75,202 224" fill="#000000" stroke="none" stroke-opacity="0" />
<polygon id="2122" points="202.25 224,202.25 243.75,192.5 243.75,192.5 223.75" fill="#000000" stroke="none" stroke-opacity="0" />
<polygon id="2121" points="192.75 224.25,192.75 243.5,183.25 243.5,183.25 224" fill="#000000" stroke="none" stroke-opacity="0" />
<polygon id="2120" points="183.25 224.25,183.25 243.5,174.5 243.5,174.5 224.5" fill="#000000" stroke="none" stroke-opacity="0" />
<polygon id="2119" points="156.25 224,156.25 243.75,146.75 243.75,146.75 223.75" fill="#000000" stroke="none" stroke-opacity="0" />
<polygon id="2118" points="147 224,147 243.5,137.5 243.5,137.5 224" fill="#000000" stroke="none" stroke-opacity="0" />
<polygon id="2117" points="137.5 224.25,137.5 243.25,128.75 243.25,128.75 224.5" fill="#000000" stroke="none" stroke-opacity="0" />
<polygon id="2116" points="128.75 224.25,128.75 243.5,120 243.5,120 224.5" fill="#000000" stroke="none" stroke-opacity="0" />
<polygon id="2115" points="120 224,120 243.25,111 243.25,111 224" fill="#000000" stroke="none" stroke-opacity="0" />
<polygon id="2114" points="111.25 224.25,111.25 243.25,100.75 243.25,100.75 224.75" fill="#000000" stroke="none" stroke-opacity="0" />
<polygon id="2113" points="100.75 256.25,111.25 256.25,111.25 272.25,100.75 272.25" fill="#000000" stroke="none" stroke-opacity="0" />
<polygon id="2112" points="111.5 256.5,111.5 272,120 272,120 256.25" fill="#000000" stroke="none" stroke-opacity="0" />
<polygon id="2111" points="120 256.5,120 271.5,132.25 271.5,132.25 256.5" fill="#000000" stroke="none" stroke-opacity="0" />
<polygon id="2110" points="132.5 256.5,148.75 256.5,148.75 267.75,132.25 267.75" fill="#000000" stroke="none" stroke-opacity="0" />
<polygon id="2109" points="156 255.75,165.75 255.75,165.75 272.25,156 272.25" fill="#000000" stroke="none" stroke-opacity="0" />
<polygon id="2108" points="165.75 256.25,175 256.25,175 272,165.75 272" fill="#000000" stroke="none" stroke-opacity="0" />
<polygon id="2107" points="174.75 256.25,184 256.25,184 272.25,175 272.25" fill="#000000" stroke="none" stroke-opacity="0" />
<polygon id="2106" points="184 256,184 272,193.5 272,193.5 256.25" fill="#000000" stroke="none" stroke-opacity="0" />
<polygon id="2105" points="193.75 256.75,202.25 256.75,202.25 267,193.25 267" fill="#000000" stroke="none" stroke-opacity="0" />
<polygon id="2104" points="202.25 256.75,210.75 256.75,210.75 270.25,201.75 270.25" fill="#000000" stroke="none" stroke-opacity="0" />
<polygon id="2103" points="210.75 256.75,210.75 270,220 270,220 256.75" fill="#000000" stroke="none" stroke-opacity="0" />
<polygon id="2102" points="220.25 257,220.25 269.75,229.25 269.75,229.25 257" fill="#000000" stroke="none" stroke-opacity="0" />
<polygon id="2101" points="229 256.5,229 272.25,239.25 272.25,239.25 256.5" fill="#000000" stroke="none" stroke-opacity="0" />
<polygon id="2027" points="100.75 272,111.5 272,111.5 289,101 289" fill="#000000" stroke="none" stroke-opacity="0" />
<polygon id="2028" points="111.5 271.75,120.25 271.75,120.25 289.25,111.75 289.25" fill="#000000" stroke="none" stroke-opacity="0" />
<polygon id="2029" points="119.75 271.5,132.5 271.5,132.5 288.75,120 288.75" fill="#000000" stroke="none" stroke-opacity="0" />
<polygon id="2030" points="142 279.5,156.25 279.5,156.25 289,141.75 289" fill="#000000" stroke="none" stroke-opacity="0" />
<polygon id="2031" points="156.25 272.25,156.25 288.5,165.5 288.5,165.5 272" fill="#000000" stroke="none" stroke-opacity="0" />
<polygon id="2032" points="165.25 272,175.5 272,175.5 288.5,165 288.5" fill="#000000" stroke="none" stroke-opacity="0" />
<polygon id="2033" points="175.75 272,184.25 272,184.25 288.5,175.25 288.5" fill="#000000" stroke="none" stroke-opacity="0" />
<polygon id="2034" points="184.5 271.75,193.75 271.75,193.75 288.5,184 288.5" fill="#000000" stroke="none" stroke-opacity="0" />
<polygon id="2035" points="194 271.5,202.5 271.5,202.5 288.5,193.75 288.5" fill="#000000" stroke="none" stroke-opacity="0" />
<polygon id="2036" points="202.5 270.25,202.75 288,211.75 288,211.25 270.25" fill="#000000" stroke="none" stroke-opacity="0" />
<polygon id="2037" points="211.25 270,211.75 288,220.25 287.75,220.25 270" fill="#000000" stroke="none" stroke-opacity="0" />
<polygon id="2038" points="220 270,229.25 270,229.25 287.75,220.25 287.75" fill="#000000" stroke="none" stroke-opacity="0" />
<polygon id="2039" points="229.5 271.75,239 271.75,238.5 287.5,229.25 287.25" fill="#000000" stroke="none" stroke-opacity="0" />
<polygon id="2209" points="264.5 78.25,273 78.25,273 102.5,284 102.5,284 107,270.5 107,264 100.5" fill="#000000" stroke="none" stroke-opacity="0" />
<polygon id="2208" points="302 79,311.5 79,311.5 106.25,302.5 106.25" fill="#000000" stroke="none" stroke-opacity="0" />
<polygon id="2207" points="311.5 79.25,320.25 79.25,320.25 106,311.5 106" fill="#000000" stroke="none" stroke-opacity="0" />
<polygon id="2206" points="320 79.25,329.25 79.25,329.25 106,320.25 106" fill="#000000" stroke="none" stroke-opacity="0" />
<polygon id="2205" points="329.5 79.75,338.5 79.75,338.5 105.75,329 105.75" fill="#000000" stroke="none" stroke-opacity="0" />
<polygon id="2204" points="338.75 79.75,347.25 79.75,347.25 106,338.25 106" fill="#000000" stroke="none" stroke-opacity="0" />
<polygon id="2203" points="347.5 79.75,356.75 79.75,356.75 106,347.25 106" fill="#000000" stroke="none" stroke-opacity="0" />
<polygon id="2202-2" points="356.75 80.25,374.25 80.25,374.25 105.5,356.75 105.5" fill="#000000" stroke="none" stroke-opacity="0" />
<polygon id="2202-1" points="374.5 80.25,392.25 80.25,392.25 105.5,374 105.5" fill="#000000" stroke="none" stroke-opacity="0" />
<polygon id="2202" points="392.5 80.25,410.75 80.25,410.75 105.5,392 105.5" fill="#000000" stroke="none" stroke-opacity="0" />
<polygon id="2201" points="410.5 80.5,420.5 80.5,420.5 105.75,410.5 105.75" fill="#000000" stroke="none" stroke-opacity="0" />
<polygon id="2200" points="420.5 80.5,429.75 80.5,429.75 105.75,420 105.75" fill="#000000" stroke="none" stroke-opacity="0" />
<polygon id="2199" points="430 80.5,438.75 80.5,438.75 105.75,429.75 105.75" fill="#000000" stroke="none" stroke-opacity="0" />
<polygon id="2198" points="438.75 81,447.75 81,447.75 105.25,439 105.25" fill="#000000" stroke="none" stroke-opacity="0" />
<polygon id="2197" points="447.75 80.75,456.75 80.75,456.75 105,447.25 105" fill="#000000" stroke="none" stroke-opacity="0" />
<polygon id="2196" points="456.75 81,466.25 81,466.25 105.25,456.5 105.25" fill="#000000" stroke="none" stroke-opacity="0" />
<polygon id="2195" points="494.25 78.5,503 78.5,503 101.25,496.25 108,483.25 108,483.5 103,494.25 102.5" fill="#000000" stroke="none" stroke-opacity="0" />
<polygon id="2194" points="516 78.5,531 78.5,531 109.75,525.5 110,521.75 104.75,515.75 99.75" fill="#000000" stroke="none" stroke-opacity="0" />
<polygon id="2134" points="272.25 114.5,293.25 114.5,293.25 124.75,271.25 124.75" fill="#000000" stroke="none" stroke-opacity="0" />
<polygon id="2135" points="271.5 124.75,293.25 124.75,293.25 133.5,271 133.5" fill="#000000" stroke="none" stroke-opacity="0" />
<polygon id="2136" points="271.25 133,293 133,293 142.75,271 142.75" fill="#000000" stroke="none" stroke-opacity="0" />
<polygon id="2137" points="271 142.5,293 142.5,293 151.75,271.25 151.75" fill="#000000" stroke="none" stroke-opacity="0" />
<polygon id="2138" points="271.5 151.75,292.75 151.75,292.75 170.25,274 170.25,271.75 165.75" fill="#000000" stroke="none" stroke-opacity="0" />
<polygon id="2139" points="275.5 184.5,292.75 184.5,292.75 197.75,270.25 197.75,270.25 193.5" fill="#000000" stroke="none" stroke-opacity="0" />
<polygon id="2140" points="270.75 197.75,292.5 197.75,292.5 206.75,270.75 206.75" fill="#000000" stroke="none" stroke-opacity="0" />
<polygon id="2141" points="271.25 206.25,290.5 206.25,290.5 215.5,271.25 215.5" fill="#000000" stroke="none" stroke-opacity="0" />
<polygon id="2142" points="271.25 215.75,290.5 215.75,290.5 224.5,271 224.5" fill="#000000" stroke="none" stroke-opacity="0" />
<polygon id="2143" points="271.25 224.25,293.25 224.25,293.25 234.25,271 234.25" fill="#000000" stroke="none" stroke-opacity="0" />
<polygon id="2144" points="271.25 234,293.25 234,293.25 244.5,271.25 244.5" fill="#000000" stroke="none" stroke-opacity="0" />
<polygon id="2145" points="293.25 234,311.25 234,311.25 244,293.25 244" fill="#000000" stroke="none" stroke-opacity="0" />
<polygon id="2146" points="293.25 233.75,311.25 233.75,311.25 224.75,293.25 224.75" fill="#000000" stroke="none" stroke-opacity="0" />
<polygon id="2147" points="310.75 217.25,310.75 224.25,301.75 224.25,301.75 216.75" fill="#000000" stroke="none" stroke-opacity="0" />
<polygon id="2148" points="292.5 206.5,311 206.5,311 197,292.5 197" fill="#000000" stroke="none" stroke-opacity="0" />
<polygon id="2149" points="292.5 197,311 197,311 184.5,292.75 184.5" fill="#000000" stroke="none" stroke-opacity="0" />
<polygon id="2150" points="298.25 171,311 171,311 161.25,298 161.25" fill="#000000" stroke="none" stroke-opacity="0" />
<polygon id="2151" points="292.75 161,311.25 161,311.25 151.5,293 151.5" fill="#000000" stroke="none" stroke-opacity="0" />
<polygon id="2152" points="293 151.5,293 142.5,311.25 142.5,311.25 151.5" fill="#000000" stroke="none" stroke-opacity="0" />
<polygon id="2153" points="293 142.5,311.25 142.5,311.25 133.25,293 133.25" fill="#000000" stroke="none" stroke-opacity="0" />
<polygon id="2154" points="293.25 133,311 133,311 124.25,293.25 124.25" fill="#000000" stroke="none" stroke-opacity="0" />
<polygon id="2155" points="293.25 124.75,311 124.5,311 114,293.25 114" fill="#000000" stroke="none" stroke-opacity="0" />
<polygon id="2100" points="274.75 252.75,284 252.75,284 270,274.75 270" fill="#000000" stroke="none" stroke-opacity="0" />
<polygon id="2099" points="284 253,293.25 253,293.25 269.75,284 269.75" fill="#000000" stroke="none" stroke-opacity="0" />
<polygon id="2098" points="293 252.75,302.25 252.75,302.25 269.75,293 269.75" fill="#000000" stroke="none" stroke-opacity="0" />
<polygon id="2097" points="302.25 252.75,311.5 252.75,311.5 270.25,302 270.25" fill="#000000" stroke="none" stroke-opacity="0" />
<polygon id="2096" points="311.75 253,320.25 253,320.25 270,311.75 270" fill="#000000" stroke="none" stroke-opacity="0" />
<polygon id="2095" points="320.25 253,329.25 253,329.25 267.25,320 267.25" fill="#000000" stroke="none" stroke-opacity="0" />
<polygon id="2094" points="329.5 253.25,338.25 253.25,338.25 269.5,331.5 269.5,331.25 267.25,329.5 267.25" fill="#000000" stroke="none" stroke-opacity="0" />
<polygon id="2093" points="338 253.5,347.25 253.5,347.25 270,338.25 270" fill="#000000" stroke="none" stroke-opacity="0" />
<polygon id="2092" points="347.5 253.5,366 253.5,366 260.75,347.5 260.75" fill="#000000" stroke="none" stroke-opacity="0" />
<polygon id="2091" points="347.5 260.5,366 260.5,366 269.75,347.25 269.75" fill="#000000" stroke="none" stroke-opacity="0" />
<polygon id="2048" points="366 269.5,366 288.25,355.75 288.25,355.75 269.25" fill="#000000" stroke="none" stroke-opacity="0" />
<polygon id="2047" points="355.75 269.75,355.75 288,346.75 288,346.75 269.5" fill="#000000" stroke="none" stroke-opacity="0" />
<polygon id="2046" points="346.75 270,346.75 287.75,338 287.75,338 270" fill="#000000" stroke="none" stroke-opacity="0" />
<polygon id="2045" points="320.25 278.75,333 278.75,333 288.75,320 288.75" fill="#000000" stroke="none" stroke-opacity="0" />
<polygon id="2044" points="311 270.5,320.25 270.5,320.25 288.5,311.25 288.5" fill="#000000" stroke="none" stroke-opacity="0" />
<polygon id="2043" points="301.75 270,311 270,311 288,302.25 288" fill="#000000" stroke="none" stroke-opacity="0" />
<polygon id="2042" points="293.25 269.5,301.75 269.5,301.75 287.5,293 287.75" fill="#000000" stroke="none" stroke-opacity="0" />
<polygon id="2041" points="284 269.5,293.25 269.5,293.25 287.75,284.25 287.75" fill="#000000" stroke="none" stroke-opacity="0" />
<polygon id="2040" points="275 269.75,284.25 269.75,284.25 288.25,274.75 288.25" fill="#000000" stroke="none" stroke-opacity="0" />
<polygon id="2156" points="456.5 114,475 114,475 124.5,456.75 124.5" fill="#000000" stroke="none" stroke-opacity="0" />
<polygon id="2157" points="456.75 124.25,474.75 124.25,474.75 134,456.75 134" fill="#000000" stroke="none" stroke-opacity="0" />
<polygon id="2158" points="456.5 133.75,475 133.75,475 143.25,456.5 143.25" fill="#000000" stroke="none" stroke-opacity="0" />
<polygon id="2159" points="456.75 143,474.5 143,474.5 152.75,456.75 152.75" fill="#000000" stroke="none" stroke-opacity="0" />
<polygon id="2160" points="457 152.25,474.25 152.25,474.25 161.75,456.75 161.75" fill="#000000" stroke="none" stroke-opacity="0" />
<polygon id="2161" points="457 161.75,470.25 161.75,470.25 172,456.75 172" fill="#000000" stroke="none" stroke-opacity="0" />
<polygon id="2162" points="456.5 184.75,475 184.75,475 197.75,456.5 197.75" fill="#000000" stroke="none" stroke-opacity="0" />
<polygon id="2163" points="456.5 197.5,474.5 197.5,474.5 206.5,456.75 206.5" fill="#000000" stroke="none" stroke-opacity="0" />
<polygon id="2164" points="457 217,466.25 217,466.25 226,456.75 226" fill="#000000" stroke="none" stroke-opacity="0" />
<polygon id="2165" points="457 225.75,475 225.75,475 234,456.75 234" fill="#000000" stroke="none" stroke-opacity="0" />
<polygon id="2166" points="457 233.75,475 233.75,475 243.75,457.25 243.75" fill="#000000" stroke="none" stroke-opacity="0" />
<polygon id="2167" points="475 243.5,496.75 243.5,496.75 233.75,475 233.75" fill="#000000" stroke="none" stroke-opacity="0" />
<polygon id="2168" points="475.25 233.5,496.75 233.5,496.75 225.25,475 225.25" fill="#000000" stroke="none" stroke-opacity="0" />
<polygon id="2169" points="477 225.5,477 215.5,496.75 215.5,496.75 225.5" fill="#000000" stroke="none" stroke-opacity="0" />
<polygon id="2170" points="477 215.5,497 215.5,497 206.5,476.75 206.5" fill="#000000" stroke="none" stroke-opacity="0" />
<polygon id="2171" points="474.75 206.25,496.75 206.25,496.75 197,474.5 197" fill="#000000" stroke="none" stroke-opacity="0" />
<polygon id="2172" points="475 196.75,496.75 196.75,496.5 191.25,495.5 190.25,492.25 185.25,474.75 185.25" fill="#000000" stroke="none" stroke-opacity="0" />
<polygon id="2173" points="475 171.25,493.5 171.25,497.25 165.75,497.25 152.25,474.75 152.25" fill="#000000" stroke="none" stroke-opacity="0" />
<polygon id="2174" points="475 152.25,497.25 152.25,497.25 142.5,474.75 142.5" fill="#000000" stroke="none" stroke-opacity="0" />
<polygon id="2175" points="474.75 142.75,497 142.75,497 133.25,474.75 133.25" fill="#000000" stroke="none" stroke-opacity="0" />
<polygon id="2176" points="475 133,497.25 133,497.25 124.25,475 124.25" fill="#000000" stroke="none" stroke-opacity="0" />
<polygon id="2177" points="475 123.75,497.25 123.75,497.25 118.25,494.25 114,475 114" fill="#000000" stroke="none" stroke-opacity="0" />
<polygon id="2090" points="401 252.75,419.75 252.75,419.75 261.25,401 261.25" fill="#000000" stroke="none" stroke-opacity="0" />
<polygon id="2089" points="401.25 261,420 261,420 269.75,401.25 269.75" fill="#000000" stroke="none" stroke-opacity="0" />
<polygon id="2088" points="419.75 253,419.75 269.75,429 269.75,429 253" fill="#000000" stroke="none" stroke-opacity="0" />
<polygon id="2087" points="429 252.75,429 269.75,438.75 269.75,438.75 253" fill="#000000" stroke="none" stroke-opacity="0" />
<polygon id="2086" points="439 252.75,448.25 252.75,448.25 269.75,438.5 269.75" fill="#000000" stroke="none" stroke-opacity="0" />
<polygon id="2085" points="448.5 253,457.25 253,457.25 270,448.5 270" fill="#000000" stroke="none" stroke-opacity="0" />
<polygon id="2084" points="457.5 253.25,466.5 253.25,466.5 270.25,457.25 270.25" fill="#000000" stroke="none" stroke-opacity="0" />
<polygon id="2083" points="466.75 253.5,475.25 253.5,475.25 270.25,466.5 270.25" fill="#000000" stroke="none" stroke-opacity="0" />
<polygon id="2082" points="475.25 253.5,484 253.5,484 270.25,475.25 270.25" fill="#000000" stroke="none" stroke-opacity="0" />
<polygon id="2081" points="484.25 253.75,493 253.75,493 270,484.25 270" fill="#000000" stroke="none" stroke-opacity="0" />
<polygon id="2049" points="401.5 269.25,411 269.25,411 288.25,401.25 288.25" fill="#000000" stroke="none" stroke-opacity="0" />
<polygon id="2050" points="411.25 269.5,420.25 269.5,420.25 288.5,410.75 288.5" fill="#000000" stroke="none" stroke-opacity="0" />
<polygon id="2051" points="420.25 269.5,429 269.5,429 288.25,420.25 288.25" fill="#000000" stroke="none" stroke-opacity="0" />
<polygon id="2052" points="435.25 279,447 279,447 288,434.75 288" fill="#000000" stroke="none" stroke-opacity="0" />
<polygon id="2053" points="447 270,447 287.75,457 287.75,457 269.75" fill="#000000" stroke="none" stroke-opacity="0" />
<polygon id="2054" points="457.25 270,457.25 287.5,466.25 287.5,466.25 270.5" fill="#000000" stroke="none" stroke-opacity="0" />
<polygon id="2055" points="466.5 270.25,475.25 270.25,475.25 287.5,466.5 287.5" fill="#000000" stroke="none" stroke-opacity="0" />
<polygon id="2056" points="475.25 270.5,484 270.5,484 287.5,475 287.5" fill="#000000" stroke="none" stroke-opacity="0" />
<polygon id="2057" points="483.75 270.25,493.25 270.25,493.25 287.5,484 287.5" fill="#000000" stroke="none" stroke-opacity="0" />
<polygon id="2080" points="528.75 257,538.25 257,538.25 271.75,529 271.75" fill="#000000" stroke="none" stroke-opacity="0" />
<polygon id="2079" points="538.25 257,547.25 257,547.25 271.5,538.25 271.5" fill="#000000" stroke="none" stroke-opacity="0" />
<polygon id="2078" points="547.5 257,556.25 257,556.25 272,547.25 272" fill="#000000" stroke="none" stroke-opacity="0" />
<polygon id="2077" points="556.5 256,556.5 274,565.25 274,565.25 255.75" fill="#000000" stroke="none" stroke-opacity="0" />
<polygon id="2076" points="565.25 255.75,575 255.75,575 273.75,565.25 273.75" fill="#000000" stroke="none" stroke-opacity="0" />
<polygon id="2075" points="574.75 255.75,583.5 255.75,583.5 267.75,574.75 267.75" fill="#000000" stroke="none" stroke-opacity="0" />
<polygon id="2074" points="583.75 255.75,583.75 267.5,593 267.5,593 256" fill="#000000" stroke="none" stroke-opacity="0" />
<polygon id="2073" points="593 256,611.25 256,611.25 272.25,599 272.25,598.75 267.25,593 267.5" fill="#000000" stroke="none" stroke-opacity="0" />
<polygon id="2072" points="611.5 256,620.25 256,620.25 272.25,611.25 272.25" fill="#000000" stroke="none" stroke-opacity="0" />
<polygon id="2071" points="620.5 256,629.75 256,629.75 272.25,620 272.25" fill="#000000" stroke="none" stroke-opacity="0" />
<polygon id="2070" points="629.75 256.25,638.5 256.25,638.5 272.25,629.5 272.25" fill="#000000" stroke="none" stroke-opacity="0" />
<polygon id="2069" points="638.5 256.25,649 256.25,649 272,638.5 272.25" fill="#000000" stroke="none" stroke-opacity="0" />
<polygon id="2068" points="648.75 272,648.75 288.25,637.75 288.25,637.75 271.75" fill="#000000" stroke="none" stroke-opacity="0" />
<polygon id="2067" points="628.75 272,637.75 272,637.75 287.75,629 287.75" fill="#000000" stroke="none" stroke-opacity="0" />
<polygon id="2066" points="619.75 272.25,629 272.25,629 287.75,620 287.75" fill="#000000" stroke="none" stroke-opacity="0" />
<polygon id="2065" points="611.25 272.25,620 272.25,620 287.75,611.5 287.75" fill="#000000" stroke="none" stroke-opacity="0" />
<polygon id="2064" points="599 272,611.25 272,611.25 288,599 288" fill="#000000" stroke="none" stroke-opacity="0" />
<polygon id="2063" points="581 281,589.5 281,589.5 288.5,581 288.5" fill="#000000" stroke="none" stroke-opacity="0" />
<polygon id="2062" points="565.25 273.75,575.25 273.75,575.25 288.5,565 288.5" fill="#000000" stroke="none" stroke-opacity="0" />
<polygon id="2061" points="556.75 273.75,565.5 273.75,565.5 288.5,556.5 288.5" fill="#000000" stroke="none" stroke-opacity="0" />
<polygon id="2060" points="547.75 272,556.5 272,556.5 288.25,547.5 288.25" fill="#000000" stroke="none" stroke-opacity="0" />
<polygon id="2059" points="538 271.5,547.5 271.5,547.5 288.25,538 288.25" fill="#000000" stroke="none" stroke-opacity="0" />
<polygon id="2058" points="529.5 271.5,538.25 271.5,538.25 288,529.75 288" fill="#000000" stroke="none" stroke-opacity="0" />
<polygon id="2178" points="611.5 224.75,611.5 243.75,601.75 243.75,601.75 225" fill="#000000" stroke="none" stroke-opacity="0" />
<polygon id="2179" points="601.75 225,601.75 243.75,592.5 243.75,592.5 225" fill="#000000" stroke="none" stroke-opacity="0" />
<polygon id="2180" points="583.75 225,592.5 225,592.5 243.25,583.75 243.25" fill="#000000" stroke="none" stroke-opacity="0" />
<polygon id="2181" points="574.25 224.75,583.75 224.75,583.75 242.75,574.25 242.75" fill="#000000" stroke="none" stroke-opacity="0" />
<polygon id="2182" points="565.25 225.75,574.25 225.75,574.25 242.75,565.25 242.75" fill="#000000" stroke="none" stroke-opacity="0" />
<polygon id="2183" points="556 226.25,565.25 226.25,565.25 242.75,556.25 242.75" fill="#000000" stroke="none" stroke-opacity="0" />
<polygon id="2184" points="547.5 226,556.5 226,556.5 242.5,547.5 242.5" fill="#000000" stroke="none" stroke-opacity="0" />
<polygon id="2185" points="538.25 225.25,547.5 225.25,547.5 244,538.25 244" fill="#000000" stroke="none" stroke-opacity="0" />
<polygon id="2187" points="520.5 224.75,538.5 224.75,538.5 234.25,520.75 234.25" fill="#000000" stroke="none" stroke-opacity="0" />
<polygon id="2186" points="520.5 234.25,538.25 234.25,538.25 244.25,520.75 244.25" fill="#000000" stroke="none" stroke-opacity="0" />
<polygon id="2188" points="521 206.75,529.5 207,529 218.75,520.5 218.75" fill="#000000" stroke="none" stroke-opacity="0" />
<polygon id="2189" points="521.25 196,521.5 206.75,538 206.75,538 188.5,527.75 188.5" fill="#000000" stroke="none" stroke-opacity="0" />
<polygon id="2190" points="538.25 171,528.25 171,521 162.25,521 152,538 152" fill="#000000" stroke="none" stroke-opacity="0" />
<polygon id="2191" points="521 152.25,538.5 152.25,538.5 142,521 142" fill="#000000" stroke="none" stroke-opacity="0" />
<polygon id="2192" points="521.25 142.25,538.25 142.25,538.25 133.5,521.25 133.5" fill="#000000" stroke="none" stroke-opacity="0" />
<polygon id="2193" points="521.25 133.75,538.5 133.5,538.5 114.25,527 114.25,526 118.75,524 123.25,521.25 127.25" fill="#000000" stroke="none" stroke-opacity="0" />
<polygon id="2254" points="546.5 97,757 97,757 242.5,611.5 242.5,611.5 225,547.5 225,547.5 206,538.5 206,538.5 115.5,546.5 115.5" fill="#000000" stroke="none" stroke-opacity="0" xmlns="http://www.w3.org/2000/svg" />
</svg>
