<?xml version="1.0" encoding="UTF-8" standalone="no"?>
<!-- Created with Inkscape (http://www.inkscape.org/) -->

<svg xmlns:dc="http://purl.org/dc/elements/1.1/" xmlns:cc="http://creativecommons.org/ns#" xmlns:rdf="http://www.w3.org/1999/02/22-rdf-syntax-ns#" xmlns:svg="http://www.w3.org/2000/svg" xmlns="http://www.w3.org/2000/svg" xmlns:xlink="http://www.w3.org/1999/xlink" xmlns:sodipodi="http://sodipodi.sourceforge.net/DTD/sodipodi-0.dtd" xmlns:inkscape="http://www.inkscape.org/namespaces/inkscape" width="770" height="410" id="svg2" version="1.1" inkscape:version="0.47pre4 " sodipodi:docname="test.svg" style="display:inline">
<defs id="defs4">
<inkscape:perspective sodipodi:type="inkscape:persp3d" inkscape:vp_x="0 : 526.18109 : 1" inkscape:vp_y="0 : 1000 : 0" inkscape:vp_z="744.09448 : 526.18109 : 1" inkscape:persp3d-origin="372.04724 : 350.78739 : 1" id="perspective10" />
<inkscape:perspective id="perspective2832" inkscape:persp3d-origin="0.5 : 0.33333333 : 1" inkscape:vp_z="1 : 0.5 : 1" inkscape:vp_y="0 : 1000 : 0" inkscape:vp_x="0 : 0.5 : 1" sodipodi:type="inkscape:persp3d" />
<script type="text/ecmascript" id="script6">
		var fdat="",sdat="";
		function onAreaOver(evt){
			var ele=evt.target; 
			fdat=ele.getAttribute('fill'); 
			sdat=ele.getAttribute('stroke');
			ele.setAttribute('fill','#006fb6');//多边形填充颜色
			ele.setAttribute('stroke','#006fb6');//stroke 多边形 边框颜色
			
		}
		function onAreaOut(evt){
			var ele=evt.target; 
			ele.setAttribute('fill',fdat);
			ele.setAttribute('stroke',sdat);
		}
		</script>
<symbol overflow="visible" id="symbol" style="overflow:visible">
<path d="m 626,156 2,-2 2,-4 0,-3 -1,-3 -4,-3 -6,-3 -5,-2 -4,-2 -4,8 -6,14" id="path9" style="fill:#000000;stroke:none" />
</symbol>
</defs>
<sodipodi:namedview id="base" pagecolor="#ffffff" bordercolor="#666666" borderopacity="1.0" inkscape:pageopacity="0.0" inkscape:pageshadow="2" inkscape:zoom="5.6" inkscape:cx="583.1007" inkscape:cy="273.63795" inkscape:document-units="px" inkscape:current-layer="svg2" showgrid="false" inkscape:window-width="1280" inkscape:window-height="740" inkscape:window-x="-4" inkscape:window-y="-4" inkscape:window-maximized="1" />
<metadata id="metadata7">
<rdf:RDF>
<cc:Work>
<dc:format>
image/svg+xml</dc:format>
<dc:type rdf:resource="http://purl.org/dc/dcmitype/StillImage" />
<dc:title>
</dc:title>
</cc:Work>
</rdf:RDF>
</metadata>
<image xlink:href="wangzhuang_mall_1f.png" width="770" height="410" id="image2834" x="-485" y="255.93361" transform="translate(485,-255.9336)" inkscape:label="Layer 1" inkscape:groupmode="layer" style="display:inline" />
<polygon id="1164" points="737.25 152,737.25 160.5,758 160.5,757.75 152.25" fill="#FFFFFF" stroke="none" xmlns="http://www.w3.org/2000/svg" />
<polygon id="1165" points="737.25 160.25,757.75 160.25,757.75 169.75,737.25 169.75" fill="#FFFFFF" stroke="none" xmlns="http://www.w3.org/2000/svg" />
<polygon id="1166" points="741.25 189,758 189,758 197.75,741.25 197.5" fill="#FFFFFF" stroke="none" xmlns="http://www.w3.org/2000/svg" />
<polygon id="1167" points="737.25 206.875,757.875 207.125,757.875 219.125,737 218.875" fill="#FFFFFF" stroke="none" xmlns="http://www.w3.org/2000/svg" />
<polygon id="1168" points="737 225,758 225.375,758 243.125,737 243" fill="#FFFFFF" stroke="none" xmlns="http://www.w3.org/2000/svg" />
<polygon id="1169" points="721.375 260.875,739.125 261.125,738.75 270.5,721.125 270.5" fill="#FFFFFF" stroke="none" xmlns="http://www.w3.org/2000/svg" />
<polygon id="1170" points="721.375 270.375,738.875 270.375,738.625 279.625,721 279.5" fill="#FFFFFF" stroke="none" xmlns="http://www.w3.org/2000/svg" />
<polygon id="1053" points="711.75 279.75,738.625 279.875,738.875 297.625,744.25 302.625,730.625 316.25,726 311,720.75 316.125,711.875 307" fill="#FFFFFF" stroke="none" xmlns="http://www.w3.org/2000/svg" />
<polygon id="1001" points="666.125 323.375,690.125 323.5,703 334.375,697.5 339.125,703.125 344,688.875 357.875,684.875 352.5,666 352" fill="#FFFFFF" stroke="none" xmlns="http://www.w3.org/2000/svg" />
<polygon id="1052" points="666.125 323.375,648.5 323.125,648.625 333.75,666 334.375" fill="#FFFFFF" stroke="none" xmlns="http://www.w3.org/2000/svg" />
<polygon id="1051" points="630.125 322.875,648.5 323,648.25 339,630.125 338.625" fill="#FFFFFF" stroke="none" xmlns="http://www.w3.org/2000/svg" />
<polygon id="1002" points="648 343,660.25 342.875,660.25 351.75,647.875 351.875" fill="#FFFFFF" stroke="none" xmlns="http://www.w3.org/2000/svg" />
<polygon id="1003" points="648.25 339,648.25 352.375,639.125 352,639.25 338.625" fill="#FFFFFF" stroke="none" xmlns="http://www.w3.org/2000/svg" />
<polygon id="1004" points="639 338.625,638.875 352,630.125 351.625,630.125 338.375" fill="#FFFFFF" stroke="none" xmlns="http://www.w3.org/2000/svg" />
<polygon id="1005A" points="611.5 322.75,630.0625 322.8125,630.1875 351.875,616.25 352.25,616.75 349.25,619.25 349.25,619.25 333.25,611.25 333.25" fill="#FFFFFF" stroke="none" stroke-opacity="0" xmlns="http://www.w3.org/2000/svg" />
<polygon id="1005B" points="611.75 316.875,630.125 316.875,630.375 322.625,611.625 322.75" fill="#FFFFFF" stroke="none" xmlns="http://www.w3.org/2000/svg" />
<polygon id="1006" points="611.125 331,611.125 353.0625,602.625 353.25,602.5625 331.125" fill="#FFFFFF" stroke="none" />
<polygon id="1007" points="593.875 331.0625,602.5 331.0625,602.625 353.25,593.875 353.25" fill="#FFFFFF" stroke="none" stroke-opacity="0" />
<polygon id="1050" points="593.9375 331,611.125 331,611 316.75,593.8125 317" fill="#FFFFFF" stroke="none" stroke-opacity="0" />
<polygon id="1049" points="575.3125 316.875,593.75 317,593.875 323.875,575.3125 323.75" fill="#FFFFFF" stroke="none" stroke-opacity="0" />
<polygon id="1048" points="575.3125 316.9375,575.3125 323.75,563.0625 323.75,563.1875 316.875" fill="#FFFFFF" stroke="none" stroke-opacity="0" />
<polygon id="1008" points="566 353.5,575.25 353.5,574.75 331,565.75 330.875" fill="#FFFFFF" stroke="none" stroke-opacity="0" />
<polygon id="1009" points="539.25 316.75,557.125 316.75,557.125 330.75,565.625 330.75,565.625 353.75,538.75 353.75" fill="#FFFFFF" stroke="none" stroke-opacity="0" />
<polygon id="1047B" points="539.25 316.75,525.75 316.75,519.125 323.75,539.125 323.5" fill="#FFFFFF" stroke="none" stroke-opacity="0" />
<polygon id="1047A" points="519.25 323.75,539.25 323.75,539.25 333.5,519.125 333.5" fill="#FFFFFF" stroke="none" stroke-opacity="0" />
<polygon id="1010" points="519.25 333.5,531 333.5,531 353.875,518.875 353.875" fill="#FFFFFF" stroke="none" stroke-opacity="0" />
<polygon id="1046" points="484.5 317,497.25 316.875,504.25 323.125,504.125 333.875,484.5 333.875" fill="#FFFFFF" stroke="none" stroke-opacity="0" />
<polygon id="1011" points="484.5 333.875,504.125 333.875,504.125 353.5,484.625 353.5" fill="#FFFFFF" stroke="none" stroke-opacity="0" />
<polygon id="1012" points="484.5 317.125,484.5 353.5,465.625 353.5,465.625 316.875" fill="#FFFFFF" stroke="none" stroke-opacity="0" />
<polygon id="1045" points="465.75 317,465.75 333.875,448.125 333.875,448.125 317" fill="#FFFFFF" stroke="none" stroke-opacity="0" />
<polygon id="1044" points="448.125 317,448.125 330.75,429.875 330.75,429.875 316.875" fill="#FFFFFF" stroke="none" stroke-opacity="0" />
<polygon id="1043" points="430 316.875,429.875 330.625,412 330.625,412 317.125" fill="#FFFFFF" stroke="none" stroke-opacity="0" />
<polygon id="1013" points="460.625 353.375,460.875 345.25,448 345.25,448 330.625,434.875 330.625,434.875 359.125,456.25 359.125,456.25 353.25" fill="#FFFFFF" stroke="none" stroke-opacity="0" xmlns="http://www.w3.org/2000/svg" />
<polygon id="1014" points="412.25 330.625,434.875 330.625,434.875 351.875,412.25 351.875" fill="#FFFFFF" stroke="none" stroke-opacity="0" />
<polygon id="1015" points="411.875 321.25,397.875 321.25,397.875 343,403.25 348.125,412.125 347.75" fill="#FFFFFF" stroke="none" stroke-opacity="0" />
<polygon id="1016" points="356.875 320.625,367.625 320.5,371.375 324.875,371 342.625,365.75 348,354.125 348,354.375 343.125,357.375 343.25" fill="#FFFFFF" stroke="none" stroke-opacity="0" />
<polygon id="1042" points="339.25 317.25,356.875 317.25,356.875 330.625,339.25 330.625" fill="#FFFFFF" stroke="none" stroke-opacity="0" />
<polygon id="1041" points="339.25 317.125,339.25 330.625,321.375 330.625,321.375 316.875" fill="#FFFFFF" stroke="none" stroke-opacity="0" />
<polygon id="1017" points="357 330.625,357.25 336.25,353.875 343.125,354.125 351.75,334.375 351.75,334.375 330.5" fill="#FFFFFF" stroke="none" stroke-opacity="0" />
<polygon id="1040" points="321.375 317,303 317,303 333.5,321.25 333.5" fill="#FFFFFF" stroke="none" stroke-opacity="0" />
<polygon id="1018" points="321.5 330.625,334.375 330.625,334.375 358.875,313.375 358.875,313.375 352,309.75 352,309.875 345.25,321 345.375" fill="#FFFFFF" stroke="none" stroke-opacity="0" />
<polygon id="1019" points="284.125 316.875,303 316.875,303.625 351.625,284.25 351.625" fill="#FFFFFF" stroke="none" stroke-opacity="0" />
<polygon id="1039" points="271.5 316.875,284.125 316.875,284.125 334.125,264.25 334.125,264.25 322.75" fill="#FFFFFF" stroke="none" stroke-opacity="0" />
<polygon id="1020" points="264.25 334.125,284.25 334.125,284.25 351.5,264.375 351.5" fill="#FFFFFF" stroke="none" stroke-opacity="0" />
<polygon id="1038B" points="230.125 317,242.875 317,249.5 322.875,249.375 324.25,230.125 323.5" fill="#FFFFFF" stroke="none" stroke-opacity="0" />
<polygon id="1038A" points="230.125 323.5,249.625 323.5,249.625 333.875,230.125 333.875" fill="#FFFFFF" stroke="none" stroke-opacity="0" />
<polygon id="1021" points="249.75 333.875,249.75 353.625,237.125 353.625,237.125 333.875" fill="#FFFFFF" stroke="none" stroke-opacity="0" />
<polygon id="1022" points="230.125 317,230.125 354.25,211.75 354.25,211.75 317.125" fill="#FFFFFF" stroke="none" stroke-opacity="0" />
<polygon id="1023" points="211.75 330.875,211.75 354.125,202.75 354.125,202.75 330.875" fill="#FFFFFF" stroke="none" stroke-opacity="0" />
<polygon id="1024" points="202.75 330.875,202.75 354.25,193.5 354.25,193.5 331" fill="#FFFFFF" stroke="none" stroke-opacity="0" />
<polygon id="1037" points="193.125 316.75,206 316.75,206 323.875,192.875 323.875" fill="#FFFFFF" stroke="none" stroke-opacity="0" />
<polygon id="1036" points="193.125 316.75,174.875 316.75,174.875 323.875,193.25 323.875" fill="#FFFFFF" stroke="none" stroke-opacity="0" />
<polygon id="1035" points="175 316.75,175 331.25,165.75 331.25,165.75 316.75" fill="#FFFFFF" stroke="none" stroke-opacity="0" />
<polygon id="1034" points="165.625 316.75,165.625 331.125,158.5 331,158.5 316.75" fill="#FFFFFF" stroke="none" stroke-opacity="0" />
<polygon id="1025" points="158.375 331.125,175 331.125,175 353.5,157.5 353.5" fill="#FFFFFF" stroke="none" stroke-opacity="0" transform="matrix(1,0,0,1,1.625,0)" />
<polygon id="1033" points="139.125 316.875,158.375 316.875,158.375 323.75,139.125 323.75" fill="#FFFFFF" stroke="none" stroke-opacity="0" />
<polygon id="1026" points="139 323.625,158.5 323.625,158.5 333.625,149.875 333.625,150.0625 348.5625,152.3125 348.5625,152.3125 352.1875,149.875 352.125,138.75 352.125" fill="#FFFFFF" stroke="none" stroke-opacity="0" />
<polygon id="1032" points="121.1875 323.9375,139 323.9375,139 339,121.0625 339" fill="#FFFFFF" stroke="none" stroke-opacity="0" />
<polygon id="1027" points="130.0625 339.0625,138.8125 339.0625,138.8125 352.0625,130.125 352.0625" fill="#FFFFFF" stroke="none" stroke-opacity="0" />
<polygon id="1028" points="130.0625 339,130.0625 352,120.9375 352,120.9375 338.875" fill="#FFFFFF" stroke="none" stroke-opacity="0" />
<polygon id="1031" points="121.1875 324,121.125 333.875,103 333.8125,103 324.125" fill="#FFFFFF" stroke="none" stroke-opacity="0" />
<polygon id="1029" points="120.9375 351.9375,110.125 351.9375,110.125 345,120.9375 345" fill="#FFFFFF" stroke="none" stroke-opacity="0" />
<polygon id="1030" points="103.125 324.125,77.5 324.125,65.5 334.375,71.375 339.375,65.375 344.375,79.75 358.375,84.375 352.25,103.125 352.5,103.125 343.25,96.75 343.125,96.75 333.875,103 333.875" fill="#FFFFFF" stroke="none" stroke-opacity="0" />
<polygon id="1076" points="30.125 279.75,57 279.75,57 306.625,48.125 316.125,42.875 311.5,38 315.875,24.375 302.625,29.5 297.625" fill="#FFFFFF" stroke="none" stroke-opacity="0" />
<polygon id="1077" points="43.875 261.125,57.125 261.125,57.125 279.625,30 279.625,30 266.75,43.75 266.75" fill="#FFFFFF" stroke="none" stroke-opacity="0" />
<polygon id="1079" points="11.375 239.875,30.125 239.875,30.125 252.375,11.25 252.375" fill="#FFFFFF" stroke="none" stroke-opacity="0" />
<polygon id="1078" points="11.375 252.25,30 252.25,30 260.875,11.25 260.875" fill="#FFFFFF" stroke="none" stroke-opacity="0" />
<polygon id="1080" points="10.25 206.875,28.125 206.875,28.125 197.75,10.25 198" fill="#FFFFFF" stroke="none" stroke-opacity="0" />
<polygon id="1081" points="10.375 198,28.375 198,28.375 189.25,10.25 189.25" fill="#FFFFFF" stroke="none" stroke-opacity="0" />
<polygon id="1082" points="11.875 189.25,12 179.5,28.25 179.5,28.25 189.375" fill="#FFFFFF" stroke="none" stroke-opacity="0" />
<polygon id="1083" points="12 169.875,28.25 169.875,28.25 179.125,12 179.125" fill="#FFFFFF" stroke="none" stroke-opacity="0" />
<polygon id="1084" points="12 160.875,28.25 160.875,28.25 169.75,12.125 169.75" fill="#FFFFFF" stroke="none" stroke-opacity="0" />
<polygon id="1085" points="12 161,28.125 161,28.125 151.625,12 151.625" fill="#FFFFFF" stroke="none" stroke-opacity="0" />
<polygon id="1086" points="12.125 151.375,28.25 151.375,28.25 133.75,12 133.75" fill="#FFFFFF" stroke="none" stroke-opacity="0" />
<polygon id="1087" points="10.5 133.875,28.375 133.875,28.375 124.75,10.375 124.75" fill="#FFFFFF" stroke="none" stroke-opacity="0" />
<polygon id="1088" points="10.5 124.625,28.5 124.625,28.5 116.25,10.625 116.25" fill="#FFFFFF" stroke="none" stroke-opacity="0" />
<polygon id="1089" points="11.875 69.75,33.625 69.75,33.625 83.25,11.875 83.25" fill="#FFFFFF" stroke="none" stroke-opacity="0" />
<polygon id="1090" points="12 69.75,33.75 69.75,33.75 60.625,12 60.625" fill="#FFFFFF" stroke="none" stroke-opacity="0" />
<polygon id="1091" points="12 60.625,33.75 60.625,33.75 51.75,12.25 51.75" fill="#FFFFFF" stroke="none" stroke-opacity="0" />
<polygon id="1092" points="12.25 51.75,33.75 51.75,33.75 43.5,12.25 43.5" fill="#FFFFFF" stroke="none" stroke-opacity="0" />
<polygon id="1093" points="34.25 43.625,34.25 79,65.625 79,65.625 43.625" fill="#FFFFFF" stroke="none" stroke-opacity="0" />
<polygon id="1094" points="65.75 43.5,65.75 78.875,85 78.875,85 43.375" fill="#FFFFFF" stroke="none" stroke-opacity="0" />
<polygon id="1095" points="85.125 43.625,85.125 78.75,103.25 78.75,103.25 43.5" fill="#FFFFFF" stroke="none" stroke-opacity="0" />
<polygon id="1096" points="103.5 43.625,103.5 79,138.875 79,138.875 63.25,121 63.25,121 43.5" fill="#FFFFFF" stroke="none" stroke-opacity="0" />
<polygon id="1097" points="135.125 43.375,180 43.375,180 60.875,175.125 60.875,175.125 79.25,138.75 79.25,139 61,135 60.875" fill="#FFFFFF" stroke="none" stroke-opacity="0" />
<polygon id="1098" points="211.875 61,238.875 61,238.875 77.5,227.875 77.75,227.875 80.125,211.875 80.125" fill="#FFFFFF" stroke="none" stroke-opacity="0" />
<polygon id="1099" points="239.25 79.25,248.875 79.25,248.875 93,239.25 93" fill="#FFFFFF" stroke="none" stroke-opacity="0" />
<polygon id="1100" points="221.25 96.625,248.875 96.625,248.875 101.8125,245.8125 105.1875,243.375 108.0625,241.5625 113.3125,241.4375 116.0625,221 116" fill="#FFFFFF" stroke="none" stroke-opacity="0" />
<polygon id="1101" points="230.0625 119.9375,241.8125 119.9375,243.875 124.25,248.1875 128.5,248.1875 133.75,230 133.75" fill="#FFFFFF" stroke="none" stroke-opacity="0" />
<polygon id="1102" points="239.0625 138,248.375 138,248.375 152.1875,238.9375 152.1875" fill="#FFFFFF" stroke="none" stroke-opacity="0" />
<polygon id="1103" points="229.9375 157.375,248 157.375,248 162.5,242.375 166.875,239.5625 171.125,229.8125 171.125" fill="#FFFFFF" stroke="none" stroke-opacity="0" />
<polygon id="1104" points="229.9375 188.25,239.5 188.25,242.8125 192.6875,248.25 197,248.25 207.0625,229.75 207.0625" fill="#FFFFFF" stroke="none" stroke-opacity="0" />
<polygon id="1105" points="239.0625 207.125,248.25 207.125,248.25 216.3125,239.0625 216.3125" fill="#FFFFFF" stroke="none" stroke-opacity="0" />
<polygon id="1106" points="230.1875 225.125,247.9375 225.125,247.9375 242.875,229.8125 242.875" fill="#FFFFFF" stroke="none" stroke-opacity="0" />
<polygon id="1107" points="229.875 242.9375,247.125 242.9375,247.125 251.9375,229.75 251.9375" fill="#FFFFFF" stroke="none" stroke-opacity="0" />
<polygon id="1108" points="229.8125 251.875,247.125 251.875,247.125 261,229.8125 261" fill="#FFFFFF" stroke="none" stroke-opacity="0" />
<polygon id="1109" points="229.8125 261.0625,247.125 261.0625,247.125 271,229.75 271" fill="#FFFFFF" stroke="none" stroke-opacity="0" />
<polygon id="1110" points="229.875 271.0625,247.0625 271.0625,247.0625 280.0625,229.875 280.0625" fill="#FFFFFF" stroke="none" stroke-opacity="0" />
<polygon id="1069" points="229.8125 280.0625,247 280.0625,247 289.125,241.25 293.8125,229.9375 293.8125" fill="#FFFFFF" stroke="none" stroke-opacity="0" />
<polygon id="1070" points="212.0625 270.9375,229.75 270.9375,229.75 293.75,212 293.75" fill="#FFFFFF" stroke="none" stroke-opacity="0" />
<polygon id="1071" points="212.0625 270.9375,212.0625 293.75,193.875 293.75,193.875 270.8125" fill="#FFFFFF" stroke="none" stroke-opacity="0" />
<polygon id="1248" points="142.625 279.0625,142.375 289.0625,138.9375 289.0625,138.9375 293.5625,155.75 293.5625,155.6875 286.75,150 286.875,150.0625 279.0625" fill="#FFFFFF" stroke="none" stroke-opacity="0" />
<polygon id="1072" points="121 260.875,133 260.875,133 292.875,121.125 292.875" fill="#FFFFFF" stroke="none" stroke-opacity="0" />
<polygon id="1073" points="121 260.875,121 292.75,111.875 292.75,111.875 261.125" fill="#FFFFFF" stroke="none" stroke-opacity="0" />
<polygon id="1074" points="111.875 261.125,111.875 281,102.75 281,102.75 261.25" fill="#FFFFFF" stroke="none" stroke-opacity="0" />
<polygon id="1075" points="102.75 261.25,102.75 280.875,94.125 280.875,94.125 261.25" fill="#FFFFFF" stroke="none" stroke-opacity="0" />
<polygon id="1247" points="34.5 80,120.5 80,120.5 260,94 260,94 281.5,57.5 281.5,57.5 261.5,30 261.5,29.5 219.625,35.25 219.625,35 207.25,37.5 207.5,37.5 195.875,28.625 196,28.875 132.5,28.875 110.125,34.625 110,34.5 96" fill="#FFFFFF" stroke="none" stroke-opacity="0" />
<polygon id="1246" points="120.5 79,175 79,175 60.5,211 60.5,211 97,220.5 97,220.5 115,229 115.5,229 269.5,193 269.5,193 280.5,133.5 280.5,133.5 261.5,121 261.5" fill="#FFFFFF" stroke="none" stroke-opacity="0" />
<polygon id="1244" points="265 77,274 77,274 92,265 92" fill="#FFFFFF" stroke="none" stroke-opacity="0" />
<polygon id="1243" points="303.25 79,312.5 79,312.5 97.25,303 97.25" fill="#FFFFFF" stroke="none" stroke-opacity="0" />
<polygon id="1242" points="312.75 79,321.25 79,321.5 97.25,312.75 97.25" fill="#FFFFFF" stroke="none" stroke-opacity="0" />
<polygon id="1241" points="321.5 78.75,330 79,330 97.5,321.25 97.5" fill="#FFFFFF" stroke="none" stroke-opacity="0" />
<polygon id="1240" points="330 79,339 79.25,339.25 97.25,330.5 97.25" fill="#FFFFFF" stroke="none" stroke-opacity="0" />
<polygon id="1239" points="339.25 79,348.25 79.25,348.25 97.25,339.5 97" fill="#FFFFFF" stroke="none" stroke-opacity="0" />
<polygon id="1238" points="348.25 79.25,357.25 79.25,357.25 97.25,348.25 97.25" fill="#FFFFFF" stroke="none" stroke-opacity="0" />
<polygon id="1237" points="357.5 79,366 79.25,366 97.5,357.25 97.25" fill="#FFFFFF" stroke="none" stroke-opacity="0" />
<polygon id="1236" points="366.25 79.5,375.25 79.25,375.5 97.25,366 97.5" fill="#FFFFFF" stroke="none" stroke-opacity="0" />
<polygon id="1235" points="375.5 79.5,394 79.75,394 97.25,375.75 97.25" fill="#FFFFFF" stroke="none" stroke-opacity="0" />
<polygon id="1234" points="394 80,403.25 80,403.25 97.25,394 97" fill="#FFFFFF" stroke="none" stroke-opacity="0" />
<polygon id="1233" points="403.5 79.75,412.25 79.75,412.25 97,403.5 97.25" fill="#FFFFFF" stroke="none" stroke-opacity="0" />
<polygon id="1232" points="412.5 79.75,421.5 79.5,421.5 97.5,412.25 97" fill="#FFFFFF" stroke="none" stroke-opacity="0" />
<polygon id="1231" points="421.25 79.5,430 80,430.25 97,421.75 97.25" fill="#FFFFFF" stroke="none" stroke-opacity="0" />
<polygon id="1230" points="430.5 80,439.25 80,439.25 97.5,430.5 97.25" fill="#FFFFFF" stroke="none" stroke-opacity="0" />
<polygon id="1229" points="439.25 79.75,447.75 79.5,448 97.5,439.5 97.5" fill="#FFFFFF" stroke="none" stroke-opacity="0" />
<polygon id="1228" points="448.25 79.5,457 79.75,457 97.75,448.25 97.75" fill="#FFFFFF" stroke="none" stroke-opacity="0" />
<polygon id="1227" points="457.5 79.75,466.25 79.75,466 97.75,457 97.5" fill="#FFFFFF" stroke="none" stroke-opacity="0" />
<polygon id="1226" points="495.25 78,504.25 78,504.25 92,495.5 92" fill="#FFFFFF" stroke="none" stroke-opacity="0" />
<polygon id="1225" points="504.25 101,484.75 101,484.75 117.25,496.5 117.5,497 111.75,499.5 106.25" fill="#FFFFFF" stroke="none" stroke-opacity="0" />
<polygon id="1224" points="448 98,465.75 98,465.75 107.25,476.25 107.25,476.25 117.5,447.75 117.5" fill="#FFFFFF" stroke="none" stroke-opacity="0" />
<polygon id="1223" points="447.75 97.75,447.75 117.5,439 117.5,439 97.75" fill="#FFFFFF" stroke="none" stroke-opacity="0" />
<polygon id="1222" points="439 97.75,439 117.5,429.75 117.5,429.75 98" fill="#FFFFFF" stroke="none" stroke-opacity="0" />
<polygon id="1221" points="421 97.75,429.75 97.75,430 117.25,421 117" fill="#FFFFFF" stroke="none" stroke-opacity="0" />
<polygon id="1220" points="412.5 97.75,421 97.75,421.5 117,412.5 117.25" fill="#FFFFFF" stroke="none" stroke-opacity="0" />
<polygon id="1219" points="403 97.75,412 97.75,412.5 117.25,403 117.25" fill="#FFFFFF" stroke="none" stroke-opacity="0" />
<polygon id="1218" points="393.5 97.5,403 97.75,403 117.5,393.5 117.25" fill="#FFFFFF" stroke="none" stroke-opacity="0" />
<polygon id="1217" points="384 97.5,393.75 97.5,393.75 118,384 117.75" fill="#FFFFFF" stroke="none" stroke-opacity="0" />
<polygon id="1216" points="374.75 97.5,383.75 97.75,383.75 117.25,374.75 117.25" fill="#FFFFFF" stroke="none" stroke-opacity="0" />
<polygon id="1215" points="366 97.5,374.5 97.75,374.5 117.5,366 117.25" fill="#FFFFFF" stroke="none" stroke-opacity="0" />
<polygon id="1214" points="357.25 97.5,366 97.75,366 117.25,356.75 117" fill="#FFFFFF" stroke="none" stroke-opacity="0" />
<polygon id="1213" points="348 97.5,356.75 97.5,356.75 117,348 116.75" fill="#FFFFFF" stroke="none" stroke-opacity="0" />
<polygon id="1212" points="339.5 97.5,348 97.5,348.25 116.75,339.5 116.75" fill="#FFFFFF" stroke="none" stroke-opacity="0" />
<polygon id="1211" points="330.25 97.25,339.25 97.5,339.25 117,330 117" fill="#FFFFFF" stroke="none" stroke-opacity="0" />
<polygon id="1210" points="321.25 97.5,330.25 97.75,330 117,321 116.75" fill="#FFFFFF" stroke="none" stroke-opacity="0" />
<polygon id="1209" points="303 97.5,321 97.5,321 117,303 116.75" fill="#FFFFFF" stroke="none" stroke-opacity="0" />
<polygon id="1208" points="292.75 107.75,303 107.5,303 116.75,292.75 117" fill="#FFFFFF" stroke="none" stroke-opacity="0" />
<polygon id="1207" points="264.75 100.75,284.25 100.75,284.25 117.25,273.25 117,272.25 111.75,269.5 106.5" fill="#FFFFFF" stroke="none" stroke-opacity="0" />
<polygon id="1206" points="271.75 124.5,267.75 128.75,267.75 134,294.25 134,294.25 124.25" fill="#FFFFFF" stroke="none" stroke-opacity="0" />
<polygon id="1189" points="294.5 124.5,312.5 124.5,312.5 134.25,294.75 134.25" fill="#FFFFFF" stroke="none" stroke-opacity="0" />
<polygon id="1205" points="267.5 134.25,294.5 134.25,294.5 143,267.5 143" fill="#FFFFFF" stroke="none" stroke-opacity="0" />
<polygon id="1204" points="267.5 142.75,294.25 142.75,294.25 152,267.5 152" fill="#FFFFFF" stroke="none" stroke-opacity="0" />
<polygon id="1203" points="267 152,294 152,294 171.5,274.25 171.5,266.75 164" fill="#FFFFFF" stroke="none" stroke-opacity="0" />
<polygon id="1202" points="275 187.75,293.75 187.75,293.75 206.25,267.5 206.25,267.5 196.75,272 192" fill="#FFFFFF" stroke="none" stroke-opacity="0" />
<polygon id="1201" points="267.5 207,291 207,291 216,267.25 216" fill="#FFFFFF" stroke="none" stroke-opacity="0" />
<polygon id="1200" points="267.75 216,291 216,291 225,267.5 225" fill="#FFFFFF" stroke="none" stroke-opacity="0" />
<polygon id="1199" points="267.5 225,294.25 225,294.25 234,267.5 234" fill="#FFFFFF" stroke="none" stroke-opacity="0" />
<polygon id="1198" points="267.5 234,294.5 234,294.5 244.5,267 244.5" fill="#FFFFFF" stroke="none" stroke-opacity="0" />
<polygon id="1197" points="294.5 244.75,312.25 244.75,312.25 234.75,294.5 234.75" fill="#FFFFFF" stroke="none" stroke-opacity="0" />
<polygon id="1196" points="294.25 234.25,312 234.25,312 224.75,294.5 224.75" fill="#FFFFFF" stroke="none" stroke-opacity="0" />
<polygon id="1195" points="303.5 217.25,312 217.25,312 224.25,303 224.25" fill="#FFFFFF" stroke="none" stroke-opacity="0" />
<polygon id="1194" points="293.75 206.75,312.25 206.75,312.25 187.5,293.75 187.5" fill="#FFFFFF" stroke="none" stroke-opacity="0" />
<polygon id="1193" points="294.25 171.75,312.5 171.75,312.5 161,294.5 161" fill="#FFFFFF" stroke="none" stroke-opacity="0" />
<polygon id="1192" points="294.25 161,312.25 161,312.25 152,294 152" fill="#FFFFFF" stroke="none" stroke-opacity="0" />
<polygon id="1191" points="294.25 152,312 152,312 142.75,294.25 142.75" fill="#FFFFFF" stroke="none" stroke-opacity="0" />
<polygon id="1190" points="294.75 143,312.25 143,312.25 134.25,294.5 134.25" fill="#FFFFFF" stroke="none" stroke-opacity="0" />
<polygon id="1111" points="267 252.5,275.75 252.5,275.75 270.75,267 270.5" fill="#FFFFFF" stroke="none" stroke-opacity="0" />
<polygon id="1112" points="275.75 252.5,284.5 252.75,284.5 271,275.75 270.75" fill="#FFFFFF" stroke="none" stroke-opacity="0" />
<polygon id="1113" points="284.75 253,294.25 253.25,294 271,284.5 271.25" fill="#FFFFFF" stroke="none" stroke-opacity="0" />
<polygon id="1114" points="295 253,303.5 253.5,303.25 271.25,294.25 271" fill="#FFFFFF" stroke="none" stroke-opacity="0" />
<polygon id="1115" points="303.75 253,312.5 253.25,312 271,303.5 270.75" fill="#FFFFFF" stroke="none" stroke-opacity="0" />
<polygon id="1116" points="312.5 253.25,321 253.25,321.25 271,312.5 271" fill="#FFFFFF" stroke="none" stroke-opacity="0" />
<polygon id="1117" points="321.5 253,330.5 252.75,330.5 266.75,321.75 267.25" fill="#FFFFFF" stroke="none" stroke-opacity="0" />
<polygon id="1118" points="330.75 253,339.25 253,339.25 271,330.75 271.5" fill="#FFFFFF" stroke="none" stroke-opacity="0" />
<polygon id="1119" points="339.25 253,348 253,348 271,339.5 271" fill="#FFFFFF" stroke="none" stroke-opacity="0" />
<polygon id="1120" points="348.5 253,366.25 253,366.5 261.25,348.5 261.5" fill="#FFFFFF" stroke="none" stroke-opacity="0" />
<polygon id="1121" points="348.25 261.25,366.5 261.75,366.25 271.5,348 271" fill="#FFFFFF" stroke="none" stroke-opacity="0" />
<polygon id="1064" points="339.25 271.25,366.5 271.25,366.5 293.75,339 293.75" fill="#FFFFFF" stroke="none" stroke-opacity="0" />
<polygon id="1065" points="321.25 279.25,333.5 279.25,333.5 293.5,321.25 293.5" fill="#FFFFFF" stroke="none" stroke-opacity="0" />
<polygon id="1066" points="303 271.25,321 271.25,321 293.5,302.25 293.5" fill="#FFFFFF" stroke="none" stroke-opacity="0" />
<polygon id="1067" points="284 271.5,303 271.5,303 293.25,283.5 293.25" fill="#FFFFFF" stroke="none" stroke-opacity="0" />
<polygon id="1068" points="283.75 271.75,283.75 293.5,272.25 293.5,267.25 288,267.25 270.75" fill="#FFFFFF" stroke="none" stroke-opacity="0" />
<polygon id="1171" points="475.75 244.25,501.5 244.25,501.5 233.75,475.75 233.75" fill="#FFFFFF" stroke="none" stroke-opacity="0" />
<polygon id="1172" points="476 233.75,501.5 233.75,501.5 224.25,476 224.25" fill="#FFFFFF" stroke="none" stroke-opacity="0" />
<polygon id="1173" points="478.5 224.25,501.25 224.25,501.25 215.5,478.5 215.5" fill="#FFFFFF" stroke="none" stroke-opacity="0" />
<polygon id="1174" points="478.5 215.25,501.25 215.25,501.25 206.5,478.25 206.5" fill="#FFFFFF" stroke="none" stroke-opacity="0" />
<polygon id="1175" points="475.25 206.5,501.25 206.5,501.25 196.25,494.5 188.25,475.5 188.25" fill="#FFFFFF" stroke="none" stroke-opacity="0" />
<polygon id="1176" points="475.75 171.25,475.75 152.5,501.5 152.5,501.5 163,493.75 171.5" fill="#FFFFFF" stroke="none" stroke-opacity="0" />
<polygon id="1177" points="475.75 152,501.5 152,501.5 142.75,475.75 142.75" fill="#FFFFFF" stroke="none" stroke-opacity="0" />
<polygon id="1178" points="475.75 142.5,501.25 142.5,501.25 133.5,475.75 133.5" fill="#FFFFFF" stroke="none" stroke-opacity="0" />
<polygon id="1179" points="475.75 133.25,501.25 133.25,501.25 128.75,498.5 124.5,476 124.5" fill="#FFFFFF" stroke="none" stroke-opacity="0" />
<polygon id="1180" points="476 124.75,476 133.5,457 133.5,457 125" fill="#FFFFFF" stroke="none" stroke-opacity="0" />
<polygon id="1181" points="457.25 133.5,475.25 133.5,475.25 142.75,457 142.75" fill="#FFFFFF" stroke="none" stroke-opacity="0" />
<polygon id="1182" points="456.75 143,475.5 143,475.5 151.75,457 151.75" fill="#FFFFFF" stroke="none" stroke-opacity="0" />
<polygon id="1183" points="456.75 151.75,475.75 151.75,475.75 161.5,456.5 161.5" fill="#FFFFFF" stroke="none" stroke-opacity="0" />
<polygon id="1184" points="457.25 161.75,475.5 161.75,475.5 171.5,457 171.5" fill="#FFFFFF" stroke="none" stroke-opacity="0" />
<polygon id="1185" points="457 188.25,475.75 188.25,475.75 207,457 207" fill="#FFFFFF" stroke="none" stroke-opacity="0" />
<polygon id="1186" points="457 217.75,466 217.75,466 225.25,457 225.25" fill="#FFFFFF" stroke="none" stroke-opacity="0" />
<polygon id="1187" points="456.5 225.5,475.75 225.5,475.75 234.25,456.5 234.25" fill="#FFFFFF" stroke="none" stroke-opacity="0" />
<polygon id="1188" points="456.5 234.5,475.5 234.5,475.5 244.5,456.75 244.5" fill="#FFFFFF" stroke="none" stroke-opacity="0" />
<polygon id="1123" points="402.75 252.75,421.25 252.75,421.25 261.5,402.5 261.5" fill="#FFFFFF" stroke="none" stroke-opacity="0" />
<polygon id="1122" points="402.5 261.5,421.5 261.5,421.5 271,402.25 271" fill="#FFFFFF" stroke="none" stroke-opacity="0" />
<polygon id="1124" points="421.5 252.75,430 252.75,430 271.5,421.25 271.5" fill="#FFFFFF" stroke="none" stroke-opacity="0" />
<polygon id="1125" points="430.25 252.75,430.25 271.25,439.25 271.25,439.25 253" fill="#FFFFFF" stroke="none" stroke-opacity="0" />
<polygon id="1126" points="439.5 252.5,448 252.5,448 270.75,439.5 270.75" fill="#FFFFFF" stroke="none" stroke-opacity="0" />
<polygon id="1127" points="448.25 252.5,448.25 270.5,456.75 270.5,456.75 252.75" fill="#FFFFFF" stroke="none" stroke-opacity="0" />
<polygon id="1128" points="457.25 252.75,457.25 270.5,466.5 270.5,466.5 252.5" fill="#FFFFFF" stroke="none" stroke-opacity="0" />
<polygon id="1129" points="466.75 252.5,475.5 252.5,475.5 270.75,466.75 270.75" fill="#FFFFFF" stroke="none" stroke-opacity="0" />
<polygon id="1130" points="475.75 252.5,484.75 252.5,484.75 271,475.5 271" fill="#FFFFFF" stroke="none" stroke-opacity="0" />
<polygon id="1131" points="484.75 252.5,493.5 252.5,493.5 271,485 271" fill="#FFFFFF" stroke="none" stroke-opacity="0" />
<polygon id="1132" points="493.25 252.5,501.75 252.5,501.75 271,493 271" fill="#FFFFFF" stroke="none" stroke-opacity="0" />
<polygon id="1063" points="402.75 271,430.25 271,430.25 293.5,402 293.5" fill="#FFFFFF" stroke="none" stroke-opacity="0" />
<polygon id="1062" points="436 280,448.25 280,448.25 293,436.25 293" fill="#FFFFFF" stroke="none" stroke-opacity="0" />
<polygon id="1061" points="448.25 271,466.75 271,466.75 293,448.75 293" fill="#FFFFFF" stroke="none" stroke-opacity="0" />
<polygon id="1060" points="467 271.25,485 271.25,485 293.5,466.75 293.5" fill="#FFFFFF" stroke="none" stroke-opacity="0" />
<polygon id="1059" points="485.25 271.5,501.5 271.5,501.5 293.5,485.25 293.5" fill="#FFFFFF" stroke="none" stroke-opacity="0" />
<polygon id="1145" points="521 79.5,530 79.5,530 98,520.5 98" fill="#FFFFFF" stroke="none" stroke-opacity="0" />
<polygon id="1146" points="530.5 79.5,539.25 79.5,539.25 97,530.5 97" fill="#FFFFFF" stroke="none" stroke-opacity="0" />
<polygon id="1147" points="539.75 79.5,548.25 79.75,548.25 97.5,539.25 97.5" fill="#FFFFFF" stroke="none" stroke-opacity="0" />
<polygon id="1144" points="520.75 97.75,530.5 97.75,530.5 105.75,526.25 108.5,520.5 102.25" fill="#FFFFFF" stroke="none" stroke-opacity="0" />
<polygon id="1148" points="566 97.5,566 116,575 116,575 97.25" fill="#FFFFFF" stroke="none" stroke-opacity="0" />
<polygon id="1149" points="575.5 97.5,598 97.5,598 116,575 116" fill="#FFFFFF" stroke="none" stroke-opacity="0" />
<polygon id="1150" points="598.5 97.75,612 97.75,612 116.25,598.25 116.25" fill="#FFFFFF" stroke="none" stroke-opacity="0" />
<polygon id="1151" points="612.25 97.75,621.5 97.75,621.5 116,612.5 116" fill="#FFFFFF" stroke="none" stroke-opacity="0" />
<polygon id="1152" points="621.5 97.75,630 97.75,630 116,621.5 116.25" fill="#FFFFFF" stroke="none" stroke-opacity="0" />
<polygon id="1153" points="630.25 97.75,644 97.75,644 116.25,630.25 116" fill="#FFFFFF" stroke="none" stroke-opacity="0" />
<polygon id="1154" points="650.5 97.5,663 97.5,663 116.25,654.5 116,654.5 111.5,650.5 111.5" fill="#FFFFFF" stroke="none" stroke-opacity="0" />
<polygon id="1155" points="663.25 97.75,671.75 98,671.5 116.25,663 116" fill="#FFFFFF" stroke="none" stroke-opacity="0" />
<polygon id="1156" points="672 97.75,684.5 97.75,684.75 116.5,671.75 116.25" fill="#FFFFFF" stroke="none" stroke-opacity="0" />
<polygon id="1157" points="685 98,703.25 98.25,703.25 116.25,685 116" fill="#FFFFFF" stroke="none" stroke-opacity="0" />
<polygon id="1158" points="720.25 97.5,730.25 97.25,730.25 108,720.5 108" fill="#FFFFFF" stroke="none" stroke-opacity="0" />
<polygon id="1159" points="730.5 97.5,739 97.5,739.25 116,730.5 115.75" fill="#FFFFFF" stroke="none" stroke-opacity="0" />
<polygon id="1160" points="739.25 97.5,757.5 97.75,757.75 106.75,739.5 106.75" fill="#FFFFFF" stroke="none" stroke-opacity="0" />
<polygon id="1161" points="739.5 107,757.5 107,757.5 116,739.75 115.75" fill="#FFFFFF" stroke="none" stroke-opacity="0" />
<polygon id="1162" points="739.5 116.25,757.5 116,757 124.75,739.5 125" fill="#FFFFFF" stroke="none" stroke-opacity="0" />
<polygon id="1163" points="739.5 125.5,757.25 125.25,757.25 134.25,739.5 134.25" fill="#FFFFFF" stroke="none" stroke-opacity="0" />
<polygon id="1143" points="527 119.75,538.75 119.75,538.75 133.75,520.75 133.75,520.5 128.75,524.75 124.25" fill="#FFFFFF" stroke="none" stroke-opacity="0" />
<polygon id="1142" points="520.5 134,539.25 134,539.25 143,520.75 143" fill="#FFFFFF" stroke="none" stroke-opacity="0" />
<polygon id="1141" points="521 143.25,538.75 143.25,538.75 151.75,520.75 151.75" fill="#FFFFFF" stroke="none" stroke-opacity="0" />
<polygon id="1140" points="520.75 151.75,538.75 151.75,538.75 171.5,529.25 171.5,526.25 166.25,520.75 161.75" fill="#FFFFFF" stroke="none" stroke-opacity="0" />
<polygon id="1139" points="529.25 188.25,539 188.25,539 207.25,521.25 207.25,520.75 197.25,526.5 193" fill="#FFFFFF" stroke="none" stroke-opacity="0" />
<polygon id="1138" points="520.75 207.5,530.25 207.5,530.25 219.5,520.75 219.5" fill="#FFFFFF" stroke="none" stroke-opacity="0" />
<polygon id="1137" points="521.25 225,539.25 225,539.25 234.25,521 234.25" fill="#FFFFFF" stroke="none" stroke-opacity="0" />
<polygon id="1136" points="521 234.5,539 234.5,539 243.25,521 243.25" fill="#FFFFFF" stroke="none" stroke-opacity="0" />
<polygon id="1135" points="522 243.25,539 243.25,539 252.25,522 252.25" fill="#FFFFFF" stroke="none" stroke-opacity="0" />
<polygon id="1134" points="522.25 252.75,538.75 252.75,538.75 261.25,522.25 261.25" fill="#FFFFFF" stroke="none" stroke-opacity="0" />
<polygon id="1133" points="522.25 261.25,538.75 261.25,538.75 271,522 271" fill="#FFFFFF" stroke="none" stroke-opacity="0" />
<polygon id="1058" points="522 271,539 271,539 293.75,526.75 293.75,521.75 288.75" fill="#FFFFFF" stroke="none" stroke-opacity="0" />
<polygon id="1057" points="538.75 261.25,557 261.25,557 293.75,538.5 293.75" fill="#FFFFFF" stroke="none" stroke-opacity="0" />
<polygon id="1056" points="557.25 261.5,575.5 261.5,575.5 293.5,557 293.5" fill="#FFFFFF" stroke="none" stroke-opacity="0" />
<polygon id="1249" points="581 282,581 293.5,594 293.5,594 288.75,589.75 288.75,589.75 282" fill="#FFFFFF" stroke="none" stroke-opacity="0" />
<polygon id="1055" points="593 261.5,613.5 261.5,613.5 293.75,599.5 293.75,599.5 267.5,593 267.75" fill="#FFFFFF" stroke="none" stroke-opacity="0" />
<polygon id="1054" points="613.75 261.5,629.5 261.5,629.5 280.25,631.25 280.5,630.75 293.75,613.75 293.75" fill="#FFFFFF" stroke="none" stroke-opacity="0" />
<polygon id="1245" points="539.25 115.75,739.25 116.25,739.25 134.5,748.25 134.5,748.25 151.75,737 151.75,737 169.75,734.75 169.75,735 183.25,741.75 183.25,741.75 206.5,737 206.75,736.75 218.75,741.75 218.75,742 225,737 225,737 243.75,740.25 243.5,739.75 260.75,721 260.75,721 279.25,712 279.25,712 306.5,721.25 315.75,703.25 333.5,690.5 323.5,651.75 323,651.75 281.5,630.25 281.5,630.25 260.75,593.5 260.75,593.5 268,575.75 268,575.75 260.5,539.5 260.5,539.25 228.25,548.75 228.5,549.25 207,539.75 207" fill="#FFFFFF" stroke="none" stroke-opacity="0" xmlns="http://www.w3.org/2000/svg" />
</svg>
