<?xml version="1.0" encoding="UTF-8" standalone="no"?>
<!-- Created with Inkscape (http://www.inkscape.org/) -->

<svg xmlns:dc="http://purl.org/dc/elements/1.1/" xmlns:cc="http://creativecommons.org/ns#" xmlns:rdf="http://www.w3.org/1999/02/22-rdf-syntax-ns#" xmlns:svg="http://www.w3.org/2000/svg" xmlns="http://www.w3.org/2000/svg" xmlns:xlink="http://www.w3.org/1999/xlink" xmlns:sodipodi="http://sodipodi.sourceforge.net/DTD/sodipodi-0.dtd" xmlns:inkscape="http://www.inkscape.org/namespaces/inkscape" width="770" height="180" id="svg2" version="1.1" inkscape:version="0.47pre4 " sodipodi:docname="test.svg" style="display:inline">
<defs id="defs4">
<inkscape:perspective sodipodi:type="inkscape:persp3d" inkscape:vp_x="0 : 526.18109 : 1" inkscape:vp_y="0 : 1000 : 0" inkscape:vp_z="744.09448 : 526.18109 : 1" inkscape:persp3d-origin="372.04724 : 350.78739 : 1" id="perspective10" />
<inkscape:perspective id="perspective2832" inkscape:persp3d-origin="0.5 : 0.33333333 : 1" inkscape:vp_z="1 : 0.5 : 1" inkscape:vp_y="0 : 1000 : 0" inkscape:vp_x="0 : 0.5 : 1" sodipodi:type="inkscape:persp3d" />
<script type="text/ecmascript" id="script6">
		var fdat="",sdat="";
		function onAreaOver(evt){
			var ele=evt.target; 
			fdat=ele.getAttribute('fill'); 
			sdat=ele.getAttribute('stroke');
			ele.setAttribute('fill','#006fb6');//多边形填充颜色
			ele.setAttribute('stroke','#006fb6');//stroke 多边形 边框颜色
			
		}
		function onAreaOut(evt){
			var ele=evt.target; 
			ele.setAttribute('fill',fdat);
			ele.setAttribute('stroke',sdat);
		}
		</script>
<symbol overflow="visible" id="symbol" style="overflow:visible" xmlns="http://www.w3.org/2000/svg">
<path d="m 626,156 2,-2 2,-4 0,-3 -1,-3 -4,-3 -6,-3 -5,-2 -4,-2 -4,8 -6,14" id="path9" style="fill:#000000;stroke:none" />
</symbol>
</defs>
<sodipodi:namedview id="base" pagecolor="#ffffff" bordercolor="#666666" borderopacity="1.0" inkscape:pageopacity="0.0" inkscape:pageshadow="2" inkscape:zoom="5.6" inkscape:cx="583.1007" inkscape:cy="273.63795" inkscape:document-units="px" inkscape:current-layer="svg2" showgrid="false" inkscape:window-width="1280" inkscape:window-height="740" inkscape:window-x="-4" inkscape:window-y="-4" inkscape:window-maximized="1" />
<metadata id="metadata7">
<rdf:RDF>
<cc:Work>
<dc:format>
image/svg+xml</dc:format>
<dc:type rdf:resource="http://purl.org/dc/dcmitype/StillImage" />
<dc:title>
</dc:title>
</cc:Work>
</rdf:RDF>
</metadata>
<image xlink:href="yancheng_1_zlm_w.jpg" width="770" height="180" id="image2834" x="-485" y="255.93361" transform="translate(485,-255.9336)" inkscape:label="Layer 1" inkscape:groupmode="layer" style="display:inline" />
<polygon id="W01" points="86.5 34,86.5 66,111.5 66,111.5 34" fill="#000000" stroke="none" />
<polygon id="W02" points="256.5 23.5,256.5 55.5,277 55.5,277 23.5" fill="#000000" stroke="none" stroke-opacity="0" />
<polygon id="W03" points="283.5 24.5,283.5 54.5,305.5 54.5,305.5 24" fill="#000000" stroke="none" stroke-opacity="0" />
<polygon id="W04" points="312 25,312 54.5,333 54.5,333 24.5" fill="#000000" stroke="none" stroke-opacity="0" />
<polygon id="W05" points="435.5 24,435.5 54.5,456 54.5,456 24" fill="#000000" stroke="none" stroke-opacity="0" />
<polygon id="W06" points="463 24.5,463 55,485 55,485 24.5" fill="#000000" stroke="none" stroke-opacity="0" />
<polygon id="W07" points="491 24.5,491 55,513.5 55,513.5 24.5" fill="#000000" stroke="none" stroke-opacity="0" />
<polygon id="W08" points="656.5 35,656.5 67,682 67,682 34.5" fill="#000000" stroke="none" stroke-opacity="0" />
<polygon id="W09" points="198 57,198 70,211.5 70,211.5 56.5" fill="#000000" stroke="none" stroke-opacity="0" />
<polygon id="W10" points="211.5 57,211.5 69.5,227.5 69.5,227.5 57" fill="#000000" stroke="none" stroke-opacity="0" />
<polygon id="W11" points="227.5 57,227.5 69.5,241 69.5,241 57" fill="#000000" stroke="none" stroke-opacity="0" />
<polygon id="W12" points="241.5 57,241.5 68.5,254 68.5,254 57" fill="#000000" stroke="none" stroke-opacity="0" />
<polygon id="W13" points="285.5 58,285.5 68.5,299 68.5,299 57.5" fill="#000000" stroke="none" stroke-opacity="0" />
<polygon id="W14" points="299.5 58,299.5 68,312.5 68,312.5 57.5" fill="#000000" stroke="none" stroke-opacity="0" />
<polygon id="W15" points="454 58,454 71,468 71,468 57.5" fill="#000000" stroke="none" stroke-opacity="0" />
<polygon id="W16" points="468.5 57,468.5 70.5,482 70.5,482 57.5" fill="#000000" stroke="none" stroke-opacity="0" />
<polygon id="W17" points="513.5 57,513.5 69,527 69,527 56.5" fill="#000000" stroke="none" stroke-opacity="0" />
<polygon id="W18" points="527.5 57,527.5 69,540.5 69,540.5 56.5" fill="#000000" stroke="none" stroke-opacity="0" />
<polygon id="W19" points="540.5 56.5,540 69,555.5 69,555 56.5" fill="#000000" stroke="none" stroke-opacity="0" />
<polygon id="W20" points="555 56.5,555 69,569 69,569 56" fill="#000000" stroke="none" stroke-opacity="0" />

</svg>

