<?xml version="1.0" encoding="UTF-8" standalone="no"?>
<!-- Created with Inkscape (http://www.inkscape.org/) -->

<svg xmlns:dc="http://purl.org/dc/elements/1.1/" xmlns:cc="http://creativecommons.org/ns#" xmlns:rdf="http://www.w3.org/1999/02/22-rdf-syntax-ns#" xmlns:svg="http://www.w3.org/2000/svg" xmlns="http://www.w3.org/2000/svg" xmlns:xlink="http://www.w3.org/1999/xlink" xmlns:sodipodi="http://sodipodi.sourceforge.net/DTD/sodipodi-0.dtd" xmlns:inkscape="http://www.inkscape.org/namespaces/inkscape" width="770" height="410" id="svg2" version="1.1" inkscape:version="0.47pre4 " sodipodi:docname="test.svg" style="display:inline">
<defs id="defs4">
<inkscape:perspective sodipodi:type="inkscape:persp3d" inkscape:vp_x="0 : 526.18109 : 1" inkscape:vp_y="0 : 1000 : 0" inkscape:vp_z="744.09448 : 526.18109 : 1" inkscape:persp3d-origin="372.04724 : 350.78739 : 1" id="perspective10" />
<inkscape:perspective id="perspective2832" inkscape:persp3d-origin="0.5 : 0.33333333 : 1" inkscape:vp_z="1 : 0.5 : 1" inkscape:vp_y="0 : 1000 : 0" inkscape:vp_x="0 : 0.5 : 1" sodipodi:type="inkscape:persp3d" />
<script type="text/ecmascript" id="script6">
		var fdat="",sdat="";
		function onAreaOver(evt){
			var ele=evt.target; 
			fdat=ele.getAttribute('fill'); 
			sdat=ele.getAttribute('stroke');
			ele.setAttribute('fill','#006fb6');//多边形填充颜色
			ele.setAttribute('stroke','#006fb6');//stroke 多边形 边框颜色
			
		}
		function onAreaOut(evt){
			var ele=evt.target; 
			ele.setAttribute('fill',fdat);
			ele.setAttribute('stroke',sdat);
		}
		</script>
<symbol overflow="visible" id="symbol" style="overflow:visible" xmlns="http://www.w3.org/2000/svg">
<path d="m 626,156 2,-2 2,-4 0,-3 -1,-3 -4,-3 -6,-3 -5,-2 -4,-2 -4,8 -6,14" id="path9" style="fill:#000000;stroke:none" />
</symbol>
</defs>
<sodipodi:namedview id="base" pagecolor="#ffffff" bordercolor="#666666" borderopacity="1.0" inkscape:pageopacity="0.0" inkscape:pageshadow="2" inkscape:zoom="5.6" inkscape:cx="583.1007" inkscape:cy="273.63795" inkscape:document-units="px" inkscape:current-layer="svg2" showgrid="false" inkscape:window-width="1280" inkscape:window-height="740" inkscape:window-x="-4" inkscape:window-y="-4" inkscape:window-maximized="1" />
<metadata id="metadata7">
<rdf:RDF>
<cc:Work>
<dc:format>
image/svg+xml</dc:format>
<dc:type rdf:resource="http://purl.org/dc/dcmitype/StillImage" />
<dc:title>
</dc:title>
</cc:Work>
</rdf:RDF>
</metadata>
<image xlink:href="qingdaolicang_mall_1f.png" width="770" height="410" id="image2834" x="-485" y="255.93361" transform="translate(485,-255.9336)" inkscape:label="Layer 1" inkscape:groupmode="layer" style="display:inline" />
<polygon id="1001" points="51 55,69 68,253.5 68,253.5 43.5,311 43.5,311 87.5,290 87.5,290 121,322.5 121,322.5 151,290 151,290 278,248 278,248 247,100 247,100 278.5,58 278.5,58 246.5,36.5 246.5,36.5 115,45 103,27.5 89.5" fill="#000000" stroke="none" stroke-opacity="0" />
<polygon id="1003" points="78.5 314.5,73.25 315.5,45.25 344.5,57.75 357,79.75 356.5" fill="#000000" stroke="#000000" />
<polygon id="1004-1005" points="100 310.75,100 355.75,121.25 355.75,121.25 310.75" fill="#000000" stroke="#000000" />
<polygon id="1006" points="121.25 310.75,164.25 310.75,164.25 334.75,147.5 335.5,147.5 356.5,121 356.5" fill="#000000" stroke="#000000" />
<polygon id="1015-1017-1018" points="248.25 310.5,290 310.5,290 355.5,270 356.25,269.5 334.75,248.75 334" fill="#000000" stroke="none" stroke-opacity="0" />
<polygon id="1016" points="248.5 333.75,248.5 356.5,270.75 356,269.5 334.5" fill="#000000" stroke="none" stroke-opacity="0" />
<polygon id="1019-1021-1022-1023" points="289.75 310.25,354 310.5,354.25 350.5,333.75 350.75,333.25 356.75,324 356.5,324.25 334.25,289.75 334" fill="#000000" stroke="none" stroke-opacity="0" />
<polygon id="1020" points="290 334,289.75 355.5,312.5 355.75,312.25 333.75" fill="#000000" stroke="none" stroke-opacity="0" />
<polygon id="1024" points="353.75 310.5,365 310.5,373.75 316.5,376.75 329,375 341.5,367.75 349.75,354.5 350.5" fill="#000000" stroke="none" stroke-opacity="0" />
<polygon id="1025" points="420 310.5,420 351,410 351.25,400.25 343.75,397.25 332.75,398.5 320,408 310.75" fill="#000000" stroke="none" stroke-opacity="0" />
<polygon id="1026-1027" points="420 350.5,441.75 350.5,442 356.75,450.75 356.5,449.75 334.75,441 333.5,442 310.75,419.5 310.25" fill="#000000" stroke="none" stroke-opacity="0" />
<polygon id="1028" points="441.5 310.75,463.5 310.75,463.5 335,441.5 335" fill="#000000" stroke="none" stroke-opacity="0" />
<polygon id="1029-1030" points="463.75 310.75,485 310.75,485 356.5,463 356.5" fill="#000000" stroke="none" stroke-opacity="0" />
<polygon id="1031-1032-1033" points="484.75 310.75,526.25 310.75,526.25 333.75,504.5 333.75,504.5 356.5,485 356.5" fill="#000000" stroke="none" stroke-opacity="0" />
<polygon id="1034-1035-1036" points="504.5 333.5,504.5 356.75,539.25 356.75,539.25 310.75,526.25 310.75,526.25 333" fill="#000000" stroke="none" stroke-opacity="0" />
<polygon id="1037-1038" points="545 310.75,545 356.5,569 356.5,569 311" fill="#000000" stroke="none" stroke-opacity="0" />
<polygon id="1039-1040" points="568.75 310.75,590 310.75,590 356.5,568.5 356.5" fill="#000000" stroke="none" stroke-opacity="0" />
<polygon id="1041" points="589.75 311,632 311,632 356.75,602.75 356.75,602.75 329,589.75 329" fill="#000000" stroke="none" stroke-opacity="0" />
<polygon id="1042-1043" points="632 310.5,653 310.5,653 356.25,632 356.25" fill="#000000" stroke="none" stroke-opacity="0" />
<polygon id="1046" points="716.75 257.5,739.5 257.5,739.5 279,716.75 279" fill="#000000" stroke="none" stroke-opacity="0" />
<polygon id="1047-1048" points="716.5 214.75,739 214.75,739 236.5,716.75 236.5" fill="#000000" stroke="none" stroke-opacity="0" />
<polygon id="1049" points="716.25 193.5,716.25 215.25,739 215.25,739 192.75" fill="#000000" stroke="none" stroke-opacity="0" />
<polygon id="1050" points="716 150.5,716 172.75,739.25 172.75,739.25 150.75" fill="#000000" stroke="none" stroke-opacity="0" />
<polygon id="1051" points="711.5 124.25,716.75 130.25,716.5 151.5,739.25 151.25,739.25 129.75,722.75 113.25" fill="#000000" stroke="none" stroke-opacity="0" />
<polygon id="1052" points="674.25 86.5,674.5 109.75,695.75 109.5,702 115,712.75 103.75,696 86.5" fill="#000000" stroke="none" stroke-opacity="0" />
<polygon id="1053" points="653 86.75,653 110,674.75 110,674.75 86.75" fill="#000000" stroke="none" stroke-opacity="0" />
<polygon id="1054" points="632 86.75,632 109.5,653.5 109.5,653.5 87" fill="#000000" stroke="none" stroke-opacity="0" />
<polygon id="1055" points="611 86.75,611 109.25,632.5 109.25,632.5 86.25" fill="#000000" stroke="none" stroke-opacity="0" />
<polygon id="1056" points="569 86.5,569 109.5,589.75 109.5,589.75 86.5" fill="#000000" stroke="none" stroke-opacity="0" />
<polygon id="1057" points="547.25 109.75,569.25 109.75,569.25 86.25,546.75 86.25" fill="#000000" stroke="none" stroke-opacity="0" />
<polygon id="1058" points="526 86.5,526 110,547.75 110,547.75 86" fill="#000000" stroke="none" stroke-opacity="0" />
<polygon id="1059" points="505 86.5,505 109,527 109,527 87" fill="#000000" stroke="none" stroke-opacity="0" />
<polygon id="1060" points="478 86,477.75 109.5,505 109.5,505 86.75" fill="#000000" stroke="none" stroke-opacity="0" />
<polygon id="1068" points="184.75 44.25,185 68.25,206.25 68.25,206.75 42.75" fill="#000000" stroke="none" stroke-opacity="0" />
<polygon id="1069" points="162.75 43.5,162.75 68,186.25 68,186.25 44" fill="#000000" stroke="none" stroke-opacity="0" />
<polygon id="1070" points="141.5 43.75,141.5 68.5,163.25 68.5,163.25 43.25" fill="#000000" stroke="none" stroke-opacity="0" />
<polygon id="1071" points="120.25 44,120.25 69,142.75 69,142.75 43.25" fill="#000000" stroke="none" stroke-opacity="0" />
<polygon id="1072" points="78.25 43.5,78.25 68.5,100.25 68.5,100.25 43" fill="#000000" stroke="none" stroke-opacity="0" />
<polygon id="1073" points="50.75 55.25,58.5 44,79 43.75,79 69,68.25 68" fill="#000000" stroke="none" stroke-opacity="0" />
<polygon id="1074" points="28 88.75,45.25 103.75,37 115.5,13.75 108.25" fill="#000000" stroke="none" stroke-opacity="0" />
<polygon id="1075" points="14.25 107.5,14.5 130.25,37.75 130,36.5 114.75" fill="#000000" stroke="none" stroke-opacity="0" />
<polygon id="1076" points="14.5 129.5,14.5 151.75,37.25 151.75,37.25 129.75" fill="#000000" stroke="#000000" />
<polygon id="1077" points="14 151.25,14 172.5,37.5 172.5,37.5 151.5" fill="#000000" stroke="#000000" />
<polygon id="1078" points="14.25 172.25,14.25 194,37 194,37 172.75" fill="#000000" stroke="#000000" />
<polygon id="1079" points="14 216,14 236.75,37 236.75,37 216" fill="#000000" stroke="#000000" />
<polygon id="1080" points="13.5 258.5,13.5 279.5,58.5 279.5,58.5 245.75,37.75 245.75,37.75 258.75" fill="#000000" stroke="#000000" />
<polygon id="1081" points="14.25 280.25,14.25 316,26.5 328.75,55.75 296.75,55.25 279" fill="#000000" stroke="#000000" />
<polygon id="1082" points="100 246.5,100 279.25,121 279.25,121 246.5" fill="#000000" stroke="#000000" />
<polygon id="1083" points="121.5 280,134.25 279.75,134.25 258.5,143.25 258,143 246.75,121.75 246.5" fill="#000000" stroke="#000000" />
<polygon id="1084-1085" points="156.25 246.5,156.25 258,164.5 257.75,164 279,198 279.5,198.5 246.75" fill="#000000" stroke="#000000" xmlns="http://www.w3.org/2000/svg" />
<polygon id="1086" points="206 271.5,220.25 271.5,220.25 279.5,206 279.5" fill="#000000" stroke="#000000" />
<polygon id="1087" points="227.25 247.25,227 279.75,248.75 279,248 246.5" fill="#000000" stroke="#000000" />
<polygon id="1088" points="290 257.75,306.25 257.75,306.25 279.25,290 279.25" fill="#000000" stroke="#000000" />
<polygon id="1089" points="312 257.5,312 279,323.25 279,323.25 257.5" fill="#000000" stroke="#000000" />
<polygon id="1090" points="309.75 236,309.75 249.25,323.75 249.25,323.75 235.5" fill="#000000" stroke="#000000" />
<polygon id="1091" points="290 225.5,322.5 225.5,322.5 215,290 215" fill="#000000" stroke="#000000" />
<polygon id="1092" points="289.75 193,323 193,323 215.5,289.75 215.5" fill="#000000" stroke="#000000" />
<polygon id="1093-1094" points="290 149.75,322.5 149.75,322.5 193.75,289 193.75" fill="#000000" stroke="#000000" />
<polygon id="1100" points="451.75 159,451.75 172.75,466.5 172.75,466.5 159.5" fill="#000000" stroke="#000000" />
<polygon id="1101" points="452.25 180.75,452.25 194.5,485.25 194.5,485.25 180.25" fill="#000000" stroke="#000000" />
<polygon id="1102" points="451.75 194.25,451.75 215.25,484.75 215.25,484.75 194.25" fill="#000000" stroke="#000000" />
<polygon id="1103" points="452 215,452 225,484 225,484 215.5" fill="#000000" stroke="#000000" />
<polygon id="1104" points="451.5 236,451.5 248.5,464.75 249.25,464.5 235.5" fill="#000000" stroke="#000000" xmlns="http://www.w3.org/2000/svg" />
<polygon id="1105" points="452 258,451.5 279,463.75 279.25,463.5 257.5" fill="#000000" stroke="#000000" />
<polygon id="1106" points="469.5 260,469.25 279.5,486 279.25,485.25 260.5" fill="#000000" stroke="#000000" xmlns="http://www.w3.org/2000/svg" />
<polygon id="1107" points="485.5 258.5,485.75 279.75,505.75 279.5,505.75 258.25" fill="#000000" stroke="#000000" />
<polygon id="1108" points="505.5 258.25,526.25 258.25,526.25 279.5,504.75 279.5" fill="#000000" stroke="#000000" />
<polygon id="1109-1116" points="523.75 246.75,524.75 279.75,558.5 279.75,558.5 247.25" fill="#000000" stroke="#000000" xmlns="http://www.w3.org/2000/svg" />
<polygon id="1110-1111" points="558.5 247,589.75 247,589.75 279.75,558.5 279.75" fill="#000000" stroke="#000000" />
<polygon id="1112" points="597.25 273.5,597.25 280.25,612.25 280.25,612.25 274" fill="#000000" stroke="#000000" />
<polygon id="1113" points="611 246.75,610.5 259,619 259,618.75 279,633.25 279.5,632 246.75" fill="#000000" stroke="#000000" />
<polygon id="1115" points="14 236.5,14 258.5,22 258.5,22 244,36.75 244,37.25 237" fill="#000000" stroke="#000000" xmlns="http://www.w3.org/2000/svg" />
<polygon id="1114" points="79 314.5,100 314.5,100 356.5,80.75 356.5" fill="#000000" stroke="#000000" />
<polygon id="1007-1008-1009-1010" points="164.75 310.25,164.75 356.25,207.75 356.25,207.75 310" fill="#000000" stroke="none" stroke-opacity="0" />
<polygon id="1011-1012-1013-1014" points="212.25 310.5,212.25 356.5,249.5 356.5,249.5 310.25" fill="#000000" stroke="none" stroke-opacity="0" />
<polygon id="1061-1062-1063-1064-1065-1095-1096-1097-1098-1099" points="333 65,333 130.5,442.5 130.5,442.5 64.5" fill="#000000" stroke="none" stroke-opacity="0" />
<polygon id="1066-1067" points="206.25 42.75,253.5 42.75,253.5 68.75,206.5 68.75" fill="#000000" stroke="none" stroke-opacity="0" />
<polygon id="1002-1044-1045" points="478.5 109.5,695.5 109.5,701.5 115.5,708 109.5,716.5 118,712 124.5,717 130.5,717 237.5,708.5 238,708.5 258,696.5 258,696.5 278,698 287.5,739 286.5,739.5 315,726.5 327.5,701.5 302,697.5 295.5,695.5 280,675 280,675 274,653.5 274,654 280.5,654 314.5,673 315,682 317,707.5 344,695.5 356,653.5 355,653 279.5,634.5 279.5,633 248,609.5 248,609.5 257.5,590.5 257.5,590.5 247,524 247,524 257,485.5 257,485.5 150.5,461.5 150.5,461.5 127.5,477.5 127.5" fill="#000000" stroke="#000000" />

</svg>
