<?xml version="1.0" encoding="UTF-8" standalone="no"?>
<!-- Created with Inkscape (http://www.inkscape.org/) -->

<svg xmlns:dc="http://purl.org/dc/elements/1.1/" xmlns:cc="http://creativecommons.org/ns#" xmlns:rdf="http://www.w3.org/1999/02/22-rdf-syntax-ns#" xmlns:svg="http://www.w3.org/2000/svg" xmlns="http://www.w3.org/2000/svg" xmlns:xlink="http://www.w3.org/1999/xlink" xmlns:sodipodi="http://sodipodi.sourceforge.net/DTD/sodipodi-0.dtd" xmlns:inkscape="http://www.inkscape.org/namespaces/inkscape" width="770" height="410" id="svg2" version="1.1" inkscape:version="0.47pre4 " sodipodi:docname="test.svg" style="display:inline">
<defs id="defs4">
<inkscape:perspective sodipodi:type="inkscape:persp3d" inkscape:vp_x="0 : 526.18109 : 1" inkscape:vp_y="0 : 1000 : 0" inkscape:vp_z="744.09448 : 526.18109 : 1" inkscape:persp3d-origin="372.04724 : 350.78739 : 1" id="perspective10" />
<inkscape:perspective id="perspective2832" inkscape:persp3d-origin="0.5 : 0.33333333 : 1" inkscape:vp_z="1 : 0.5 : 1" inkscape:vp_y="0 : 1000 : 0" inkscape:vp_x="0 : 0.5 : 1" sodipodi:type="inkscape:persp3d" />
<script type="text/ecmascript" id="script6">
		var fdat="",sdat="";
		function onAreaOver(evt){
			var ele=evt.target; 
			fdat=ele.getAttribute('fill'); 
			sdat=ele.getAttribute('stroke');
			ele.setAttribute('fill','#006fb6');//多边形填充颜色
			ele.setAttribute('stroke','#006fb6');//stroke 多边形 边框颜色
			
		}
		function onAreaOut(evt){
			var ele=evt.target; 
			ele.setAttribute('fill',fdat);
			ele.setAttribute('stroke',sdat);
		}
		</script>
<symbol overflow="visible" id="symbol" style="overflow:visible" xmlns="http://www.w3.org/2000/svg">
<path d="m 626,156 2,-2 2,-4 0,-3 -1,-3 -4,-3 -6,-3 -5,-2 -4,-2 -4,8 -6,14" id="path9" style="fill:#000000;stroke:none" />
</symbol>
</defs>
<sodipodi:namedview id="base" pagecolor="#ffffff" bordercolor="#666666" borderopacity="1.0" inkscape:pageopacity="0.0" inkscape:pageshadow="2" inkscape:zoom="5.6" inkscape:cx="583.1007" inkscape:cy="273.63795" inkscape:document-units="px" inkscape:current-layer="svg2" showgrid="false" inkscape:window-width="1280" inkscape:window-height="740" inkscape:window-x="-4" inkscape:window-y="-4" inkscape:window-maximized="1" />
<metadata id="metadata7">
<rdf:RDF>
<cc:Work>
<dc:format>
image/svg+xml</dc:format>
<dc:type rdf:resource="http://purl.org/dc/dcmitype/StillImage" />
<dc:title>
</dc:title>
</cc:Work>
</rdf:RDF>
</metadata>
<image xlink:href="wuxi_ad_blm_n.jpg" width="770" height="410" id="image2834" x="-485" y="255.93361" transform="translate(485,-255.9336)" inkscape:label="Layer 1" inkscape:groupmode="layer" style="display:inline" />
<polygon id="B01" points="15 190.5,15 218,31 218,31 190" fill="#000000" stroke="none" />
<polygon id="B02" points="31 190.5,49 190.5,49 218,30.5 218" fill="#000000" stroke="none" stroke-opacity="0" />
<polygon id="B03" points="67 192,83.5 192,83.5 218,66 218" fill="#000000" stroke="none" stroke-opacity="0" />
<polygon id="B04" points="83 192.5,100.5 192.5,100.5 217.5,83 217.5" fill="#000000" stroke="none" stroke-opacity="0" />
<polygon id="B05" points="100 192.5,120.5 192.5,120.5 217.5,100.5 217.5" fill="#000000" stroke="none" stroke-opacity="0" />
<polygon id="B06" points="120 192.5,140.5 192.5,140.5 218.5,120 218.5" fill="#000000" stroke="none" stroke-opacity="0" />
<polygon id="B07" points="141 193,158.5 193,158.5 218,140 218" fill="#000000" stroke="none" stroke-opacity="0" />
<polygon id="B08" points="158 193.5,158 217.5,175 217.5,175 193.5" fill="#000000" stroke="none" stroke-opacity="0" />
<polygon id="B09" points="176 194,176 218,192.5 218,192.5 194" fill="#000000" stroke="none" stroke-opacity="0" />
<polygon id="B09侧1" points="192.5 194.5,202 194.5,202 206.5,192.5 206.5" fill="#000000" stroke="none" stroke-opacity="0" />
<polygon id="B09侧2" points="193 206,193 219,202 219,202 206" fill="#000000" stroke="none" stroke-opacity="0" />
<polygon id="B10" points="528 189.5,554.5 189.5,554.5 218,527.5 218" fill="#000000" stroke="none" stroke-opacity="0" xmlns="http://www.w3.org/2000/svg" />
<polygon id="B11" points="554.5 189.5,572 189.5,572 218,554.5 218" fill="#000000" stroke="none" stroke-opacity="0" xmlns="http://www.w3.org/2000/svg" />
<polygon id="B12" points="572 190,590 190,590 218,572.5 218" fill="#000000" stroke="none" stroke-opacity="0" xmlns="http://www.w3.org/2000/svg" />
<polygon id="B13" points="590.5 189.5,590.5 217.5,608.5 217.5,608.5 190" fill="#000000" stroke="none" stroke-opacity="0" xmlns="http://www.w3.org/2000/svg" />
<polygon id="B14" points="608.5 190,626.5 190,626.5 218,607.5 218" fill="#000000" stroke="none" stroke-opacity="0" xmlns="http://www.w3.org/2000/svg" />
<polygon id="B15" points="644.5 189.5,644.5 218.5,663 218.5,663 189.5" fill="#000000" stroke="none" stroke-opacity="0" xmlns="http://www.w3.org/2000/svg" />
<polygon id="B16" points="663 190,663 217.5,680 217.5,680 190" fill="#000000" stroke="none" stroke-opacity="0" xmlns="http://www.w3.org/2000/svg" />
<polygon id="B17" points="680.5 190,680.5 217.5,697.5 217.5,697.5 190" fill="#000000" stroke="none" stroke-opacity="0" xmlns="http://www.w3.org/2000/svg" />
<polygon id="B18" points="697.5 190,716.5 190,716.5 218.5,697.5 218.5" fill="#000000" stroke="none" stroke-opacity="0" xmlns="http://www.w3.org/2000/svg" />
<polygon id="B19" points="716.5 190,736 190,736 218,716.5 218" fill="#000000" stroke="none" stroke-opacity="0" xmlns="http://www.w3.org/2000/svg" />
<polygon id="B20" points="736 190.5,752 190.5,752 218.5,736 218.5" fill="#000000" stroke="none" stroke-opacity="0" xmlns="http://www.w3.org/2000/svg" />


</svg>

