<?xml version="1.0" encoding="UTF-8" standalone="no"?>
<!-- Created with Inkscape (http://www.inkscape.org/) -->

<svg xmlns:dc="http://purl.org/dc/elements/1.1/" xmlns:cc="http://creativecommons.org/ns#" xmlns:rdf="http://www.w3.org/1999/02/22-rdf-syntax-ns#" xmlns:svg="http://www.w3.org/2000/svg" xmlns="http://www.w3.org/2000/svg" xmlns:xlink="http://www.w3.org/1999/xlink" xmlns:sodipodi="http://sodipodi.sourceforge.net/DTD/sodipodi-0.dtd" xmlns:inkscape="http://www.inkscape.org/namespaces/inkscape" width="770" height="450" id="svg2" version="1.1" inkscape:version="0.47pre4 " sodipodi:docname="test.svg" style="display:inline">
<defs id="defs4">
<inkscape:perspective sodipodi:type="inkscape:persp3d" inkscape:vp_x="0 : 526.18109 : 1" inkscape:vp_y="0 : 1000 : 0" inkscape:vp_z="744.09448 : 526.18109 : 1" inkscape:persp3d-origin="372.04724 : 350.78739 : 1" id="perspective10" />
<inkscape:perspective id="perspective2832" inkscape:persp3d-origin="0.5 : 0.33333333 : 1" inkscape:vp_z="1 : 0.5 : 1" inkscape:vp_y="0 : 1000 : 0" inkscape:vp_x="0 : 0.5 : 1" sodipodi:type="inkscape:persp3d" />
<script type="text/ecmascript" id="script6">
		var fdat="",sdat="";
		function onAreaOver(evt){
			var ele=evt.target; 
			fdat=ele.getAttribute('fill'); 
			sdat=ele.getAttribute('stroke');
			ele.setAttribute('fill','#006fb6');//多边形填充颜色
			ele.setAttribute('stroke','#006fb6');//stroke 多边形 边框颜色
			
		}
		function onAreaOut(evt){
			var ele=evt.target; 
			ele.setAttribute('fill',fdat);
			ele.setAttribute('stroke',sdat);
		}
		</script>
<symbol overflow="visible" id="symbol" style="overflow:visible">
<path d="m 626,156 2,-2 2,-4 0,-3 -1,-3 -4,-3 -6,-3 -5,-2 -4,-2 -4,8 -6,14" id="path9" style="fill:#000000;stroke:none" />
</symbol>
</defs>
<sodipodi:namedview id="base" pagecolor="#ffffff" bordercolor="#666666" borderopacity="1.0" inkscape:pageopacity="0.0" inkscape:pageshadow="2" inkscape:zoom="5.6" inkscape:cx="583.1007" inkscape:cy="273.63795" inkscape:document-units="px" inkscape:current-layer="svg2" showgrid="false" inkscape:window-width="1280" inkscape:window-height="740" inkscape:window-x="-4" inkscape:window-y="-4" inkscape:window-maximized="1" />
<metadata id="metadata7">
<rdf:RDF>
<cc:Work>
<dc:format>
image/svg+xml</dc:format>
<dc:type rdf:resource="http://purl.org/dc/dcmitype/StillImage" />
<dc:title>
</dc:title>
</cc:Work>
</rdf:RDF>
</metadata>
<image xlink:href="taian_a_2f_a2.png" width="770" height="450" id="image2834" x="-485" y="255.93361" transform="translate(485,-255.9336)" inkscape:label="Layer 1" inkscape:groupmode="layer" style="display:inline" />
<polygon id="A2-2001" points="663 247,756 247,756 269,730 269,730 298,688 298,688 270,663 270" fill="#000000" stroke="none" stroke-opacity="0" />
<polygon id="A2-2002" points="662.25 246.75,662.25 222.5,756 222.5,756 246.25" fill="#000000" stroke="none" stroke-opacity="0" />
<polygon id="A2-2003" points="755.5 222.25,755.5 199.5,661.75 199.5,661.75 223" fill="#000000" stroke="none" stroke-opacity="0" />
<polygon id="A2-2004" points="662 199.75,662 175.5,755.5 175.5,755.5 199.75" fill="#000000" stroke="none" stroke-opacity="0" />
<polygon id="A2-2005" points="662 175.75,662 152.25,755.5 152.25,755.5 175.5" fill="#000000" stroke="none" stroke-opacity="0" />
<polygon id="A2-2006" points="755.25 152.25,755.25 128.5,662 127.5,662 151.25" fill="#000000" stroke="none" stroke-opacity="0" />
<polygon id="A2-2007" points="581.25 81.5,756 81,755.75 128.75,581.25 128.75" fill="#000000" stroke="none" stroke-opacity="0" />
<polygon id="A2-2008" points="413.5 10.5,507.5 10.5,578.5 81.5,582 130,555 128,555.5 167.5,499 222.5,391.5 222.5,390.5 59,377.5 46" fill="#000000" stroke="none" stroke-opacity="0" />
<polygon id="A2-2009" points="377 46,341.5 81.5,341.5 105,390.5 105,390.5 59" fill="#000000" stroke="none" stroke-opacity="0" />
<polygon id="A2-2010" points="342 105,391 105,391 128,342 128" fill="#000000" stroke="none" stroke-opacity="0" />
<polygon id="A2-2011" points="341.5 128.5,391.5 128.5,391.5 151.5,341 151.5" fill="#000000" stroke="none" stroke-opacity="0" />
<polygon id="A2-2012" points="341.5 151.5,390.5 151.5,390.5 175.5,341.5 175.5" fill="#000000" stroke="none" stroke-opacity="0" />
<polygon id="A2-2013" points="341.5 176,390.5 176,390.5 199.5,341.5 199.5" fill="#000000" stroke="none" stroke-opacity="0" />
<polygon id="A2-2014" points="341.5 199,391 199,391 223.5,341 223.5" fill="#000000" stroke="none" stroke-opacity="0" />
<polygon id="A2-2015" points="317 175.5,317 223,292.5 223,292.5 175.5" fill="#000000" stroke="none" stroke-opacity="0" />
<polygon id="A2-2016" points="293 176,293 223,269 223,269 175.5" fill="#000000" stroke="none" stroke-opacity="0" />
<polygon id="A2-2017" points="269 175,246 175,246 222.5,269 222.5" fill="#000000" stroke="none" stroke-opacity="0" />
<polygon id="A2-2018" points="245.5 164,245.5 223,223 223,223 163.5" fill="#000000" stroke="none" stroke-opacity="0" />
<polygon id="A2-2019" points="223 164.5,198.5 164.5,198.5 223.5,223 223.5" fill="#000000" stroke="none" stroke-opacity="0" />
<polygon id="A2-2020" points="199.5 164,175 164,175 223.5,199 223.5" fill="#000000" stroke="none" stroke-opacity="0" />
<polygon id="A2-2021" points="175.5 158.5,175.5 224,151 224,151 158" fill="#000000" stroke="none" stroke-opacity="0" />
<polygon id="A2-2022" points="151 158.5,128 158.5,128 224,151 224" fill="#000000" stroke="none" stroke-opacity="0" />
<polygon id="A2-2023" points="128.5 105,151 105,151 158.5,128.5 158.5" fill="#000000" stroke="none" stroke-opacity="0" />
<polygon id="A2-2024" points="151 105.5,175.5 105.5,175.5 159,150.5 159" fill="#000000" stroke="none" stroke-opacity="0" />
<polygon id="A2-2025" points="175 106,199.5 106,199.5 164,175 164" fill="#000000" stroke="none" stroke-opacity="0" />
<polygon id="A2-2026" points="200 105.5,222.5 105.5,222.5 164,200 164" fill="#000000" stroke="none" stroke-opacity="0" />
<polygon id="A2-2027" points="222.5 105.5,246.5 105.5,246.5 164,222.5 164" fill="#000000" stroke="none" stroke-opacity="0" />
<polygon id="A2-2028" points="246.5 105,317 105,317 128.5,246.5 128.5" fill="#000000" stroke="none" stroke-opacity="0" />
<polygon id="A2-2029" points="247 128.5,316 128.5,316 151.5,247 151.5" fill="#000000" stroke="none" stroke-opacity="0" />
<polygon id="AS2-2001" points="35.5 328.5,35.5 394.5,59.5 394.5,59.5 328" fill="#000000" stroke="none" stroke-opacity="0" xmlns="http://www.w3.org/2000/svg" />
<polygon id="AS2-2002" points="59.5 328.5,83.5 328.5,83.5 394,59 394" fill="#000000" stroke="none" stroke-opacity="0" xmlns="http://www.w3.org/2000/svg" />
<polygon id="AS2-2003" points="83.5 329,105 329,105 394.5,82.5 394.5" fill="#000000" stroke="none" stroke-opacity="0" xmlns="http://www.w3.org/2000/svg" />
<polygon id="AS2-2004" points="105 329,128.5 329,128.5 395,104.5 395" fill="#000000" stroke="none" stroke-opacity="0" xmlns="http://www.w3.org/2000/svg" />
<polygon id="AS2-2005-2" points="128.5 328.5,128.5 425,209 425,209 430.5,240 430.5,240.5 425.5,443.5 425.5,443.5 369.5,404.5 369.5,404.5 349,430 349,430 328" fill="#000000" stroke="none" stroke-opacity="0" xmlns="http://www.w3.org/2000/svg" />
<polygon id="AS2-2005-1" points="443.5 328.5,443.5 348.5,460.5 348.5,460.5 371,443.5 371,443.5 427.5,475 427.5,475 425,580.5 425.5,580.5 398,608.5 398,608.5 355.5,579.5 355.5,579.5 328.5" fill="#000000" stroke="none" stroke-opacity="0" xmlns="http://www.w3.org/2000/svg" />
</svg>
