<?xml version="1.0" encoding="UTF-8" standalone="no"?>
<!-- Created with Inkscape (http://www.inkscape.org/) -->

<svg xmlns:dc="http://purl.org/dc/elements/1.1/" xmlns:cc="http://creativecommons.org/ns#" xmlns:rdf="http://www.w3.org/1999/02/22-rdf-syntax-ns#" xmlns:svg="http://www.w3.org/2000/svg" xmlns="http://www.w3.org/2000/svg" xmlns:xlink="http://www.w3.org/1999/xlink" xmlns:sodipodi="http://sodipodi.sourceforge.net/DTD/sodipodi-0.dtd" xmlns:inkscape="http://www.inkscape.org/namespaces/inkscape" width="770" height="450" id="svg2" version="1.1" inkscape:version="0.47pre4 " sodipodi:docname="test.svg" style="display:inline">
<defs id="defs4">
<inkscape:perspective sodipodi:type="inkscape:persp3d" inkscape:vp_x="0 : 526.18109 : 1" inkscape:vp_y="0 : 1000 : 0" inkscape:vp_z="744.09448 : 526.18109 : 1" inkscape:persp3d-origin="372.04724 : 350.78739 : 1" id="perspective10" />
<inkscape:perspective id="perspective2832" inkscape:persp3d-origin="0.5 : 0.33333333 : 1" inkscape:vp_z="1 : 0.5 : 1" inkscape:vp_y="0 : 1000 : 0" inkscape:vp_x="0 : 0.5 : 1" sodipodi:type="inkscape:persp3d" />
<script type="text/ecmascript" id="script6">
		var fdat="",sdat="";
		function onAreaOver(evt){
			var ele=evt.target; 
			fdat=ele.getAttribute('fill'); 
			sdat=ele.getAttribute('stroke');
			ele.setAttribute('fill','#006fb6');//多边形填充颜色
			ele.setAttribute('stroke','#006fb6');//stroke 多边形 边框颜色
			
		}
		function onAreaOut(evt){
			var ele=evt.target; 
			ele.setAttribute('fill',fdat);
			ele.setAttribute('stroke',sdat);
		}
		</script>
<symbol overflow="visible" id="symbol" style="overflow:visible">
<path d="m 626,156 2,-2 2,-4 0,-3 -1,-3 -4,-3 -6,-3 -5,-2 -4,-2 -4,8 -6,14" id="path9" style="fill:#000000;stroke:none" />
</symbol>
</defs>
<sodipodi:namedview id="base" pagecolor="#ffffff" bordercolor="#666666" borderopacity="1.0" inkscape:pageopacity="0.0" inkscape:pageshadow="2" inkscape:zoom="5.6" inkscape:cx="583.1007" inkscape:cy="273.63795" inkscape:document-units="px" inkscape:current-layer="svg2" showgrid="false" inkscape:window-width="1280" inkscape:window-height="740" inkscape:window-x="-4" inkscape:window-y="-4" inkscape:window-maximized="1" />
<metadata id="metadata7">
<rdf:RDF>
<cc:Work>
<dc:format>
image/svg+xml</dc:format>
<dc:type rdf:resource="http://purl.org/dc/dcmitype/StillImage" />
<dc:title>
</dc:title>
</cc:Work>
</rdf:RDF>
</metadata>
<image xlink:href="taian_b_2f_b1_b3.png" width="770" height="450" id="image2834" x="-485" y="255.93361" transform="translate(485,-255.9336)" inkscape:label="Layer 1" inkscape:groupmode="layer" style="display:inline" />
<polygon id="B1-2001" points="18.5 417,109.5 417,109.5 370,18 370" fill="#000000" stroke="none" stroke-opacity="0" xmlns="http://www.w3.org/2000/svg" />
<polygon id="B1-2002" points="109 369.5,109 325.5,18.5 325.5,18.5 370" fill="#000000" stroke="none" stroke-opacity="0" xmlns="http://www.w3.org/2000/svg" />
<polygon id="B1-2003" points="19 325,18.5 278,110 278,110 325" fill="#000000" stroke="none" stroke-opacity="0" xmlns="http://www.w3.org/2000/svg" />
<polygon id="B1-2004" points="18.5 278,18.5 233.5,110 232.5,110 278.5" fill="#000000" stroke="none" stroke-opacity="0" xmlns="http://www.w3.org/2000/svg" />
<polygon id="B1-2005" points="109 234,110 209.5,19 209.5,18 233.5" fill="#000000" stroke="none" stroke-opacity="0" xmlns="http://www.w3.org/2000/svg" />
<polygon id="B1-2006" points="32.5 207,101.5 207,100.5 164.5,99 153.5,95 144,88 136,79.5 131,67 128.5,58 129,48 134,39.5 141.5,33 152.5,31.5 163.5" fill="#000000" stroke="none" stroke-opacity="0" transform="matrix(1,0,0,1,-3,2)" xmlns="http://www.w3.org/2000/svg" />
<polygon id="B1-2007" points="78.5 132.5,107.5 103,139 134.5,108.5 164.5,98 164.5,97.5 157,96 148,89.5 141" fill="#000000" stroke="none" stroke-opacity="0" />
<polygon id="B1-2008" points="107.5 103,137 73.5,144.5 84,152 89.5,161 93,169.5 94,169.5 112.5,161 111.5,139 133.5" fill="#000000" stroke="none" stroke-opacity="0" />
<polygon id="B1-2009" points="203 25,203 92.5,203 112,170 112,171 92.5,161.5 91,153 87.5,142.5 80.5,136.5 68.5,136.5 53,142 38.5,153.5 29,162.5 25" fill="#000000" stroke="none" stroke-opacity="0" xmlns="http://www.w3.org/2000/svg" />
<polygon id="B1-2010" points="202.5 15,243 15,243 111,202 111" fill="#000000" stroke="none" stroke-opacity="0" />
<polygon id="B1-2011" points="243 15,329.5 15,329.5 78,285 78,285 111,242.5 111" fill="#000000" stroke="none" stroke-opacity="0" />
<polygon id="B1-2012" points="329 15,372.5 15,372.5 111,329 111" fill="#000000" stroke="none" stroke-opacity="0" />
<polygon id="B1-2013" points="372 15,416.5 15,416.5 111,372 111" fill="#000000" stroke="none" stroke-opacity="0" />
<polygon id="B1-2014" points="416 15,460.5 15,460.5 111.5,416 111.5" fill="#000000" stroke="none" stroke-opacity="0" />
<polygon id="B1-2015" points="460 15,504 15,504 112,460 112" fill="#000000" stroke="none" stroke-opacity="0" />
<polygon id="B1-2016" points="504 15,546.5 15,546.5 130,519.5 130,510 129,505 123,504.5 111" fill="#000000" stroke="none" stroke-opacity="0" />
<polygon id="B1-2017" points="546.5 15.5,590 15.5,590 129,546 129" fill="#000000" stroke="none" stroke-opacity="0" />
<polygon id="B1-2018" points="592 95.5,637 95.5,637 141.5,614 141.5,614 189,592 189" fill="#000000" stroke="none" stroke-opacity="0" />
<polygon id="B1-2019" points="614.5 142,636.5 142,636.5 187,614.5 187" fill="#000000" stroke="none" stroke-opacity="0" />
<polygon id="B1-2020" points="636.5 141,660 141,660 188.5,636.5 188.5" fill="#000000" stroke="none" stroke-opacity="0" />
<polygon id="B1-2021" points="660 142,728 142,728 233.5,716.5 261,672 261,659.5 234" fill="#000000" stroke="none" stroke-opacity="0" />
<polygon id="B3-2001" points="275 189,358 189,394 225,385.5 233,385.5 347,203 347,203 260" fill="#000000" stroke="none" stroke-opacity="0" />
<polygon id="B3-2002" points="394 225,385.5 233,385.5 279,430 279,430 260.5" fill="#000000" stroke="none" stroke-opacity="0" />
<polygon id="B3-2003" points="385.5 279,430.5 279,430.5 301.5,385 301.5" fill="#000000" stroke="none" stroke-opacity="0" />
<polygon id="B3-2004" points="385.5 301.5,430.5 301.5,430.5 325.5,386 325.5" fill="#000000" stroke="none" stroke-opacity="0" />
<polygon id="B3-2005" points="386 325,429.5 325,429.5 347.5,386 347.5" fill="#000000" stroke="none" stroke-opacity="0" />
<polygon id="B3-2006" points="453.5 279.5,498.5 279.5,498.5 303,453.5 303" fill="#000000" stroke="none" stroke-opacity="0" />
<polygon id="B3-2007" points="453.5 303,498.5 303,498.5 326,453.5 326" fill="#000000" stroke="none" stroke-opacity="0" />
<polygon id="B3-2008" points="498.5 279.5,521.5 279.5,521.5 325.5,498 325.5" fill="#000000" stroke="none" stroke-opacity="0" />
<polygon id="B3-2009" points="521.5 279.5,544.5 279.5,544.5 348,522 348" fill="#000000" stroke="none" stroke-opacity="0" />
<polygon id="B3-2010" points="544.5 279.5,567.5 279.5,567.5 347.5,544.5 347.5" fill="#000000" stroke="none" stroke-opacity="0" />
<polygon id="B3-2011" points="567.5 279,589.5 279,589.5 348,567.5 348" fill="#000000" stroke="none" stroke-opacity="0" xmlns="http://www.w3.org/2000/svg" />
<polygon id="B3-2012" points="590 279.5,613 279.5,613 347.5,589 347.5" fill="#000000" stroke="none" stroke-opacity="0" xmlns="http://www.w3.org/2000/svg" />
<polygon id="B3-2013" points="612.5 279.5,635 279.5,635 348,612.5 348" fill="#000000" stroke="none" stroke-opacity="0" xmlns="http://www.w3.org/2000/svg" />
<polygon id="B3-2014" points="635 347.5,635 395.5,613.5 395.5,613.5 347.5" fill="#000000" stroke="none" stroke-opacity="0" xmlns="http://www.w3.org/2000/svg" />
<polygon id="B3-2015" points="589.5 348.5,589.5 395,612.5 395,612.5 347.5" fill="#000000" stroke="none" stroke-opacity="0" xmlns="http://www.w3.org/2000/svg" />
<polygon id="B3-2016" points="589 348,589 395,566.5 395,566.5 348" fill="#000000" stroke="none" stroke-opacity="0" xmlns="http://www.w3.org/2000/svg" />
<polygon id="B3-2017" points="567 371,533 371,533 395,566.5 395" fill="#000000" stroke="none" stroke-opacity="0" xmlns="http://www.w3.org/2000/svg" />
<polygon id="B3-2018" points="499 347.5,521.5 347.5,521.5 394.5,498 394.5" fill="#000000" stroke="none" stroke-opacity="0" xmlns="http://www.w3.org/2000/svg" />
<polygon id="B3-2019" points="498 348,498 394.5,475.5 394.5,475.5 347.5" fill="#000000" stroke="none" stroke-opacity="0" xmlns="http://www.w3.org/2000/svg" />
<polygon id="B3-2020" points="476 348.5,453.5 348.5,454.5 395.5,476 395.5" fill="#000000" stroke="none" stroke-opacity="0" xmlns="http://www.w3.org/2000/svg" />
<polygon id="B3-2021" points="431.5 347.5,407 347.5,407 395,431 395" fill="#000000" stroke="none" stroke-opacity="0" xmlns="http://www.w3.org/2000/svg" />
<polygon id="B3-2022" points="385 347,407 347,407 395,383.5 395" fill="#000000" stroke="none" stroke-opacity="0" xmlns="http://www.w3.org/2000/svg" />
<polygon id="B3-2023" points="385 370.5,350.5 370.5,351.5 395,384.5 395" fill="#000000" stroke="none" stroke-opacity="0" xmlns="http://www.w3.org/2000/svg" />
<polygon id="B3-2024" points="339.5 347.5,339.5 395,315.5 395,315.5 347" fill="#000000" stroke="none" stroke-opacity="0" xmlns="http://www.w3.org/2000/svg" />
<polygon id="B3-2025" points="293.5 347.5,293.5 394,315.5 394,315.5 346.5" fill="#000000" stroke="none" stroke-opacity="0" xmlns="http://www.w3.org/2000/svg" />
<polygon id="B3-2026" points="270.5 347.5,293.5 347.5,293.5 394,271 394" fill="#000000" stroke="none" stroke-opacity="0" xmlns="http://www.w3.org/2000/svg" />
<polygon id="B3-2027" points="248 347.5,271 347.5,271 394.5,247 394.5" fill="#000000" stroke="none" stroke-opacity="0" xmlns="http://www.w3.org/2000/svg" />
<polygon id="B3-2028" points="224.5 348,248 348,248 394.5,224.5 394.5" fill="#000000" stroke="none" stroke-opacity="0" xmlns="http://www.w3.org/2000/svg" />
<polygon id="B3-2029" points="201.5 348,224.5 348,224.5 394.5,203 394.5" fill="#000000" stroke="none" stroke-opacity="0" xmlns="http://www.w3.org/2000/svg" />


</svg>
