<?xml version="1.0" encoding="UTF-8" standalone="no"?>
<!-- Created with Inkscape (http://www.inkscape.org/) -->

<svg xmlns:dc="http://purl.org/dc/elements/1.1/" xmlns:cc="http://creativecommons.org/ns#" xmlns:rdf="http://www.w3.org/1999/02/22-rdf-syntax-ns#" xmlns:svg="http://www.w3.org/2000/svg" xmlns="http://www.w3.org/2000/svg" xmlns:xlink="http://www.w3.org/1999/xlink" xmlns:sodipodi="http://sodipodi.sourceforge.net/DTD/sodipodi-0.dtd" xmlns:inkscape="http://www.inkscape.org/namespaces/inkscape" width="770" height="450" id="svg2" version="1.1" inkscape:version="0.47pre4 " sodipodi:docname="test.svg" style="display:inline">
<defs id="defs4">
<inkscape:perspective sodipodi:type="inkscape:persp3d" inkscape:vp_x="0 : 526.18109 : 1" inkscape:vp_y="0 : 1000 : 0" inkscape:vp_z="744.09448 : 526.18109 : 1" inkscape:persp3d-origin="372.04724 : 350.78739 : 1" id="perspective10" />
<inkscape:perspective id="perspective2832" inkscape:persp3d-origin="0.5 : 0.33333333 : 1" inkscape:vp_z="1 : 0.5 : 1" inkscape:vp_y="0 : 1000 : 0" inkscape:vp_x="0 : 0.5 : 1" sodipodi:type="inkscape:persp3d" />
<script type="text/ecmascript" id="script6">
		var fdat="",sdat="";
		function onAreaOver(evt){
			var ele=evt.target; 
			fdat=ele.getAttribute('fill'); 
			sdat=ele.getAttribute('stroke');
			ele.setAttribute('fill','#006fb6');//多边形填充颜色
			ele.setAttribute('stroke','#006fb6');//stroke 多边形 边框颜色
			
		}
		function onAreaOut(evt){
			var ele=evt.target; 
			ele.setAttribute('fill',fdat);
			ele.setAttribute('stroke',sdat);
		}
		</script>
<symbol overflow="visible" id="symbol" style="overflow:visible">
<path d="m 626,156 2,-2 2,-4 0,-3 -1,-3 -4,-3 -6,-3 -5,-2 -4,-2 -4,8 -6,14" id="path9" style="fill:#000000;stroke:none" />
</symbol>
</defs>
<sodipodi:namedview id="base" pagecolor="#ffffff" bordercolor="#666666" borderopacity="1.0" inkscape:pageopacity="0.0" inkscape:pageshadow="2" inkscape:zoom="5.6" inkscape:cx="583.1007" inkscape:cy="273.63795" inkscape:document-units="px" inkscape:current-layer="svg2" showgrid="false" inkscape:window-width="1280" inkscape:window-height="740" inkscape:window-x="-4" inkscape:window-y="-4" inkscape:window-maximized="1" />
<metadata id="metadata7">
<rdf:RDF>
<cc:Work>
<dc:format>
image/svg+xml</dc:format>
<dc:type rdf:resource="http://purl.org/dc/dcmitype/StillImage" />
<dc:title>
</dc:title>
</cc:Work>
</rdf:RDF>
</metadata>
<image xlink:href="taian_b_1f_b2_b4.png" width="770" height="450" id="image2834" x="-485" y="255.93361" transform="translate(485,-255.9336)" inkscape:label="Layer 1" inkscape:groupmode="layer" style="display:inline" />
<polygon id="B2-1001" points="692.5 420,692.5 396,749 396,749 420" fill="#000000" stroke="none" stroke-opacity="0" />
<polygon id="B2-1002" points="692.5 396.5,692.5 373.5,749 373.5,749 395.5" fill="#000000" stroke="none" stroke-opacity="0" />
<polygon id="B2-1003" points="692.5 373,692.5 350.5,749 350.5,749 373.5" fill="#000000" stroke="none" stroke-opacity="0" />
<polygon id="B2-1004" points="693 350.5,693 327.5,748.5 327.5,748.5 351" fill="#000000" stroke="none" stroke-opacity="0" />
<polygon id="B2-1005" points="693 327.5,693 304.5,749 304.5,749 328" fill="#000000" stroke="none" stroke-opacity="0" />
<polygon id="B2-1006" points="693 305,693 282,748.5 282,748.5 304" fill="#000000" stroke="none" stroke-opacity="0" />
<polygon id="B2-1007" points="693 282.5,693 261,748.5 261,748.5 281.5" fill="#000000" stroke="none" stroke-opacity="0" />
<polygon id="B2-1008" points="703.5 261,703.5 237,748.5 237,748.5 261.5" fill="#000000" stroke="none" stroke-opacity="0" />
<polygon id="B2-1009" points="704 237,704 214.5,748.5 214.5,748.5 236.5" fill="#000000" stroke="none" stroke-opacity="0" />
<polygon id="B2-1010" points="668.5 213.5,737.5 213.5,737.5 171.5,736 158.5,730 147.5,724 141,712.5 135.5,700.5 134.5,689.5 137.5,682 143,675 151,670.5 159,669 171.5" fill="#000000" stroke="none" stroke-opacity="0" />
<polygon id="B2-1011" points="567 30,567 98.5,598 98.5,608.5 97,619 92,627 83,632 72.5,632.5 59,628.5 46.5,619 37,609.5 32,596 29.5" fill="#000000" stroke="none" stroke-opacity="0" />
<polygon id="B2-1012" points="545.5 20,545.5 72,567 72,567 19.5" fill="#000000" stroke="none" stroke-opacity="0" />
<polygon id="B2-1013" points="525.5 20.5,545.5 20.5,545.5 72,525 72" fill="#000000" stroke="none" stroke-opacity="0" />
<polygon id="B2-1014" points="526 20.5,504 20.5,504 72,525 72" fill="#000000" stroke="none" stroke-opacity="0" />
<polygon id="B2-1015" points="481.5 20.5,504 20.5,504 71,481.5 71" fill="#000000" stroke="none" stroke-opacity="0" />
<polygon id="B2-1016" points="439 20.5,439 72,416.5 72,416.5 20.5" fill="#000000" stroke="none" stroke-opacity="0" />
<polygon id="B2-1017" points="417 20.5,417 71.5,395.5 71.5,395.5 20" fill="#000000" stroke="none" stroke-opacity="0" />
<polygon id="B2-1018" points="396 20.5,374.5 20.5,374.5 71.5,395.5 71.5" fill="#000000" stroke="none" stroke-opacity="0" />
<polygon id="B2-1019" points="352 20,374.5 20,374.5 71.5,352.5 71.5" fill="#000000" stroke="none" stroke-opacity="0" />
<polygon id="B2-1020" points="352 71.5,352 19.5,330.5 19.5,330.5 72" fill="#000000" stroke="none" stroke-opacity="0" />
<polygon id="B2-1021" points="331 71,331 20,309 20,309 72" fill="#000000" stroke="none" stroke-opacity="0" />
<polygon id="B2-1022" points="309.5 71.5,287 71.5,287 20,309.5 20" fill="#000000" stroke="none" stroke-opacity="0" />
<polygon id="B2-1023" points="266 20.5,287 20.5,287 71.5,266 71.5" fill="#000000" stroke="none" stroke-opacity="0" />
<polygon id="B2-1024" points="266.5 71,266.5 21,243.5 21,243.5 71.5" fill="#000000" stroke="none" stroke-opacity="0" />
<polygon id="B2-1025" points="244 71,244 21,222.5 21,222.5 72" fill="#000000" stroke="none" stroke-opacity="0" />
<polygon id="B2-1026" points="223.5 71.5,223.5 20.5,200 20.5,200 71.5" fill="#000000" stroke="none" stroke-opacity="0" />
<polygon id="B2-1027" points="200 71,200 20,179.5 20,179.5 72" fill="#000000" stroke="none" stroke-opacity="0" />
<polygon id="B2-1028" points="178.5 100,178.5 146,156 146,156 101" fill="#000000" stroke="none" stroke-opacity="0" />
<polygon id="B2-1029" points="156 101,134.5 101,134.5 146,156 146" fill="#000000" stroke="none" stroke-opacity="0" />
<polygon id="B2-1030" points="110 146,134.5 146,134.5 191.5,110 191.5" fill="#000000" stroke="none" stroke-opacity="0" />
<polygon id="B2-1031" points="110 192,110 146,88.5 146,88.5 191.5" fill="#000000" stroke="none" stroke-opacity="0" />
<polygon id="B2-1032" points="88 191.5,88 146,66.5 146,66.5 192" fill="#000000" stroke="none" stroke-opacity="0" />
<polygon id="B2-1033" points="44 146.5,66.5 146.5,66.5 192,43.5 192" fill="#000000" stroke="none" stroke-opacity="0" />
<polygon id="B2-1034" points="43.5 191.5,43.5 238,67 238,67 191.5" fill="#000000" stroke="none" stroke-opacity="0" />
<polygon id="B2-1035" points="67 191.5,67 238,88.5 238,88.5 191.5" fill="#000000" stroke="none" stroke-opacity="0" />
<polygon id="B2-1036" points="88.5 191.5,109.5 191.5,109.5 238.5,87 238.5" fill="#000000" stroke="none" stroke-opacity="0" />
<polygon id="B2-1037" points="110 192,135 192,135 237.5,109 237.5" fill="#000000" stroke="none" stroke-opacity="0" />
<polygon id="B2-1038" points="135 168.5,156.5 168.5,156.5 213,135 213" fill="#000000" stroke="none" stroke-opacity="0" />
<polygon id="B2-1039" points="157 168.5,178.5 168.5,178.5 212.5,156 212.5" fill="#000000" stroke="none" stroke-opacity="0" />
<polygon id="B2-1040" points="135.5 168.5,135.5 145.5,178 145.5,178 168.5" fill="#000000" stroke="none" stroke-opacity="0" />
<polygon id="B2-1041" points="179.5 71,200 71,200 133.5,179 133.5" fill="#000000" stroke="none" stroke-opacity="0" />
<polygon id="B2-1042" points="200.5 72,223 72,223 134.5,200 134.5" fill="#000000" stroke="none" stroke-opacity="0" />
<polygon id="B2-1043" points="223 72,223 91,237.5 91,237.5 134,266 134,266 71.5" fill="#000000" stroke="none" stroke-opacity="0" />
<polygon id="B2-1044" points="266.5 71.5,266.5 133.5,288 133.5,288 72" fill="#000000" stroke="none" stroke-opacity="0" />
<polygon id="B2-1045" points="288.5 71.5,288.5 133.5,309.5 133.5,309.5 72" fill="#000000" stroke="none" stroke-opacity="0" />
<polygon id="B2-1046" points="309.5 72,309.5 133,331 133,331 72" fill="#000000" stroke="none" stroke-opacity="0" />
<polygon id="B2-1047" points="331 72,331 133,352.5 133,352.5 72.5" fill="#000000" stroke="none" stroke-opacity="0" />
<polygon id="B2-1048" points="352.5 72,352.5 133.5,374 133.5,374 71.5" fill="#000000" stroke="none" stroke-opacity="0" />
<polygon id="B2-1049" points="374.5 71.5,374.5 133.5,396.5 133.5,396.5 72" fill="#000000" stroke="none" stroke-opacity="0" />
<polygon id="B2-1050" points="396 72,396 116,417.5 116,417.5 72" fill="#000000" stroke="none" stroke-opacity="0" />
<polygon id="B2-1051" points="418 72.5,439.5 72.5,439.5 116.5,417.5 116.5" fill="#000000" stroke="none" stroke-opacity="0" />
<polygon id="B2-1052" points="481.5 71.5,481.5 116,504 116,504 71.5" fill="#000000" stroke="none" stroke-opacity="0" />
<polygon id="B2-1053" points="503.5 72,503.5 116,526 116,526 71.5" fill="#000000" stroke="none" stroke-opacity="0" />
<polygon id="B2-1054" points="526 72,526 116,545 116,545 72" fill="#000000" stroke="none" stroke-opacity="0" />
<polygon id="B2-1055" points="545.5 72,545.5 117,566.5 117,566.5 72.5" fill="#000000" stroke="none" stroke-opacity="0" />
<polygon id="B2-1056" points="704 214.5,657 214.5,657 236.5,703.5 236.5" fill="#000000" stroke="none" stroke-opacity="0" />
<polygon id="B2-1057" points="703.5 236.5,658 236.5,658 260,703.5 260" fill="#000000" stroke="none" stroke-opacity="0" />
<polygon id="B2-1058" points="658 260,693 260,693 283,658 283" fill="#000000" stroke="none" stroke-opacity="0" />
<polygon id="B2-1059" points="658.5 282.5,692.5 282.5,692.5 305.5,658.5 305.5" fill="#000000" stroke="none" stroke-opacity="0" />
<polygon id="B2-1060" points="635 305,693 305,693 328,635.5 328" fill="#000000" stroke="none" stroke-opacity="0" />
<polygon id="B2-1061" points="635.5 327.5,692.5 327.5,692.5 350.5,635 350.5" fill="#000000" stroke="none" stroke-opacity="0" />
<polygon id="B2-1062" points="635.5 350.5,692 350.5,692 373.5,635 373.5" fill="#000000" stroke="none" stroke-opacity="0" />
<polygon id="B2-1063" points="635 373,692 373,692 395.5,635 395.5" fill="#000000" stroke="none" stroke-opacity="0" />
<polygon id="B2-1064" points="634.5 395,692.5 395,692.5 420,635.5 420" fill="#000000" stroke="none" stroke-opacity="0" />
<polygon id="B4-1001" points="494 194.5,566.5 267,566.5 331,521 331,521 354,383.5 354,383.5 240,374.5 230.5,410.5 194.5" fill="#000000" stroke="none" stroke-opacity="0" />
<polygon id="B4-1002" points="374.5 231,383.5 240,383.5 285,337.5 285,337.5 266.5" fill="#000000" stroke="none" stroke-opacity="0" />
<polygon id="B4-1003" points="338 284.5,384 284.5,384 308.5,337.5 308.5" fill="#000000" stroke="none" stroke-opacity="0" />
<polygon id="B4-1004" points="338 308.5,384 308.5,384 331,338 331" fill="#000000" stroke="none" stroke-opacity="0" />
<polygon id="B4-1005" points="338.5 330.5,384.5 330.5,384.5 354,337 354" fill="#000000" stroke="none" stroke-opacity="0" />
<polygon id="B4-1006" points="270 285.5,316 285.5,316 308,269.5 308" fill="#000000" stroke="none" stroke-opacity="0" />
<polygon id="B4-1007" points="270.5 307.5,315.5 307.5,315.5 331,270 331" fill="#000000" stroke="none" stroke-opacity="0" />
<polygon id="B4-1008" points="248 286,270.5 286,270.5 331,248 331" fill="#000000" stroke="none" stroke-opacity="0" />
<polygon id="B4-1009" points="225 286,247.5 286,247.5 354,224 354" fill="#000000" stroke="none" stroke-opacity="0" />
<polygon id="B4-1010" points="202.5 286,225.5 286,225.5 354,202 354" fill="#000000" stroke="none" stroke-opacity="0" />
<polygon id="B4-1011" points="180 286,202.5 286,202.5 354,179.5 354" fill="#000000" stroke="none" stroke-opacity="0" />
<polygon id="B4-1012" points="157 286,180.5 286,180.5 353.5,156.5 353.5" fill="#000000" stroke="none" stroke-opacity="0" />
<polygon id="B4-1013" points="134 286,157 286,157 353.5,133.5 353.5" fill="#000000" stroke="none" stroke-opacity="0" />
<polygon id="B4-1014" points="112 285.5,134.5 285.5,134.5 354,110.5 354" fill="#000000" stroke="none" stroke-opacity="0" />
<polygon id="B4-1015" points="110.5 354,134.5 354,134.5 423,109.5 423,100.5 420,93.5 414.5,90.5 407.5,89 397.5,91.5 388.5,97.5 381.5,110 376.5" fill="#000000" stroke="none" stroke-opacity="0" />
<polygon id="B4-1016" points="134.5 354,157 354,157 422.5,134 422.5" fill="#000000" stroke="none" stroke-opacity="0" />
<polygon id="B4-1017" points="157 354,180.5 354,180.5 422,157.5 422" fill="#000000" stroke="none" stroke-opacity="0" />
<polygon id="B4-1018" points="180 354,202.5 354,202.5 423,180 423" fill="#000000" stroke="none" stroke-opacity="0" />
<polygon id="B4-1019" points="203.5 376.5,236 376.5,236 422.5,202 422.5" fill="#000000" stroke="none" stroke-opacity="0" />
<polygon id="B4-1020" points="247.5 354,271 354,271 423,246.5 423" fill="#000000" stroke="none" stroke-opacity="0" />
<polygon id="B4-1021" points="270.5 354.5,293 354.5,293 422,271 422" fill="#000000" stroke="none" stroke-opacity="0" />
<polygon id="B4-1022" points="292.5 354,315.5 354,315.5 422.5,291.5 422.5" fill="#000000" stroke="none" stroke-opacity="0" />
<polygon id="B4-1023" points="338 353.5,362 353.5,362 422.5,338 422.5" fill="#000000" stroke="none" stroke-opacity="0" />
<polygon id="B4-1024" points="362.5 354,384.5 354,384.5 423,362 423" fill="#000000" stroke="none" stroke-opacity="0" />
<polygon id="B4-1025" points="385 376,417 376,417 423,383.5 423" fill="#000000" stroke="none" stroke-opacity="0" />
<polygon id="B4-1026" points="429.5 354,429.5 423,452 423,452 354" fill="#000000" stroke="none" stroke-opacity="0" />
<polygon id="B4-1027" points="452.5 354,475.5 354,475.5 423,452.5 423" fill="#000000" stroke="none" stroke-opacity="0" />
<polygon id="B4-1028" points="475.5 354,498 354,498 422.5,476 422.5" fill="#000000" stroke="none" stroke-opacity="0" />
<polygon id="B4-1029" points="498 354.5,521.5 354.5,521.5 422.5,497 422.5" fill="#000000" stroke="none" stroke-opacity="0" />
<polygon id="B4-1030" points="521.5 354,543.5 354,543.5 422.5,521.5 422.5" fill="#000000" stroke="none" stroke-opacity="0" />
<polygon id="B4-1031" points="543.5 354.5,567 354.5,567 422,543.5 422" fill="#000000" stroke="none" stroke-opacity="0" />
</svg>
