<?xml version="1.0" encoding="UTF-8" standalone="no"?>
<!-- Created with Inkscape (http://www.inkscape.org/) -->

<svg xmlns:dc="http://purl.org/dc/elements/1.1/" xmlns:cc="http://creativecommons.org/ns#" xmlns:rdf="http://www.w3.org/1999/02/22-rdf-syntax-ns#" xmlns:svg="http://www.w3.org/2000/svg" xmlns="http://www.w3.org/2000/svg" xmlns:xlink="http://www.w3.org/1999/xlink" xmlns:sodipodi="http://sodipodi.sourceforge.net/DTD/sodipodi-0.dtd" xmlns:inkscape="http://www.inkscape.org/namespaces/inkscape" width="770" height="450" id="svg2" version="1.1" inkscape:version="0.47pre4 " sodipodi:docname="test.svg" style="display:inline">
<defs id="defs4">
<inkscape:perspective sodipodi:type="inkscape:persp3d" inkscape:vp_x="0 : 526.18109 : 1" inkscape:vp_y="0 : 1000 : 0" inkscape:vp_z="744.09448 : 526.18109 : 1" inkscape:persp3d-origin="372.04724 : 350.78739 : 1" id="perspective10" />
<inkscape:perspective id="perspective2832" inkscape:persp3d-origin="0.5 : 0.33333333 : 1" inkscape:vp_z="1 : 0.5 : 1" inkscape:vp_y="0 : 1000 : 0" inkscape:vp_x="0 : 0.5 : 1" sodipodi:type="inkscape:persp3d" />
<script type="text/ecmascript" id="script6">
		var fdat="",sdat="";
		function onAreaOver(evt){
			var ele=evt.target; 
			fdat=ele.getAttribute('fill'); 
			sdat=ele.getAttribute('stroke');
			ele.setAttribute('fill','#006fb6');//多边形填充颜色
			ele.setAttribute('stroke','#006fb6');//stroke 多边形 边框颜色
			
		}
		function onAreaOut(evt){
			var ele=evt.target; 
			ele.setAttribute('fill',fdat);
			ele.setAttribute('stroke',sdat);
		}
		</script>
<symbol overflow="visible" id="symbol" style="overflow:visible">
<path d="m 626,156 2,-2 2,-4 0,-3 -1,-3 -4,-3 -6,-3 -5,-2 -4,-2 -4,8 -6,14" id="path9" style="fill:#000000;stroke:none" />
</symbol>
</defs>
<sodipodi:namedview id="base" pagecolor="#ffffff" bordercolor="#666666" borderopacity="1.0" inkscape:pageopacity="0.0" inkscape:pageshadow="2" inkscape:zoom="5.6" inkscape:cx="583.1007" inkscape:cy="273.63795" inkscape:document-units="px" inkscape:current-layer="svg2" showgrid="false" inkscape:window-width="1280" inkscape:window-height="740" inkscape:window-x="-4" inkscape:window-y="-4" inkscape:window-maximized="1" />
<metadata id="metadata7">
<rdf:RDF>
<cc:Work>
<dc:format>
image/svg+xml</dc:format>
<dc:type rdf:resource="http://purl.org/dc/dcmitype/StillImage" />
<dc:title>
</dc:title>
</cc:Work>
</rdf:RDF>
</metadata>
<image xlink:href="taian_a_2f_a1.png" width="770" height="450" id="image2834" x="-485" y="255.93361" transform="translate(485,-255.9336)" inkscape:label="Layer 1" inkscape:groupmode="layer" style="display:inline" />
<polygon id="A1-2001" points="10 244,10 270,36 270,36 297,79 297,79 268,104 268,104 243" fill="#000000" stroke="none" stroke-opacity="0" />
<polygon id="A1-2002" points="9.75 245.75,9.75 221.75,104.5 221.75,104.5 245.75" fill="#000000" stroke="none" stroke-opacity="0" />
<polygon id="A1-2003" points="10 221.75,10 198.5,104.5 199.5,104.5 223.25" fill="#000000" stroke="none" stroke-opacity="0" />
<polygon id="A1-2004" points="10.25 198.5,10.25 175,104.5 175,104.5 198.75" fill="#000000" stroke="none" stroke-opacity="0" />
<polygon id="A1-2005" points="10.75 175,10.75 150.75,103.75 151.75,103.75 175.75" fill="#000000" stroke="none" stroke-opacity="0" />
<polygon id="A1-2006" points="11 150.75,11 127.25,104.75 127.25,104.75 151.5" fill="#000000" stroke="none" stroke-opacity="0" />
<polygon id="A1-2007" points="10.5 80.75,187.5 80.75,187.5 127.5,10.25 127.5" fill="#000000" stroke="none" stroke-opacity="0" />
<polygon id="A1-2008" points="258 9.75,351.75 9.75,387.25 45.25,375.25 58.5,376.25 223,268 222,211 165,210 128,187.75 127.75,187.75 80.5" fill="#000000" stroke="none" stroke-opacity="0" />
<polygon id="A1-2009" points="387.75 45,375.25 58.75,375.5 102.75,426.25 102.75,425.25 81" fill="#000000" stroke="none" stroke-opacity="0" />
<polygon id="A1-2010" points="375.5 102,426 102,426 128,375.5 128" fill="#000000" stroke="none" stroke-opacity="0" />
<polygon id="A1-2011" points="375.25 127.75,425.75 127.75,425.75 152,375 152" fill="#000000" stroke="none" stroke-opacity="0" />
<polygon id="A1-2012" points="375.25 152,425.5 152,425.5 175,375.25 175" fill="#000000" stroke="none" stroke-opacity="0" />
<polygon id="A1-2013" points="375.5 175,425.25 175,425.25 198.5,375 198.5" fill="#000000" stroke="none" stroke-opacity="0" />
<polygon id="A1-2014" points="375.25 198.5,425 198.5,425 222.25,375 222.25" fill="#000000" stroke="none" stroke-opacity="0" />
<polygon id="A1-2015" points="448.75 174.75,448.75 222.75,472.5 222.75,472.5 174.5" fill="#000000" stroke="none" stroke-opacity="0" />
<polygon id="A1-2016" points="472.75 174.75,472.75 223.25,495.75 223.25,495.75 174.75" fill="#000000" stroke="none" stroke-opacity="0" />
<polygon id="A1-2017" points="495.75 175,495.75 223,519.75 223,519.75 175" fill="#000000" stroke="none" stroke-opacity="0" />
<polygon id="A1-2018" points="519.75 163.25,519.75 223,543.75 223,543.75 163" fill="#000000" stroke="none" stroke-opacity="0" />
<polygon id="A1-2019" points="543.75 163,566.75 163,566.75 222.5,543.5 222.5" fill="#000000" stroke="none" stroke-opacity="0" />
<polygon id="A1-2020" points="566.75 163,566.25 222.75,590.25 222.75,590.75 163" fill="#000000" stroke="none" stroke-opacity="0" />
<polygon id="A1-2021" points="590.75 157.25,590.75 222.75,614 222.75,614 157.5" fill="#000000" stroke="none" stroke-opacity="0" />
<polygon id="A1-2022" points="614 157.5,638.25 157.5,638.25 222.25,614.25 222.25" fill="#000000" stroke="none" stroke-opacity="0" />
<polygon id="A1-2023" points="637.75 104.25,613.5 104.25,613.5 157.75,638 157.75" fill="#000000" stroke="none" stroke-opacity="0" />
<polygon id="A1-2024" points="613.5 104.75,613.5 157.25,590.75 157.25,590.75 104.5" fill="#000000" stroke="none" stroke-opacity="0" />
<polygon id="A1-2025" points="590.75 104.25,590.75 163,566.5 163,566.5 104" fill="#000000" stroke="none" stroke-opacity="0" />
<polygon id="A1-2026" points="566.75 104.75,566.75 163,542.25 163,542.25 104" fill="#000000" stroke="none" stroke-opacity="0" />
<polygon id="A1-2027" points="542.75 104.25,542.75 163,519.75 163,519.75 104" fill="#000000" stroke="none" stroke-opacity="0" />
<polygon id="A1-2028" points="449 103.5,520 103.5,520 128,448.5 128" fill="#000000" stroke="none" stroke-opacity="0" />
<polygon id="A1-2029" points="449 127.5,520 127.5,520 150.5,448.5 150.5" fill="#000000" stroke="none" stroke-opacity="0" />
<polygon id="AS1-2001" points="731.5 327,731.5 393,707.5 393,707.5 327" fill="#000000" stroke="none" stroke-opacity="0" />
<polygon id="AS1-2002" points="707.5 327.5,683.5 327.5,683.5 393.5,708 393.5" fill="#000000" stroke="none" stroke-opacity="0" />
<polygon id="AS1-2003" points="684 327.5,660.5 327.5,660.5 393,684 393" fill="#000000" stroke="none" stroke-opacity="0" />
<polygon id="AS1-2004" points="660.5 327,637.5 327,637.5 393,661.5 393" fill="#000000" stroke="none" stroke-opacity="0" />
<polygon id="AS1-2005" points="337.5 327.5,638 327.5,638 424.5,557.5 424.5,558 428.5,525 429,525 425.5,322 424,322 427.5,291 428.5,291 425.5,187 425,187 396.5,158.5 396.5,158.5 354.5,186.5 354.5,186.5 327.5,323 326,323 347.5,306 347.5,306 380.5,323 380.5,323.5 369.5,361 369,361 348,336.5 348" fill="#000000" stroke="none" stroke-opacity="0" />
</svg>
