<?xml version="1.0" encoding="UTF-8" standalone="no"?>
<!-- Created with Inkscape (http://www.inkscape.org/) -->

<svg xmlns:dc="http://purl.org/dc/elements/1.1/" xmlns:cc="http://creativecommons.org/ns#" xmlns:rdf="http://www.w3.org/1999/02/22-rdf-syntax-ns#" xmlns:svg="http://www.w3.org/2000/svg" xmlns="http://www.w3.org/2000/svg" xmlns:xlink="http://www.w3.org/1999/xlink" xmlns:sodipodi="http://sodipodi.sourceforge.net/DTD/sodipodi-0.dtd" xmlns:inkscape="http://www.inkscape.org/namespaces/inkscape" width="770" height="450" id="svg2" version="1.1" inkscape:version="0.47pre4 " sodipodi:docname="test.svg" style="display:inline">
<defs id="defs4">
<inkscape:perspective sodipodi:type="inkscape:persp3d" inkscape:vp_x="0 : 526.18109 : 1" inkscape:vp_y="0 : 1000 : 0" inkscape:vp_z="744.09448 : 526.18109 : 1" inkscape:persp3d-origin="372.04724 : 350.78739 : 1" id="perspective10" />
<inkscape:perspective id="perspective2832" inkscape:persp3d-origin="0.5 : 0.33333333 : 1" inkscape:vp_z="1 : 0.5 : 1" inkscape:vp_y="0 : 1000 : 0" inkscape:vp_x="0 : 0.5 : 1" sodipodi:type="inkscape:persp3d" />
<script type="text/ecmascript" id="script6">
		var fdat="",sdat="";
		function onAreaOver(evt){
			var ele=evt.target; 
			fdat=ele.getAttribute('fill'); 
			sdat=ele.getAttribute('stroke');
			ele.setAttribute('fill','#006fb6');//多边形填充颜色
			ele.setAttribute('stroke','#006fb6');//stroke 多边形 边框颜色
			
		}
		function onAreaOut(evt){
			var ele=evt.target; 
			ele.setAttribute('fill',fdat);
			ele.setAttribute('stroke',sdat);
		}
		</script>
<symbol overflow="visible" id="symbol" style="overflow:visible">
<path d="m 626,156 2,-2 2,-4 0,-3 -1,-3 -4,-3 -6,-3 -5,-2 -4,-2 -4,8 -6,14" id="path9" style="fill:#000000;stroke:none" />
</symbol>
</defs>
<sodipodi:namedview id="base" pagecolor="#ffffff" bordercolor="#666666" borderopacity="1.0" inkscape:pageopacity="0.0" inkscape:pageshadow="2" inkscape:zoom="5.6" inkscape:cx="583.1007" inkscape:cy="273.63795" inkscape:document-units="px" inkscape:current-layer="svg2" showgrid="false" inkscape:window-width="1280" inkscape:window-height="740" inkscape:window-x="-4" inkscape:window-y="-4" inkscape:window-maximized="1" />
<metadata id="metadata7">
<rdf:RDF>
<cc:Work>
<dc:format>
image/svg+xml</dc:format>
<dc:type rdf:resource="http://purl.org/dc/dcmitype/StillImage" />
<dc:title>
</dc:title>
</cc:Work>
</rdf:RDF>
</metadata>
<image xlink:href="taian_b_2f_b2_b4.png" width="770" height="450" id="image2834" x="-485" y="255.93361" transform="translate(485,-255.9336)" inkscape:label="Layer 1" inkscape:groupmode="layer" style="display:inline" />
<polygon id="B2-2001" points="658 422,658 375,748 375,748 421" fill="#000000" stroke="none" stroke-opacity="0" />
<polygon id="B2-2002" points="659 375,659 327,748 327,748 375" fill="#000000" stroke="none" stroke-opacity="0" />
<polygon id="B2-2003" points="658 328,658 283,749 283,749 328" fill="#000000" stroke="none" stroke-opacity="0" />
<polygon id="B2-2004" points="657 283,657 237,749 237,749 284" fill="#000000" stroke="none" stroke-opacity="0" />
<polygon id="B2-2005" points="658 236,658 215,749 215,749 238" fill="#000000" stroke="none" stroke-opacity="0" />
<polygon id="B2-2006" points="668.5 213.5,737.5 213.5,737.5 171.5,736 158.5,730 147.5,724 141,712.5 135.5,700.5 134.5,689.5 137.5,682 143,675 151,670.5 159,669 171.5" fill="#000000" stroke="none" stroke-opacity="0" />
<polygon id="B2-2007" points="660 108,689 137,683.5 141.5,676.5 148,672 155.5,670 160.5,669.5 169,658 169,628.5 139.5" fill="#000000" stroke="none" stroke-opacity="0" />
<polygon id="B2-2008" points="660 108.5,630 78.5,627 84,620.5 91,613 95.5,599 99.5,599 116.5,606 117,628.5 139.5" fill="#000000" stroke="none" stroke-opacity="0" />
<polygon id="B2-2009" points="567 30,567 98.5,598 98.5,608.5 97,619 92,627 83,632 72.5,632.5 59,628.5 46.5,619 37,609.5 32,596 29.5" fill="#000000" stroke="none" stroke-opacity="0" />
<polygon id="B2-2010" points="525.5 20,566.5 20,566.5 116,525.5 116" fill="#000000" stroke="none" stroke-opacity="0" />
<polygon id="B2-2011" points="439 20,525.5 20,525.5 115.5,482.5 115.5,482.5 81.5,438.5 81.5" fill="#000000" stroke="none" stroke-opacity="0" />
<polygon id="B2-2012" points="395.5 20,440 20,440 116.5,395.5 116.5" fill="#000000" stroke="none" stroke-opacity="0" />
<polygon id="B2-2013" points="352 20.5,396.5 20.5,396.5 117,352 117" fill="#000000" stroke="none" stroke-opacity="0" />
<polygon id="B2-2014" points="309.5 21,352.5 21,352.5 117,309.5 117" fill="#000000" stroke="none" stroke-opacity="0" />
<polygon id="B2-2015" points="310 21,266.5 21,266.5 116.5,309 116.5" fill="#000000" stroke="none" stroke-opacity="0" />
<polygon id="B2-2016" points="267.5 21.5,267.5 123.5,263 130.5,254.5 134,242 135,223 135,223 20" fill="#000000" stroke="none" stroke-opacity="0" />
<polygon id="B2-2017" points="223 20.5,223 134.5,178.5 134.5,178.5 20.5" fill="#000000" stroke="none" stroke-opacity="0" />
<polygon id="B2-2018" points="134.5 101.5,178.5 101.5,178.5 193,156 193,156 146,134 146" fill="#000000" stroke="none" stroke-opacity="0" />
<polygon id="B2-2019" points="134.5 145.5,156 145.5,156 193,134 193" fill="#000000" stroke="none" stroke-opacity="0" />
<polygon id="B2-2020" points="110.5 147,134 147,134 193.5,110 193.5" fill="#000000" stroke="none" stroke-opacity="0" />
<polygon id="B2-2021" points="110.5 147.5,110.5 238.5,98.5 261.5,55.5 261.5,43 237.5,43 147" fill="#000000" stroke="none" stroke-opacity="0" />
<polygon id="B4-2001" points="494 194.5,566.5 267,566.5 331,521 331,521 354,383.5 354,383.5 240,374.5 230.5,410.5 194.5" fill="#000000" stroke="none" stroke-opacity="0" />
<polygon id="B4-2002" points="374.5 231,383.5 240,383.5 285,337.5 285,337.5 266.5" fill="#000000" stroke="none" stroke-opacity="0" />
<polygon id="B4-2003" points="338 284.5,384 284.5,384 308.5,337.5 308.5" fill="#000000" stroke="none" stroke-opacity="0" />
<polygon id="B4-2004" points="338 308.5,384 308.5,384 331,338 331" fill="#000000" stroke="none" stroke-opacity="0" />
<polygon id="B4-2005" points="338.5 330.5,384.5 330.5,384.5 354,337 354" fill="#000000" stroke="none" stroke-opacity="0" xmlns="http://www.w3.org/2000/svg" />
<polygon id="B4-2006" points="270 285.5,316 285.5,316 308,269.5 308" fill="#000000" stroke="none" stroke-opacity="0" />
<polygon id="B4-2007" points="270.5 307.5,315.5 307.5,315.5 331,270 331" fill="#000000" stroke="none" stroke-opacity="0" />
<polygon id="B4-2008" points="248 286,270.5 286,270.5 331,248 331" fill="#000000" stroke="none" stroke-opacity="0" />
<polygon id="B4-2009" points="225 286,247.5 286,247.5 354,224 354" fill="#000000" stroke="none" stroke-opacity="0" />
<polygon id="B4-2010" points="202.5 286,225.5 286,225.5 354,202 354" fill="#000000" stroke="none" stroke-opacity="0" />
<polygon id="B4-2011" points="180 286,202.5 286,202.5 354,179.5 354" fill="#000000" stroke="none" stroke-opacity="0" />
<polygon id="B4-2012" points="157 286,180.5 286,180.5 353.5,156.5 353.5" fill="#000000" stroke="none" stroke-opacity="0" />
<polygon id="B4-2013" points="134 286,157 286,157 353.5,133.5 353.5" fill="#000000" stroke="none" stroke-opacity="0" />
<polygon id="B4-2014" points="134.5 354,157 354,157 399.5,134 399.5" fill="#000000" stroke="none" stroke-opacity="0" xmlns="http://www.w3.org/2000/svg" />
<polygon id="B4-2015" points="157 354,180.5 354,180.5 400,157.5 400" fill="#000000" stroke="none" stroke-opacity="0" xmlns="http://www.w3.org/2000/svg" />
<polygon id="B4-2016" points="180 354,202.5 354,202.5 399,180 399" fill="#000000" stroke="none" stroke-opacity="0" xmlns="http://www.w3.org/2000/svg" />
<polygon id="B4-2017" points="203.5 376.5,236 376.5,236 398.5,202 398.5" fill="#000000" stroke="none" stroke-opacity="0" xmlns="http://www.w3.org/2000/svg" />
<polygon id="B4-2018" points="247.5 354,271 354,271 399,246.5 399" fill="#000000" stroke="none" stroke-opacity="0" xmlns="http://www.w3.org/2000/svg" />
<polygon id="B4-2019" points="270.5 354.5,293 354.5,293 399,271 399" fill="#000000" stroke="none" stroke-opacity="0" xmlns="http://www.w3.org/2000/svg" />
<polygon id="B4-2020" points="292.5 354,315.5 354,316.5 399.5,292.5 399.5" fill="#000000" stroke="none" stroke-opacity="0" xmlns="http://www.w3.org/2000/svg" />
<polygon id="B4-2021" points="338 353.5,362 353.5,362 399.5,338 399.5" fill="#000000" stroke="none" stroke-opacity="0" xmlns="http://www.w3.org/2000/svg" />
<polygon id="B4-2022" points="362.5 354,384.5 354,384.5 400,362 400" fill="#000000" stroke="none" stroke-opacity="0" xmlns="http://www.w3.org/2000/svg" />
<polygon id="B4-2023" points="385 376,417 376,417 399,383.5 399" fill="#000000" stroke="none" stroke-opacity="0" xmlns="http://www.w3.org/2000/svg" />
<polygon id="B4-2024" points="429.5 354,429.5 400,452 400,452 354" fill="#000000" stroke="none" stroke-opacity="0" xmlns="http://www.w3.org/2000/svg" />
<polygon id="B4-2025" points="452.5 354,475.5 354,475.5 399,452.5 399" fill="#000000" stroke="none" stroke-opacity="0" xmlns="http://www.w3.org/2000/svg" />
<polygon id="B4-2026" points="475.5 354,498 354,498 398.5,476 398.5" fill="#000000" stroke="none" stroke-opacity="0" xmlns="http://www.w3.org/2000/svg" />
<polygon id="B4-2027" points="498 354.5,521.5 354.5,521.5 398.5,497 398.5" fill="#000000" stroke="none" stroke-opacity="0" xmlns="http://www.w3.org/2000/svg" />
<polygon id="B4-2028" points="521.5 354,543.5 354,543.5 398.5,521.5 398.5" fill="#000000" stroke="none" stroke-opacity="0" xmlns="http://www.w3.org/2000/svg" />
<polygon id="B4-2029" points="543.5 354.5,567 354.5,567 399,543.5 399" fill="#000000" stroke="none" stroke-opacity="0" xmlns="http://www.w3.org/2000/svg" />

</svg>
