<?xml version="1.0" encoding="UTF-8" standalone="no"?>
<!-- Created with Inkscape (http://www.inkscape.org/) -->

<svg xmlns:dc="http://purl.org/dc/elements/1.1/" xmlns:cc="http://creativecommons.org/ns#" xmlns:rdf="http://www.w3.org/1999/02/22-rdf-syntax-ns#" xmlns:svg="http://www.w3.org/2000/svg" xmlns="http://www.w3.org/2000/svg" xmlns:xlink="http://www.w3.org/1999/xlink" xmlns:sodipodi="http://sodipodi.sourceforge.net/DTD/sodipodi-0.dtd" xmlns:inkscape="http://www.inkscape.org/namespaces/inkscape" width="770" height="450" id="svg2" version="1.1" inkscape:version="0.47pre4 " sodipodi:docname="test.svg" style="display:inline">
<defs id="defs4">
<inkscape:perspective sodipodi:type="inkscape:persp3d" inkscape:vp_x="0 : 526.18109 : 1" inkscape:vp_y="0 : 1000 : 0" inkscape:vp_z="744.09448 : 526.18109 : 1" inkscape:persp3d-origin="372.04724 : 350.78739 : 1" id="perspective10" />
<inkscape:perspective id="perspective2832" inkscape:persp3d-origin="0.5 : 0.33333333 : 1" inkscape:vp_z="1 : 0.5 : 1" inkscape:vp_y="0 : 1000 : 0" inkscape:vp_x="0 : 0.5 : 1" sodipodi:type="inkscape:persp3d" />
<script type="text/ecmascript" id="script6">
		var fdat="",sdat="";
		function onAreaOver(evt){
			var ele=evt.target; 
			fdat=ele.getAttribute('fill'); 
			sdat=ele.getAttribute('stroke');
			ele.setAttribute('fill','#006fb6');//多边形填充颜色
			ele.setAttribute('stroke','#006fb6');//stroke 多边形 边框颜色
			
		}
		function onAreaOut(evt){
			var ele=evt.target; 
			ele.setAttribute('fill',fdat);
			ele.setAttribute('stroke',sdat);
		}
		</script>
<symbol overflow="visible" id="symbol" style="overflow:visible">
<path d="m 626,156 2,-2 2,-4 0,-3 -1,-3 -4,-3 -6,-3 -5,-2 -4,-2 -4,8 -6,14" id="path9" style="fill:#000000;stroke:none" />
</symbol>
</defs>
<sodipodi:namedview id="base" pagecolor="#ffffff" bordercolor="#666666" borderopacity="1.0" inkscape:pageopacity="0.0" inkscape:pageshadow="2" inkscape:zoom="5.6" inkscape:cx="583.1007" inkscape:cy="273.63795" inkscape:document-units="px" inkscape:current-layer="svg2" showgrid="false" inkscape:window-width="1280" inkscape:window-height="740" inkscape:window-x="-4" inkscape:window-y="-4" inkscape:window-maximized="1" />
<metadata id="metadata7">
<rdf:RDF>
<cc:Work>
<dc:format>
image/svg+xml</dc:format>
<dc:type rdf:resource="http://purl.org/dc/dcmitype/StillImage" />
<dc:title>
</dc:title>
</cc:Work>
</rdf:RDF>
</metadata>
<image xlink:href="taian_a_1f_a1.png" width="770" height="450" id="image2834" x="-485" y="255.93361" transform="translate(485,-255.9336)" inkscape:label="Layer 1" inkscape:groupmode="layer" style="display:inline" />
<polygon id="A1-1001" points="36.75 269.75,36.75 297.5,78.5 297.5,78.5 269.75" fill="#000000" stroke="none" />
<polygon id="A1-1002" points="10 269.5,57.25 269.5,57.25 245.75,9.5 245.75" fill="#000000" stroke="none" stroke-opacity="0" />
<polygon id="A1-1003" points="9.75 245.75,9.75 221.75,57.5 221.75,57.5 245.75" fill="#000000" stroke="none" stroke-opacity="0" />
<polygon id="A1-1004" points="10 221.75,10 198.5,57.5 198.5,57.5 222.25" fill="#000000" stroke="none" stroke-opacity="0" />
<polygon id="A1-1005" points="10.25 198.5,10.25 175,57.5 175,57.5 198.75" fill="#000000" stroke="none" stroke-opacity="0" />
<polygon id="A1-1006" points="10.75 175,10.75 150.75,57.75 150.75,57.75 174.75" fill="#000000" stroke="none" stroke-opacity="0" />
<polygon id="A1-1007" points="11 150.75,11 127.25,57.75 127.25,57.75 151.5" fill="#000000" stroke="none" stroke-opacity="0" />
<polygon id="A1-1008" points="57.5 127.5,57.5 104.25,10.5 104.25,10.5 127.5" fill="#000000" stroke="none" stroke-opacity="0" />
<polygon id="A1-1009" points="10.75 104.5,10.75 80.5,57.75 80.5,57.75 104.25" fill="#000000" stroke="none" stroke-opacity="0" />
<polygon id="A1-1010" points="57.5 80.75,127.5 80.75,127.5 127.5,57.25 127.5" fill="#000000" stroke="none" stroke-opacity="0" />
<polygon id="A1-1011" points="57.5 127.25,127.5 127.25,127.5 151.5,57.5 151.5" fill="#000000" stroke="none" stroke-opacity="0" />
<polygon id="A1-1012" points="58 151.5,105 151.5,105 175,57 175" fill="#000000" stroke="none" stroke-opacity="0" />
<polygon id="A1-1013" points="57.5 175,104.5 175,104.5 199,57.5 199" fill="#000000" stroke="none" stroke-opacity="0" />
<polygon id="A1-1014" points="57.5 199,104 199,104 222.25,57.75 222.25" fill="#000000" stroke="none" stroke-opacity="0" />
<polygon id="A1-1015" points="57.75 222.5,104.75 222.5,104.75 246,57.25 246" fill="#000000" stroke="none" stroke-opacity="0" />
<polygon id="A1-1016" points="57.5 245.75,57.5 269.75,104.75 269.75,104.75 246" fill="#000000" stroke="none" stroke-opacity="0" />
<polygon id="A1-1017" points="258 9.75,351.75 9.75,387.25 45.25,375.25 58.5,375.25 245,257 245,187.75 175.75,187.75 80.5" fill="#000000" stroke="none" stroke-opacity="0" />
<polygon id="A1-1018" points="387.75 45,375.25 58.75,375.5 80.75,409.25 80.75,409.25 66" fill="#000000" stroke="none" stroke-opacity="0" />
<polygon id="A1-1019" points="375.25 127.75,425.75 127.75,425.75 152,375 152" fill="#000000" stroke="none" stroke-opacity="0" />
<polygon id="A1-1020" points="375.25 152,425.5 152,425.5 175,375.25 175" fill="#000000" stroke="none" stroke-opacity="0" />
<polygon id="A1-1021" points="375.5 175,425.25 175,425.25 198.5,375 198.5" fill="#000000" stroke="none" stroke-opacity="0" />
<polygon id="A1-1022" points="375.25 198.5,425 198.5,425 222.25,375 222.25" fill="#000000" stroke="none" stroke-opacity="0" />
<polygon id="A1-1023" points="375.25 222.5,425 222.5,425 244,375.25 244" fill="#000000" stroke="none" stroke-opacity="0" />
<polygon id="A1-1024" points="448.75 174.75,448.75 244.25,472.5 244.25,472.5 174.5" fill="#000000" stroke="none" stroke-opacity="0" />
<polygon id="A1-1025" points="472.75 174.75,472.75 244.25,495.75 244.25,495.75 174.75" fill="#000000" stroke="none" stroke-opacity="0" />
<polygon id="A1-1026" points="495.75 175,495.75 244,519.75 244,519.75 175" fill="#000000" stroke="none" stroke-opacity="0" />
<polygon id="A1-1027" points="519.75 163.25,519.75 244,543.75 244,543.75 163" fill="#000000" stroke="none" stroke-opacity="0" />
<polygon id="A1-1028" points="543.75 163,566.75 163,566.75 244,543.5 244" fill="#000000" stroke="none" stroke-opacity="0" />
<polygon id="A1-1029" points="566.75 163,566.75 243.75,590.75 243.75,590.75 163" fill="#000000" stroke="none" stroke-opacity="0" />
<polygon id="A1-1030" points="590.75 157.25,590.75 243.75,614 243.75,614 157.5" fill="#000000" stroke="none" stroke-opacity="0" />
<polygon id="A1-1031" points="614 157.5,638.25 157.5,638.25 244.25,614.25 244.25" fill="#000000" stroke="none" stroke-opacity="0" />
<polygon id="A1-1032" points="638.25 157.25,638.25 244.25,661.25 244.25,672 242.75,680.5 238.5,687.75 232.75,693.5 222.5,695.75 212,694.5 201.75,689 190.75,680.5 182.5,671.75 178.5,661.75 177.75,661.75 157.25" fill="#000000" stroke="none" stroke-opacity="0" />
<polygon id="A1-1033" points="637.75 80.25,637.75 157.5,661.25 157.5,661.25 80.5" fill="#000000" stroke="none" stroke-opacity="0" />
<polygon id="A1-1034" points="637.75 80.75,613.5 80.75,613.5 157.75,638 157.75" fill="#000000" stroke="none" stroke-opacity="0" />
<polygon id="A1-1035" points="613.5 80.75,613.5 157.25,590.75 157.25,590.75 80.5" fill="#000000" stroke="none" stroke-opacity="0" />
<polygon id="A1-1036" points="590.75 80.75,590.75 163,566.5 163,566.5 80.5" fill="#000000" stroke="none" stroke-opacity="0" />
<polygon id="A1-1037" points="566.75 80.75,566.75 163,542.25 163,542.25 80" fill="#000000" stroke="none" stroke-opacity="0" />
<polygon id="A1-1038" points="542.75 80.75,542.75 163,519.75 163,519.75 80.5" fill="#000000" stroke="none" stroke-opacity="0" />
<polygon id="A1-1039" points="519.75 80.75,519.75 151.5,495.25 151.5,495.25 80.5" fill="#000000" stroke="none" stroke-opacity="0" />
<polygon id="A1-1040" points="495.5 81,472.25 81,472.25 151.25,495.75 151.25" fill="#000000" stroke="none" stroke-opacity="0" />
<polygon id="A1-1041" points="472.25 81,448.5 81,448.5 151,472.5 151" fill="#000000" stroke="none" stroke-opacity="0" />
<polygon id="AS1-1001" points="157.75 354,157.75 396.75,186 396.75,186 354.25" fill="#000000" stroke="none" stroke-opacity="0" />
<polygon id="AS1-1002" points="186.25 368.5,228.5 368.5,228.5 326.75,185.75 326.75" fill="#000000" stroke="none" stroke-opacity="0" />
<polygon id="AS1-1003" points="228.5 326.75,228.5 368.25,257.75 368.25,257.75 327" fill="#000000" stroke="none" stroke-opacity="0" />
<polygon id="AS1-1004" points="257.75 327.25,257.75 368.25,305 368.25,305 327.25" fill="#000000" stroke="none" stroke-opacity="0" />
<polygon id="AS1-1005" points="321.75 305.25,321.75 336.5,335.75 336.5,335.75 348.5,361.75 348.5,361.75 305" fill="#000000" stroke="none" stroke-opacity="0" />
<polygon id="AS1-1006" points="361.75 305.25,382.5 305.25,382.5 368.5,361.25 368.5" fill="#000000" stroke="none" stroke-opacity="0" />
<polygon id="AS1-1007" points="382.5 305.25,382.5 368,403.5 368,403.5 305.25" fill="#000000" stroke="none" stroke-opacity="0" />
<polygon id="AS1-1008" points="403.25 305.25,425.25 305.25,425.25 368,403 368" fill="#000000" stroke="none" stroke-opacity="0" />
<polygon id="AS1-1009" points="445.25 305,445.25 368.5,466.5 368.5,466.5 305.5" fill="#000000" stroke="none" stroke-opacity="0" />
<polygon id="AS1-1010" points="466.5 305.5,487 305.5,487 369,466.5 369" fill="#000000" stroke="none" stroke-opacity="0" />
<polygon id="AS1-1011" points="487 305.5,507.25 305.5,507.25 368.5,487 368.5" fill="#000000" stroke="none" stroke-opacity="0" />
<polygon id="AS1-1012" points="507.25 305.5,507.25 347.75,557.25 347.75,557.25 305" fill="#000000" stroke="none" stroke-opacity="0" />
<polygon id="AS1-1013" points="557 305,591.75 305,591.75 369,552 369,552 347.75,557 347.75" fill="#000000" stroke="none" stroke-opacity="0" />
<polygon id="AS1-1014" points="592 305.25,637.25 305.25,637.25 368.5,591.75 368.5" fill="#000000" stroke="none" stroke-opacity="0" />
<polygon id="AS1-1015" points="637.25 305,660.75 305,660.75 348.25,637.25 348.25" fill="#000000" stroke="none" stroke-opacity="0" />
<polygon id="AS1-1016" points="660.75 305.25,684.25 305.25,684.25 348,660.5 348" fill="#000000" stroke="none" stroke-opacity="0" />
<polygon id="AS1-1017" points="684.25 305.25,707.5 305.25,707.5 347.75,684.25 347.75" fill="#000000" stroke="none" stroke-opacity="0" />
<polygon id="AS1-1018" points="707.5 305.5,731.5 305.5,731.5 346.75,707.25 346.75" fill="#000000" stroke="none" stroke-opacity="0" />
<polygon id="AS1-1019" points="731.25 346.25,731.25 392.75,706.75 392.75,706.75 347.25" fill="#000000" stroke="none" stroke-opacity="0" />
<polygon id="AS1-1020" points="707 347.75,683.5 347.75,683.5 392.75,706.75 392.75" fill="#000000" stroke="none" stroke-opacity="0" />
<polygon id="AS1-1021" points="683.75 348,660.5 348,660.5 393,683.25 393" fill="#000000" stroke="none" stroke-opacity="0" />
<polygon id="AS1-1022" points="661 348.25,637.25 348.25,637.25 393,660.75 393" fill="#000000" stroke="none" stroke-opacity="0" />
<polygon id="AS1-1023" points="637.75 368.25,637.75 423.75,620.75 423.75,620.75 368.25" fill="#000000" stroke="none" stroke-opacity="0" />
<polygon id="AS1-1024" points="620.75 368.25,591.75 368.25,591.75 423.5,620.5 423.5" fill="#000000" stroke="none" stroke-opacity="0" />
<polygon id="AS1-1025" points="592 368.5,552 368.5,552 380.25,557 380,557 423.75,592.25 424" fill="#000000" stroke="none" stroke-opacity="0" />
<polygon id="AS1-1026" points="487 368.25,507.25 368.25,507.25 388.25,525.5 388.25,525.5 423.5,487.25 423.5" fill="#000000" stroke="none" stroke-opacity="0" />
<polygon id="AS1-1027" points="487.5 368.5,466 368.5,466 423.5,487.5 423.5" fill="#000000" stroke="none" stroke-opacity="0" />
<polygon id="AS1-1028" points="466.25 368.5,445.25 368.5,445.25 424,466.25 424" fill="#000000" stroke="none" stroke-opacity="0" />
<polygon id="AS1-1029" points="425.5 367.5,425.5 423.5,403.75 423.5,403.75 367.25" fill="#000000" stroke="none" stroke-opacity="0" />
<polygon id="AS1-1030" points="404.25 368,382.75 368,382.75 423.5,403.75 423.5" fill="#000000" stroke="none" stroke-opacity="0" />
<polygon id="AS1-1031" points="382.75 368,361.5 368,361.5 423.75,383 423.75" fill="#000000" stroke="none" stroke-opacity="0" />
<polygon id="AS1-1032" points="361.75 369,322.25 369,322.25 423.25,361.75 423.25" fill="#000000" stroke="none" stroke-opacity="0" />
<polygon id="AS1-1033" points="293.25 368.25,293.25 423.75,323 423.75,323 388,305 388,305 368" fill="#000000" stroke="none" stroke-opacity="0" />
<polygon id="AS1-1034" points="293.5 368,293.5 423.25,258 423.25,258 367.75" fill="#000000" stroke="none" stroke-opacity="0" />
<polygon id="AS1-1035" points="228.75 368.5,258 368.5,258 423.25,228.25 423.25" fill="#000000" stroke="none" stroke-opacity="0" />
<polygon id="AS1-1036" points="228.75 368.5,211.25 368.5,211.25 423.5,229 423.5" fill="#000000" stroke="none" stroke-opacity="0" />
<polygon id="AS1-1037" points="211.5 368.5,186.25 368.5,186.25 423.75,211.75 423.75" fill="#000000" stroke="none" stroke-opacity="0" />
</svg>
