<?xml version="1.0" encoding="UTF-8" standalone="no"?>
<!-- Created with Inkscape (http://www.inkscape.org/) -->

<svg xmlns:dc="http://purl.org/dc/elements/1.1/" xmlns:cc="http://creativecommons.org/ns#" xmlns:rdf="http://www.w3.org/1999/02/22-rdf-syntax-ns#" xmlns:svg="http://www.w3.org/2000/svg" xmlns="http://www.w3.org/2000/svg" xmlns:xlink="http://www.w3.org/1999/xlink" xmlns:sodipodi="http://sodipodi.sourceforge.net/DTD/sodipodi-0.dtd" xmlns:inkscape="http://www.inkscape.org/namespaces/inkscape" width="770" height="260" id="svg2" version="1.1" inkscape:version="0.47pre4 " sodipodi:docname="test.svg" style="display:inline">
<defs id="defs4">
<inkscape:perspective sodipodi:type="inkscape:persp3d" inkscape:vp_x="0 : 526.18109 : 1" inkscape:vp_y="0 : 1000 : 0" inkscape:vp_z="744.09448 : 526.18109 : 1" inkscape:persp3d-origin="372.04724 : 350.78739 : 1" id="perspective10" />
<inkscape:perspective id="perspective2832" inkscape:persp3d-origin="0.5 : 0.33333333 : 1" inkscape:vp_z="1 : 0.5 : 1" inkscape:vp_y="0 : 1000 : 0" inkscape:vp_x="0 : 0.5 : 1" sodipodi:type="inkscape:persp3d" />
<script type="text/ecmascript" id="script6">
		var fdat="",sdat="";
		function onAreaOver(evt){
			var ele=evt.target; 
			fdat=ele.getAttribute('fill'); 
			sdat=ele.getAttribute('stroke');
			ele.setAttribute('fill','#006fb6');//多边形填充颜色
			ele.setAttribute('stroke','#006fb6');//stroke 多边形 边框颜色
			
		}
		function onAreaOut(evt){
			var ele=evt.target; 
			ele.setAttribute('fill',fdat);
			ele.setAttribute('stroke',sdat);
		}
		</script>
<symbol overflow="visible" id="symbol" style="overflow:visible" xmlns="http://www.w3.org/2000/svg">
<path d="m 626,156 2,-2 2,-4 0,-3 -1,-3 -4,-3 -6,-3 -5,-2 -4,-2 -4,8 -6,14" id="path9" style="fill:#000000;stroke:none" />
</symbol>
</defs>
<sodipodi:namedview id="base" pagecolor="#ffffff" bordercolor="#666666" borderopacity="1.0" inkscape:pageopacity="0.0" inkscape:pageshadow="2" inkscape:zoom="5.6" inkscape:cx="583.1007" inkscape:cy="273.63795" inkscape:document-units="px" inkscape:current-layer="svg2" showgrid="false" inkscape:window-width="1280" inkscape:window-height="740" inkscape:window-x="-4" inkscape:window-y="-4" inkscape:window-maximized="1" />
<metadata id="metadata7">
<rdf:RDF>
<cc:Work>
<dc:format>
image/svg+xml</dc:format>
<dc:type rdf:resource="http://purl.org/dc/dcmitype/StillImage" />
<dc:title>
</dc:title>
</cc:Work>
</rdf:RDF>
</metadata>
<image xlink:href="taian_b_1f_b5.png" width="770" height="260" id="image2834" x="-485" y="255.93361" transform="translate(485,-255.9336)" inkscape:label="Layer 1" inkscape:groupmode="layer" style="display:inline" />
<polygon id="B5-1001" points="16 27.5,40.5 27.5,40.5 82.5,15.5 82.5" fill="#000000" stroke="none" stroke-opacity="0" />
<polygon id="B5-1002" points="40.5 44.5,67.5 44.5,67.5 82,40.5 82" fill="#000000" stroke="none" stroke-opacity="0" />
<polygon id="B5-1003" points="67 44.5,94 44.5,94 82,67 82" fill="#000000" stroke="none" stroke-opacity="0" />
<polygon id="B5-1004" points="94 44.5,122 44.5,122 82.5,93 82.5" fill="#000000" stroke="none" stroke-opacity="0" />
<polygon id="B5-1005" points="122 44,149 44,149 82.5,121.5 82.5" fill="#000000" stroke="none" stroke-opacity="0" />
<polygon id="B5-1006" points="149 44,175 44,175 81.5,149 81.5" fill="#000000" stroke="none" stroke-opacity="0" />
<polygon id="B5-1007" points="175.5 27.5,175.5 82,202.5 82,202.5 28" fill="#000000" stroke="none" stroke-opacity="0" />
<polygon id="B5-1008" points="202.5 28,230.5 28,230.5 82.5,202 82.5" fill="#000000" stroke="none" stroke-opacity="0" />
<polygon id="B5-1009" points="230 28,258 28,258 82.5,229.5 82.5" fill="#000000" stroke="none" stroke-opacity="0" />
<polygon id="B5-1010" points="257.5 28,284.5 28,284.5 81.5,257.5 81.5" fill="#000000" stroke="none" stroke-opacity="0" />
<polygon id="B5-1011" points="284 28,311.5 28,311.5 83,284.5 83" fill="#000000" stroke="none" stroke-opacity="0" />
<polygon id="B5-1012" points="311.5 28,339 28,339 82,311.5 82" fill="#000000" stroke="none" stroke-opacity="0" />
<polygon id="B5-1013" points="338.5 28,366.5 28,366.5 83,338.5 83" fill="#000000" stroke="none" stroke-opacity="0" />
<polygon id="B5-1014" points="366.5 28,393.5 28,393.5 82,365.5 82" fill="#000000" stroke="none" stroke-opacity="0" />
<polygon id="B5-1015" points="393 28,421 28,421 83,393 83" fill="#000000" stroke="none" stroke-opacity="0" />
<polygon id="B5-1016" points="421 28,448 28,448 82,420.5 82" fill="#000000" stroke="none" stroke-opacity="0" />
<polygon id="B5-1017" points="447.5 28,475 28,475 83,447.5 83" fill="#000000" stroke="none" stroke-opacity="0" />
<polygon id="B5-1018" points="475 28,502.5 28,502.5 82,475 82" fill="#000000" stroke="none" stroke-opacity="0" />
<polygon id="B5-1019" points="530 44.5,556.5 44.5,556.5 83,529.5 83" fill="#000000" stroke="none" stroke-opacity="0" />
<polygon id="B5-1020" points="556.5 44.5,584.5 44.5,584.5 83,556.5 83" fill="#000000" stroke="none" stroke-opacity="0" xmlns="http://www.w3.org/2000/svg" />
<polygon id="B5-1021" points="584.5 44,610.5 44,610.5 82.5,584 82.5" fill="#000000" stroke="none" stroke-opacity="0" />
<polygon id="B5-1022" points="610.5 44,637.5 44,637.5 83.5,610.5 83.5" fill="#000000" stroke="none" stroke-opacity="0" />
<polygon id="B5-1023" points="637.5 82.5,637.5 27.5,666.5 27.5,666.5 82.5" fill="#000000" stroke="none" stroke-opacity="0" />
<polygon id="B5-1024" points="666.5 55.5,666.5 81.5,637.5 81.5,637.5 138.5,642.5 146,652 157,662 164.5,674.5 171,689.5 173.5,701.5 173,713 170.5,724.5 165,736 156.5,744.5 144.5,750 133.5,752.5 122,753 109.5,751 97,744 83.5,735.5 72,724 63.5,711.5 58,698 55" fill="#000000" stroke="none" stroke-opacity="0" />
<polygon id="B5-1025" points="610.5 82,610.5 137.5,637.5 137.5,637.5 82.5" fill="#000000" stroke="none" stroke-opacity="0" />
<polygon id="B5-1026" points="610.5 82.5,583.5 82.5,583.5 138,611 138" fill="#000000" stroke="none" stroke-opacity="0" />
<polygon id="B5-1027" points="584 82.5,556.5 82.5,556.5 137.5,584 137.5" fill="#000000" stroke="none" stroke-opacity="0" />
<polygon id="B5-1028" points="556.5 82.5,529.5 82.5,529.5 137.5,556.5 137.5" fill="#000000" stroke="none" stroke-opacity="0" />
<polygon id="B5-1029" points="530 82,501.5 82,501.5 137.5,530 137.5" fill="#000000" stroke="none" stroke-opacity="0" />
<polygon id="B5-1030" points="475 82.5,502 82.5,502 138,475 138" fill="#000000" stroke="none" stroke-opacity="0" />
<polygon id="B5-1031" points="475 83,447.5 83,447.5 137.5,475.5 137.5" fill="#000000" stroke="none" stroke-opacity="0" />
<polygon id="B5-1032" points="447.5 84,420.5 84,420.5 137.5,448 137.5" fill="#000000" stroke="none" stroke-opacity="0" />
<polygon id="B5-1033" points="420.5 83,393 83,393 137.5,421 137.5" fill="#000000" stroke="none" stroke-opacity="0" />
<polygon id="B5-1034" points="393.5 82.5,365 82.5,365 137.5,393 137.5" fill="#000000" stroke="none" stroke-opacity="0" />
<polygon id="B5-1035" points="365.5 82.5,339 82.5,339 137.5,365.5 137.5" fill="#000000" stroke="none" stroke-opacity="0" />
<polygon id="B5-1036" points="311.5 82,311.5 137.5,339 137.5,339 82" fill="#000000" stroke="none" stroke-opacity="0" />
<polygon id="B5-1037" points="312 82.5,285 82.5,285 137.5,311.5 137.5" fill="#000000" stroke="none" stroke-opacity="0" />
<polygon id="B5-1038" points="284.5 82,258 82,258 137.5,286 137.5" fill="#000000" stroke="none" stroke-opacity="0" />
<polygon id="B5-1039" points="258.5 82,230 82,230 137.5,258 137.5" fill="#000000" stroke="none" stroke-opacity="0" />
<polygon id="B5-1040" points="230.5 82.5,202.5 82.5,202.5 137.5,230 137.5" fill="#000000" stroke="none" stroke-opacity="0" />
<polygon id="B5-1041" points="203 82,176.5 82,176.5 137.5,203.5 137.5" fill="#000000" stroke="none" stroke-opacity="0" />
<polygon id="B5-1042" points="176.5 82,148.5 82,148.5 138.5,177.5 138.5" fill="#000000" stroke="none" stroke-opacity="0" />
<polygon id="B5-1043" points="148.5 83,121 83,121 137.5,148.5 137.5" fill="#000000" stroke="none" stroke-opacity="0" />
<polygon id="B5-1044" points="121 137,121 82.5,94 82.5,94 137.5" fill="#000000" stroke="none" stroke-opacity="0" />
<polygon id="B5-1045" points="94 83,67 83,67 138,93 138" fill="#000000" stroke="none" stroke-opacity="0" />
<polygon id="B5-1046" points="67 83,39.5 83,39.5 137.5,67.5 137.5" fill="#000000" stroke="none" stroke-opacity="0" />
<polygon id="B5-1047" points="14 82.5,39 82.5,39 137.5,15 137.5" fill="#000000" stroke="none" stroke-opacity="0" />
<polygon id="B5-1048" points="15.5 191.5,40 191.5,40 246.5,16 246.5" fill="#000000" stroke="none" stroke-opacity="0" />
<polygon id="B5-1049" points="40 192,67 192,67 246,39 246" fill="#000000" stroke="none" stroke-opacity="0" />
<polygon id="B5-1050" points="66.5 192,93.5 192,93.5 246.5,66.5 246.5" fill="#000000" stroke="none" stroke-opacity="0" />
<polygon id="B5-1051" points="93.5 191.5,122.5 191.5,122.5 246,93 246" fill="#000000" stroke="none" stroke-opacity="0" />

</svg>
