<?xml version="1.0" encoding="UTF-8" standalone="no"?>
<!-- Created with Inkscape (http://www.inkscape.org/) -->

<svg xmlns:dc="http://purl.org/dc/elements/1.1/" xmlns:cc="http://creativecommons.org/ns#" xmlns:rdf="http://www.w3.org/1999/02/22-rdf-syntax-ns#" xmlns:svg="http://www.w3.org/2000/svg" xmlns="http://www.w3.org/2000/svg" xmlns:xlink="http://www.w3.org/1999/xlink" xmlns:sodipodi="http://sodipodi.sourceforge.net/DTD/sodipodi-0.dtd" xmlns:inkscape="http://www.inkscape.org/namespaces/inkscape" width="770" height="410" id="svg2" version="1.1" inkscape:version="0.47pre4 " sodipodi:docname="test.svg" style="display:inline">
<defs id="defs4">
<inkscape:perspective sodipodi:type="inkscape:persp3d" inkscape:vp_x="0 : 526.18109 : 1" inkscape:vp_y="0 : 1000 : 0" inkscape:vp_z="744.09448 : 526.18109 : 1" inkscape:persp3d-origin="372.04724 : 350.78739 : 1" id="perspective10" />
<inkscape:perspective id="perspective2832" inkscape:persp3d-origin="0.5 : 0.33333333 : 1" inkscape:vp_z="1 : 0.5 : 1" inkscape:vp_y="0 : 1000 : 0" inkscape:vp_x="0 : 0.5 : 1" sodipodi:type="inkscape:persp3d" />
<script type="text/ecmascript" id="script6">
		var fdat="",sdat="";
		function onAreaOver(evt){
			var ele=evt.target; 
			fdat=ele.getAttribute('fill'); 
			sdat=ele.getAttribute('stroke');
			ele.setAttribute('fill','#006fb6');//多边形填充颜色
			ele.setAttribute('stroke','#006fb6');//stroke 多边形 边框颜色
			
		}
		function onAreaOut(evt){
			var ele=evt.target; 
			ele.setAttribute('fill',fdat);
			ele.setAttribute('stroke',sdat);
		}
		</script>
<symbol overflow="visible" id="symbol" style="overflow:visible">
<path d="m 626,156 2,-2 2,-4 0,-3 -1,-3 -4,-3 -6,-3 -5,-2 -4,-2 -4,8 -6,14" id="path9" style="fill:#000000;stroke:none" />
</symbol>
</defs>
<sodipodi:namedview id="base" pagecolor="#ffffff" bordercolor="#666666" borderopacity="1.0" inkscape:pageopacity="0.0" inkscape:pageshadow="2" inkscape:zoom="5.6" inkscape:cx="583.1007" inkscape:cy="273.63795" inkscape:document-units="px" inkscape:current-layer="svg2" showgrid="false" inkscape:window-width="1280" inkscape:window-height="740" inkscape:window-x="-4" inkscape:window-y="-4" inkscape:window-maximized="1" />
<metadata id="metadata7">
<rdf:RDF>
<cc:Work>
<dc:format>
image/svg+xml</dc:format>
<dc:type rdf:resource="http://purl.org/dc/dcmitype/StillImage" />
<dc:title>
</dc:title>
</cc:Work>
</rdf:RDF>
</metadata>
<image xlink:href="qdjimo_mall_1f.png" width="770" height="530" id="image2834" x="-485" y="255.93361" transform="translate(485,-255.9336)" inkscape:label="Layer 1" inkscape:groupmode="layer" style="display:inline" />
<polygon id="1001" points="114 230,139 230,139 256.5,190.5 256.5,190.5 453.5,122 453.5,122 480.5,113 480.5,113.5 454.5,86 454.5,86 479.5,79 480,79 463.5,35 463.5,35 254,72.5 254,72.5 238.5,113.5 238.5" fill="#000000" stroke="none" stroke-opacity="0" />
<polygon id="1002" points="216.5 230,216.5 256,191 256,191 453.5,310.5 453.5,310.5 437.5,320 437.5,320 427.5,301.5 427.5,301.5 411,320.5 411,320.5 386.5,294.5 386.5,294.5 253.5,241.5 253.5,241.5 229.5" fill="#000000" stroke="none" stroke-opacity="0" />
<polygon id="1003" points="457 254.5,579 254.5,579 229,604.5 229,604.5 237,630 237,630 229,654.5 229,654.5 255,721 255,721 359.5,759 359.5,759 385.5,720.5 385.5,720.5 453,691 453,691 438.5,656 438.5,656 479.5,645.5 479.5,647.5 454.5,473 454.5,473 436.5,463 437.5,467.5 412,449.5 412,449.5 385.5,475.5 385.5,475.5 291,457 291" fill="#000000" stroke="none" stroke-opacity="0" />
<polygon id="1004" points="99 112.25,114.5 137.5,144 121,130.5 95.75,120.75 100.25,110.75 105.75" fill="#000000" stroke="none" />
<polygon id="1005" points="144.25 120.75,157 146.75,134.5 159.75,129 160.75,126 157,114.75 137.25" fill="#000000" stroke="none" stroke-opacity="0" />
<polygon id="1006" points="130.25 95.5,144 120.75,174 106.75,162.5 80.25,152.25 84.25,141.5 89.75" fill="#000000" stroke="none" stroke-opacity="0" />
<polygon id="1007" points="144 121,156.75 146.5,185.5 133.5,174 106.5" fill="#000000" stroke="none" stroke-opacity="0" />
<polygon id="1008" points="162.25 80.25,185.5 133,199.25 127.5,214.75 121.75,194.75 67,185.75 70.25,175.75 74.25" fill="#000000" stroke="none" stroke-opacity="0" />
<polygon id="1009" points="194.75 67,207.75 62.25,228.5 56,236.5 84.5,205 95" fill="#000000" stroke="none" stroke-opacity="0" />
<polygon id="1010" points="205 94.75,214.5 121.25,244.25 111.75,236.5 84.25" fill="#000000" stroke="none" stroke-opacity="0" />
<polygon id="1011" points="228.5 56,236.25 84.75,255 80,248.25 50.75,238.25 53.25" fill="#000000" stroke="none" stroke-opacity="0" />
<polygon id="1012" points="236.5 84.25,244 111.5,275 103.5,268.75 75.75,253.75 79.75" fill="#000000" stroke="none" stroke-opacity="0" />
<polygon id="1013" points="262.75 47.5,275 103.25,289.5 100.75,306.25 98,296.75 40.5,285 42.5,275 44.25" fill="#000000" stroke="none" stroke-opacity="0" />
<polygon id="1014" points="297 40.5,310 39,332.25 36.25,334.5 65.75,318 67.5,301.75 69.75" fill="#000000" stroke="none" stroke-opacity="0" />
<polygon id="1015" points="301.5 69.5,306 97.5,337.25 94.25,334.5 65.25" fill="#000000" stroke="none" stroke-opacity="0" />
<polygon id="1016" points="334.5 65,368.25 63.75,367.5 33.75,348.75 34.5,332 36.5" fill="#000000" stroke="none" stroke-opacity="0" />
<polygon id="1017" points="334.75 64.75,337.25 94,362.75 92.75,367 90.25,368.75 85.25,368 63.5" fill="#000000" stroke="none" stroke-opacity="0" />
<polygon id="1018" points="402 34.25,401 63.5,434.25 66,437 36.25,425.75 34.75,413 34" fill="#000000" stroke="none" stroke-opacity="0" />
<polygon id="1019" points="401 63.5,434.5 66,431.25 94.25,405.75 92.75,402.25 91,400 86.5,400.25 81.75" fill="#000000" stroke="none" stroke-opacity="0" />
<polygon id="1020" points="436.75 36.5,452 37.75,471.75 40.75,467.75 69.75,451 67.5,434.25 65.5" fill="#000000" stroke="none" stroke-opacity="0" />
<polygon id="1021" points="434.75 65.5,450.5 67.25,467.25 69.5,462.75 98,444.25 95.25,431.25 93.75" fill="#000000" stroke="none" stroke-opacity="0" />
<polygon id="1022" points="471.75 40.75,463 97.5,480 101,493.75 104,506.25 47,494.25 44.25,482.75 42" fill="#000000" stroke="none" stroke-opacity="0" />
<polygon id="1023" points="520.5 50.25,514.25 79.25,532.5 84.25,541 56.25,530.5 52.75" fill="#000000" stroke="none" stroke-opacity="0" />
<polygon id="1024" points="500 75.75,518 80.25,532.25 84.25,524.5 112.5,508.5 107.75,493.5 103.5" fill="#000000" stroke="none" stroke-opacity="0" />
<polygon id="1025" points="541 56.25,532.25 84,564 95.25,574 67.25,563.25 63,553 59.5" fill="#000000" stroke="none" stroke-opacity="0" />
<polygon id="1026" points="532.5 84.25,524.5 112,536.25 116,553.5 122.25,564 95.25" fill="#000000" stroke="none" stroke-opacity="0" />
<polygon id="1027" points="574 67.25,553.75 121.5,565.5 126.25,583.25 134.25,606.5 80.25,596 75.25,583.75 70.75" fill="#000000" stroke="none" stroke-opacity="0" />
<polygon id="1028" points="606.5 80.25,626.5 89.5,638.5 95.5,625 121.5,608.5 113.25,595 107" fill="#000000" stroke="none" stroke-opacity="0" />
<polygon id="1029" points="595.25 107,583.5 134,595.5 140,611.5 147.75,624.75 121.25,610 114" fill="#000000" stroke="none" stroke-opacity="0" />
<polygon id="1030" points="638.5 95.5,654.5 103.75,668.5 112.25,654.25 138,625 121.25" fill="#000000" stroke="none" stroke-opacity="0" />
<polygon id="1031" points="624.75 121,654 137.75,642.75 157.25,640.5 160,637.25 161.25,624.25 154.25,612 147.5" fill="#000000" stroke="none" stroke-opacity="0" />
<polygon id="1032" points="173.25 177.75,189.25 210,150.5 209.75,144 205.75,143.25 199,146 193.5" fill="#000000" stroke="none" stroke-opacity="0" />
<polygon id="1033" points="173 178.25,199 165.75,208 186.25,183.5 198.25" fill="#000000" stroke="none" stroke-opacity="0" />
<polygon id="1034" points="183.5 198.25,189 209.75,219 210.5,208 186" fill="#000000" stroke="none" stroke-opacity="0" />
<polygon id="1035" points="211 192.5,236.75 182,225.75 152,211 157.75,197.75 163" fill="#000000" stroke="none" stroke-opacity="0" />
<polygon id="1036" points="211.25 192,219 210.25,246.5 210,236.5 181.75" fill="#000000" stroke="none" stroke-opacity="0" />
<polygon id="1037" points="225.75 152,238.75 147.25,253.5 143,264.25 179.5,239 188.25" fill="#000000" stroke="none" stroke-opacity="0" />
<polygon id="1038" points="239 188,246.5 210.25,273.25 210.25,264.25 179.5" fill="#000000" stroke="none" stroke-opacity="0" />
<polygon id="1039" points="253.5 143,268 138.75,282 135.5,283.25 141.25,275.25 143.5,277.25 153.25,258 158.5" fill="#000000" stroke="none" stroke-opacity="0" />
<polygon id="1040" points="273.75 177,282.75 207.75,297.5 203.75,290.5 173" fill="#000000" stroke="none" stroke-opacity="0" />
<polygon id="1041" points="291.75 133.25,300 170.5,317.5 167.75,311.25 130,301.25 131.25" fill="#000000" stroke="none" stroke-opacity="0" />
<polygon id="1042" points="290.5 173,297.5 203.5,312 200.75,322.25 199.5,317.25 167.5,300.5 170.75" fill="#000000" stroke="none" stroke-opacity="0" />
<polygon id="1043" points="311.75 132.75,326.5 130.5,341.25 129,344.25 164.25,330.75 165.25,317.75 167.25" fill="#000000" stroke="none" stroke-opacity="0" />
<polygon id="1044" points="317.5 167,330.25 165.25,344 164,347.25 196,322.25 199" fill="#000000" stroke="none" stroke-opacity="0" />
<polygon id="1045" points="341.25 129.25,370 127.25,371.25 162.75,344 163.75" fill="#000000" stroke="none" stroke-opacity="0" />
<polygon id="1046" points="344.25 163.5,347 195.5,371.75 194.5,371 162.5" fill="#000000" stroke="none" stroke-opacity="0" />
<polygon id="1047" points="399.25 127,428 129.25,425 164,397.75 162.75" fill="#000000" stroke="none" stroke-opacity="0" />
<polygon id="1048" points="398 162.75,425 163.75,422.25 195.75,397 194.5" fill="#000000" stroke="none" stroke-opacity="0" />
<polygon id="1049" points="428 129,457.25 132.75,451.5 167.25,425 164.25" fill="#000000" stroke="none" stroke-opacity="0" />
<polygon id="1050" points="425.25 164,422 195.5,446.5 199,451.5 166.75" fill="#000000" stroke="none" stroke-opacity="0" />
<polygon id="1051" points="457.75 129.75,451.5 167.25,469 170.75,477.25 133.25" fill="#000000" stroke="none" stroke-opacity="0" />
<polygon id="1052" points="451.5 167,479 172.75,471.25 204,446.5 198.5" fill="#000000" stroke="none" stroke-opacity="0" />
<polygon id="1053" points="487.5 135,485.75 141.5,493.5 143.5,491.75 153.5,510.75 158.5,515.75 142.75,504.25 139.25" fill="#000000" stroke="none" stroke-opacity="0" />
<polygon id="1054" points="479 172.75,471.25 203.5,486.25 207.5,495.5 177.25" fill="#000000" stroke="none" stroke-opacity="0" />
<polygon id="1055" points="515.5 142.75,505 179.5,529.75 188,543.5 152,530 147.25" fill="#000000" stroke="none" stroke-opacity="0" />
<polygon id="1056" points="505 179,496.5 209.75,521.75 210,530 187.75" fill="#000000" stroke="none" stroke-opacity="0" />
<polygon id="1057" points="543.5 152,532.5 181.5,558 192.75,570.5 162.75,561.25 158.5,552 154.75" fill="#000000" stroke="none" stroke-opacity="0" />
<polygon id="1058" points="532.5 181.25,558 192.25,550 210,521.25 210.25" fill="#000000" stroke="none" stroke-opacity="0" />
<polygon id="1059" points="569.5 165.5,595.75 178,585.25 198,560.5 186.25" fill="#000000" stroke="none" stroke-opacity="0" />
<polygon id="1060" points="560.75 186,585.25 197.75,579 210,550 209.75" fill="#000000" stroke="none" stroke-opacity="0" />
<polygon id="1061" points="595.75 178.25,579.25 210,617 210,622.5 208.75,625.5 204.5,626 197,620.25 191.25" fill="#000000" stroke="none" stroke-opacity="0" />
<polygon id="1062" points="138.75 230,139 256.75,164.5 256.5,164.25 230" fill="#000000" stroke="none" stroke-opacity="0" />
<polygon id="1063" points="164.25 230,164.25 256.25,190.5 256,190 230" fill="#000000" stroke="none" stroke-opacity="0" />
<polygon id="1064" points="190.25 230,216.25 230.25,216.5 256,190.5 256" fill="#000000" stroke="none" stroke-opacity="0" />
<polygon id="1065" points="241.75 230,241.5 254.75,269.5 255,269 229.75" fill="#000000" stroke="none" stroke-opacity="0" />
<polygon id="1066" points="307.25 229.75,306.75 254.5,333 255,333 229.75" fill="#000000" stroke="none" stroke-opacity="0" />
<polygon id="1067" points="316.25 265.25,315.75 282,333 282,333.25 264.75" fill="#000000" stroke="none" stroke-opacity="0" />
<polygon id="1068" points="294.5 291.25,333 291.25,333 307.75,294 308" fill="#000000" stroke="none" stroke-opacity="0" />
<polygon id="1069" points="294.25 307.5,294.5 333.75,332.75 333.75,333 307.25" fill="#000000" stroke="none" stroke-opacity="0" />
<polygon id="1070" points="294.5 333.5,333 333.75,332.5 360,294.25 359.75" fill="#000000" stroke="none" stroke-opacity="0" />
<polygon id="1071" points="294.75 359.5,333 359.5,332.75 386,294.75 386.25" fill="#000000" stroke="none" stroke-opacity="0" />
<polygon id="1072" points="302 411.5,302 424.5,320 424.5,320 421.25,332.75 421.25,333 411.75" fill="#000000" stroke="none" stroke-opacity="0" />
<polygon id="1073" points="346 411.25,371.75 411.5,371.5 450,345.5 450" fill="#000000" stroke="none" stroke-opacity="0" />
<polygon id="1074" points="345.75 450,371.5 450,371.5 483.75,346 483.75" fill="#000000" stroke="none" stroke-opacity="0" />
<polygon id="1075" points="269 458,269 489,302.25 489,302.25 467.5,296 467.5,296 457.75" fill="#000000" stroke="none" stroke-opacity="0" />
<polygon id="1076" points="269 454,269 489,241.5 489,241.5 453.75" fill="#000000" stroke="none" stroke-opacity="0" />
<polygon id="1077" points="241.5 454,215.75 454,215.75 488.75,241.25 488.75" fill="#000000" stroke="none" stroke-opacity="0" />
<polygon id="1078" points="215.75 488.75,190.25 488.75,190.25 453.75,215.75 453.75" fill="#000000" stroke="none" stroke-opacity="0" />
<polygon id="1079" points="164.75 454,190.25 454,190.25 488.5,164.25 488.5" fill="#000000" stroke="none" stroke-opacity="0" />
<polygon id="1080" points="164.75 454,138.75 454,138.75 489,164.25 489" fill="#000000" stroke="none" stroke-opacity="0" />
<polygon id="1081" points="139 454,121.75 454,121.75 488.75,138.75 488.75" fill="#000000" stroke="none" stroke-opacity="0" />
<polygon id="1082" points="86 455,113 455,113 489,86 489" fill="#000000" stroke="none" stroke-opacity="0" />
<polygon id="1083" points="61 463.25,78.25 463.25,78.25 489.75,60.75 489.75" fill="#000000" stroke="none" stroke-opacity="0" />
<polygon id="1084" points="61.25 463.25,35.25 463.25,35.25 489.25,61 489.25" fill="#000000" stroke="none" stroke-opacity="0" />
<polygon id="1085" points="35.25 463.5,35.25 489.25,25.75 487.75,16.75 483,12.75 476.5,10.25 469,9.25 463.25" fill="#000000" stroke="none" stroke-opacity="0" />
<polygon id="1086" points="35.25 463.25,8.75 463.25,8.75 437.5,35 437.5" fill="#000000" stroke="none" stroke-opacity="0" />
<polygon id="1087" points="35 437.5,35 412,9.25 412,9.25 437.5" fill="#000000" stroke="none" stroke-opacity="0" />
<polygon id="1088" points="9.5 412,9.5 385.5,35 385.5,35 412" fill="#000000" stroke="none" stroke-opacity="0" />
<polygon id="1089" points="35 385.25,35 359.75,8.75 359.75,8.75 385.5" fill="#000000" stroke="none" stroke-opacity="0" />
<polygon id="1090" points="9 359.5,9 333.75,35.25 333.75,35.25 360" fill="#000000" stroke="none" stroke-opacity="0" />
<polygon id="1091" points="9.25 334,9.25 307.5,35 307.5,35 333.75" fill="#000000" stroke="none" stroke-opacity="0" />
<polygon id="1092" points="35 307.5,35 282,8.75 282,8.75 307.5" fill="#000000" stroke="none" stroke-opacity="0" />
<polygon id="1093" points="8.75 282.25,8.75 254.5,35.25 254.5,35.25 282.25" fill="#000000" stroke="none" stroke-opacity="0" />
<polygon id="1094" points="9 254.5,9 204,74.25 204,74.25 255" fill="#000000" stroke="none" stroke-opacity="0" />
<polygon id="1095" points="38.75 204,38.75 192.25,34.5 192.5,34.5 158.25,42.75 152,60.5 175.75,60.5 204.25" fill="#000000" stroke="none" stroke-opacity="0" />
<polygon id="1096" points="42.75 152,70.25 131.75,86.75 155.5,60.75 175.75" fill="#000000" stroke="none" stroke-opacity="0" />
<polygon id="1097" points="86.75 155.25,99.5 174,99.5 204.25,60.75 203.75,60.75 175.75" fill="#000000" stroke="none" stroke-opacity="0" />
<polygon id="1098" points="74.25 204,74.25 221.75,99.5 222.25,99.75 204.25" fill="#000000" stroke="none" stroke-opacity="0" />
<polygon id="1099" points="436.25 229.75,436.25 254.5,462 254.5,462 229.5" fill="#000000" stroke="none" stroke-opacity="0" />
<polygon id="1100" points="500 230,500 255,527 255,527 229.75" fill="#000000" stroke="none" stroke-opacity="0" />
<polygon id="1101" points="527 230,527 254.5,552.5 254.5,552.5 229.75" fill="#000000" stroke="none" stroke-opacity="0" />
<polygon id="1102" points="552.5 229.75,552.5 254.5,578.5 254.5,578.5 229.75" fill="#000000" stroke="none" stroke-opacity="0" />
<polygon id="1103" points="698.75 131.25,682.25 155.75,708.5 175.25,727.25 152.5,717.75 144.5,707.5 137" fill="#000000" stroke="none" stroke-opacity="0" />
<polygon id="1104" points="682.5 155.75,669.75 174.25,669.75 204.5,708.25 204.5,708.25 174.5" fill="#000000" stroke="none" stroke-opacity="0" />
<polygon id="1105" points="727.25 152.5,708.5 175.25,708.5 204.25,735 204.25,735 158.25" fill="#000000" stroke="none" stroke-opacity="0" />
<polygon id="1106" points="670 204,670 221.5,694.5 221.5,694.5 204.25" fill="#000000" stroke="none" stroke-opacity="0" />
<polygon id="1107-A" points="694.5 204.25,694.5 254.5,734 254.5,734 204.25" fill="#000000" stroke="none" stroke-opacity="0" />
<polygon id="1107-B" points="734.25 204,760 204,760 254.5,734 254.5" fill="#000000" stroke="none" stroke-opacity="0" />
<polygon id="1108-A" points="721 254.25,721 282,734.25 282,734.25 254" fill="#000000" stroke="none" stroke-opacity="0" />
<polygon id="1108-B" points="734.5 254.5,734.5 281.5,759.75 281.5,759.75 254.25" fill="#000000" stroke="none" stroke-opacity="0" />
<polygon id="1109-A" points="721 281.5,721 308,734 308,734 281.5" fill="#000000" stroke="none" stroke-opacity="0" />
<polygon id="1109-B" points="734.25 281.5,734.25 307.5,760 307.5,760 281.5" fill="#000000" stroke="none" stroke-opacity="0" />
<polygon id="1110-A" points="721 307.75,734.25 307.75,734.25 334.25,720.75 334.25" fill="#000000" stroke="none" stroke-opacity="0" />
<polygon id="1110-B" points="734.5 307.5,759.75 307.5,759.75 333.75,734.5 333.75" fill="#000000" stroke="none" stroke-opacity="0" />
<polygon id="1111-A" points="720.75 334.25,734.25 334.25,734.25 360,721 360" fill="#000000" stroke="none" stroke-opacity="0" />
<polygon id="1111-B" points="734.5 334,759.5 334,759.5 360.25,734 360.25" fill="#000000" stroke="none" stroke-opacity="0" />
<polygon id="1112-A" points="721 386,721 412,733.75 412,733.75 385.5" fill="#000000" stroke="none" stroke-opacity="0" />
<polygon id="1112-B" points="734 386,760 386,760 412,733.5 412" fill="#000000" stroke="none" stroke-opacity="0" />
<polygon id="1113-A" points="721 412,721 437.75,733.75 437.75,733.75 412" fill="#000000" stroke="none" stroke-opacity="0" />
<polygon id="1113-B" points="734 412,734 437.25,759.75 437.25,759.75 411.75" fill="#000000" stroke="none" stroke-opacity="0" />
<polygon id="1114-A" points="721 437.75,721 453.75,734 453.75,734 437.25" fill="#000000" stroke="none" stroke-opacity="0" />
<polygon id="1114-B" points="734.25 437.25,734.25 453.75,760.25 453.75,760.25 436.75" fill="#000000" stroke="none" stroke-opacity="0" />
<polygon id="1115" points="734 453.75,760.25 453.75,760.25 466,759.5 470.25,757.75 474.5,755 478.75,751 483.25,743.5 487.5,734 489" fill="#000000" stroke="none" stroke-opacity="0" />
<polygon id="1116" points="734 453.75,734 489,707.75 489,707.75 454" fill="#000000" stroke="none" stroke-opacity="0" />
<polygon id="1118" points="655 458.75,683 458.75,683 489.75,655 489.75" fill="#000000" stroke="none" stroke-opacity="0" />
<polygon id="1119" points="630 454.25,647 454.25,647 489.5,630.25 489.5" fill="#000000" stroke="none" stroke-opacity="0" />
<polygon id="1120" points="630 454.25,604.25 454.25,604.25 489.5,630.25 489.5" fill="#000000" stroke="none" stroke-opacity="0" />
<polygon id="1121" points="604.25 454.25,578.5 454.25,578.5 489.5,604 489.5" fill="#000000" stroke="none" stroke-opacity="0" />
<polygon id="1122" points="578.5 454.25,552.5 454.25,552.5 490,578.75 490" fill="#000000" stroke="none" stroke-opacity="0" />
<polygon id="1123" points="552.5 454,527.25 454,527.25 489.75,552.5 489.75" fill="#000000" stroke="none" stroke-opacity="0" />
<polygon id="1124" points="527.5 454,500 454,500 489.5,527.25 489.5" fill="#000000" stroke="none" stroke-opacity="0" />
<polygon id="1125" points="500.25 453.75,473.25 453.75,473.25 468.25,466.5 468.25,466.5 489.25,500 489.25" fill="#000000" stroke="none" stroke-opacity="0" />
<polygon id="1126" points="436 411.75,467 411.75,467 424.75,449 424.75,448.75 421.5,436.25 421.25" fill="#000000" stroke="none" stroke-opacity="0" />
<polygon id="1127" points="397 450,423.25 450,423.25 489.75,396.75 489.75" fill="#000000" stroke="none" stroke-opacity="0" />
<polygon id="1128" points="397.25 450,397.25 411.75,423.25 411.75,423.25 450" fill="#000000" stroke="none" stroke-opacity="0" />
<polygon id="1129" points="436 359.5,475.5 359.5,475.5 385,436 385" fill="#000000" stroke="none" stroke-opacity="0" />
<polygon id="1130" points="436 359,436 333.5,475 333.5,475 359" fill="#000000" stroke="none" stroke-opacity="0" />
<polygon id="1131" points="475 333,475 308,436 308,436 333.5" fill="#000000" stroke="none" stroke-opacity="0" />
<polygon id="1132" points="436 308,436 290.5,476 290.5,476 308" fill="#000000" stroke="none" stroke-opacity="0" />
<polygon id="1133" points="436 264.5,453 264.5,453 282,436.5 282" fill="#000000" stroke="none" stroke-opacity="0" />
</svg>
