<?xml version="1.0" encoding="UTF-8" standalone="no"?>
<!-- Created with Inkscape (http://www.inkscape.org/) -->

<svg xmlns:dc="http://purl.org/dc/elements/1.1/" xmlns:cc="http://creativecommons.org/ns#" xmlns:rdf="http://www.w3.org/1999/02/22-rdf-syntax-ns#" xmlns:svg="http://www.w3.org/2000/svg" xmlns="http://www.w3.org/2000/svg" xmlns:xlink="http://www.w3.org/1999/xlink" xmlns:sodipodi="http://sodipodi.sourceforge.net/DTD/sodipodi-0.dtd" xmlns:inkscape="http://www.inkscape.org/namespaces/inkscape" width="770" height="530" id="svg2" version="1.1" inkscape:version="0.47pre4 " sodipodi:docname="test.svg" style="display:inline">
<defs id="defs4">
<inkscape:perspective sodipodi:type="inkscape:persp3d" inkscape:vp_x="0 : 526.18109 : 1" inkscape:vp_y="0 : 1000 : 0" inkscape:vp_z="744.09448 : 526.18109 : 1" inkscape:persp3d-origin="372.04724 : 350.78739 : 1" id="perspective10" />
<inkscape:perspective id="perspective2832" inkscape:persp3d-origin="0.5 : 0.33333333 : 1" inkscape:vp_z="1 : 0.5 : 1" inkscape:vp_y="0 : 1000 : 0" inkscape:vp_x="0 : 0.5 : 1" sodipodi:type="inkscape:persp3d" />
<script type="text/ecmascript" id="script6">
		var fdat="",sdat="";
		function onAreaOver(evt){
			var ele=evt.target; 
			fdat=ele.getAttribute('fill'); 
			sdat=ele.getAttribute('stroke');
			ele.setAttribute('fill','#006fb6');//多边形填充颜色
			ele.setAttribute('stroke','#006fb6');//stroke 多边形 边框颜色
			
		}
		function onAreaOut(evt){
			var ele=evt.target; 
			ele.setAttribute('fill',fdat);
			ele.setAttribute('stroke',sdat);
		}
		</script>
<symbol overflow="visible" id="symbol" style="overflow:visible">
<path d="m 626,156 2,-2 2,-4 0,-3 -1,-3 -4,-3 -6,-3 -5,-2 -4,-2 -4,8 -6,14" id="path9" style="fill:#000000;stroke:none" />
</symbol>
</defs>
<sodipodi:namedview id="base" pagecolor="#ffffff" bordercolor="#666666" borderopacity="1.0" inkscape:pageopacity="0.0" inkscape:pageshadow="2" inkscape:zoom="5.6" inkscape:cx="583.1007" inkscape:cy="273.63795" inkscape:document-units="px" inkscape:current-layer="svg2" showgrid="false" inkscape:window-width="1280" inkscape:window-height="740" inkscape:window-x="-4" inkscape:window-y="-4" inkscape:window-maximized="1" />
<metadata id="metadata7">
<rdf:RDF>
<cc:Work>
<dc:format>
image/svg+xml</dc:format>
<dc:type rdf:resource="http://purl.org/dc/dcmitype/StillImage" />
<dc:title>
</dc:title>
</cc:Work>
</rdf:RDF>
</metadata>
<image xlink:href="qdjimo_mall_4f.png" width="770" height="530" id="image2834" x="-485" y="255.93361" transform="translate(485,-255.9336)" inkscape:label="Layer 1" inkscape:groupmode="layer" style="display:inline" />
<polygon id="4001" points="19.25 233,83 233,83 257,145.25 257,145.25 426.25,121.25 426.25,121.25 486.25,43.5 486.25,33.5 483.25,26.5 477.75,22.5 472.5,18.75 461" fill="#000000" stroke="none" stroke-opacity="0" />
<polygon id="4002" points="145.25 257,221.25 257,221.25 242.75,233.75 242.75,233.75 256.75,296.5 256.75,298.25 385.75,321.75 386.25,322.5 410,305.75 410.5,305.5 422.5,322.25 423,322.25 486,121 486,121 426,145 426" fill="#000000" stroke="none" stroke-opacity="0" />
<polygon id="4003" points="473.5 256,473.5 386.5,448.5 386,448.5 409.5,465.5 409.5,465.5 485.5,725.5 485.5,735 484.5,743 480,747.5 474,751 466,751.5 458.5,751.5 234.5,688 234.5,688 259,650 257.5,650 233.5,624.5 233.5,624.5 240,599.5 240,599.5 232.5,574.5 232.5,574.5 256.5" fill="#000000" stroke="none" stroke-opacity="0" />
<polygon id="4004" points="41 207.5,107 207.5,107 178.5,77.5 135,64.5 144.5,63 143,59 146,55.75 142.75,41.5 154.5,44 157.75,41 160.5" fill="#000000" stroke="none" />
<polygon id="4005" points="77.5 135.25,107.25 178.75,133.75 162,160.5 146.5,135.75 98.5,120 107,120 108.75" fill="#000000" stroke="none" stroke-opacity="0" />
<polygon id="4006" points="137.5 101.5,160.5 146.75,190.75 132.25,217.75 121.5,199.5 74,186.25 78.75,162 89" fill="#000000" stroke="none" stroke-opacity="0" />
<polygon id="4007" points="199.5 74,232 63,246.5 111.25,217.75 121.25" fill="#000000" stroke="none" stroke-opacity="0" />
<polygon id="4008" points="232 63,252.75 57.5,259.25 85.25,265 84,270.25 105.25,246.75 111" fill="#000000" stroke="none" stroke-opacity="0" />
<polygon id="4009" points="266.5 53.75,277.25 103.75,305.5 98.25,338 94,333.75 40.5,331 42.5,299.5 46,299.75 48" fill="#000000" stroke="none" stroke-opacity="0" />
<polygon id="4010" points="333.75 40,338 94,377.5 92.5,431.75 93.75,437.25 40.25,425 33.5,407.5 28,393.25 25.75,373.25 25.75,354 30" fill="#000000" stroke="none" stroke-opacity="0" />
<polygon id="4011" points="437.25 39.75,432 93.75,462.5 98,493 103.75,504.75 54.25,471.25 47.5,471.5 46.25,440.75 42.75" fill="#000000" stroke="none" stroke-opacity="0" />
<polygon id="4012" points="518.25 57.5,511.25 85.5,505 83.75,500.5 105,523.75 112,538.75 63.25" fill="#000000" stroke="none" stroke-opacity="0" />
<polygon id="4013" points="539 63.25,571.25 74,553 121.75,523.75 111.75" fill="#000000" stroke="none" stroke-opacity="0" />
<polygon id="4014" points="571 74,600.5 85.75,633.5 101,609.75 146,583 133.5,553 121.5" fill="#000000" stroke="none" stroke-opacity="0" />
<polygon id="4015" points="635 98,610 146.25,628.25 156.5,663 178.5,693 135,649.75 108.5,650.5 107.25" fill="#000000" stroke="none" stroke-opacity="0" />
<polygon id="4016" points="693 135.25,663.25 177.75,663 225.25,687.25 225.25,688 235,751.5 235.25,751.25 208,730.25 207.5,730.25 161.5,726.5 157.25,729.25 154.75,713.75 143,711.75 146.25,707.25 143.25,706.25 145" fill="#000000" stroke="none" stroke-opacity="0" />
<polygon id="4017" points="180.5 185.25,194.75 213.75,157.75 213,152.25 208.25,152.75 202.5,156 198.25" fill="#000000" stroke="none" stroke-opacity="0" />
<polygon id="4018" points="180.5 185.5,206.5 173,213.25 190.25,189.25 202.25" fill="#000000" stroke="none" stroke-opacity="0" />
<polygon id="4019" points="189.25 202.25,201.5 196.25,209.25 213.5,194.5 213.5" fill="#000000" stroke="none" stroke-opacity="0" />
<polygon id="4020" points="201.5 196,213.5 190.25,223.5 214,209 213.5" fill="#000000" stroke="none" stroke-opacity="0" />
<polygon id="4021" points="206.5 173,232.25 162.75,241 186.25,216.25 196.5" fill="#000000" stroke="none" stroke-opacity="0" />
<polygon id="4022" points="216.25 196.25,223.5 214,238.25 214.5,228.5 191.25" fill="#000000" stroke="none" stroke-opacity="0" />
<polygon id="4023" points="229 191.5,241.25 186.5,251 213.5,238 214" fill="#000000" stroke="none" stroke-opacity="0" />
<polygon id="4024" points="232.5 163,259.25 154,267.75 183.25,243.75 192.25" fill="#000000" stroke="none" stroke-opacity="0" />
<polygon id="4025" points="244 192.5,250.75 213.5,265 214,255.75 187.5" fill="#000000" stroke="none" stroke-opacity="0" />
<polygon id="4026" points="256 187.75,265 213.75,277.5 213.75,267.5 183.25" fill="#000000" stroke="none" stroke-opacity="0" />
<polygon id="4027" points="259.5 154,279 148.75,281.5 158.25,262 163.75" fill="#000000" stroke="none" stroke-opacity="0" />
<polygon id="4028" points="277 182,286.25 211,300.5 207.25,293.5 177.5" fill="#000000" stroke="none" stroke-opacity="0" />
<polygon id="4029" points="293.25 177.5,306.75 174.75,312.25 204.5,300.25 207" fill="#000000" stroke="none" stroke-opacity="0" />
<polygon id="4030" points="295.75 145,314.5 141.25,320 172,302.5 175.5" fill="#000000" stroke="none" stroke-opacity="0" />
<polygon id="4031" points="320 171.5,324.25 202.25,312 204.75,306.75 174.5" fill="#000000" stroke="none" stroke-opacity="0" />
<polygon id="4032" points="314.75 141.25,342.75 138,346 168.5,320.5 172.25" fill="#000000" stroke="none" stroke-opacity="0" />
<polygon id="4033" points="320.25 172,333 170.5,336.5 200.75,324.5 202" fill="#000000" stroke="none" stroke-opacity="0" />
<polygon id="4034" points="333 170.25,346 169,348.5 199.75,336.25 200.5" fill="#000000" stroke="none" stroke-opacity="0" />
<polygon id="4035" points="343 138.25,371.25 136.25,372 167.25,346.25 169" fill="#000000" stroke="none" stroke-opacity="0" />
<polygon id="4036" points="346 168.75,359.25 167.75,361 198.75,348.25 199.5" fill="#000000" stroke="none" stroke-opacity="0" />
<polygon id="4037" points="359.25 168,372.5 167,373.25 198.5,360.5 198.5" fill="#000000" stroke="none" stroke-opacity="0" />
<polygon id="4038" points="399 136,428.25 138,425 168.5,398 167" fill="#000000" stroke="none" stroke-opacity="0" />
<polygon id="4039" points="398 167.25,411.5 167.75,410.25 199,397.5 198.5" fill="#000000" stroke="none" stroke-opacity="0" />
<polygon id="4040" points="411.5 167.75,425 168.25,422 200,410.25 198.75" fill="#000000" stroke="none" stroke-opacity="0" />
<polygon id="4041" points="428.25 138,456.5 141.75,450.75 172.25,425 168.75" fill="#000000" stroke="none" stroke-opacity="0" />
<polygon id="4042" points="425 168.75,438.25 170.75,434 201.25,422.25 199.75" fill="#000000" stroke="none" stroke-opacity="0" />
<polygon id="4043" points="438.5 170.75,451.25 172.25,446 203,434.25 201.25" fill="#000000" stroke="none" stroke-opacity="0" />
<polygon id="4044" points="456.75 141.75,474.75 145.25,467.75 175.25,451.25 172.25" fill="#000000" stroke="none" stroke-opacity="0" />
<polygon id="4045" points="451.75 172.5,464.25 174.75,458.5 205.25,446.25 202.5" fill="#000000" stroke="none" stroke-opacity="0" />
<polygon id="4046" points="464.25 174.75,476.75 177.5,470.25 207.5,458.75 204.75" fill="#000000" stroke="none" stroke-opacity="0" />
<polygon id="4047" points="491.25 148.75,489.5 158.25,508.5 163.75,511.25 153.75" fill="#000000" stroke="none" stroke-opacity="0" />
<polygon id="4048" points="476.75 177.75,493.5 182,484.25 210.75,470.5 207" fill="#000000" stroke="none" stroke-opacity="0" />
<polygon id="4049" points="511.25 154,502.25 183.5,527.5 192.25,538.5 163.25" fill="#000000" stroke="none" stroke-opacity="0" />
<polygon id="4050" points="502.5 183.75,493 213.25,506 213.5,515.25 188" fill="#000000" stroke="none" stroke-opacity="0" />
<polygon id="4051" points="515.5 188,505.75 213.25,520 213.25,527.25 192.25" fill="#000000" stroke="none" stroke-opacity="0" />
<polygon id="4052" points="538.5 163.25,564.75 173.5,554.25 196,529.75 186.25" fill="#000000" stroke="none" stroke-opacity="0" />
<polygon id="4053" points="530 186.25,520.25 213.25,532.5 213.75,542.25 191.5" fill="#000000" stroke="none" stroke-opacity="0" />
<polygon id="4054" points="542.25 191.25,532.5 213.75,546.5 214.25,554.5 196" fill="#000000" stroke="none" stroke-opacity="0" />
<polygon id="4055" points="565 173.5,557.25 190.25,581.5 202.75,590 186" fill="#000000" stroke="none" stroke-opacity="0" />
<polygon id="4056" points="557.5 190,546.5 214.5,561 214.25,569.5 196.5" fill="#000000" stroke="none" stroke-opacity="0" />
<polygon id="4057" points="569.75 196.5,561.25 213.75,575.25 214.5,581.75 202.75" fill="#000000" stroke="none" stroke-opacity="0" />
<polygon id="4058" points="590.25 186.25,575.5 214.25,611.75 214,617.75 209.25,618.25 204.25,616 199.5" fill="#000000" stroke="none" stroke-opacity="0" />
<polygon id="4059" points="121.25 233.5,134 233.75,134.25 257.25,120.75 257.25" fill="#000000" stroke="none" stroke-opacity="0" />
<polygon id="4060" points="134 233.5,134.25 256.75,146 257.5,145.75 233.5" fill="#000000" stroke="none" stroke-opacity="0" />
<polygon id="4061" points="146 233.5,157.75 233.75,158 256.75,146 257" fill="#000000" stroke="none" stroke-opacity="0" />
<polygon id="4062" points="157.75 233.5,158 257,170.75 257.25,170.75 233.75" fill="#000000" stroke="none" stroke-opacity="0" />
<polygon id="4063" points="170.5 233.5,183.25 233.75,183.25 257,170.75 257" fill="#000000" stroke="none" stroke-opacity="0" />
<polygon id="4064" points="183.5 233.5,196 233.25,196.25 257.25,183.25 257" fill="#000000" stroke="none" stroke-opacity="0" />
<polygon id="4065" points="196 233.5,208.5 233.5,208.75 257,196.25 256.75" fill="#000000" stroke="none" stroke-opacity="0" />
<polygon id="4066" points="208.75 233.25,221 233,221.25 257,208.5 257" fill="#000000" stroke="none" stroke-opacity="0" />
<polygon id="4067" points="234 232.75,246.5 233,246.75 256.75,234 256.75" fill="#000000" stroke="none" stroke-opacity="0" />
<polygon id="4068" points="246.75 233.5,260 233.25,259.75 257,246.75 256.75" fill="#000000" stroke="none" stroke-opacity="0" />
<polygon id="4069" points="260 233.25,272.75 233.5,273.25 257,260 256.5" fill="#000000" stroke="none" stroke-opacity="0" />
<polygon id="4070" points="309.5 233,335.25 232.5,335.25 245,309.75 245" fill="#000000" stroke="none" stroke-opacity="0" />
<polygon id="4071" points="310 244.75,310 256.75,335.25 257.5,335 244.75" fill="#000000" stroke="none" stroke-opacity="0" />
<polygon id="4072" points="319 267.5,335.25 267.25,335.25 284.25,318.5 284.25" fill="#000000" stroke="none" stroke-opacity="0" />
<polygon id="4073" points="297.25 293.25,334.75 292.75,334.75 308.5,297 308.75" fill="#000000" stroke="none" stroke-opacity="0" />
<polygon id="4074" points="297.25 308.75,335.25 308.5,335 322,297.75 322.25" fill="#000000" stroke="none" stroke-opacity="0" />
<polygon id="4075" points="297.75 322.25,335 321.75,335 334,297.25 334.25" fill="#000000" stroke="none" stroke-opacity="0" />
<polygon id="4076" points="297.25 334,334.75 334.25,335.5 347,297.25 347.25" fill="#000000" stroke="none" stroke-opacity="0" />
<polygon id="4077" points="297.75 347.25,335.25 346.75,335.5 360,297 360.25" fill="#000000" stroke="none" stroke-opacity="0" />
<polygon id="4078" points="297.75 360.25,335 360,335.25 372.25,297.5 372.75" fill="#000000" stroke="none" stroke-opacity="0" />
<polygon id="4079" points="297.75 372.75,335 372.25,335.75 386.25,298.25 386" fill="#000000" stroke="none" stroke-opacity="0" />
<polygon id="4080" points="305.25 410.25,305.25 423.25,322.25 423,322.5 418.75,334.75 418.75,335 409.75" fill="#000000" stroke="none" stroke-opacity="0" />
<polygon id="4081" points="347.5 410.25,423 410.25,423 490.25,347 490.25" fill="#000000" stroke="none" stroke-opacity="0" />
<polygon id="4082" points="436 410,436 419.25,448.5 419.25,448.75 423.5,465.25 423.5,465.25 409.75" fill="#000000" stroke="none" stroke-opacity="0" />
<polygon id="4083" points="436 385.5,436 372.5,472.75 372.5,472.75 386" fill="#000000" stroke="none" stroke-opacity="0" />
<polygon id="4084" points="436.5 372.75,436.5 359.5,473 359.5,473 372.75" fill="#000000" stroke="none" stroke-opacity="0" />
<polygon id="4085" points="436.25 359.5,436.25 346.5,473 346.5,473 359.75" fill="#000000" stroke="none" stroke-opacity="0" />
<polygon id="4086" points="436.75 346.5,436.75 333.5,472.75 333.5,472.75 346.5" fill="#000000" stroke="none" stroke-opacity="0" />
<polygon id="4087" points="472.75 333.75,472.75 321.25,436.75 321.25,436.75 333.25" fill="#000000" stroke="none" stroke-opacity="0" />
<polygon id="4088" points="436.75 321.25,436.75 308.5,473.5 308.5,473.5 321.5" fill="#000000" stroke="none" stroke-opacity="0" />
<polygon id="4089" points="473.5 308.75,437 308.75,437 293,473.5 293" fill="#000000" stroke="none" stroke-opacity="0" />
<polygon id="4090" points="435.5 267,451.75 267,451.75 283.75,436 283.75" fill="#000000" stroke="none" stroke-opacity="0" />
<polygon id="4091" points="436 256.75,436 244.5,461.25 244.5,461.25 257" fill="#000000" stroke="none" stroke-opacity="0" />
<polygon id="4092" points="436.25 244.5,436.25 232.75,461.25 232.75,461.25 244.75" fill="#000000" stroke="none" stroke-opacity="0" />
<polygon id="4093" points="498 233.25,498 256,510.75 256,510.75 232.75" fill="#000000" stroke="none" stroke-opacity="0" />
<polygon id="4094" points="510.75 233,510.75 255.75,524.25 255.75,524.25 232.75" fill="#000000" stroke="none" stroke-opacity="0" />
<polygon id="4095" points="524.25 233.25,537 233.25,537 256,524 256" fill="#000000" stroke="none" stroke-opacity="0" />
<polygon id="4096" points="537.25 233.25,549 233.25,549 256.25,537.25 256.25" fill="#000000" stroke="none" stroke-opacity="0" />
<polygon id="4097" points="549 233.5,562.25 233.5,562.25 257,548.75 257" fill="#000000" stroke="none" stroke-opacity="0" />
<polygon id="4098" points="562.5 233.5,575.5 233.5,575.5 256.75,561.75 256.75" fill="#000000" stroke="none" stroke-opacity="0" />

</svg>
