<?xml version="1.0" encoding="UTF-8" standalone="no"?>
<!-- Created with Inkscape (http://www.inkscape.org/) -->

<svg xmlns:dc="http://purl.org/dc/elements/1.1/" xmlns:cc="http://creativecommons.org/ns#" xmlns:rdf="http://www.w3.org/1999/02/22-rdf-syntax-ns#" xmlns:svg="http://www.w3.org/2000/svg" xmlns="http://www.w3.org/2000/svg" xmlns:xlink="http://www.w3.org/1999/xlink" xmlns:sodipodi="http://sodipodi.sourceforge.net/DTD/sodipodi-0.dtd" xmlns:inkscape="http://www.inkscape.org/namespaces/inkscape" width="770" height="410" id="svg2" version="1.1" inkscape:version="0.47pre4 " sodipodi:docname="test.svg" style="display:inline">
<defs id="defs4">
<inkscape:perspective sodipodi:type="inkscape:persp3d" inkscape:vp_x="0 : 526.18109 : 1" inkscape:vp_y="0 : 1000 : 0" inkscape:vp_z="744.09448 : 526.18109 : 1" inkscape:persp3d-origin="372.04724 : 350.78739 : 1" id="perspective10" />
<inkscape:perspective id="perspective2832" inkscape:persp3d-origin="0.5 : 0.33333333 : 1" inkscape:vp_z="1 : 0.5 : 1" inkscape:vp_y="0 : 1000 : 0" inkscape:vp_x="0 : 0.5 : 1" sodipodi:type="inkscape:persp3d" />
<script type="text/ecmascript" id="script6">
		var fdat="",sdat="";
		function onAreaOver(evt){
			var ele=evt.target; 
			fdat=ele.getAttribute('fill'); 
			sdat=ele.getAttribute('stroke');
			ele.setAttribute('fill','#006fb6');//多边形填充颜色
			ele.setAttribute('stroke','#006fb6');//stroke 多边形 边框颜色
			
		}
		function onAreaOut(evt){
			var ele=evt.target; 
			ele.setAttribute('fill',fdat);
			ele.setAttribute('stroke',sdat);
		}
		</script>
<symbol overflow="visible" id="symbol" style="overflow:visible">
<path d="m 626,156 2,-2 2,-4 0,-3 -1,-3 -4,-3 -6,-3 -5,-2 -4,-2 -4,8 -6,14" id="path9" style="fill:#000000;stroke:none" />
</symbol>
</defs>
<sodipodi:namedview id="base" pagecolor="#ffffff" bordercolor="#666666" borderopacity="1.0" inkscape:pageopacity="0.0" inkscape:pageshadow="2" inkscape:zoom="5.6" inkscape:cx="583.1007" inkscape:cy="273.63795" inkscape:document-units="px" inkscape:current-layer="svg2" showgrid="false" inkscape:window-width="1280" inkscape:window-height="740" inkscape:window-x="-4" inkscape:window-y="-4" inkscape:window-maximized="1" />
<metadata id="metadata7">
<rdf:RDF>
<cc:Work>
<dc:format>
				image/svg+xml</dc:format>
<dc:type rdf:resource="http://purl.org/dc/dcmitype/StillImage" />
<dc:title>
</dc:title>
</cc:Work>
</rdf:RDF>
</metadata>
<image xlink:href="zhengzhou_mall_b_3f.png" width="770" height="665" id="image2834" x="-485" y="255.93361" transform="translate(485,-255.9336)" inkscape:label="Layer 1" inkscape:groupmode="layer" style="display:inline" xmlns:inkscape="http://www.inkscape.org/namespaces/inkscape" xmlns:xlink="http://www.w3.org/1999/xlink" xmlns="http://www.w3.org/2000/svg" />
<polygon id="B3001" points="117.5 170.75,114 183,120.25 184.5,124 172.5" fill="#000000" stroke="none" stroke-opacity="0" />
<polygon id="B3002" points="131.75 175,127 187,120.25 184.5,124 172.5" fill="#000000" stroke="none" stroke-opacity="0" />
<polygon id="B3003" points="140.75 178.75,134.75 190.75,127.25 187,131.75 175" fill="#000000" stroke="none" stroke-opacity="0" />
<polygon id="B3004" points="140.75 178.75,134.75 190.75,142.75 194.25,149.25 183.5" fill="#000000" stroke="none" stroke-opacity="0" />
<polygon id="B3005" points="157.75 188.75,149.5 199.25,142.75 194.25,149.25 183.5" fill="#000000" stroke="none" stroke-opacity="0" />
<polygon id="B3006" points="157.75 188.75,149.5 199.25,156.75 204.75,165.5 194.75" fill="#000000" stroke="none" stroke-opacity="0" />
<polygon id="B3007" points="172.75 201.5,163.75 210.5,156.75 204.75,165.5 194.75" fill="#000000" stroke="none" stroke-opacity="0" />
<polygon id="B3008" points="172.75 201.5,163.75 210.5,169.5 216.75,179.25 208.5" fill="#000000" stroke="none" stroke-opacity="0" />
<polygon id="B3009" points="185.25 216,174.5 223.75,169.5 216.75,179.25 208.5" fill="#000000" stroke="none" stroke-opacity="0" />
<polygon id="B3010" points="185.25 216,174.5 223.75,179.75 231.25,190.75 224" fill="#000000" stroke="none" stroke-opacity="0" />
<polygon id="B3011" points="195.75 232.75,184.25 238.75,179.75 231.25,190.75 224" fill="#000000" stroke="none" stroke-opacity="0" />
<polygon id="B3012" points="195.75 232.75,184.25 238.75,187.5 247,200 243.25" fill="#000000" stroke="none" stroke-opacity="0" />
<polygon id="B3013" points="189.75 252,192 262.25,198.75 261.25,196.5 251" fill="#000000" stroke="none" stroke-opacity="0" />
<polygon id="B3014" points="194 271.75,192 262.25,198.75 261.25,200 271" fill="#000000" stroke="none" stroke-opacity="0" />
<polygon id="B3015" points="194.25 271.75,194.75 281.25,210.5 281,209.75 269.75" fill="#000000" stroke="none" stroke-opacity="0" xmlns="http://www.w3.org/2000/svg" />
<polygon id="B3016" points="195.25 281.25,194.5 290.5,210 291.25,210.5 281.25" fill="#000000" stroke="none" stroke-opacity="0" />
<polygon id="B3017" points="194.75 290.25,193.25 299.75,208.5 302.25,210 291.25" fill="#000000" stroke="none" stroke-opacity="0" />
<polygon id="B3018" points="193.5 299.75,191.5 308.75,205.75 313.25,208 302.25" fill="#000000" stroke="none" stroke-opacity="0" />
<polygon id="B3019" points="191.75 308.5,188.5 316.75,202.5 323.25,205.75 312.5" fill="#000000" stroke="none" stroke-opacity="0" />
<polygon id="B3020" points="189 316.5,184.75 326.25,198.75 333,202.5 323" fill="#000000" stroke="none" stroke-opacity="0" />
<polygon id="B3021" points="185 326,180.25 334.25,192.5 342,199 332.75" fill="#000000" stroke="none" stroke-opacity="0" xmlns="http://www.w3.org/2000/svg" />
<polygon id="B3022" points="176 339.75,168.5 349.25,174 353.5,181.25 344.25" fill="#000000" stroke="none" stroke-opacity="0" />
<polygon id="B3023" points="169 349.25,161.5 355.5,172 367.25,180 359.5" fill="#000000" stroke="none" stroke-opacity="0" />
<polygon id="B3024" points="155 361.5,176 391.5,165.5 398,154 404,142.75 408.75,129.5 412.25,117.25 414.75,112 378.5,120.5 376.75,130.75 374.5,139.75 370.5,148.25 366.5" fill="#000000" stroke="none" stroke-opacity="0" />
<polygon id="B3025" points="83 378.5,91.75 379,92 392,82.25 391.25" fill="#000000" stroke="none" stroke-opacity="0" />
<polygon id="B3026" points="83 378.75,82.25 391,72.75 389.75,74.25 377.5" fill="#000000" stroke="none" stroke-opacity="0" />
<polygon id="B3027" points="74 377.75,73 389.5,63 387.5,66 375.5" fill="#000000" stroke="none" stroke-opacity="0" />
<polygon id="B3028" points="58.5 372.75,53.5 385,63 387.5,66 375.5" fill="#000000" stroke="none" stroke-opacity="0" />
<polygon id="B3029" points="50.25 369.5,44.25 381.25,53.75 385,59 373" fill="#000000" stroke="none" stroke-opacity="0" />
<polygon id="B3030" points="42.25 365,35.75 376.5,44.25 381.25,50.25 369.25" fill="#000000" stroke="none" stroke-opacity="0" />
<polygon id="B3031" points="42.25 365,35.75 376.5,27.75 371,35.25 360.5" fill="#000000" stroke="none" stroke-opacity="0" />
<polygon id="B3032" points="28.25 355.25,19.75 365,27.75 371,35.25 360.5" fill="#000000" stroke="none" stroke-opacity="0" />
<polygon id="B3033" points="28.25 355.25,19.75 365,14.75 360.25,23.5 350.5" fill="#000000" stroke="none" stroke-opacity="0" />
<polygon id="B3034" points="17.75 345.75,9 355.5,14.75 360.25,23.5 350.5" fill="#000000" stroke="none" stroke-opacity="0" />
<polygon id="B3035" points="172.25 367,182 378,191 369.75,179.75 359.5" fill="#000000" stroke="none" stroke-opacity="0" />
<polygon id="B3036" points="179.5 359.25,187.25 349.75,198.25 360.5,190.75 369.75" fill="#000000" stroke="none" stroke-opacity="0" />
<polygon id="B3037" points="187.5 349.75,193.25 341.5,205.75 350,198 360.5" fill="#000000" stroke="none" stroke-opacity="0" />
<polygon id="B3038" points="193.5 341.25,205.5 350,211.75 339.25,199.25 332.75" fill="#000000" stroke="none" stroke-opacity="0" />
<polygon id="B3039" points="199.25 332.5,203 322.75,216 328,211.25 339" fill="#000000" stroke="none" stroke-opacity="0" />
<polygon id="B3040" points="203.25 322.75,206 312.75,220 316.25,215.75 328" fill="#000000" stroke="none" stroke-opacity="0" />
<polygon id="B3041" points="206.25 312.75,208.25 302,223.25 304.25,220 316.25" fill="#000000" stroke="none" stroke-opacity="0" />
<polygon id="B3042" points="208.75 302.25,210 291.25,225 292,223 304.5" fill="#000000" stroke="none" stroke-opacity="0" />
<polygon id="B3043" points="210 291.5,210.5 280.75,224.5 280.5,224.75 292.25" fill="#000000" stroke="none" stroke-opacity="0" />
<polygon id="B3044" points="210.75 280.75,210 269.75,224 267.75,224.5 280.75" fill="#000000" stroke="none" stroke-opacity="0" />
<polygon id="B3045" points="210 270,207.5 259.5,221.25 256,224 267.75" fill="#000000" stroke="none" stroke-opacity="0" />
<polygon id="B3046" points="208 259.5,204.75 249.5,218.25 244.75,221.25 256.5" fill="#000000" stroke="none" stroke-opacity="0" />
<polygon id="B3047" points="222.5 235.25,232 235.75,231.75 225,223 224.25" fill="#000000" stroke="none" stroke-opacity="0" />
<polygon id="B3048" points="223.5 224,225.5 218.5,229.5 213,235.5 217.5,232.25 224.75" fill="#000000" stroke="none" stroke-opacity="0" />
<polygon id="B3049" points="229.75 212.75,235.5 217.5,242.25 211,239 205,234 208" fill="#000000" stroke="none" stroke-opacity="0" />
<polygon id="B3050" points="238.75 204.75,242.5 211,253.5 208.25,252.75 201.75,246.5 202.25" fill="#000000" stroke="none" stroke-opacity="0" />
<polygon id="B3051" points="260 168.5,252 183.5,259.5 188,252.75 201.75,253.5 208,258.5 209,261 205.5,276.75 213.25,288.5 187.75,273.25 180.25,275.25 176.75" fill="#000000" stroke="none" stroke-opacity="0" />
<polygon id="B3052" points="288.5 187.75,276.75 213.25,283.75 217,295.75 191" fill="#000000" stroke="none" stroke-opacity="0" />
<polygon id="B3053" points="303.75 194.75,292.25 221,283.75 217,295.75 191" fill="#000000" stroke="none" stroke-opacity="0" />
<polygon id="B3054" points="311.5 197.5,300.5 224.25,292.25 220.75,303.5 194.5" fill="#000000" stroke="none" stroke-opacity="0" />
<polygon id="B3055" points="319.25 200.75,308.75 227.5,300.25 224,311.75 197.75" fill="#000000" stroke="none" stroke-opacity="0" />
<polygon id="B3056" points="326.75 203.25,316.5 230.5,308.25 227.25,319.25 200.5" fill="#000000" stroke="none" stroke-opacity="0" />
<polygon id="B3057" points="333.75 206.25,342.5 209.25,333.75 235.75,324.5 232.5" fill="#000000" stroke="none" stroke-opacity="0" />
<polygon id="B3058" points="343 209.5,333.75 235.75,341.5 239,351 212.25" fill="#000000" stroke="none" stroke-opacity="0" />
<polygon id="B3059" points="358.75 214.5,350.75 241.75,341.5 239,351 212.25" fill="#000000" stroke="none" stroke-opacity="0" />
<polygon id="B3060" points="358.5 214.5,350.75 241.75,359 244.5,366.75 216.5" fill="#000000" stroke="none" stroke-opacity="0" />
<polygon id="B3061" points="368.5 211.25,358.75 244.25,392.75 253,400.25 218" fill="#000000" stroke="none" stroke-opacity="0" xmlns="http://www.w3.org/2000/svg" />
<polygon id="B3062" points="399.25 225,392.75 252.75,401 255,407.5 226.75" fill="#000000" stroke="none" stroke-opacity="0" />
<polygon id="B3063" points="415.75 228.75,409.75 256.75,401 255,407.5 226.75" fill="#000000" stroke="none" stroke-opacity="0" />
<polygon id="B3064" points="415.75 228.75,409.75 256.75,418.75 258.75,424 230.5" fill="#000000" stroke="none" stroke-opacity="0" />
<polygon id="B3065" points="431.75 232,427.5 260,418.75 258.75,424 230.5" fill="#000000" stroke="none" stroke-opacity="0" />
<polygon id="B3066" points="431.5 232.25,427.5 260,436.5 261.75,440.25 233.5" fill="#000000" stroke="none" stroke-opacity="0" />
<polygon id="B3067" points="448.5 234.25,445.75 262.25,436.5 261.75,440.25 233.5" fill="#000000" stroke="none" stroke-opacity="0" />
<polygon id="B3068" points="449.5 227.25,445.75 262.25,455 263.25,464.25 263.75,479.75 264.25,482 229.75,473.25 229.5,464 229" fill="#000000" stroke="none" stroke-opacity="0" />
<polygon id="B3069" points="490 237.5,488.75 265.5,498 266.25,498.5 238.25" fill="#000000" stroke="none" stroke-opacity="0" />
<polygon id="B3070" points="498.25 238.25,507 238.75,506.5 266.25,498 265.75" fill="#000000" stroke="none" stroke-opacity="0" />
<polygon id="B3071" points="507 238.75,506.25 266,515.25 265.75,515.5 239" fill="#000000" stroke="none" stroke-opacity="0" />
<polygon id="B3072" points="515.5 238.5,524 238,523.5 266,514.75 265.5" fill="#000000" stroke="none" stroke-opacity="0" />
<polygon id="B3073" points="524 238,532.5 237.75,533 265.25,523.5 265.75" fill="#000000" stroke="none" stroke-opacity="0" />
<polygon id="B3074" points="532.25 237.5,540.75 237.25,541.75 264.25,533.25 265" fill="#000000" stroke="none" stroke-opacity="0" />
<polygon id="B3075" points="540.75 237.5,549.25 237,550.5 264,541.75 263.75" fill="#000000" stroke="none" stroke-opacity="0" />
<polygon id="B3076" points="549.25 237,550.75 263.75,559.5 263.25,557.75 236.25" fill="#000000" stroke="none" stroke-opacity="0" />
<polygon id="B3077" points="557.75 236.5,566.25 236,568.5 262.75,559 263" fill="#000000" stroke="none" stroke-opacity="0" />
<polygon id="B3078" points="566 236,578.25 234.5,588.75 234,599.5 233,599.5 260.5,586.75 260.75,568.25 262.25" fill="#000000" stroke="none" stroke-opacity="0" />
<polygon id="B3079" points="609.25 232.75,608.5 260.25,615.25 261.25,618.75 233.5" fill="#000000" stroke="none" stroke-opacity="0" />
<polygon id="B3080" points="618.5 233.5,627.5 235,623 262.25,615.25 260.75" fill="#000000" stroke="none" stroke-opacity="0" />
<polygon id="B3081" points="636.25 237,627.5 235,623.25 262,630.5 263.75" fill="#000000" stroke="none" stroke-opacity="0" />
<polygon id="B3082" points="636.25 237,645.25 239,637.25 265.25,630.5 263.75" fill="#000000" stroke="none" stroke-opacity="0" />
<polygon id="B3083" points="654.25 241.5,645.25 239,637.25 265.25,644.5 267.75" fill="#000000" stroke="none" stroke-opacity="0" />
<polygon id="B3084" points="654.25 241.5,662.75 244.25,651.75 270.5,644.5 267.75" fill="#000000" stroke="none" stroke-opacity="0" />
<polygon id="B3085" points="671.75 248.75,662.75 244.25,651.5 270.5,658.5 273.25" fill="#000000" stroke="none" stroke-opacity="0" />
<polygon id="B3086" points="671.75 248.75,679 252.75,665.25 276.75,658.5 273.25" fill="#000000" stroke="none" stroke-opacity="0" />
<polygon id="B3087" points="686.5 258,679 252.75,665.25 276.5,672 280.75" fill="#000000" stroke="none" stroke-opacity="0" />
<polygon id="B3088" points="686.25 257.75,693.75 263,677.75 284.5,672 280.25" fill="#000000" stroke="none" stroke-opacity="0" />
<polygon id="B3089" points="705.75 263,683.25 289.25,694.5 300.5,719 276.25" fill="#000000" stroke="none" stroke-opacity="0" />
<polygon id="B3090" points="714.5 280.5,720.75 287.5,699.25 306,694.25 300.25" fill="#000000" stroke="none" stroke-opacity="0" />
<polygon id="B3091" points="720.5 287.25,699.5 305.5,703.75 311.5,726.5 295" fill="#000000" stroke="none" stroke-opacity="0" />
<polygon id="B3092" points="726.5 294.75,704 311.25,708.25 317.5,731.5 302" fill="#000000" stroke="none" stroke-opacity="0" />
<polygon id="B3093" points="731.25 301.75,708.25 317.25,712.25 324.25,736.75 309.75" fill="#000000" stroke="none" stroke-opacity="0" />
<polygon id="B3094" points="736.75 309.75,712.5 324,716 330.75,741 317.5" fill="#000000" stroke="none" stroke-opacity="0" />
<polygon id="B3095" points="740.75 317.5,716.5 330.75,719.5 337.75,744.75 325.75" fill="#000000" stroke="none" stroke-opacity="0" />
<polygon id="B3096" points="750.75 323.25,719.75 337.5,724.5 351,757.75 341.25" fill="#000000" stroke="none" stroke-opacity="0" />
<polygon id="B3097" points="727 358.5,754 351.5,755.75 361.25,728.5 366" fill="#000000" stroke="none" stroke-opacity="0" />
<polygon id="B3098" points="728.75 365.75,729 373.25,757.5 370.25,755.75 361.25" fill="#000000" stroke="none" stroke-opacity="0" />
<polygon id="B3099" points="729.5 372.75,730 381,758 378.5,757.75 369.75" fill="#000000" stroke="none" stroke-opacity="0" />
<polygon id="B3100" points="730.5 380.75,758 378,758.25 388.25,730.25 388" fill="#000000" stroke="none" stroke-opacity="0" transform="matrix(1,0,0,0.998,0,0.647)" xmlns="http://www.w3.org/2000/svg" />
<polygon id="B3101" points="731 387.75,730.5 396,758.25 397.25,758 387.75" fill="#000000" stroke="none" stroke-opacity="0" />
<polygon id="B3102" points="731 396,730.25 402.75,757.75 406.5,758 396.5" fill="#000000" stroke="none" stroke-opacity="0" />
<polygon id="B3103" points="730.5 402.5,729.25 410.75,756.25 415,757.5 406.25" fill="#000000" stroke="none" stroke-opacity="0" />
<polygon id="B3104" points="729.75 410.5,727.75 417.75,753.75 424.5,756 415" fill="#000000" stroke="none" stroke-opacity="0" />
<polygon id="B3105" points="723.25 432,749.5 441.75,746.25 450,720.75 439.75" fill="#000000" stroke="none" stroke-opacity="0" />
<polygon id="B3106" points="720.75 439.25,717.5 446.5,742.25 458.25,746.25 450.25" fill="#000000" stroke="none" stroke-opacity="0" />
<polygon id="B3107" points="742 458.25,737.5 465.5,713.75 452.25,718.25 446" fill="#000000" stroke="none" stroke-opacity="0" />
<polygon id="B3108" points="714.5 452.25,710.25 459,732.75 473.75,737.5 465.5" fill="#000000" stroke="none" stroke-opacity="0" />
<polygon id="B3109" points="732.5 474,728 481.25,706 465,710.75 458.75" fill="#000000" stroke="none" stroke-opacity="0" />
<polygon id="B3110" points="706.75 465,700.75 471.5,721.75 489.25,728.25 480.75" fill="#000000" stroke="none" stroke-opacity="0" />
<polygon id="B3111" points="701 471.25,696.25 476.75,716 495.5,722 488.75" fill="#000000" stroke="none" stroke-opacity="0" />
<polygon id="B3112" points="696.75 476.75,716.5 495,709.75 501.75,691 482.25" fill="#000000" stroke="none" stroke-opacity="0" />
<polygon id="B3113" points="685 487.5,677 493.5,667.5 499.5,655.5 505.5,647 510,658.5 542.5,676.5 535,673.5 528.5,689.5 519.5,692.5 524.5,707 514" fill="#000000" stroke="none" stroke-opacity="0" />
<polygon id="B3114" points="647.5 510,655.5 536,647.5 539.5,639.5 512.5" fill="#000000" stroke="none" stroke-opacity="0" />
<polygon id="B3115" points="631.75 514,638.5 541,647.5 539.5,639.5 512.5" fill="#000000" stroke="none" stroke-opacity="0" xmlns="http://www.w3.org/2000/svg" />
<polygon id="B3116" points="624.5 516,630.5 544,639 540.5,631.5 514" fill="#000000" stroke="none" stroke-opacity="0" />
<polygon id="B3117" points="624.5 516,630.5 544,612 546.5,610.5 518" fill="#000000" stroke="none" stroke-opacity="0" />
<polygon id="B3118" points="603 518.5,603 545.5,594.5 546,594.5 518" fill="#000000" stroke="none" stroke-opacity="0" />
<polygon id="B3119" points="587 517,584.5 545,594.5 546,594.5 518" fill="#000000" stroke="none" stroke-opacity="0" />
<polygon id="B3120" points="586.5 517.5,584.5 545,575.5 544.5,580.5 516.5" fill="#000000" stroke="none" stroke-opacity="0" />
<polygon id="B3121" points="572 514.5,566.5 543,575.5 544.5,580.5 516.5" fill="#000000" stroke="none" stroke-opacity="0" />
<polygon id="B3122" points="572 514.5,566.5 543,557.5 541,565.5 512" fill="#000000" stroke="none" stroke-opacity="0" />
<polygon id="B3123" points="558.5 510,548 537.5,557.5 541,565.5 512" fill="#000000" stroke="none" stroke-opacity="0" />
<polygon id="B3124" points="559.5 510.5,548.5 537.5,540 534,552 507.5" fill="#000000" stroke="none" stroke-opacity="0" />
<polygon id="B3125" points="544.75 504.25,532 529.5,540 534,552 507.5" fill="#000000" stroke="none" stroke-opacity="0" xmlns="http://www.w3.org/2000/svg" />
<polygon id="B3126" points="538.75 501.25,524 526.5,532 530,545.25 504.75" fill="#000000" stroke="none" stroke-opacity="0" xmlns="http://www.w3.org/2000/svg" />
<polygon id="B3127" points="514.25 483.5,531.75 497.75,515.5 521.25,503.5 511.75,491 500.25,494.5 497.5,497.25 500.25" fill="#000000" stroke="none" stroke-opacity="0" />
<polygon id="B3128" points="508.75 478.25,500.75 486.25,506.5 491.25,514.25 483.5" fill="#000000" stroke="none" stroke-opacity="0" />
<polygon id="B3129" points="468.25 443.75,458.5 481.75,474 485.75,498.75 466.25,491.75 454.75,487.25 448.25,479.75 446.5" fill="#000000" stroke="none" stroke-opacity="0" xmlns="http://www.w3.org/2000/svg" />
<polygon id="B3130" points="479.5 446.5,448.5 438.25,450.5 428.5,482 437,487.25 448.25" fill="#000000" stroke="none" stroke-opacity="0" xmlns="http://www.w3.org/2000/svg" />
<polygon id="B3131" points="450.75 428.5,482 436.75,478.5 426.25,453 419.25" fill="#000000" stroke="none" stroke-opacity="0" />
<polygon id="B3132" points="453.25 419.75,455.75 409.5,475.75 414.75,478.5 426.25" fill="#000000" stroke="none" stroke-opacity="0" />
<polygon id="B3133" points="456 409.5,475.5 414.5,473 404,458.5 399.75" fill="#000000" stroke="none" stroke-opacity="0" xmlns="http://www.w3.org/2000/svg" />
<polygon id="B3134" points="458.5 399.75,473.25 405,472.75 393.75,461 389.75" fill="#000000" stroke="none" stroke-opacity="0" xmlns="http://www.w3.org/2000/svg" />
<polygon id="B3135" points="461 390,472.75 393.75,472.75 383.75,463.5 380.75" fill="#000000" stroke="none" stroke-opacity="0" xmlns="http://www.w3.org/2000/svg" />
<polygon id="B3136" points="463.5 380.75,466 371.5,474.5 374,472.75 383.75" fill="#000000" stroke="none" stroke-opacity="0" xmlns="http://www.w3.org/2000/svg" />
<polygon id="B3137" points="465.75 371.75,468 362.25,476.5 364.25,474.5 374" fill="#000000" stroke="none" stroke-opacity="0" xmlns="http://www.w3.org/2000/svg" />
<polygon id="B3138" points="473.5 342.5,475.75 333.25,484.5 335.75,481.75 345.25" fill="#000000" stroke="none" stroke-opacity="0" xmlns="http://www.w3.org/2000/svg" />
<polygon id="B3139" points="477.5 326,475.75 333.25,484.5 335.75,487 328.25" fill="#000000" stroke="none" stroke-opacity="0" xmlns="http://www.w3.org/2000/svg" />
<polygon id="B3140" points="477.75 326,483.25 309,492 311.5,487 328.25" fill="#000000" stroke="none" stroke-opacity="0" xmlns="http://www.w3.org/2000/svg" />
<polygon id="B3141" points="466.5 305,474.75 307.25,470.25 324.5,462.25 322" fill="#000000" stroke="none" stroke-opacity="0" xmlns="http://www.w3.org/2000/svg" />
<polygon id="B3142" points="457.75 303,466.5 305.25,462 322,453.25 319.75" fill="#000000" stroke="none" stroke-opacity="0" xmlns="http://www.w3.org/2000/svg" />
<polygon id="B3143" points="449.25 300.75,458 303.5,453.5 319.5,444.5 317.25" fill="#000000" stroke="none" stroke-opacity="0" xmlns="http://www.w3.org/2000/svg" />
<polygon id="B3144" points="449 301,444.5 317.25,436 315.25,440.5 298.5" fill="#000000" stroke="none" stroke-opacity="0" />
<polygon id="B3145" points="440.75 298.5,436 315.25,427.5 313,432.5 295.75" fill="#000000" stroke="none" stroke-opacity="0" xmlns="http://www.w3.org/2000/svg" />
<polygon id="B3146" points="432.75 296.25,421.25 292.75,416.75 309.5,427.75 313.25" fill="#000000" stroke="none" stroke-opacity="0" />
<polygon id="B3147" points="408 289.25,402.75 306.5,394 303.5,399.5 286.5" fill="#000000" stroke="none" stroke-opacity="0" />
<polygon id="B3148" points="399.25 286.5,394.25 303.25,387 301,391.5 284.5" fill="#000000" stroke="none" stroke-opacity="0" />
<polygon id="B3149" points="383 282,378.25 298.75,387 301,391.5 284.5" fill="#000000" stroke="none" stroke-opacity="0" />
<polygon id="B3150" points="383 282,378.25 298.75,369.75 296.5,373.75 279.75" fill="#000000" stroke="none" stroke-opacity="0" />
<polygon id="B3151" points="365.5 277.5,360.75 293.75,369.75 296.5,373.75 279.75" fill="#000000" stroke="none" stroke-opacity="0" />
<polygon id="B3152" points="365.5 277.75,360.75 293.75,352.25 292,358 275.25" fill="#000000" stroke="none" stroke-opacity="0" />
<polygon id="B3153" points="349 272.75,344.25 289.5,352.25 292,358 275.25" fill="#000000" stroke="none" stroke-opacity="0" />
<polygon id="B3154" points="349 272.75,344.25 289.25,336 286.75,340.5 270.75" fill="#000000" stroke="none" stroke-opacity="0" />
<polygon id="B3155" points="331.75 268.5,327.5 284.75,336 286.75,340.5 270.75" fill="#000000" stroke="none" stroke-opacity="0" />
<polygon id="B3156" points="331.75 268.5,327.5 284.75,319.5 282.75,323.25 266" fill="#000000" stroke="none" stroke-opacity="0" />
<polygon id="B3157" points="314.5 263.5,310.25 280.5,319.5 282.75,323.25 266" fill="#000000" stroke="none" stroke-opacity="0" />
<polygon id="B3158" points="314.5 263.5,310.25 280.5,301.75 277.75,306.25 261.25" fill="#000000" stroke="none" stroke-opacity="0" />
<polygon id="B3159" points="298.75 259,294 275.5,301.75 277.75,306.25 261.25" fill="#000000" stroke="none" stroke-opacity="0" />
<polygon id="B3160" points="289.75 256.5,285.5 272.5,294 275,298.75 259" fill="#000000" stroke="none" stroke-opacity="0" />
<polygon id="B3161" points="271 251.25,281.25 254.25,277 270.25,266.75 267.5" fill="#000000" stroke="none" stroke-opacity="0" xmlns="http://www.w3.org/2000/svg" />
<polygon id="B3162" points="266.75 267.25,276.75 269.75,274.5 280,263.75 277.25" fill="#000000" stroke="none" stroke-opacity="0" xmlns="http://www.w3.org/2000/svg" />
<polygon id="B3163" points="264 277,261.75 285.5,272 288,274.25 279.25" fill="#000000" stroke="none" stroke-opacity="0" xmlns="http://www.w3.org/2000/svg" />
<polygon id="B3164" points="257.25 304.25,267.25 306.25,264.5 315.75,254.75 313.75" fill="#000000" stroke="none" stroke-opacity="0" xmlns="http://www.w3.org/2000/svg" />
<polygon id="B3165" points="254.75 313.5,264.5 315.75,262 325.75,252.25 323" fill="#000000" stroke="none" stroke-opacity="0" xmlns="http://www.w3.org/2000/svg" />
<polygon id="B3166" points="253 323.5,250.25 332.5,268 338.25,270.75 328.25" fill="#000000" stroke="none" stroke-opacity="0" xmlns="http://www.w3.org/2000/svg" />
<polygon id="B3167" points="250.5 332.25,247.25 342,264.75 347.25,267.75 338" fill="#000000" stroke="none" stroke-opacity="0" xmlns="http://www.w3.org/2000/svg" />
<polygon id="B3168" points="247.5 342,245 351.75,262.25 357.25,264.75 347.25" fill="#000000" stroke="none" stroke-opacity="0" xmlns="http://www.w3.org/2000/svg" />
<polygon id="B3169" points="245.25 352,242.5 360.75,259.5 366.25,262.25 357.25" fill="#000000" stroke="none" stroke-opacity="0" xmlns="http://www.w3.org/2000/svg" />
<polygon id="B3170" points="243 360.5,239.5 370.75,257 375.5,259.5 365.75" fill="#000000" stroke="none" stroke-opacity="0" xmlns="http://www.w3.org/2000/svg" />
<polygon id="B3171" points="239.75 370.25,236.5 379.75,254 384.75,257 375.25" fill="#000000" stroke="none" stroke-opacity="0" xmlns="http://www.w3.org/2000/svg" />
<polygon id="B3172" points="236.75 379.5,234 389.5,252 394,254 384.75" fill="#000000" stroke="none" stroke-opacity="0" xmlns="http://www.w3.org/2000/svg" />
<polygon id="B3173" points="234.25 389.25,252 394.25,249.5 403.25,232.25 399.5" fill="#000000" stroke="none" stroke-opacity="0" xmlns="http://www.w3.org/2000/svg" />
<polygon id="B3174" points="213.75 403.25,238.5 410.75,231.25 439.75,226.75 438.25,225.5 442.75,209 437.75,214 418,210.25 417.25" fill="#000000" stroke="none" stroke-opacity="0" xmlns="http://www.w3.org/2000/svg" />
<polygon id="B3175" points="205 401.25,214 403.5,209.25 420,200.25 417.25" fill="#000000" stroke="none" stroke-opacity="0" xmlns="http://www.w3.org/2000/svg" />
<polygon id="B3176" points="204.75 401.5,196 399.5,192.25 415,201 417" fill="#000000" stroke="none" stroke-opacity="0" xmlns="http://www.w3.org/2000/svg" />
<polygon id="B3177" points="196 399.5,192.5 415,184.5 413.25,188.25 397.5" fill="#000000" stroke="none" stroke-opacity="0" xmlns="http://www.w3.org/2000/svg" />
<polygon id="B3178" points="179.75 395.25,175.75 411.25,184.5 413.25,188.25 397.5" fill="#000000" stroke="none" stroke-opacity="0" xmlns="http://www.w3.org/2000/svg" />
<polygon id="B3179" points="179.75 395.25,175.75 411.25,172.75 410.25,165 398.75,175.75 391.25" fill="#000000" stroke="none" stroke-opacity="0" xmlns="http://www.w3.org/2000/svg" />
<polygon id="B3180" points="530.25 323,544 336,538.25 343,522.75 331.5" fill="#000000" stroke="none" stroke-opacity="0" transform="matrix(1,0,0,1,-1.75,-1.5)" xmlns="http://www.w3.org/2000/svg" />
<polygon id="B3181" points="523.25 331,516.5 341.25,533 350.75,538.5 343" fill="#000000" stroke="none" stroke-opacity="0" transform="matrix(0.999,-0.053,0.053,0.999,-19.56803,27.18494)" xmlns="http://www.w3.org/2000/svg" />
<polygon id="B3182" points="517 340.75,512 351,529.25 358.75,533.5 350.5" fill="#000000" stroke="none" stroke-opacity="0" transform="matrix(1,0,0,1,-1.75,-0.75)" xmlns="http://www.w3.org/2000/svg" />
<polygon id="B3183" points="512 350.75,507.75 362.5,525.5 368,529 358.5" fill="#000000" stroke="none" stroke-opacity="0" transform="matrix(1,0,0,1,-1.75,-0.5)" xmlns="http://www.w3.org/2000/svg" />
<polygon id="B3184" points="508 362,506 373.25,523.75 376.5,526 367.5" fill="#000000" stroke="none" stroke-opacity="0" transform="matrix(1,0,0,1,-2.25,-0.25)" xmlns="http://www.w3.org/2000/svg" />
<polygon id="B3185" points="506.25 373,504.5 385,523.25 385.5,524.25 376" fill="#000000" stroke="none" stroke-opacity="0" transform="matrix(1,0,0,1,-2.25,-0.25)" xmlns="http://www.w3.org/2000/svg" />
<polygon id="B3186" points="504.75 385,504.75 396,523.75 395.5,523 385.25" fill="#000000" stroke="none" stroke-opacity="0" transform="matrix(1,0,0,1,-2.25,-0.25)" xmlns="http://www.w3.org/2000/svg" />
<polygon id="B3187" points="504.75 396,505.75 407.25,524.5 404.25,524 395" fill="#000000" stroke="none" stroke-opacity="0" transform="matrix(1,0,0,1,-2.25,-0.25)" xmlns="http://www.w3.org/2000/svg" />
<polygon id="B3188" points="505.75 407,508 418.5,526.25 412.25,524.5 404" fill="#000000" stroke="none" stroke-opacity="0" transform="matrix(1,0,0,1,-2.25,-0.25)" xmlns="http://www.w3.org/2000/svg" />
<polygon id="B3189" points="508.5 418.25,512.75 428.5,530.75 420.75,526.25 411.75" fill="#000000" stroke="none" stroke-opacity="0" transform="matrix(1,0,0,1,-2.25,-0.25)" xmlns="http://www.w3.org/2000/svg" />
<polygon id="B3190" points="530 456.25,544.5 442.75,551 449,538.5 464.25" fill="#000000" stroke="none" stroke-opacity="0" />
<polygon id="B3191" points="550.75 449,558.5 454.5,547.5 470.75,538.5 464" fill="#000000" stroke="none" stroke-opacity="0" />
<polygon id="B3192" points="559.25 454.75,567.25 459.75,558.25 477.5,548 471.25" fill="#000000" stroke="none" stroke-opacity="0" transform="matrix(1,0,0,1,-0.5,-0.25)" xmlns="http://www.w3.org/2000/svg" />
<polygon id="B3193" points="563 467.25,572.75 472,567.75 482,558 477" fill="#000000" stroke="none" stroke-opacity="0" xmlns="http://www.w3.org/2000/svg" />
<polygon id="B3194" points="572.75 471.75,582 474.25,580 485,568 482" fill="#000000" stroke="none" stroke-opacity="0" xmlns="http://www.w3.org/2000/svg" />
<polygon id="B3195" points="581.75 474.75,579.75 485,590.25 486,591 475.25" fill="#000000" stroke="none" stroke-opacity="0" xmlns="http://www.w3.org/2000/svg" />
<polygon id="B3196" points="591 475.25,606.25 475.5,606.25 487,590.25 486" fill="#000000" stroke="none" stroke-opacity="0" xmlns="http://www.w3.org/2000/svg" />
<polygon id="B3197" points="612.75 475.75,623.75 475,624.75 484.75,613.25 485.75" fill="#000000" stroke="none" stroke-opacity="0" xmlns="http://www.w3.org/2000/svg" />
<polygon id="B3198" points="611.25 467,612.5 475.75,623 474.75,624.75 484.5,634.25 481,628.75 463,620.25 465.5" fill="#000000" stroke="none" stroke-opacity="0" xmlns="http://www.w3.org/2000/svg" />
<polygon id="B3199" points="652.25 449.5,645 455,655 470.25,664 463.5" fill="#000000" stroke="none" stroke-opacity="0" />
<polygon id="B3200" points="652.25 449.5,664 463.75,673 455.25,659.5 443" fill="#000000" stroke="none" stroke-opacity="0" xmlns="http://www.w3.org/2000/svg" />
<polygon id="B3201" points="659.75 443,665 435.75,680.5 446.5,673 455" fill="#000000" stroke="none" stroke-opacity="0" />
<polygon id="B3202" points="665 435.75,671.5 427.5,687.25 436.5,680.25 446" fill="#000000" stroke="none" stroke-opacity="0" />
<polygon id="B3203" points="671.75 427.5,674 419.5,692 427.5,687 436.25" fill="#000000" stroke="none" stroke-opacity="0" />
<polygon id="B3204" points="674.25 419.75,677.5 410.75,696 416,692 427.75" fill="#000000" stroke="none" stroke-opacity="0" />
<polygon id="B3205" points="677.75 411,679.25 401.75,698.25 405.25,695.5 416.25" fill="#000000" stroke="none" stroke-opacity="0" />
<polygon id="B3206" points="679.5 401.75,680 393,699.25 394.25,698.25 405.25" fill="#000000" stroke="none" stroke-opacity="0" xmlns="http://www.w3.org/2000/svg" />
<polygon id="B3207" points="680.25 393,680.25 383.25,699.25 382.75,699.25 394.25" fill="#000000" stroke="none" stroke-opacity="0" />
<polygon id="B3208" points="680.25 383.5,679 374.5,697.75 371.5,699.5 383" fill="#000000" stroke="none" stroke-opacity="0" />
<polygon id="B3209" points="686.5 373.25,682.5 359.25,692.75 355,695 361.75,696.5 367.25,697.5 371.5" fill="#000000" stroke="none" stroke-opacity="0" />
<polygon id="B3210" points="672.25 321.75,659.25 333.75,665 340.25,679.5 330" fill="#000000" stroke="none" stroke-opacity="0" />
<polygon id="B3211" points="672.25 321.75,659.25 334.25,652 327.75,664 314" fill="#000000" stroke="none" stroke-opacity="0" />
<polygon id="B3212" points="654.5 307.25,664 314,652.25 327.75,644.75 322" fill="#000000" stroke="none" stroke-opacity="0" />
<polygon id="B3213" points="644.75 301.5,654.5 307.25,645 321.75,637 316.75" fill="#000000" stroke="none" stroke-opacity="0" />
<polygon id="B3214" points="634.5 296.75,630.5 307,640 311,644.75 302" fill="#000000" stroke="none" stroke-opacity="0" />
<polygon id="B3215" points="629.25 295.5,625.5 306.25,611.25 302,612.25 292" fill="#000000" stroke="none" stroke-opacity="0" />
<polygon id="B3216" points="612 292,601.5 291,601 311.25,610 311.5" fill="#000000" stroke="none" stroke-opacity="0" />
<polygon id="B3217" points="601.75 291.25,590 292.25,591.5 311,601 311" fill="#000000" stroke="none" stroke-opacity="0" />
<polygon id="B3218" points="590.25 292.25,578.25 294.75,583 312.5,591.75 310.75" fill="#000000" stroke="none" stroke-opacity="0" />
<polygon id="B3219" points="578.5 294.75,567.75 298.25,574.25 315.5,583.5 312.25" fill="#000000" stroke="none" stroke-opacity="0" />
<polygon id="B3220" points="568 298,557.25 303,565.75 318.75,574.25 315" fill="#000000" stroke="none" stroke-opacity="0" />
<polygon id="B3221" points="557.5 303,547 308.5,557.75 324.5,565.75 318.5" fill="#000000" stroke="none" stroke-opacity="0" />
<polygon id="B3222" points="448 437.5,468 443.5,452.5 504.5,435 500,439 494,231.5 439.5,241 401,250 404,275.5 308.75,257.5 304.25,262.5 285.5,272 288,277.25 270,477.5 326.5" fill="#000000" stroke="none" stroke-opacity="0" xmlns="http://www.w3.org/2000/svg" />
<polygon id="B3223" points="537 329.5,553 316.5,557.5 324,566.25 318.5,577 314,591.5 311,609.5 311,609.75 316.25,624.5 319.75,633.5 323.25,637.25 317,644.75 321.5,654.75 329.75,665 339.75,671.25 335.5,676.75 345.25,680.5 353.75,671 358.25,676 375,679.5 374.25,680.5 383.25,680.25 392.75,679.25 401.25,677.75 410.25,674.25 420,671.25 427.5,664.75 436,659.25 443,652.5 449,645.5 455,649.25 461.75,636.25 469,631 455.75,626.25 457.25,624.25 451.5,628.5 463,619.75 465.75,611.25 467.25,611.5 474.75,606.5 479,591.5 475.25,581.25 474,572.25 471.5,563 467,567 459.5,558.5 454.5,551.25 449.25,544.25 443.25,537.75 448.75,531.75 442,543.75 433,534.25 418.75,525 421.5,522.75 410.25,521 396,521.25 381.5,522.75 370.5,526 361.25,528.25 355.25,532.5 347,538 340.25,542.25 334.75" fill="#000000" stroke="none" stroke-opacity="0" />

</svg>
