<?xml version="1.0" encoding="UTF-8" standalone="no"?>
<!-- Created with Inkscape (http://www.inkscape.org/) -->

<svg xmlns:dc="http://purl.org/dc/elements/1.1/" xmlns:cc="http://creativecommons.org/ns#" xmlns:rdf="http://www.w3.org/1999/02/22-rdf-syntax-ns#" xmlns:svg="http://www.w3.org/2000/svg" xmlns="http://www.w3.org/2000/svg" xmlns:xlink="http://www.w3.org/1999/xlink" xmlns:sodipodi="http://sodipodi.sourceforge.net/DTD/sodipodi-0.dtd" xmlns:inkscape="http://www.inkscape.org/namespaces/inkscape" width="770" height="410" id="svg2" version="1.1" inkscape:version="0.47pre4 " sodipodi:docname="test.svg" style="display:inline">
<defs id="defs4">
<inkscape:perspective sodipodi:type="inkscape:persp3d" inkscape:vp_x="0 : 526.18109 : 1" inkscape:vp_y="0 : 1000 : 0" inkscape:vp_z="744.09448 : 526.18109 : 1" inkscape:persp3d-origin="372.04724 : 350.78739 : 1" id="perspective10" />
<inkscape:perspective id="perspective2832" inkscape:persp3d-origin="0.5 : 0.33333333 : 1" inkscape:vp_z="1 : 0.5 : 1" inkscape:vp_y="0 : 1000 : 0" inkscape:vp_x="0 : 0.5 : 1" sodipodi:type="inkscape:persp3d" />
<script type="text/ecmascript" id="script6">
		var fdat="",sdat="";
		function onAreaOver(evt){
			var ele=evt.target; 
			fdat=ele.getAttribute('fill'); 
			sdat=ele.getAttribute('stroke');
			ele.setAttribute('fill','#006fb6');//多边形填充颜色
			ele.setAttribute('stroke','#006fb6');//stroke 多边形 边框颜色
			
		}
		function onAreaOut(evt){
			var ele=evt.target; 
			ele.setAttribute('fill',fdat);
			ele.setAttribute('stroke',sdat);
		}
		</script>
<symbol overflow="visible" id="symbol" style="overflow:visible">
<path d="m 626,156 2,-2 2,-4 0,-3 -1,-3 -4,-3 -6,-3 -5,-2 -4,-2 -4,8 -6,14" id="path9" style="fill:#000000;stroke:none" />
</symbol>
</defs>
<sodipodi:namedview id="base" pagecolor="#ffffff" bordercolor="#666666" borderopacity="1.0" inkscape:pageopacity="0.0" inkscape:pageshadow="2" inkscape:zoom="5.6" inkscape:cx="583.1007" inkscape:cy="273.63795" inkscape:document-units="px" inkscape:current-layer="svg2" showgrid="false" inkscape:window-width="1280" inkscape:window-height="740" inkscape:window-x="-4" inkscape:window-y="-4" inkscape:window-maximized="1" />
<metadata id="metadata7">
<rdf:RDF>
<cc:Work>
<dc:format>
				image/svg+xml</dc:format>
<dc:type rdf:resource="http://purl.org/dc/dcmitype/StillImage" />
<dc:title>
</dc:title>
</cc:Work>
</rdf:RDF>
</metadata>
<image xlink:href="zhengzhou_mall_b_1f.png" width="770" height="665" id="image2834" x="-485" y="255.93361" transform="translate(485,-255.9336)" inkscape:label="Layer 1" inkscape:groupmode="layer" style="display:inline" />
<polygon id="B1001" points="404.875 95.25,414.375 93,417.0869 103.2195,406.25 104.5" fill="#000000" stroke="none" stroke-opacity="0" transform="matrix(2.13,0,0,2.13,-758.7683,29.22392)" />
<polygon id="B1002" points="409.875 103.625,421.6479 102.7805,422.125 108.75,410 109" fill="#000000" stroke="none" stroke-opacity="0" transform="matrix(2.13,0,0,2.13,-758.7683,29.22392)" />
<polygon id="B1003" points="410.125 108.875,410 113.625,421.875 114.375,422.125 108.75" fill="#000000" stroke="none" stroke-opacity="0" transform="matrix(2.13,0,0,2.13,-758.7683,29.22392)" />
<polygon id="B1004" points="410.25 113.375,409.75 118.625,421.5 119.875,421.875 114.375" fill="#000000" stroke="none" stroke-opacity="0" transform="matrix(2.13,0,0,2.13,-758.7683,29.22392)" />
<polygon id="B1005" points="409.75 118.625,408.75 123,420.25 126.375,421.375 120" fill="#000000" stroke="none" stroke-opacity="0" transform="matrix(2.13,0,0,2.13,-758.7683,29.22392)" />
<polygon id="B1006" points="407 127.375,408.75 122.875,420.125 126.25,418.125 131.75" fill="#000000" stroke="none" stroke-opacity="0" transform="matrix(2.13,0,0,2.13,-758.7683,29.22392)" />
<polygon id="B1007" points="403.125 135.75,409.375 139.75,405.625 144.375,399.75 140.125" fill="#000000" stroke="none" stroke-opacity="0" transform="matrix(2.13,0,0,2.13,-756.7697,25.47317)" />
<polygon id="B1008" points="399.75 139.875,405.5 144.25,402.375 148.5,397.375 143" fill="#000000" stroke="none" stroke-opacity="0" transform="matrix(2.13,0,0,2.13,-756.7697,25.47317)" />
<polygon id="B1009" points="393.375 146.625,401.125 156.125,405.75 151.75,397.375 143.125" fill="#000000" stroke="none" stroke-opacity="0" transform="matrix(2.13,0,0,2.13,-756.7697,25.47317)" />
<polygon id="B1010" points="396.875 159.25,401.25 156.125,393.375 146.75,389.25 149.625" fill="#000000" stroke="none" stroke-opacity="0" transform="matrix(2.13,0,0,2.13,-756.7697,25.47317)" />
<polygon id="B1011" points="396.75 159,392.125 162.375,385.875 152,389.25 149.625" fill="#000000" stroke="none" stroke-opacity="0" transform="matrix(2.13,0,0,2.13,-756.7697,25.47317)" />
<polygon id="B1012" points="386 152,392.125 162.25,386.375 165.25,381.375 154.375" fill="#000000" stroke="none" stroke-opacity="0" transform="matrix(2.13,0,0,2.13,-756.7697,25.47317)" />
<polygon id="B1013" points="381.5 154.5,386.375 165.25,380.75 167.375,377.375 156" fill="#000000" stroke="none" stroke-opacity="0" transform="matrix(2.13,0,0,2.13,-756.7697,25.47317)" />
<polygon id="B1014" points="367.375 154.75,376.5 153,380.75 167.25,375.25 168.875,369.25 169.75" fill="#000000" stroke="none" stroke-opacity="0" transform="matrix(2.13,0,0,2.13,-756.7697,25.47317)" />
<polygon id="B1015" points="369.25 169.75,370.75 182.25,377.875 181,375.625 168.625" fill="#000000" stroke="none" stroke-opacity="0" transform="matrix(2.13,0,0,2.13,-756.7697,25.47317)" />
<polygon id="B1016" points="355.625 148.75,357.625 161,364.625 158.625,360.75 147.375" fill="#000000" stroke="none" stroke-opacity="0" transform="matrix(2.13,0,0,2.13,-714.162,68.08053)" />
<polygon id="B1017" points="366.5 145,371.125 156,364.625 158.625,360.75 147.375" fill="#000000" stroke="none" stroke-opacity="0" transform="matrix(2.13,0,0,2.13,-714.162,68.08053)" />
<polygon id="B1018" points="371.875 142.375,377.625 152.625,371 155.875,366.5 145.25" fill="#000000" stroke="none" stroke-opacity="0" transform="matrix(2.13,0,0,2.13,-714.162,68.08053)" />
<polygon id="B1019" points="376.75 139,383.75 148.875,377.375 152.625,371.875 142.5" fill="#000000" stroke="none" stroke-opacity="0" transform="matrix(2.13,0,0,2.13,-714.162,68.08053)" />
<polygon id="B1020" points="381.25 136,389 144.625,383.75 148.875,377 139.25" fill="#000000" stroke="none" stroke-opacity="0" transform="matrix(2.13,0,0,2.13,-714.162,68.08053)" />
<polygon id="B1021" points="381.375 135.875,389 144.625,394.25 139.5,385.875 131.75" fill="#000000" stroke="none" stroke-opacity="0" transform="matrix(2.13,0,0,2.13,-714.162,68.08053)" />
<polygon id="B1022" points="405.875 151.625,414.125 159.5,419.25 154.125,409.875 147" fill="#000000" stroke="none" stroke-opacity="0" transform="matrix(2.13,0,0,2.13,-757.2698,25.22284)" />
<polygon id="B1023" points="410.125 147,413.375 142.5,423.375 148.375,419.25 154" fill="#000000" stroke="none" stroke-opacity="0" transform="matrix(2.13,0,0,2.13,-757.2698,25.22284)" />
<polygon id="B1024" points="418.25 131.625,428.75 136.375,431.875 129.75,420.375 125.875" fill="#000000" stroke="none" stroke-opacity="0" transform="matrix(2.13,0,0,2.13,-758.7683,29.22392)" />
<polygon id="B1025" points="420.375 125.875,421.5 120,433.25 122,433 125.625,431.875 129.875" fill="#000000" stroke="none" stroke-opacity="0" transform="matrix(2.13,0,0,2.13,-758.7683,29.22392)" />
<polygon id="B1026" points="421.5 120,421.875 114.5,434.125 114.75,434.125 118.875,433.25 122.125" fill="#000000" stroke="none" stroke-opacity="0" transform="matrix(2.13,0,0,2.13,-758.7683,29.22392)" />
<polygon id="B1027" points="422 114.625,422.125 108.125,430.625 108.125,430.5 114.625" fill="#000000" stroke="none" stroke-opacity="0" transform="matrix(2.13,0,0,2.13,-758.7683,29.22392)" />
<polygon id="B1028" points="422.125 108.125,430.625 108,430.125 102.125,421.875 102.25" fill="#000000" stroke="none" stroke-opacity="0" transform="matrix(2.13,0,0,2.13,-758.7683,29.22392)" />
<polygon id="B1029" points="422.125 102.25,421.25 96,429 95,430.125 102.125" fill="#000000" stroke="none" stroke-opacity="0" transform="matrix(2.13,0,0,2.13,-758.7683,29.22392)" />
<polygon id="B1030" points="421.25 96.125,420.375 90.125,427.375 88.625,429 95.5" fill="#000000" stroke="none" stroke-opacity="0" transform="matrix(2.13,0,0,2.13,-758.7683,29.22392)" />
<polygon id="B1031" points="197.5 132,214.25 141,203 162.25,194.5 158,196.75 153.75,188.25 149.75" fill="#000000" stroke="none" stroke-opacity="0" />
<polygon id="B1167" points="194.5 158,203.25 162.25,194.5 179.75,188.75 169.25" fill="#000000" stroke="none" stroke-opacity="0" />
<polygon id="B1032" points="212.75 144.5,203 162.25,212 167.5,221.25 149" fill="#000000" stroke="none" stroke-opacity="0" />
<polygon id="B1033" points="221.5 149,212.25 167,221.5 171.5,229.75 153.25" fill="#000000" stroke="none" stroke-opacity="0" />
<polygon id="B1034" points="229.75 153.75,239 158,230 176.25,222 171.5" fill="#000000" stroke="none" stroke-opacity="0" />
<polygon id="B1035" points="238.75 158,230 175.5,239 179.75,247.75 161.5" fill="#000000" stroke="none" stroke-opacity="0" />
<polygon id="B1036" points="247.5 161.75,256.25 165.5,247.75 184,239.25 179.25" fill="#000000" stroke="none" stroke-opacity="0" />
<polygon id="B1037" points="256.25 165.5,264.75 168.5,256.5 187.5,248 183.75" fill="#000000" stroke="none" stroke-opacity="0" />
<polygon id="B1038" points="264.5 168.75,273.25 171.5,265.5 190.75,257 187.25" fill="#000000" stroke="none" stroke-opacity="0" />
<polygon id="B1039" points="281.75 175.25,275 194,284.75 198,291.25 178.75" fill="#000000" stroke="none" stroke-opacity="0" />
<polygon id="B1040" points="291.5 178.75,300.25 181.75,294 200.25,285 197.75" fill="#000000" stroke="none" stroke-opacity="0" />
<polygon id="B1041" points="300.75 181.5,309.5 184.25,303.75 203,294.25 200" fill="#000000" stroke="none" stroke-opacity="0" />
<polygon id="B1042" points="309.5 184.75,319 186.75,313 205,304 202.5" fill="#000000" stroke="none" stroke-opacity="0" />
<polygon id="B1043" points="320.5 180,307 224.75,317.75 227.75,328.25 230.5,346.25 234.75,356.25 189" fill="#000000" stroke="none" stroke-opacity="0" />
<polygon id="B1044" points="354.75 196.25,364.75 198.5,360 217.5,350.25 215.5" fill="#000000" stroke="none" stroke-opacity="0" />
<polygon id="B1045" points="401 205.5,412 207,409.75 225.5,398.75 224" fill="#000000" stroke="none" stroke-opacity="0" />
<polygon id="B1046" points="412.5 199.25,407 245.25,421.5 247.5,446.25 249.5,448.75 202.25" fill="#000000" stroke="none" stroke-opacity="0" />
<polygon id="B1047" points="457.75 210,467.75 210,467.5 230.25,457 229.75" fill="#000000" stroke="none" stroke-opacity="0" />
<polygon id="B1048" points="467.75 210.25,476.75 210.75,476.75 230.25,467.5 230" fill="#000000" stroke="none" stroke-opacity="0" />
<polygon id="B1049" points="476.75 211,486.5 211.25,486.25 230,477 229.75" fill="#000000" stroke="none" stroke-opacity="0" />
<polygon id="B1050" points="486.5 211,496 211.75,496.25 230.5,486.5 229.5" fill="#000000" stroke="none" stroke-opacity="0" />
<polygon id="B1051" points="496.25 212,505.75 211.5,505.75 229.75,496.5 229.5" fill="#000000" stroke="none" stroke-opacity="0" />
<polygon id="B1052" points="524.75 209.5,534 209,535.25 229,525.5 229" fill="#000000" stroke="none" stroke-opacity="0" />
<polygon id="B1053" points="534 209.25,543.75 207.75,545 227.5,535 228.5" fill="#000000" stroke="none" stroke-opacity="0" />
<polygon id="B1054" points="543.5 208,552.75 207,554.75 226.5,544.5 227" fill="#000000" stroke="none" stroke-opacity="0" />
<polygon id="B1055" points="553 207.25,562.5 206.5,565 225.25,554.5 226" fill="#000000" stroke="none" stroke-opacity="0" />
<polygon id="B1056" points="562.5 206.25,572.75 205.5,573.5 225,564.5 225" fill="#000000" stroke="none" stroke-opacity="0" />
<polygon id="B1057" points="572.5 205.5,583.25 205.25,582.75 224,573.5 224.25" fill="#000000" stroke="none" stroke-opacity="0" />
<polygon id="B1058" points="594.75 204.25,603.25 205.25,601.75 225.25,592 224.75,592.75 210.75,594.75 210.75" fill="#000000" stroke="none" stroke-opacity="0" />
<polygon id="B1059" points="603.5 205.5,599.25 245.25,609.25 246.5,620.25 249,629.75 252.25,643.5 214.5,631.25 210.75,622.5 208.5,612.75 206.75" fill="#000000" stroke="none" stroke-opacity="0" />
<polygon id="B1060" points="643.25 215,654.25 218.5,645.75 237.25,637.25 233" fill="#000000" stroke="none" stroke-opacity="0" />
<polygon id="B1061" points="654.25 218.5,663.25 222.75,653.75 240.5,645.25 236.5" fill="#000000" stroke="none" stroke-opacity="0" />
<polygon id="B1062" points="663.5 223.25,671.5 228,662 245.25,654 240" fill="#000000" stroke="none" stroke-opacity="0" />
<polygon id="B1063" points="671.5 228,680.5 233.5,669.75 249.75,661.75 244.75" fill="#000000" stroke="none" stroke-opacity="0" />
<polygon id="B1064" points="680.75 233.75,688.5 239.5,677.75 255,669.5 249.25" fill="#000000" stroke="none" stroke-opacity="0" />
<polygon id="B1065" points="702 239.75,676.5 270.25,684.5 277.25,695 287.75,719.75 267.5,712.5 259.25,718 254,710 246.25" fill="#000000" stroke="none" stroke-opacity="0" />
<polygon id="B1066" points="742 301,714.75 315.5,719.25 328.25,723.25 339,761.25 327.75,757.75 317.75,753.25 307.75,747.5 310" fill="#000000" stroke="none" stroke-opacity="0" />
<polygon id="B1067" points="737.75 344.25,756.75 339.75,759.5 349.75,739.5 353.25" fill="#000000" stroke="none" stroke-opacity="0" />
<polygon id="B1068" points="740 353,741 363,761.25 360.25,759.25 349" fill="#000000" stroke="none" stroke-opacity="0" />
<polygon id="B1069" points="741.5 362.75,761 360.5,761.5 370,742 371" fill="#000000" stroke="none" stroke-opacity="0" />
<polygon id="B1070" points="742.25 371,761.25 370.25,761.5 381,742 381.25" fill="#000000" stroke="none" stroke-opacity="0" />
<polygon id="B1071" points="742.5 381,742 390,761 391.75,761.5 380.75" fill="#000000" stroke="none" stroke-opacity="0" />
<polygon id="B1072" points="722 388.5,761.25 391.75,761 397.25,761 403,760.5 407.25,760 411.5,720.75 405,721.75 400.75,722.75 394.75" fill="#000000" stroke="none" stroke-opacity="0" />
<polygon id="B1073" points="760 411.5,757.5 421.75,738.75 416.5,741 408.25" fill="#000000" stroke="none" stroke-opacity="0" />
<polygon id="B1074" points="751.25 441.5,748.25 451,729 443.5,732.5 435" fill="#000000" stroke="none" stroke-opacity="0" />
<polygon id="B1075" points="711.5 436.25,748 450.5,743.25 461.25,739 469.5,704.75 450" fill="#000000" stroke="none" stroke-opacity="0" />
<polygon id="B1076" points="721.5 459.75,716.75 468,734 478.25,739.25 469.25" fill="#000000" stroke="none" stroke-opacity="0" />
<polygon id="B1077" points="717 468,734 478.5,728.25 487,712 475.5" fill="#000000" stroke="none" stroke-opacity="0" />
<polygon id="B1078" points="712.25 475.5,728.5 486.75,721.25 495.25,706.25 482.5" fill="#000000" stroke="none" stroke-opacity="0" />
<polygon id="B1079" points="706.25 482.25,721.5 495.5,714.25 502.75,700 489.75" fill="#000000" stroke="none" stroke-opacity="0" />
<polygon id="B1080" points="700.25 490,714 503,707 510.25,694 496.25" fill="#000000" stroke="none" stroke-opacity="0" />
<polygon id="B1081" points="686.25 502.5,703.75 522.75,698.5 528.25,688 536,672 512.5" fill="#000000" stroke="none" stroke-opacity="0" />
<polygon id="B1082" points="651 512,636 518.5,649 556,658 552,668.5 546" fill="#000000" stroke="none" stroke-opacity="0" />
<polygon id="B1083" points="646.5 548,637 551.5,630.5 532,640 528.5" fill="#000000" stroke="none" stroke-opacity="0" />
<polygon id="B1084" points="631 532,622 534.5,627 554.5,637 551.5" fill="#000000" stroke="none" stroke-opacity="0" />
<polygon id="B1085" points="623 535,613.5 537,616.5 556.5,628 554" fill="#000000" stroke="none" stroke-opacity="0" />
<polygon id="B1086" points="614 537,604 538.5,606.5 558,617 556" fill="#000000" stroke="none" stroke-opacity="0" />
<polygon id="B1087" points="595 540,604.5 538.5,606.5 558,595.5 559" fill="#000000" stroke="none" stroke-opacity="0" />
<polygon id="B1088" points="586 540.5,586 559.5,576 559.5,576 540" fill="#000000" stroke="none" stroke-opacity="0" />
<polygon id="B1089" points="576 540,567 539,565.5 558.5,576 559" fill="#000000" stroke="none" stroke-opacity="0" />
<polygon id="B1090" points="538.5 512,548.5 516,560 518.5,569 520.5,566 558.5,557 557,544 554.5,535 552,525 549.5" fill="#000000" stroke="none" stroke-opacity="0" />
<polygon id="B1091" points="522.5 527,532 531,524.5 548.5,515.5 545.5" fill="#000000" stroke="none" stroke-opacity="0" />
<polygon id="B1092" points="514 523.5,522.5 527,516 545.5,505.5 541" fill="#000000" stroke="none" stroke-opacity="0" />
<polygon id="B1093" points="506.5 520,515 524,505.5 541,496.5 537" fill="#000000" stroke="none" stroke-opacity="0" />
<polygon id="B1094" points="498 514.5,487.5 531.5,479 525,491 509.5" fill="#000000" stroke="none" stroke-opacity="0" />
<polygon id="B1095" points="479 525,471.5 519.5,483.5 504,490.5 510" fill="#000000" stroke="none" stroke-opacity="0" />
<polygon id="B1096" points="483.5 504,476.75 498.25,466.5 508.5,463.5 504.5,459.5 508,468.5 517,477 507,479.5 509.5" fill="#000000" stroke="none" stroke-opacity="0" />
<polygon id="B1097" points="459 477.5,468.5 470.5,474 477,464 484.5" fill="#000000" stroke="none" stroke-opacity="0" />
<polygon id="B1098" points="464.5 485,470.5 491.5,479 483,473.5 477" fill="#000000" stroke="none" stroke-opacity="0" />
<polygon id="B1099" points="478.5 483,485 489.5,477.5 498,471 491.5" fill="#000000" stroke="none" stroke-opacity="0" />
<polygon id="B1100" points="484.5 490,490.5 494.5,484 503.5,477 498.5" fill="#000000" stroke="none" stroke-opacity="0" />
<polygon id="B1101" points="490 494.5,498 500,491 510.5,484 503.5" fill="#000000" stroke="none" stroke-opacity="0" />
<polygon id="B1102" points="498 501,506 505.5,499 514.5,491.5 510" fill="#000000" stroke="none" stroke-opacity="0" />
<polygon id="B1103" points="506 506,499 514.5,506.5 520,513 509" fill="#000000" stroke="none" stroke-opacity="0" />
<polygon id="B1104" points="512.5 509.5,506.5 520,515.5 523.5,521 512.5" fill="#000000" stroke="none" stroke-opacity="0" />
<polygon id="B1105" points="523.5 506,515.5 523.5,524 527.5,531 510.5" fill="#000000" stroke="none" stroke-opacity="0" />
<polygon id="B1106" points="531 510.5,523.5 527,533 530.5,539.5 513.5" fill="#000000" stroke="none" stroke-opacity="0" />
<polygon id="B1107" points="569 520.5,567.5 539,576.5 540,576.5 520.5" fill="#000000" stroke="none" stroke-opacity="0" />
<polygon id="B1108" points="586.5 521,586 540,576.5 540,576.5 520.5" fill="#000000" stroke="none" stroke-opacity="0" />
<polygon id="B1109" points="587 528,586.5 539.5,595 540,595 528" fill="#000000" stroke="none" stroke-opacity="0" />
<polygon id="B1110" points="595 528.5,594.5 540,603.5 538.5,601.5 527" fill="#000000" stroke="none" stroke-opacity="0" />
<polygon id="B1111" points="602 527.5,610.5 526,613 537,603.5 538.5" fill="#000000" stroke="none" stroke-opacity="0" />
<polygon id="B1112" points="610.5 526.5,619 524.5,621.5 534.5,612.5 537" fill="#000000" stroke="none" stroke-opacity="0" />
<polygon id="B1113" points="619 525,621 534.5,630.5 532.5,627.5 522" fill="#000000" stroke="none" stroke-opacity="0" />
<polygon id="B1114" points="627.5 522.5,636 519,640 527.5,631 532" fill="#000000" stroke="none" stroke-opacity="0" />
<polygon id="B1115" points="661.25 497,672.25 512.5,679.25 507.5,667.75 492" fill="#000000" stroke="none" stroke-opacity="0" />
<polygon id="B1116" points="668 492,673.75 486.75,686.25 502.5,679.25 507.25" fill="#000000" stroke="none" stroke-opacity="0" />
<polygon id="B1117" points="673.75 486.75,680.25 481.75,693.5 496,686 502.25" fill="#000000" stroke="none" stroke-opacity="0" />
<polygon id="B1118" points="680.25 481.75,686 475.75,700.5 489.5,693.5 496" fill="#000000" stroke="none" stroke-opacity="0" />
<polygon id="B1119" points="686 476,691.5 469.75,706.5 482.25,700.25 489.25" fill="#000000" stroke="none" stroke-opacity="0" />
<polygon id="B1120" points="691.75 469.75,706.25 482,712.25 475.25,695.75 463.5" fill="#000000" stroke="none" stroke-opacity="0" />
<polygon id="B1121" points="696.25 463.5,700.75 457.25,717 467.75,712 475" fill="#000000" stroke="none" stroke-opacity="0" />
<polygon id="B1122" points="701 457.5,716.75 467.5,721.25 459.5,704.75 449.75" fill="#000000" stroke="none" stroke-opacity="0" />
<polygon id="B1123" points="712 436.5,729.25 443,732.75 434.75,714.75 427.75" fill="#000000" stroke="none" stroke-opacity="0" />
<polygon id="B1124" points="715 427.75,717.5 420.75,735.75 425.75,732.5 434.5" fill="#000000" stroke="none" stroke-opacity="0" />
<polygon id="B1125" points="717.75 420.75,735.5 425.5,738.25 417,719.75 412.75" fill="#000000" stroke="none" stroke-opacity="0" />
<polygon id="B1126" points="720 412.75,721.5 405,741 407.75,738.25 417" fill="#000000" stroke="none" stroke-opacity="0" />
<polygon id="B1127" points="722 388.5,722.25 380.75,742.25 380.75,742 390.25" fill="#000000" stroke="none" stroke-opacity="0" />
<polygon id="B1128" points="722.25 372.25,742 371.75,742 380.75,722.5 380.75" fill="#000000" stroke="none" stroke-opacity="0" />
<polygon id="B1129" points="729.25 371.75,729 362.75,741.5 362.75,742 371.5" fill="#000000" stroke="none" stroke-opacity="0" />
<polygon id="B1130" points="729.5 362.75,728 355.5,739.75 353,741 362.25" fill="#000000" stroke="none" stroke-opacity="0" />
<polygon id="B1131" points="728.5 355.25,726.5 347,737.5 344.5,739.5 352.75" fill="#000000" stroke="none" stroke-opacity="0" />
<polygon id="B1132" points="723.75 338.75,726.5 347.25,737.25 344.5,734.75 335.25" fill="#000000" stroke="none" stroke-opacity="0" />
<polygon id="B1166" points="203.25 162.75,211.75 167.5,203.5 185.5,194.25 180.5" fill="#000000" stroke="none" stroke-opacity="0" />
<polygon id="B1165" points="212 167.25,221.5 171.5,212.5 189.75,203.25 185.5" fill="#000000" stroke="none" stroke-opacity="0" />
<polygon id="B1164" points="221.75 171.25,230.25 175.75,221.5 194.25,212.75 189.5" fill="#000000" stroke="none" stroke-opacity="0" />
<polygon id="B1163" points="230.25 175.75,239.25 179.75,230.5 198.75,221.25 194" fill="#000000" stroke="none" stroke-opacity="0" />
<polygon id="B1162" points="239.5 180,248 184,240.25 202,231 198.25" fill="#000000" stroke="none" stroke-opacity="0" />
<polygon id="B1161" points="248 184,257 187.5,249.5 206.25,240 201.75" fill="#000000" stroke="none" stroke-opacity="0" />
<polygon id="B1160" points="257 187.25,265.5 191,258 209.5,249.5 206.25" fill="#000000" stroke="none" stroke-opacity="0" />
<polygon id="B1159" points="265.75 191,275 194.25,267.75 213,258 209.25" fill="#000000" stroke="none" stroke-opacity="0" />
<polygon id="B1158" points="275 194,285 198.25,278 216.75,267.75 213" fill="#000000" stroke="none" stroke-opacity="0" />
<polygon id="B1157" points="285 198.25,294.25 200.25,287.75 220,278.25 216.75" fill="#000000" stroke="none" stroke-opacity="0" />
<polygon id="B1156" points="294.25 200,303.75 202.75,297.5 222.75,287.75 219.5" fill="#000000" stroke="none" stroke-opacity="0" />
<polygon id="B1155" points="303.75 202.5,312.5 205.25,307.25 225,297.5 222.5" fill="#000000" stroke="none" stroke-opacity="0" />
<polygon id="B1154" points="350.5 215.25,360 217.75,356 236.75,346.75 234.25" fill="#000000" stroke="none" stroke-opacity="0" />
<polygon id="B1153" points="398.5 224.25,396.25 243,407.25 244.75,409.5 225.25" fill="#000000" stroke="none" stroke-opacity="0" />
<polygon id="B1152" points="447.75 229.25,457 229.75,456.5 249.5,446.25 248.75" fill="#000000" stroke="none" stroke-opacity="0" />
<polygon id="B1151" points="457 230,467 230,466.25 249.75,456.75 249" fill="#000000" stroke="none" stroke-opacity="0" />
<polygon id="B1150" points="466.75 230,476.5 230.5,476.25 249.25,466.25 249.25" fill="#000000" stroke="none" stroke-opacity="0" />
<polygon id="B1149" points="476.5 230.25,486.25 229.75,486.5 249.5,476.25 249.25" fill="#000000" stroke="none" stroke-opacity="0" />
<polygon id="B1148" points="486.5 229.75,496 229.25,496.75 249.5,486.25 249.25" fill="#000000" stroke="none" stroke-opacity="0" />
<polygon id="B1147" points="496.25 229.75,506 229.5,507 249.5,496.25 249.25" fill="#000000" stroke="none" stroke-opacity="0" />
<polygon id="B1146" points="525.75 229,535.75 228.25,537 248,526 249" fill="#000000" stroke="none" stroke-opacity="0" />
<polygon id="B1145" points="536 228.25,545 227,546.75 246.75,537 247.75" fill="#000000" stroke="none" stroke-opacity="0" />
<polygon id="B1144" points="545.25 227,554.75 226,556.25 245.75,546.25 246.25" fill="#000000" stroke="none" stroke-opacity="0" />
<polygon id="B1143" points="554.75 226,565 225,567 244.75,555.75 245.75" fill="#000000" stroke="none" stroke-opacity="0" />
<polygon id="B1142" points="566.75 244.5,575.25 244.5,574 224.75,564.75 225.75" fill="#000000" stroke="none" stroke-opacity="0" />
<polygon id="B1141" points="574 224.5,583.25 224,582.75 244.25,575.75 244" fill="#000000" stroke="none" stroke-opacity="0" />
<polygon id="B1140" points="583.5 224,592 224.5,591 244,582.5 244" fill="#000000" stroke="none" stroke-opacity="0" />
<polygon id="B1139" points="592 224.75,601 225,599.25 244.5,590.75 243.75" fill="#000000" stroke="none" stroke-opacity="0" />
<polygon id="B1138" points="637.25 233,629.25 251.75,637.75 255.25,645.5 237.5" fill="#000000" stroke="none" stroke-opacity="0" />
<polygon id="B1137" points="646.25 237,638 254.5,645.5 258.75,654.25 241.5" fill="#000000" stroke="none" stroke-opacity="0" />
<polygon id="B1136" points="654.5 241,662 245.25,655.5 255.75,649 251.5" fill="#000000" stroke="none" stroke-opacity="0" />
<polygon id="B1135" points="655.5 255.75,662.75 260.5,670 250,662 245.25" fill="#000000" stroke="none" stroke-opacity="0" />
<polygon id="B1134" points="662.75 260.5,669.75 265.5,678 255.25,670 249.75" fill="#000000" stroke="none" stroke-opacity="0" />
<polygon id="B1133" points="676 258,683 263,676.5 270.25,670.25 265" fill="#000000" stroke="none" stroke-opacity="0" />
<polygon id="B1245" points="144.25 398.5,173.25 406.25,165 439,160.5 438,159.75 441.5,140 436.25,147 411.25,141.25 409.75" fill="#000000" stroke="none" stroke-opacity="0" />
<polygon id="B1246" points="144.25 398.5,135.25 396.5,130 413.5,139.5 416.5" fill="#000000" stroke="none" stroke-opacity="0" />
<polygon id="B1247" points="135.5 396.5,129.25 395.25,125.5 397.5,123 401.75,123 407,124.75 411.25,130 413.25" fill="#000000" stroke="none" stroke-opacity="0" />
<polygon id="B1248" points="154.5 401.25,157.25 390.75,176.25 395.75,173 406" fill="#000000" stroke="none" stroke-opacity="0" />
<polygon id="B1249" points="157.25 390.75,160 379.5,179.25 385,176 395.75" fill="#000000" stroke="none" stroke-opacity="0" />
<polygon id="B1250" points="160 379.5,163.25 369.25,182.5 374,179 384.75" fill="#000000" stroke="none" stroke-opacity="0" />
<polygon id="B1251" points="163.75 369.25,166 358.5,185.25 363.75,182.25 374" fill="#000000" stroke="none" stroke-opacity="0" />
<polygon id="B1252" points="166.5 358.5,168.75 347.75,188.5 353,185 363.5" fill="#000000" stroke="none" stroke-opacity="0" />
<polygon id="B1253" points="175 326.25,194 331.75,197.25 320.75,177.75 315.5" fill="#000000" stroke="none" stroke-opacity="0" />
<polygon id="B1254" points="177.75 315.5,181.25 305,200 310.25,197.25 320.5" fill="#000000" stroke="none" stroke-opacity="0" />
<polygon id="B1255" points="181.5 305.25,183.75 294.75,203.25 299.75,199.75 310.25" fill="#000000" stroke="none" stroke-opacity="0" />
<polygon id="B1256" points="184 294.75,187.25 283.75,205.75 289,203 299.75" fill="#000000" stroke="none" stroke-opacity="0" />
<polygon id="B1257" points="187.25 284,190 273,209 278,205.5 288.75" fill="#000000" stroke="none" stroke-opacity="0" />
<polygon id="B1258" points="190.5 273,193.5 262.25,211.5 267.5,208.75 278" fill="#000000" stroke="none" stroke-opacity="0" />
<polygon id="B1259" points="193.5 262.25,195.75 253,214.25 258.5,211.25 267.5" fill="#000000" stroke="none" stroke-opacity="0" />
<polygon id="B1260" points="196 253,199 242.75,217.5 247.25,214 258.25" fill="#000000" stroke="none" stroke-opacity="0" />
<polygon id="B1168" points="203.75 224.5,198.25 242.75,207.75 245.5,212.75 227.25" fill="#000000" stroke="none" stroke-opacity="0" />
<polygon id="B1169" points="212.75 227.5,222.75 230.25,217 247.5,207.5 244.75" fill="#000000" stroke="none" stroke-opacity="0" />
<polygon id="B1170" points="232.5 232.75,241.5 235,235.5 253,227 250" fill="#000000" stroke="none" stroke-opacity="0" />
<polygon id="B1171" points="279 245.5,273.5 264.25,283.75 267.5,288.75 248" fill="#000000" stroke="none" stroke-opacity="0" />
<polygon id="B1172" points="288.5 248,283.5 267.25,293 269.75,298.5 250.75" fill="#000000" stroke="none" stroke-opacity="0" />
<polygon id="B1173" points="298.5 250.75,307.5 253.75,302.5 272.25,293.25 269.25" fill="#000000" stroke="none" stroke-opacity="0" />
<polygon id="B1174" points="307.5 254,317.25 256.5,311.75 275,302.75 272" fill="#000000" stroke="none" stroke-opacity="0" />
<polygon id="B1175" points="317 256.75,326.25 259.5,321.5 277.75,311.75 274.5" fill="#000000" stroke="none" stroke-opacity="0" />
<polygon id="B1176" points="326.5 259,336.5 261.5,331 280.75,321 277.5" fill="#000000" stroke="none" stroke-opacity="0" />
<polygon id="B1177" points="336.5 261.75,345.75 264.5,340 282.75,331.5 280" fill="#000000" stroke="none" stroke-opacity="0" />
<polygon id="B1178" points="345.75 264.25,355 267,349.75 285.25,340.25 282.5" fill="#000000" stroke="none" stroke-opacity="0" />
<polygon id="B1179" points="355 267.25,364.75 270,359 287.75,350.25 284.5" fill="#000000" stroke="none" stroke-opacity="0" />
<polygon id="B1180" points="431.25 287.5,439.75 290,434.5 308.75,426 306" fill="#000000" stroke="none" stroke-opacity="0" />
<polygon id="B1181" points="450 292.25,459.75 295.25,455.5 314,445.25 310.75" fill="#000000" stroke="none" stroke-opacity="0" />
<polygon id="B1182" points="459.75 295.25,454 313.5,462.5 316.75,469.5 298.5" fill="#000000" stroke="none" stroke-opacity="0" />
<polygon id="B1223" points="445.5 310.75,462.75 316.75,457.75 325.5,442.25 320.5" fill="#000000" stroke="none" stroke-opacity="0" />
<polygon id="B1224" points="442.75 320.75,440 330.25,454.75 334.25,458 325" fill="#000000" stroke="none" stroke-opacity="0" />
<polygon id="B1225" points="440.25 330,437 340.75,451 345,454.75 334" fill="#000000" stroke="none" stroke-opacity="0" />
<polygon id="B1226" points="437 340.75,451 345.25,448.5 355.75,433.75 351.75" fill="#000000" stroke="none" stroke-opacity="0" />
<polygon id="B1227" points="433.5 351.25,448.25 355.5,447 367.5,430.5 362" fill="#000000" stroke="none" stroke-opacity="0" />
<polygon id="B1228" points="446.75 367.5,446.5 378.25,427 372.75,430.75 362" fill="#000000" stroke="none" stroke-opacity="0" />
<polygon id="B1229" points="446.25 378.25,446.5 390.25,424.5 383.75,427.25 372.5" fill="#000000" stroke="none" stroke-opacity="0" />
<polygon id="B1230" points="424.75 383.75,422 394,448 401.5,446.75 390" fill="#000000" stroke="none" stroke-opacity="0" />
<polygon id="B1231" points="422.25 394,447.25 401.5,450.25 414,418.75 405.25" fill="#000000" stroke="none" stroke-opacity="0" />
<polygon id="B1232" points="419 405.5,450.25 414.25,452 422.25,454.5 430.25,458 437.5,443.5 446.25,410.75 437.5" fill="#000000" stroke="none" stroke-opacity="0" />
<polygon id="B1233" points="404.5 459,437.75 468.25,417.5 485.25,398.5 480" fill="#000000" stroke="none" stroke-opacity="0" />
<polygon id="B1234" points="398.5 480,392.5 502.25,397.5 503.25,396.25 507.25,414.75 512.75,420.25 494,415 492,417 484.75" fill="#000000" stroke="none" stroke-opacity="0" />
<polygon id="B1235" points="370.5 472.75,379.5 475.5,373.5 496,364.25 493.5" fill="#000000" stroke="none" stroke-opacity="0" />
<polygon id="B1236" points="360.75 470,370.5 473,364.5 493.75,355 491" fill="#000000" stroke="none" stroke-opacity="0" />
<polygon id="B1237" points="351.25 467.5,360.75 470,355 491.5,345.25 488.75" fill="#000000" stroke="none" stroke-opacity="0" />
<polygon id="B1238" points="341.25 464.5,351 467.75,345.25 489,335.25 486" fill="#000000" stroke="none" stroke-opacity="0" />
<polygon id="B1239" points="332 462.5,341.5 465,335.25 485.75,326 483.25" fill="#000000" stroke="none" stroke-opacity="0" />
<polygon id="B1240" points="323 459.75,332.25 462.5,326.25 483.25,317 480.25" fill="#000000" stroke="none" stroke-opacity="0" />
<polygon id="B1241" points="313.25 456.75,323.5 460,316.75 480.25,307.25 477.75" fill="#000000" stroke="none" stroke-opacity="0" />
<polygon id="B1242" points="303.5 454.25,313.25 457,307.25 477.5,297.75 475" fill="#000000" stroke="none" stroke-opacity="0" />
<polygon id="B1243" points="294.25 451.75,304 454.25,297.25 475,288.25 472.75" fill="#000000" stroke="none" stroke-opacity="0" />
<polygon id="B1244" points="285 448.75,294.25 452.25,288.5 472.75,278.75 469.75" fill="#000000" stroke="none" stroke-opacity="0" />
<polygon id="B1183" points="518.5 283.5,529.75 300.25,539.25 294.5,530.25 276.5" fill="#000000" stroke="none" stroke-opacity="0" />
<polygon id="B1184" points="530.25 276.5,539 294.25,549.75 289.5,543 271" fill="#000000" stroke="none" stroke-opacity="0" />
<polygon id="B1185" points="543 271,556 267,560.75 285.75,549.5 289" fill="#000000" stroke="none" stroke-opacity="0" />
<polygon id="B1186" points="556.25 267,570 265,572 284.25,560.25 285.75" fill="#000000" stroke="none" stroke-opacity="0" />
<polygon id="B1187" points="570 265,583.75 264.5,583.25 283.5,571.75 284" fill="#000000" stroke="none" stroke-opacity="0" />
<polygon id="B1188" points="583 264.25,597.5 264.75,595 284,583.25 283.5" fill="#000000" stroke="none" stroke-opacity="0" />
<polygon id="B1189" points="603.5 265.75,612 267.25,624 270.75,617.25 289.25,601.5 285.5" fill="#000000" stroke="none" stroke-opacity="0" />
<polygon id="B1190" points="624.25 270.75,636.25 276.5,627.75 293.5,617 289" fill="#000000" stroke="none" stroke-opacity="0" />
<polygon id="B1191" points="628 293,637.5 299.25,648.25 283,635.75 276.5" fill="#000000" stroke="none" stroke-opacity="0" />
<polygon id="B1192" points="648.25 283,659.5 291.25,647 305.5,637.5 299" fill="#000000" stroke="none" stroke-opacity="0" />
<polygon id="B1193" points="647.25 305.25,659.5 291.75,669.25 300.75,655.5 314" fill="#000000" stroke="none" stroke-opacity="0" />
<polygon id="B1194" points="674.5 342.5,692.75 334.25,699 354.75,679.25 358.5" fill="#000000" stroke="none" stroke-opacity="0" />
<polygon id="B1195" points="681.5 364,682.75 375.75,702 374.5,701 360.5" fill="#000000" stroke="none" stroke-opacity="0" />
<polygon id="B1196" points="683 375.75,702 374.5,701.75 388,683 387" fill="#000000" stroke="none" stroke-opacity="0" />
<polygon id="B1197" points="683.25 386.75,702 388,700.75 401.75,681.75 398.25" fill="#000000" stroke="none" stroke-opacity="0" />
<polygon id="B1198" points="682 398.25,679.75 409.75,697.75 415.25,700.5 401.5" fill="#000000" stroke="none" stroke-opacity="0" />
<polygon id="B1199" points="680.25 409.5,697.5 415.25,693 428.25,676 420" fill="#000000" stroke="none" stroke-opacity="0" />
<polygon id="B1200" points="676.5 420.25,671.25 429.75,687 439.75,692.75 428.25" fill="#000000" stroke="none" stroke-opacity="0" />
<polygon id="B1201" points="671.5 429.75,663.75 440.5,679.75 451.25,687 439.5" fill="#000000" stroke="none" stroke-opacity="0" />
<polygon id="B1202" points="664.5 440.75,656.75 449.5,670.25 462.5,679.25 451.25" fill="#000000" stroke="none" stroke-opacity="0" />
<polygon id="B1203" points="657 449.5,644 460.5,655.5 476.75,660.25 472.5,665.5 468,670.5 462.25" fill="#000000" stroke="none" stroke-opacity="0" />
<polygon id="B1204" points="623.75 473,631.75 490.5,623.25 494.25,612.5 497,607.75 478" fill="#000000" stroke="none" stroke-opacity="0" />
<polygon id="B1205" points="597.25 480,608 478.5,612.75 496.75,598.75 499.5" fill="#000000" stroke="none" stroke-opacity="0" />
<polygon id="B1206" points="573.25 480,591 480.75,592.75 500.5,583 500.25,571.75 499.75" fill="#000000" stroke="none" stroke-opacity="0" />
<polygon id="B1207" points="562.5 478.25,573.75 480.5,572.25 499.75,558.5 497.25" fill="#000000" stroke="none" stroke-opacity="0" />
<polygon id="B1208" points="551.25 475.75,562.5 478.75,558.5 497.25,545 493" fill="#000000" stroke="none" stroke-opacity="0" />
<polygon id="B1209" points="541 471,551.5 476.25,544.75 493,532.25 487.75" fill="#000000" stroke="none" stroke-opacity="0" />
<polygon id="B1210" points="530.25 465.25,540.75 471.5,532.5 487.75,520.5 481.5" fill="#000000" stroke="none" stroke-opacity="0" />
<polygon id="B1211" points="521.25 458.25,530.25 465.25,520.25 481.5,509 472.75" fill="#000000" stroke="none" stroke-opacity="0" />
<polygon id="B1212" points="513 450.5,521.25 458,509.25 473,498.5 464.25" fill="#000000" stroke="none" stroke-opacity="0" />
<polygon id="B1213" points="506.25 442.75,513 450.75,498.75 464.25,490.75 454.25" fill="#000000" stroke="none" stroke-opacity="0" />
<polygon id="B1214" points="476.5 429.5,494.25 422,489.5 411,471.5 417" fill="#000000" stroke="none" stroke-opacity="0" xmlns="http://www.w3.org/2000/svg" />
<polygon id="B1215" points="468 403.5,487 400.5,489.25 410.75,471.5 417.25" fill="#000000" stroke="none" stroke-opacity="0" xmlns="http://www.w3.org/2000/svg" />
<polygon id="B1216" points="468.25 403.75,486.75 400.75,486.25 389,466.5 390.25" fill="#000000" stroke="none" stroke-opacity="0" xmlns="http://www.w3.org/2000/svg" />
<polygon id="B1217" points="467 390.5,466.25 376.25,485.75 377.5,486 389.25" fill="#000000" stroke="none" stroke-opacity="0" xmlns="http://www.w3.org/2000/svg" />
<polygon id="B1218" points="466.75 376.25,467.75 362.25,487 365.25,485.75 377.25" fill="#000000" stroke="none" stroke-opacity="0" xmlns="http://www.w3.org/2000/svg" />
<polygon id="B1219" points="468 362.5,486.75 365.25,490.25 355,471 348.75" fill="#000000" stroke="none" stroke-opacity="0" xmlns="http://www.w3.org/2000/svg" />
<polygon id="B1220" points="471.5 349,476 336.5,493.75 344,490 354.75" fill="#000000" stroke="none" stroke-opacity="0" xmlns="http://www.w3.org/2000/svg" />
<polygon id="B1221" points="475.5 336.25,481.25 323.75,498 333.25,493.5 343.5" fill="#000000" stroke="none" stroke-opacity="0" xmlns="http://www.w3.org/2000/svg" />
<polygon id="B1222" points="481.75 323.75,489.25 312.75,504.75 323.75,497.75 333.75" fill="#000000" stroke="none" stroke-opacity="0" xmlns="http://www.w3.org/2000/svg" />
</svg>
