<?xml version="1.0" encoding="UTF-8" standalone="no"?>
<!-- Created with Inkscape (http://www.inkscape.org/) -->

<svg xmlns:dc="http://purl.org/dc/elements/1.1/" xmlns:cc="http://creativecommons.org/ns#" xmlns:rdf="http://www.w3.org/1999/02/22-rdf-syntax-ns#" xmlns:svg="http://www.w3.org/2000/svg" xmlns="http://www.w3.org/2000/svg" xmlns:xlink="http://www.w3.org/1999/xlink" xmlns:sodipodi="http://sodipodi.sourceforge.net/DTD/sodipodi-0.dtd" xmlns:inkscape="http://www.inkscape.org/namespaces/inkscape" width="770" height="410" id="svg2" version="1.1" inkscape:version="0.47pre4 " sodipodi:docname="test.svg" style="display:inline">
<defs id="defs4">
<inkscape:perspective sodipodi:type="inkscape:persp3d" inkscape:vp_x="0 : 526.18109 : 1" inkscape:vp_y="0 : 1000 : 0" inkscape:vp_z="744.09448 : 526.18109 : 1" inkscape:persp3d-origin="372.04724 : 350.78739 : 1" id="perspective10" />
<inkscape:perspective id="perspective2832" inkscape:persp3d-origin="0.5 : 0.33333333 : 1" inkscape:vp_z="1 : 0.5 : 1" inkscape:vp_y="0 : 1000 : 0" inkscape:vp_x="0 : 0.5 : 1" sodipodi:type="inkscape:persp3d" />
<script type="text/ecmascript" id="script6">
		var fdat="",sdat="";
		function onAreaOver(evt){
			var ele=evt.target; 
			fdat=ele.getAttribute('fill'); 
			sdat=ele.getAttribute('stroke');
			ele.setAttribute('fill','#006fb6');//多边形填充颜色
			ele.setAttribute('stroke','#006fb6');//stroke 多边形 边框颜色
			
		}
		function onAreaOut(evt){
			var ele=evt.target; 
			ele.setAttribute('fill',fdat);
			ele.setAttribute('stroke',sdat);
		}
		</script>
<symbol overflow="visible" id="symbol" style="overflow:visible">
<path d="m 626,156 2,-2 2,-4 0,-3 -1,-3 -4,-3 -6,-3 -5,-2 -4,-2 -4,8 -6,14" id="path9" style="fill:#000000;stroke:none" />
</symbol>
</defs>
<sodipodi:namedview id="base" pagecolor="#ffffff" bordercolor="#666666" borderopacity="1.0" inkscape:pageopacity="0.0" inkscape:pageshadow="2" inkscape:zoom="5.6" inkscape:cx="583.1007" inkscape:cy="273.63795" inkscape:document-units="px" inkscape:current-layer="svg2" showgrid="false" inkscape:window-width="1280" inkscape:window-height="740" inkscape:window-x="-4" inkscape:window-y="-4" inkscape:window-maximized="1" />
<metadata id="metadata7">
<rdf:RDF>
<cc:Work>
<dc:format>
				image/svg+xml</dc:format>
<dc:type rdf:resource="http://purl.org/dc/dcmitype/StillImage" />
<dc:title>
</dc:title>
</cc:Work>
</rdf:RDF>
</metadata>
<image xlink:href="zhengzhou_mall_c_1f.png" width="770" height="351" id="image2834" x="-485" y="255.93361" transform="translate(485,-255.9336)" inkscape:label="Layer 1" inkscape:groupmode="layer" style="display:inline" />
<polygon id="C1001" points="476.25 153,510.25 162.5,506 178.75,472 168.75" fill="#000000" stroke="none" stroke-opacity="0" />
<polygon id="C1002" points="472.5 168.5,467.75 184.75,501.25 194.25,506 179" fill="#000000" stroke="none" stroke-opacity="0" />
<polygon id="C1003" points="468 184.5,492.5 191.75,488.75 205,463.75 197.5" fill="#000000" stroke="none" stroke-opacity="0" />
<polygon id="C1004" points="464.25 197.25,459.75 213.25,484.5 220.5,489.25 204.75" fill="#000000" stroke="none" stroke-opacity="0" />
<polygon id="C1005" points="460 213.25,484.5 220.5,481 233.75,456.5 226.75" fill="#000000" stroke="none" stroke-opacity="0" />
<polygon id="C1006" points="457 226.5,490.25 236,486 251.75,452 242.25" fill="#000000" stroke="none" stroke-opacity="0" />
<polygon id="C1007" points="452.5 242.5,447.75 257.75,481.25 267.75,486 251.5" fill="#000000" stroke="none" stroke-opacity="0" />
<polygon id="C1008" points="448 258.25,481.5 268,478.5 279.75,444.5 270.5" fill="#000000" stroke="none" stroke-opacity="0" />
<polygon id="C1009" points="444.75 270.5,442.25 278.25,476.25 288.25,478.75 279.5" fill="#000000" stroke="none" stroke-opacity="0" />
<polygon id="C1010" points="461.25 283.75,476.5 288,473.25 298,458.5 293.5" fill="#000000" stroke="none" stroke-opacity="0" />
<polygon id="C1011" points="458.75 293.25,456 302.5,470.25 307,473 297.75" fill="#000000" stroke="none" stroke-opacity="0" />
<polygon id="C1012" points="456 302.25,470.25 307.25,466.25 322,451.75 317.5" fill="#000000" stroke="none" stroke-opacity="0" />
<polygon id="C1013" points="438.5 288,431 314.5,421.75 312.25,429.25 286" fill="#000000" stroke="none" stroke-opacity="0" />
<polygon id="C1014" points="419.75 282.75,429.5 285.75,421.75 312.25,412 309" fill="#000000" stroke="none" stroke-opacity="0" />
<polygon id="C1015" points="400.5 277.75,390.25 275,383.25 301.5,393.25 304.25" fill="#000000" stroke="none" stroke-opacity="0" />
<polygon id="C1016" points="380.5 272.5,390.5 275.25,383.5 301.5,373.5 298.5" fill="#000000" stroke="none" stroke-opacity="0" />
<polygon id="C1017" points="371 269.75,380.75 272.25,373.75 298.25,364 295.75" fill="#000000" stroke="none" stroke-opacity="0" />
<polygon id="C1018" points="365 254.5,374.75 257.5,363.75 295.75,354.25 292.75" fill="#000000" stroke="none" stroke-opacity="0" />
<polygon id="C1019" points="355.25 252,365.25 254.5,354.25 292.75,344.75 290" fill="#000000" stroke="none" stroke-opacity="0" />
<polygon id="C1020" points="342.25 262.5,351.25 264.5,344.5 290.5,334.75 288" fill="#000000" stroke="none" stroke-opacity="0" />
<polygon id="C1021" points="332.25 259.5,342.5 262.75,334.75 288.25,325 285.25" fill="#000000" stroke="none" stroke-opacity="0" />
<polygon id="C1022" points="303.75 251.25,313.25 253.5,305.75 280,296.25 277.25" fill="#000000" stroke="none" stroke-opacity="0" />
<polygon id="C1023" points="294.5 249,303.75 251.5,296.5 277,286.75 274.75" fill="#000000" stroke="none" stroke-opacity="0" />
<polygon id="C1024" points="268.5 266.75,272.25 252.25,257 248,253.25 263" fill="#000000" stroke="none" stroke-opacity="0" />
<polygon id="C1025" points="257.25 248,259.75 239,274.5 243.25,272 252" fill="#000000" stroke="none" stroke-opacity="0" />
<polygon id="C1026" points="260 239,262.75 229,277.25 233.5,274.25 243.25" fill="#000000" stroke="none" stroke-opacity="0" />
<polygon id="C1027" points="263 229,265.25 220.75,299 230,296.75 239.5" fill="#000000" stroke="none" stroke-opacity="0" />
<polygon id="C1028" points="265.25 221,268.75 208.5,302 218,298.75 230" fill="#000000" stroke="none" stroke-opacity="0" />
<polygon id="C1029" points="268.75 208.75,273 193.25,306.5 202.75,301.75 218" fill="#000000" stroke="none" stroke-opacity="0" />
<polygon id="C1030" points="273 193.25,277.5 177.75,310.75 187,306.25 203" fill="#000000" stroke="none" stroke-opacity="0" />
<polygon id="C1031" points="277.5 178,280.75 164.5,314.25 173.5,310.75 186.75" fill="#000000" stroke="none" stroke-opacity="0" />
<polygon id="C1032" points="281 164.5,285 149.25,318.25 158.25,313.75 173.5" fill="#000000" stroke="none" stroke-opacity="0" />
<polygon id="C1033" points="285.5 149.25,318.25 158,321.75 144.5,288.5 135.5" fill="#000000" stroke="none" stroke-opacity="0" />
<polygon id="C1034" points="288.75 135.25,293.25 120,326.5 129.5,321.5 144.5" fill="#000000" stroke="none" stroke-opacity="0" />
<polygon id="C1035" points="293.25 120.5,297 104.75,330.5 113.5,326.25 129" fill="#000000" stroke="none" stroke-opacity="0" />
<polygon id="C1036" points="297.5 105,330.5 113.5,334 102,300.25 92" fill="#000000" stroke="none" stroke-opacity="0" />
<polygon id="C1037" points="300.25 92,302.25 84.25,336.25 93,334 101.75" fill="#000000" stroke="none" stroke-opacity="0" />
<polygon id="C1038" points="302.5 84,305.25 73.75,320.25 78,317.5 88.25" fill="#000000" stroke="none" stroke-opacity="0" />
<polygon id="C1039" points="305.5 73.75,308 65.25,322.75 69.25,320.25 77.75" fill="#000000" stroke="none" stroke-opacity="0" />
<polygon id="C1040" points="308 65.5,312 50.75,326.5 54.75,322.75 69.25" fill="#000000" stroke="none" stroke-opacity="0" />
<polygon id="C1041" points="347 57,356.25 59.75,349.25 86.25,339.5 83.25" fill="#000000" stroke="none" stroke-opacity="0" />
<polygon id="C1042" points="356.5 60.25,366.25 62.75,359 88.75,349.25 85.75" fill="#000000" stroke="none" stroke-opacity="0" />
<polygon id="C1043" points="385.25 67.75,394.75 70.75,387.5 97,378 93.75" fill="#000000" stroke="none" stroke-opacity="0" />
<polygon id="C1044" points="394.75 70.75,404.5 73.25,397 99.25,387.75 96.75" fill="#000000" stroke="none" stroke-opacity="0" />
<polygon id="C1045" points="404.75 73.5,414.75 75.75,403.25 114.75,393.75 111.25" fill="#000000" stroke="none" stroke-opacity="0" />
<polygon id="C1046" points="414.75 76,424.25 78,413.5 117,403.25 114.75" fill="#000000" stroke="none" stroke-opacity="0" />
<polygon id="C1047" points="424.25 78.5,433.75 81,426.5 107,417.25 104.5" fill="#000000" stroke="none" stroke-opacity="0" />
<polygon id="C1048" points="433.75 81,443.5 84,436.25 110,426.25 107.25" fill="#000000" stroke="none" stroke-opacity="0" />
<polygon id="C1049" points="436 109.75,445.25 113,453.5 87.25,443.25 84" fill="#000000" stroke="none" stroke-opacity="0" />
<polygon id="C1050" points="472.5 91.75,464.75 117.5,474.5 121,482 94.5" fill="#000000" stroke="none" stroke-opacity="0" />
<polygon id="C1051" points="482 94.5,491 97.25,483.5 123.25,474.75 120.5" fill="#000000" stroke="none" stroke-opacity="0" />
<polygon id="C1052" points="465.25 117.25,484.25 123.25,480.5 136.25,462 130.75" fill="#000000" stroke="none" stroke-opacity="0" />
<polygon id="C1053" points="462.5 130.5,459.75 140.5,477.5 145.75,480.25 136.25" fill="#000000" stroke="none" stroke-opacity="0" />
<polygon id="C1054" points="477.5 145.75,473.75 162.5,454.25 157.25,458.75 140.25" fill="#000000" stroke="none" stroke-opacity="0" />
<polygon id="C1055" points="454.25 157.25,474 163,468.75 181,449.25 175" fill="#000000" stroke="none" stroke-opacity="0" />
<polygon id="C1056" points="449.5 174.75,469 181,463.75 198.25,444.25 192.75" fill="#000000" stroke="none" stroke-opacity="0" />
<polygon id="C1057" points="444.5 192.5,464 197.75,459.5 214,439.5 208.75" fill="#000000" stroke="none" stroke-opacity="0" />
<polygon id="C1058" points="439.75 208.75,459.5 214.25,455.75 229.75,435.5 224.25" fill="#000000" stroke="none" stroke-opacity="0" />
<polygon id="C1059" points="435.75 224.5,456 229.5,451.5 244.75,431.75 239.75" fill="#000000" stroke="none" stroke-opacity="0" />
<polygon id="C1060" points="432 239.25,427 255,447 261,451.5 244.75" fill="#000000" stroke="none" stroke-opacity="0" />
<polygon id="C1061" points="427 255.25,446.75 261.25,443.5 275.5,423 270" fill="#000000" stroke="none" stroke-opacity="0" />
<polygon id="C1062" points="423.75 270.25,420 282.75,438 288.5,442.75 275.5" fill="#000000" stroke="none" stroke-opacity="0" />
<polygon id="C1063" points="400 277.25,403.75 265,375 257,371.25 269.75" fill="#000000" stroke="none" stroke-opacity="0" />
<polygon id="C1064" points="371.5 256,375.25 241.25,407.75 250,404 265.5" fill="#000000" stroke="none" stroke-opacity="0" />
<polygon id="C1065" points="375.75 241.25,379.25 225.75,412 234,407.75 249.75" fill="#000000" stroke="none" stroke-opacity="0" />
<polygon id="C1066" points="379.75 225.75,384.25 209.75,416.25 219,412 233.75" fill="#000000" stroke="none" stroke-opacity="0" />
<polygon id="C1067" points="384.25 210,389 194,420.75 202.75,416.25 219" fill="#000000" stroke="none" stroke-opacity="0" />
<polygon id="C1068" points="392.5 178.75,397.5 161,429.75 169.5,425.25 188" fill="#000000" stroke="none" stroke-opacity="0" />
<polygon id="C1069" points="397.75 161.25,402.25 143,435 152.25,429.75 169.25" fill="#000000" stroke="none" stroke-opacity="0" />
<polygon id="C1070" points="402.5 143.25,407 126,439.75 135.25,434.75 152.5" fill="#000000" stroke="none" stroke-opacity="0" />
<polygon id="C1071" points="407.25 126.5,409.5 116.5,442.25 125.25,439.5 135.25" fill="#000000" stroke="none" stroke-opacity="0" />
<polygon id="C1072" points="413.5 117.5,417.25 104.25,445.25 113,442 125.5" fill="#000000" stroke="none" stroke-opacity="0" />
<polygon id="C1073" points="378.5 93.75,397.25 99.5,394 112,374.75 106.5" fill="#000000" stroke="none" stroke-opacity="0" />
<polygon id="C1074" points="375 106.25,409.75 116.5,407 126.25,371.75 116.75" fill="#000000" stroke="none" stroke-opacity="0" />
<polygon id="C1075" points="372 116.5,366.75 133.75,402.25 143.5,406.75 125.75" fill="#000000" stroke="none" stroke-opacity="0" />
<polygon id="C1076" points="367.25 133.75,402 143.5,397.5 161.25,362.25 151.75" fill="#000000" stroke="none" stroke-opacity="0" />
<polygon id="C1077" points="362.25 151.75,397.25 161,393 178.5,357.25 169.25" fill="#000000" stroke="none" stroke-opacity="0" />
<polygon id="C1078" points="353 184.25,389 194.25,384.25 210,348.5 200" fill="#000000" stroke="none" stroke-opacity="0" />
<polygon id="C1079" points="348.75 200,344.25 215.75,379.5 225.75,384.25 209.75" fill="#000000" stroke="none" stroke-opacity="0" />
<polygon id="C1080" points="344.5 215.75,379.5 225.5,375.75 241,340.5 231.5" fill="#000000" stroke="none" stroke-opacity="0" />
<polygon id="C1081" points="341 231.75,376 241.25,371.5 256,336.5 246" fill="#000000" stroke="none" stroke-opacity="0" />
<polygon id="C1082" points="336.5 246.25,355.75 251.5,351.25 265,332.5 259.5" fill="#000000" stroke="none" stroke-opacity="0" />
<polygon id="C1083" points="313 253.75,295 249,298 235.5,317 240.25" fill="#000000" stroke="none" stroke-opacity="0" />
<polygon id="C1084" points="298.25 235.5,301.75 220.75,321 226,317 240.25" fill="#000000" stroke="none" stroke-opacity="0" />
<polygon id="C1085" points="302 220.75,306 204.75,325.5 210.25,320.75 225.75" fill="#000000" stroke="none" stroke-opacity="0" />
<polygon id="C1086" points="306.25 204.5,311 186.25,330.5 192,325.5 210" fill="#000000" stroke="none" stroke-opacity="0" />
<polygon id="C1087" points="311.25 186.25,314.25 173.25,334 179.25,330.25 191.75" fill="#000000" stroke="none" stroke-opacity="0" />
<polygon id="C1088" points="318.5 158,338 163.25,333.75 179,314.25 173.25" fill="#000000" stroke="none" stroke-opacity="0" />
<polygon id="C1089" points="318.75 157.75,323.5 140.5,342.25 145.5,337.75 163" fill="#000000" stroke="none" stroke-opacity="0" />
<polygon id="C1090" points="324 140.5,328.75 123,347.5 128,342.25 145.25" fill="#000000" stroke="none" stroke-opacity="0" />
<polygon id="C1091" points="328.75 123,333.75 105.75,352.5 111,347.25 128" fill="#000000" stroke="none" stroke-opacity="0" />
<polygon id="C1092" points="334 106,352.25 111.25,355 101.25,336.25 96" fill="#000000" stroke="none" stroke-opacity="0" />
<polygon id="C1093" points="336.25 96,340 83,358.5 89.25,355 101" fill="#000000" stroke="none" stroke-opacity="0" />
<polygon id="C1094" points="510.125 104.875,524.875 109,521.125 123.75,506.25 119.25" fill="#000000" stroke="none" stroke-opacity="0" />
<polygon id="C1095" points="506.375 119,521.125 123.5,518.375 132.75,503.75 128.375" fill="#000000" stroke="none" stroke-opacity="0" />
<polygon id="C1096" points="503.875 128.25,518.375 132.75,515.625 142.375,500.875 138" fill="#000000" stroke="none" stroke-opacity="0" />
<polygon id="C1097" points="515.75 142.25,481.75 132.125,478.875 141.125,513.25 151.125" fill="#000000" stroke="none" stroke-opacity="0" />
<polygon id="C1098" points="513.125 151.125,479 141,476 153,510.125 162.5" fill="#000000" stroke="none" stroke-opacity="0" />
</svg>
