<?xml version="1.0" encoding="UTF-8" standalone="no"?>
<!-- Created with Inkscape (http://www.inkscape.org/) -->

<svg xmlns:dc="http://purl.org/dc/elements/1.1/" xmlns:cc="http://creativecommons.org/ns#" xmlns:rdf="http://www.w3.org/1999/02/22-rdf-syntax-ns#" xmlns:svg="http://www.w3.org/2000/svg" xmlns="http://www.w3.org/2000/svg" xmlns:xlink="http://www.w3.org/1999/xlink" xmlns:sodipodi="http://sodipodi.sourceforge.net/DTD/sodipodi-0.dtd" xmlns:inkscape="http://www.inkscape.org/namespaces/inkscape" width="770" height="530" id="svg2" version="1.1" inkscape:version="0.47pre4 " sodipodi:docname="test.svg" style="display:inline" stroke="#000000">
<defs id="defs4">
<inkscape:perspective sodipodi:type="inkscape:persp3d" inkscape:vp_x="0 : 526.18109 : 1" inkscape:vp_y="0 : 1000 : 0" inkscape:vp_z="744.09448 : 526.18109 : 1" inkscape:persp3d-origin="372.04724 : 350.78739 : 1" id="perspective10" />
<inkscape:perspective id="perspective2832" inkscape:persp3d-origin="0.5 : 0.33333333 : 1" inkscape:vp_z="1 : 0.5 : 1" inkscape:vp_y="0 : 1000 : 0" inkscape:vp_x="0 : 0.5 : 1" sodipodi:type="inkscape:persp3d" />
<script type="text/ecmascript" id="script6">
		var fdat="",sdat="";
		function onAreaOver(evt){
			var ele=evt.target; 
			fdat=ele.getAttribute('fill'); 
			sdat=ele.getAttribute('stroke');
			ele.setAttribute('fill','#006fb6');//多边形填充颜色
			ele.setAttribute('stroke','#006fb6');//stroke 多边形 边框颜色
			
		}
		function onAreaOut(evt){
			var ele=evt.target; 
			ele.setAttribute('fill',fdat);
			ele.setAttribute('stroke',sdat);
		}
		</script>
<symbol overflow="visible" id="symbol" style="overflow:visible" xmlns="http://www.w3.org/2000/svg">
<path d="m 626,156 2,-2 2,-4 0,-3 -1,-3 -4,-3 -6,-3 -5,-2 -4,-2 -4,8 -6,14" id="path9" style="fill:#000000;stroke:none" />
</symbol>
</defs>
<sodipodi:namedview id="base" pagecolor="#ffffff" bordercolor="#666666" borderopacity="1.0" inkscape:pageopacity="0.0" inkscape:pageshadow="2" inkscape:zoom="5.6" inkscape:cx="583.1007" inkscape:cy="273.63795" inkscape:document-units="px" inkscape:current-layer="svg2" showgrid="false" inkscape:window-width="1280" inkscape:window-height="740" inkscape:window-x="-4" inkscape:window-y="-4" inkscape:window-maximized="1" />
<metadata id="metadata7">
<rdf:RDF>
<cc:Work>
<dc:format>
image/svg+xml</dc:format>
<dc:type rdf:resource="http://purl.org/dc/dcmitype/StillImage" />
<dc:title>
</dc:title>
</cc:Work>
</rdf:RDF>
</metadata>
<image xlink:href="anxi_mall_2f.png" width="770" height="530" id="image2834" x="-485" y="255.93361" transform="translate(485,-255.9336)" inkscape:label="Layer 1" inkscape:groupmode="layer" style="display:inline" />
<polygon id="201" points="688 129.5,694 135.5,694 159.5,743 159.5,743 116,735.5 108.5,746 97.5,732.5 84" fill="#000000" stroke="#000000" />
<polygon id="202" points="637 79.5,637 115.5,674 115.5,688 129.5,729.5 87.5,697 55,671.5 80" fill="#000000" stroke="#000000" />
<polygon id="203" points="602.5 44.5,602.5 115.5,636.5 115.5,636.5 80,669.5 80,689 60,673.5 44.5" fill="#000000" stroke="#000000" />
<polygon id="204" points="569 44.5,569 116,603 116,603 45" fill="#000000" stroke="#000000" />
<polygon id="205-1" points="471 45,569 45,569 112,537 113,537 80,471 80" fill="#000000" stroke="#000000" />
<polygon id="205-2" points="471 80,489 80,489 112,472 112" fill="#000000" stroke="#000000" />
<polygon id="206" points="434.5 45,434.5 116,470 116,470 44.5" fill="#000000" stroke="#000000" />
<polygon id="207" points="405 45,405 115,435.5 115,435.5 44.5" fill="#000000" stroke="#000000" />
<polygon id="208" points="364 44,364 116,405.5 116,405.5 44" fill="#000000" stroke="#000000" />
<polygon id="209" points="334 45,334.5 115,364.5 114.5,364.5 45.5" fill="#000000" stroke="#000000" />
<polygon id="210" points="299.5 31,299.5 115.5,335 114.5,334 31.5" fill="#000000" stroke="#000000" />
<polygon id="211" points="198 31,198.5 115,231.5 114.5,231.5 80.5,277.5 79.5,279 115,301.5 115.5,299.5 36" fill="#000000" stroke="#000000" />
<polygon id="212" points="164.5 44.5,164 117,199.5 115.5,198 46" fill="#000000" stroke="#000000" />
<polygon id="213" points="130.5 44,131 114,164 115,164.5 44" fill="#000000" stroke="#000000" />
<polygon id="214" points="37.5 87.5,80.5 130,95.5 114.5,132 115,131 44,93 44.5,79 62,71.5 52.5" fill="#000000" stroke="#000000" />
<polygon id="215" points="22.5 97.5,31.5 108.5,28 113.5,27.5 161.5,76 160.5,75 136,82 130,36 85.5" fill="#000000" stroke="#000000" />
<polygon id="216" points="130.5 170.5,130.5 223,166 223,166 171" fill="#000000" stroke="#000000" />
<polygon id="217" points="166 170.5,198.5 170.5,198.5 222.5,166 222.5" fill="#000000" stroke="#000000" />
<polygon id="218" points="199.5 171.5,232.5 171.5,232.5 222.5,198 222.5" fill="#000000" stroke="#000000" />
<polygon id="219" points="232 171,254 171,254 222.5,231 222.5" fill="#000000" stroke="#000000" transform="matrix(1.26,0,0,1,-63.05,0)" xmlns="http://www.w3.org/2000/svg" />
<polygon id="220" points="298 170.5,298 223,336 223,336 170.5" fill="#000000" stroke="#000000" />
<polygon id="221" points="335 170.5,366.5 170.5,366.5 222,335.5 222" fill="#000000" stroke="#000000" />
<polygon id="222" points="368 171,400.5 171,400.5 223.5,367 223.5" fill="#000000" stroke="#000000" />
<polygon id="223" points="400.5 170.5,434 170.5,434 221.5,400 221.5" fill="#000000" stroke="#000000" />
<polygon id="224" points="433.5 170.5,469.5 170.5,469.5 223,434.5 223" fill="#000000" stroke="#000000" />
<polygon id="225" points="513 170.5,513 223,539 223,539 171.5" fill="#000000" stroke="#000000" />
<polygon id="226" points="538.5 170.5,538.5 222.5,570.5 222.5,570.5 170" fill="#000000" stroke="#000000" />
<polygon id="227" points="570.5 170,570.5 222,605.5 222,605.5 170" fill="#000000" stroke="#000000" />
<polygon id="228" points="605 170.8302,605 223,638.5 223,637.6803 170.5" fill="#000000" stroke="#000000" transform="matrix(1.22,0,0,1.06,-136.785,-11.73)" xmlns="http://www.w3.org/2000/svg" />
<polygon id="229" points="96 169,131 170,130 222,256 222,300 221,470 221,514 223,641 223,659 223,660 211,704 211,706 231,743 230,744 483,25 479,27 389,29 340,10 339,10 271,29 272,28 231,65 233,65 211,96 211" fill="#000000" stroke="#000000" xmlns="http://www.w3.org/2000/svg" />

</svg>
