<?xml version="1.0" encoding="UTF-8" standalone="no"?>
<!-- Created with Inkscape (http://www.inkscape.org/) -->

<svg xmlns:dc="http://purl.org/dc/elements/1.1/" xmlns:cc="http://creativecommons.org/ns#" xmlns:rdf="http://www.w3.org/1999/02/22-rdf-syntax-ns#" xmlns:svg="http://www.w3.org/2000/svg" xmlns="http://www.w3.org/2000/svg" xmlns:xlink="http://www.w3.org/1999/xlink" xmlns:sodipodi="http://sodipodi.sourceforge.net/DTD/sodipodi-0.dtd" xmlns:inkscape="http://www.inkscape.org/namespaces/inkscape" width="770" height="530" id="svg2" version="1.1" inkscape:version="0.47pre4 " sodipodi:docname="test.svg" style="display:inline" stroke="#000000">
<defs id="defs4">
<inkscape:perspective sodipodi:type="inkscape:persp3d" inkscape:vp_x="0 : 526.18109 : 1" inkscape:vp_y="0 : 1000 : 0" inkscape:vp_z="744.09448 : 526.18109 : 1" inkscape:persp3d-origin="372.04724 : 350.78739 : 1" id="perspective10" />
<inkscape:perspective id="perspective2832" inkscape:persp3d-origin="0.5 : 0.33333333 : 1" inkscape:vp_z="1 : 0.5 : 1" inkscape:vp_y="0 : 1000 : 0" inkscape:vp_x="0 : 0.5 : 1" sodipodi:type="inkscape:persp3d" />
<script type="text/ecmascript" id="script6">
		var fdat="",sdat="";
		function onAreaOver(evt){
			var ele=evt.target; 
			fdat=ele.getAttribute('fill'); 
			sdat=ele.getAttribute('stroke');
			ele.setAttribute('fill','#006fb6');//多边形填充颜色
			ele.setAttribute('stroke','#006fb6');//stroke 多边形 边框颜色
			
		}
		function onAreaOut(evt){
			var ele=evt.target; 
			ele.setAttribute('fill',fdat);
			ele.setAttribute('stroke',sdat);
		}
		</script>
<symbol overflow="visible" id="symbol" style="overflow:visible" xmlns="http://www.w3.org/2000/svg">
<path d="m 626,156 2,-2 2,-4 0,-3 -1,-3 -4,-3 -6,-3 -5,-2 -4,-2 -4,8 -6,14" id="path9" style="fill:#000000;stroke:none" />
</symbol>
</defs>
<sodipodi:namedview id="base" pagecolor="#ffffff" bordercolor="#666666" borderopacity="1.0" inkscape:pageopacity="0.0" inkscape:pageshadow="2" inkscape:zoom="5.6" inkscape:cx="583.1007" inkscape:cy="273.63795" inkscape:document-units="px" inkscape:current-layer="svg2" showgrid="false" inkscape:window-width="1280" inkscape:window-height="740" inkscape:window-x="-4" inkscape:window-y="-4" inkscape:window-maximized="1" />
<metadata id="metadata7">
<rdf:RDF>
<cc:Work>
<dc:format>
image/svg+xml</dc:format>
<dc:type rdf:resource="http://purl.org/dc/dcmitype/StillImage" />
<dc:title>
</dc:title>
</cc:Work>
</rdf:RDF>
</metadata>
<image xlink:href="anxi_mall_1f.png" width="770" height="530" id="image2834" x="-485" y="255.93361" transform="translate(485,-255.9336)" inkscape:label="Layer 1" inkscape:groupmode="layer" style="display:inline" />
<polygon id="101" points="694 138,742 138,742 173,693.5 173" fill="#000000" stroke="none" />
<polygon id="102" points="693.75 123.5,733.25 85,746.5 98.75,737 108,741.75 113,741.75 138.75,694 138.75" fill="#000000" stroke="none" stroke-opacity="0" />
<polygon id="103" points="639 92,661.75 92,691.5 62,674 44.5,638.25 44.5" fill="#000000" stroke="none" stroke-opacity="0" />
<polygon id="104" points="603.75 44.25,603.75 81,640 81,640 44.75" fill="#000000" stroke="#000000" />
<polygon id="105" points="603.75 80.25,603.75 116,639.5 116,639.5 80.25" fill="#000000" stroke="#000000" />
<polygon id="106" points="570.25 45,570.25 81,604.25 81,604.25 44.75" fill="#000000" stroke="#000000" />
<polygon id="107" points="570.75 80.75,570.75 114.5,604.5 114.5,604.5 80.25" fill="#000000" stroke="#000000" />
<polygon id="108" points="538 45,538 81,571.25 81,571.25 44.75" fill="#000000" stroke="#000000" />
<polygon id="109" points="537.5 80.5,537.5 121,572 121,572 80.75" fill="#000000" stroke="#000000" />
<polygon id="110" points="502.75 44.75,502.75 81,538 81,538 45" fill="#000000" stroke="#000000" />
<polygon id="111" points="469.25 44.5,469.25 81,503.75 81,503.75 44.5" fill="#000000" stroke="#000000" />
<polygon id="112" points="468.75 80.75,468.75 121.5,490.25 121.5,490.25 80.5" fill="#000000" stroke="#000000" />
<polygon id="113" points="434.75 44.75,434.75 81.25,469.25 81.25,469.25 45.25" fill="#000000" stroke="#000000" />
<polygon id="114" points="435 80.25,435 121.75,469.5 121.75,469.5 80.75" fill="#000000" stroke="#000000" />
<polygon id="115" points="435.25 81.25,404 81.25,404 44,434.5 44" fill="#000000" stroke="#000000" />
<polygon id="116" points="404.5 81,404.5 99.75,410.5 112.25,421.5 119.25,434.5 120.75,434.5 81.5" fill="#000000" stroke="#000000" />
<polygon id="117" points="334 45,334 81,364.5 81,364.5 44.5" fill="#000000" stroke="none" stroke-opacity="0" />
<polygon id="118" points="333.5 81,333.5 122,350.5 119.5,362 106,365 91,365 80.5" fill="#000000" stroke="none" stroke-opacity="0" />
<polygon id="119" points="300 80,334.5 80,334.5 45,300 45" fill="#000000" stroke="none" stroke-opacity="0" />
<polygon id="120" points="300 79.5,300 121,335 121,335 79" fill="#000000" stroke="none" stroke-opacity="0" />
<polygon id="121" points="265.5 81.5,300 81.5,300 44.5,265.5 44.5" fill="#000000" stroke="none" stroke-opacity="0" />
<polygon id="122" points="278.5 80.5,278.5 120.5,301.5 120.5,301.5 80.5" fill="#000000" stroke="none" stroke-opacity="0" />
<polygon id="123" points="231 80.5,266 80.5,266 45,231.5 45" fill="#000000" stroke="none" stroke-opacity="0" />
<polygon id="124" points="198 80,231.5 80,231.5 44.5,198 44.5" fill="#000000" stroke="none" stroke-opacity="0" />
<polygon id="125" points="198.5 78.5,198.5 121.5,232 121.5,232 79.5" fill="#000000" stroke="none" stroke-opacity="0" />
<polygon id="126" points="164.5 81,200 81,200 44.5,164.5 44.5" fill="#000000" stroke="none" stroke-opacity="0" />
<polygon id="127" points="165 79,165 115.5,198 115.5,198 81" fill="#000000" stroke="none" stroke-opacity="0" />
<polygon id="128" points="130 80.5,167 80.5,167 44,131 44" fill="#000000" stroke="none" stroke-opacity="0" />
<polygon id="129" points="129.5 79.5,129.5 115,165 115,165 79.5" fill="#000000" stroke="none" stroke-opacity="0" />
<polygon id="130" points="78.5 62,108.5 92,130.5 92,130.5 44.5,95 44.5" fill="#000000" stroke="none" stroke-opacity="0" />
<polygon id="131" points="22.5 98,33 108.5,27 114,27 139,75.5 139,75.5 124.5,35.5 84.5" fill="#000000" stroke="none" stroke-opacity="0" />
<polygon id="132" points="27.5 138,27.5 172.5,76.5 172.5,76.5 137.5" fill="#000000" stroke="none" stroke-opacity="0" />
<polygon id="133" points="27 184.5,27 205.5,65 205.5,65 185" fill="#000000" stroke="none" stroke-opacity="0" />
<polygon id="134" points="28 205,28 240,63.5 240,63.5 205" fill="#000000" stroke="none" stroke-opacity="0" />
<polygon id="135" points="27.5 239,27.5 273.5,65 273.5,65 237.5" fill="#000000" stroke="none" stroke-opacity="0" />
<polygon id="136" points="27.5 272.5,27.5 307,66 307,66 271" fill="#000000" stroke="none" stroke-opacity="0" />
<polygon id="137" points="27.5 306,27.5 340.5,63.5 340.5,63.5 305.5" fill="#000000" stroke="none" stroke-opacity="0" />
<polygon id="138" points="130.5 171,130.5 223,166.5 222.5,165 171.5" fill="#000000" stroke="none" stroke-opacity="0" />
<polygon id="139" points="229.5 170.5,231 224.5,254.5 225,254.5 170.5" fill="#000000" stroke="none" stroke-opacity="0" xmlns="http://www.w3.org/2000/svg" />
<polygon id="140" points="298.5 170,298.5 223,334.5 223,334.5 169.5" fill="#000000" stroke="none" stroke-opacity="0" />
<polygon id="141" points="334.5 170,368 170,368.5 223,334 223.5" fill="#000000" stroke="none" stroke-opacity="0" xmlns="http://www.w3.org/2000/svg" />
<polygon id="142" points="368.5 171,402 171,402 221.5,368.5 221.5" fill="#000000" stroke="none" stroke-opacity="0" />
<polygon id="143" points="402 171,436.5 171,437 223,401.5 223.5" fill="#000000" stroke="none" stroke-opacity="0" xmlns="http://www.w3.org/2000/svg" />
<polygon id="144" points="435 170.5,472 170.5,472 222.5,436 222.5" fill="#000000" stroke="none" stroke-opacity="0" transform="matrix(1,0,0,1,1,0)" xmlns="http://www.w3.org/2000/svg" />
<polygon id="145" points="515.5 171.5,515.5 223,539.5 223,539.5 171" fill="#000000" stroke="none" stroke-opacity="0" />
<polygon id="146" points="539 170,571.5 170,571.5 224.5,538.5 224.5" fill="#000000" stroke="none" stroke-opacity="0" />
<polygon id="147" points="572 169.5,605 170,605 223.5,571 225" fill="#000000" stroke="none" stroke-opacity="0" />
<polygon id="148" points="167 172,230 172,230 221,299 223,472 223,518 223,605 222,605 170,742 170,742 481,99 481,99 309,167 309" fill="#000000" stroke="#000000" xmlns="http://www.w3.org/2000/svg" />

</svg>
