<?xml version="1.0" encoding="UTF-8" standalone="no"?>
<!-- Created with Inkscape (http://www.inkscape.org/) -->

<svg xmlns:dc="http://purl.org/dc/elements/1.1/" xmlns:cc="http://creativecommons.org/ns#" xmlns:rdf="http://www.w3.org/1999/02/22-rdf-syntax-ns#" xmlns:svg="http://www.w3.org/2000/svg" xmlns="http://www.w3.org/2000/svg" xmlns:xlink="http://www.w3.org/1999/xlink" xmlns:sodipodi="http://sodipodi.sourceforge.net/DTD/sodipodi-0.dtd" xmlns:inkscape="http://www.inkscape.org/namespaces/inkscape" width="770" height="530" id="svg2" version="1.1" inkscape:version="0.47pre4 " sodipodi:docname="test.svg" style="display:inline" stroke="#000000">
<defs id="defs4">
<inkscape:perspective sodipodi:type="inkscape:persp3d" inkscape:vp_x="0 : 526.18109 : 1" inkscape:vp_y="0 : 1000 : 0" inkscape:vp_z="744.09448 : 526.18109 : 1" inkscape:persp3d-origin="372.04724 : 350.78739 : 1" id="perspective10" />
<inkscape:perspective id="perspective2832" inkscape:persp3d-origin="0.5 : 0.33333333 : 1" inkscape:vp_z="1 : 0.5 : 1" inkscape:vp_y="0 : 1000 : 0" inkscape:vp_x="0 : 0.5 : 1" sodipodi:type="inkscape:persp3d" />
<script type="text/ecmascript" id="script6">
		var fdat="",sdat="";
		function onAreaOver(evt){
			var ele=evt.target; 
			fdat=ele.getAttribute('fill'); 
			sdat=ele.getAttribute('stroke');
			ele.setAttribute('fill','#006fb6');//多边形填充颜色
			ele.setAttribute('stroke','#006fb6');//stroke 多边形 边框颜色
			
		}
		function onAreaOut(evt){
			var ele=evt.target; 
			ele.setAttribute('fill',fdat);
			ele.setAttribute('stroke',sdat);
		}
		</script>
<symbol overflow="visible" id="symbol" style="overflow:visible">
<path d="m 626,156 2,-2 2,-4 0,-3 -1,-3 -4,-3 -6,-3 -5,-2 -4,-2 -4,8 -6,14" id="path9" style="fill:#000000;stroke:none" />
</symbol>
</defs>
<sodipodi:namedview id="base" pagecolor="#ffffff" bordercolor="#666666" borderopacity="1.0" inkscape:pageopacity="0.0" inkscape:pageshadow="2" inkscape:zoom="5.6" inkscape:cx="583.1007" inkscape:cy="273.63795" inkscape:document-units="px" inkscape:current-layer="svg2" showgrid="false" inkscape:window-width="1280" inkscape:window-height="740" inkscape:window-x="-4" inkscape:window-y="-4" inkscape:window-maximized="1" />
<metadata id="metadata7">
<rdf:RDF>
<cc:Work>
<dc:format>
image/svg+xml</dc:format>
<dc:type rdf:resource="http://purl.org/dc/dcmitype/StillImage" />
<dc:title>
</dc:title>
</cc:Work>
</rdf:RDF>
</metadata>
<image xlink:href="anxi_mall_3f.png" width="770" height="530" id="image2834" x="-485" y="255.93361" transform="translate(485,-255.9336)" inkscape:label="Layer 1" inkscape:groupmode="layer" style="display:inline" />
<polygon id="301" points="687.5 130,693 135.5,693 161.5,742.5 161.5,743.5 118,736.5 108.5,746 99.5,732.5 86" fill="#000000" stroke="none" stroke-opacity="0" />
<polygon id="302" points="637 114.5,674 114,689 130,730 88,697 54.5,689 62,674.5 46.5,638 45.5" fill="#000000" stroke="none" stroke-opacity="0" />
<polygon id="303" points="604 45.5,604 116.5,638 116.5,638 44" fill="#000000" stroke="none" stroke-opacity="0" />
<polygon id="304" points="570 45.5,570 115.5,605 115.5,605 45.5" fill="#000000" stroke="none" stroke-opacity="0" />
<polygon id="305-1" points="490.5 80.5,536.5 80.5,536.5 114,571.5 114,571.5 44.5,491 46" fill="#000000" stroke="none" stroke-opacity="0" />
<polygon id="305-2" points="469 44,492 44,492 114,469 114" fill="#000000" stroke="#000000" />
<polygon id="306" points="435 44.5,435 115.5,470 115.5,470 45" fill="#000000" stroke="none" stroke-opacity="0" />
<polygon id="307" points="405.5 46,405.5 115.5,437 115.5,437 44.5" fill="#000000" stroke="none" stroke-opacity="0" />
<polygon id="308" points="365 46,365 117.5,406 117.5,406 46" fill="#000000" stroke="none" stroke-opacity="0" />
<polygon id="309" points="334 45.5,334 115,367 115,367 44" fill="#000000" stroke="none" stroke-opacity="0" />
<polygon id="310" points="300 32,300 115.5,334.5 115.5,334.5 31" fill="#000000" stroke="none" stroke-opacity="0" />
<polygon id="311" points="198.5 32,198.5 116,233.5 116,233.5 80.5,278.5 80.5,278.5 116.5,300.5 116.5,300.5 32.5" fill="#000000" stroke="none" stroke-opacity="0" />
<polygon id="312" points="164.5 45.5,164.5 116.5,200.5 116.5,200.5 44" fill="#000000" stroke="none" stroke-opacity="0" />
<polygon id="313" points="130 45,130 116.5,166.5 116.5,166.5 44.5" fill="#000000" stroke="none" stroke-opacity="0" />
<polygon id="314" points="39 87,81.5 129.5,96 115.5,132 115,131 45.5,94 44,78.5 60.5,73.5 53.5" fill="#000000" stroke="none" stroke-opacity="0" />
<polygon id="315-1" points="27 117,34 107,24 97,37 84,82 129,77 136" fill="#000000" stroke="none" stroke-opacity="0" />
<polygon id="315-2" points="27 116,77 134,75 159,27 159" fill="#000000" stroke="none" stroke-opacity="0" />
<polygon id="316" points="198.5 171,199 223.5,231.5 223.5,231.5 170.5" fill="#000000" stroke="none" stroke-opacity="0" />
<polygon id="317" points="231 170.5,231 222.5,254.5 222.5,254.5 170.5" fill="#000000" stroke="none" stroke-opacity="0" />
<polygon id="318" points="299.5 171,299.5 226,336 226,335 171.5" fill="#000000" stroke="none" stroke-opacity="0" />
<polygon id="319" points="401 188,401 223.5,437 223.5,437 188" fill="#000000" stroke="none" stroke-opacity="0" />
<polygon id="320" points="435.5 171,435.5 223.5,472 224.5,474 171.5" fill="#000000" stroke="none" stroke-opacity="0" />
<polygon id="321" points="516 170.5,516 223.5,538.5 223.5,538.5 171" fill="#000000" stroke="none" stroke-opacity="0" />
<polygon id="322" points="538.5 171,538.5 223,571.5 223,571.5 171.5" fill="#000000" stroke="none" stroke-opacity="0" />
<polygon id="323" points="570.5 224.5,605 223.5,604 170.5,571 170.5" fill="#000000" stroke="none" stroke-opacity="0" />
<polygon id="324-1" points="124 230.5,27 233,29 273,12 273,12 341.5,29.5 341.5,269 339,268.5 222.5,199 222.5,199 171.5,131 170,131 197,124 197" fill="#000000" stroke="none" stroke-opacity="0" />
<polygon id="324-2" points="30 477,30 342,267 341,267 476" fill="#000000" stroke="none" stroke-opacity="0" />
<polygon id="325" points="267 211,298.5 210.5,299.5 224.5,334.5 224,334 187.5,401 188,401 223,472 222.5,516.5 222.5,504 223,504.5 478.5,267 480.5" fill="#000000" stroke="none" stroke-opacity="0" />
<polygon id="326" points="604.5 172,659 172,658 207,705 204,706 231,740 232,742 274,758 273.5,758 340.5,741.5 339.5,743.5 482,504 479.5,503.5 223,604.5 223" fill="#000000" stroke="none" stroke-opacity="0" />

</svg>
