<?xml version="1.0" encoding="UTF-8" standalone="no"?>
<!-- Created with Inkscape (http://www.inkscape.org/) -->

<svg xmlns:dc="http://purl.org/dc/elements/1.1/" xmlns:cc="http://creativecommons.org/ns#" xmlns:rdf="http://www.w3.org/1999/02/22-rdf-syntax-ns#" xmlns:svg="http://www.w3.org/2000/svg" xmlns="http://www.w3.org/2000/svg" xmlns:xlink="http://www.w3.org/1999/xlink" xmlns:sodipodi="http://sodipodi.sourceforge.net/DTD/sodipodi-0.dtd" xmlns:inkscape="http://www.inkscape.org/namespaces/inkscape" width="770" height="800" id="svg2" version="1.1" inkscape:version="0.47pre4 " sodipodi:docname="test.svg" style="display:inline">
<defs id="defs4">
<inkscape:perspective sodipodi:type="inkscape:persp3d" inkscape:vp_x="0 : 526.18109 : 1" inkscape:vp_y="0 : 1000 : 0" inkscape:vp_z="744.09448 : 526.18109 : 1" inkscape:persp3d-origin="372.04724 : 350.78739 : 1" id="perspective10" />
<inkscape:perspective id="perspective2832" inkscape:persp3d-origin="0.5 : 0.33333333 : 1" inkscape:vp_z="1 : 0.5 : 1" inkscape:vp_y="0 : 1000 : 0" inkscape:vp_x="0 : 0.5 : 1" sodipodi:type="inkscape:persp3d" />
<script type="text/ecmascript" id="script6">
		var fdat="",sdat="";
		function onAreaOver(evt){
			var ele=evt.target; 
			fdat=ele.getAttribute('fill'); 
			sdat=ele.getAttribute('stroke');
			ele.setAttribute('fill','#006fb6');//多边形填充颜色
			ele.setAttribute('stroke','#006fb6');//stroke 多边形 边框颜色
			
		}
		function onAreaOut(evt){
			var ele=evt.target; 
			ele.setAttribute('fill',fdat);
			ele.setAttribute('stroke',sdat);
		}
		</script>
<symbol overflow="visible" id="symbol" style="overflow:visible" xmlns="http://www.w3.org/2000/svg">
<path d="m 626,156 2,-2 2,-4 0,-3 -1,-3 -4,-3 -6,-3 -5,-2 -4,-2 -4,8 -6,14" id="path9" style="fill:#000000;stroke:none" />
</symbol>
</defs>
<sodipodi:namedview id="base" pagecolor="#ffffff" bordercolor="#666666" borderopacity="1.0" inkscape:pageopacity="0.0" inkscape:pageshadow="2" inkscape:zoom="5.6" inkscape:cx="583.1007" inkscape:cy="273.63795" inkscape:document-units="px" inkscape:current-layer="svg2" showgrid="false" inkscape:window-width="1280" inkscape:window-height="740" inkscape:window-x="-4" inkscape:window-y="-4" inkscape:window-maximized="1" />
<metadata id="metadata7">
<rdf:RDF>
<cc:Work>
<dc:format>
image/svg+xml</dc:format>
<dc:type rdf:resource="http://purl.org/dc/dcmitype/StillImage" />
<dc:title>
</dc:title>
</cc:Work>
</rdf:RDF>
</metadata>
<image xlink:href="zhengzhou_1_a.jpg" width="770" height="800" id="image2834" x="-485" y="255.93361" transform="translate(485,-255.9336)" inkscape:label="Layer 1" inkscape:groupmode="layer" style="display:inline" />
<polygon id="A14" points="492 122,492 162,515 162,515 122" fill="#000000" stroke="none" stroke-opacity="0" />
<polygon id="A15" points="650 113,650 157,681 157,681 113" fill="#000000" stroke="none" stroke-opacity="0" />
<polygon id="A16" points="693.5 112,693.5 157,723.5 157,723.5 112.5" fill="#000000" stroke="none" stroke-opacity="0" />
<polygon id="A17" points="90 343.5,90 379,118.5 379,118.5 343" fill="#000000" stroke="none" stroke-opacity="0" />
<polygon id="A18" points="127 343,127 379,155 379,155 342.5" fill="#000000" stroke="none" stroke-opacity="0" />
<polygon id="A19" points="165 343.5,165 378.5,192 378.5,192 343" fill="#000000" stroke="none" stroke-opacity="0" />
<polygon id="A20" points="276.5 344,276.5 378.5,303.5 378.5,303.5 344" fill="#000000" stroke="none" stroke-opacity="0" />
<polygon id="A21" points="314 343.5,314 379.5,341 379.5,341 343.5" fill="#000000" stroke="none" stroke-opacity="0" />
<polygon id="A22" points="351.5 344,351.5 379,379.5 379,379.5 343.5" fill="#000000" stroke="none" stroke-opacity="0" />
<polygon id="A27" points="538.5 345.5,538.5 377.5,566 377.5,566 345" fill="#000000" stroke="none" stroke-opacity="0" />
<polygon id="A28" points="576 345,576 377.5,602.5 377.5,602.5 344.5" fill="#000000" stroke="none" stroke-opacity="0" />
<polygon id="A29" points="612 345,612 377,640 377,640 345" fill="#000000" stroke="none" stroke-opacity="0" />
<polygon id="A23" points="304.5 590,304.5 623,316 623,316 590.5" fill="#000000" stroke="none" stroke-opacity="0" />
<polygon id="A24" points="356.5 590.5,356.5 622.5,367.5 622.5,367.5 590.5" fill="#000000" stroke="none" stroke-opacity="0" />
<polygon id="A25" points="565 592,565 625,576 625,576 592.5" fill="#000000" stroke="none" stroke-opacity="0" />
<polygon id="A26" points="616.5 592.5,616.5 625,627 625,627 592.5" fill="#000000" stroke="none" stroke-opacity="0" />


</svg>

