<?xml version="1.0" encoding="UTF-8" standalone="no"?>
<!-- Created with Inkscape (http://www.inkscape.org/) -->

<svg xmlns:dc="http://purl.org/dc/elements/1.1/" xmlns:cc="http://creativecommons.org/ns#" xmlns:rdf="http://www.w3.org/1999/02/22-rdf-syntax-ns#" xmlns:svg="http://www.w3.org/2000/svg" xmlns="http://www.w3.org/2000/svg" xmlns:xlink="http://www.w3.org/1999/xlink" xmlns:sodipodi="http://sodipodi.sourceforge.net/DTD/sodipodi-0.dtd" xmlns:inkscape="http://www.inkscape.org/namespaces/inkscape" width="770" height="360" id="svg2" version="1.1" inkscape:version="0.47pre4 " sodipodi:docname="test.svg" style="display:inline" stroke="#000000">
<defs id="defs4">
<inkscape:perspective sodipodi:type="inkscape:persp3d" inkscape:vp_x="0 : 526.18109 : 1" inkscape:vp_y="0 : 1000 : 0" inkscape:vp_z="744.09448 : 526.18109 : 1" inkscape:persp3d-origin="372.04724 : 350.78739 : 1" id="perspective10" />
<inkscape:perspective id="perspective2832" inkscape:persp3d-origin="0.5 : 0.33333333 : 1" inkscape:vp_z="1 : 0.5 : 1" inkscape:vp_y="0 : 1000 : 0" inkscape:vp_x="0 : 0.5 : 1" sodipodi:type="inkscape:persp3d" />
<script type="text/ecmascript" id="script6">
		var fdat="",sdat="";
		function onAreaOver(evt){
			var ele=evt.target; 
			fdat=ele.getAttribute('fill'); 
			sdat=ele.getAttribute('stroke');
			ele.setAttribute('fill','#006fb6');//多边形填充颜色
			ele.setAttribute('stroke','#006fb6');//stroke 多边形 边框颜色
			
		}
		function onAreaOut(evt){
			var ele=evt.target; 
			ele.setAttribute('fill',fdat);
			ele.setAttribute('stroke',sdat);
		}
		</script>
<symbol overflow="visible" id="symbol" style="overflow:visible">
<path d="m 626,156 2,-2 2,-4 0,-3 -1,-3 -4,-3 -6,-3 -5,-2 -4,-2 -4,8 -6,14" id="path9" style="fill:#000000;stroke:none" />
</symbol>
</defs>
<sodipodi:namedview id="base" pagecolor="#ffffff" bordercolor="#666666" borderopacity="1.0" inkscape:pageopacity="0.0" inkscape:pageshadow="2" inkscape:zoom="5.6" inkscape:cx="583.1007" inkscape:cy="273.63795" inkscape:document-units="px" inkscape:current-layer="svg2" showgrid="false" inkscape:window-width="1280" inkscape:window-height="740" inkscape:window-x="-4" inkscape:window-y="-4" inkscape:window-maximized="1" />
<metadata id="metadata7">
<rdf:RDF>
<cc:Work>
<dc:format>
image/svg+xml</dc:format>
<dc:type rdf:resource="http://purl.org/dc/dcmitype/StillImage" />
<dc:title>
</dc:title>
</cc:Work>
</rdf:RDF>
</metadata>
<image xlink:href="luoyang1_1f_en.png" width="770" height="360" id="image2834" x="-485" y="255.93361" transform="translate(485,-255.9336)" inkscape:label="Layer 1" inkscape:groupmode="layer" style="display:inline" />
<polygon id="02-0111" points="689.25 337.25,689.25 294.75,709.25 294.75,720.5 306,720.5 320.25,710 330.5,703.5 330.5,703.25 337" fill="#000000" stroke="none" stroke-opacity="0" />
<polygon id="02-0112" points="688.5 267.25,689 295,703.5 295.25,703.5 280.5,717.5 267" fill="#000000" stroke="#000000" />
<polygon id="02-0113" points="689 253,689 267,717.75 267,717.25 252.5" fill="#000000" stroke="#000000" />
<polygon id="02-0114" points="696 238.75,696 252.25,717.25 252,716.75 238.5" fill="#000000" stroke="#000000" />
<polygon id="02-0115" points="695.75 238.5,717.25 239.25,716.75 225.75,695.5 225.75" fill="#000000" stroke="#000000" />
<polygon id="02-0116" points="688.75 211.5,716.5 211.5,716.5 197.75,688.5 197.75" fill="#000000" stroke="#000000" />
<polygon id="02-0117" points="688.75 198.25,717 198.25,717 185,688.75 185" fill="#000000" stroke="#000000" />
<polygon id="02-0118" points="688.5 185,717 185.5,721.75 181,691.75 150.75,677 165.25,688.5 177.5" fill="#000000" stroke="#000000" />
<polygon id="02-0119" points="722.5 181,746.75 156.5,716.5 126.25,691.75 150.75" fill="#000000" stroke="#000000" />
<polygon id="02-0120" points="582.25 41.75,613.25 72.75,637.5 48.25,606.75 17.5" fill="#000000" stroke="#000000" />
<polygon id="02-0121" points="599 58,582.25 74.75,568 74.75,568 42,582.25 42" fill="#000000" stroke="#000000" />
<polygon id="02-0122" points="542.25 60.75,555.75 61,555.25 82.5,567 82.25,567.75 41.5,543.25 42" fill="#000000" stroke="#000000" />
<polygon id="02-0123" points="443 42.25,442.75 75.5,450.25 75.25,450.5 82,468.75 82.5,469.5 60.25,465.75 60.25,466.75 41.75" fill="#000000" stroke="#000000" />
<polygon id="02-0124" points="431.75 60.5,443 60.75,442.75 42,432.25 42.25" fill="#000000" stroke="#000000" />
<polygon id="02-0125" points="393.5 60.5,405 61,405 41.75,394.25 41.75" fill="#000000" stroke="#000000" />
<polygon id="02-0126" points="370.25 60.25,393.25 60.75,393.25 40.5,371 40.5" fill="#000000" stroke="#000000" />
<polygon id="02-0127" points="281.5 60.5,293.75 61,292.75 42,281.75 42.25" fill="#000000" stroke="#000000" />
<polygon id="02-0128" points="270 61.25,281.25 61.25,281.5 41.75,269.75 41.75" fill="#000000" stroke="#000000" />
<polygon id="02-0129" points="176 60.25,214 60.25,214.25 92,202.25 103.75,198.25 100,186 105,179 91.5,187.75 86,176 74.5" fill="#000000" stroke="#000000" />
<polygon id="02-0130" points="149.5 114.75,147.5 109.75,178.5 91.25,186 104.75,191 115.75,181 120.25,185.25 131,171.75 136,167.25 128.75,148.75 137,140.75 119.5" fill="#000000" stroke="#000000" />
<polygon id="02-0131" points="149.25 136.75,159.25 160,177.25 150.5,167.5 127.75" fill="#000000" stroke="#000000" />
<polygon id="02-0132" points="97.75 167.75,111.75 161.25,118.5 176.75,103.75 180.25" fill="#000000" stroke="#000000" />
<polygon id="02-0133" points="76.25 146.75,82.5 162.5,93.5 157.5,98 167,112.25 161.25,101 137" fill="#000000" stroke="#000000" />
<polygon id="02-0134" points="49.25 140.75,51 155.75,66.75 152,70 167.75,82 162.25,72.5 136.25" fill="#000000" stroke="#000000" />
<polygon id="02-0135" points="36.75 143,38 163.75,52.25 163,49.5 141" fill="#000000" stroke="#000000" />
<polygon id="02-0136" points="24.75 165.75,38 164.75,36.75 142.25,24.25 143.75" fill="#000000" stroke="#000000" />
<polygon id="02-0137" points="24.75 165.5,24.75 194.75,42 193.75,39.25 164.25" fill="#000000" stroke="#000000" />
<polygon id="02-0138" points="39.75 163.25,52.75 162.75,56.25 191.75,42.25 194" fill="#000000" stroke="#000000" />
<polygon id="02-0139" points="69.75 168.25,71.75 187.75,93.25 183.75,83.5 162.25" fill="#000000" stroke="#000000" />
<polygon id="02-0140" points="84.5 162.5,93.5 185,104.5 181.25,93.75 157.75" fill="#000000" stroke="#000000" />
<polygon id="02-0141" points="109.75 154.25,119.25 177,137 169.25,127.25 146" fill="#000000" stroke="#000000" />
<polygon id="02-0142" points="131 153.5,134.75 152.5,138.25 160.5,151 154,148.25 145.5,152.75 144,158.75 159.5,138.25 169.5" fill="#000000" stroke="#000000" />
<polygon id="02-0143" points="171.75 136.25,177.75 150.75,191 144,185 130.5" fill="#000000" stroke="#000000" />
<polygon id="02-0144" points="191.5 115.75,200.5 137.5,191 144,181.5 120" fill="#000000" stroke="#000000" />
<polygon id="02-0145" points="269.5 60.75,270 82.25,282.5 82.75,282 60.5" fill="#000000" stroke="#000000" />
<polygon id="02-0146" points="269.75 82.5,270.75 109.5,282.25 110.75,282 81" fill="#000000" stroke="#000000" />
<polygon id="02-0147" points="295.25 82,295.25 94.75,304.75 94.5,303.25 110.5,320.5 110.75,321 59.75,305.5 59.75,305 81" fill="#000000" stroke="#000000" />
<polygon id="02-0148" points="321.75 59.75,331.75 60.25,332.75 109.75,321.25 109.75" fill="#000000" stroke="#000000" />
<polygon id="02-0149" points="332 60.25,342.75 60.5,344.25 110.5,332.75 110.5" fill="#000000" stroke="#000000" />
<polygon id="02-0150" points="344 61,344.75 109.75,361.5 110.25,361 94,366.75 94,367.25 81.75,358.75 81.75,358.5 60.5" fill="#000000" stroke="#000000" />
<polygon id="02-0151" points="367.5 61,367.5 110,382.25 110.25,382 61.25" fill="#000000" stroke="#000000" />
<polygon id="02-0152" points="382 61,394 60.75,394.75 110,382.25 111.25" fill="#000000" stroke="#000000" />
<polygon id="02-0153" points="394.25 60.75,405.5 60.75,405.25 82.5,394.25 82.5" fill="#000000" stroke="#000000" />
<polygon id="02-0154" points="394.25 82.5,406 82.75,405.75 110,393.75 110" fill="#000000" stroke="#000000" />
<polygon id="02-0155" points="431.5 60.5,432 82.5,443.5 82.5,442.5 60.75" fill="#000000" stroke="#000000" />
<polygon id="02-0156" points="432 82.25,432.25 110.25,443.5 110.75,443.5 82.5" fill="#000000" stroke="#000000" />
<polygon id="02-0157" points="444.25 82,454.75 81.75,455.25 110.75,444.25 110.75" fill="#000000" stroke="#000000" />
<polygon id="02-0158" points="469.25 82.25,469.25 109.75,494 110,494 82" fill="#000000" stroke="#000000" />
<polygon id="02-0159" points="494.25 82.25,507 82.5,507 110.25,494.75 110.25" fill="#000000" stroke="#000000" />
<polygon id="02-0160" points="526 81.75,526 110.75,540.25 110.75,540.25 81.5" fill="#000000" stroke="#000000" />
<polygon id="02-0161" points="555 83,555 110.25,568.5 110.25,568.5 81.75" fill="#000000" stroke="#000000" />
<polygon id="02-0162" points="568.25 75.5,568 110.25,582.75 110.75,582.75 74.75" fill="#000000" stroke="#000000" />
<polygon id="02-0163" points="583.25 99,586.75 101,613.75 73.5,599 59,582.75 74.25" fill="#000000" stroke="#000000" />
<polygon id="02-0164" points="660.75 182,661.25 196,688.5 195.25,688.75 177.5,677 164.75" fill="#000000" stroke="#000000" />
<polygon id="02-0165" points="650.25 239.5,650 253.25,675.25 253.25,675.25 238.75" fill="#000000" stroke="#000000" />
<polygon id="02-0166" points="649.5 252.75,649.5 266.75,688.75 267.5,688 252.5" fill="#000000" stroke="#000000" />
<polygon id="02-0167" points="649.75 267.25,649 286.75,660.75 287,661.25 281.75,689 280.75,689 268" fill="#000000" stroke="#000000" />
<polygon id="02-0168" points="649.75 309,650.25 323.25,689.75 323.5,689.5 309.5" fill="#000000" stroke="#000000" />
<polygon id="02-0169" points="650.25 323.75,650.25 338.25,689.75 338.75,689.75 322.75" fill="#000000" stroke="#000000" />
<polygon id="02-0183" points="650 295.5,649.5 309,689.75 309,689 294.75" fill="#000000" stroke="#000000" />
<polygon id="02-0188" points="649.25 226.25,661.75 226,661.75 238.75,649.25 239" fill="#000000" stroke="#000000" />
<polygon id="02-0187" points="650.25 212,661.25 212,660.25 181.75,649.75 193.25" fill="#000000" stroke="#000000" />
<polygon id="02-0172" points="455.25 110.75,469.5 110.5,469.75 82.75,456 82.5" fill="#000000" stroke="#000000" />
<polygon id="02-0197" points="213.5 128.5,201.25 137.75,186.25 104.5,198 99.5,202.75 104.5" fill="#000000" stroke="#000000" />
<polygon id="02-0196" points="202.5 103.75,213.75 128.75,230.75 115.75,212.25 92.75" fill="#000000" stroke="#000000" />
<polygon id="02-0195" points="253.5 93.25,253.5 110.25,238.25 110.25,231.25 116.25,212.5 93.25" fill="#000000" stroke="none" stroke-opacity="0" />
<polygon id="02-0194" points="214 73.25,253.75 73.25,253.75 93.5,213 93.5" fill="#000000" stroke="none" stroke-opacity="0" />
<polygon id="02-0195" points="213.5 59.75,253.25 59.75,253.75 74,212.75 73.75" fill="#000000" stroke="none" stroke-opacity="0" />
mlns="http://www.w3.org/2000/svg" /&gt;
<polygon id="02-0189" points="230.5 60,253.75 60.25,253.25 42.5,231.25 19" fill="#000000" stroke="none" stroke-opacity="0" />
<polygon id="02-0190" points="213 61,231 60.5,231.25 19.5,214 19.75" fill="#000000" stroke="none" stroke-opacity="0" />
<polygon id="02-0191" points="198.5 59.75,213.75 60,214.25 20,199.5 19.25" fill="#000000" stroke="none" stroke-opacity="0" />
<polygon id="02-0192" points="176 59.75,199 59.75,199.75 19.25,176 42.25" fill="#000000" stroke="none" stroke-opacity="0" />
<polygon id="02-0184" points="516 81.75,516.5 111.25,526.25 111.25,525.75 81" fill="#000000" stroke="none" stroke-opacity="0" />
<polygon id="09-0166" points="53.5 203.25,85.25 197.75,87.75 208.25,71 232.5,50.5 221.25,46.5 215.75,47 207.75" fill="#000000" stroke="none" stroke-opacity="0" />
<polygon id="09-0191" points="70.75 231.25,83.25 240.75,100.75 217,88 207.5" fill="#000000" stroke="none" stroke-opacity="0" />
<polygon id="09-0194" points="86.75 207.25,100.25 217.25,107.75 207.75,103.75 203.25,105.75 200.75,98 194.5,85.5 197.5" fill="#000000" stroke="none" stroke-opacity="0" />
<polygon id="09-0121" points="105.5 200.25,119.5 211,123 206.75,128 211.25,147 191.5,136 182,112.25 190.25" fill="#000000" stroke="none" stroke-opacity="0" />
<polygon id="09-0189" points="128.25 210.75,132 215.75,127.5 220,136 228.5,159.75 206.25,147 191.25" fill="#000000" stroke="none" stroke-opacity="0" />
<polygon id="09-0119" points="136 228,146 241.25,172.75 222.25,159.5 205" fill="#000000" stroke="none" stroke-opacity="0" />
<polygon id="09-0118" points="146.5 240,155.75 255.25,183.5 239.25,172.25 221" fill="#000000" stroke="none" stroke-opacity="0" />
<polygon id="09-0117" points="155.75 254.75,163 270.75,193.75 256.75,183 237.25" fill="#000000" stroke="none" stroke-opacity="0" />
<polygon id="09-0167" points="83.75 240,92 249.5,124.5 215.5,109.25 203" fill="#000000" stroke="none" stroke-opacity="0" />
<polygon id="09-0169" points="108 267.5,146.75 240,156.25 255.5,115.25 278.75" fill="#000000" stroke="none" stroke-opacity="0" />
<polygon id="09-0170" points="115 278.25,121.5 290.5,163.5 270.5,156 254.75" fill="#000000" stroke="none" stroke-opacity="0" />
<polygon id="09-0171" points="121 290.25,125.75 302,169.5 285.75,163.5 269.5" fill="#000000" stroke="#000000" />
<polygon id="09-0172" points="125.75 301.5,129.5 313.5,174 302.5,170 285" fill="#000000" stroke="#000000" />
<polygon id="09-0173" points="130 313.25,132.25 325.75,178 319.25,174.5 301" fill="#000000" stroke="none" stroke-opacity="0" />
<polygon id="09-0174" points="131.75 325,132.5 339.5,180 336.75,177.5 317.5" fill="#000000" stroke="none" stroke-opacity="0" />
<polygon id="09-0116" points="164.25 269.5,170.5 286.5,201 275.5,193.25 255.25" fill="#000000" stroke="none" stroke-opacity="0" />
<polygon id="09-0115" points="170 284,174.5 303.25,206.75 295.5,200.75 274.5" fill="#000000" stroke="none" stroke-opacity="0" />
<polygon id="09-0114" points="175 302.5,178 320.5,178.25 337,193.75 336.25,202.75 331.25,207.75 323.75,209.75 313,208.75 305.25,206.75 295" fill="#000000" stroke="none" stroke-opacity="0" />
<polygon id="10-0101" points="224.75 315,223.75 345,239.25 345.25,239.25 315.25" fill="#000000" stroke="none" stroke-opacity="0" />
<polygon id="10-0102" points="225 315.25,239.25 315,238.75 294.75,224.25 294.75" fill="#000000" stroke="none" stroke-opacity="0" />
<polygon id="10-0103" points="224.5 295.25,238.5 295.25,238.5 281,224.75 281" fill="#000000" stroke="none" stroke-opacity="0" />
<polygon id="10-0104" points="224.5 266,224.5 281.75,239 281.75,239 265.75" fill="#000000" stroke="none" stroke-opacity="0" />
<polygon id="10-0105" points="225 251,225 266.75,239.25 266.75,239.25 251.25" fill="#000000" stroke="none" stroke-opacity="0" />
<polygon id="10-0106" points="225.25 216.5,225.25 236,239.5 236,239.5 215.75" fill="#000000" stroke="none" stroke-opacity="0" />
<polygon id="10-0107" points="225 196.75,225 216.5,239 216.5,239 196" fill="#000000" stroke="none" stroke-opacity="0" />
<polygon id="10-0108" points="225.5 167.5,239.25 167.5,239 136.75,229.25 138.5,224.25 146" fill="#000000" stroke="none" stroke-opacity="0" />
<polygon id="10-0109" points="239 136.5,253.75 136.75,253.75 167.75,239 167.75" fill="#000000" stroke="none" stroke-opacity="0" />
<polygon id="10-0110" points="239.5 196.75,254.5 196.75,254.5 217,239.25 217" fill="#000000" stroke="none" stroke-opacity="0" />
<polygon id="10-0111" points="239.25 215.75,239.25 236.5,254 236.5,254 215.5" fill="#000000" stroke="none" stroke-opacity="0" />
<polygon id="10-0112" points="239.25 251,254 251,254 267.25,238 267.25" fill="#000000" stroke="none" stroke-opacity="0" />
<polygon id="10-0113" points="239 266.75,253.75 266.75,253.75 281.25,238.5 281.25" fill="#000000" stroke="none" stroke-opacity="0" />
<polygon id="10-0114" points="238.5 281.25,254.25 281.25,254.25 295.75,238.25 295.75" fill="#000000" stroke="none" stroke-opacity="0" />
<polygon id="10-0115" points="239 295.5,254.25 295.5,254.25 314.75,239 314.75" fill="#000000" stroke="none" stroke-opacity="0" />
<polygon id="10-0116" points="239.25 314.25,254 314.25,254 345.75,238.5 345.75" fill="#000000" stroke="none" stroke-opacity="0" />
<polygon id="10-0117" points="266.75 314.5,281.5 314.5,281.5 345,266.75 345" fill="#000000" stroke="none" stroke-opacity="0" />
<polygon id="10-0118" points="295.25 324.75,295.25 345.75,310.5 345.75,310.5 324.25" fill="#000000" stroke="#000000" />
<polygon id="10-0119" points="323.75 315,323.5 345.25,337.75 345,337.75 315.5" fill="#000000" stroke="#000000" />
<polygon id="10-0120" points="337.5 315.25,351.75 315.25,351.75 344.75,337.75 344.75" fill="#000000" stroke="#000000" />
<polygon id="10-0121" points="351.5 314.75,366.25 314.75,366.25 345,352.5 345" fill="#000000" stroke="#000000" />
<polygon id="10-0122" points="366.5 314.75,380 314.75,380 345.25,365.25 345.25" fill="#000000" stroke="#000000" />
<polygon id="10-0123" points="380.5 345.5,394.25 331.25,394.25 314.25,380.5 314.75" fill="#000000" stroke="#000000" />
<polygon id="10-0124" points="395 314.75,405.5 315.25,405.5 294.25,395.25 294.25" fill="#000000" stroke="#000000" />
<polygon id="10-0125" points="380 295,394.5 294,394.5 314,380 314.75" fill="#000000" stroke="#000000" />
<polygon id="10-0126" points="366 295.25,366 315.25,380.5 315.5,380 294.5" fill="#000000" stroke="#000000" />
<polygon id="10-0127" points="365.5 294.75,365.5 314.25,351.75 314.75,351.75 294.75" fill="#000000" stroke="#000000" />
<polygon id="10-0128" points="337 315,351.5 314.75,351.25 294,337 294" fill="#000000" stroke="#000000" />
<polygon id="10-0129" points="337 294.5,336.25 315.25,324 314.75,323 294.75" fill="#000000" stroke="#000000" />
<polygon id="10-0130" points="288 294.75,288 310.25,310.25 311,310 295" fill="#000000" stroke="#000000" />
<polygon id="10-0131" points="266.75 315,281.25 315.5,281.75 294.5,267 294.5" fill="#000000" stroke="#000000" />
<polygon id="10-0132" points="267 266.5,281.5 266.25,282 285.25,267 285.75" fill="#000000" stroke="#000000" />
<polygon id="10-0133" points="282 265.75,295.75 266,295.75 285,282 284.75" fill="#000000" stroke="#000000" />
<polygon id="10-0134" points="296 265.75,310.5 265.75,310 285.25,295.25 285.25" fill="#000000" stroke="#000000" />
<polygon id="10-0135" points="310 266,324 266.25,324 285.5,310.75 285.75" fill="#000000" stroke="#000000" />
<polygon id="10-0136" points="324.25 284.75,338 285.25,337.75 265.5,324.5 265.5" fill="#000000" stroke="#000000" />
<polygon id="10-0137" points="337.75 266,352.25 266,352.25 285,338.5 285.25" fill="#000000" stroke="#000000" />
<polygon id="10-0138" points="353 285.25,366.25 284.75,365.75 265.75,352.5 265.5" fill="#000000" stroke="#000000" />
<polygon id="10-0139" points="366.25 265.75,379.75 266.25,380 285.25,366.25 285.5" fill="#000000" stroke="#000000" />
<polygon id="10-0140" points="380.5 265.75,394.5 265.75,394.5 285.5,380.75 285.75" fill="#000000" stroke="#000000" />
<polygon id="10-0141" points="394.75 266,406 265.75,405.5 285,395 285.75" fill="#000000" stroke="#000000" />
<polygon id="10-0142" points="394 246.25,394.5 265.5,405.75 266,406 254,402.75 247.25" fill="#000000" stroke="#000000" />
<polygon id="10-0143" points="380 265,394.75 265.5,394.25 246.25,379.75 246.25" fill="#000000" stroke="#000000" />
<polygon id="10-0144" points="366 265.5,380 265.5,379.5 246.25,365.75 246.25" fill="#000000" stroke="#000000" />
<polygon id="10-0145" points="351.25 265.75,365.75 266,365.5 245.5,352 245.75" fill="#000000" stroke="#000000" />
<polygon id="10-0146" points="337.25 265.75,351.5 265.25,351 245.5,337.25 246" fill="#000000" stroke="#000000" />
<polygon id="10-0147" points="337 245.75,323.5 246,323.5 265.5,336.25 266.25" fill="#000000" stroke="#000000" />
<polygon id="10-0148" points="323.25 245.75,309.25 245.5,309.25 266.25,323.5 265.75" fill="#000000" stroke="#000000" />
<polygon id="10-0149" points="309 246,294.75 245.75,295 266,309.25 266.25" fill="#000000" stroke="#000000" />
<polygon id="10-0150" points="295 245.5,281.25 245.75,280.75 266.25,294.75 266.25" fill="#000000" stroke="#000000" />
<polygon id="10-0151" points="281 245.5,267.25 246,266.5 266,280.75 266" fill="#000000" stroke="#000000" />
<polygon id="10-0152" points="267 216.25,281.25 215.75,281.5 235.75,266.75 236.25" fill="#000000" stroke="#000000" />
<polygon id="10-0153" points="281.5 216.25,295.5 216.5,295.5 236.25,281.25 235.75" fill="#000000" stroke="#000000" />
<polygon id="10-0154" points="295.75 216.25,309.25 216.25,310 235.75,295 236.5" fill="#000000" stroke="#000000" />
<polygon id="10-0155" points="309.25 216.25,323.25 216.25,324 236.75,310 236.25" fill="#000000" stroke="#000000" />
<polygon id="10-0156" points="323.25 216.25,338.25 215.75,338 236.25,323.75 236.25" fill="#000000" stroke="#000000" />
<polygon id="10-0157" points="338.5 216.5,352 216.25,352.25 236,336.75 236.25" fill="#000000" stroke="#000000" />
<polygon id="10-0158" points="352.25 216,365.5 216.5,366.25 236.25,352.5 235.75" fill="#000000" stroke="#000000" />
<polygon id="10-0159" points="365.5 216.75,379.25 216.5,380.5 236.25,365 236.25" fill="#000000" stroke="#000000" />
<polygon id="10-0160" points="379.5 216,394.5 216,394.5 236,379.5 236" fill="#000000" stroke="#000000" />
<polygon id="10-0161" points="394 216,394 197,379.5 197,379.5 216.5" fill="#000000" stroke="#000000" />
<polygon id="10-0162" points="379.5 196.75,365.25 196.75,365.25 217.5,379 217.5" fill="#000000" stroke="#000000" />
<polygon id="10-0163" points="365 196.5,351.25 196.5,351.25 217,365 217" fill="#000000" stroke="#000000" />
<polygon id="10-0164" points="351.5 197,337.75 197,337.75 216.75,351.5 216.75" fill="#000000" stroke="#000000" />
<polygon id="10-0165" points="337.5 196.5,323.25 196.5,323.25 216.75,337.5 216.75" fill="#000000" stroke="#000000" />
<polygon id="10-0166" points="323.75 197,309.5 197,309.5 216.25,322.75 216.25" fill="#000000" stroke="#000000" />
<polygon id="10-0167" points="309.25 197,295.25 197.25,295.25 215.75,309.25 216" fill="#000000" stroke="#000000" />
<polygon id="10-0168" points="295.5 197.25,281 197.25,280.75 216.25,295.5 216.5" fill="#000000" stroke="#000000" />
<polygon id="10-0169" points="281 196.75,281 215.75,266.5 215.75,266.5 196.75" fill="#000000" stroke="#000000" />
<polygon id="10-0170" points="267 167.25,267 187.5,282.25 187.5,282.25 167.25" fill="#000000" stroke="#000000" />
<polygon id="10-0171" points="281.5 167.5,295.75 167.5,295.75 187.5,282.25 187.5" fill="#000000" stroke="#000000" />
<polygon id="10-0172" points="295.5 167,309.75 167,309.75 187,295.5 187" fill="#000000" stroke="#000000" />
<polygon id="10-0173" points="309.5 166.5,323.5 166.5,323.5 187.25,309 187.25" fill="#000000" stroke="#000000" />
<polygon id="10-0174" points="323.75 167,338 167,338 187.25,324 187.25" fill="#000000" stroke="#000000" />
<polygon id="10-0175" points="337.5 167.25,351.75 167,352 186.75,337.75 186.75" fill="#000000" stroke="#000000" />
<polygon id="10-0176" points="352 167,366 167,366.25 187,352.25 187.25" fill="#000000" stroke="#000000" />
<polygon id="10-0177" points="365.75 175.25,380.25 175.25,380.25 187,366.5 187" fill="#000000" stroke="#000000" />
<polygon id="10-0178" points="394.25 166.75,404.75 166.75,404.75 186.75,394.5 186.75" fill="#000000" stroke="#000000" />
<polygon id="10-0179" points="393.5 146.75,405.5 146.75,405.5 167.75,394.25 167.75" fill="#000000" stroke="#000000" />
<polygon id="10-0180" points="365.5 147,382.5 147,382.5 160.5,365.75 160.5" fill="#000000" stroke="#000000" />
<polygon id="10-0181" points="365.5 146.5,365.5 166.5,351.75 166.5,351.75 146.75" fill="#000000" stroke="#000000" />
<polygon id="10-0182" points="351.5 146.5,351.5 166.75,337 166.75,337 146.5" fill="#000000" stroke="#000000" />
<polygon id="10-0183" points="337.25 146.25,337.25 166.75,323.25 166.75,323.25 146.25" fill="#000000" stroke="#000000" />
<polygon id="10-0184" points="323 136.75,323 166.25,309 166.25,309 137.5" fill="#000000" stroke="#000000" />
<polygon id="10-0185" points="295 167.25,308.75 167.25,308.75 136.75,294.5 136.75" fill="#000000" stroke="#000000" />
<polygon id="10-0186" points="280.75 166.75,294.25 166.75,294.25 136,281 136" fill="#000000" stroke="#000000" />
<polygon id="10-0187" points="281 136,281 167.5,266.25 167.5,266.25 137.75,269.75 137" fill="#000000" stroke="#000000" />
<polygon id="10-0188" points="281.5 325,294.25 324.75,295 345.75,282 344.75" fill="#000000" stroke="#000000" />
<polygon id="10-0189" points="310.25 309.5,323.25 309.75,323.25 294.75,310.75 294.75" fill="#000000" stroke="#000000" />
<polygon id="10-0190" points="225 183.75,254 183.75,254.5 197.75,225.75 196.75" fill="#000000" stroke="#000000" />
<polygon id="10-0191" points="225.25 183.5,253.75 183.25,254 167,225.25 166.25" fill="#000000" stroke="#000000" />
<polygon id="12-1101" points="597.75 315,622.75 314.75,623.25 345.25,597.5 345.75" fill="#000000" stroke="#000000" />
<polygon id="12-1102" points="597.25 284.75,623.5 285.5,623.5 265.75,597.75 265.5" fill="#000000" stroke="#000000" />
<polygon id="12-1103" points="597.75 265.25,623.5 265.5,622.75 251.25,597.75 251" fill="#000000" stroke="#000000" />
<polygon id="12-1104" points="597.25 216.5,612.5 216.25,612.25 236.5,597.5 236" fill="#000000" stroke="#000000" />
<polygon id="12-1105" points="596.75 200.75,612.25 200.75,612.75 216,597.75 216.5" fill="#000000" stroke="#000000" />
<polygon id="12-1106" points="597.5 186.75,612 186.75,612 201.25,598.25 201.25" fill="#000000" stroke="#000000" />
<polygon id="12-1107" points="597.5 167,612 167,612 187.75,597.5 187.75" fill="#000000" stroke="#000000" />
<polygon id="12-1108" points="597.5 167,612.5 167,612.5 147.5,609.25 142,604.75 137.75,596.75 137.25" fill="#000000" stroke="#000000" />
<polygon id="12-1109" points="582.75 167.5,597.25 167.5,597.25 136.5,583 136.5" fill="#000000" stroke="#000000" />
<polygon id="12-1110" points="583 167.25,583 187,598 187,598 167.75" fill="#000000" stroke="#000000" />
<polygon id="12-1111" points="583 186.75,583 201.25,597.5 201.25,597.5 186.5" fill="#000000" stroke="#000000" />
<polygon id="12-1112" points="583 201.25,583 216.25,597 216.25,597 201" fill="#000000" stroke="#000000" />
<polygon id="12-1113" points="583 216.25,583 236.25,597.5 236.25,597.5 215.75" fill="#000000" stroke="#000000" />
<polygon id="12-1114" points="582.75 251.5,597.75 251.5,597.75 266.25,583.5 266.25" fill="#000000" stroke="#000000" />
<polygon id="12-1115" points="583 266.75,597.25 266.75,597.25 285,582.75 285" fill="#000000" stroke="#000000" />
<polygon id="12-1116" points="582.75 314.75,598 314.75,598 345,582.25 345" fill="#000000" stroke="#000000" />
<polygon id="12-1117" points="555.5 315,569.5 315,569.5 345.75,555 345.75" fill="#000000" stroke="#000000" />
<polygon id="12-1118" points="540.75 315,556 315,556 345.25,540.5 345.25" fill="#000000" stroke="#000000" />
<polygon id="12-1119" points="527 315,541.5 315,541.5 345.25,527 345.25" fill="#000000" stroke="#000000" />
<polygon id="12-1120" points="513 335,527.25 335,527.25 314,513.25 314" fill="#000000" stroke="#000000" />
<polygon id="12-1121" points="498.5 334.75,512.25 334.75,512.25 314.5,499.25 314.5" fill="#000000" stroke="#000000" />
<polygon id="12-1122" points="485 335.25,498.75 335.25,498.75 314.25,484.75 314.25" fill="#000000" stroke="#000000" />
<polygon id="12-1123" points="485 335,471 335,471 314,484.5 314" fill="#000000" stroke="#000000" />
<polygon id="12-1124" points="451.25 334.5,468.25 334.5,468.25 321.5,441 321.5" fill="#000000" stroke="#000000" />
<polygon id="12-1125" points="431.5 315,443.25 315,443.25 294.25,431.75 294.25" fill="#000000" stroke="#000000" />
<polygon id="12-1126" points="457 294.75,471.75 294.75,471.75 307.5,456.75 307.5" fill="#000000" stroke="#000000" />
<polygon id="12-1127" points="471.75 295.25,485.5 295.25,485.5 314,471 314" fill="#000000" stroke="#000000" />
<polygon id="12-1128" points="485.5 295,499.5 295,499.5 313.5,486 313.5" fill="#000000" stroke="#000000" />
<polygon id="12-1129" points="499 295.25,513.25 295.25,513.25 314.75,498.5 314.75" fill="#000000" stroke="#000000" />
<polygon id="12-1130" points="513 295,527.75 295.25,527.25 314,513.5 314" fill="#000000" stroke="#000000" />
<polygon id="12-1131" points="527.25 294.75,541.75 294.75,541.75 315.25,528 315.25" fill="#000000" stroke="#000000" />
<polygon id="12-1132" points="541.75 295.25,555.5 295.25,555.5 314.75,542.5 314.75" fill="#000000" stroke="#000000" />
<polygon id="12-1133" points="555.5 295,570.5 295,570.5 315.75,555.75 315.75" fill="#000000" stroke="#000000" />
<polygon id="12-1134" points="555 265.75,570 265.75,570 285.5,555 285.5" fill="#000000" stroke="#000000" />
<polygon id="12-1135" points="555.25 265.75,555.25 285.25,540.75 285.25,540.75 265.75" fill="#000000" stroke="#000000" />
<polygon id="12-1136" points="541.25 266,541.25 285.25,526 285.25,526 266.25" fill="#000000" stroke="#000000" />
<polygon id="12-1137" points="527 266.25,527 284.75,513 284.75,513 265" fill="#000000" stroke="#000000" />
<polygon id="12-1138" points="512.75 265.75,512.75 285.5,499.5 285.5,499.5 265.25" fill="#000000" stroke="#000000" />
<polygon id="12-1139" points="499.75 265.75,499.75 285,485 285,485 266" fill="#000000" stroke="#000000" />
<polygon id="12-1140" points="484.75 265.75,484.75 284.5,471.25 284.5,471.25 265.25" fill="#000000" stroke="#000000" />
<polygon id="12-1141" points="470.75 266,470.75 285.25,456.75 285.25,456.75 266" fill="#000000" stroke="#000000" />
<polygon id="12-1142" points="443 265.5,456.75 265.5,456.75 285.25,443 285.25" fill="#000000" stroke="#000000" />
<polygon id="12-1143" points="432 266,443.5 266,443.5 285.5,431.75 285.5" fill="#000000" stroke="#000000" />
<polygon id="12-1144" points="431.75 266,443 266,443 246.25,434.5 247,432 252" fill="#000000" stroke="#000000" />
<polygon id="12-1145" points="443.5 246,457.5 246,457.5 265.5,443.75 265.5" fill="#000000" stroke="#000000" />
<polygon id="12-1146" points="457.75 245.5,471.25 245.5,471.25 266.25,457.75 266.25" fill="#000000" stroke="#000000" />
<polygon id="12-1147" points="472 246.25,485.5 246.25,485.5 266,471.75 266" fill="#000000" stroke="#000000" />
<polygon id="12-1148" points="485.75 245.75,499 245.75,499 266,485.25 266" fill="#000000" stroke="#000000" />
<polygon id="12-1149" points="499.5 245.75,513.5 245.75,513.5 266.25,499.75 266.25" fill="#000000" stroke="#000000" />
<polygon id="12-1150" points="513.75 245.75,526.75 245.75,526.75 265.75,513.75 265.75" fill="#000000" stroke="#000000" />
<polygon id="12-1151" points="527.5 245.75,541 245.75,541 266.25,527.5 266.25" fill="#000000" stroke="#000000" />
<polygon id="12-1152" points="541.25 245.75,555.25 245.75,555.25 265.75,541.75 265.75" fill="#000000" stroke="#000000" />
<polygon id="12-1153" points="556 246,569.75 246,569.75 265.75,556.25 265.75" fill="#000000" stroke="#000000" />
<polygon id="12-1154" points="570 236.75,570 216.5,555 216.5,555 236.5" fill="#000000" stroke="#000000" />
<polygon id="12-1155" points="554.5 216.75,554.5 237,540.5 237,540.5 216.25" fill="#000000" stroke="#000000" />
<polygon id="12-1156" points="541 216.25,541 237,526.75 237,526.75 216" fill="#000000" stroke="#000000" />
<polygon id="12-1157" points="526.75 216.75,526.75 237.25,512 237.25,512 216" fill="#000000" stroke="#000000" />
<polygon id="12-1158" points="512.75 216.75,512.75 237.5,498.75 237.5,498.75 216.5" fill="#000000" stroke="#000000" />
<polygon id="12-1159" points="499.25 216,499.25 237.5,484.5 237.5,484.5 216" fill="#000000" stroke="#000000" />
<polygon id="12-1160" points="471 237,484.25 237,484.25 215.25,471 215.25" fill="#000000" stroke="#000000" />
<polygon id="12-1161" points="456 237.25,470.25 237.25,470.25 215.5,456.75 215.5" fill="#000000" stroke="#000000" />
<polygon id="12-1162" points="456.5 216.5,442.5 216.5,442.5 236.75,456.75 236.75" fill="#000000" stroke="#000000" />
<polygon id="12-1163" points="442.25 196.75,442.25 216,457.5 216,457.5 196.75" fill="#000000" stroke="#000000" />
<polygon id="12-1164" points="457.25 196.75,457.25 215.75,471.25 215.75,471.25 196.5" fill="#000000" stroke="#000000" />
<polygon id="12-1165" points="471.5 196.5,471.5 215.25,485.25 215.25,485.25 196.75" fill="#000000" stroke="#000000" />
<polygon id="12-1166" points="485.75 196.5,485.75 216,499.25 216,499.25 197" fill="#000000" stroke="#000000" />
<polygon id="12-1167" points="499.5 197,499.5 217,513.75 217,513.75 196.5" fill="#000000" stroke="#000000" />
<polygon id="12-1168" points="513.25 197,527.75 197,527.75 217,514.5 217" fill="#000000" stroke="#000000" />
<polygon id="12-1169" points="528 196.75,541.5 196.75,541.5 217.25,527.25 217.25" fill="#000000" stroke="#000000" />
<polygon id="12-1170" points="541.75 196.5,555.75 196.5,555.75 218.25,542 218.25" fill="#000000" stroke="#000000" />
<polygon id="12-1171" points="556.25 197,569.75 197,569.75 217.25,555.75 217.25" fill="#000000" stroke="#000000" />
<polygon id="12-1172" points="555.25 167,555.25 187.75,569.75 187.75,569.75 166.75" fill="#000000" stroke="#000000" />
<polygon id="12-1173" points="527.25 172.25,527.25 187.5,548 187.5,548 171.5" fill="#000000" stroke="#000000" />
<polygon id="12-1174" points="513 166.5,513 187,498.75 187,498.75 166.5" fill="#000000" stroke="#000000" />
<polygon id="12-1175" points="498.25 167,498.25 187,485.75 187,485.75 167" fill="#000000" stroke="#000000" />
<polygon id="12-1176" points="470.5 167,485.75 167,485.75 187,469.5 187" fill="#000000" stroke="#000000" />
<polygon id="12-1177" points="456.75 187.25,471.5 187.25,471.5 166.5,457 166.5" fill="#000000" stroke="#000000" />
<polygon id="12-1178" points="456.75 187,456.75 165.75,442.75 165.75,442.75 187" fill="#000000" stroke="#000000" />
<polygon id="12-1179" points="442.5 187.75,442.5 171,432.25 171,432.25 187.25" fill="#000000" stroke="#000000" />
<polygon id="12-1180" points="431.5 158.25,442.75 158.25,442.75 136.5,431.75 148" fill="#000000" stroke="#000000" />
<polygon id="12-1181" points="443.25 137,443.25 165.5,456.75 165.5,456.75 137" fill="#000000" stroke="#000000" />
<polygon id="12-1182" points="456.75 136.5,470.75 136.5,470.75 166.25,457.5 166.25" fill="#000000" stroke="#000000" />
<polygon id="12-1183" points="471.25 137,485 137,485 167,471.75 167" fill="#000000" stroke="#000000" />
<polygon id="12-1184" points="485.5 136.75,499.75 136.75,499.75 166.25,485.5 166.25" fill="#000000" stroke="#000000" />
<polygon id="12-1185" points="500.25 137,513.75 137,513.75 166.25,500.75 166.25" fill="#000000" stroke="#000000" />
<polygon id="12-1186" points="523.5 137,523.5 157,542 157,542 137" fill="#000000" stroke="#000000" />
<polygon id="12-1187" points="554.75 136.75,554.75 166.25,570.25 166.25,570.25 137.25" fill="#000000" stroke="#000000" />
<polygon id="12-1188" points="542.25 157.5,554.25 157.5,554.25 136.75,542.25 136.75" fill="#000000" stroke="#000000" />
<polygon id="12-1189" points="597.75 284.5,598 298,623.5 297.75,623.5 285.5" fill="#000000" stroke="#000000" />
<polygon id="12-1190" points="582.5 284.75,583.25 298.75,597.75 298.75,597.5 285.25" fill="#000000" stroke="#000000" />
<polygon id="12-1191" points="611.25 298.75,611.75 305.5,623.75 305.25,623.75 297.5" fill="#000000" stroke="#000000" />
<polygon id="12-1192" points="443.75 293.75,457 294.25,457 307.25,443.75 307.25" fill="#000000" stroke="#000000" />
<polygon id="12-1193" points="513.25 171.75,527 171.75,527 187,513 187" fill="#000000" stroke="#000000" />
</svg>
