<?xml version="1.0" encoding="UTF-8" standalone="no"?>
<!-- Created with Inkscape (http://www.inkscape.org/) -->

<svg xmlns:dc="http://purl.org/dc/elements/1.1/" xmlns:cc="http://creativecommons.org/ns#" xmlns:rdf="http://www.w3.org/1999/02/22-rdf-syntax-ns#" xmlns:svg="http://www.w3.org/2000/svg" xmlns="http://www.w3.org/2000/svg" xmlns:xlink="http://www.w3.org/1999/xlink" xmlns:sodipodi="http://sodipodi.sourceforge.net/DTD/sodipodi-0.dtd" xmlns:inkscape="http://www.inkscape.org/namespaces/inkscape" width="770" height="410" id="svg2" version="1.1" inkscape:version="0.47pre4 " sodipodi:docname="test.svg" style="display:inline" stroke="#000000">
<defs id="defs4">
<inkscape:perspective sodipodi:type="inkscape:persp3d" inkscape:vp_x="0 : 526.18109 : 1" inkscape:vp_y="0 : 1000 : 0" inkscape:vp_z="744.09448 : 526.18109 : 1" inkscape:persp3d-origin="372.04724 : 350.78739 : 1" id="perspective10" />
<inkscape:perspective id="perspective2832" inkscape:persp3d-origin="0.5 : 0.33333333 : 1" inkscape:vp_z="1 : 0.5 : 1" inkscape:vp_y="0 : 1000 : 0" inkscape:vp_x="0 : 0.5 : 1" sodipodi:type="inkscape:persp3d" />
<script type="text/ecmascript" id="script6">
		var fdat="",sdat="";
		function onAreaOver(evt){
			var ele=evt.target; 
			fdat=ele.getAttribute('fill'); 
			sdat=ele.getAttribute('stroke');
			ele.setAttribute('fill','#006fb6');//多边形填充颜色
			ele.setAttribute('stroke','#006fb6');//stroke 多边形 边框颜色
			
		}
		function onAreaOut(evt){
			var ele=evt.target; 
			ele.setAttribute('fill',fdat);
			ele.setAttribute('stroke',sdat);
		}
		</script>
<symbol overflow="visible" id="symbol" style="overflow:visible">
<path d="m 626,156 2,-0 2,-4 0,-3 -1,-3 -4,-3 -6,-3 -5,-0 -4,-0 -4,8 -6,14" id="path9" style="fill:#000000;stroke:none" />
</symbol>
</defs>
<sodipodi:namedview id="base" pagecolor="#ffffff" bordercolor="#666666" borderopacity="1.0" inkscape:pageopacity="0.0" inkscape:pageshadow="2" inkscape:zoom="5.6" inkscape:cx="583.1007" inkscape:cy="273.63795" inkscape:document-units="px" inkscape:current-layer="svg2" showgrid="false" inkscape:window-width="1280" inkscape:window-height="740" inkscape:window-x="-4" inkscape:window-y="-4" inkscape:window-maximized="1" />
<metadata id="metadata7">
<rdf:RDF>
<cc:Work>
<dc:format>
				image/svg+xml</dc:format>
<dc:type rdf:resource="http://purl.org/dc/dcmitype/StillImage" />
<dc:title>
</dc:title>
</cc:Work>
</rdf:RDF>
</metadata>
<image xlink:href="luoyang1_2f_es.png" width="770" height="480" id="image2834" x="-485" y="255.93361" transform="translate(485,-055.9336)" inkscape:label="Layer 1" inkscape:groupmode="layer" style="display:inline" />
<polygon id="01-0205" points="149.25 373.25,164.25 370.75,172 429.75,155.75 432.75" fill="#000000" stroke="none" stroke-opacity="0" />
<polygon id="01-0206" points="164.5 371,180.5 369.75,188.25 428.25,172.25 429.25" fill="#000000" stroke="none" stroke-opacity="0" />
<polygon id="01-0207" points="180.25 369.75,196.75 367.25,204.5 425.25,188.25 428" fill="#000000" stroke="none" stroke-opacity="0" />
<polygon id="01-0208" points="196 367.5,212.25 364.5,221.25 423.5,204.5 424.75" fill="#000000" stroke="none" stroke-opacity="0" />
<polygon id="01-0209" points="212 365,227.75 362.5,238 420.5,220.5 423.5" fill="#000000" stroke="none" stroke-opacity="0" />
<polygon id="01-0210" points="227.5 362.5,243.5 359.5,253.25 417.5,237.5 420" fill="#000000" stroke="none" stroke-opacity="0" />
<polygon id="01-0211" points="243 359.75,257.5 356.75,268.75 414.75,253 418" fill="#000000" stroke="none" stroke-opacity="0" />
<polygon id="01-0212" points="257.25 357.5,274.5 353.75,286.25 411.25,268.5 415.25" fill="#000000" stroke="none" stroke-opacity="0" />
<polygon id="01-0213" points="274.25 353,290.75 350.5,302 408.5,285.75 411" fill="#000000" stroke="none" stroke-opacity="0" />
<polygon id="01-0214" points="296.5 382.25,312.75 378.75,305.5 346.5,290.5 349.75" fill="#000000" stroke="none" stroke-opacity="0" />
<polygon id="01-0215" points="305.25 346.75,320.75 343,328.75 375.25,312.5 378.75" fill="#000000" stroke="none" stroke-opacity="0" />
<polygon id="01-0216" points="320.5 343,333.25 340,341.25 373,328.75 375.75" fill="#000000" stroke="none" stroke-opacity="0" />
<polygon id="01-0217" points="333.25 340.25,351.5 334.5,366.5 392.5,347.25 398" fill="#000000" stroke="none" stroke-opacity="0" />
<polygon id="01-0218" points="351 335.25,367 331.25,382.75 388.75,366.25 392.25" fill="#000000" stroke="none" stroke-opacity="0" />
<polygon id="01-0219" points="366.75 331.5,382.25 326.5,398.5 384.25,382.25 388.75" fill="#000000" stroke="none" stroke-opacity="0" />
<polygon id="01-0220" points="412.5 317.75,427.5 312.75,445.75 369,430.25 374" fill="#000000" stroke="none" stroke-opacity="0" />
<polygon id="01-0221" points="427.25 313.25,442.5 307.5,460.75 363.75,445.75 369" fill="#000000" stroke="none" stroke-opacity="0" />
<polygon id="01-0222" points="442.25 307.25,458.25 303.25,477.25 358,460.75 362.5" fill="#000000" stroke="none" stroke-opacity="0" />
<polygon id="01-0223" points="457.25 303,474 297,492.75 351.75,477 358.5" fill="#000000" stroke="none" stroke-opacity="0" />
<polygon id="01-0224" points="473.75 297,488 292.5,508.5 347.25,492.25 352.5" fill="#000000" stroke="none" stroke-opacity="0" />
<polygon id="01-0225" points="488.25 292.25,502.5 287,523.25 341.25,508 347.5" fill="#000000" stroke="none" stroke-opacity="0" />
<polygon id="01-0226" points="513.25 282.5,524.75 277.75,535.75 304,523.75 309" fill="#000000" stroke="none" stroke-opacity="0" />
<polygon id="01-0277" points="382 326.5,397.75 322,414.5 379.25,399 384.75" fill="#000000" stroke="none" stroke-opacity="0" />
<polygon id="01-0276" points="502.25 286.5,513.75 282.25,524.5 309.25,511.75 315" fill="#000000" stroke="none" stroke-opacity="0" />
<polygon id="01-0253" points="49.5 302,65.5 301.25,67.5 331.75,51.25 332.25" fill="#000000" stroke="#000000" />
<polygon id="01-0254" points="49 272.75,63.75 272.25,65.25 302.25,50 302" fill="#000000" stroke="#000000" />
<polygon id="01-0255" points="63.5 272,79.5 271,80.5 301,66 301.75" fill="#000000" stroke="#000000" />
<polygon id="01-0256" points="79.5 271.25,93.25 270.25,95.5 299.75,81 300.75" fill="#000000" stroke="#000000" />
<polygon id="01-0257" points="92.75 270.25,108.25 268.75,110.5 298.75,95.5 300.25" fill="#000000" stroke="#000000" />
<polygon id="01-0258" points="108 268.75,122.75 267.75,125.25 296.75,111 299" fill="#000000" stroke="#000000" />
<polygon id="01-0259" points="123 267.25,136.75 266.25,140.25 295,126.25 296.25" fill="#000000" stroke="#000000" />
<polygon id="01-0260" points="136.75 265.75,151.75 264.5,155 293,140.75 295.25" fill="#000000" stroke="#000000" />
<polygon id="01-0261" points="151.75 264,167 262.25,170 292.25,155.25 293.5" fill="#000000" stroke="#000000" />
<polygon id="01-0262" points="167 261.75,181.25 261,184.75 289,170.25 291.5" fill="#000000" stroke="#000000" />
<polygon id="01-0263" points="194.5 258,197.25 272.25,212.25 270.25,209.75 256" fill="#000000" stroke="#000000" />
<polygon id="01-0264" points="209.75 255.75,223.5 253.5,226.5 267.5,213 269.75" fill="#000000" stroke="#000000" />
<polygon id="01-0265" points="223.75 253.25,237.75 251.25,240.25 264.5,227.25 267.5" fill="#000000" stroke="#000000" />
<polygon id="01-0266" points="237.75 250.5,252.5 248.25,258.5 277,243 280.25" fill="#000000" stroke="#000000" />
<polygon id="01-0267" points="252.75 247.5,267 245.5,273.75 272.25,258.25 277.25" fill="#000000" stroke="#000000" />
<polygon id="01-0268" points="266.5 245,281.75 242,287.25 270,272.75 273.5" fill="#000000" stroke="#000000" />
<polygon id="01-0269" points="281.25 242,296.25 238.25,303.5 267,287 270.75" fill="#000000" stroke="#000000" />
<polygon id="01-0270" points="314.5 254.5,329.5 251,324 231.5,310 235.5" fill="#000000" stroke="#000000" />
<polygon id="01-0271" points="328 244.75,356.5 237.75,354.5 229.75,329 229.5,323 230.75" fill="#000000" stroke="#000000" />
<polygon id="01-0272" points="355 229.75,370 230.25,375.25 248,359.25 252.25" fill="#000000" stroke="#000000" />
<polygon id="01-0273" points="369.75 229.75,385.5 230,388.75 243.25,375 247" fill="#000000" stroke="#000000" />
<polygon id="01-0274" points="385.75 229.75,409.25 229.5,418.25 233.25,402.75 238.75,390 243" fill="#000000" stroke="#000000" />
<polygon id="01-0232" points="403.5 238.25,419 233.5,425 242.75,424 253.75,418 263.75,412.25 266.75" fill="#000000" stroke="#000000" />
<polygon id="01-0233" points="389.5 243,397 270.5,412.25 267.5,403.25 239" fill="#000000" stroke="#000000" />
<polygon id="01-0234" points="374.25 247.75,383.75 275.5,397.25 271.25,389 243" fill="#000000" stroke="#000000" />
<polygon id="01-0235" points="359.75 251.75,368.25 279.75,383.25 276,374.75 247.25" fill="#000000" stroke="#000000" />
<polygon id="01-0236" points="345.5 255.5,360 251.75,367.75 280,353.75 283.75" fill="#000000" stroke="#000000" />
<polygon id="01-0237" points="331.25 259.75,345.75 255.5,354 284.75,339.25 288" fill="#000000" stroke="#000000" />
<polygon id="01-0238" points="316.5 262.75,331 259.5,338.75 288,324.25 293" fill="#000000" stroke="#000000" />
<polygon id="01-0239" points="287.75 270.5,294.5 298.5,309.5 294,303.25 267.25" fill="#000000" stroke="#000000" />
<polygon id="01-0240" points="273 273,279.5 302.5,294.5 298.5,287.5 269.5" fill="#000000" stroke="#000000" />
<polygon id="01-0241" points="258.75 276,264.5 306,279.25 303,273.25 273.5" fill="#000000" stroke="#000000" />
<polygon id="01-0242" points="243.75 279.75,249.25 308.75,264.25 305.25,259 277.25" fill="#000000" stroke="#000000" />
<polygon id="01-0243" points="228.5 281.75,243.5 279.5,248.75 309,235 312" fill="#000000" stroke="#000000" />
<polygon id="01-0244" points="213.75 284.5,228.5 281.5,234.5 311.25,218.25 315.5" fill="#000000" stroke="#000000" />
<polygon id="01-0245" points="200 287.75,213.75 285,217.75 314.25,204 317.25" fill="#000000" stroke="#000000" />
<polygon id="01-0246" points="185.5 288.5,189.25 318.25,174 321.25,169.5 291.25" fill="#000000" stroke="#000000" />
<polygon id="01-0247" points="154.25 293.25,158.25 324,173.75 321.75,169.25 292.25" fill="#000000" stroke="#000000" />
<polygon id="01-0248" points="140.25 294.75,143.5 325.5,158.25 323.25,154 293.75" fill="#000000" stroke="#000000" />
<polygon id="01-0249" points="124.75 297,128.25 326.75,143.25 325.5,140.25 295.5" fill="#000000" stroke="#000000" />
<polygon id="01-0250" points="110.25 298.75,112.25 328.25,128.25 327,124.25 297" fill="#000000" stroke="#000000" />
<polygon id="01-0251" points="94.75 300,97 330,111.75 328.5,110 298.5" fill="#000000" stroke="#000000" />
<polygon id="01-0252" points="75 315.75,96 314.5,96.75 329.75,76 331" fill="#000000" stroke="#000000" />
<polygon id="02-0248" points="546.25 270.25,580.75 333.25,621.75 316.25,618.25 310,629.75 311.5,641.25 311.5,658 308.75,671.75 303.5,680.5 296.75,692.25 287.75,699.5 277.5,707.25 266,711.5 271.25,748.5 249.5,726.75 211.5,704.5 211,705 194.25,667 194.25,665.5 211.25" fill="#000000" stroke="none" stroke-opacity="0" />
<polygon id="02-0250" points="666 -0.25,666.5 21.75,710.5 21.75,710.5 -0.5" fill="#000000" stroke="none" stroke-opacity="0" />
<polygon id="02-0209" points="666.5 20.25,666.5 66.5,710.25 66.5,710.25 20.5" fill="#000000" stroke="none" stroke-opacity="0" />
<polygon id="02-0216" points="665.75 80.75,665.75 94.25,681.5 94.25,681.5 81" fill="#000000" stroke="none" stroke-opacity="0" />
<polygon id="02-0215" points="681.25 81.25,696.25 81.25,696.25 94.75,681.25 94.75" fill="#000000" stroke="none" stroke-opacity="0" />
<polygon id="02-0208" points="695.75 80.5,710.25 79.25,724.5 94,696.75 94.25" fill="#000000" stroke="none" stroke-opacity="0" />
<polygon id="02-0217" points="666.25 102.25,684.25 102.25,684.25 113.25,665.75 113.25" fill="#000000" stroke="none" stroke-opacity="0" />
<polygon id="02-0214" points="684.25 102,696.25 102,696.25 113.25,684.25 113.25" fill="#000000" stroke="none" stroke-opacity="0" />
<polygon id="02-0218" points="666 112.25,666.25 122.75,684.25 122.75,684.25 112.25" fill="#000000" stroke="none" stroke-opacity="0" />
<polygon id="02-0219" points="666 122.5,666 136.75,684 136.75,684 122.25" fill="#000000" stroke="none" stroke-opacity="0" />
<polygon id="02-0220" points="665.75 136.5,665.75 152.25,684.25 152.25,684.25 135.75" fill="#000000" stroke="none" stroke-opacity="0" />
<polygon id="02-0221" points="666 151.5,666 166.75,683.5 166.75,683.5 152.25" fill="#000000" stroke="none" stroke-opacity="0" />
<polygon id="02-0213" points="684.25 112.75,696.75 112.75,696.75 123.5,684 123.5" fill="#000000" stroke="none" stroke-opacity="0" />
<polygon id="02-0212" points="684 123,696.5 123,696.5 137.75,684.5 137.75" fill="#000000" stroke="none" stroke-opacity="0" />
<polygon id="02-0211" points="684.25 137.5,696.5 137.5,696.5 152,683.75 152" fill="#000000" stroke="#000000" />
<polygon id="02-0201" points="683.75 152,696.5 152,696.5 166.75,683.5 166.75" fill="#000000" stroke="#000000" />
<polygon id="02-0207" points="704.25 93.5,704.25 108.5,724.75 108.5,724.75 93.5" fill="#000000" stroke="#000000" />
<polygon id="02-0206" points="704 108.75,704 123,725 123,725 108.25" fill="#000000" stroke="#000000" />
<polygon id="02-0205" points="703.5 123,703.5 137.5,725.5 137.5,725.5 123.5" fill="#000000" stroke="#000000" />
<polygon id="02-0204" points="704 137.25,704 152.25,725 152.25,725 138.5" fill="#000000" stroke="#000000" />
<polygon id="02-0203" points="704 152.5,704 167.25,725.25 167.25,725.25 151.75" fill="#000000" stroke="#000000" />
<polygon id="02-0202" points="704.25 167.5,704.25 181.75,725.25 181.75,725.25 167.5" fill="#000000" stroke="#000000" />
<polygon id="02-0257" points="705.25 193.75,724.5 193.5,724.5 210.5,704.75 211" fill="#000000" stroke="#000000" />
<polygon id="09-0209" points="172.5 23,173 32.75,171.75 41.25,204.75 47.25,204.5 38.25,200.25 30.5,190.75 23.75" fill="#000000" stroke="#000000" />
<polygon id="09-0210" points="172 41,168.25 58.25,201.25 66.5,204.75 47.75" fill="#000000" stroke="#000000" />
<polygon id="09-0211" points="168.5 57.5,201.25 66.5,198 76.25,194.75 87.25,163.5 76.25,166.5 65.5" fill="#000000" stroke="#000000" />
<polygon id="09-0212" points="163.25 75.5,156.5 91,187.25 107.25,191.5 98,195.5 87.5" fill="#000000" stroke="#000000" />
<polygon id="09-0213" points="157.5 91,149.25 106.25,178 123.75,183.5 114.5,187 107.5" fill="#000000" stroke="#000000" />
<polygon id="09-0214" points="148.75 105.75,177.75 124.25,172.75 133.25,166.25 141.25,139.5 121.75,145.25 113.25" fill="#000000" stroke="#000000" />
<polygon id="09-0215" points="139.75 120.75,166 141.5,160.75 149.75,154.25 157,129 135.5,135.5 128" fill="#000000" stroke="#000000" />
<polygon id="09-0216" points="128 135.5,154.5 158,147.75 166.25,140.5 172,117 147.25,123.5 140.75" fill="#000000" stroke="#000000" />
<polygon id="09-0217" points="117 146.75,139.5 172,132.25 180.5,124 186.25,103.75 158.5,111 153.5" fill="#000000" stroke="#000000" />
<polygon id="09-0218" points="81.5 192,99 182.25,108 197.25,90 208" fill="#000000" stroke="#000000" />
<polygon id="09-0219" points="64.25 199.75,81.25 192,90 208.75,70.5 216.25" fill="#000000" stroke="#000000" />
<polygon id="09-0220" points="41.75 190.25,58.5 185,70.25 215.75,60.75 221.25,51.25 222.5" fill="#000000" stroke="#000000" />
<polygon id="09-0221" points="41 190.75,51 223,42.5 226.5,31.25 227,25.5 194.75" fill="#000000" stroke="#000000" />
<polygon id="09-0222" points="24.25 194,32 229,21.5 230.5,11 231.25,8 197" fill="#000000" stroke="#000000" />
<polygon id="09-0223" points="0 196.25,8.5 197,11.25 231.5,-0.25 232" fill="#000000" stroke="#000000" />
<polygon id="09-0271" points="0 162.75,5.25 162.5,8.5 196.75,-0.5 195.5" fill="#000000" stroke="#000000" />
<polygon id="09-0272" points="5.5 162.25,19 162.5,25.25 193.75,9.5 197" fill="#000000" stroke="#000000" />
<polygon id="09-0273" points="19 162.25,33 159,42.25 191.25,26.25 195.5" fill="#000000" stroke="#000000" />
<polygon id="09-0274" points="33 158.5,46.75 154,59.25 185.25,42.25 190.25" fill="#000000" stroke="#000000" />
<polygon id="09-0275" points="46.75 153.5,59.75 148.25,74.5 178.25,59.25 186.25" fill="#000000" stroke="#000000" />
<polygon id="09-0276" points="60.25 148.25,72 141.25,89.5 168.5,75.25 177.75" fill="#000000" stroke="#000000" />
<polygon id="09-0277" points="82.5 133,94 123.5,116.5 147.25,103.5 159.25" fill="#000000" stroke="#000000" />
<polygon id="09-0278" points="94 123.5,104.5 113,129.5 135.25,117 147.25" fill="#000000" stroke="#000000" />
<polygon id="09-0279" points="104 112.75,113.25 102.5,140.25 121.5,129 136" fill="#000000" stroke="#000000" />
<polygon id="09-0280" points="113.75 101.25,120.5 90,149.25 106.5,139 120.5" fill="#000000" stroke="#000000" />
<polygon id="09-0281" points="121 89.5,127.75 77,157.25 91.75,148.25 106.75" fill="#000000" stroke="#000000" />
<polygon id="09-0282" points="127.5 76.25,132.5 64,164 75,156.25 90.75" fill="#000000" stroke="#000000" />
<polygon id="09-0283" points="136.5 49.5,168.5 57.75,163.5 75.5,132.25 63.5" fill="#000000" stroke="#000000" />
<polygon id="09-0284" points="139.25 36.25,136.75 49,167.5 58,172 41.5" fill="#000000" stroke="#000000" />
<polygon id="09-0285" points="139.25 35.5,172.25 42,173.5 32.5,172.25 22.5,155.75 22.5,146.75 25.25" fill="#000000" stroke="#000000" />
<polygon id="11-0201" points="220.25 196.25,235.25 196.25,236 216.75,225.25 215.5,220.25 210" fill="#000000" stroke="#000000" />
<polygon id="11-0202" points="220 176.5,234.75 176.5,234.75 196.5,219.75 196.5" fill="#000000" stroke="#000000" />
<polygon id="11-0203" points="220 162,235.25 162,235.25 177,220.25 177" fill="#000000" stroke="#000000" />
<polygon id="11-0204" points="219.75 146.25,235.5 146.25,235.5 162.5,220 162.5" fill="#000000" stroke="#000000" />
<polygon id="11-0205" points="219.25 125.25,234.5 125.25,234.5 146.75,220 146.75" fill="#000000" stroke="#000000" />
<polygon id="11-0206" points="219.75 95.5,235.25 95.5,235.25 110.25,220 110.25" fill="#000000" stroke="#000000" />
<polygon id="11-0207" points="220 45.25,235.5 45.25,235.5 65.5,219.75 65.5" fill="#000000" stroke="#000000" />
<polygon id="11-0208" points="220 24.75,234.75 24.75,234.75 46.25,220 46.25" fill="#000000" stroke="#000000" />
<polygon id="11-0209" points="235.25 24.25,250.25 24.25,250.25 46.25,235 46.25" fill="#000000" stroke="#000000" />
<polygon id="11-0210" points="235.5 45.75,250.25 45.75,250.25 66,235.75 66" fill="#000000" stroke="#000000" />
<polygon id="11-0212" points="235 95.5,250.75 95.5,250.75 109.75,235.5 109.75" fill="#000000" stroke="#000000" />
<polygon id="11-0213" points="235 125,250.5 125.25,250 146.5,235.5 145.75" fill="#000000" stroke="#000000" />
<polygon id="11-0214" points="235.25 145.5,250.25 145.75,250 162.75,235.25 163.5" fill="#000000" stroke="#000000" />
<polygon id="11-0215" points="235.5 163,250.25 163,250 177.5,235.5 177.5" fill="#000000" stroke="#000000" />
<polygon id="11-0216" points="235.25 177.5,250.25 177,249.75 197.25,235.5 197.5" fill="#000000" stroke="#000000" />
<polygon id="11-0217" points="235.5 197.25,250 196.75,250.25 217.25,236.5 217.25" fill="#000000" stroke="#000000" />
<polygon id="11-0218" points="264 196.25,278.5 196.25,278.5 217.5,264.75 217.5" fill="#000000" stroke="#000000" />
<polygon id="11-0219" points="278.5 196.75,293 196,293 217,279.5 218" fill="#000000" stroke="#000000" />
<polygon id="11-0220" points="292.75 195.75,307.5 195.75,307.5 217.5,292 217.5" fill="#000000" stroke="#000000" />
<polygon id="11-0221" points="307.5 195.75,321.5 195.75,321.5 217.5,307.25 217.5" fill="#000000" stroke="#000000" />
<polygon id="11-0222" points="321.25 195.5,335.75 195.5,335.75 217,320.75 217" fill="#000000" stroke="#000000" />
<polygon id="11-0223" points="336 196.25,350 196.25,350 217.25,336.5 217.25" fill="#000000" stroke="#000000" />
<polygon id="11-0224" points="350.5 196.25,364.25 196.25,364.25 216.75,350.75 216.75" fill="#000000" stroke="#000000" />
<polygon id="11-0225" points="364.5 204,379 204,379 217.25,365 217.25" fill="#000000" stroke="#000000" />
<polygon id="11-0226" points="379.25 204,393.5 204,393.5 217.25,379.75 217.25" fill="#000000" stroke="#000000" />
<polygon id="11-0227" points="393.5 201.75,404.75 201.75,404.75 217.75,392.75 217.75" fill="#000000" stroke="#000000" />
<polygon id="11-0228" points="393.25 175.75,393.25 190.75,404 190.75,404 175.25" fill="#000000" stroke="#000000" />
<polygon id="11-0229" points="364.75 188.25,384.5 188.25,384.5 175.5,364.75 175.5" fill="#000000" stroke="#000000" />
<polygon id="11-0230" points="349.75 176,364.75 176,364.75 196.25,349.5 196.25" fill="#000000" stroke="#000000" />
<polygon id="11-0231" points="335.5 175.75,350.25 175.75,350.25 197.75,335.25 197.75" fill="#000000" stroke="#000000" />
<polygon id="11-0232" points="321 175.75,321 195.5,334.75 195.5,334.75 175.5" fill="#000000" stroke="#000000" />
<polygon id="11-0233" points="306.75 176,306.75 196.5,320.75 196.5,320.75 176.5" fill="#000000" stroke="#000000" />
<polygon id="11-0234" points="292 176.25,307.5 176.25,307.5 198,293 198" fill="#000000" stroke="#000000" />
<polygon id="11-0235" points="277.75 175.5,292.75 175.5,292.75 198.5,277.75 198.5" fill="#000000" stroke="#000000" />
<polygon id="11-0236" points="264 175.5,278.5 175.5,278.5 197.5,264 197.5" fill="#000000" stroke="#000000" />
<polygon id="11-0237" points="264 145.5,278.75 145.5,278.75 166,263.5 166" fill="#000000" stroke="#000000" />
<polygon id="11-0238" points="277.75 145.5,293 145.5,293 166.25,278.25 166.25" fill="#000000" stroke="#000000" />
<polygon id="11-0239" points="293 145.75,307.25 145.75,307.25 166,292.75 166" fill="#000000" stroke="#000000" />
<polygon id="11-0240" points="307.25 146,321.5 146,321.5 166.5,308 166.5" fill="#000000" stroke="#000000" />
<polygon id="11-0241" points="321.75 145.5,336.25 145.5,336.25 166,322 166" fill="#000000" stroke="#000000" />
<polygon id="11-0242" points="335.5 146,350.25 146,350.25 166.5,335.75 166.5" fill="#000000" stroke="#000000" />
<polygon id="11-0243" points="350.5 145.25,365.25 145.25,365.25 166.25,349.75 166.25" fill="#000000" stroke="#000000" />
<polygon id="11-0244" points="365.5 146,378.75 146,378.75 166,365.5 166" fill="#000000" stroke="#000000" />
<polygon id="11-0245" points="379.25 145.75,394 145.75,394 166.25,379 166.25" fill="#000000" stroke="#000000" />
<polygon id="11-0246" points="379.25 125.75,394.25 125.75,394.25 145.75,379.75 145.75" fill="#000000" stroke="#000000" />
<polygon id="11-0247" points="364.25 125.75,364.25 146.5,379.5 146.5,379.5 125.5" fill="#000000" stroke="#000000" />
<polygon id="11-0248" points="349.75 125.5,349.75 146.25,363.25 146.25,363.25 125.75" fill="#000000" stroke="#000000" />
<polygon id="11-0249" points="335.75 126.25,349.5 126.25,349.5 147,335.75 147" fill="#000000" stroke="#000000" />
<polygon id="11-0250" points="321.5 125.5,336 125.5,335.5 145.5,320.75 145.75" fill="#000000" stroke="#000000" />
<polygon id="11-0251" points="307 125.5,321.25 124.75,320.25 145.5,306.5 146.5" fill="#000000" stroke="#000000" />
<polygon id="11-0252" points="292.75 125.5,306.75 126,306.25 146.25,292.75 146.25" fill="#000000" stroke="#000000" />
<polygon id="11-0253" points="277.75 125.25,292.75 125,292.5 145.25,277 146" fill="#000000" stroke="#000000" />
<polygon id="11-0254" points="263.5 125.25,277.75 126,277.5 147.25,263.5 146.25" fill="#000000" stroke="#000000" />
<polygon id="11-0255" points="264.25 96,278 96,278 116,263.5 116" fill="#000000" stroke="#000000" />
<polygon id="11-0256" points="277.75 95.5,293 95.5,293 116.5,278.5 116.5" fill="#000000" stroke="#000000" />
<polygon id="11-0257" points="292.5 95.5,307.5 95.5,307.5 116,292.25 116" fill="#000000" stroke="#000000" />
<polygon id="11-0258" points="307.25 95.25,320.75 95.25,320.75 115.75,306.5 115.75" fill="#000000" stroke="#000000" />
<polygon id="11-0259" points="321 95.25,336.5 95.25,336.5 115.25,320.5 115.25" fill="#000000" stroke="#000000" />
<polygon id="11-0260" points="336.25 95.5,351.25 95.5,351.25 116.25,335 116.25" fill="#000000" stroke="#000000" />
<polygon id="11-0261" points="350.75 96,364.25 96,364.25 115.5,350.5 115.5" fill="#000000" stroke="#000000" />
<polygon id="11-0262" points="364 95.75,379.5 95.75,379.5 116,365.25 116" fill="#000000" stroke="#000000" />
<polygon id="11-0263" points="378.75 95.5,393.25 95.25,392.75 115.75,380.5 115.75" fill="#000000" stroke="#000000" />
<polygon id="11-0264" points="393.25 95,405.25 95.5,404.5 110.75,399.75 115.5,393.5 116.5" fill="#000000" stroke="none" stroke-opacity="0" />
<polygon id="11-0265" points="393.25 75.75,405.25 75.75,405.25 95,393 95.5" fill="#000000" stroke="none" stroke-opacity="0" />
<polygon id="11-0266" points="378.75 75.75,393.5 75.75,393.5 95.5,379.25 95.5" fill="#000000" stroke="none" stroke-opacity="0" />
<polygon id="11-0267" points="364.25 75.75,364.25 95.75,379.25 95.75,379.25 75.75" fill="#000000" stroke="none" stroke-opacity="0" />
<polygon id="11-0268" points="350.25 75.75,364.5 75.75,364.5 96.25,349.75 96.25" fill="#000000" stroke="none" stroke-opacity="0" />
<polygon id="11-0269" points="336.25 75.25,350 75.25,350 95.5,335.75 95.5" fill="#000000" stroke="none" stroke-opacity="0" />
<polygon id="11-0270" points="321.25 75.5,336.25 75.5,336.25 95.5,321.25 95.5" fill="#000000" stroke="none" stroke-opacity="0" />
<polygon id="11-0271" points="307 75.5,321.5 75.5,321.5 95.75,306.5 95.75" fill="#000000" stroke="none" stroke-opacity="0" />
<polygon id="11-0272" points="292.75 75,292.75 96.5,307.25 96.5,307.25 75.25" fill="#000000" stroke="#000000" />
<polygon id="11-0273" points="277.5 95.25,291.75 95.25,291.75 75.75,278.5 75.75" fill="#000000" stroke="#000000" />
<polygon id="11-0274" points="263.5 75.75,263.5 96,278 96,278 75.5" fill="#000000" stroke="#000000" />
<polygon id="11-0275" points="263.75 45.25,278.5 45.25,278.5 66.75,263.5 66.75" fill="#000000" stroke="none" stroke-opacity="0" />
<polygon id="11-0276" points="286 53.5,314 53.5,314 66.5,286 66.5" fill="#000000" stroke="none" stroke-opacity="0" />
<polygon id="11-0277" points="321.25 45.5,336.75 45.5,336.75 66,321.5 66" fill="#000000" stroke="none" stroke-opacity="0" />
<polygon id="11-0278" points="335.75 45.25,350.5 45.25,350.5 66.5,336 66.5" fill="#000000" stroke="none" stroke-opacity="0" />
<polygon id="11-0279" points="349.75 45.25,364.5 45.25,364.5 66.5,350.5 66.5" fill="#000000" stroke="none" stroke-opacity="0" />
<polygon id="11-0280" points="364.5 45.5,379.25 45.5,379.25 66.5,364.5 66.5" fill="#000000" stroke="none" stroke-opacity="0" />
<polygon id="11-0281" points="379.25 45.5,394 45.5,394 66.25,379.5 66.25" fill="#000000" stroke="none" stroke-opacity="0" />
<polygon id="11-0282" points="393.25 45.25,405.25 45.25,405.25 66.25,393.25 66.25" fill="#000000" stroke="none" stroke-opacity="0" />
<polygon id="11-0283" points="379.25 24.75,379.25 45.5,393.75 45.5,393.75 35.5,382.75 25" fill="#000000" stroke="none" stroke-opacity="0" />
<polygon id="11-0284" points="364.25 24.5,364.25 45.75,380 45.75,380 24.75" fill="#000000" stroke="none" stroke-opacity="0" />
<polygon id="11-0285" points="349.75 24.75,349.75 46,364.75 46,364.75 24.5" fill="#000000" stroke="none" stroke-opacity="0" />
<polygon id="11-0286" points="335.75 25,335.75 45.75,350.25 45.75,350.25 25" fill="#000000" stroke="none" stroke-opacity="0" />
<polygon id="11-0287" points="321 25,321 45.5,336 45.5,336 24.75" fill="#000000" stroke="none" stroke-opacity="0" />
<polygon id="11-0288" points="292.5 25,292.5 37.5,313.5 37.5,313.5 25" fill="#000000" stroke="none" stroke-opacity="0" />
<polygon id="11-0289" points="264 25,264 45,279 45,279 25" fill="#000000" stroke="none" stroke-opacity="0" />
<polygon id="11-0290" points="219.5 65.25,219.5 79,234.5 79,234.5 65.25" fill="#000000" stroke="none" stroke-opacity="0" />
<polygon id="11-0291" points="234.5 66,234.5 79.5,250.25 79.5,250.25 66" fill="#000000" stroke="none" stroke-opacity="0" />
<polygon id="11-0292" points="278.5 24.75,293.5 24.75,293.5 37.5,278.5 37.5" fill="#000000" stroke="none" stroke-opacity="0" />
<polygon id="13-0201" points="602 196.5,616.75 196,617 208.25,614 214.25,607.5 216.75,601.75 216.75" fill="#000000" stroke="none" stroke-opacity="0" />
<polygon id="13-0202" points="601.75 176.75,617.25 176.75,617.25 196.75,602.25 196.75" fill="#000000" stroke="none" stroke-opacity="0" />
<polygon id="13-0203" points="602.25 162.5,617.5 162.5,617.5 178,601.5 178" fill="#000000" stroke="none" stroke-opacity="0" />
<polygon id="13-0204" points="601.75 145.75,616.75 145.75,616.75 163.25,602.75 163.25" fill="#000000" stroke="none" stroke-opacity="0" />
<polygon id="13-0205" points="602 125.5,617.5 125.5,617.5 146.25,601.5 146.25" fill="#000000" stroke="none" stroke-opacity="0" />
<polygon id="13-0206" points="601.5 95.75,601.5 111,617.25 111,617.25 95.25" fill="#000000" stroke="none" stroke-opacity="0" />
<polygon id="13-0207" points="602 45.25,617.5 45.25,617.5 64.75,601.5 64.75" fill="#000000" stroke="none" stroke-opacity="0" />
<polygon id="13-0208" points="602 25,617.25 25,617.25 45.75,601.75 45.75" fill="#000000" stroke="none" stroke-opacity="0" />
<polygon id="13-0209" points="586.75 24.75,586.75 46,602.5 46,602.5 25" fill="#000000" stroke="none" stroke-opacity="0" />
<polygon id="13-0210" points="587 45.25,587 65,602.25 65,602.25 44.75" fill="#000000" stroke="none" stroke-opacity="0" />
<polygon id="13-0212" points="587 96,602.25 96,602.25 110.75,587 110.75" fill="#000000" stroke="#000000" />
<polygon id="13-0213" points="587 126,602.25 126,602.25 146.25,587 146.25" fill="#000000" stroke="#000000" />
<polygon id="13-0214" points="587.25 146,587.25 163,602.25 163,602.25 147" fill="#000000" stroke="#000000" />
<polygon id="13-0215" points="586.75 162.75,586.75 177.25,602.75 177.25,602.75 162" fill="#000000" stroke="#000000" />
<polygon id="13-0216" points="586.5 177.5,586.5 197,602.5 197,602.5 177.75" fill="#000000" stroke="#000000" />
<polygon id="13-0217" points="586.5 197,586.5 217.5,603 217.5,603 196.75" fill="#000000" stroke="#000000" />
<polygon id="13-0218" points="558.75 196.75,573.25 196.75,573.25 217.25,558.25 217.25" fill="#000000" stroke="#000000" />
<polygon id="13-0219" points="543.75 204.5,543.75 218,558.75 218,558.75 204.5" fill="#000000" stroke="#000000" />
<polygon id="13-0220" points="500.75 196.25,516.25 196.25,516.25 216.75,500 216.75" fill="#000000" stroke="#000000" />
<polygon id="13-0221" points="486.75 196.5,486.75 217.75,501.75 217.75,501.75 195.75" fill="#000000" stroke="#000000" />
<polygon id="13-0222" points="472 196.5,487 196.5,487 217.5,472 217.5" fill="#000000" stroke="#000000" />
<polygon id="13-0223" points="457.5 196.5,472.75 196.5,472.75 216.75,458.25 216.75" fill="#000000" stroke="#000000" />
<polygon id="13-0224" points="443.25 196.75,458.5 196.75,458.5 217,444 217" fill="#000000" stroke="#000000" />
<polygon id="13-0225" points="433 196.5,433 218.25,444 218.25,444 195.75" fill="#000000" stroke="#000000" />
<polygon id="13-0226" points="432.5 176,432.5 196.75,444.5 196.75,444.5 175.75" fill="#000000" stroke="#000000" />
<polygon id="13-0227" points="444.5 175.75,458.5 175.75,458.5 197.75,444.75 197.75" fill="#000000" stroke="#000000" />
<polygon id="13-0228" points="458.75 176,472.75 176,472.75 197.25,458.75 197.25" fill="#000000" stroke="#000000" />
<polygon id="13-0229" points="473.5 175.75,487.5 175.75,487.5 197.25,473 197.25" fill="#000000" stroke="#000000" />
<polygon id="13-0230" points="487.25 176,501.25 176,501.25 197,487.75 197" fill="#000000" stroke="#000000" />
<polygon id="13-0231" points="501.25 175.5,515.25 175.5,515.25 198.25,501.25 198.25" fill="#000000" stroke="#000000" />
<polygon id="13-0232" points="530.75 175.5,551.75 175.5,551.75 190,530 190" fill="#000000" stroke="#000000" />
<polygon id="13-0233" points="558.75 176,558.75 196.75,573.75 196.75,573.75 175.5" fill="#000000" stroke="#000000" />
<polygon id="13-0234" points="559.25 146,559.25 166.5,573 166.5,573 145.5" fill="#000000" stroke="#000000" />
<polygon id="13-0235" points="544 146,544 166.5,559 166.5,559 145.75" fill="#000000" stroke="#000000" />
<polygon id="13-0236" points="530 146.25,530 166.25,544.25 166.25,544.25 146" fill="#000000" stroke="#000000" />
<polygon id="13-0237" points="515.25 145.75,530.25 145.75,530.25 166.25,514.75 166.25" fill="#000000" stroke="#000000" />
<polygon id="13-0238" points="500.75 146.25,516.5 146.25,516.5 167,501.25 167" fill="#000000" stroke="#000000" />
<polygon id="13-0239" points="486.75 145.75,501.25 145.75,501.25 166,487 166" fill="#000000" stroke="#000000" />
<polygon id="13-0240" points="472 146,488 146,488 166.25,472 166.25" fill="#000000" stroke="#000000" />
<polygon id="13-0241" points="457.5 145.5,473 145.5,473 166.5,457 166.5" fill="#000000" stroke="#000000" />
<polygon id="13-0242" points="443.75 146.5,458.5 146.5,458.5 167,444.25 167" fill="#000000" stroke="#000000" />
<polygon id="13-0243" points="443.75 125,443.75 146.5,458.25 146.5,458.25 125.5" fill="#000000" stroke="#000000" />
<polygon id="13-0244" points="458.25 125.25,472.25 125.25,472.25 145.75,457.75 145.75" fill="#000000" stroke="#000000" />
<polygon id="13-0245" points="472.25 125.25,487.25 125.25,487.25 146.25,472.5 146.25" fill="#000000" stroke="#000000" />
<polygon id="13-0246" points="487.25 124.75,501.75 124.75,501.75 146.5,487.5 146.5" fill="#000000" stroke="#000000" />
<polygon id="13-0247" points="502 124.75,515.5 124.75,515.5 146.25,502 146.25" fill="#000000" stroke="#000000" />
<polygon id="13-0248" points="515.75 125,529.75 125,529.75 147,515.25 147" fill="#000000" stroke="#000000" />
<polygon id="13-0249" points="530.25 125,544.25 125.25,544.5 146.25,530.25 147.25" fill="#000000" stroke="#000000" />
<polygon id="13-0250" points="544.75 125,559.5 125.5,559.5 147,545.25 146.25" fill="#000000" stroke="#000000" />
<polygon id="13-0251" points="559 124.75,573.5 124.75,573.5 146.5,559.25 146.5" fill="#000000" stroke="#000000" />
<polygon id="13-0252" points="559.5 95.5,573 95.5,573 115.25,559 115.25" fill="#000000" stroke="#000000" />
<polygon id="13-0253" points="544 96.25,559.5 96.25,559.5 116.5,544 116.5" fill="#000000" stroke="#000000" />
<polygon id="13-0254" points="530.25 96,544.5 96,544.5 116.5,530 116.5" fill="#000000" stroke="#000000" />
<polygon id="13-0255" points="516 95.75,516 116.75,530 116.75,530 96.25" fill="#000000" stroke="#000000" />
<polygon id="13-0256" points="500.5 95.75,515.5 95.75,515.5 116.5,501.25 116.5" fill="#000000" stroke="#000000" />
<polygon id="13-0257" points="486.5 96,501.75 96,501.75 116.5,486.75 116.5" fill="#000000" stroke="#000000" />
<polygon id="13-0258" points="471.75 96,487 96,487 116.75,471.75 116.75" fill="#000000" stroke="#000000" />
<polygon id="13-0259" points="458 96,473 96,473 116.75,457.75 116.75" fill="#000000" stroke="#000000" />
<polygon id="13-0260" points="443.5 95.5,459 95.5,459 116.5,444.25 116.5" fill="#000000" stroke="#000000" />
<polygon id="13-0261" points="432.5 95.5,444.25 95.5,444.25 117.25,434.25 113.25,430.75 104.75" fill="#000000" stroke="#000000" />
<polygon id="13-0262" points="431.75 76,431.75 95.5,444.25 95.5,444.25 75.5" fill="#000000" stroke="#000000" />
<polygon id="13-0263" points="444.75 75.5,458 75.5,458 95.5,444.25 95.5" fill="#000000" stroke="#000000" />
<polygon id="13-0264" points="458.25 75.25,472.75 75.25,472.75 97,458.5 97" fill="#000000" stroke="#000000" />
<polygon id="13-0265" points="472.5 74.5,487 74.5,487 96.25,473 96.25" fill="#000000" stroke="#000000" />
<polygon id="13-0266" points="486.75 75,501.5 75,501.5 96,487.25 96" fill="#000000" stroke="#000000" />
<polygon id="13-0267" points="501.75 75.5,516 75.5,516 96.5,501.5 96.5" fill="#000000" stroke="#000000" />
<polygon id="13-0268" points="516 74.75,530.25 74.75,530.25 97.5,516 97.5" fill="#000000" stroke="#000000" />
<polygon id="13-0269" points="529.75 75.25,544 75.25,544 96.25,529.75 96.25" fill="#000000" stroke="#000000" />
<polygon id="13-0270" points="544.75 75.75,559.25 75.75,559.25 96.5,544.25 96.5" fill="#000000" stroke="#000000" />
<polygon id="13-0271" points="559.25 75.25,573.5 75.25,573.5 96.25,559.5 96.25" fill="#000000" stroke="#000000" />
<polygon id="13-0272" points="559 45,573.75 45,573.75 66.75,559 66.75" fill="#000000" stroke="#000000" />
<polygon id="13-0273" points="545.25 45.5,545.25 66,558.25 66,558.25 45" fill="#000000" stroke="#000000" />
<polygon id="13-0274" points="529.75 44.75,529.75 66.5,545 66.5,545 45.5" fill="#000000" stroke="#000000" />
<polygon id="13-0275" points="515 45.5,515 66.75,530.25 66.75,530.25 45.25" fill="#000000" stroke="#000000" />
<polygon id="13-0276" points="500.5 45,500.5 66.5,515 66.5,515 45.25" fill="#000000" stroke="#000000" />
<polygon id="13-0277" points="486.5 45.25,486.5 66.5,500.25 66.5,500.25 44.75" fill="#000000" stroke="#000000" />
<polygon id="13-0278" points="472.5 45.25,472.5 66,486.25 66,486.25 45.25" fill="#000000" stroke="#000000" />
<polygon id="13-0279" points="451 53.75,472.75 53.75,472.75 66.5,451.25 66.5" fill="#000000" stroke="#000000" />
<polygon id="13-0280" points="432 44.5,444.75 44.5,444.75 66.5,431 66.5" fill="#000000" stroke="#000000" />
<polygon id="13-0281" points="443.5 35.5,454.75 36.25,454.25 42.75,472.75 42,472.75 24.25,454 24.75" fill="#000000" stroke="#000000" />
<polygon id="13-0282" points="472.25 24.75,487.5 24.75,487.5 46,472.75 46" fill="#000000" stroke="#000000" />
<polygon id="13-0283" points="487.5 24.5,501.75 24.5,501.75 45.25,487.75 45.25" fill="#000000" stroke="#000000" />
<polygon id="13-0284" points="501.25 24.5,516 24.5,516 45.25,501.5 45.25" fill="#000000" stroke="#000000" />
<polygon id="13-0285" points="516 24,530.5 24,530.5 46,515.5 46" fill="#000000" stroke="#000000" />
<polygon id="13-0286" points="530.5 24,545.5 24,545.5 45.25,531 45.25" fill="#000000" stroke="#000000" />
<polygon id="13-0287" points="545.75 25,559.5 25,559.5 45.25,546 45.25" fill="#000000" stroke="#000000" />
<polygon id="13-0288" points="559.75 25,573 25,573 45,560.25 45" fill="#000000" stroke="#000000" />
<polygon id="13-0289" points="601.75 64.75,601.75 80,618 80,618 64" fill="#000000" stroke="#000000" />
<polygon id="13-0290" points="587 64.75,587 80,602 80,602 64.5" fill="#000000" stroke="#000000" />
<polygon id="13-0291" points="523.25 204.5,544 204,543.25 218,522.5 218" fill="#000000" stroke="#000000" />
<polygon id="13-0292" points="515.75 175.25,530.25 175.25,530.25 190.25,515.75 190.25" fill="#000000" stroke="#000000" />
</svg>
