<?xml version="1.0" encoding="UTF-8" standalone="no"?>
<!-- Created with Inkscape (http://www.inkscape.org/) -->

<svg xmlns:dc="http://purl.org/dc/elements/1.1/" xmlns:cc="http://creativecommons.org/ns#" xmlns:rdf="http://www.w3.org/1999/02/22-rdf-syntax-ns#" xmlns:svg="http://www.w3.org/2000/svg" xmlns="http://www.w3.org/2000/svg" xmlns:xlink="http://www.w3.org/1999/xlink" xmlns:sodipodi="http://sodipodi.sourceforge.net/DTD/sodipodi-0.dtd" xmlns:inkscape="http://www.inkscape.org/namespaces/inkscape" width="770" height="410" id="svg2" version="1.1" inkscape:version="0.47pre4 " sodipodi:docname="test.svg" style="display:inline" stroke="#000000">
<defs id="defs4">
<inkscape:perspective sodipodi:type="inkscape:persp3d" inkscape:vp_x="0 : 526.18109 : 1" inkscape:vp_y="0 : 1000 : 0" inkscape:vp_z="744.09448 : 526.18109 : 1" inkscape:persp3d-origin="372.04724 : 350.78739 : 1" id="perspective10" />
<inkscape:perspective id="perspective2832" inkscape:persp3d-origin="0.5 : 0.33333333 : 1" inkscape:vp_z="1 : 0.5 : 1" inkscape:vp_y="0 : 1000 : 0" inkscape:vp_x="0 : 0.5 : 1" sodipodi:type="inkscape:persp3d" />
<script type="text/ecmascript" id="script6">
		var fdat="",sdat="";
		function onAreaOver(evt){
			var ele=evt.target; 
			fdat=ele.getAttribute('fill'); 
			sdat=ele.getAttribute('stroke');
			ele.setAttribute('fill','#006fb6');//多边形填充颜色
			ele.setAttribute('stroke','#006fb6');//stroke 多边形 边框颜色
			
		}
		function onAreaOut(evt){
			var ele=evt.target; 
			ele.setAttribute('fill',fdat);
			ele.setAttribute('stroke',sdat);
		}
		</script>
<symbol overflow="visible" id="symbol" style="overflow:visible" xmlns="http://www.w3.org/2000/svg">
<path d="m 626,156 2,-2 2,-4 0,-3 -1,-3 -4,-3 -6,-3 -5,-2 -4,-2 -4,8 -6,14" id="path9" style="fill:#000000;stroke:none" />
</symbol>
</defs>
<sodipodi:namedview id="base" pagecolor="#ffffff" bordercolor="#666666" borderopacity="1.0" inkscape:pageopacity="0.0" inkscape:pageshadow="2" inkscape:zoom="5.6" inkscape:cx="583.1007" inkscape:cy="273.63795" inkscape:document-units="px" inkscape:current-layer="svg2" showgrid="false" inkscape:window-width="1280" inkscape:window-height="740" inkscape:window-x="-4" inkscape:window-y="-4" inkscape:window-maximized="1" />
<metadata id="metadata7">
<rdf:RDF>
<cc:Work>
<dc:format>
image/svg+xml</dc:format>
<dc:type rdf:resource="http://purl.org/dc/dcmitype/StillImage" />
<dc:title>
</dc:title>
</cc:Work>
</rdf:RDF>
</metadata>
<image xlink:href="xinxiang_mall_3f.png" width="770" height="530" id="image2834" x="-485" y="255.93361" transform="translate(485,-255.9336)" inkscape:label="Layer 1" inkscape:groupmode="layer" style="display:inline" />
<polygon id="3001" points="662.5 158.5,692 178,691.5 209,764 209.5,763.5 159,725.5 129.5,719 119,705.5 109.5,692 107" fill="#000000" stroke="none" stroke-opacity="0" />
<polygon id="3002" points="601 127,632 141,662 159,691.5 109,653 88.5,624.5 74" fill="#000000" stroke="none" stroke-opacity="0" />
<polygon id="3003" points="620 83.5,587 70,533 52.5,526 75.5,544 79,536.5 103,569 114,601 126" fill="#000000" stroke="none" stroke-opacity="0" />
<polygon id="3004" points="515 49,505 95,466.5 88,434.5 85,440.5 35.5,476.5 40.5" fill="#000000" stroke="none" stroke-opacity="0" />
<polygon id="3005" points="441.5 25,428.5 14,409.5 6,378 3,353 8.5,337.5 15,325.5 24.5,331 85,379.5 81.5,435.5 85.5" fill="#000000" stroke="none" stroke-opacity="0" xmlns="http://www.w3.org/2000/svg" />
<polygon id="3006" points="332 84,296.5 89,263 95.5,252 50,288.5 43,327 37" fill="#000000" stroke="none" stroke-opacity="0" xmlns="http://www.w3.org/2000/svg" />
<polygon id="3007" points="242.5 51.5,249.5 73,224 79.5,231 102.5,196.5 116,166.5 127.5,145 82,188.5 66.5,221.5 57" fill="#000000" stroke="none" stroke-opacity="0" />
<polygon id="3008" points="75 109.5,104 159.5,134 144.5,166 127.5,142.5 73.5,104.5 92.5" fill="#000000" stroke="none" stroke-opacity="0" />
<polygon id="3009" points="74 107,105 158.5,76 177.5,77 210.5,46 209.5,46.5 237.5,3.5 238.5,2.5 160.5,42 129.5,47.5 120,63 109" fill="#000000" stroke="none" stroke-opacity="0" />
<polygon id="3010" points="127.5 200,128 212.5,200.5 211,202 206.5,185.5 171,157 184.5" fill="#000000" stroke="none" stroke-opacity="0" xmlns="http://www.w3.org/2000/svg" />
<polygon id="3011" points="185 170,211 159.5,244 148.5,255.5 182.5,226.5 192.5,200 203" fill="#000000" stroke="none" stroke-opacity="0" />
<polygon id="3012" points="244.5 148.5,248.5 165,270.5 158,267 142" fill="#000000" stroke="none" stroke-opacity="0" />
<polygon id="3013" points="284.5 138.5,292.5 173,330.5 166.5,370 164,368 129.5,338.5 130,306.5 134" fill="#000000" stroke="none" stroke-opacity="0" xmlns="http://www.w3.org/2000/svg" />
<polygon id="3014" points="399.5 129,397.5 163.5,435.5 167,475 174.5,483 139,438.5 131" fill="#000000" stroke="none" stroke-opacity="0" />
<polygon id="3015" points="500.5 142.5,497 158,520 163.5,523.5 150.5,511.5 145" fill="#000000" stroke="none" stroke-opacity="0" />
<polygon id="3016" points="524 149,512.5 184,543 194.5,567 203.5,582.5 170.5,552 157" fill="#000000" stroke="none" stroke-opacity="0" xmlns="http://www.w3.org/2000/svg" />
<polygon id="3017" points="582.5 170,567.5 203.5,565.5 210,640 212,641 200" fill="#000000" stroke="none" stroke-opacity="0" />
<polygon id="3018" points="567 203,566 211,534 211.5,542 192.5" fill="#000000" stroke="none" stroke-opacity="0" />
<polygon id="3019" points="513 182.5,504 211,534 212.5,541.5 194" fill="#000000" stroke="none" stroke-opacity="0" />
<polygon id="3020" points="484.5 179,503.5 184,494 211,485.5 213.5,477 210" fill="#000000" stroke="none" stroke-opacity="0" />
<polygon id="3021" points="463.5 206.5,477.5 209.5,485.5 175.5,471.5 172.5" fill="#000000" stroke="none" stroke-opacity="0" xmlns="http://www.w3.org/2000/svg" />
<polygon id="3022" points="471.5 172.5,464.5 207,450.5 204.5,455.5 169.5" fill="#000000" stroke="none" stroke-opacity="0" xmlns="http://www.w3.org/2000/svg" />
<polygon id="3023" points="438.5 202.5,450.5 204.5,456.5 169,442 167" fill="#000000" stroke="none" stroke-opacity="0" />
<polygon id="3024" points="441.5 168,438.5 202.5,424.5 201.5,426.5 166.5" fill="#000000" stroke="none" stroke-opacity="0" />
<polygon id="3025" points="427 165.5,424 201,411.5 200,412 164.5" fill="#000000" stroke="none" stroke-opacity="0" />
<polygon id="3026" points="413 163.5,412 201.5,396 200,397 163" fill="#000000" stroke="none" stroke-opacity="0" />
<polygon id="3027" points="370.5 164,370.5 200,356 200,353.5 165" fill="#000000" stroke="none" stroke-opacity="0" />
<polygon id="3028" points="338.5 165.5,343 202.5,356.5 200.5,354.5 163.5" fill="#000000" stroke="none" stroke-opacity="0" />
<polygon id="3029" points="339.5 166,343 200.5,329 203,325.5 167" fill="#000000" stroke="none" stroke-opacity="0" />
<polygon id="3030" points="310 169,316.5 205,329.5 203,326.5 167" fill="#000000" stroke="none" stroke-opacity="0" />
<polygon id="3031" points="310.5 169.5,317 203.5,304 207.5,295.5 173.5" fill="#000000" stroke="none" stroke-opacity="0" />
<polygon id="3032" points="296 172,303.5 207,291 210,281.5 176" fill="#000000" stroke="none" stroke-opacity="0" />
<polygon id="3033" points="264.5 184.5,282.5 178,291 209.5,281.5 211.5,273 212.5" fill="#000000" stroke="none" stroke-opacity="0" />
<polygon id="3034" points="255 182,264 213,232 211.5,223.5 194" fill="#000000" stroke="none" stroke-opacity="0" />
<polygon id="3035" points="223.5 193,233.5 211.5,201.5 211.5,200 203.5" fill="#000000" stroke="none" stroke-opacity="0" />
<polygon id="3036" points="172.5 237,172.5 267,187.5 267,187.5 236.5" fill="#000000" stroke="none" stroke-opacity="0" />
<polygon id="3037" points="186.75 236,201.25 236,201.25 264.75,187 264.75" fill="#000000" stroke="none" stroke-opacity="0" />
<polygon id="3038" points="200.75 236.75,215 236.75,215 265.5,199.75 265.5" fill="#000000" stroke="none" stroke-opacity="0" />
<polygon id="3039" points="215 237,230.75 237,230.75 265,214.5 265" fill="#000000" stroke="none" stroke-opacity="0" />
<polygon id="3040" points="229.75 237.25,243.75 237.25,243.75 265,230 265" fill="#000000" stroke="none" stroke-opacity="0" />
<polygon id="3041" points="243.5 237,257.5 237,257.5 265,243 265" fill="#000000" stroke="none" stroke-opacity="0" />
<polygon id="3042" points="257 237.25,272.25 237.25,272.25 265,257.5 265" fill="#000000" stroke="none" stroke-opacity="0" />
<polygon id="3043" points="271.5 236.75,285.75 236.75,285.75 266,272.75 266" fill="#000000" stroke="none" stroke-opacity="0" />
<polygon id="3044" points="285.5 237,299.75 237,299.75 265.25,286 265.25" fill="#000000" stroke="none" stroke-opacity="0" />
<polygon id="3045" points="298.75 236.75,324 236.75,327.5 241,327.25 265.25,299.75 265" fill="#000000" stroke="none" stroke-opacity="0" />
<polygon id="3046" points="313.5 275.75,313.5 295.25,327 295.25,327 275.75" fill="#000000" stroke="none" stroke-opacity="0" />
<polygon id="3047" points="286 307.25,286 323,327.25 323.25,327.25 307" fill="#000000" stroke="none" stroke-opacity="0" />
<polygon id="3048" points="286.5 322,286.5 337.25,327.25 337.25,327.25 321.25" fill="#000000" stroke="none" stroke-opacity="0" />
<polygon id="3049" points="286.5 336.75,286.5 351,327 351,327 336.25" fill="#000000" stroke="none" stroke-opacity="0" />
<polygon id="3050" points="286.5 350.5,286.5 364.5,326.75 364.5,326.75 350" fill="#000000" stroke="none" stroke-opacity="0" />
<polygon id="3051" points="286.5 365.25,286.5 379.5,327.25 379.5,327.25 363.25" fill="#000000" stroke="none" stroke-opacity="0" />
<polygon id="3052" points="286.75 379,286.75 392.75,327.5 392.75,327.5 378.5" fill="#000000" stroke="none" stroke-opacity="0" />
<polygon id="3053" points="287 392,285.75 407.25,327.25 408.5,327 390.5" fill="#000000" stroke="none" stroke-opacity="0" />
<polygon id="3054" points="288.25 433.75,288.5 446.75,311.75 446.75,312.75 442.25,326.5 443.25,326.5 433.5" fill="#000000" stroke="none" stroke-opacity="0" />
<polygon id="3055" points="342.75 433.5,342.75 519,424.75 519,424.75 433.25" fill="#000000" stroke="none" stroke-opacity="0" />
<polygon id="3056" points="439.75 391.75,439.75 408,454 408,454 392.75" fill="#000000" stroke="none" stroke-opacity="0" />
<polygon id="3057" points="440.25 378.75,440.25 392,454 392,454 378" fill="#000000" stroke="none" stroke-opacity="0" />
<polygon id="3058" points="440.25 378.5,454.25 378.5,454.25 364.25,440.5 364.25" fill="#000000" stroke="none" stroke-opacity="0" />
<polygon id="3059" points="440.25 350.5,454.5 350.5,454.5 364.75,440.25 364.75" fill="#000000" stroke="none" stroke-opacity="0" />
<polygon id="3060" points="439.75 336.75,439.75 351,467.25 351,467.25 336.25" fill="#000000" stroke="none" stroke-opacity="0" />
<polygon id="3061" points="440.25 336.25,467.75 336.25,467.75 322,440.25 322" fill="#000000" stroke="none" stroke-opacity="0" />
<polygon id="3062" points="440.5 322.25,468.5 322.25,468.5 306.5,440.25 306.5" fill="#000000" stroke="none" stroke-opacity="0" />
<polygon id="3063" points="439.75 275.75,439.75 296.25,453.5 296.25,453.5 275.25" fill="#000000" stroke="none" stroke-opacity="0" />
<polygon id="3064" points="468.25 264.5,468.25 236.5,444.5 236.5,439.75 240.75,439.75 264.75" fill="#000000" stroke="none" stroke-opacity="0" />
<polygon id="3065" points="467.75 236.75,482.5 236.75,482.5 266,467.5 266" fill="#000000" stroke="none" stroke-opacity="0" />
<polygon id="3066" points="482 237.5,496.5 237.5,496.5 265.75,482.25 265.75" fill="#000000" stroke="none" stroke-opacity="0" />
<polygon id="3067" points="495.25 237,510.25 237,510.25 264.75,495 264.75" fill="#000000" stroke="none" stroke-opacity="0" />
<polygon id="3068" points="510.5 236.75,524 236.75,524 265,510.5 265" fill="#000000" stroke="none" stroke-opacity="0" />
<polygon id="3069" points="523.25 264.75,537.25 264.75,537.25 237,523.25 237" fill="#000000" stroke="none" stroke-opacity="0" />
<polygon id="3070" points="537 236.75,552.25 236.75,552.25 264.75,536.75 264.75" fill="#000000" stroke="none" stroke-opacity="0" />
<polygon id="3071" points="552 236.75,565.5 236.75,565.5 265.5,551.75 265.5" fill="#000000" stroke="none" stroke-opacity="0" />
<polygon id="3072" points="565.5 237,580.5 237,580.5 264.5,565.5 264.5" fill="#000000" stroke="none" stroke-opacity="0" />
<polygon id="3073" points="580.25 236.25,594.75 236.25,594.75 265.75,580.75 265.75" fill="#000000" stroke="#000000" />
<polygon id="3074" points="594.5 236.75,609 236.75,609 265.75,595.5 265.75" fill="#000000" stroke="#000000" />
<polygon id="3075" points="609 236.75,622.5 236.75,622.5 265.75,609.75 265.75" fill="#000000" stroke="#000000" />
<polygon id="3076" points="622.25 236.75,637 236.75,637 264.75,622.5 264.75" fill="#000000" stroke="#000000" />
<polygon id="3077" points="637.25 236.75,651.25 236.75,651.25 265.75,638.25 265.75" fill="#000000" stroke="#000000" />
<polygon id="3078" points="4 237.5,173 237,173 265.5,313 263.5,312.5 277.5,313 277,313.5 296.5,313.5 295,313.5 308,286.5 307.5,286.5 407.5,313.5 408,313.5 433,290 433,290 448,322.5 446,324 520.5,27.5 520,10 510,4 494.5" fill="#000000" stroke="#000000" xmlns="http://www.w3.org/2000/svg" />
<polygon id="3079" points="454 266,455 297,455 305.5,469 307,470 352.5,455 352,455 407.5,440 408.5,440.5 519.5,627 520,624 266" fill="#000000" stroke="#000000" />
<polygon id="3080" points="721 266.5,721.5 238,721.5 209,764 208,763.5 497.5,753 514,738.5 520.5,628 519.5,624 266,651 266.5" fill="#000000" stroke="#000000" xmlns="http://www.w3.org/2000/svg" />

</svg>
