<?xml version="1.0" encoding="UTF-8" standalone="no"?>
<!-- Created with Inkscape (http://www.inkscape.org/) -->

<svg xmlns:dc="http://purl.org/dc/elements/1.1/" xmlns:cc="http://creativecommons.org/ns#" xmlns:rdf="http://www.w3.org/1999/02/22-rdf-syntax-ns#" xmlns:svg="http://www.w3.org/2000/svg" xmlns="http://www.w3.org/2000/svg" xmlns:xlink="http://www.w3.org/1999/xlink" xmlns:sodipodi="http://sodipodi.sourceforge.net/DTD/sodipodi-0.dtd" xmlns:inkscape="http://www.inkscape.org/namespaces/inkscape" width="770" height="250" id="svg2" version="1.1" inkscape:version="0.47pre4 " sodipodi:docname="test.svg" style="display:inline">
<defs id="defs4">
<inkscape:perspective sodipodi:type="inkscape:persp3d" inkscape:vp_x="0 : 526.18109 : 1" inkscape:vp_y="0 : 1000 : 0" inkscape:vp_z="744.09448 : 526.18109 : 1" inkscape:persp3d-origin="372.04724 : 350.78739 : 1" id="perspective10" />
<inkscape:perspective id="perspective2832" inkscape:persp3d-origin="0.5 : 0.33333333 : 1" inkscape:vp_z="1 : 0.5 : 1" inkscape:vp_y="0 : 1000 : 0" inkscape:vp_x="0 : 0.5 : 1" sodipodi:type="inkscape:persp3d" />
<script type="text/ecmascript" id="script6">
		var fdat="",sdat="";
		function onAreaOver(evt){
			var ele=evt.target; 
			fdat=ele.getAttribute('fill'); 
			sdat=ele.getAttribute('stroke');
			ele.setAttribute('fill','#006fb6');//多边形填充颜色
			ele.setAttribute('stroke','#006fb6');//stroke 多边形 边框颜色
			
		}
		function onAreaOut(evt){
			var ele=evt.target; 
			ele.setAttribute('fill',fdat);
			ele.setAttribute('stroke',sdat);
		}
		</script>
<symbol overflow="visible" id="symbol" style="overflow:visible" xmlns="http://www.w3.org/2000/svg">
<path d="m 626,156 2,-2 2,-4 0,-3 -1,-3 -4,-3 -6,-3 -5,-2 -4,-2 -4,8 -6,14" id="path9" style="fill:#000000;stroke:none" />
</symbol>
</defs>
<sodipodi:namedview id="base" pagecolor="#ffffff" bordercolor="#666666" borderopacity="1.0" inkscape:pageopacity="0.0" inkscape:pageshadow="2" inkscape:zoom="5.6" inkscape:cx="583.1007" inkscape:cy="273.63795" inkscape:document-units="px" inkscape:current-layer="svg2" showgrid="false" inkscape:window-width="1280" inkscape:window-height="740" inkscape:window-x="-4" inkscape:window-y="-4" inkscape:window-maximized="1" />
<metadata id="metadata7">
<rdf:RDF>
<cc:Work>
<dc:format>
image/svg+xml</dc:format>
<dc:type rdf:resource="http://purl.org/dc/dcmitype/StillImage" />
<dc:title>
</dc:title>
</cc:Work>
</rdf:RDF>
</metadata>
<image xlink:href="fuzhou_3w_xeh.jpg" width="770" height="250" id="image2834" x="-485" y="255.93361" transform="translate(485,-255.9336)" inkscape:label="Layer 1" inkscape:groupmode="layer" style="display:inline" />
<polygon id="W01" points="713.5 74,713.5 147.5,727.5 147.5,727.5 74" fill="#000000" stroke="none" stroke-opacity="0" />
<polygon id="W02" points="673.5 74,673.5 147.5,709 147.5,709 73.5" fill="#000000" stroke="none" stroke-opacity="0" />
<polygon id="W03" points="618.5 73.5,618.5 147.5,668 147.5,668 73.5" fill="#000000" stroke="none" stroke-opacity="0" />
<polygon id="W04" points="576 73.5,576 148,613 148,613 73" fill="#000000" stroke="none" stroke-opacity="0" />
<polygon id="W05,W06,W07" points="458 73.5,466 147,540.5 148,549.5 73.5" fill="#000000" stroke="none" stroke-opacity="0" />
<polygon id="W08" points="390.5 73.5,390.5 148,430.5 148,430.5 74" fill="#000000" stroke="none" stroke-opacity="0" />
<polygon id="W09" points="344.5 73,344.5 148,385.5 148,385.5 73.5" fill="#000000" stroke="none" stroke-opacity="0" />
<polygon id="W10" points="286.5 73.5,286.5 148,339 148,339 74" fill="#000000" stroke="none" stroke-opacity="0" />
<polygon id="W11" points="232.5 73.5,232.5 148.5,267.5 148.5,267.5 73.5" fill="#000000" stroke="none" stroke-opacity="0" />
<polygon id="W12,W13" points="139.5 73,139.5 148,227.5 148,227.5 73" fill="#000000" stroke="none" stroke-opacity="0" />
<polygon id="W14,W15" points="134 73,134 147.5,45.5 147.5,45.5 73" fill="#000000" stroke="none" stroke-opacity="0" />

</svg>

