<?xml version="1.0" encoding="UTF-8" standalone="no"?>
<!-- Created with Inkscape (http://www.inkscape.org/) -->

<svg xmlns:dc="http://purl.org/dc/elements/1.1/" xmlns:cc="http://creativecommons.org/ns#" xmlns:rdf="http://www.w3.org/1999/02/22-rdf-syntax-ns#" xmlns:svg="http://www.w3.org/2000/svg" xmlns="http://www.w3.org/2000/svg" xmlns:xlink="http://www.w3.org/1999/xlink" xmlns:sodipodi="http://sodipodi.sourceforge.net/DTD/sodipodi-0.dtd" xmlns:inkscape="http://www.inkscape.org/namespaces/inkscape" width="770" height="410" id="svg2" version="1.1" inkscape:version="0.47pre4 " sodipodi:docname="test.svg" style="display:inline">
<defs id="defs4">
<inkscape:perspective sodipodi:type="inkscape:persp3d" inkscape:vp_x="0 : 526.18109 : 1" inkscape:vp_y="0 : 1000 : 0" inkscape:vp_z="744.09448 : 526.18109 : 1" inkscape:persp3d-origin="372.04724 : 350.78739 : 1" id="perspective10" />
<inkscape:perspective id="perspective2832" inkscape:persp3d-origin="0.5 : 0.33333333 : 1" inkscape:vp_z="1 : 0.5 : 1" inkscape:vp_y="0 : 1000 : 0" inkscape:vp_x="0 : 0.5 : 1" sodipodi:type="inkscape:persp3d" />
<script type="text/ecmascript" id="script6">
		var fdat="",sdat="";
		function onAreaOver(evt){
			var ele=evt.target; 
			fdat=ele.getAttribute('fill'); 
			sdat=ele.getAttribute('stroke');
			ele.setAttribute('fill','#006fb6');//多边形填充颜色
			ele.setAttribute('stroke','#006fb6');//stroke 多边形 边框颜色
			
		}
		function onAreaOut(evt){
			var ele=evt.target; 
			ele.setAttribute('fill',fdat);
			ele.setAttribute('stroke',sdat);
		}
		</script>
<symbol overflow="visible" id="symbol" style="overflow:visible">
<path d="m 626,156 2,-2 2,-4 0,-3 -1,-3 -4,-3 -6,-3 -5,-2 -4,-2 -4,8 -6,14" id="path9" style="fill:#000000;stroke:none" />
</symbol>
</defs>
<sodipodi:namedview id="base" pagecolor="#ffffff" bordercolor="#666666" borderopacity="1.0" inkscape:pageopacity="0.0" inkscape:pageshadow="2" inkscape:zoom="5.6" inkscape:cx="583.1007" inkscape:cy="273.63795" inkscape:document-units="px" inkscape:current-layer="svg2" showgrid="false" inkscape:window-width="1280" inkscape:window-height="740" inkscape:window-x="-4" inkscape:window-y="-4" inkscape:window-maximized="1" />
<metadata id="metadata7">
<rdf:RDF>
<cc:Work>
<dc:format>
image/svg+xml</dc:format>
<dc:type rdf:resource="http://purl.org/dc/dcmitype/StillImage" />
<dc:title>
</dc:title>
</cc:Work>
</rdf:RDF>
</metadata>
<image xlink:href="fuzhou_mall_-1f.png" width="770" height="410" id="image2834" x="-485" y="255.93361" transform="translate(485,-255.9336)" inkscape:label="Layer 1" inkscape:groupmode="layer" style="display:inline" />
<polygon id="BF001" points="671.5 99.5,646 136.5,654.25 141.75,664.25 149.75,692 114.5,682.5 107" fill="#000000" stroke="none" stroke-opacity="0" />
<polygon id="BF005" points="584.25 53.25,567.5 94.75,578.75 98.75,588.25 104.25,608.25 62.75,595.5 57" fill="#000000" stroke="none" stroke-opacity="0" />
<polygon id="BF006" points="538.75 36.75,532.25 57.5,554 65.5,547.25 86,567.75 94.25,584.75 52.5,569.75 46.75,553.25 40.75" fill="#000000" stroke="none" stroke-opacity="0" />
<polygon id="BF007" points="536.5 71.25,550.5 76,547.5 85.75,533.5 81" fill="#000000" stroke="none" stroke-opacity="0" />
<polygon id="BF008" points="514.5 29.75,504 73,525.75 79.75,538.75 36" fill="#000000" stroke="none" stroke-opacity="0" />
<polygon id="BF009" points="490 25,481.75 68.75,492.75 70.75,504 72.75,514 30.25,501.5 26.75" fill="#000000" stroke="none" stroke-opacity="0" />
<polygon id="BF010" points="465.5 21.5,477.5 22.5,489.75 25,481.75 68.75,471 66.5,459.5 66" fill="#000000" stroke="none" stroke-opacity="0" />
<polygon id="BF011" points="441.25 18.5,452.5 19,465.75 21,459.5 66.5,447.25 64,437.75 63.75" fill="#000000" stroke="none" stroke-opacity="0" />
<polygon id="BF012" points="415.5 62,427.5 61.5,437 63.5,441.25 19.25,428 17.5,416.25 18.25" fill="#000000" stroke="none" stroke-opacity="0" />
<polygon id="BF013" points="391.75 17.5,402.5 17,416 17.25,415.5 62.25,404.25 60.75,393 62.25" fill="#000000" stroke="none" stroke-opacity="0" />
<polygon id="BF014" points="367.5 18.5,379.25 17.5,392 17,393.25 61.25,381.25 62,370.25 63" fill="#000000" stroke="none" stroke-opacity="0" />
<polygon id="BF015" points="342 21.5,351.25 19.75,367.5 18.25,370.25 62.75,358.25 62.75,347.75 66.25" fill="#000000" stroke="none" stroke-opacity="0" />
<polygon id="BF016" points="318.25 25.5,330 23.25,341.75 21,347.75 65.75,338 67,325.75 68.75" fill="#000000" stroke="none" stroke-opacity="0" />
<polygon id="BF017" points="305.5 27.75,317.5 25.75,325.25 68.75,314.5 71,305 74,294.25 30.75" fill="#000000" stroke="none" stroke-opacity="0" />
<polygon id="BF018" points="280.5 34,294.5 30.25,304.75 74,295 75.75,283.5 80,270 37" fill="#000000" stroke="none" stroke-opacity="0" />
<polygon id="BF019" points="257.25 75.75,271.25 70.5,275.25 81.75,262 87" fill="#000000" stroke="none" stroke-opacity="0" />
<polygon id="BF020" points="276.5 57.5,254.25 65.25,260.5 86,241 94.75,223.75 53.75,237.5 47.75,260 39.75,270 37" fill="#000000" stroke="none" stroke-opacity="0" />
<polygon id="BF021" points="201.5 63.25,219.75 104.25,242 94.75,223.5 53" fill="#000000" stroke="none" stroke-opacity="0" />
<polygon id="BF024" points="152.75 89.75,173.25 122.5,159 131.5,136.75 100.75" fill="#000000" stroke="none" stroke-opacity="0" />
<polygon id="BF025" points="136.25 100.5,163.5 137.5,145 149.75,117 115.25" fill="#000000" stroke="none" stroke-opacity="0" />
<polygon id="BF026" points="98.5 130,127.25 163.75,144.75 149.5,116.75 115" fill="#000000" stroke="none" stroke-opacity="0" />
<polygon id="BF027" points="80.5 146.5,111.25 179.75,127.25 163.5,98.5 130" fill="#000000" stroke="none" stroke-opacity="0" />
<polygon id="BF028" points="137.8205 183.6538,149.2564 172.5769,162.8205 188.782,138.782 190.0641" fill="#000000" stroke="none" stroke-opacity="0" xmlns="http://www.w3.org/2000/svg" />
<polygon id="BF029" points="149.5 173,162 188.75,173.5 187.75,157.5 167.25" fill="#000000" stroke="none" stroke-opacity="0" xmlns="http://www.w3.org/2000/svg" />
<polygon id="BF030" points="157.75 167.25,171 185,179 178.25,166.25 160.5" fill="#000000" stroke="none" stroke-opacity="0" xmlns="http://www.w3.org/2000/svg" />
<polygon id="BF031" points="166.25 160.5,179.25 178.5,188.25 173.5,174.75 153.75" fill="#000000" stroke="none" stroke-opacity="0" xmlns="http://www.w3.org/2000/svg" />
<polygon id="BF032" points="175.25 153.5,188 173.25,196.5 167.75,183.5 148.75" fill="#000000" stroke="none" stroke-opacity="0" />
<polygon id="BF033" points="183.5 148.75,197 167.75,204.25 162,192.25 143.5" fill="#000000" stroke="none" stroke-opacity="0" />
<polygon id="BF034" points="229 122.75,239 143.5,250.5 138,242.25 116.75" fill="#000000" stroke="none" stroke-opacity="0" />
<polygon id="BF035" points="252.25 124.25,264.75 119.5,260.5 109.5,249 115" fill="#000000" stroke="none" stroke-opacity="0" />
<polygon id="BF036" points="276 127.75,284.75 124.75,279.25 103.25,268.75 106.75" fill="#000000" stroke="none" stroke-opacity="0" />
<polygon id="BF037" points="279.5 103,285 124.75,295.5 121.75,289 100.25" fill="#000000" stroke="none" stroke-opacity="0" xmlns="http://www.w3.org/2000/svg" />
<polygon id="BF038" points="289.5 100.25,295.75 121.75,305.25 118.5,299.25 97" fill="#000000" stroke="none" stroke-opacity="0" />
<polygon id="BF039" points="299.5 96.75,305.25 118.25,314.25 116,309 94.5" fill="#000000" stroke="none" stroke-opacity="0" />
<polygon id="BF040" points="309.5 94.75,314.75 115.5,324.5 113.75,320.25 91.75" fill="#000000" stroke="none" stroke-opacity="0" xmlns="http://www.w3.org/2000/svg" />
<polygon id="BF041" points="320 91.5,325 113.75,334.25 112,330.75 89" fill="#000000" stroke="none" stroke-opacity="0" />
<polygon id="BF042" points="332.5 97.75,342.25 95.5,344.25 110.75,334.25 111.5" fill="#000000" stroke="none" stroke-opacity="0" />
<polygon id="BF043" points="342.5 95.5,344.5 111,354.25 109,352.5 93.75" fill="#000000" stroke="none" stroke-opacity="0" />
<polygon id="BF046" points="455.5 94.25,455.25 104.25,464.625 106.375,466.5 95.375" fill="#000000" stroke="none" stroke-opacity="0" />
<polygon id="BF047" points="465 106.5,475.25 107.5,476.625 96.875,466.5 95.375" fill="#000000" stroke="none" stroke-opacity="0" />
<polygon id="BF048" points="477.625 90.125,475.625 107.75,485 109.375,488.75 92.625" fill="#000000" stroke="none" stroke-opacity="0" />
<polygon id="BF049" points="488.5 92.125,485.125 109.5,494.625 112.125,498.75 94.5" fill="#000000" stroke="none" stroke-opacity="0" />
<polygon id="BF050" points="498.875 94.375,494.875 112.125,505 113.5,508.875 97.125" fill="#000000" stroke="none" stroke-opacity="0" />
<polygon id="BF051" points="508.875 97.25,505 113.875,514.25 116.875,519.375 100.625" fill="#000000" stroke="none" stroke-opacity="0" />
<polygon id="BF052" points="519.75 100.25,514.375 116.875,524.25 119.75,529.875 103.5" fill="#000000" stroke="none" stroke-opacity="0" />
<polygon id="BF053" points="530.125 103.625,524.625 119.875,533.375 123.375,539.25 106.5" fill="#000000" stroke="none" stroke-opacity="0" />
<polygon id="BF054" points="543.75 118.25,555.875 123.5,559.875 114.25,547.625 109.125" fill="#000000" stroke="none" stroke-opacity="0" />
<polygon id="BF055" points="565.875 117.25,558 136.375,569.25 142.75,579.5 123" fill="#000000" stroke="none" stroke-opacity="0" />
<polygon id="BF056" points="616.125 143,634.125 154.625,631.625 160,629.75 165.25,610 152" fill="#000000" stroke="none" stroke-opacity="0" />
<polygon id="BF057" points="610.25 152.25,603.5 161.875,622 173.25,631.125 173.375,630 165.125" fill="#000000" stroke="none" stroke-opacity="0" />
<polygon id="BF058" points="622 172.625,631.375 172.375,633.875 179.125,638.875 184.125,639 188.375,614.5 186.5" fill="#000000" stroke="none" stroke-opacity="0" />
<polygon id="BF059" points="603.75 161.625,622 172.625,615.125 186.125,593.125 185,593.125 180.125" fill="#000000" stroke="none" stroke-opacity="0" />
<polygon id="BF060" points="560.5 138,569.25 143.25,560.375 163.625,550.75 158.375" fill="#000000" stroke="none" stroke-opacity="0" />
<polygon id="BF061" points="560.375 138,551.25 158.375,542.375 155.625,550.625 134.5" fill="#000000" stroke="none" stroke-opacity="0" />
<polygon id="BF062" points="548 141.75,542.375 155.125,533.625 151.375,538.25 138.625" fill="#000000" stroke="none" stroke-opacity="0" />
<polygon id="BF063" points="529.5 134.625,538.375 138.375,533.375 151.25,523.875 148.625" fill="#000000" stroke="none" stroke-opacity="0" />
<polygon id="BF064" points="520.875 128.5,531.125 131.25,524.375 148.25,515.125 145.5" fill="#000000" stroke="none" stroke-opacity="0" />
<polygon id="BF065" points="511.5 125.375,521.125 128.375,515.125 145.625,506.5 142.75" fill="#000000" stroke="none" stroke-opacity="0" />
<polygon id="BF066" points="501.875 123.75,511.5 125.25,506.5 142.5,497.5 140.25" fill="#000000" stroke="none" stroke-opacity="0" />
<polygon id="BF067" points="502 123.125,497.875 140.25,488.125 137.5,492.125 121" fill="#000000" stroke="none" stroke-opacity="0" />
<polygon id="BF068" points="483 118.125,492.5 120.25,488.25 137,479.375 135.5" fill="#000000" stroke="none" stroke-opacity="0" />
<polygon id="BF069" points="473 116,483.25 118.125,479.625 135.375,470 133.375" fill="#000000" stroke="none" stroke-opacity="0" />
<polygon id="BF070" points="462.875 114.75,472.875 115.875,470.375 133,460.75 132.25" fill="#000000" stroke="none" stroke-opacity="0" />
<polygon id="BF071" points="453 114.375,463 114.375,460.875 132.125,452.25 130.875" fill="#000000" stroke="none" stroke-opacity="0" />
<polygon id="BF072" points="424 106,438.125 106.875,437.25 129.125,422.75 128.5" fill="#000000" stroke="none" stroke-opacity="0" />
<polygon id="BF073" points="413.875 105.625,423.75 105.875,423 128.625,413.125 128.25" fill="#000000" stroke="none" stroke-opacity="0" />
<polygon id="BF074" points="383.875 106,384.875 128,395.5 127.875,394.5 106.375" fill="#000000" stroke="none" stroke-opacity="0" />
<polygon id="BF075" points="369.625 106.625,371.875 129.125,384.625 128.5,384.125 105.875" fill="#000000" stroke="none" stroke-opacity="0" />
<polygon id="BF076" points="344.75 110.375,354.5 108.75,356.875 131.125,347.125 131.875" fill="#000000" stroke="none" stroke-opacity="0" />
<polygon id="BF077" points="334 111.875,338 134.125,347.375 132.5,344.5 110.625" fill="#000000" stroke="none" stroke-opacity="0" />
<polygon id="BF078" points="324.5 114.375,328.625 135.5,337.875 133.75,334 111.375" fill="#000000" stroke="none" stroke-opacity="0" />
<polygon id="BF079" points="314.125 115.375,324.375 114.5,328.625 135.875,319 137.625" fill="#000000" stroke="none" stroke-opacity="0" />
<polygon id="BF080" points="305 118.25,314.25 115.5,319 137.5,309.875 139.75" fill="#000000" stroke="none" stroke-opacity="0" />
<polygon id="BF081" points="295.5 121.375,305.25 118,310 139.875,301.5 142.875" fill="#000000" stroke="none" stroke-opacity="0" />
<polygon id="BF082" points="284.875 124.5,295.375 121,301.875 142.625,291.5 145.875" fill="#000000" stroke="none" stroke-opacity="0" xmlns="http://www.w3.org/2000/svg" />
<polygon id="BF083" points="276.125 127.625,284.75 124.375,291.625 146,283.125 149" fill="#000000" stroke="none" stroke-opacity="0" />
<polygon id="BF084" points="267.125 131.5,276.125 127.75,283 148.5,274.25 152.125" fill="#000000" stroke="none" stroke-opacity="0" />
<polygon id="BF085" points="258.125 135.125,267.125 131.125,274.125 152.375,265.375 155.125" fill="#000000" stroke="none" stroke-opacity="0" xmlns="http://www.w3.org/2000/svg" />
<polygon id="BF086" points="249.625 138.75,257.625 135.375,265.625 154.5,257.25 159.125" fill="#000000" stroke="none" stroke-opacity="0" xmlns="http://www.w3.org/2000/svg" />
<polygon id="BF087" points="239.625 143.75,249.625 138.25,257.25 159.25,249 163.75" fill="#000000" stroke="none" stroke-opacity="0" xmlns="http://www.w3.org/2000/svg" />
<polygon id="BF088" points="196.125 168,204.375 161.5,215.625 180.25,209 184.5,205.75 185.25" fill="#000000" stroke="none" stroke-opacity="0" />
<polygon id="BF089" points="188 173,196.125 167.875,205.375 185.125,194.875 185.75" fill="#000000" stroke="none" stroke-opacity="0" />
<polygon id="BF090" points="171 185,178.75 178.25,187.875 173.125,194.5 186.125,173 188.5" fill="#000000" stroke="none" stroke-opacity="0" xmlns="http://www.w3.org/2000/svg" />
<polygon id="BF091" points="150 196.6346,172.3558 195.1923,172.3558 204.8077,150 205.0481" fill="#000000" stroke="none" stroke-opacity="0" />
<polygon id="BF092" points="153.125 205.2885,153.3654 217.5481,174.0385 216.1058,172.3558 204.7885" fill="#000000" stroke="none" stroke-opacity="0" xmlns="http://www.w3.org/2000/svg" />
<polygon id="BF093" points="129.5 218.125,152.25 217.25,152.25 228,130.875 229.375" fill="#000000" stroke="none" stroke-opacity="0" />
<polygon id="BF094" points="152.125 216.75,152.625 228.375,174.875 226.875,173.875 216.25" fill="#000000" stroke="none" stroke-opacity="0" />
<polygon id="BF096" points="130.625 229.375,152.5 228,153.25 239,131 240.5" fill="#000000" stroke="none" stroke-opacity="0" />
<polygon id="BF095" points="152.625 227.75,153.75 238.375,175.75 237.5,174.75 227" fill="#000000" stroke="none" stroke-opacity="0" />
<polygon id="BF097" points="131.375 240,132.125 251.5,154.25 250.25,153.75 238.375" fill="#000000" stroke="none" stroke-opacity="0" />
<polygon id="BF098" points="153.875 238.375,154.125 250.75,176.5 249,175.875 237.125" fill="#000000" stroke="none" stroke-opacity="0" />
<polygon id="BF101" points="134.5 273,134.75 284.375,155.75 283.375,156 271" fill="#000000" stroke="none" stroke-opacity="0" />
<polygon id="BF102" points="134.625 284.375,136.5 295.5,157.75 293.625,156.5 282.75" fill="#000000" stroke="none" stroke-opacity="0" />
<polygon id="BF103" points="136.625 295.5,137 306.25,158 305.125,157.875 293.5" fill="#000000" stroke="none" stroke-opacity="0" />
<polygon id="BF104" points="156.125 271.125,158 303.5,169.125 304.125,167.125 270.5" fill="#000000" stroke="none" stroke-opacity="0" />
<polygon id="BF105" points="167.125 270.5,169.375 303.125,179.75 303,178.125 269.625" fill="#000000" stroke="none" stroke-opacity="0" />
<polygon id="BF106" points="178.375 269.625,180.25 302.375,191.5 301.5,189.25 268.75" fill="#000000" stroke="none" stroke-opacity="0" />
<polygon id="BF107" points="189.375 268.625,191.75 301.75,202.125 301.375,199.875 268.25" fill="#000000" stroke="none" stroke-opacity="0" />
<polygon id="BF108" points="200 268.375,202.25 301,213.25 300.125,211.375 267.125" fill="#000000" stroke="none" stroke-opacity="0" />
<polygon id="BF109" points="211.375 267,213.5 300.375,223.75 299.25,221.75 266.625" fill="#000000" stroke="none" stroke-opacity="0" />
<polygon id="BF110" points="221.875 266.625,223.875 298.75,235.625 298.625,232.5 266.125" fill="#000000" stroke="none" stroke-opacity="0" />
<polygon id="BF111" points="232.625 266,235.5 298.375,246 297.875,244.25 264.875" fill="#000000" stroke="none" stroke-opacity="0" />
<polygon id="BF112" points="244.5 264.75,245.875 296.5,257.625 297.125,255.75 264.125" fill="#000000" stroke="none" stroke-opacity="0" />
<polygon id="BF113" points="255.375 263.875,257.875 296.75,268.125 295.75,266.5 262.875" fill="#000000" stroke="none" stroke-opacity="0" />
<polygon id="BF114" points="266.75 262.875,268.25 295.5,279.375 295.25,277.25 262.375" fill="#000000" stroke="none" stroke-opacity="0" />
<polygon id="BF115" points="277.25 262.375,279.625 295.25,290.125 294.125,288 261.375" fill="#000000" stroke="none" stroke-opacity="0" />
<polygon id="BF116" points="288.25 261.375,290.625 294,301 293.25,299.125 260.375" fill="#000000" stroke="none" stroke-opacity="0" />
<polygon id="BF117" points="299 260.25,301.125 293.125,311.625 293,309.875 259.625" fill="#000000" stroke="none" stroke-opacity="0" />
<polygon id="BF118" points="322.75 276.25,332.625 275.375,332.5 267.75,322 268.5" fill="#000000" stroke="none" stroke-opacity="0" />
<polygon id="BF119" points="310.5 269.5,321.25 269.5,322.5 276.25,333.125 275.75,333.125 283.5,311.75 284.125" fill="#000000" stroke="none" stroke-opacity="0" />
<polygon id="BF120" points="475.625 274.625,474.375 290.5,504.125 292.375,504.25 277" fill="#000000" stroke="none" stroke-opacity="0" />
<polygon id="BF121" points="505.375 260.125,504.25 293,518.5 293.75,520.75 261.375" fill="#000000" stroke="none" stroke-opacity="0" />
<polygon id="BF122" points="521 261.25,519 293.5,530.375 294.375,532.375 262.375" fill="#000000" stroke="none" stroke-opacity="0" />
<polygon id="BF123" points="532 262.125,530.375 294.625,541.125 295.625,542.625 262.875" fill="#000000" stroke="none" stroke-opacity="0" />
<polygon id="BF124" points="542.75 262.625,541.25 296,551.625 296.125,554.125 263.125" fill="#000000" stroke="none" stroke-opacity="0" />
<polygon id="BF125" points="554 263.125,552 296.625,562.125 296.875,564.375 264.5" fill="#000000" stroke="none" stroke-opacity="0" />
<polygon id="BF126" points="564.5 264.625,562.5 297.375,573.75 298.25,575.5 265.5" fill="#000000" stroke="none" stroke-opacity="0" />
<polygon id="BF127" points="575.5 265.125,573.75 298.5,584.5 299,587.25 266.375" fill="#000000" stroke="none" stroke-opacity="0" />
<polygon id="BF128" points="587.125 266,585 299.625,595.875 300.125,598 267.5" fill="#000000" stroke="none" stroke-opacity="0" />
<polygon id="BF129" points="598 267.25,595.75 300.125,606.875 301.125,608.875 268.125" fill="#000000" stroke="none" stroke-opacity="0" xmlns="http://www.w3.org/2000/svg" />
<polygon id="BF131" points="611.5 234.5,611 245.75,589 246,589.75 233.5" fill="#000000" stroke="none" stroke-opacity="0" />
<polygon id="BF132" points="590.75 222.25,590 233.25,612 234.5,611.5 224.25" fill="#000000" stroke="none" stroke-opacity="0" />
<polygon id="BF133" points="591.5 212.5,591 222.5,612.5 224.25,613 213.25" fill="#000000" stroke="none" stroke-opacity="0" />
<polygon id="BF134" points="592.75 199,591.75 212.5,613.5 212.75,614.5 199.25" fill="#000000" stroke="none" stroke-opacity="0" xmlns="http://www.w3.org/2000/svg" />
<polygon id="BF135" points="594 185.5,592.75 198.75,615 198.75,615.25 186.5" fill="#000000" stroke="none" stroke-opacity="0" />
<polygon id="BF136" points="616 187.25,615.5 200,636.25 200.5,637 188.5" fill="#000000" stroke="none" stroke-opacity="0" />
<polygon id="BF137" points="615 200,614 214,636 215.75,636 201.25" fill="#000000" stroke="none" stroke-opacity="0" xmlns="http://www.w3.org/2000/svg" />
<polygon id="BF138" points="613.5 213.75,613.25 224.75,634 226.5,634.5 215" fill="#000000" stroke="none" stroke-opacity="0" />
<polygon id="BF139" points="612.5 224.75,612.5 234.75,633 236.5,633.5 225.25" fill="#000000" stroke="none" stroke-opacity="0" />
<polygon id="BF140" points="612 235,611.5 246.5,632.25 248.75,633.5 235.5" fill="#000000" stroke="none" stroke-opacity="0" />
<polygon id="BF142" points="608.25 267.75,607.75 278.75,630 281,630.5 268.5" fill="#000000" stroke="none" stroke-opacity="0" />
<polygon id="BF143" points="608.25 278,607.5 290.5,627.75 291.5,629.25 280.75" fill="#000000" stroke="none" stroke-opacity="0" />
<polygon id="BF144" points="608 290,607 301.5,627.75 303.5,628.75 290.25" fill="#000000" stroke="none" stroke-opacity="0" />
<polygon id="BF145" points="606 300.25,605.5 312.25,627.25 314.25,627.75 301" fill="#000000" stroke="none" stroke-opacity="0" />
<polygon id="BF146" points="605.5 312.25,604.5 323.5,627 325.75,626.75 312.75" fill="#000000" stroke="none" stroke-opacity="0" />
<polygon id="BF147" points="594.5 299.75,594 322.25,605 323,606.5 300" fill="#000000" stroke="none" stroke-opacity="0" />
<polygon id="BF148" points="583.75 298.75,594.75 299.25,594.25 321.75,583 321.25" fill="#000000" stroke="none" stroke-opacity="0" />
<polygon id="BF149" points="573.25 298,583.75 297.75,583.25 322,570.75 320.75" fill="#000000" stroke="none" stroke-opacity="0" />
<polygon id="BF150" points="561.5 297.25,573.25 297.75,571.75 320,561.5 319.75" fill="#000000" stroke="none" stroke-opacity="0" />
<polygon id="BF151" points="551 296,561.75 296.75,562 320,549.25 318.75" fill="#000000" stroke="none" stroke-opacity="0" />
<polygon id="BF152" points="540.5 296.25,551 296.25,550 318.25,538.75 317.5" fill="#000000" stroke="none" stroke-opacity="0" />
<polygon id="BF153" points="528.75 294.25,541 295.5,539.75 318,528 317.5" fill="#000000" stroke="none" stroke-opacity="0" />
<polygon id="BF154" points="517.75 293,529.25 294.5,528 317.5,516.75 316.75" fill="#000000" stroke="none" stroke-opacity="0" />
<polygon id="BF155" points="507.25 293.5,505.75 315.75,517 316.75,518 293.5" fill="#000000" stroke="none" stroke-opacity="0" />
<polygon id="BF156" points="496.5 291.25,507.75 292,506 315.75,494.25 314.5" fill="#000000" stroke="none" stroke-opacity="0" />
<polygon id="BF157" points="485.25 291,497.25 291.25,495.25 314.5,484.75 314" fill="#000000" stroke="none" stroke-opacity="0" />
<polygon id="BF158" points="474.25 290.25,485.25 290.75,485.5 314.25,472.5 313" fill="#000000" stroke="none" stroke-opacity="0" />
<polygon id="BF159" points="323 291.25,334.25 291,335.25 312.75,323.75 312.75" fill="#000000" stroke="none" stroke-opacity="0" />
<polygon id="BF160" points="311.25 291.75,323 291.75,324.5 313.75,313.25 314.5" fill="#000000" stroke="none" stroke-opacity="0" />
<polygon id="BF161" points="301.25 293,311 292,313.5 315.25,301.75 315.5" fill="#000000" stroke="none" stroke-opacity="0" />
<polygon id="BF162" points="290.25 293.5,301 292.75,301.75 316,292 316" fill="#000000" stroke="none" stroke-opacity="0" />
<polygon id="BF163" points="278.5 294.25,290.5 293.5,291.75 315.25,279.75 316.75" fill="#000000" stroke="none" stroke-opacity="0" />
<polygon id="BF164" points="268 294.5,279 294.25,280.25 317.25,269.25 318.5" fill="#000000" stroke="none" stroke-opacity="0" />
<polygon id="BF165" points="257.5 296.75,268 295.75,269.75 318.5,258 319" fill="#000000" stroke="none" stroke-opacity="0" />
<polygon id="BF166" points="246 296.75,257.5 296.75,258.25 319.5,247.75 320" fill="#000000" stroke="none" stroke-opacity="0" />
<polygon id="BF167" points="235 298,236 320.5,248 320,245.5 296.75" fill="#000000" stroke="none" stroke-opacity="0" />
<polygon id="BF168" points="224.5 299,235.25 298.25,237 320.75,226 321.5" fill="#000000" stroke="none" stroke-opacity="0" />
<polygon id="BF169" points="213.75 299.75,224 298.25,225.75 321.5,214.75 321.5" fill="#000000" stroke="none" stroke-opacity="0" />
<polygon id="BF170" points="202.5 300.75,213.5 300,214.5 321.75,203.75 323.5" fill="#000000" stroke="none" stroke-opacity="0" />
<polygon id="BF171" points="191.5 301.75,202.5 301,204 322.5,192 323.5" fill="#000000" stroke="none" stroke-opacity="0" xmlns="http://www.w3.org/2000/svg" />
<polygon id="BF172" points="180.5 302.75,191.75 301.25,192.75 322.75,182 324.5" fill="#000000" stroke="none" stroke-opacity="0" />
<polygon id="BF173" points="169.5 303.5,180.5 303.25,181.75 325.25,170.5 325.5" fill="#000000" stroke="none" stroke-opacity="0" />
<polygon id="BF174" points="158.75 304.25,169 303.75,170.5 325,159 326.75" fill="#000000" stroke="none" stroke-opacity="0" />
<polygon id="BF175" points="136.75 305.5,137.75 317.75,159 316,159 304" fill="#000000" stroke="none" stroke-opacity="0" />
<polygon id="BF176" points="138.25 316.5,138 329.25,159.5 327.5,158.5 314.5" fill="#000000" stroke="none" stroke-opacity="0" />
<polygon id="BF177" points="118.25 349.25,132.5 348.5,133.5 368.5,119.25 368.75" fill="#000000" stroke="none" stroke-opacity="0" />
<polygon id="BF178" points="139.25 348,140.75 368.75,151.75 368.25,151.75 347.5" fill="#000000" stroke="none" stroke-opacity="0" />
<polygon id="BF179" points="152.25 347.25,152.5 368.5,162.75 367.5,162.75 347.25" fill="#000000" stroke="none" stroke-opacity="0" />
<polygon id="BF180" points="163 346,163 367.5,173 366.25,173.5 345.75" fill="#000000" stroke="none" stroke-opacity="0" />
<polygon id="BF181" points="173 345.5,173.75 365.5,185.25 364.75,184 344.5" fill="#000000" stroke="none" stroke-opacity="0" />
<polygon id="BF182" points="184.5 343.5,185.5 365.75,196.25 364.5,195.5 344" fill="#000000" stroke="none" stroke-opacity="0" />
<polygon id="BF183" points="195.75 342.75,196.75 364.5,202.75 363.75,202.25 358.25,209.25 356.5,208.25 342.5" fill="#000000" stroke="none" stroke-opacity="0" />
<polygon id="BF184" points="216 342.25,217.25 355.75,228.75 354.75,227.5 340.5" fill="#000000" stroke="none" stroke-opacity="0" />
<polygon id="BF185" points="228 340.5,229.25 354.5,239 354.5,239.5 340.25" fill="#000000" stroke="none" stroke-opacity="0" />
<polygon id="BF186" points="239.5 340.75,240 353.25,249.25 352.5,249.75 338.5" fill="#000000" stroke="none" stroke-opacity="0" />
<polygon id="BF187" points="249.75 338.5,250 353,261.25 351.75,261.5 337.75" fill="#000000" stroke="none" stroke-opacity="0" />
<polygon id="BF188" points="261.75 337.75,262 352,272 351.5,271.75 337" fill="#000000" stroke="none" stroke-opacity="0" />
<polygon id="BF189" points="272.25 337,272.5 351.75,283.5 351,282.25 336.25" fill="#000000" stroke="none" stroke-opacity="0" />
<polygon id="BF190" points="282.75 337,283.5 350,284.75 355.25,295.25 354,294.5 335.75" fill="#000000" stroke="none" stroke-opacity="0" />
<polygon id="BF191" points="294.75 335.5,296.25 354.25,305.5 353.5,305 334.5" fill="#000000" stroke="none" stroke-opacity="0" />
<polygon id="BF192" points="310 335,310.25 356,316.75 356.75,318 380.75,340.5 379.75,336.75 332" fill="#000000" stroke="none" stroke-opacity="0" xmlns="http://www.w3.org/2000/svg" />
<polygon id="BF193" points="336 332,340.75 378.75,363.25 377.25,359.5 330.75" fill="#000000" stroke="none" stroke-opacity="0" />
<polygon id="BF194" points="359.75 330.5,364.75 390.5,385.25 388.5,382 329.25" fill="#000000" stroke="none" stroke-opacity="0" />
<polygon id="BF195" points="382 329,385.75 388.25,404.75 386.75,404 327.75" fill="#000000" stroke="none" stroke-opacity="0" />
<polygon id="BF196" points="403.5 328,405.5 386.5,423.5 386.5,428 329.5" fill="#000000" stroke="none" stroke-opacity="0" />
<polygon id="BF197" points="428.25 329.5,425 375.25,445.75 376.5,449.75 331.5" fill="#000000" stroke="none" stroke-opacity="0" />
<polygon id="BF198" points="450 331,446.25 377.5,470 379.5,472.25 333.25" fill="#000000" stroke="none" stroke-opacity="0" />
<polygon id="BF199" points="471.75 332.5,470.25 379,490.5 380,493 333.75" fill="#000000" stroke="none" stroke-opacity="0" />
<polygon id="BF200" points="493.25 334.25,492.25 353.75,507 353.75,508.25 335.5" fill="#000000" stroke="none" stroke-opacity="0" />
<polygon id="BF206" points="592.25 342.5,591 365.5,601 366.5,602.75 342" fill="#000000" stroke="none" stroke-opacity="0" />
<polygon id="BF207" points="602 342.25,601 364,610.5 364,610.75 344" fill="#000000" stroke="none" stroke-opacity="0" />
<polygon id="BF208" points="610.5 343.5,610.25 364.5,623.75 365.25,624.25 344.5" fill="#000000" stroke="none" stroke-opacity="0" xmlns="http://www.w3.org/2000/svg" />
<polygon id="BF209" points="624.5 344.25,624 365,638.5 365.25,640.25 345.5" fill="#000000" stroke="none" stroke-opacity="0" />
<polygon id="BF212" points="360.5769 107.8526,373.8782 106.5705,373.3974 91.50641,358.9743 92.78846" fill="#000000" stroke="none" stroke-opacity="0" />
<polygon id="BF213" points="373.7179 90.86538,374.3589 105.7692,383.3333 105.609,394.391 106.0897,393.9102 90.22436" fill="#000000" stroke="none" stroke-opacity="0" />
<polygon id="BF214" points="414.2628 91.02563,414.1025 105.9295,424.5192 105.609,434.4551 106.25,436.2179 91.02563,424.5192 90.54487" fill="#000000" stroke="none" stroke-opacity="0" />
<polygon id="BF215" points="436.5385 91.02563,434.2949 106.5705,447.2756 107.2115,450 91.82692" fill="#000000" stroke="none" stroke-opacity="0" />
<polygon id="BF216" points="657.6923 196.7949,657.0513 207.2115,680.1282 207.532,679.8077 198.0769" fill="#000000" stroke="none" stroke-opacity="0" />
<polygon id="BF217" points="657.0513 207.5321,655.9295 217.6282,679.4872 219.2308,679.6474 207.2115" fill="#000000" stroke="none" stroke-opacity="0" />
<polygon id="BF218" points="655.9295 217.9487,655.1282 228.5257,678.5256 229.3269,678.8461 219.5513" fill="#000000" stroke="none" stroke-opacity="0" />
<polygon id="BF219" points="655.1282 228.6859,654.968 239.4231,677.2436 240.8654,678.2051 229.3269" fill="#000000" stroke="none" stroke-opacity="0" />
<polygon id="BF220" points="655.1282 239.4231,654.1666 250,676.4423 251.1218,676.9231 241.0257" fill="#000000" stroke="none" stroke-opacity="0" />
<polygon id="BF221" points="650.4808 293.109,649.3589 304.968,672.4359 306.4102,672.7564 295.1923" fill="#000000" stroke="none" stroke-opacity="0" />
<polygon id="BF222" points="649.8397 304.968,649.3589 315.8654,671.3141 317.1474,671.9551 306.4102" fill="#000000" stroke="none" stroke-opacity="0" />
<polygon id="BF223" points="649.1987 316.1859,648.718 326.4423,670.9936 328.5256,671.1538 316.8269" fill="#000000" stroke="none" stroke-opacity="0" />
<polygon id="BF227" points="79.64743 146.6346,110.4167 179.3269,105.1282 185.2565,106.7692 208.2308,84.51282 208.0513" fill="#000000" stroke="none" stroke-opacity="0" xmlns="http://www.w3.org/2000/svg" />
<polygon id="BF228" points="85.73717 208.9744,85.09615 221.7949,108.0128 220.8333,106.891 207.3718" fill="#000000" stroke="none" stroke-opacity="0" />
<polygon id="BF229" points="85.41666 222.1154,86.53846 233.1731,108.8141 231.5705,107.6923 220.5128" fill="#000000" stroke="none" stroke-opacity="0" />
<polygon id="BF230" points="86.69872 232.8526,87.33974 244.2308,109.1346 242.7885,108.4936 231.891" fill="#000000" stroke="none" stroke-opacity="0" />
<polygon id="BF231" points="87.5 243.75,88.6218 255.9295,110.0962 254.4872,109.7756 242.1474" fill="#000000" stroke="none" stroke-opacity="0" />
<polygon id="BF232" points="91.34615 287.3398,91.98717 298.718,113.141 297.2756,112.5 285.2564" fill="#000000" stroke="none" stroke-opacity="0" />
<polygon id="BF233" points="91.98717 298.5577,92.6282 309.2949,115.2244 308.8141,113.141 297.5962" fill="#000000" stroke="none" stroke-opacity="0" />
<polygon id="BF234" points="92.78846 309.4551,93.58974 320.032,115.7051 319.391,114.7436 309.1346" fill="#000000" stroke="none" stroke-opacity="0" />
<polygon id="BF235" points="93.75 320.3526,94.55128 331.25,116.5064 329.968,115.3846 319.5513" fill="#000000" stroke="none" stroke-opacity="0" />
<polygon id="BF236" points="95.03205 331.5705,95.83333 341.9872,117.1474 341.8269,116.0256 329.968" fill="#000000" stroke="none" stroke-opacity="0" />
<polygon id="BF237" points="96.15385 342.3077,95.51282 353.6859,117.7885 351.6026,116.8269 341.9872" fill="#000000" stroke="none" stroke-opacity="0" />
<polygon id="BF238" points="512.8205 336.218,511.3782 361.8589,514.1025 362.5,513.141 381.5705,534.1346 383.8141,536.8589 337.6602" fill="#000000" stroke="none" stroke-opacity="0" />
<polygon id="BF239" points="537.0192 337.3398,534.4551 384.4551,555.7692 384.9359,559.2949 339.1026" fill="#000000" stroke="none" stroke-opacity="0" />
<polygon id="BF240" points="559.2949 339.2628,556.0897 386.0577,577.5641 386.6987,580.7692 341.0256" fill="#000000" stroke="none" stroke-opacity="0" />
<polygon id="BF243" points="660.8974 92.94872,640.7051 126.2821,649.3589 132.0513,671.4744 99.67949" fill="#000000" stroke="none" stroke-opacity="0" />
<polygon id="BF244" points="650.3205 85.89744,629.8077 119.5513,640.0641 125.3205,660.5769 92.94872" fill="#000000" stroke="none" stroke-opacity="0" />
<polygon id="BF245" points="640.0641 79.80769,621.4744 113.7821,629.8077 119.8718,650.3205 85.25641" fill="#000000" stroke="none" stroke-opacity="0" />
<polygon id="BF246" points="629.1667 74.03846,610.5769 108.6538,621.4744 114.1026,640.3846 79.16666" fill="#000000" stroke="none" stroke-opacity="0" />
<polygon id="BF247" points="618.2692 68.91026,600.641 102.5641,610.5769 108.6538,629.8077 73.71795" fill="#000000" stroke="none" stroke-opacity="0" />
<polygon id="BF248" points="608.0128 62.82051,591.9872 97.75641,600.641 102.2436,617.9487 67.94872" fill="#000000" stroke="none" stroke-opacity="0" />
<polygon id="BF249" points="189.7436 68.58974,207.6923 102.8846,216.3462 97.75641,201.282 62.5" fill="#000000" stroke="none" stroke-opacity="0" />
<polygon id="BF250" points="179.4872 74.35897,197.4359 106.7308,207.6923 101.6026,190.7051 68.58974" fill="#000000" stroke="none" stroke-opacity="0" />
<polygon id="BF251" points="168.2692 80.76923,178.8461 74.67948,198.0769 108.3333,187.5 113.7821" fill="#000000" stroke="none" stroke-opacity="0" />
<polygon id="BF252" points="158.3333 87.82051,168.5897 80.44872,187.8205 114.7436,177.8846 120.1923" fill="#000000" stroke="none" stroke-opacity="0" />
<polygon id="BF253" points="653.2051 250.3205,652.8846 261.5385,675.9615 262.8205,676.923 251.6026" fill="#000000" stroke="none" stroke-opacity="0" />
<polygon id="BF254" points="653.5256 262.1795,652.5641 271.7949,674.6794 273.3974,675.9615 263.4615" fill="#000000" stroke="none" stroke-opacity="0" />
<polygon id="BF255" points="651.923 272.1154,651.282 293.2692,673.0769 295.1923,675.3205 273.7179" fill="#000000" stroke="none" stroke-opacity="0" />
</svg>
