<?xml version="1.0" encoding="UTF-8" standalone="no"?>
<!-- Created with Inkscape (http://www.inkscape.org/) -->

<svg xmlns:dc="http://purl.org/dc/elements/1.1/" xmlns:cc="http://creativecommons.org/ns#" xmlns:rdf="http://www.w3.org/1999/02/22-rdf-syntax-ns#" xmlns:svg="http://www.w3.org/2000/svg" xmlns="http://www.w3.org/2000/svg" xmlns:xlink="http://www.w3.org/1999/xlink" xmlns:sodipodi="http://sodipodi.sourceforge.net/DTD/sodipodi-0.dtd" xmlns:inkscape="http://www.inkscape.org/namespaces/inkscape" width="770" height="410" id="svg2" version="1.1" inkscape:version="0.47pre4 " sodipodi:docname="test.svg" style="display:inline">
<defs id="defs4">
<inkscape:perspective sodipodi:type="inkscape:persp3d" inkscape:vp_x="0 : 526.18109 : 1" inkscape:vp_y="0 : 1000 : 0" inkscape:vp_z="744.09448 : 526.18109 : 1" inkscape:persp3d-origin="372.04724 : 350.78739 : 1" id="perspective10" />
<inkscape:perspective id="perspective2832" inkscape:persp3d-origin="0.5 : 0.33333333 : 1" inkscape:vp_z="1 : 0.5 : 1" inkscape:vp_y="0 : 1000 : 0" inkscape:vp_x="0 : 0.5 : 1" sodipodi:type="inkscape:persp3d" />
<script type="text/ecmascript" id="script6">
		var fdat="",sdat="";
		function onAreaOver(evt){
			var ele=evt.target; 
			fdat=ele.getAttribute('fill'); 
			sdat=ele.getAttribute('stroke');
			ele.setAttribute('fill','#006fb6');//多边形填充颜色
			ele.setAttribute('stroke','#006fb6');//stroke 多边形 边框颜色
			
		}
		function onAreaOut(evt){
			var ele=evt.target; 
			ele.setAttribute('fill',fdat);
			ele.setAttribute('stroke',sdat);
		}
		</script>
<symbol overflow="visible" id="symbol" style="overflow:visible">
<path d="m 626,156 2,-2 2,-4 0,-3 -1,-3 -4,-3 -6,-3 -5,-2 -4,-2 -4,8 -6,14" id="path9" style="fill:#000000;stroke:none" />
</symbol>
</defs>
<sodipodi:namedview id="base" pagecolor="#ffffff" bordercolor="#666666" borderopacity="1.0" inkscape:pageopacity="0.0" inkscape:pageshadow="2" inkscape:zoom="5.6" inkscape:cx="583.1007" inkscape:cy="273.63795" inkscape:document-units="px" inkscape:current-layer="svg2" showgrid="false" inkscape:window-width="1280" inkscape:window-height="740" inkscape:window-x="-4" inkscape:window-y="-4" inkscape:window-maximized="1" />
<metadata id="metadata7">
<rdf:RDF>
<cc:Work>
<dc:format>
				image/svg+xml</dc:format>
<dc:type rdf:resource="http://purl.org/dc/dcmitype/StillImage" />
<dc:title>
</dc:title>
</cc:Work>
</rdf:RDF>
</metadata>
<image xlink:href="fuzhou_mall_4f.png" width="770" height="410" id="image2834" x="-485" y="255.93361" transform="translate(485,-255.9336)" inkscape:label="Layer 1" inkscape:groupmode="layer" style="display:inline" />
<polygon id="4F001" points="680 158,708.75 124.25,727.25 141,723.5 188.75,679.25 185.75" fill="#000000" stroke="none" stroke-opacity="0" />
<polygon id="4F002" points="685.75 151.75,676.25 144.75,698.75 116.5,708.25 125" fill="#000000" stroke="none" stroke-opacity="0" />
<polygon id="4F003" points="676.75 143.5,667.75 137.25,690 109,699.75 117" fill="#000000" stroke="none" stroke-opacity="0" />
<polygon id="4F004" points="667 137,658 130.75,680 102,689.75 109.25" fill="#000000" stroke="none" stroke-opacity="0" />
<polygon id="4F005" points="658 130.25,679.75 102,669.5 94.5,649.25 124.25" fill="#000000" stroke="none" stroke-opacity="0" />
<polygon id="4F006" points="639 117.5,649.25 123.75,669.5 94.25,659 87.5" fill="#000000" stroke="none" stroke-opacity="0" />
<polygon id="4F007" points="630.25 111.25,639.25 117.25,659 87.25,648.5 80.75" fill="#000000" stroke="none" stroke-opacity="0" />
<polygon id="4F008" points="620.75 106,630.75 110.75,648.75 80.75,637.5 75.25" fill="#000000" stroke="none" stroke-opacity="0" />
<polygon id="4F009" points="610 100.25,620.75 105.75,638 75,627.25 69" fill="#000000" stroke="none" stroke-opacity="0" />
<polygon id="4F011" points="167.25 75,177.75 69,195 100.25,185.25 106.25" fill="#000000" stroke="none" stroke-opacity="0" />
<polygon id="4F012" points="175.25 111.5,185.25 106.25,167.25 74.75,156.5 81.75" fill="#000000" stroke="none" stroke-opacity="0" />
<polygon id="4F013" points="146 87.5,156.75 81.75,175 111.75,165.75 118" fill="#000000" stroke="none" stroke-opacity="0" />
<polygon id="4F014" points="136 95.25,146 88.25,165.75 118.25,156.5 124.75" fill="#000000" stroke="none" stroke-opacity="0" />
<polygon id="4F015" points="126 103,135.5 94,157.25 124.5,146.75 132.25" fill="#000000" stroke="none" stroke-opacity="0" />
<polygon id="4F016" points="116.25 109,126 102.25,147 132.25,137.75 138.5" fill="#000000" stroke="none" stroke-opacity="0" />
<polygon id="4F017" points="106 116.75,115.75 109,137.25 138.75,128.5 145.5" fill="#000000" stroke="none" stroke-opacity="0" />
<polygon id="4F018" points="96.25 124.75,106 116.25,128.75 145.75,119.25 151.5" fill="#000000" stroke="none" stroke-opacity="0" />
<polygon id="4F019" points="78.25 142,96.25 124.5,126.5 159,124 168,126.5 185.5,81 188.75" fill="#000000" stroke="none" stroke-opacity="0" />
<polygon id="4F020" points="223 129.5,250.5 116.5,256.75 129.25,229.5 141.75" fill="#000000" stroke="none" stroke-opacity="0" />
<polygon id="4F021" points="229.25 142.25,237.5 150.25,251 143.25,247.75 133.25" fill="#000000" stroke="none" stroke-opacity="0" />
<polygon id="4F022" points="251.5 142.25,258.5 158.75,246.75 156.75,237.5 151.25" fill="#000000" stroke="none" stroke-opacity="0" />
<polygon id="4F023" points="248 133.5,259 158.75,268.25 157.75,256.5 129.75" fill="#000000" stroke="none" stroke-opacity="0" />
<polygon id="4F024" points="256.75 129.75,266 126.25,277.75 156.75,268.75 158" fill="#000000" stroke="none" stroke-opacity="0" />
<polygon id="4F025" points="266.5 126,278 156.25,286.5 155.5,275 121.75" fill="#000000" stroke="none" stroke-opacity="0" />
<polygon id="4F026" points="274.75 121.75,281.5 118.75,277.75 106.75,290.5 103,297.25 126.25,279 132.75" fill="#000000" stroke="none" stroke-opacity="0" />
<polygon id="4F027" points="291.5 103,298 125.75,306.75 123.75,300.5 99" fill="#000000" stroke="none" stroke-opacity="0" />
<polygon id="4F028" points="301 99.25,307.25 123.75,316.5 121.75,311 97" fill="#000000" stroke="none" stroke-opacity="0" />
<polygon id="4F029" points="311 97.25,316.5 121,326 119,320.25 94.5" fill="#000000" stroke="none" stroke-opacity="0" />
<polygon id="4F030" points="320.5 94.25,326 118.5,334.5 117.75,330.25 93" fill="#000000" stroke="none" stroke-opacity="0" />
<polygon id="4F031" points="330.75 93,335 117.5,345 116,340.5 91.25" fill="#000000" stroke="none" stroke-opacity="0" />
<polygon id="4F032" points="340.5 90.75,345.75 115.75,354.75 114.5,352 89.5" fill="#000000" stroke="none" stroke-opacity="0" />
<polygon id="4F033" points="357.5 88.5,358.25 95.75,362.5 95.25,364 112.75,373.5 112.25,372.5 87.25" fill="#000000" stroke="none" stroke-opacity="0" />
<polygon id="4F034" points="372.75 87.25,373.5 101,393.25 100.25,392.5 85.75" fill="#000000" stroke="none" stroke-opacity="0" />
<polygon id="4F035" points="374 101.25,374 111.75,392.75 111.75,393 99.75" fill="#000000" stroke="none" stroke-opacity="0" />
<polygon id="4F036" points="412.5 100.75,412.75 111.5,432.75 112,432.25 100.75" fill="#000000" stroke="none" stroke-opacity="0" />
<polygon id="4F037" points="413.5 86.25,412.75 99.5,433.25 100.5,432.75 87.5" fill="#000000" stroke="none" stroke-opacity="0" />
<polygon id="4F038" points="433.5 87.75,432.25 111.75,442.25 112.75,445 88" fill="#000000" stroke="none" stroke-opacity="0" />
<polygon id="4F039" points="453.5 90,451.5 114.75,460.75 116,464.75 91.25" fill="#000000" stroke="none" stroke-opacity="0" />
<polygon id="4F040" points="464.75 91.25,461.5 115.25,471 116.75,476 93.25" fill="#000000" stroke="none" stroke-opacity="0" />
<polygon id="4F041" points="475.75 93,471.25 116.5,480.25 119,485.5 95" fill="#000000" stroke="none" stroke-opacity="0" />
<polygon id="4F042" points="485.5 95.25,480.25 118.5,489 120.75,495.25 96.75" fill="#000000" stroke="none" stroke-opacity="0" />
<polygon id="4F043" points="495.75 97.25,489.5 121,499 123.5,505.75 100.25" fill="#000000" stroke="none" stroke-opacity="0" />
<polygon id="4F044" points="505.75 100.5,499 123.25,508.25 126.5,516 103" fill="#000000" stroke="none" stroke-opacity="0" />
<polygon id="4F045" points="515.5 103.25,508.75 126.5,527.25 133,531.25 121.5,524 118.5,527.5 108" fill="#000000" stroke="none" stroke-opacity="0" />
<polygon id="4F046" points="562 119.75,557.25 132.75,576.5 142.25,583.25 129.5" fill="#000000" stroke="none" stroke-opacity="0" />
<polygon id="4F047" points="557.25 133,553.5 142.5,569 150.75,576.25 142.5" fill="#000000" stroke="none" stroke-opacity="0" />
<polygon id="4F048" points="553.25 143.75,545.5 159,556.75 157,568.75 151" fill="#000000" stroke="none" stroke-opacity="0" />
<polygon id="4F049" points="537 157,546 156.5,557.25 133,549.5 127.75" fill="#000000" stroke="none" stroke-opacity="0" />
<polygon id="4F050" points="539.75 124.75,549.5 127.75,537 157,527.75 157" fill="#000000" stroke="none" stroke-opacity="0" />
<polygon id="4F051" points="518 155.75,527.5 156.75,539.5 125,530.75 121.5" fill="#000000" stroke="none" stroke-opacity="0" />
<polygon id="4F052" points="517.5 129.75,526.75 133,518.5 156,508.75 155" fill="#000000" stroke="none" stroke-opacity="0" />
<polygon id="4F053" points="508 126.5,517.5 129,508.75 154.75,500.25 153.25" fill="#000000" stroke="none" stroke-opacity="0" />
<polygon id="4F054" points="499.5 123.75,508.25 126.5,500.5 151.75,491.25 150.75" fill="#000000" stroke="none" stroke-opacity="0" />
<polygon id="4F055" points="489.5 120.75,500 123.5,490.75 150.75,481.75 148.25" fill="#000000" stroke="none" stroke-opacity="0" />
<polygon id="4F056" points="480.25 118.25,489 121,482.5 148,474 146" fill="#000000" stroke="none" stroke-opacity="0" />
<polygon id="4F057" points="470.5 116.5,480 119.25,474.5 145.25,466 144.5" fill="#000000" stroke="none" stroke-opacity="0" />
<polygon id="4F058" points="461.25 115.75,470.25 116.25,466 144.25,457.25 143" fill="#000000" stroke="none" stroke-opacity="0" />
<polygon id="4F059" points="451.5 114.5,461.5 115.75,457 142.5,448.5 141.25" fill="#000000" stroke="none" stroke-opacity="0" />
<polygon id="4F060" points="441 124.25,450 124,447.5 141.25,438.5 140" fill="#000000" stroke="none" stroke-opacity="0" />
<polygon id="4F061" points="431.5 112.5,441.75 113.25,438.75 139.75,429.25 139.75" fill="#000000" stroke="none" stroke-opacity="0" />
<polygon id="4F062" points="412.75 111,432.25 111.25,430.75 122.75,413 122.5" fill="#000000" stroke="none" stroke-opacity="0" />
<polygon id="4F063" points="413 122.25,412.75 131.5,429.5 131.75,430.75 122" fill="#000000" stroke="none" stroke-opacity="0" />
<polygon id="4F064" points="412.75 131.5,411.5 140,428.75 140.25,429 132" fill="#000000" stroke="none" stroke-opacity="0" />
<polygon id="4F065" points="373.75 111.75,374.5 123,393.5 122.5,393.25 111" fill="#000000" stroke="none" stroke-opacity="0" />
<polygon id="4F066" points="375 122.5,375.25 131.25,393 131.25,393.5 121" fill="#000000" stroke="none" stroke-opacity="0" />
<polygon id="4F067" points="375.25 131.25,375.25 139,394.5 139,393 130" fill="#000000" stroke="none" stroke-opacity="0" />
<polygon id="4F068" points="364 113.5,373.75 112.25,375.25 139,366.25 139.75" fill="#000000" stroke="none" stroke-opacity="0" />
<polygon id="4F069" points="355.25 123,364.75 122,366.75 140.25,356.75 141.25" fill="#000000" stroke="none" stroke-opacity="0" />
<polygon id="4F070" points="345 115.25,354.5 114.25,356.75 141.25,348 142.5" fill="#000000" stroke="none" stroke-opacity="0" />
<polygon id="4F071" points="335.5 118,345 115.75,347.75 142.75,339.25 144.5" fill="#000000" stroke="none" stroke-opacity="0" />
<polygon id="4F072" points="325.25 119,335.5 117.25,339.5 145,330.75 146" fill="#000000" stroke="none" stroke-opacity="0" />
<polygon id="4F073" points="316.5 121.5,325.25 118.75,331.5 145.5,322.5 148" fill="#000000" stroke="none" stroke-opacity="0" />
<polygon id="4F074" points="306.75 123.5,316.75 121,322.5 148.5,313.25 150.25" fill="#000000" stroke="none" stroke-opacity="0" />
<polygon id="4F075" points="297.5 126.75,306.25 124,313.25 150.25,303.5 153" fill="#000000" stroke="none" stroke-opacity="0" />
<polygon id="4F076" points="288 129.75,297.25 125.75,303.25 154,294.5 154" fill="#000000" stroke="none" stroke-opacity="0" />
<polygon id="4F077" points="279.5 132.5,288.25 129.75,294.5 154.5,285.75 155.75" fill="#000000" stroke="none" stroke-opacity="0" />
<polygon id="4F078" points="301.5 170.25,303.25 188.25,324.75 187,322.75 168.5" fill="#000000" stroke="none" stroke-opacity="0" />
<polygon id="4F079" points="303.5 188,303.75 198.5,324.5 198.25,324 186.5" fill="#000000" stroke="none" stroke-opacity="0" />
<polygon id="4F080" points="304 197.75,304.25 209.75,327.25 209.25,325.5 196.75" fill="#000000" stroke="none" stroke-opacity="0" />
<polygon id="4F081" points="304.25 209.75,304.5 221.5,326 220.25,326 209" fill="#000000" stroke="none" stroke-opacity="0" />
<polygon id="4F082" points="305.5 221,306 232,327.5 231,326.5 219.25" fill="#000000" stroke="none" stroke-opacity="0" />
<polygon id="4F083" points="306.5 232.5,306.75 242.25,329.25 242,328 230" fill="#000000" stroke="none" stroke-opacity="0" />
<polygon id="4F084" points="307.25 242.5,307 253.25,330.25 252.25,329.5 242" fill="#000000" stroke="none" stroke-opacity="0" />
<polygon id="4F085" points="309 271,310 286.5,332.5 285,331 269.5" fill="#000000" stroke="none" stroke-opacity="0" />
<polygon id="4F086" points="310.75 286.75,311 296,332.5 297,332.25 284.5" fill="#000000" stroke="none" stroke-opacity="0" />
<polygon id="4F087" points="311 296.25,311.5 308.5,334 308.5,331.75 296.5" fill="#000000" stroke="none" stroke-opacity="0" />
<polygon id="4F088" points="335.25 306.5,335.5 327.75,346.5 327.5,346 306.75" fill="#000000" stroke="none" stroke-opacity="0" />
<polygon id="4F089" points="345.75 305.75,347.5 329,357.5 328.25,356.5 305" fill="#000000" stroke="none" stroke-opacity="0" />
<polygon id="4F090" points="377.5 303.75,378.75 326.5,390.75 325.75,389 302.75" fill="#000000" stroke="none" stroke-opacity="0" />
<polygon id="4F091" points="389.5 302.75,391.5 325.5,403.25 325,403.25 300.5" fill="#000000" stroke="none" stroke-opacity="0" />
<polygon id="4F092" points="403.5 300.75,403.75 325,415.25 325,417.75 303" fill="#000000" stroke="none" stroke-opacity="0" />
<polygon id="4F093" points="416.75 302.75,415.5 324.5,426 325.75,427.75 303.25" fill="#000000" stroke="none" stroke-opacity="0" />
<polygon id="4F094" points="427.75 302.75,426 325.25,437 326.5,438.5 304" fill="#000000" stroke="none" stroke-opacity="0" />
<polygon id="4F095" points="438.75 304,437.25 326.5,447.75 327.75,450.25 305.25" fill="#000000" stroke="none" stroke-opacity="0" />
<polygon id="4F096" points="450.25 304.75,448 327.25,462.75 328,464.75 305.5" fill="#000000" stroke="none" stroke-opacity="0" />
<polygon id="4F097" points="477.25 241.25,475.5 253,498.75 253.75,499.75 242.5" fill="#000000" stroke="none" stroke-opacity="0" />
<polygon id="4F098" points="478 230,477.75 241.75,500 242.5,499.75 231.75" fill="#000000" stroke="none" stroke-opacity="0" />
<polygon id="4F099" points="479 219.5,478 230.5,500 232,500.75 219.75" fill="#000000" stroke="none" stroke-opacity="0" />
<polygon id="4F100" points="479.5 208.25,479.5 220,500.25 220.25,501 209.75" fill="#000000" stroke="none" stroke-opacity="0" />
<polygon id="4F101" points="480.5 197.75,479.5 207.25,500.25 209.25,502.25 197.75" fill="#000000" stroke="none" stroke-opacity="0" />
<polygon id="4F102" points="481.5 185.75,480.5 197.5,502.75 197.5,502.75 186.5" fill="#000000" stroke="none" stroke-opacity="0" />
<polygon id="4F103" points="482.5 168.25,480.75 185.5,503 187.75,504 170" fill="#000000" stroke="none" stroke-opacity="0" />
<polygon id="4F104" points="514.75 173,515.25 180.5,525.5 181,526.5 173" fill="#000000" stroke="none" stroke-opacity="0" />
<polygon id="4F105" points="526 173.25,524 201.5,535.75 201.5,538 174.75" fill="#000000" stroke="none" stroke-opacity="0" />
<polygon id="4F106" points="537.5 175,536 202,547 203.25,549.5 173.75" fill="#000000" stroke="none" stroke-opacity="0" />
<polygon id="4F107" points="548.75 174.5,547.25 203.75,557.25 203.75,559 176.25" fill="#000000" stroke="none" stroke-opacity="0" />
<polygon id="4F108" points="559 176,557.75 204,569 205,569.75 176" fill="#000000" stroke="none" stroke-opacity="0" />
<polygon id="4F109" points="569.75 176.5,569.5 205,579 205.25,580.75 177.75" fill="#000000" stroke="none" stroke-opacity="0" />
<polygon id="4F110" points="580.5 177.5,579.5 205.25,590 206,591.75 178.5" fill="#000000" stroke="none" stroke-opacity="0" />
<polygon id="4F111" points="591.75 178.5,590.5 206.25,601.5 207.25,602.75 179.5" fill="#000000" stroke="none" stroke-opacity="0" />
<polygon id="4F112" points="602.25 179.25,601.75 207.75,613 206.5,613.5 179.75" fill="#000000" stroke="none" stroke-opacity="0" />
<polygon id="4F113" points="634.75 181.5,633.25 209,645 210.25,646.75 182.5" fill="#000000" stroke="none" stroke-opacity="0" />
<polygon id="4F114" points="646.5 182.5,645.25 210.75,655.5 211.25,658 183.25" fill="#000000" stroke="none" stroke-opacity="0" />
<polygon id="4F115" points="658.25 183.25,655 211,671.25 212.5,673.5 184" fill="#000000" stroke="none" stroke-opacity="0" />
<polygon id="4F118" points="337.25 328.5,338 373.5,383 369,404 368,422.75 368.75,445.75 371.5,466.25 373,468.25 329.25,446.5 327.25,425.5 325.5,402.5 324.75,377.75 325.75,351.5 326.75" fill="#000000" stroke="none" stroke-opacity="0" />
<polygon id="4F119" points="7.5 223,14.25 303.25,18.5 353.75,50.25 351.5,55 403.75,319.75 383.5,316.25 355.75,337.5 354.5,334.25 308.5,312.25 310.5,301.75 172,127.25 185.25,38.75 192.75,40.75 218.75" fill="#000000" stroke="none" stroke-opacity="0" />
<polygon id="4F120" points="616.25 63.5,600 95.25,609.5 100.75,627.75 68.25" fill="#000000" stroke="none" stroke-opacity="0" />
<polygon id="4F121" points="606.25 58,616.25 63.75,600.5 94.75,591 90.5" fill="#000000" stroke="none" stroke-opacity="0" />
<polygon id="4F122" points="594.25 53,605.5 57.75,590 90.25,579.25 85.75" fill="#000000" stroke="none" stroke-opacity="0" />
<polygon id="4F123" points="569 81,578.5 85.25,594.5 52.75,583.5 48" fill="#000000" stroke="none" stroke-opacity="0" />
<polygon id="4F124" points="572 44,582.75 48.75,569 81.5,558.25 76" fill="#000000" stroke="none" stroke-opacity="0" />
<polygon id="4F125" points="540.75 55.75,552.75 60,548.5 73.5,557.5 75.75,571.75 43.25,556.75 37.75,547.5 35.25" fill="#000000" stroke="none" stroke-opacity="0" />
<polygon id="4F126" points="505 57.5,516 60.25,525.5 28.25,511.75 25.25" fill="#000000" stroke="none" stroke-opacity="0" />
<polygon id="4F127" points="493 57.25,504.25 59.75,511.75 24.5,500.5 22.25" fill="#000000" stroke="none" stroke-opacity="0" />
<polygon id="4F128" points="488 20.25,481.25 55,492.25 57.75,500.75 22" fill="#000000" stroke="none" stroke-opacity="0" />
<polygon id="4F129" points="469.25 53.5,481 54.75,488.5 19.75,475.5 17.5" fill="#000000" stroke="none" stroke-opacity="0" />
<polygon id="4F130" points="459.5 51.25,469 52.75,475 17.5,464 15.75" fill="#000000" stroke="none" stroke-opacity="0" />
<polygon id="4F131" points="447.5 49.5,459.25 50.5,463 15.25,451 15.5" fill="#000000" stroke="none" stroke-opacity="0" />
<polygon id="4F132" points="439.25 13.75,451.5 14.5,447.25 50,437.75 47.75" fill="#000000" stroke="none" stroke-opacity="0" />
<polygon id="4F133" points="426 48.75,437.75 48.75,439 12.25,427.5 12.75" fill="#000000" stroke="none" stroke-opacity="0" />
<polygon id="4F134" points="414.25 47.5,426 48.5,427.25 12.25,415.25 12" fill="#000000" stroke="none" stroke-opacity="0" />
<polygon id="4F135" points="403.25 12.25,403 48.25,414 48.25,415.25 12" fill="#000000" stroke="none" stroke-opacity="0" />
<polygon id="4F136" points="390 12.5,403 12,402.5 48.5,390.5 48.5" fill="#000000" stroke="none" stroke-opacity="0" />
<polygon id="4F137" points="378.5 12.25,390 12.75,391 47.75,380.25 48.5" fill="#000000" stroke="none" stroke-opacity="0" />
<polygon id="4F138" points="366 13.5,379 12.5,380 47.75,368 49" fill="#000000" stroke="none" stroke-opacity="0" />
<polygon id="4F139" points="353 14.5,366.5 13.5,368 49.25,356.75 50.25" fill="#000000" stroke="none" stroke-opacity="0" />
<polygon id="4F140" points="340.25 16.25,353 15.5,356.5 50.5,345.5 51.5" fill="#000000" stroke="none" stroke-opacity="0" />
<polygon id="4F141" points="329 18.25,341 16.25,346 52.25,334.25 53.5" fill="#000000" stroke="none" stroke-opacity="0" />
<polygon id="4F142" points="316.25 20.25,329.25 18.5,334.5 53,323 55.5" fill="#000000" stroke="none" stroke-opacity="0" />
<polygon id="4F143" points="311.75 57.75,322 55.25,316.5 19.75,303.75 21.75" fill="#000000" stroke="none" stroke-opacity="0" />
<polygon id="4F144" points="292 25.5,303.75 22,312 57,301 59.5" fill="#000000" stroke="none" stroke-opacity="0" />
<polygon id="4F145" points="257.25 34.75,263.75 57,283 50.75,286.25 62.5,300 59.75,292.5 24.25" fill="#000000" stroke="none" stroke-opacity="0" />
<polygon id="4F146" points="233.75 43.75,246.75 76.75,259 72.75,254.75 59,263.75 57.5,257.25 35.75" fill="#000000" stroke="none" stroke-opacity="0" />
<polygon id="4F147" points="222.25 47.75,236 81.5,246.75 77.25,233.25 42.75" fill="#000000" stroke="none" stroke-opacity="0" />
<polygon id="4F148" points="211 52.75,225.75 84.5,235.5 81,221.75 48" fill="#000000" stroke="none" stroke-opacity="0" />
<polygon id="4F149" points="199.75 58.25,214.75 91,226.5 84.5,210.5 53" fill="#000000" stroke="none" stroke-opacity="0" />
<polygon id="4F150" points="188.5 63.25,204.75 96,214.75 90.75,199 57.25" fill="#000000" stroke="none" stroke-opacity="0" />
<polygon id="4F151" points="177.5 69.75,196.5 100.75,205.5 96.5,188.5 63.25" fill="#000000" stroke="none" stroke-opacity="0" />
<polygon id="4F152" points="473.5 254,466 382,735.5 403.5,751 190.5,674 184,671 213.5,655.5 212,633.5 210.5,633 196,613.5 195,614 206,524.5 203,525.5 183,514.5 180.5,516 171.5,503.5 171.5,501 229.5,498.5 254" fill="#000000" stroke="none" stroke-opacity="0" />
</svg>
