<?xml version="1.0" encoding="UTF-8" standalone="no"?>
<!-- Created with Inkscape (http://www.inkscape.org/) -->

<svg xmlns:dc="http://purl.org/dc/elements/1.1/" xmlns:cc="http://creativecommons.org/ns#" xmlns:rdf="http://www.w3.org/1999/02/22-rdf-syntax-ns#" xmlns:svg="http://www.w3.org/2000/svg" xmlns="http://www.w3.org/2000/svg" xmlns:xlink="http://www.w3.org/1999/xlink" xmlns:sodipodi="http://sodipodi.sourceforge.net/DTD/sodipodi-0.dtd" xmlns:inkscape="http://www.inkscape.org/namespaces/inkscape" width="770" height="410" id="svg2" version="1.1" inkscape:version="0.47pre4 " sodipodi:docname="test.svg" style="display:inline">
<defs id="defs4">
<inkscape:perspective sodipodi:type="inkscape:persp3d" inkscape:vp_x="0 : 526.18109 : 1" inkscape:vp_y="0 : 1000 : 0" inkscape:vp_z="744.09448 : 526.18109 : 1" inkscape:persp3d-origin="372.04724 : 350.78739 : 1" id="perspective10" />
<inkscape:perspective id="perspective2832" inkscape:persp3d-origin="0.5 : 0.33333333 : 1" inkscape:vp_z="1 : 0.5 : 1" inkscape:vp_y="0 : 1000 : 0" inkscape:vp_x="0 : 0.5 : 1" sodipodi:type="inkscape:persp3d" />
<script type="text/ecmascript" id="script6">
		var fdat="",sdat="";
		function onAreaOver(evt){
			var ele=evt.target; 
			fdat=ele.getAttribute('fill'); 
			sdat=ele.getAttribute('stroke');
			ele.setAttribute('fill','#006fb6');//多边形填充颜色
			ele.setAttribute('stroke','#006fb6');//stroke 多边形 边框颜色
			
		}
		function onAreaOut(evt){
			var ele=evt.target; 
			ele.setAttribute('fill',fdat);
			ele.setAttribute('stroke',sdat);
		}
		</script>
<symbol overflow="visible" id="symbol" style="overflow:visible" xmlns="http://www.w3.org/2000/svg">
<path d="m 626,156 2,-2 2,-4 0,-3 -1,-3 -4,-3 -6,-3 -5,-2 -4,-2 -4,8 -6,14" id="path9" style="fill:#000000;stroke:none" />
</symbol>
</defs>
<sodipodi:namedview id="base" pagecolor="#ffffff" bordercolor="#666666" borderopacity="1.0" inkscape:pageopacity="0.0" inkscape:pageshadow="2" inkscape:zoom="5.6" inkscape:cx="583.1007" inkscape:cy="273.63795" inkscape:document-units="px" inkscape:current-layer="svg2" showgrid="false" inkscape:window-width="1280" inkscape:window-height="740" inkscape:window-x="-4" inkscape:window-y="-4" inkscape:window-maximized="1" />
<metadata id="metadata7">
<rdf:RDF>
<cc:Work>
<dc:format>
image/svg+xml</dc:format>
<dc:type rdf:resource="http://purl.org/dc/dcmitype/StillImage" />
<dc:title>
</dc:title>
</cc:Work>
</rdf:RDF>
</metadata>
<image xlink:href="fuzhou_mall_5f.png" width="770" height="410" id="image2834" x="-485" y="255.93361" transform="translate(485,-255.9336)" inkscape:label="Layer 1" inkscape:groupmode="layer" style="display:inline" />
<polygon id="5F002" points="576 163.75,632.5 168,630.25 196.5,573.5 192" fill="#000000" stroke="none" stroke-opacity="0" />
<polygon id="5F003" points="573.75 191.75,630.25 196.25,628 223.75,571.75 219.75" fill="#000000" stroke="none" stroke-opacity="0" />
<polygon id="5F004" points="572.5 219.75,627.75 223.25,625.5 252,569.25 248.5" fill="#000000" stroke="none" stroke-opacity="0" />
<polygon id="5F005" points="569.5 248.5,625.25 252,624 279.5,568.25 275.75" fill="#000000" stroke="none" stroke-opacity="0" />
<polygon id="5F006" points="568.5 275.75,623.5 278.75,621.5 307.75,565.75 304" fill="#000000" stroke="none" stroke-opacity="0" />
<polygon id="5F008" points="125.5 168,181.25 163.5,183.75 192,127.5 196" fill="#000000" stroke="none" stroke-opacity="0" />
<polygon id="5F009" points="127.75 195.75,183.5 191.75,186 219.25,129 223.25" fill="#000000" stroke="none" stroke-opacity="0" />
<polygon id="5F010" points="129.5 223.25,185.25 219,188 248,131.75 252.25" fill="#000000" stroke="none" stroke-opacity="0" />
<polygon id="5F011" points="132 252.25,187.75 248,189.75 275.75,134 279.75" fill="#000000" stroke="none" stroke-opacity="0" />
<polygon id="5F012" points="134.5 279.5,189 275.25,191.25 304,136.5 307.5" fill="#000000" stroke="none" stroke-opacity="0" />
<polygon id="5F013" points="580.25 111,635.5 115,634.5 141,578.75 136.25" fill="#000000" stroke="none" stroke-opacity="0" />
<polygon id="5F014" points="578.5 135.75,634 141,632.25 168.25,576.5 164.25" fill="#000000" stroke="none" stroke-opacity="0" />
<polygon id="5F015" points="120.75 114.75,177.75 110.5,179.5 135.5,122.75 140.5" fill="#000000" stroke="none" stroke-opacity="0" />
<polygon id="5F016" points="123.25 140.25,125.75 168.5,181.25 163.5,179 134.75" fill="#000000" stroke="none" stroke-opacity="0" />
<polygon id="5F017" points="585.75 38,582.75 94.75,666.5 101.5,674 64.75,629.5 49.25,603.75 42" fill="#000000" stroke="none" stroke-opacity="0" />
<polygon id="5F018" points="84.75 64,91.25 101.75,174.5 95.25,172 38,150.25 44,129.5 49.5" fill="#000000" stroke="none" stroke-opacity="0" />

</svg>
