<?xml version="1.0" encoding="UTF-8" standalone="no"?>
<!-- Created with Inkscape (http://www.inkscape.org/) -->

<svg xmlns:dc="http://purl.org/dc/elements/1.1/" xmlns:cc="http://creativecommons.org/ns#" xmlns:rdf="http://www.w3.org/1999/02/22-rdf-syntax-ns#" xmlns:svg="http://www.w3.org/2000/svg" xmlns="http://www.w3.org/2000/svg" xmlns:xlink="http://www.w3.org/1999/xlink" xmlns:sodipodi="http://sodipodi.sourceforge.net/DTD/sodipodi-0.dtd" xmlns:inkscape="http://www.inkscape.org/namespaces/inkscape" width="770" height="410" id="svg2" version="1.1" inkscape:version="0.47pre4 " sodipodi:docname="test.svg" style="display:inline">
<defs id="defs4">
<inkscape:perspective sodipodi:type="inkscape:persp3d" inkscape:vp_x="0 : 526.18109 : 1" inkscape:vp_y="0 : 1000 : 0" inkscape:vp_z="744.09448 : 526.18109 : 1" inkscape:persp3d-origin="372.04724 : 350.78739 : 1" id="perspective10" />
<inkscape:perspective id="perspective2832" inkscape:persp3d-origin="0.5 : 0.33333333 : 1" inkscape:vp_z="1 : 0.5 : 1" inkscape:vp_y="0 : 1000 : 0" inkscape:vp_x="0 : 0.5 : 1" sodipodi:type="inkscape:persp3d" />
<script type="text/ecmascript" id="script6">
		var fdat="",sdat="";
		function onAreaOver(evt){
			var ele=evt.target; 
			fdat=ele.getAttribute('fill'); 
			sdat=ele.getAttribute('stroke');
			ele.setAttribute('fill','#006fb6');//多边形填充颜色
			ele.setAttribute('stroke','#006fb6');//stroke 多边形 边框颜色
			
		}
		function onAreaOut(evt){
			var ele=evt.target; 
			ele.setAttribute('fill',fdat);
			ele.setAttribute('stroke',sdat);
		}
		</script>
<symbol overflow="visible" id="symbol" style="overflow:visible">
<path d="m 626,156 2,-2 2,-4 0,-3 -1,-3 -4,-3 -6,-3 -5,-2 -4,-2 -4,8 -6,14" id="path9" style="fill:#000000;stroke:none" />
</symbol>
</defs>
<sodipodi:namedview id="base" pagecolor="#ffffff" bordercolor="#666666" borderopacity="1.0" inkscape:pageopacity="0.0" inkscape:pageshadow="2" inkscape:zoom="5.6" inkscape:cx="583.1007" inkscape:cy="273.63795" inkscape:document-units="px" inkscape:current-layer="svg2" showgrid="false" inkscape:window-width="1280" inkscape:window-height="740" inkscape:window-x="-4" inkscape:window-y="-4" inkscape:window-maximized="1" />
<metadata id="metadata7">
<rdf:RDF>
<cc:Work>
<dc:format>
				image/svg+xml</dc:format>
<dc:type rdf:resource="http://purl.org/dc/dcmitype/StillImage" />
<dc:title>
</dc:title>
</cc:Work>
</rdf:RDF>
</metadata>
<image xlink:href="fuzhou_mall_3f.png" width="770" height="410" id="image2834" x="-485" y="255.93361" transform="translate(485,-255.9336)" inkscape:label="Layer 1" inkscape:groupmode="layer" style="display:inline" />
<polygon id="3F001" points="708.5 125,679.75 158.25,681 165,681 171.75,679.75 186,723 189,726.75 142.25" fill="#000000" stroke="none" stroke-opacity="0" />
<polygon id="3F002" points="708.75 125.25,699 117.75,676.5 145.5,685 152.25" fill="#000000" stroke="none" stroke-opacity="0" />
<polygon id="3F003" points="676.5 145.25,667.5 138,689.25 110.5,699.25 118.25" fill="#000000" stroke="none" stroke-opacity="0" />
<polygon id="3F004" points="667.75 138.25,658.25 131.5,679.25 102.75,689.25 110.75" fill="#000000" stroke="none" stroke-opacity="0" />
<polygon id="3F005" points="648.75 124.5,669.75 95.5,679.25 103,658.5 131.5" fill="#000000" stroke="none" stroke-opacity="0" />
<polygon id="3F006" points="649 124.25,639.5 118.25,659 88.75,669.75 95.5" fill="#000000" stroke="none" stroke-opacity="0" />
<polygon id="3F007" points="659.25 88.75,639.5 118,630 112,648.5 81.75" fill="#000000" stroke="none" stroke-opacity="0" />
<polygon id="3F008" points="648.5 82,630.25 112,620 106.5,637.75 75.5" fill="#000000" stroke="none" stroke-opacity="0" />
<polygon id="3F009" points="620 106.25,610.25 101,627.5 69.5,638 75.75" fill="#000000" stroke="none" stroke-opacity="0" />
<polygon id="3F010" points="627.5 70.25,616.5 64.5,600 95.5,610.5 101" fill="#000000" stroke="none" stroke-opacity="0" />
<polygon id="3F011" points="600 95.25,589.75 90.75,605.5 58.5,616.5 65" fill="#000000" stroke="none" stroke-opacity="0" />
<polygon id="3F012" points="589.75 90.5,605.25 58.75,594 53.5,579.5 85.75" fill="#000000" stroke="none" stroke-opacity="0" />
<polygon id="3F013" points="579.75 85.75,594.25 53.75,582.75 48.25,569.25 81.5" fill="#000000" stroke="none" stroke-opacity="0" />
<polygon id="3F014" points="569.25 81.5,583 48.25,571.25 44.25,558.75 77.5" fill="#000000" stroke="none" stroke-opacity="0" />
<polygon id="3F015" points="558.75 77.25,571.25 44.25,547.5 36.25,541.75 56.25,552 60.25,548 72.75" fill="#000000" stroke="none" stroke-opacity="0" />
<polygon id="3F016" points="512.5 25.5,525 29,515.5 61,504.5 57.5" fill="#000000" stroke="none" stroke-opacity="0" />
<polygon id="3F017" points="512.75 25.5,503.75 60.25,493 57.75,500.25 23" fill="#000000" stroke="none" stroke-opacity="0" />
<polygon id="3F018" points="500.5 23,493 57.75,482.25 55.25,488.5 20.75" fill="#000000" stroke="none" stroke-opacity="0" />
<polygon id="3F019" points="488.75 20.75,482.25 55.25,471 53,476.25 18.75" fill="#000000" stroke="none" stroke-opacity="0" />
<polygon id="3F020" points="476.5 18.75,464 17.25,459.5 51.25,471.25 53.25" fill="#000000" stroke="none" stroke-opacity="0" />
<polygon id="3F021" points="464.25 17.25,452 15.5,447.75 50.25,459.75 51.5" fill="#000000" stroke="none" stroke-opacity="0" />
<polygon id="3F022" points="439.5 14.5,437 49.75,448 50.5,452 15.5" fill="#000000" stroke="none" stroke-opacity="0" />
<polygon id="3F023" points="437 49.75,439.75 14.5,427 13.5,425.25 48.75" fill="#000000" stroke="none" stroke-opacity="0" />
<polygon id="3F024" points="425.5 48.75,414 48.75,414.5 12.75,427.75 13.25" fill="#000000" stroke="none" stroke-opacity="0" />
<polygon id="3F025" points="402.5 12.75,414.5 13,414.25 48.5,402.5 48.25" fill="#000000" stroke="none" stroke-opacity="0" />
<polygon id="3F026" points="402.5 48.25,391 48.5,390.5 12.75,402.75 12.75" fill="#000000" stroke="none" stroke-opacity="0" />
<polygon id="3F027" points="378 13.5,390.5 13.25,391 48.25,380 48.5" fill="#000000" stroke="none" stroke-opacity="0" />
<polygon id="3F028" points="365.75 14.25,378 13.5,380 48.25,368 49.25" fill="#000000" stroke="none" stroke-opacity="0" />
<polygon id="3F029" points="368 49,357 50,353.75 15.5,365.75 14.5" fill="#000000" stroke="none" stroke-opacity="0" />
<polygon id="3F030" points="354 15.5,341.5 16.5,345.75 51.5,356.75 50.25" fill="#000000" stroke="none" stroke-opacity="0" />
<polygon id="3F031" points="345.75 51.25,334.25 53.25,328.75 18.75,341.75 16.75" fill="#000000" stroke="none" stroke-opacity="0" />
<polygon id="3F032" points="316.75 21,323 55.25,334.5 53,329 18.75" fill="#000000" stroke="none" stroke-opacity="0" />
<polygon id="3F033" points="317 21.25,323 55,312 57.25,304.75 23.5" fill="#000000" stroke="none" stroke-opacity="0" />
<polygon id="3F034" points="305 23.5,294 26.5,301.5 59.75,312 56.75" fill="#000000" stroke="none" stroke-opacity="0" />
<polygon id="3F035" points="293.5 25.5,269.25 32.25,246 39.5,252.5 60,282.75 51,286 62,301 58" fill="#000000" stroke="none" stroke-opacity="0" />
<polygon id="3F036" points="246.25 39.75,257 72.75,247 77,234.375 43.625" fill="#000000" stroke="none" stroke-opacity="0" />
<polygon id="3F037" points="234.25 43.75,247 76.75,235.5 82,223 48.25" fill="#000000" stroke="none" stroke-opacity="0" />
<polygon id="3F038" points="223 48.25,235.5 81.75,225.75 86.5,211.375 53.5" fill="#000000" stroke="none" stroke-opacity="0" />
<polygon id="3F039" points="211.25 53.5,225.75 86.25,215.5 91,200.25 58.5" fill="#000000" stroke="none" stroke-opacity="0" />
<polygon id="3F040" points="200.25 58.5,189.25 64,204.5 96.5,215.75 90.75" fill="#000000" stroke="none" stroke-opacity="0" />
<polygon id="3F041" points="204.75 96,189.5 64,178.5 70,195 101.5" fill="#000000" stroke="none" stroke-opacity="0" />
<polygon id="3F042" points="178.75 70,195.125 101.25,185 106.375,167.75 76.125" fill="#000000" stroke="none" stroke-opacity="0" />
<polygon id="3F043" points="168 76,156.625 82.125,175.25 112.125,185 106.125" fill="#000000" stroke="none" stroke-opacity="0" />
<polygon id="3F044" points="156.75 82.125,146.375 89.125,165.875 118.5,175.375 112" fill="#000000" stroke="none" stroke-opacity="0" />
<polygon id="3F045" points="146.5 89.125,136.875 95.5,156.5 124.875,166.125 118.375" fill="#000000" stroke="none" stroke-opacity="0" />
<polygon id="3F046" points="137 95.375,126.25 103,146.75 131.375,156.5 124.75" fill="#000000" stroke="none" stroke-opacity="0" />
<polygon id="3F047" points="126.375 102.875,146.75 131.25,137.875 138.125,116.75 110" fill="#000000" stroke="none" stroke-opacity="0" />
<polygon id="3F048" points="116.75 110,138 138,128.875 145.125,106.375 117.75" fill="#000000" stroke="none" stroke-opacity="0" />
<polygon id="3F049" points="106.5 117.625,97.375 125.5,120 152.75,128.75 144.875" fill="#000000" stroke="none" stroke-opacity="0" />
<polygon id="3F050" points="97.5 125.375,125.25 158.625,125.875 185.625,82.625 189,78.75 141.5" fill="#000000" stroke="none" stroke-opacity="0" />
<polygon id="3F051" points="222.875 130.125,229.5 142.375,248.125 133.375,242.375 120.375" fill="#000000" stroke="none" stroke-opacity="0" xmlns="http://www.w3.org/2000/svg" />
<polygon id="3F052" points="248 133.25,252.25 143.625,237.875 150.375,234.25 147.125,229.625 142.125" fill="#000000" stroke="none" stroke-opacity="0" />
<polygon id="3F053" points="252.25 143.5,258.5 157.875,252.125 157.875,246.125 157.375,241 153.625,237.75 150.5" fill="#000000" stroke="none" stroke-opacity="0" />
<polygon id="3F054" points="248 133.5,257.125 130.25,268.375 157.5,258.25 157.75" fill="#000000" stroke="none" stroke-opacity="0" />
<polygon id="3F055" points="257.125 130.375,266.5 126.5,277.875 156.5,268.375 157.375" fill="#000000" stroke="none" stroke-opacity="0" />
<polygon id="3F056" points="266.375 126,275.375 122.625,287.625 155.625,277.875 156.375" fill="#000000" stroke="none" stroke-opacity="0" />
<polygon id="3F057" points="278.625 108,282.625 119.75,275.25 122.5,279.25 133,297.125 126.625,290.125 104.5" fill="#000000" stroke="none" stroke-opacity="0" />
<polygon id="3F058" points="290.125 104.625,297.25 126.625,306.375 123.875,300.5 101.5" fill="#000000" stroke="none" stroke-opacity="0" />
<polygon id="3F059" points="300.5 101.5,306.375 123.75,316.625 121.375,310.75 98.875" fill="#000000" stroke="none" stroke-opacity="0" />
<polygon id="3F060" points="310.75 99,320.5 96.375,325.125 119.125,316.625 121.25" fill="#000000" stroke="none" stroke-opacity="0" />
<polygon id="3F061" points="320.5 96.5,331 94.25,335.125 117,325.125 119" fill="#000000" stroke="none" stroke-opacity="0" />
<polygon id="3F062" points="331 94.375,341 92.5,344.375 115.75,335 117" fill="#000000" stroke="none" stroke-opacity="0" />
<polygon id="3F063" points="341 92.625,344.375 115.875,354.75 114.625,351.875 91.125" fill="#000000" stroke="none" stroke-opacity="0" />
<polygon id="3F064" points="358 89.375,371.625 88.5,373 112.5,363.375 113,362.125 94.125,358.25 94.25" fill="#000000" stroke="none" stroke-opacity="0" />
<polygon id="3F065" points="371.5 88.5,392.25 87.625,392.125 100.75,372.375 101.875" fill="#000000" stroke="none" stroke-opacity="0" />
<polygon id="3F066" points="372.5 101.75,392.25 100.75,392.375 112.125,373 112.375" fill="#000000" stroke="none" stroke-opacity="0" />
<polygon id="3F067" points="414.25 85.25,434.125 86.5,433.375 101.125,413.875 101" fill="#000000" stroke="none" stroke-opacity="0" />
<polygon id="3F068" points="414 100.875,433.5 100.875,432.875 112.375,413.75 111.875" fill="#000000" stroke="none" stroke-opacity="0" />
<polygon id="3F069" points="434.25 86.25,447 87.25,446.625 95.25,444 95.125,442.875 113.375,432.75 112.75" fill="#000000" stroke="none" stroke-opacity="0" />
<polygon id="3F070" points="453.25 90,451.125 114.75,461.125 116,464.375 92.125" fill="#000000" stroke="none" stroke-opacity="0" />
<polygon id="3F071" points="464.375 92.125,474.75 94.25,470 117.875,461 116" fill="#000000" stroke="none" stroke-opacity="0" />
<polygon id="3F072" points="469.875 117.875,474.625 94.25,485.125 96.5,479.875 120" fill="#000000" stroke="none" stroke-opacity="0" />
<polygon id="3F073" points="480 119.875,489.5 122,494.875 98.875,485 96.625" fill="#000000" stroke="none" stroke-opacity="0" />
<polygon id="3F074" points="494.875 99,489.5 121.875,498.875 124.5,505.125 101.875" fill="#000000" stroke="none" stroke-opacity="0" />
<polygon id="3F075" points="505.125 102,498.75 124.5,508.125 127.375,514.625 104.5" fill="#000000" stroke="none" stroke-opacity="0" />
<polygon id="3F076" points="514.625 104.625,526.875 108.75,523.125 119.5,531.25 122.125,527.125 133.5,508.125 127.25" fill="#000000" stroke="none" stroke-opacity="0" />
<polygon id="3F077" points="587.25 122.75,577.25 142,556.375 131.5,565 112.125" fill="#000000" stroke="none" stroke-opacity="0" />
<polygon id="3F078" points="559.75 133,577.125 142,574.25 146.5,570 151,554.875 144.125" fill="#000000" stroke="none" stroke-opacity="0" />
<polygon id="3F079" points="554.875 143.875,570 150.875,566.875 153.25,560.875 156,555.25 157.5,548 157.875" fill="#000000" stroke="none" stroke-opacity="0" />
<polygon id="3F080" points="549.875 129,559.875 133,548.375 157.875,538.625 156.875" fill="#000000" stroke="none" stroke-opacity="0" />
<polygon id="3F081" points="540.625 125.5,550 129.25,538.625 157,528.75 155.875" fill="#000000" stroke="none" stroke-opacity="0" />
<polygon id="3F082" points="531.25 121.875,540.625 125.625,528.875 156,519.25 155" fill="#000000" stroke="none" stroke-opacity="0" />
<polygon id="3F083" points="517.375 130.25,527.25 133.375,519.125 155.25,509.625 153.75" fill="#000000" stroke="none" stroke-opacity="0" />
<polygon id="3F084" points="509.625 153.75,500.875 151.75,508.125 127.25,517.375 130.375" fill="#000000" stroke="none" stroke-opacity="0" />
<polygon id="3F085" points="500.875 151.625,492.125 149.75,498.75 124.5,508.125 127.25" fill="#000000" stroke="none" stroke-opacity="0" />
<polygon id="3F086" points="498.75 124.375,492.125 149.75,482.75 147.375,489 121.875" fill="#000000" stroke="none" stroke-opacity="0" />
<polygon id="3F087" points="489.125 121.875,482.75 147.5,474.25 145,479.875 119.875" fill="#000000" stroke="none" stroke-opacity="0" />
<polygon id="3F088" points="479.875 119.75,474.25 144.875,465.75 143.625,469.75 117.875" fill="#000000" stroke="none" stroke-opacity="0" />
<polygon id="3F089" points="469.875 117.75,465.625 143.375,456.5 142.5,460.125 115.75" fill="#000000" stroke="none" stroke-opacity="0" />
<polygon id="3F090" points="460.25 115.875,456.5 142.375,449 141.125,451.125 114.875" fill="#000000" stroke="none" stroke-opacity="0" />
<polygon id="3F091" points="441.125 124.25,450.75 125.375,449 141.375,440.25 140.375" fill="#000000" stroke="none" stroke-opacity="0" />
<polygon id="3F092" points="432.5 112.375,430.875 139.5,440.25 140.5,441.625 113" fill="#000000" stroke="none" stroke-opacity="0" />
<polygon id="3F093" points="413.875 111.75,432.375 112.25,432 123,413.5 122.875" fill="#000000" stroke="none" stroke-opacity="0" xmlns="http://www.w3.org/2000/svg" />
<polygon id="3F094" points="413.625 122.875,431.75 122.75,431.375 131,413.375 131" fill="#000000" stroke="none" stroke-opacity="0" />
<polygon id="3F095" points="413.5 131,412.875 138.625,430.875 139.625,431.375 130.875" fill="#000000" stroke="none" stroke-opacity="0" />
<polygon id="3F096" points="374.625 112.25,392.75 111.875,393.125 122.875,375.375 123.125" fill="#000000" stroke="none" stroke-opacity="0" />
<polygon id="3F097" points="375.375 123,393.125 122.875,393.375 131.125,375.875 131.25" fill="#000000" stroke="none" stroke-opacity="0" />
<polygon id="3F098" points="375.875 131.25,393.25 131,393.75 139,376.25 139.625" fill="#000000" stroke="none" stroke-opacity="0" />
<polygon id="3F099" points="363.625 113.125,365.875 140.875,376.375 139.875,374.75 112.375" fill="#000000" stroke="none" stroke-opacity="0" />
<polygon id="3F100" points="356.25 125.125,364.875 124.625,366.5 140.75,358.375 141.5" fill="#000000" stroke="none" stroke-opacity="0" />
<polygon id="3F101" points="349.125 142.375,358.5 141.875,354.875 114.5,345.25 115.75" fill="#000000" stroke="none" stroke-opacity="0" />
<polygon id="3F102" points="340.375 143.375,349.25 142.375,345.375 115.75,336.5 116.5" fill="#000000" stroke="none" stroke-opacity="0" />
<polygon id="3F103" points="326.125 118.875,336.625 116.375,340.5 143.5,331.5 145.375" fill="#000000" stroke="none" stroke-opacity="0" />
<polygon id="3F104" points="316.75 121.25,326.125 118.75,331.5 145.375,323.125 147.5" fill="#000000" stroke="none" stroke-opacity="0" />
<polygon id="3F105" points="307 123.625,316.75 121.375,323.125 147.625,314.25 150.125" fill="#000000" stroke="none" stroke-opacity="0" />
<polygon id="3F106" points="297.625 126.375,307.125 123.625,314.375 150.125,305.5 152.25" fill="#000000" stroke="none" stroke-opacity="0" />
<polygon id="3F107" points="288.375 129.5,297.625 126.375,305.625 152.375,296.5 154.375" fill="#000000" stroke="none" stroke-opacity="0" />
<polygon id="3F108" points="279 133,287.625 155.5,296.375 154.375,288.375 129.625" fill="#000000" stroke="none" stroke-opacity="0" />
<polygon id="3F109" points="324 186.875,323.625 169.875,302.375 171.25,303.75 188.125" fill="#000000" stroke="none" stroke-opacity="0" />
<polygon id="3F110" points="304.375 199.25,303.875 188.125,324.25 186.75,325 197.875" fill="#000000" stroke="none" stroke-opacity="0" />
<polygon id="3F111" points="305.125 210.125,325.875 209.125,325.125 197.75,304.5 198.875" fill="#000000" stroke="none" stroke-opacity="0" />
<polygon id="3F112" points="305.75 220.75,327.125 219.625,326.125 208.75,305.25 210" fill="#000000" stroke="none" stroke-opacity="0" />
<polygon id="3F113" points="306.625 232,305.875 220.75,327.25 219.5,328 230.875" fill="#000000" stroke="none" stroke-opacity="0" />
<polygon id="3F114" points="307 243.125,306.75 232,328.125 230.625,328.875 241.5" fill="#000000" stroke="none" stroke-opacity="0" />
<polygon id="3F115" points="307.75 253.875,329.625 252.375,329.125 241.5,307 243" fill="#000000" stroke="none" stroke-opacity="0" />
<polygon id="3F116" points="309.5 272,330.75 270.5,332 285.25,310.5 286.75" fill="#000000" stroke="none" stroke-opacity="0" />
<polygon id="3F117" points="310.75 286.75,331.5 285.5,332.25 296.25,311.75 298" fill="#000000" stroke="none" stroke-opacity="0" />
<polygon id="3F118" points="312 298,312.5 309.25,334 307.75,332.75 296.5" fill="#000000" stroke="none" stroke-opacity="0" />
<polygon id="3F119" points="335 307,336.25 328.75,346.5 328.5,345.75 307" fill="#000000" stroke="none" stroke-opacity="0" />
<polygon id="3F120" points="345.75 307,356.25 306.75,357.5 328,346.5 328.25" fill="#000000" stroke="none" stroke-opacity="0" />
<polygon id="3F121" points="378.25 304.5,379.25 325,390.5 325,389.25 303.75" fill="#000000" stroke="none" stroke-opacity="0" />
<polygon id="3F122" points="389.25 304,402.75 303.5,402.75 324.25,390.5 324.5" fill="#000000" stroke="none" stroke-opacity="0" />
<polygon id="3F123" points="402.75 303.75,416 304.25,415 325,402.5 324.25" fill="#000000" stroke="none" stroke-opacity="0" />
<polygon id="3F124" points="416 304.25,427.25 305.25,426 325.75,414.75 325" fill="#000000" stroke="none" stroke-opacity="0" />
<polygon id="3F125" points="427.25 305.25,438.5 306,437 326.75,425.75 325.75" fill="#000000" stroke="none" stroke-opacity="0" />
<polygon id="3F126" points="436.75 326.75,438.25 305.75,449.5 306.75,448.25 327.5" fill="#000000" stroke="none" stroke-opacity="0" />
<polygon id="3F127" points="449 306.25,464 307.5,461.75 328.5,448 327.25" fill="#000000" stroke="none" stroke-opacity="0" />
<polygon id="3F128" points="478.25 241.75,498.875 242.75,498.5 254.25,477.375 252.875" fill="#000000" stroke="none" stroke-opacity="0" />
<polygon id="3F129" points="479.125 231,499.75 231.875,498.875 243.125,478.25 242.125" fill="#000000" stroke="none" stroke-opacity="0" />
<polygon id="3F130" points="480 220.25,500.5 220.625,499.875 232.125,479.125 231" fill="#000000" stroke="none" stroke-opacity="0" />
<polygon id="3F131" points="481 209.25,501.375 210,500.75 220.75,480.25 220.25" fill="#000000" stroke="none" stroke-opacity="0" />
<polygon id="3F132" points="481.75 197.625,502.25 198.375,501.5 210.125,481 209.25" fill="#000000" stroke="none" stroke-opacity="0" />
<polygon id="3F133" points="482.375 186.75,503.25 187.5,502.5 199.125,481.75 197.75" fill="#000000" stroke="none" stroke-opacity="0" />
<polygon id="3F134" points="483.125 171,504.5 171.75,503.375 187.625,482.25 187" fill="#000000" stroke="none" stroke-opacity="0" />
<polygon id="3F135" points="514.5 173.5,526.25 174.25,526 182,514.25 181.25" fill="#000000" stroke="none" stroke-opacity="0" />
<polygon id="3F136" points="537.625 175.625,526.5 174.625,524.5 200.875,536.125 201.875" fill="#000000" stroke="none" stroke-opacity="0" />
<polygon id="3F137" points="548.5 176.125,537.25 175.625,535.75 201.875,547 202.625" fill="#000000" stroke="none" stroke-opacity="0" />
<polygon id="3F138" points="557.375 203.25,559.375 176.875,548.25 176.375,546.5 202.875" fill="#000000" stroke="none" stroke-opacity="0" />
<polygon id="3F139" points="570.625 177.625,559.25 177.125,557.25 203.375,569 204.25" fill="#000000" stroke="none" stroke-opacity="0" />
<polygon id="3F140" points="581.5 178.25,570.375 177.75,568.625 204.5,579.625 204.875" fill="#000000" stroke="none" stroke-opacity="0" />
<polygon id="3F141" points="581.375 178.25,592.5 179,590.625 205.875,579.375 205" fill="#000000" stroke="none" stroke-opacity="0" />
<polygon id="3F142" points="592.5 179.25,602.25 180.25,600.5 206.75,590.5 205.75" fill="#000000" stroke="none" stroke-opacity="0" />
<polygon id="3F143" points="602.25 180.25,613.5 181,611.75 207.25,600.5 206.5" fill="#000000" stroke="none" stroke-opacity="0" />
<polygon id="3F144" points="647.125 183.875,636 183.125,633.875 209.5,645.125 210.5" fill="#000000" stroke="none" stroke-opacity="0" />
<polygon id="3F145" points="657.5 184.375,656.125 211.5,644.875 210.5,647.125 183.875" fill="#000000" stroke="none" stroke-opacity="0" />
<polygon id="3F146" points="657.25 184.25,673.25 185.5,671.25 212.5,655.75 211" fill="#000000" stroke="none" stroke-opacity="0" />
<polygon id="3F149" points="339.5 373,336.5 328.5,357.5 327.5,356.5 306.5,378.5 305,380 324.5,402.5 324,462 328,463.5 307.5,472.5 308.5,467 372.5,444 370.5,407 368.5,377 369.5" fill="#000000" stroke="none" stroke-opacity="0" />
<polygon id="3F150" points="149 184,162.5 361.5,164 395.5,230 391,340 382,334.5 307,313.5 309.5,302.5 172" fill="#000000" stroke="none" stroke-opacity="0" />
<polygon id="3F151" points="149 184,38.5 192,40.5 220,8 222.5,19.5 379,53 378,55 403.5,164.5 395.5" fill="#000000" stroke="none" stroke-opacity="0" />
<polygon id="3F152" points="478 253,466.5 381.5,735 402.5,751.5 191,673.5 184.5,670.5 213,634.5 208.5,635.5 195.5,613.5 194,611.5 206.5,525 201,526.5 181.5,515 181,515.5 173.5,505 173,497.5 254" fill="#000000" stroke="none" stroke-opacity="0" />
</svg>
