<?xml version="1.0" encoding="UTF-8" standalone="no"?>
<!-- Created with Inkscape (http://www.inkscape.org/) -->

<svg xmlns:dc="http://purl.org/dc/elements/1.1/" xmlns:cc="http://creativecommons.org/ns#" xmlns:rdf="http://www.w3.org/1999/02/22-rdf-syntax-ns#" xmlns:svg="http://www.w3.org/2000/svg" xmlns="http://www.w3.org/2000/svg" xmlns:xlink="http://www.w3.org/1999/xlink" xmlns:sodipodi="http://sodipodi.sourceforge.net/DTD/sodipodi-0.dtd" xmlns:inkscape="http://www.inkscape.org/namespaces/inkscape" width="770" height="410" id="svg2" version="1.1" inkscape:version="0.47pre4 " sodipodi:docname="test.svg" style="display:inline" stroke="#000000">
<defs id="defs4">
<inkscape:perspective sodipodi:type="inkscape:persp3d" inkscape:vp_x="0 : 526.18109 : 1" inkscape:vp_y="0 : 1000 : 0" inkscape:vp_z="744.09448 : 526.18109 : 1" inkscape:persp3d-origin="372.04724 : 350.78739 : 1" id="perspective10" />
<inkscape:perspective id="perspective2832" inkscape:persp3d-origin="0.5 : 0.33333333 : 1" inkscape:vp_z="1 : 0.5 : 1" inkscape:vp_y="0 : 1000 : 0" inkscape:vp_x="0 : 0.5 : 1" sodipodi:type="inkscape:persp3d" />
<script type="text/ecmascript" id="script6">
		var fdat="",sdat="";
		function onAreaOver(evt){
			var ele=evt.target; 
			fdat=ele.getAttribute('fill'); 
			sdat=ele.getAttribute('stroke');
			ele.setAttribute('fill','#006fb6');//多边形填充颜色
			ele.setAttribute('stroke','#006fb6');//stroke 多边形 边框颜色
			
		}
		function onAreaOut(evt){
			var ele=evt.target; 
			ele.setAttribute('fill',fdat);
			ele.setAttribute('stroke',sdat);
		}
		</script>
<symbol overflow="visible" id="symbol" style="overflow:visible" xmlns="http://www.w3.org/2000/svg">
<path d="m 626,156 2,-2 2,-4 0,-3 -1,-3 -4,-3 -6,-3 -5,-2 -4,-2 -4,8 -6,14" id="path9" style="fill:#000000;stroke:none" />
</symbol>
</defs>
<sodipodi:namedview id="base" pagecolor="#ffffff" bordercolor="#666666" borderopacity="1.0" inkscape:pageopacity="0.0" inkscape:pageshadow="2" inkscape:zoom="5.6" inkscape:cx="583.1007" inkscape:cy="273.63795" inkscape:document-units="px" inkscape:current-layer="svg2" showgrid="false" inkscape:window-width="1280" inkscape:window-height="740" inkscape:window-x="-4" inkscape:window-y="-4" inkscape:window-maximized="1" />
<metadata id="metadata7">
<rdf:RDF>
<cc:Work>
<dc:format>
				image/svg+xml</dc:format>
<dc:type rdf:resource="http://purl.org/dc/dcmitype/StillImage" />
<dc:title>
</dc:title>
</cc:Work>
</rdf:RDF>
</metadata>
<image xlink:href="bengbu_mall_a_3f.png" width="770" height="410" id="image2834" x="-485" y="255.93361" transform="translate(485,-255.9336)" inkscape:label="Layer 1" inkscape:groupmode="layer" style="display:inline" />
<polygon id="A1-3001" points="629.25 58,637.75 42.25,656.25 37,671.75 46,677 64.25,667 81.75,648.25 84.75,639.5 79.5,622.75 84.25,616.75 62.25" fill="#000000" stroke="none" stroke-opacity="0" />
<polygon id="A1-3002" points="605 75.25,613.75 73.5,616.75 85.75,606.75 87.75" fill="#000000" stroke="none" stroke-opacity="0" />
<polygon id="A1-3003" points="596.25 77.5,605.5 75,608 88,598.75 89.5" fill="#000000" stroke="none" stroke-opacity="0" />
<polygon id="A1-3004" points="582 54.75,591.25 53.25,599 89.75,589.25 91.5" fill="#000000" stroke="none" stroke-opacity="0" />
<polygon id="A1-3005" points="574 57.25,582.75 54.75,589.5 91.5,580 93.25" fill="#000000" stroke="none" stroke-opacity="0" />
<polygon id="A1-3006" points="564.75 57.5,574.75 56.75,580 92.5,571 94.75" fill="#000000" stroke="none" stroke-opacity="0" />
<polygon id="A1-3007" points="556.25 59.75,565.25 58.25,571.75 94.75,561.75 96.75" fill="#000000" stroke="none" stroke-opacity="0" />
<polygon id="A1-3008" points="547 61.25,555.75 59.75,561.75 97.25,553 98.25" fill="#000000" stroke="none" stroke-opacity="0" transform="matrix(1.21,0,0,1.04,-116.419,-3.16)" />
<polygon id="A1-3009" points="539 62.75,543.25 99,553.75 98.25,547.75 60.5" fill="#000000" stroke="none" stroke-opacity="0" />
<polygon id="A1-3010" points="529.25 89,542 87,544 99,530.5 101" fill="#000000" stroke="none" stroke-opacity="0" />
<polygon id="A1-3011" points="534 63.25,534.5 78.75,522.25 80.25,522.25 104,488.25 105.75,488.75 113.5,465.5 114.5,451.5 103.5,450.25 84.25,463.5 69.75,480.75 69.5,494.5 82,507.25 66.75" fill="#000000" stroke="none" stroke-opacity="0" />
<polygon id="A2-3001" points="659.75 102.5,665 122.25,684.75 116.75,690 135.5,712.75 128.5,706.75 110.25,683.75 101.25" fill="#000000" stroke="none" stroke-opacity="0" />
<polygon id="A2-3002" points="595.75 125.5,600 147.5,610.75 145.5,606 123.75" fill="#000000" stroke="none" stroke-opacity="0" />
<polygon id="A2-3003" points="596 125.25,600.25 146.75,590.5 149,586.5 127.25" fill="#000000" stroke="none" stroke-opacity="0" />
<polygon id="A2-3004" points="577 128.75,581.25 151,590.75 149.5,586.25 126.25" fill="#000000" stroke="none" stroke-opacity="0" />
<polygon id="A2-3005" points="576.75 128.25,581.5 150.5,571 152,567.5 130.5" fill="#000000" stroke="none" stroke-opacity="0" />
<polygon id="A2-3006" points="568 130.5,571.25 152.75,561.75 154,558.25 132.25" fill="#000000" stroke="none" stroke-opacity="0" />
<polygon id="A2-3007" points="558.75 131.5,561.75 154.5,551.75 156,548.75 133" fill="#000000" stroke="none" stroke-opacity="0" />
<polygon id="A2-3008" points="539 134.25,540.25 147.5,550.75 146.25,549.25 133" fill="#000000" stroke="none" stroke-opacity="0" />
<polygon id="A2-3009" points="529.75 135.75,531 148.5,540.75 147.5,539.75 134" fill="#000000" stroke="none" stroke-opacity="0" />
<polygon id="A2-3010" points="531.25 148.75,533 162.5,552.5 159.75,550.75 146.25" fill="#000000" stroke="none" stroke-opacity="0" />
<polygon id="A2-3011" points="533 167.5,534.5 178.5,544.75 177.5,544 166.75" fill="#000000" stroke="none" stroke-opacity="0" />
<polygon id="A2-3012" points="535 177.75,536.25 187.75,546.75 186.75,544.75 175" fill="#000000" stroke="none" stroke-opacity="0" />
<polygon id="A2-3013" points="535.75 187.75,537.5 197.25,557 195.5,556.5 184.25" fill="#000000" stroke="none" stroke-opacity="0" />
<polygon id="A2-3014" points="537 197,538.5 207.25,558.75 204.75,557 193.5" fill="#000000" stroke="none" stroke-opacity="0" />
<polygon id="A2-3015" points="538.5 206.5,539.75 216.75,559.75 214.25,559 203.75" fill="#000000" stroke="none" stroke-opacity="0" />
<polygon id="A2-3016" points="539.25 216.75,541.25 226.5,562.5 224,560 213.25" fill="#000000" stroke="none" stroke-opacity="0" />
<polygon id="A2-3017" points="540.75 225.5,542.25 236.75,563.5 235,562.5 224" fill="#000000" stroke="none" stroke-opacity="0" />
<polygon id="A2-3018" points="542 237.25,542.75 246.25,565 244.25,563.5 235.25" fill="#000000" stroke="#000000" />
<polygon id="A2-3019" points="543 246.75,544.75 256.25,566.5 253.25,565 244" fill="#000000" stroke="#000000" />
<polygon id="A2-3020" points="544.75 255.75,546 266.5,567.75 263.5,567 253.75" fill="#000000" stroke="#000000" />
<polygon id="A2-3021" points="550.25 305.25,552 316.25,575.5 312.5,573 302" fill="#000000" stroke="#000000" />
<polygon id="A2-3022" points="551.25 314.25,552.75 324.75,576.75 322.25,576 312.25" fill="#000000" stroke="#000000" />
<polygon id="A2-3023" points="530.25 321.75,545.25 332.25,553.75 330.75,556.75 352.75,539 353.75,533.25 360,521.25 351,526.75 342.75,518 338" fill="#000000" stroke="#000000" />
<polygon id="A2-3024" points="512 334.75,520.5 338.25,530.5 322.5,521.75 317.25" fill="#000000" stroke="#000000" />
<polygon id="A2-3025" points="513.75 313,523 318.75,513.75 336.25,505 331" fill="#000000" stroke="#000000" />
<polygon id="A2-3026" points="505.5 309.5,514 312.5,504.25 332.5,497.5 328.25" fill="#000000" stroke="#000000" />
<polygon id="A2-3027" points="496.25 305.5,505.375 308.875,497.375 328.875,489.375 326.5" fill="#000000" stroke="#000000" />
<polygon id="A2-3028" points="461.375 298.625,470.625 299.25,481.25 301.5,495.25 306,491.375 326.375,487.125 332.75,478.25 337.125,469.75 336.5,463.375 331.375,459.375 326.125,459.875 316,461.875 303.5" fill="#000000" stroke="none" stroke-opacity="0" />
<polygon id="A2-3029" points="455.5 288.125,466 289,487.25 293.375,481.5 282.625,485.25 280,479.5 274.125,467.375 281" fill="#000000" stroke="#000000" />
<polygon id="A2-3030" points="482.375 283.125,487.875 292.375,496 285.875,489 277.75" fill="#000000" stroke="#000000" />
<polygon id="A2-3031" points="488.875 277.5,496 286.125,503 279,494.75 271.375" fill="#000000" stroke="#000000" />
<polygon id="A2-3032" points="494.5 271.125,503.125 279.25,509.875 271.875,500.5 264.875" fill="#000000" stroke="#000000" />
<polygon id="A2-3033" points="497.875 253.25,515.25 264.375,519.875 255.125,501.5 246.625" fill="#000000" stroke="#000000" />
<polygon id="A2-3034" points="501.25 246.125,519.625 255.75,523.25 246.375,504.75 239.625" fill="#000000" stroke="#000000" />
<polygon id="A2-3035" points="507.5 232,504.75 239.125,523.875 246.75,526.625 236" fill="#000000" stroke="#000000" />
<polygon id="A2-3036" points="507.5 232.25,526.25 236.5,528.375 226.5,508.625 224.5" fill="#000000" stroke="#000000" />
<polygon id="A2-3037" points="508.75 224.75,528.75 228.25,529.25 216.5,508.875 216.625" fill="#000000" stroke="#000000" />
<polygon id="A2-3038" points="509.125 209,509 217.375,529.625 218,529.125 207.875" fill="#000000" stroke="#000000" />
<polygon id="A2-3039" points="507.875 201.5,508.75 209,529.5 207.875,527.375 197.5" fill="#000000" stroke="#000000" />
<polygon id="A2-3040" points="506 193.375,507.5 202,528.125 198.5,524.75 188.625" fill="#000000" stroke="#000000" />
<polygon id="A2-3041" points="503.25 186.25,506 194.5,525.375 188.875,521.875 179" fill="#000000" stroke="#000000" />
<polygon id="A2-3042" points="499.875 179.5,503.125 186.625,522.125 179.5,517.5 170" fill="#000000" stroke="#000000" />
<polygon id="A2-3043" points="497.375 161.625,503.5 168.125,512.875 161.5,506.5 153.75" fill="#000000" stroke="#000000" />
<polygon id="A2-3044" points="491.75 155.5,497.5 161.75,506.875 153.625,499.625 146.625" fill="#000000" stroke="#000000" />
<polygon id="A2-3045" points="479.75 156,483.75 159.25,488.875 151.875,492.25 155.625,499.5 146.125,491 140" fill="#000000" stroke="#000000" />
<polygon id="A2-3046" points="466.75 148.375,479.25 156.125,491 139.625,470.125 140.875" fill="#000000" stroke="#000000" />
<polygon id="A2-3047" points="453.25 142,469.5 141.5,458.25 166,448.125 162.5,440.5 161,440.625 152.625,444.625 145.75" fill="#000000" stroke="#000000" />
<polygon id="A2-3048" points="466.75 148.5,458.25 166.625,466.625 171.5,476.625 154.875" fill="#000000" stroke="#000000" />
<polygon id="A2-3049" points="476.75 154.5,465.5 170.75,472.625 175.875,486.5 161.5" fill="#000000" stroke="#000000" />
<polygon id="A2-3050" points="487.125 161.625,496.375 173.25,480.375 185,473.125 175.75" fill="#000000" stroke="#000000" />
<polygon id="A2-3051" points="481.875 189.5,486.5 197.625,505.125 190.875,499.5 179.5" fill="#000000" stroke="#000000" />
<polygon id="A2-3052" points="486.375 197.75,487.25 205.25,508.25 201.75,504.375 190.75" fill="#000000" stroke="#000000" />
<polygon id="A2-3053" points="487.375 205.375,488.75 213.5,509.125 214,507.875 202.75" fill="#000000" stroke="#000000" />
<polygon id="A2-3054" points="488.875 213.75,489 222.375,508.625 224.75,509 213.5" fill="#000000" stroke="#000000" />
<polygon id="A2-3055" points="489.25 222.125,487.125 229.875,506.375 236.375,508.5 224.375" fill="#000000" stroke="#000000" />
<polygon id="A2-3056" points="486.875 230.5,480.5 242.5,497.5 253.625,505.5 236.125" fill="#000000" stroke="#000000" />
<polygon id="A2-3057" points="478.25 247.875,494 259.5,480.375 273.625,467.375 258" fill="#000000" stroke="#000000" />
<polygon id="A2-3058" points="461 262.25,469.875 279.75,479.875 273.75,467.375 257.625" fill="#000000" stroke="#000000" />
<polygon id="A2-3059" points="459.875 262,469.5 279.625,459.625 284.75,453 266.5" fill="#000000" stroke="#000000" />
<polygon id="A2-3060" points="443.75 268,446.875 287.25,454.375 289,459.5 285,452.75 266.25" fill="#000000" stroke="#000000" />
<polygon id="A2-3061" points="552.75 324.5,558 363.75,641.25 352,721.75 332.25,720 319.75,735.5 312.75,743.5 317.5,752 302.25,744.75 297.5,740.75 285.75,760.75 280,753.25 260.75,708.5 129.75,690.5 135.25,685.25 116.25,665.5 122.5,607.75 135.75,610 145,552.5 157,552.75 165.5,543.25 166.5,546.75 185.5,555.75 184,568.25 262.75,555 266.5,560.25 303,573.25 301.75,577 321.5" fill="#000000" stroke="#000000" />
<polygon id="A3-3001" points="356.25 69.5,369.125 85.25,382 72.125,400.125 71.75,412.875 85,412.625 103.625,400.125 116.25,376.875 116.75,375.25 109.375,340 107.375,339.875 84.375,323.125 83,323.5 67.875" fill="#000000" stroke="#000000" />
<polygon id="A3-3002" points="321.875 92.875,335.125 93.375,334.625 106.25,321.125 105.75" fill="#000000" stroke="#000000" />
<polygon id="A3-3003" points="315 66.625,323.5 67.375,320.75 105.875,312.125 104.125" fill="#000000" stroke="#000000" />
<polygon id="A3-3004" points="306.375 66.125,314.875 65.875,311.75 104.25,302.875 103.125" fill="#000000" stroke="#000000" />
<polygon id="A3-3005" points="298.125 65.125,293.375 102.625,303 103.125,306.625 66.25" fill="#000000" stroke="#000000" />
<polygon id="A3-3006" points="288.625 64,297.75 64.75,293.125 102.625,283.75 100.625" fill="#000000" stroke="#000000" />
<polygon id="A3-3007" points="288.5 63.875,283.625 100.125,274.5 99.375,279.125 63.375" fill="#000000" stroke="#000000" />
<polygon id="A3-3008" points="271.625 61.375,265.875 97.25,274.875 99.125,280.25 62.5" fill="#000000" stroke="#000000" />
<polygon id="A3-3009" points="271.375 60.875,265.5 97.875,256.125 95.875,261.75 58.75" fill="#000000" stroke="#000000" />
<polygon id="A3-3010" points="262 57.875,256.125 96.125,247.375 94.625,253.5 57.25" fill="#000000" stroke="#000000" />
<polygon id="A3-3011" points="244.125 61.625,252.875 62.875,247.375 95.125,238.375 93" fill="#000000" stroke="#000000" />
<polygon id="A3-3012" points="235 60,228.875 91.375,238.25 93.25,243.875 61.25" fill="#000000" stroke="#000000" />
<polygon id="A3-3013" points="226.625 58.125,235.125 60,228.125 91.125,219.375 89.5" fill="#000000" stroke="#000000" />
<polygon id="A3-3014" points="217.375 56.5,226.375 57.5,218.875 89.5,210 87.75" fill="#000000" stroke="#000000" />
<polygon id="A3-3015" points="208.625 54.25,217.25 56.125,209.5 88,200.875 86" fill="#000000" stroke="#000000" />
<polygon id="A3-3016" points="208.625 53.5,200.125 52.375,191.875 83.5,201 85.625" fill="#000000" stroke="#000000" />
<polygon id="A3-3017" points="192.875 43.375,201.625 45.625,192.875 83.125,184 81.875" fill="#000000" stroke="#000000" />
<polygon id="A3-3018" points="192.75 43,183.625 81.625,174.375 79.125,183.625 41.75" fill="#000000" stroke="#000000" />
<polygon id="A3-3019" points="170.25 48.25,181.75 50.875,173.875 79.625,162.75 76.125" fill="#000000" stroke="#000000" />
<polygon id="A3-3020" points="151.25 59.875,160.5 62.25,156.875 74.375,147.125 72.125" fill="#000000" stroke="#000000" />
<polygon id="A3-3021" points="142.25 57.375,151.375 59.5,147.625 71,137.75 69.5" fill="#000000" stroke="#000000" />
<polygon id="A3-3022" points="149.875 33.625,137.625 69.625,107.125 58.625,99.5 64.625,79.25 57,70.875 39.875,77.875 23,95.125 14.5,111.375 20.75,120.5 38.75,136.875 28.625" fill="#000000" stroke="#000000" />
<polygon id="A4-3001" points="419.75 267,429.5 270.25,428 288,412.25 291" fill="#000000" stroke="#000000" />
<polygon id="A4-3002" points="403.5 280.5,414.25 285.5,420.25 266.5,410.75 263.25" fill="#000000" stroke="#000000" />
<polygon id="A4-3003" points="393 275.75,403.25 280.5,411 263.5,403.75 258.5" fill="#000000" stroke="#000000" />
<polygon id="A4-3004" points="384.25 267.5,393.5 276.5,404 258.75,398.5 253.75" fill="#000000" stroke="#000000" />
<polygon id="A4-3005" points="365.75 239.75,370.5 250.25,388.75 241,384 232.5" fill="#000000" stroke="#000000" />
<polygon id="A4-3006" points="362.75 228.75,364.75 239.75,384.25 232.5,381.75 224.25" fill="#000000" stroke="#000000" />
<polygon id="A4-3007" points="361.25 217,362.5 229,382.5 224.5,381.25 215" fill="#000000" stroke="#000000" />
<polygon id="A4-3008" points="362.25 205.5,361.25 217.25,381 216.5,382 207" fill="#000000" stroke="#000000" />
<polygon id="A4-3009" points="364.5 193.75,362.25 205,382.25 206.5,383.5 199.75" fill="#000000" stroke="#000000" />
<polygon id="A4-3010" points="368 183,363.75 194,384.25 200.25,386.75 191.5" fill="#000000" stroke="#000000" />
<polygon id="A4-3011" points="371.25 175.75,389 187.5,396.25 178,382.25 164.5" fill="#000000" stroke="#000000" />
<polygon id="A4-3012" points="381.75 163.75,396.25 177.75,403 171.25,390.75 156" fill="#000000" stroke="#000000" />
<polygon id="A4-3013" points="389.75 156,400.5 149.25,410 167,402.25 172.5" fill="#000000" stroke="#000000" />
<polygon id="A4-3014" points="411 166.75,426.75 162,425.75 152.25,418 144.5,396.5 144.25" fill="#000000" stroke="#000000" />
<polygon id="A4-3015" points="378 155.25,384.5 162.25,400 149.75,395.25 143,375 143,381.5 150.75" fill="#000000" stroke="#000000" />
<polygon id="A4-3016" points="367.25 150,375 158.25,381.75 152,374 143.25" fill="#000000" stroke="#000000" />
<polygon id="A4-3017" points="366.75 150.25,374.75 159.5,369 165.5,361 159.25" fill="#000000" stroke="#000000" />
<polygon id="A4-3018" points="359.5 158.5,369.5 166.25,364.75 171.5,355 166.75" fill="#000000" stroke="#000000" />
<polygon id="A4-3019" points="350.25 173.75,360 178.75,356 187,346.5 183.75" fill="#000000" stroke="#000000" />
<polygon id="A4-3020" points="346.5 182.75,343.75 193.75,354.25 195.25,356 188" fill="#000000" stroke="#000000" />
<polygon id="A4-3021" points="342.25 194,363.25 197.25,361.75 205.25,342.25 203.5" fill="#000000" stroke="#000000" />
<polygon id="A4-3022" points="342 203.5,342 212.25,361 213.5,361.25 206.25" fill="#000000" stroke="#000000" />
<polygon id="A4-3023" points="342 212.75,341.75 222.75,361.25 220.75,361 213" fill="#000000" stroke="#000000" />
<polygon id="A4-3024" points="342 222.25,343.25 231.25,362.5 229.25,361.75 221" fill="#000000" stroke="#000000" />
<polygon id="A4-3025" points="343.25 231.25,345.5 241,363.5 236,363.25 229.25" fill="#000000" stroke="#000000" />
<polygon id="A4-3026" points="345.25 241.5,347.5 251.75,366 243.25,363.75 236.25" fill="#000000" stroke="#000000" />
<polygon id="A4-3027" points="347.75 252,352.75 260.5,371 249.75,366.5 242" fill="#000000" stroke="#000000" />
<polygon id="A4-3028" points="352.25 260,359.25 268.75,374.5 256.25,370.5 250.25" fill="#000000" stroke="#000000" />
<polygon id="A4-3029" points="363.75 276.25,371 283,378.75 274.5,372.75 268.25" fill="#000000" stroke="#000000" />
<polygon id="A4-3030" points="371.25 283.5,378.5 289.25,386 280.75,378.5 274.25" fill="#000000" stroke="#000000" />
<polygon id="A4-3031" points="379.25 290.75,386.5 295,392.25 285.5,385.5 280.75" fill="#000000" stroke="#000000" />
<polygon id="A4-3032" points="393 277.25,389 281.75,392.5 285.75,387 296.5,411.75 291.25,414 285.5" fill="#000000" stroke="#000000" />
<polygon id="A4-3033" points="378 309.75,388 303.75,411.25 299.75,415 319.5,414 330.5,406.25 338.25,394 338.5,385.5 329" fill="#000000" stroke="#000000" />
<polygon id="A4-3034" points="369.75 313.5,378.25 332.5,385 327.75,377.75 309.25" fill="#000000" stroke="#000000" />
<polygon id="A4-3035" points="369.75 313.25,378.5 333,371.25 336.25,361.75 318.25" fill="#000000" stroke="#000000" />
<polygon id="A4-3036" points="354 321.25,361 317,370.75 336.5,364.75 341.5" fill="#000000" stroke="#000000" />
<polygon id="A4-3037" points="353 321,364.25 342,357.25 344.75,346.25 326.5" fill="#000000" stroke="#000000" />
<polygon id="A4-3038" points="326 341,325.5 358.75,339.75 357,344.75 365,356 354.5,350.5 347.75,357.5 343,346 326.5,334 332.5" fill="#000000" stroke="#000000" />
<polygon id="A4-3039" points="299 328,298.5 338.25,322.5 339.75,323.5 330" fill="#000000" stroke="#000000" />
<polygon id="A4-3040" points="301.75 308.75,300.75 323.5,323.25 324.5,324.5 311" fill="#000000" stroke="#000000" />
<polygon id="A4-3041" points="303 299,302.25 308.5,324.5 311,324.5 301.25" fill="#000000" stroke="#000000" />
<polygon id="A4-3042" points="304.25 288.5,302.5 300,325.5 301,326.5 291" fill="#000000" stroke="#000000" />
<polygon id="A4-3043" points="305 279,303.75 291,326 291.75,327.25 281.25" fill="#000000" stroke="#000000" />
<polygon id="A4-3044" points="305.75 270,304.75 281,326.75 283,327.25 271" fill="#000000" stroke="#000000" />
<polygon id="A4-3045" points="306 260,306 271.25,327.5 272.5,328 261.75" fill="#000000" stroke="#000000" />
<polygon id="A4-3046" points="307.25 249.75,307 260.25,328 261.75,328.75 251.25" fill="#000000" stroke="#000000" />
<polygon id="A4-3047" points="307.75 239.25,307.5 251,329 252.25,329 241.75" fill="#000000" stroke="#000000" />
<polygon id="A4-3048" points="309 230.5,308.25 240.25,329.25 242.25,330.25 231" fill="#000000" stroke="#000000" />
<polygon id="A4-3049" points="310 220.25,309.25 231.25,330 233,331.25 221.25" fill="#000000" stroke="#000000" />
<polygon id="A4-3050" points="310.25 210.75,310.25 220.75,332.25 222.75,331.25 212.5" fill="#000000" stroke="#000000" />
<polygon id="A4-3051" points="323.5 182,334.25 182.25,333.25 192.25,322.75 192.75" fill="#000000" stroke="#000000" />
<polygon id="A4-3052" points="323.75 172.5,323.75 183.25,335 183.25,335.25 172.5" fill="#000000" stroke="#000000" />
<polygon id="A4-3053" points="316 151.75,315.5 165.75,335.25 166.75,336.25 153" fill="#000000" stroke="#000000" />
<polygon id="A4-3054" points="327.25 140.25,327 152.75,335.75 153.5,337 140.75" fill="#000000" stroke="#000000" />
<polygon id="A4-3055" points="317.25 139.5,316.25 152.5,326.25 152.25,326.75 139.5" fill="#000000" stroke="#000000" />
<polygon id="A4-3056" points="307.25 138.75,306 160.75,315.5 161.5,316.75 138" fill="#000000" stroke="#000000" />
<polygon id="A4-3057" points="297.25 137.25,307.5 138.25,305.5 160,296.5 159.5" fill="#000000" stroke="#000000" />
<polygon id="A4-3058" points="288 136,298.75 137,296.5 159.25,286 158.25" fill="#000000" stroke="#000000" />
<polygon id="A4-3059" points="289 136,286.25 158,276.25 157,278.75 135.25" fill="#000000" stroke="#000000" />
<polygon id="A4-3060" points="265.5 133.5,262 154.75,275.75 157.25,278.75 134.5" fill="#000000" stroke="#000000" />
<polygon id="A4-3061" points="250.75 130.75,249 142.5,259.25 144.5,261.5 132.75" fill="#000000" stroke="#000000" />
<polygon id="A4-3062" points="240.5 129.25,238.75 142.25,248.75 143.5,250.75 131.5" fill="#000000" stroke="#000000" />
<polygon id="A4-3063" points="231.75 127,227.75 149.25,238.25 150.5,241.25 128.75" fill="#000000" stroke="#000000" />
<polygon id="A4-3064" points="221.25 126.25,231.5 127,227.75 148.25,218.75 147" fill="#000000" stroke="#000000" />
<polygon id="A4-3065" points="222.25 126.25,218.25 147.25,209.25 145.75,212.75 124.5" fill="#000000" stroke="#000000" />
<polygon id="A4-3066" points="203.25 121.5,213 123.75,209.25 144.75,199 143" fill="#000000" stroke="#000000" />
<polygon id="A4-3067" points="194.5 120.25,204.5 121.5,199 143,189 140.75" fill="#000000" stroke="#000000" />
<polygon id="A4-3068" points="184.75 118.25,195.25 119.75,189.5 141.25,179 139.75" fill="#000000" stroke="#000000" />
<polygon id="A4-3069" points="175.75 115.25,186 117.25,179.75 137.5,169 136.25" fill="#000000" stroke="#000000" />
<polygon id="A4-3070" points="165.5 113,176 115.25,170 136.75,159.25 134.5" fill="#000000" stroke="#000000" />
<polygon id="A4-3071" points="156.25 110.75,166.75 113.5,161.5 135.25,151.75 131" fill="#000000" stroke="#000000" />
<polygon id="A4-3072" points="146.5 108.25,156.75 110.75,152 130.75,141 128.25" fill="#000000" stroke="#000000" />
<polygon id="A4-3073" points="133.5 104,146.75 107.5,141 128.75,127 125.25" fill="#000000" stroke="#000000" />
<polygon id="A4-3074" points="119 99.75,115.5 110.75,125.5 114.5,129.25 103" fill="#000000" stroke="#000000" />
<polygon id="A4-3075" points="119.5 99.25,110.25 96.25,106.75 109.5,115.5 112.5" fill="#000000" stroke="#000000" />
<polygon id="A4-3076" points="100.75 93.5,93.5 114.5,103.75 117.75,110.5 96" fill="#000000" stroke="#000000" />
<polygon id="A4-3077" points="74.75 107.5,92.75 114.75,100.25 93,86.75 96,80 100.25" fill="#000000" stroke="#000000" />
<polygon id="A4-3078" points="74 107.75,72.25 118.25,91 125,94 115.25" fill="#000000" stroke="#000000" />
<polygon id="A4-3079" points="71.75 118.5,69 127.5,87 134.25,91.25 125.25" fill="#000000" stroke="#000000" />
<polygon id="A4-3080" points="67.25 128,66 136,85.75 143.75,87.75 134.75" fill="#000000" stroke="#000000" />
<polygon id="A4-3081" points="60 154.25,79 161.25,75 171.25,55.5 165.25" fill="#000000" stroke="#000000" />
<polygon id="A4-3082" points="55 165.5,52.25 172.75,71.75 180.5,76 171.75" fill="#000000" stroke="#000000" />
<polygon id="A4-3083" points="49.5 182.5,58.5 187,62.75 177.5,51.25 173" fill="#000000" stroke="#000000" />
<polygon id="A4-3084" points="48.75 183,46 193.5,56.75 195.75,58.75 187.25" fill="#000000" stroke="#000000" />
<polygon id="A4-3085" points="33.5 192.25,54.5 201,49.5 214.25,29.25 207.5" fill="#000000" stroke="#000000" />
<polygon id="A4-3086" points="28.5 206.5,13.5 239.5,29 251.5,14.5 286,22 300,42.5 303.5,41.5 316,111 338,203 358,293 369.5,321.5 370,323 342,300 339.5,310.5 211.5,320.5 212.5,324.5 194.5,323.5 174,335.5 175,337 165,226 148.5,113 121.5,95 115,85.5 144,74 139.5,68 157.5,78.5 160.5,72.5 183,64 177.5,52 216" fill="#000000" stroke="#000000" />






</svg>
