<?xml version="1.0" encoding="UTF-8" standalone="no"?>
<!-- Created with Inkscape (http://www.inkscape.org/) -->

<svg xmlns:dc="http://purl.org/dc/elements/1.1/" xmlns:cc="http://creativecommons.org/ns#" xmlns:rdf="http://www.w3.org/1999/02/22-rdf-syntax-ns#" xmlns:svg="http://www.w3.org/2000/svg" xmlns="http://www.w3.org/2000/svg" xmlns:xlink="http://www.w3.org/1999/xlink" xmlns:sodipodi="http://sodipodi.sourceforge.net/DTD/sodipodi-0.dtd" xmlns:inkscape="http://www.inkscape.org/namespaces/inkscape" width="770" height="410" id="svg2" version="1.1" inkscape:version="0.47pre4 " sodipodi:docname="test.svg" style="display:inline" stroke="#000000">
<defs id="defs4">
<inkscape:perspective sodipodi:type="inkscape:persp3d" inkscape:vp_x="0 : 526.18109 : 1" inkscape:vp_y="0 : 1000 : 0" inkscape:vp_z="744.09448 : 526.18109 : 1" inkscape:persp3d-origin="372.04724 : 350.78739 : 1" id="perspective10" />
<inkscape:perspective id="perspective2832" inkscape:persp3d-origin="0.5 : 0.33333333 : 1" inkscape:vp_z="1 : 0.5 : 1" inkscape:vp_y="0 : 1000 : 0" inkscape:vp_x="0 : 0.5 : 1" sodipodi:type="inkscape:persp3d" />
<script type="text/ecmascript" id="script6">
		var fdat="",sdat="";
		function onAreaOver(evt){
			var ele=evt.target; 
			fdat=ele.getAttribute('fill'); 
			sdat=ele.getAttribute('stroke');
			ele.setAttribute('fill','#006fb6');//多边形填充颜色
			ele.setAttribute('stroke','#006fb6');//stroke 多边形 边框颜色
			
		}
		function onAreaOut(evt){
			var ele=evt.target; 
			ele.setAttribute('fill',fdat);
			ele.setAttribute('stroke',sdat);
		}
		</script>
<symbol overflow="visible" id="symbol" style="overflow:visible" xmlns="http://www.w3.org/2000/svg">
<path d="m 626,156 2,-2 2,-4 0,-3 -1,-3 -4,-3 -6,-3 -5,-2 -4,-2 -4,8 -6,14" id="path9" style="fill:#000000;stroke:none" />
</symbol>
</defs>
<sodipodi:namedview id="base" pagecolor="#ffffff" bordercolor="#666666" borderopacity="1.0" inkscape:pageopacity="0.0" inkscape:pageshadow="2" inkscape:zoom="5.6" inkscape:cx="583.1007" inkscape:cy="273.63795" inkscape:document-units="px" inkscape:current-layer="svg2" showgrid="false" inkscape:window-width="1280" inkscape:window-height="740" inkscape:window-x="-4" inkscape:window-y="-4" inkscape:window-maximized="1" />
<metadata id="metadata7">
<rdf:RDF>
<cc:Work>
<dc:format>
				image/svg+xml</dc:format>
<dc:type rdf:resource="http://purl.org/dc/dcmitype/StillImage" />
<dc:title>
</dc:title>
</cc:Work>
</rdf:RDF>
</metadata>
<image xlink:href="bengbu_mall_a_2f.png" width="770" height="410" id="image2834" x="-485" y="255.93361" transform="translate(485,-255.9336)" inkscape:label="Layer 1" inkscape:groupmode="layer" style="display:inline" />
<polygon id="A1-2001" points="616.9599 61.91999,628.5999 58.03999,638.0799 41.27999,656.6399 36.48,672.4799 46.23999,676.4799 63.67999,667.0399 79.35999,649.2799 84.15999,639.8399 78.87999,622.0799 84.95999" fill="#000000" stroke="none" stroke-opacity="0" xmlns="http://www.w3.org/2000/svg" />
<polygon id="A1-2002" points="604.3199 74.23999,613.7599 71.99999,616.7999 84.95999,607.1999 87.19999" fill="#000000" stroke="none" stroke-opacity="0" />
<polygon id="A1-2003" points="595.5199 76.15999,604.9599 74.55999,607.0399 87.19999,598.0799 89.27999" fill="#000000" stroke="none" stroke-opacity="0" />
<polygon id="A1-2004" points="581.5999 53.75999,589.1199 90.39999,598.2399 89.11999,591.5199 52.47999" fill="#000000" stroke="none" stroke-opacity="0" />
<polygon id="A1-2005" points="572.4799 55.83999,581.7599 53.27999,589.2799 90.71999,579.8399 92.47999" fill="#000000" stroke="none" stroke-opacity="0" />
<polygon id="A1-2006" points="563.6799 56.95999,573.7599 56.15999,580.1599 92.31998,571.0399 93.91999" fill="#000000" stroke="none" stroke-opacity="0" />
<polygon id="A1-2007" points="555.6799 59.19999,564.6399 57.59999,570.8799 93.59998,562.0799 95.51999" fill="#000000" stroke="none" stroke-opacity="0" />
<polygon id="A1-2008" points="546.7199 59.19999,552.7999 96.95998,562.2399 95.67999,555.8399 59.03999" fill="#000000" stroke="none" stroke-opacity="0" />
<polygon id="A1-2009" points="537.5999 62.07999,543.2 97.91998,552.4799 97.11999,547.0399 59.99999" fill="#000000" stroke="none" stroke-opacity="0" />
<polygon id="A1-2010" points="528.9599 87.99998,530.3999 100.48,542.5599 98.87999,541.1199 86.07999" fill="#000000" stroke="none" stroke-opacity="0" />
<polygon id="A1-2011" points="462.5599 69.43999,450.56 84.15999,450.8799 102.56,464.64 114.08,487.9999 112.96,488.4799 104.8,513.5999 102.4,523.9999 101.28,521.5999 78.71999,540.1599 77.11999,538.5599 61.91999,509.2799 64.31999,495.9999 81.11999,481.7599 68.95999" fill="#000000" stroke="none" stroke-opacity="0" />
<polygon id="A2-2001" points="659.8399 102.24,664.4799 120.48,683.6799 115.2,689.9199 134.4,713.5999 127.68,706.8799 108.96,682.7199 100.32" fill="#000000" stroke="none" stroke-opacity="0" />
<polygon id="A2-2002" points="595.84 124.32,600.16 147.04,610.5599 144.8,605.7599 122.4" fill="#000000" stroke="none" stroke-opacity="0" />
<polygon id="A2-2003" points="586.4 125.92,590.2399 149.44,600.96 147.2,596.16 123.84" fill="#000000" stroke="none" stroke-opacity="0" />
<polygon id="A2-2004" points="577.1199 128.48,580.16 150.88,590.4 149.44,586.4 126.24" fill="#000000" stroke="none" stroke-opacity="0" />
<polygon id="A2-2005" points="567.6799 129.6,571.27 151.485,580.3199 151.04,576.9599 128" fill="#000000" stroke="none" stroke-opacity="0" xmlns="http://www.w3.org/2000/svg" />
<polygon id="A2-2006" points="557.7599 132.16,561.0649 152.89,571.825 151.45,567.6799 130.08" fill="#000000" stroke="none" stroke-opacity="0" xmlns="http://www.w3.org/2000/svg" />
<polygon id="A2-2007" points="548.3199 132.8,551.7849 154.525,561.2799 153.28,557.7599 131.36" fill="#000000" stroke="none" stroke-opacity="0" xmlns="http://www.w3.org/2000/svg" />
<polygon id="A2-2008" points="539.0399 133.76,539.3599 147.2,550.5599 145.92,548.4799 132.32" fill="#000000" stroke="none" stroke-opacity="0" xmlns="http://www.w3.org/2000/svg" />
<polygon id="A2-2009" points="528.96 135.52,530.5599 148.57,539.7349 147.45,539.3449 133.92" fill="#000000" stroke="none" stroke-opacity="0" xmlns="http://www.w3.org/2000/svg" />
<polygon id="A2-2010" points="530.7199 148.48,531.9999 161.28,552.3199 159.36,550.7199 145.6" fill="#000000" stroke="none" stroke-opacity="0" xmlns="http://www.w3.org/2000/svg" />
<polygon id="A2-2011" points="532.7999 167.04,534.7198 178.4,544.9599 176.16,543.52 165.76" fill="#000000" stroke="none" stroke-opacity="0" xmlns="http://www.w3.org/2000/svg" />
<polygon id="A2-2012" points="535.0399 177.92,536.1599 186.56,546.3999 185.6,545.1199 175.68" fill="#000000" stroke="none" stroke-opacity="0" xmlns="http://www.w3.org/2000/svg" />
<polygon id="A2-2013" points="536.3199 187.04,536.96 196.48,557.4399 194.24,556.3199 183.68" fill="#000000" stroke="none" stroke-opacity="0" xmlns="http://www.w3.org/2000/svg" />
<polygon id="A2-2014" points="537.1199 196.64,538.08 206.08,559.2 203.84,557.9199 194.24" fill="#000000" stroke="none" stroke-opacity="0" xmlns="http://www.w3.org/2000/svg" />
<polygon id="A2-2015" points="538.0599 205.705,539.325 216.625,559.6799 213.92,559.2 203.84" fill="#000000" stroke="none" stroke-opacity="0" xmlns="http://www.w3.org/2000/svg" />
<polygon id="A2-2016" points="539.2 216.32,540.5699 227.54,561.6549 224.34,560.1599 213.92" fill="#000000" stroke="none" stroke-opacity="0" xmlns="http://www.w3.org/2000/svg" />
<polygon id="A2-2017" points="540.64 227.52,542.5599 236.8,563.2 233.44,561.9199 223.68" fill="#000000" stroke="none" stroke-opacity="0" xmlns="http://www.w3.org/2000/svg" />
<polygon id="A2-2018" points="542.5599 236.64,542.8799 245.12,564.4799 243.52,563.3599 233.28" fill="#000000" stroke="none" stroke-opacity="0" xmlns="http://www.w3.org/2000/svg" />
<polygon id="A2-2019" points="543.2 245.28,544.4799 255.52,565.7599 253.44,563.9999 243.36" fill="#000000" stroke="none" stroke-opacity="0" xmlns="http://www.w3.org/2000/svg" />
<polygon id="A2-2020" points="544.7999 255.52,546.5599 265.4399,567.6799 262.08,565.1199 253.28" fill="#000000" stroke="none" stroke-opacity="0" xmlns="http://www.w3.org/2000/svg" />
<polygon id="A2-2021" points="550.8799 304.3199,551.8399 314.08,574.205 311.7,572.3199 300.96" fill="#000000" stroke="none" stroke-opacity="0" xmlns="http://www.w3.org/2000/svg" />
<polygon id="A2-2022" points="551.9999 313.92,553.1199 324.8,576.1599 320.96,574.5599 311.36" fill="#000000" stroke="none" stroke-opacity="0" xmlns="http://www.w3.org/2000/svg" />
<polygon id="A2-2023" points="533.2799 358.24,538.3999 352.1599,556.3199 351.52,554.08 330.4,543.2 330.4,530.08 321.92,518.5599 338.08,525.1199 342.3999,521.1199 349.1199" fill="#000000" stroke="none" stroke-opacity="0" xmlns="http://www.w3.org/2000/svg" />
<polygon id="A2-2024" points="521.9199 317.28,511.52 334.56,519.0399 338.88,530.2399 321.76" fill="#000000" stroke="none" stroke-opacity="0" xmlns="http://www.w3.org/2000/svg" />
<polygon id="A2-2025" points="522.2399 317.44,513.2799 313.28,504.64 330.88,511.36 335.2" fill="#000000" stroke="none" stroke-opacity="0" xmlns="http://www.w3.org/2000/svg" />
<polygon id="A2-2026" points="513.7599 312.32,504.8 309.28,496.96 329.12,506.08 331.52" fill="#000000" stroke="none" stroke-opacity="0" xmlns="http://www.w3.org/2000/svg" />
<polygon id="A2-2027" points="496.1599 306.4,505.5999 309.44,498.5599 328.32,490.08 325.28" fill="#000000" stroke="none" stroke-opacity="0" xmlns="http://www.w3.org/2000/svg" />
<polygon id="A2-2028" points="461.7599 298.4,473.92 299.2,487.36 302.56,495.9999 306.56,489.4399 327.52,481.28 336.16,470.4 336.4799,462.08 331.04,459.0399 321.12" fill="#000000" stroke="none" stroke-opacity="0" xmlns="http://www.w3.org/2000/svg" />
<polygon id="A2-2029" points="459.36 283.68,460.8 288.96,471.0399 290.24,487.2 293.28,481.92 282.08,485.44 279.36,479.68 272" fill="#000000" stroke="none" stroke-opacity="0" xmlns="http://www.w3.org/2000/svg" />
<polygon id="A2-2030" points="481.705 282.08,488.3199 277.12,495.9999 285.92,487.27 293.085" fill="#000000" stroke="none" stroke-opacity="0" xmlns="http://www.w3.org/2000/svg" />
<polygon id="A2-2031" points="488.1599 276.96,495.9999 286.24,503.52 278.72,494.4 270.4" fill="#000000" stroke="none" stroke-opacity="0" xmlns="http://www.w3.org/2000/svg" />
<polygon id="A2-2032" points="494.4 270.08,503.36 278.72,509.4399 272,500.8 264.16" fill="#000000" stroke="none" stroke-opacity="0" xmlns="http://www.w3.org/2000/svg" />
<polygon id="A2-2033" points="497.2799 252.8,515.0399 263.84,519.2 254.4,501.2799 245.6" fill="#000000" stroke="none" stroke-opacity="0" xmlns="http://www.w3.org/2000/svg" />
<polygon id="A2-2034" points="501.2799 246.08,519.2 255.2,523.3599 245.12,504.64 237.92" fill="#000000" stroke="none" stroke-opacity="0" xmlns="http://www.w3.org/2000/svg" />
<polygon id="A2-2035" points="504.265 238.205,523.2 246.24,526.5599 236.48,506.8799 231.68" fill="#000000" stroke="none" stroke-opacity="0" xmlns="http://www.w3.org/2000/svg" />
<polygon id="A2-2036" points="507.145 232.02,527.0399 236.96,527.9999 226.56,508.4799 223.16" fill="#000000" stroke="none" stroke-opacity="0" xmlns="http://www.w3.org/2000/svg" />
<polygon id="A2-2037" points="508.3199 223.84,527.9999 226.4,529.1199 217.28,508.3199 215.52" fill="#000000" stroke="none" stroke-opacity="0" xmlns="http://www.w3.org/2000/svg" />
<polygon id="A2-2038" points="508.8 208,508.64 216,529.2799 217.76,528.4799 206.88" fill="#000000" stroke="none" stroke-opacity="0" xmlns="http://www.w3.org/2000/svg" />
<polygon id="A2-2039" points="507.68 201.12,508.96 208.64,528.64 207.36,527.3599 196.64" fill="#000000" stroke="none" stroke-opacity="0" xmlns="http://www.w3.org/2000/svg" />
<polygon id="A2-2040" points="505.5999 193.92,507.9999 201.76,527.2 198.56,524.96 187.2" fill="#000000" stroke="none" stroke-opacity="0" xmlns="http://www.w3.org/2000/svg" />
<polygon id="A2-2041" points="503.2 186.88,505.92 194.4,525.1199 188.64,521.5999 177.44" fill="#000000" stroke="none" stroke-opacity="0" xmlns="http://www.w3.org/2000/svg" />
<polygon id="A2-2042" points="499.52 178.88,503.52 187.2,521.5999 178.56,517.4399 169.6" fill="#000000" stroke="none" stroke-opacity="0" xmlns="http://www.w3.org/2000/svg" />
<polygon id="A2-2043" points="497.4399 160.8,503.36 167.68,512.64 160.96,505.7599 152.48" fill="#000000" stroke="none" stroke-opacity="0" xmlns="http://www.w3.org/2000/svg" />
<polygon id="A2-2044" points="491.52 154.72,497.4399 161.12,506.08 153.12,499.68 146.24" fill="#000000" stroke="none" stroke-opacity="0" xmlns="http://www.w3.org/2000/svg" />
<polygon id="A2-2045" points="479.84 155.36,483.6799 158.56,488.96 150.72,492.1599 155.36,499.68 145.6,490.56 139.04" fill="#000000" stroke="none" stroke-opacity="0" xmlns="http://www.w3.org/2000/svg" />
<polygon id="A2-2046" points="468.655 140.675,465.81 147.25,479.9999 155.68,491.68 138.72" fill="#000000" stroke="none" stroke-opacity="0" xmlns="http://www.w3.org/2000/svg" />
<polygon id="A2-2047" points="468.64 140.64,450.8799 141.6,442.56 147.36,440.64 153.28,440.96 161.28,449.7599 162.08,458.4 165.44" fill="#000000" stroke="none" stroke-opacity="0" xmlns="http://www.w3.org/2000/svg" />
<polygon id="A2-2048" points="458.24 164.8,465.44 169.92,477.5999 153.92,465.615 147.305" fill="#000000" stroke="none" stroke-opacity="0" xmlns="http://www.w3.org/2000/svg" />
<polygon id="A2-2049" points="465.92 169.6,472.64 175.68,485.5999 160.64,476.64 153.28" fill="#000000" stroke="none" stroke-opacity="0" xmlns="http://www.w3.org/2000/svg" />
<polygon id="A2-2050" points="472.8 175.04,480 183.68,496 172.64,485.5999 160.48" fill="#000000" stroke="none" stroke-opacity="0" xmlns="http://www.w3.org/2000/svg" />
<polygon id="A2-2051" points="481.5999 189.44,485.7599 196.96,504.96 190.08,499.68 178.56" fill="#000000" stroke="none" stroke-opacity="0" xmlns="http://www.w3.org/2000/svg" />
<polygon id="A2-2052" points="485.7599 196.96,487.2 204.96,508.3199 201.44,504.4799 189.44" fill="#000000" stroke="none" stroke-opacity="0" xmlns="http://www.w3.org/2000/svg" />
<polygon id="A2-2053" points="487.36 204.48,488.3199 213.92,509.28 213.12,508.4799 201.12" fill="#000000" stroke="none" stroke-opacity="0" xmlns="http://www.w3.org/2000/svg" />
<polygon id="A2-2054" points="488.64 213.92,488.64 222.24,508.8 224.16,509.12 212.64" fill="#000000" stroke="none" stroke-opacity="0" xmlns="http://www.w3.org/2000/svg" />
<polygon id="A2-2055" points="488.96 221.76,486.72 230.4,506.24 236.96,509.28 223.68" fill="#000000" stroke="none" stroke-opacity="0" xmlns="http://www.w3.org/2000/svg" />
<polygon id="A2-2056" points="486.8799 230.56,481.12 242.88,497.7599 252.8,501.7599 246.24,504.96 236.32" fill="#000000" stroke="none" stroke-opacity="0" xmlns="http://www.w3.org/2000/svg" />
<polygon id="A2-2057" points="473.44 252.8,468 257.92,480.1599 272.96,488.96 266.08,493.92 259.36,477.7599 247.52" fill="#000000" stroke="none" stroke-opacity="0" xmlns="http://www.w3.org/2000/svg" />
<polygon id="A2-2058" points="459.8 262.045,469.5999 279.56,480.4799 272.8,467.52 257.28" fill="#000000" stroke="none" stroke-opacity="0" xmlns="http://www.w3.org/2000/svg" />
<polygon id="A2-2059" points="460.4799 261.92,469.44 279.0399,459.36 284.4799,452 265.44" fill="#000000" stroke="none" stroke-opacity="0" xmlns="http://www.w3.org/2000/svg" />
<polygon id="A2-2060" points="443.52 268.4799,446.88 287.36,460.8 288.96,452.64 265.28" fill="#000000" stroke="none" stroke-opacity="0" xmlns="http://www.w3.org/2000/svg" />
<polygon id="A2-2061" points="552 155,566.5 261,547.5 265.5,561.5 302,571.5 301.5,576 320.5,553.5 324,559 363,630 355.5,684.5 341.5,721.5 332.5,721.5 321,744 316.5,750.5 303,742.5 285,760.5 279.5,754.5 260.5,709 128.5,690 133.5,684.5 115.5,667 119.5,639 127,608.5 134.5,609.5 144,580.5 150" fill="#000000" stroke="none" stroke-opacity="0" xmlns="http://www.w3.org/2000/svg" />
<polygon id="A3-2001" points="367 84,382 70.75,398.75 71,413.5 85.25,413.25 103.5,398.75 116.5,376.25 117,375 107.75,338.75 106.25,339.75 84.5,322.75 82.75,324.25 67,355.5 68.75" fill="#000000" stroke="none" stroke-opacity="0" xmlns="http://www.w3.org/2000/svg" />
<polygon id="A3-2002" points="323 93,322 104,333 105,334 93.5" fill="#000000" stroke="#000000" />
<polygon id="A3-2003" points="314.75 66.5,310.25 103.25,321.25 104.75,325 67.5" fill="#000000" stroke="none" stroke-opacity="0" xmlns="http://www.w3.org/2000/svg" />
<polygon id="A3-2004" points="305 65.75,302 102.75,311.5 103.75,316 66" fill="#000000" stroke="none" stroke-opacity="0" xmlns="http://www.w3.org/2000/svg" />
<polygon id="A3-2005" points="296.75 65,291.75 101.25,303 102.75,306.75 66" fill="#000000" stroke="none" stroke-opacity="0" xmlns="http://www.w3.org/2000/svg" />
<polygon id="A3-2006" points="288 62.75,282.5 99.5,293.5 101.5,297.5 64.25" fill="#000000" stroke="none" stroke-opacity="0" xmlns="http://www.w3.org/2000/svg" />
<polygon id="A3-2007" points="279.25 62.25,273.5 98.75,283.75 99,288.75 62.5" fill="#000000" stroke="none" stroke-opacity="0" xmlns="http://www.w3.org/2000/svg" />
<polygon id="A3-2008" points="271 61.5,280.5 62.5,273.75 99.5,264.5 98" fill="#000000" stroke="none" stroke-opacity="0" xmlns="http://www.w3.org/2000/svg" />
<polygon id="A3-2009" points="262.25 58.75,272 60,265.5 98,256.25 97" fill="#000000" stroke="none" stroke-opacity="0" xmlns="http://www.w3.org/2000/svg" />
<polygon id="A3-2010" points="246.25 95,257 96.25,263.25 58,253.75 56.25" fill="#000000" stroke="none" stroke-opacity="0" xmlns="http://www.w3.org/2000/svg" />
<polygon id="A3-2011" points="242.75 61.25,253.25 62.75,247 94.5,237 93.5" fill="#000000" stroke="none" stroke-opacity="0" xmlns="http://www.w3.org/2000/svg" />
<polygon id="A3-2012" points="234.25 59.25,243.75 61.25,237.5 92.75,227.75 91" fill="#000000" stroke="none" stroke-opacity="0" xmlns="http://www.w3.org/2000/svg" />
<polygon id="A3-2013" points="225.75 58,235 59.75,228.75 90.25,219.25 89.75" fill="#000000" stroke="none" stroke-opacity="0" xmlns="http://www.w3.org/2000/svg" />
<polygon id="A3-2014" points="216.75 56.5,226.5 58.75,219.25 90,210 88" fill="#000000" stroke="none" stroke-opacity="0" xmlns="http://www.w3.org/2000/svg" />
<polygon id="A3-2015" points="208 54,217.5 56.75,211 87,200 85.25" fill="#000000" stroke="none" stroke-opacity="0" xmlns="http://www.w3.org/2000/svg" />
<polygon id="A3-2016" points="198.75 52.25,208.25 54.25,201.75 84.5,192.5 83.75" fill="#000000" stroke="none" stroke-opacity="0" xmlns="http://www.w3.org/2000/svg" />
<polygon id="A3-2017" points="192 43.25,182.75 81.75,192.25 84.25,200.5 45.25" fill="#000000" stroke="none" stroke-opacity="0" xmlns="http://www.w3.org/2000/svg" />
<polygon id="A3-2018" points="183.25 41.75,192 44,183 81.75,173 79.5" fill="#000000" stroke="none" stroke-opacity="0" xmlns="http://www.w3.org/2000/svg" />
<polygon id="A3-2019" points="169.75 48.5,180.75 52.25,173 79.5,162.25 76" fill="#000000" stroke="none" stroke-opacity="0" xmlns="http://www.w3.org/2000/svg" />
<polygon id="A3-2020" points="150 59.5,146.25 72,155.5 75.5,159.25 61.75" fill="#000000" stroke="none" stroke-opacity="0" xmlns="http://www.w3.org/2000/svg" />
<polygon id="A3-2021" points="141 57.75,137.5 68.5,146 72,150 59.5" fill="#000000" stroke="none" stroke-opacity="0" xmlns="http://www.w3.org/2000/svg" />
<polygon id="A3-2022B" points="119 37.25,111.75 61,137.75 69.5,147.75 40.75,146.75 32.25,135.75 27.25" fill="#000000" stroke="none" stroke-opacity="0" xmlns="http://www.w3.org/2000/svg" />
<polygon id="A3-2022" points="93 15,110.25 21,118.5 38,112.25 61,102.5 61,100 66,79.75 58,70.5 40.25,76 22.5" fill="#000000" stroke="none" stroke-opacity="0" xmlns="http://www.w3.org/2000/svg" />
<polygon id="A4-2001" points="420.25 266.25,429.25 268.25,426.75 288,412.25 291.25" fill="#000000" stroke="none" stroke-opacity="0" xmlns="http://www.w3.org/2000/svg" />
<polygon id="A4-2002" points="414 285.75,403 281.5,411.75 264,420.25 267" fill="#000000" stroke="none" stroke-opacity="0" xmlns="http://www.w3.org/2000/svg" />
<polygon id="A4-2003" points="412.25 263.5,403.25 281.5,392.25 275.25,404 258.75" fill="#000000" stroke="none" stroke-opacity="0" xmlns="http://www.w3.org/2000/svg" />
<polygon id="A4-2004" points="392.5 274.5,384.5 267.75,398 253.5,404.5 259.25" fill="#000000" stroke="none" stroke-opacity="0" xmlns="http://www.w3.org/2000/svg" />
<polygon id="A4-2005" points="370.5 249.75,387.5 241,383.5 232.25,365.25 239.5" fill="#000000" stroke="none" stroke-opacity="0" xmlns="http://www.w3.org/2000/svg" />
<polygon id="A4-2006" points="366 239.5,384.25 232.5,382 224.5,362.5 228" fill="#000000" stroke="none" stroke-opacity="0" xmlns="http://www.w3.org/2000/svg" />
<polygon id="A4-2007" points="361.75 228,381.75 224.75,380.75 216.25,360.5 215.75" fill="#000000" stroke="none" stroke-opacity="0" xmlns="http://www.w3.org/2000/svg" />
<polygon id="A4-2008" points="361 215.5,380.5 216.5,381.5 207.75,361.5 205" fill="#000000" stroke="none" stroke-opacity="0" xmlns="http://www.w3.org/2000/svg" />
<polygon id="A4-2009" points="361.25 204.5,381 208,383 199.25,364.25 192.5" fill="#000000" stroke="none" stroke-opacity="0" xmlns="http://www.w3.org/2000/svg" />
<polygon id="A4-2010" points="364.5 193,382.25 200,385.75 191,368.25 182.25" fill="#000000" stroke="none" stroke-opacity="0" xmlns="http://www.w3.org/2000/svg" />
<polygon id="A4-2011" points="371.5 175,388.5 187,396 176.75,381.25 163.5" fill="#000000" stroke="none" stroke-opacity="0" xmlns="http://www.w3.org/2000/svg" />
<polygon id="A4-2012" points="381.25 163.25,394.5 178,402.25 172,389.75 155.5" fill="#000000" stroke="none" stroke-opacity="0" xmlns="http://www.w3.org/2000/svg" />
<polygon id="A4-2013" points="389.5 155.5,401.5 173,409.5 167,399 149.25" fill="#000000" stroke="none" stroke-opacity="0" xmlns="http://www.w3.org/2000/svg" />
<polygon id="A4-2014" points="396.25 143.5,409.5 167.25,425.75 161.75,426 152,418.5 143.5,405 142.5" fill="#000000" stroke="none" stroke-opacity="0" xmlns="http://www.w3.org/2000/svg" />
<polygon id="A4-2015" points="377.25 155.5,382.75 162.5,390.25 154.75,399.5 148.75,396 142.5,373.75 142.5,381.5 150.25" fill="#000000" stroke="none" stroke-opacity="0" xmlns="http://www.w3.org/2000/svg" />
<polygon id="A4-2016" points="375.25 157.25,381.5 150.25,373.25 142.5,365.75 150.75" fill="#000000" stroke="none" stroke-opacity="0" xmlns="http://www.w3.org/2000/svg" />
<polygon id="A4-2017" points="375.25 157,369 165.25,360.25 158.25,366.5 150.25" fill="#000000" stroke="none" stroke-opacity="0" xmlns="http://www.w3.org/2000/svg" />
<polygon id="A4-2018" points="369.25 164.75,364 171.5,353.5 165.25,360.75 157.5" fill="#000000" stroke="none" stroke-opacity="0" xmlns="http://www.w3.org/2000/svg" />
<polygon id="A4-2019" points="349.75 174,359.25 178.5,356 187,346.25 183" fill="#000000" stroke="none" stroke-opacity="0" xmlns="http://www.w3.org/2000/svg" />
<polygon id="A4-2020" points="346 182.75,343.25 193.25,354.25 195.5,356.25 186" fill="#000000" stroke="none" stroke-opacity="0" xmlns="http://www.w3.org/2000/svg" />
<polygon id="A4-2021" points="342.25 193,341.75 204.25,362.25 205.75,363 197.75" fill="#000000" stroke="none" stroke-opacity="0" xmlns="http://www.w3.org/2000/svg" />
<polygon id="A4-2022" points="341.5 203,340.75 212.5,361.25 213.75,361.75 205" fill="#000000" stroke="none" stroke-opacity="0" xmlns="http://www.w3.org/2000/svg" />
<polygon id="A4-2023" points="341 212.5,340.5 221.75,360.5 221.25,361 212.25" fill="#000000" stroke="none" stroke-opacity="0" xmlns="http://www.w3.org/2000/svg" />
<polygon id="A4-2024" points="340.5 222,342.5 230.75,362 229.25,360.75 220.5" fill="#000000" stroke="none" stroke-opacity="0" xmlns="http://www.w3.org/2000/svg" />
<polygon id="A4-2025" points="343.25 230.25,343.25 236,345 241.25,364.5 235.75,361.75 228" fill="#000000" stroke="none" stroke-opacity="0" xmlns="http://www.w3.org/2000/svg" />
<polygon id="A4-2026" points="344.75 241.75,344.75 247.75,349 252,367 242.5,365 233.75" fill="#000000" stroke="none" stroke-opacity="0" xmlns="http://www.w3.org/2000/svg" />
<polygon id="A4-2027" points="348.75 251,349 255.25,353.25 259.75,370.75 249.75,366.5 240.75" fill="#000000" stroke="none" stroke-opacity="0" xmlns="http://www.w3.org/2000/svg" />
<polygon id="A4-2028" points="353.25 258.75,353.5 263,358 268,374 257,370.25 249.25" fill="#000000" stroke="none" stroke-opacity="0" xmlns="http://www.w3.org/2000/svg" />
<polygon id="A4-2029" points="371.75 268.25,378 274.25,370.25 282.75,363.5 276" fill="#000000" stroke="none" stroke-opacity="0" xmlns="http://www.w3.org/2000/svg" />
<polygon id="A4-2030" points="370.25 282.5,376.75 289.5,385.25 280.25,377.75 274" fill="#000000" stroke="none" stroke-opacity="0" xmlns="http://www.w3.org/2000/svg" />
<polygon id="A4-2031" points="384.75 280.25,392.5 285.5,386.5 295,377.5 289" fill="#000000" stroke="none" stroke-opacity="0" xmlns="http://www.w3.org/2000/svg" />
<polygon id="A4-2032" points="393.5 296.75,412.5 291,414.25 286,402.25 280.5,392.5 276,387.5 281.5,390.5 286.25,385.5 295.75" fill="#000000" stroke="none" stroke-opacity="0" xmlns="http://www.w3.org/2000/svg" />
<polygon id="A4-2033" points="377.75 309.75,387.5 305.25,402.75 301.25,412 300.75,416.25 321,413.75 330.25,404.75 340.25,391.5 338.5,384.5 330" fill="#000000" stroke="none" stroke-opacity="0" xmlns="http://www.w3.org/2000/svg" />
<polygon id="A4-2034" points="378.5 332.5,385.5 328,377.5 308.5,369 313" fill="#000000" stroke="none" stroke-opacity="0" xmlns="http://www.w3.org/2000/svg" />
<polygon id="A4-2035" points="368.75 312.25,379 332.75,370 337.25,360.75 317.25" fill="#000000" stroke="none" stroke-opacity="0" xmlns="http://www.w3.org/2000/svg" />
<polygon id="A4-2036" points="360.75 317,371 335.75,365.25 340.25,353.5 321.5" fill="#000000" stroke="none" stroke-opacity="0" xmlns="http://www.w3.org/2000/svg" />
<polygon id="A4-2037" points="353.75 321.25,366 340.25,357.75 345.25,345.25 326.75" fill="#000000" stroke="none" stroke-opacity="0" xmlns="http://www.w3.org/2000/svg" />
<polygon id="A4-2038" points="325 340.25,324 358.75,338.75 358.5,345 365,357 353.5,350.25 348,357 343,345.5 326.25,335 333.75" fill="#000000" stroke="none" stroke-opacity="0" xmlns="http://www.w3.org/2000/svg" />
<polygon id="A4-2039" points="298.25 338.5,322 340.5,323 329.75,299 328.25" fill="#000000" stroke="none" stroke-opacity="0" xmlns="http://www.w3.org/2000/svg" />
<polygon id="A4-2040" points="301.5 309.5,300.25 323,323.5 325,324.25 310.5" fill="#000000" stroke="none" stroke-opacity="0" xmlns="http://www.w3.org/2000/svg" />
<polygon id="A4-2041" points="302.5 298.25,301.25 309.75,324.25 310.75,325.25 300.5" fill="#000000" stroke="none" stroke-opacity="0" xmlns="http://www.w3.org/2000/svg" />
<polygon id="A4-2042" points="325.5 290.75,325.5 301,302.5 299,303.25 289" fill="#000000" stroke="none" stroke-opacity="0" xmlns="http://www.w3.org/2000/svg" />
<polygon id="A4-2043" points="303.75 279.5,303.75 290.5,325.5 291.25,326.25 280.75" fill="#000000" stroke="none" stroke-opacity="0" xmlns="http://www.w3.org/2000/svg" />
<polygon id="A4-2044" points="304.25 279.25,326.25 281.5,327.5 270.5,304.5 269.5" fill="#000000" stroke="none" stroke-opacity="0" xmlns="http://www.w3.org/2000/svg" />
<polygon id="A4-2045" points="304.5 269.5,327 271.25,328 260.5,306.25 259.5" fill="#000000" stroke="none" stroke-opacity="0" xmlns="http://www.w3.org/2000/svg" />
<polygon id="A4-2046" points="306 259.5,328.25 260.75,328.5 251,306 249.5" fill="#000000" stroke="none" stroke-opacity="0" xmlns="http://www.w3.org/2000/svg" />
<polygon id="A4-2047" points="306 249.75,328.75 252,328.25 242,307.75 240" fill="#000000" stroke="none" stroke-opacity="0" xmlns="http://www.w3.org/2000/svg" />
<polygon id="A4-2048" points="308 240.25,329 243,330 231.5,309 230" fill="#000000" stroke="none" stroke-opacity="0" xmlns="http://www.w3.org/2000/svg" />
<polygon id="A4-2049" points="309 230,330 232,330.5 221.5,309 219.5" fill="#000000" stroke="none" stroke-opacity="0" xmlns="http://www.w3.org/2000/svg" />
<polygon id="A4-2050" points="308.75 219.75,330.75 222,332 212.5,310.75 209.75" fill="#000000" stroke="none" stroke-opacity="0" xmlns="http://www.w3.org/2000/svg" />
<polygon id="A4-2051" points="323 181.75,334 182.25,333.25 192.75,321.75 192.5" fill="#000000" stroke="none" stroke-opacity="0" xmlns="http://www.w3.org/2000/svg" />
<polygon id="A4-2052" points="323.25 182.25,334 182.75,335.25 172.25,323.5 172.5" fill="#000000" stroke="none" stroke-opacity="0" xmlns="http://www.w3.org/2000/svg" />
<polygon id="A4-2053" points="314.25 165.75,335.5 167.5,336.25 152.75,316 151" fill="#000000" stroke="none" stroke-opacity="0" xmlns="http://www.w3.org/2000/svg" />
<polygon id="A4-2054" points="326.5 140,325.5 152.25,336.5 153,336.5 140.5" fill="#000000" stroke="none" stroke-opacity="0" xmlns="http://www.w3.org/2000/svg" />
<polygon id="A4-2055" points="316.5 139,326.75 140,325.5 152.5,316 151.5" fill="#000000" stroke="none" stroke-opacity="0" xmlns="http://www.w3.org/2000/svg" />
<polygon id="A4-2056" points="307 137.75,317.5 138.75,315.5 160.75,305 160.5" fill="#000000" stroke="none" stroke-opacity="0" xmlns="http://www.w3.org/2000/svg" />
<polygon id="A4-2057" points="297.25 137.25,307.5 138,305.25 160,295 160" fill="#000000" stroke="none" stroke-opacity="0" xmlns="http://www.w3.org/2000/svg" />
<polygon id="A4-2058" points="286 158,294.5 159.75,297.5 137.75,288 135.5" fill="#000000" stroke="none" stroke-opacity="0" xmlns="http://www.w3.org/2000/svg" />
<polygon id="A4-2059" points="278.25 135,289 135.25,286.75 158,275.25 157" fill="#000000" stroke="none" stroke-opacity="0" xmlns="http://www.w3.org/2000/svg" />
<polygon id="A4-2060" points="263.75 133.75,260.5 155.5,276 157.5,279.25 135.25,271.5 132.5" fill="#000000" stroke="none" stroke-opacity="0" xmlns="http://www.w3.org/2000/svg" />
<polygon id="A4-2061" points="247.75 142.75,258.25 144.75,260 131,249.5 130" fill="#000000" stroke="none" stroke-opacity="0" xmlns="http://www.w3.org/2000/svg" />
<polygon id="A4-2062" points="238 142,247.75 142.75,250.25 129.5,240.25 128.25" fill="#000000" stroke="none" stroke-opacity="0" xmlns="http://www.w3.org/2000/svg" />
<polygon id="A4-2063" points="231 127,227 148.5,237.75 150.5,240.25 128.25" fill="#000000" stroke="none" stroke-opacity="0" xmlns="http://www.w3.org/2000/svg" />
<polygon id="A4-2064" points="221.5 124.5,231.5 127,228 149.25,217.5 148" fill="#000000" stroke="none" stroke-opacity="0" xmlns="http://www.w3.org/2000/svg" />
<polygon id="A4-2065" points="211.5 123,221.75 124.75,217.5 147.25,207 145.25" fill="#000000" stroke="none" stroke-opacity="0" xmlns="http://www.w3.org/2000/svg" />
<polygon id="A4-2066" points="207.5 145.25,212.5 122.75,203.25 121.25,197.5 141.75" fill="#000000" stroke="none" stroke-opacity="0" xmlns="http://www.w3.org/2000/svg" />
<polygon id="A4-2067" points="198 142.25,203.5 121,194 118.75,188.25 141" fill="#000000" stroke="none" stroke-opacity="0" xmlns="http://www.w3.org/2000/svg" />
<polygon id="A4-2068" points="178.25 139,188.5 141.25,194.5 119.25,183.25 117.25" fill="#000000" stroke="none" stroke-opacity="0" xmlns="http://www.w3.org/2000/svg" />
<polygon id="A4-2069" points="183.75 117.25,178.5 139,168 136.75,174 115.25" fill="#000000" stroke="none" stroke-opacity="0" xmlns="http://www.w3.org/2000/svg" />
<polygon id="A4-2070" points="174.5 115,168.25 136.5,159.75 133.75,165 113.5" fill="#000000" stroke="none" stroke-opacity="0" xmlns="http://www.w3.org/2000/svg" />
<polygon id="A4-2071" points="149.75 131.75,159.25 134.75,165.25 112,155.75 109.25" fill="#000000" stroke="none" stroke-opacity="0" xmlns="http://www.w3.org/2000/svg" />
<polygon id="A4-2072" points="146.5 107.25,156 109.25,149.75 131.25,140 128.75" fill="#000000" stroke="none" stroke-opacity="0" xmlns="http://www.w3.org/2000/svg" />
<polygon id="A4-2073" points="146.75 106.25,140.75 129.25,125.75 125.25,131.75 103.25,139.5 103.5" fill="#000000" stroke="none" stroke-opacity="0" xmlns="http://www.w3.org/2000/svg" />
<polygon id="A4-2074" points="114.25 110.75,124.25 114.25,128.5 101.25,118.25 98.25" fill="#000000" stroke="none" stroke-opacity="0" xmlns="http://www.w3.org/2000/svg" />
<polygon id="A4-2075" points="105.25 107.5,114.25 110.75,118.25 98.75,108.5 95" fill="#000000" stroke="none" stroke-opacity="0" xmlns="http://www.w3.org/2000/svg" />
<polygon id="A4-2076" points="109.25 95,103 117.5,92.75 114.75,100.25 93.5" fill="#000000" stroke="none" stroke-opacity="0" xmlns="http://www.w3.org/2000/svg" />
<polygon id="A4-2077" points="74 108.25,93.25 114.5,100.75 93,88.75 94,78.25 100.5" fill="#000000" stroke="none" stroke-opacity="0" xmlns="http://www.w3.org/2000/svg" />
<polygon id="A4-2078" points="74.5 108,94 114.75,90.75 125.25,70.5 118" fill="#000000" stroke="none" stroke-opacity="0" xmlns="http://www.w3.org/2000/svg" />
<polygon id="A4-2079" points="70.75 118.25,67.25 127,87.75 133.75,91 124.75" fill="#000000" stroke="none" stroke-opacity="0" xmlns="http://www.w3.org/2000/svg" />
<polygon id="A4-2080" points="67.25 126.25,64.75 135.5,84.75 143,88 133.25" fill="#000000" stroke="none" stroke-opacity="0" xmlns="http://www.w3.org/2000/svg" />
<polygon id="A4-2081" points="57.75 153.5,77.75 161.25,74.5 172,53.75 162.75" fill="#000000" stroke="none" stroke-opacity="0" xmlns="http://www.w3.org/2000/svg" />
<polygon id="A4-2082" points="53.5 162.25,51.25 172.25,72 180,75.25 171.25" fill="#000000" stroke="none" stroke-opacity="0" xmlns="http://www.w3.org/2000/svg" />
<polygon id="A4-2083" points="51 172.5,48 182.5,59.75 187,63.25 176.75" fill="#000000" stroke="none" stroke-opacity="0" xmlns="http://www.w3.org/2000/svg" />
<polygon id="A4-2084" points="48 181.75,44.5 192.25,55.75 196.25,59.5 187" fill="#000000" stroke="none" stroke-opacity="0" xmlns="http://www.w3.org/2000/svg" />
<polygon id="A4-2085" points="32.25 192.25,54.25 201.25,48.25 215.5,27 207.5" fill="#000000" stroke="none" stroke-opacity="0" xmlns="http://www.w3.org/2000/svg" />
<polygon id="A4-2086" points="26 206,48.5 214.5,54 201,63.5 176,72.5 179.5,76.5 161,67 157,73 139,84.5 142.5,93.5 114.5,103.5 116.5,106 108.5,123.5 113.5,121 123,126.5 124.5,237 150.5,238.5 142,262 145.5,261 155.5,315.5 160,315 166,336 168,332 212,311.5 209.5,300 322.5,298 338,324 339.5,319.5 370.5,282 368,221 360,153.5 347.5,86.5 331,38.5 316.5,41.5 305,26 298,17.5 299.5,13 285.5,29 247.5,11.5 243,18.5 225" fill="#000000" stroke="none" stroke-opacity="0" xmlns="http://www.w3.org/2000/svg" />




</svg>
