<?xml version="1.0" encoding="UTF-8" standalone="no"?>
<!-- Created with Inkscape (http://www.inkscape.org/) -->

<svg xmlns:dc="http://purl.org/dc/elements/1.1/" xmlns:cc="http://creativecommons.org/ns#" xmlns:rdf="http://www.w3.org/1999/02/22-rdf-syntax-ns#" xmlns:svg="http://www.w3.org/2000/svg" xmlns="http://www.w3.org/2000/svg" xmlns:xlink="http://www.w3.org/1999/xlink" xmlns:sodipodi="http://sodipodi.sourceforge.net/DTD/sodipodi-0.dtd" xmlns:inkscape="http://www.inkscape.org/namespaces/inkscape" width="770" height="410" id="svg2" version="1.1" inkscape:version="0.47pre4 " sodipodi:docname="test.svg" style="display:inline">
<defs id="defs4">
<inkscape:perspective sodipodi:type="inkscape:persp3d" inkscape:vp_x="0 : 526.18109 : 1" inkscape:vp_y="0 : 1000 : 0" inkscape:vp_z="744.09448 : 526.18109 : 1" inkscape:persp3d-origin="372.04724 : 350.78739 : 1" id="perspective10" />
<inkscape:perspective id="perspective2832" inkscape:persp3d-origin="0.5 : 0.33333333 : 1" inkscape:vp_z="1 : 0.5 : 1" inkscape:vp_y="0 : 1000 : 0" inkscape:vp_x="0 : 0.5 : 1" sodipodi:type="inkscape:persp3d" />
<script type="text/ecmascript" id="script6">
		var fdat="",sdat="";
		function onAreaOver(evt){
			var ele=evt.target; 
			fdat=ele.getAttribute('fill'); 
			sdat=ele.getAttribute('stroke');
			ele.setAttribute('fill','#006fb6');//多边形填充颜色
			ele.setAttribute('stroke','#006fb6');//stroke 多边形 边框颜色
			
		}
		function onAreaOut(evt){
			var ele=evt.target; 
			ele.setAttribute('fill',fdat);
			ele.setAttribute('stroke',sdat);
		}
		</script>
<symbol overflow="visible" id="symbol" style="overflow:visible" xmlns="http://www.w3.org/2000/svg">
<path d="m 626,156 2,-2 2,-4 0,-3 -1,-3 -4,-3 -6,-3 -5,-2 -4,-2 -4,8 -6,14" id="path9" style="fill:#000000;stroke:none" />
</symbol>
</defs>
<sodipodi:namedview id="base" pagecolor="#ffffff" bordercolor="#666666" borderopacity="1.0" inkscape:pageopacity="0.0" inkscape:pageshadow="2" inkscape:zoom="5.6" inkscape:cx="583.1007" inkscape:cy="273.63795" inkscape:document-units="px" inkscape:current-layer="svg2" showgrid="false" inkscape:window-width="1280" inkscape:window-height="740" inkscape:window-x="-4" inkscape:window-y="-4" inkscape:window-maximized="1" />
<metadata id="metadata7">
<rdf:RDF>
<cc:Work>
<dc:format>
image/svg+xml</dc:format>
<dc:type rdf:resource="http://purl.org/dc/dcmitype/StillImage" />
<dc:title>
</dc:title>
</cc:Work>
</rdf:RDF>
</metadata>
<image xlink:href="wangzhuang_mall_4f.png" width="770" height="410" id="image2834" x="-485" y="255.93361" transform="translate(485,-255.9336)" inkscape:label="Layer 1" inkscape:groupmode="layer" style="display:inline" />
<polygon id="4024" points="11.25 242.5,46.75 242.5,46.75 223.75,84.5 223.75,84.5 315,85.75 319.5,89.75 322,101.75 322.5,101.75 351.5,84.25 352,79 356.5,65.5 343,70.25 338.5,42.25 310.25,37.75 314.5,24.25 302,29 298,29 260.5,11 260.5" fill="#000000" stroke="none" stroke-opacity="0" />
<polygon id="4023" points="108.5 322,143.75 322,143.5 328.5,148.75 329,149 347.5,155.75 347.5,155.75 351.75,102 351.75,102 343,119.25 343,119.25 333.75,108.5 333.75" fill="#000000" stroke="none" stroke-opacity="0" />
<polygon id="4022" points="155.75 322.75,155.75 352,227.75 352,227.75 322.75" fill="#000000" stroke="none" stroke-opacity="0" />
<polygon id="4021" points="246.75 322,255.75 322,255.75 327.25,255.75 352,230.75 352.25,230.75 347.75,237 347.75,237 329.75,247 329.75" fill="#000000" stroke="none" stroke-opacity="0" />
<polygon id="4020" points="256 351.75,265.5 351.75,265.5 322,256 322" fill="#000000" stroke="none" stroke-opacity="0" />
<polygon id="4019" points="265.5 321.75,271 321.5,274.75 321.5,274.75 351.25,265.75 351" fill="#000000" stroke="none" stroke-opacity="0" />
<polygon id="4018" points="275.25 321.75,284 321.75,284 351.5,274.75 351.5" fill="#000000" stroke="none" stroke-opacity="0" />
<polygon id="4017" points="284.25 322,302.75 322,302.75 345.5,319.75 345.5,319.75 357.75,312 357.75,312 351.5,284.25 351.5" fill="#000000" stroke="none" stroke-opacity="0" />
<polygon id="4016" points="310 322,320 322,320 333.5,310 333.5" fill="#000000" stroke="none" stroke-opacity="0" />
<polygon id="4015" points="320 322.25,338.5 322.25,338.5 351.5,333.5 352,333.25 357.5,319.75 357.5" fill="#000000" stroke="none" stroke-opacity="0" />
<polygon id="4014" points="338.5 322,357.25 322,357.25 345,338.25 345.25" fill="#000000" stroke="none" stroke-opacity="0" />
<polygon id="4013" points="357 321.75,374.25 321.5,374.75 345,356.75 345" fill="#000000" stroke="none" stroke-opacity="0" />
<polygon id="4012" points="374.5 323,392.75 323,392.75 345.25,374.5 345.25" fill="#000000" stroke="none" stroke-opacity="0" />
<polygon id="4011" points="392.75 323,429 323,429 345,392.75 345" fill="#000000" stroke="none" stroke-opacity="0" />
<polygon id="4010" points="429.25 322.25,447.5 322.25,447.5 357.75,433.75 358,433.75 352.25,429.25 352" fill="#000000" stroke="none" stroke-opacity="0" />
<polygon id="4009" points="447.5 322.25,457.25 322.25,457.25 333.75,447.5 333.75" fill="#000000" stroke="none" stroke-opacity="0" />
<polygon id="4008" points="464.5 322.25,484 322.25,484 351.25,456.25 351.25,456.25 358,447.5 358,447.5 344.5,464.25 344.75" fill="#000000" stroke="none" stroke-opacity="0" />
<polygon id="4007" points="483.75 322.25,492.5 322.25,492.5 351,483.5 351" fill="#000000" stroke="none" stroke-opacity="0" />
<polygon id="4006" points="492.75 322.25,492.75 351,501.75 351,502 322.25,497 322.25" fill="#000000" stroke="none" stroke-opacity="0" />
<polygon id="4005" points="501.75 322.25,501.75 351,511.5 351.5,511.5 322.25" fill="#000000" stroke="none" stroke-opacity="0" />
<polygon id="4004" points="511.25 322.25,521 322.25,521 330.5,530 330.5,530 348,538.5 348.25,538.25 351.75,511 351.75" fill="#000000" stroke="none" stroke-opacity="0" />
<polygon id="4003" points="556.5 321.75,556.5 329.75,575.25 329.75,575.25 322.5,611 322.5,611 351.75,539 351.75,539 321.5" fill="#000000" stroke="none" stroke-opacity="0" />
<polygon id="4002" points="611.25 343.5,617.75 343.5,618 330.25,628.75 330.25,629 322.25,659.75 322.25,659.75 332.75,647.25 332.75,647.25 343,664.25 343,664.25 351.5,611.25 351.5" fill="#000000" stroke="none" stroke-opacity="0" />
<polygon id="4001" points="664.5 351.25,664.5 297.25,683 297.25,683 212,701.5 212,701.5 170.25,710.75 170.25,710.75 122.25,756.25 122.25,756.25 261.25,737.75 261.25,737.75 297.25,743 302.5,729.25 316,724.75 311.5,696.75 339.25,701.5 344,687.75 357.5,681.75 351.5" fill="#000000" stroke="none" stroke-opacity="0" />
<polygon id="4204" points="664.5 297,683.75 297,683.75 287.5,664.5 287.5" fill="#000000" stroke="none" stroke-opacity="0" />
<polygon id="4205" points="664.75 287.5,683.25 287.5,683.25 278.75,664.75 278.75" fill="#000000" stroke="none" stroke-opacity="0" />
<polygon id="4206" points="665 278.75,683.5 278.75,683.5 269.5,664.75 269.5" fill="#000000" stroke="none" stroke-opacity="0" />
<polygon id="4207" points="665.25 269.5,683.25 269.5,683.25 260.5,664.75 260.5" fill="#000000" stroke="none" stroke-opacity="0" />
<polygon id="4208" points="664.5 260.75,683 260.75,683 251.5,664.5 251.5" fill="#000000" stroke="none" stroke-opacity="0" />
<polygon id="4209" points="664.25 251.25,683.5 251.25,683.5 242.75,664.25 242.75" fill="#000000" stroke="none" stroke-opacity="0" />
<polygon id="4111" points="237.75 133.5,246.75 133.75,246.75 152.25,238 152.25" fill="#000000" stroke="none" stroke-opacity="0" transform="matrix(0.9999999,0,0,0.9999999,-0.6410442,-0.3205575)" />
<polygon id="4110" points="228.25 156.75,246 156.75,246 170.3526,237.75 170.5,228.25 170.5" fill="#000000" stroke="none" stroke-opacity="0" transform="matrix(0.9999999,0,0,0.9999999,0.1602595,-6.035916E-06)" />
<polygon id="4109" points="228.5898 187.6795,246.6026 187.8398,246.4487 196.5,246.4487 207,228.5 207" fill="#000000" stroke="none" stroke-opacity="0" />
<polygon id="4108" points="237.75 207.25,246.75 207.25,246.75 215.75,237.75 215.75" fill="#000000" stroke="none" stroke-opacity="0" transform="matrix(0.9999999,0,0,0.9999999,-1.102686E-06,-0.160265)" />
<polygon id="4107" points="247 225,247 243.75,238 243.75,238 225" fill="#000000" stroke="none" stroke-opacity="0" />
<polygon id="4106" points="238 225.25,238 244,229 244,229 225" fill="#000000" stroke="none" stroke-opacity="0" />
<polygon id="4105" points="222.75 224,222.75 244.25,211.25 244.25,211.25 223.75" fill="#000000" stroke="none" stroke-opacity="0" />
<polygon id="4104" points="211.3397 224.141,211.5 243.75,202 243.75,202 224.1602" fill="#000000" stroke="none" stroke-opacity="0" />
<polygon id="4103" points="202.25 224,202.25 243.75,192.5 243.75,192.5 223.75" fill="#000000" stroke="none" stroke-opacity="0" />
<polygon id="4102" points="192.75 224.25,192.75 243.5,183.25 243.5,183.25 224" fill="#000000" stroke="none" stroke-opacity="0" />
<polygon id="4101" points="183.4102 224.25,183.25 243.5,174.5 243.5,174.3397 224.1795" fill="#000000" stroke="none" stroke-opacity="0" />
<polygon id="4098" points="156.25 224,156.25 243.75,146.75 243.75,146.75 223.75" fill="#000000" stroke="none" stroke-opacity="0" />
<polygon id="4097" points="147 224,147 243.5,137.5 243.5,137.5 224" fill="#000000" stroke="none" stroke-opacity="0" />
<polygon id="4096" points="137.5 224.25,137.5 243.25,128.75 243.25,128.5898 224.1795" fill="#000000" stroke="none" stroke-opacity="0" />
<polygon id="4095" points="128.5897 224.25,128.75 243.5,119.6795 243.1795,119.8398 224.0193" fill="#000000" stroke="none" stroke-opacity="0" />
<polygon id="4094" points="120 224,120 243.25,111 243.25,111 224" fill="#000000" stroke="none" stroke-opacity="0" />
<polygon id="4093" points="111.25 224.25,111.25 243.25,100.75 243.25,100.75 224.2692" fill="#000000" stroke="none" stroke-opacity="0" />
<polygon id="4092" points="100.75 256.25,111.25 256.25,111.25 272.25,100.75 272.25" fill="#000000" stroke="none" stroke-opacity="0" />
<polygon id="4091" points="111.5 256.5,111.5 272,120 272,120 256.25" fill="#000000" stroke="none" stroke-opacity="0" transform="matrix(0.9999999,0,0,0.9999999,-0.160257,-0.1602818)" />
<polygon id="4090" points="120 256.5,120 271.5,132.25 271.5,132.25 256.5" fill="#000000" stroke="none" stroke-opacity="0" />
<polygon id="4089" points="132.5 256.5,148.75 256.5,148.75 267.75,132.25 267.75" fill="#000000" stroke="none" stroke-opacity="0" />
<polygon id="4088" points="156 255.75,165.75 255.75,165.75 272.25,156 272.25" fill="#000000" stroke="none" stroke-opacity="0" />
<polygon id="4087" points="165.75 256.25,175 256.25,175 272,165.75 272" fill="#000000" stroke="none" stroke-opacity="0" />
<polygon id="4086" points="174.75 256.25,184 256.25,184 272.25,175 272.25" fill="#000000" stroke="none" stroke-opacity="0" />
<polygon id="4085" points="184 256,184 272,193.5 272,193.5 256.25" fill="#000000" stroke="none" stroke-opacity="0" />
<polygon id="4084" points="193.109 256.75,202.25 256.75,202.25 267,193.25 267" fill="#000000" stroke="none" stroke-opacity="0" />
<polygon id="4083" points="202.25 256.75,210.75 256.75,210.75 270.25,201.75 270.25" fill="#000000" stroke="none" stroke-opacity="0" />
<polygon id="4082" points="210.75 256.75,210.75 270,220 270,220 256.75" fill="#000000" stroke="none" stroke-opacity="0" />
<polygon id="4081" points="219.9295 256.8397,219.9295 270.0705,229.25 270.2308,229.25 257" fill="#000000" stroke="none" stroke-opacity="0" />
<polygon id="4080" points="229 256.5,229 272.25,239.25 272.25,239.25 256.5" fill="#000000" stroke="none" stroke-opacity="0" />
<polygon id="4025" points="100.75 272,111.5 272,111.5 289,101 289" fill="#000000" stroke="none" stroke-opacity="0" />
<polygon id="4026" points="111.5 271.75,120.25 271.75,120.4102 289.25,111.2692 289.0898" fill="#000000" stroke="none" stroke-opacity="0" />
<polygon id="4027" points="119.75 271.5,132.5 271.5,132.5 288.75,120 288.75" fill="#000000" stroke="none" stroke-opacity="0" />
<polygon id="4028" points="142 279.5,156.25 279.5,156.25 289,141.75 289" fill="#000000" stroke="none" stroke-opacity="0" />
<polygon id="4029" points="156.25 272.25,156.25 288.5,165.5 288.5,165.5 272" fill="#000000" stroke="none" stroke-opacity="0" />
<polygon id="4030" points="165.25 272.1602,175.0192 272.1602,175.0192 288.3398,165 288.5" fill="#000000" stroke="none" stroke-opacity="0" />
<polygon id="4031" points="174.7885 272.1602,184.25 272,184.25 288.5,174.609 288.1795" fill="#000000" stroke="none" stroke-opacity="0" />
<polygon id="4032" points="183.859 271.9102,193.75 271.75,193.75 288.5,184 288.5" fill="#000000" stroke="none" stroke-opacity="0" />
<polygon id="4033" points="193.5192 271.6602,202.5 271.5,202.5 288.5,193.75 288.5" fill="#000000" stroke="none" stroke-opacity="0" />
<polygon id="4034" points="202.5 270.25,202.4295 288,211.75 288,211.25 270.25" fill="#000000" stroke="none" stroke-opacity="0" />
<polygon id="4035" points="211.25 270,211.75 288,220.25 287.75,220.25 270" fill="#000000" stroke="none" stroke-opacity="0" />
<polygon id="4036" points="220 270,229.5705 270,229.891 287.5898,220.25 287.75" fill="#000000" stroke="none" stroke-opacity="0" />
<polygon id="4037" points="229.5 271.75,239 271.75,238.8205 287.6602,229.5705 287.25" fill="#000000" stroke="none" stroke-opacity="0" />
<polygon id="4180" points="264.5 78.25,273 78.25,272.8397 102.5,284 102.5,284 107,264.0898 106.8397,264 100.5" fill="#000000" stroke="none" stroke-opacity="0" />
<polygon id="4179" points="302.3205 78.83974,311.5 79,311.5 106.4103,302.5 106.25" fill="#000000" stroke="none" stroke-opacity="0" />
<polygon id="4178" points="311.5 79.25,320.25 79.25,320.25 106,311.5 106" fill="#000000" stroke="none" stroke-opacity="0" />
<polygon id="4177" points="320 79.25,329.25 79.25,329.25 106,320.25 106" fill="#000000" stroke="none" stroke-opacity="0" />
<polygon id="4176" points="329.0193 79.26923,338.1794 79.10898,338.3398 106.391,329.1602 106.391" fill="#000000" stroke="none" stroke-opacity="0" transform="matrix(0.9999999,0,0,0.9999999,0.1602566,-2.324581E-06)" />
<polygon id="4175" points="338.2692 79.26923,346.9295 79.26923,346.9295 106.3205,338.25 106.4808" fill="#000000" stroke="none" stroke-opacity="0" />
<polygon id="4174" points="346.6987 78.94872,355.9487 78.94872,355.9487 106.1603,346.7692 106" fill="#000000" stroke="none" stroke-opacity="0" />
<polygon id="4173B" points="355.7692 78.84615,374.1987 78.68589,374.0385 106.0897,355.7692 105.9295" fill="#000000" stroke="none" stroke-opacity="0" />
<polygon id="4173A" points="374.2308 79.28846,410.75 79.44872,411.0705 106.6218,374.2115 106.6218" fill="#000000" stroke="none" stroke-opacity="0" />
<polygon id="4172" points="410.8205 79.21795,419.5385 79.3782,419.859 106.391,410.6602 106.5513" fill="#000000" stroke="none" stroke-opacity="0" transform="matrix(0.9999999,0,0,0.9999999,0.1602329,-7.241964E-06)" />
<polygon id="4171" points="419.859 78.89744,428.7885 79.05769,428.6282 106.5513,419.8397 106.5513" fill="#000000" stroke="none" stroke-opacity="0" />
<polygon id="4170" points="428.8782 78.89744,438.109 79.05769,438.109 106.391,428.7885 106.0705" fill="#000000" stroke="none" stroke-opacity="0" />
<polygon id="4169" points="438.2692 78.91667,447.109 79.07693,447.1089 106.2115,438.1987 106.2115" fill="#000000" stroke="none" stroke-opacity="0" />
<polygon id="4168" points="447.109 78.98718,455.9487 78.98718,455.9487 106.2821,447.0897 106.2821" fill="#000000" stroke="none" stroke-opacity="0" />
<polygon id="4167" points="455.7885 78.91666,464.4872 78.75641,464.6474 106.3718,455.859 106.3718" fill="#000000" stroke="none" stroke-opacity="0" />
<polygon id="4166" points="494.25 78.5,503 78.5,503.1602 106.5385,483.2501 106.5577,483.3397 102.6795,494.25 102.5" fill="#000000" stroke="none" stroke-opacity="0" />
<polygon id="4115" points="271.1282 114.5,293.25 114.5,293.25 124.75,271.25 124.75" fill="#000000" stroke="none" stroke-opacity="0" />
<polygon id="4116" points="270.8589 124.4294,293.25 124.75,293.25 133.5,271 133.5" fill="#000000" stroke="none" stroke-opacity="0" />
<polygon id="4117" points="270.7692 133,293 133,293 142.75,271 142.75" fill="#000000" stroke="none" stroke-opacity="0" />
<polygon id="4118" points="271 142.5,293 142.5,293 151.75,271.0898 151.9102" fill="#000000" stroke="none" stroke-opacity="0" />
<polygon id="4119" points="271.0192 151.4295,292.75 151.75,292.75 170.25,274.641 170.25,270.9487 170.2372" fill="#000000" stroke="none" stroke-opacity="0" />
<polygon id="4120" points="275.6603 184.6602,292.75 184.5,292.75 197.75,270.25 197.9103,270.0898 184.6859" fill="#000000" stroke="none" stroke-opacity="0" />
<polygon id="4121" points="270.2692 197.75,292.5 197.75,292.5 206.75,270.4295 207.0705" fill="#000000" stroke="none" stroke-opacity="0" />
<polygon id="4122" points="270.7692 206.5705,290.5 206.5705,290.5 215.5,270.609 215.3397" fill="#000000" stroke="none" stroke-opacity="0" />
<polygon id="4123" points="270.609 215.2692,290.5 215.2692,290.5 224.5,271 224.5" fill="#000000" stroke="none" stroke-opacity="0" />
<polygon id="4124" points="271.25 224.25,293.25 224.25,293.25 234.25,271 234.25" fill="#000000" stroke="none" stroke-opacity="0" />
<polygon id="4125" points="271.25 234,293.25 234,293.25 244.5,271.25 244.5" fill="#000000" stroke="none" stroke-opacity="0" />
<polygon id="4126" points="293.25 233.5192,311.0898 233.5192,311.25 244,293.25 244" fill="#000000" stroke="none" stroke-opacity="0" transform="matrix(0.9999999,0,0,0.9999999,-2.317188E-05,0.3205101)" />
<polygon id="4127" points="293.25 233.75,311.25 233.75,311.25 224.4295,293.25 224.4295" fill="#000000" stroke="none" stroke-opacity="0" />
<polygon id="4128" points="311.0706 216.6089,311.0705 224.4102,301.75 224.25,301.75 216.75" fill="#000000" stroke="none" stroke-opacity="0" />
<polygon id="4129" points="292.5 206.8205,311 206.5,311 197,292.5 197" fill="#000000" stroke="none" stroke-opacity="0" />
<polygon id="4130" points="292.5 197,311 197,311 184.5,292.75 184.5" fill="#000000" stroke="none" stroke-opacity="0" />
<polygon id="4131" points="298.25 171,311 171,311 161.25,298 161.25" fill="#000000" stroke="none" stroke-opacity="0" />
<polygon id="4132" points="292.75 161,311.25 161,311.25 151.5,293 151.5" fill="#000000" stroke="none" stroke-opacity="0" />
<polygon id="4133" points="293 151.5,293 142.5,311.25 142.5,311.25 151.5" fill="#000000" stroke="none" stroke-opacity="0" />
<polygon id="4134" points="293 142.5,311.25 142.5,311.25 133.25,293 133.25" fill="#000000" stroke="none" stroke-opacity="0" />
<polygon id="4135" points="293.25 133,311 133,311 124.25,293.25 124.25" fill="#000000" stroke="none" stroke-opacity="0" transform="matrix(0.9999999,0,0,0.9999999,-2.317188E-05,0.3205027)" />
<polygon id="4136" points="293.25 124.75,311 124.5,311 114,293.25 114" fill="#000000" stroke="none" stroke-opacity="0" />
<polygon id="4079" points="274.75 252.75,284 252.75,284 270,274.75 270" fill="#000000" stroke="none" stroke-opacity="0" />
<polygon id="4078" points="284 252.8397,293.25 252.8397,293.25 269.75,284 269.75" fill="#000000" stroke="none" stroke-opacity="0" />
<polygon id="4077" points="293 252.75,302.25 252.75,302.25 269.75,293 269.75" fill="#000000" stroke="none" stroke-opacity="0" />
<polygon id="4076" points="302.25 252.75,311.5 252.75,311.5 270.25,302 270.25" fill="#000000" stroke="none" stroke-opacity="0" />
<polygon id="4075" points="311.75 253,320.25 253,320.25 270,311.75 270" fill="#000000" stroke="none" stroke-opacity="0" transform="matrix(0.9999999,0,0,0.9999999,-0.3205427,-2.533417E-05)" />
<polygon id="4074" points="320.0898 253,329.25 253,329.25 267.25,319.8398 267.25" fill="#000000" stroke="none" stroke-opacity="0" />
<polygon id="4073" points="329.1795 253.25,338.25 253.25,338.25 270.4615,330.218 270.4615,330.2885 266.9294,329.0193 266.7692" fill="#000000" stroke="none" stroke-opacity="0" />
<polygon id="4072" points="338 253.5,347.25 253.5,347.25 270,338.25 270" fill="#000000" stroke="none" stroke-opacity="0" />
<polygon id="4071" points="347.5 253,356.25 253.25,356.25 269.75,347.5 269.5" fill="#000000" stroke="none" stroke-opacity="0" transform="matrix(0.9999999,0,0,0.9999999,-0.5000046,0.3205119)" xmlns="http://www.w3.org/2000/svg" />
<polygon id="4047" points="365.5 269.875,376.5 270,376.6602 288.641,365.6602 288.8013" fill="#000000" stroke="none" stroke-opacity="0" transform="matrix(0.9999999,0,0,0.9999999,-5.359821E-06,-0.3205311)" xmlns="http://www.w3.org/2000/svg" />
<polygon id="4046" points="366 269.5,366 288.5705,355.75 288.5705,355.75 269.25" fill="#000000" stroke="none" stroke-opacity="0" />
<polygon id="4045" points="355.75 269.75,355.75 288.6411,346.75 288.4808,346.75 269.5" fill="#000000" stroke="none" stroke-opacity="0" />
<polygon id="4044" points="346.75 270,346.9103 288.391,338 288.391,338 270" fill="#000000" stroke="none" stroke-opacity="0" />
<polygon id="4043" points="320.25 278.75,333 278.75,333 288.75,320 288.75" fill="#000000" stroke="none" stroke-opacity="0" />
<polygon id="4042" points="311 270.1795,320.0898 270.0193,320.25 288.5,311.25 288.5" fill="#000000" stroke="none" stroke-opacity="0" />
<polygon id="4041" points="301.75 270,311 270,311.1603 288.1602,301.7692 288" fill="#000000" stroke="none" stroke-opacity="0" />
<polygon id="4040" points="293.25 269.5,301.75 269.5,301.9103 288.141,293 287.75" fill="#000000" stroke="none" stroke-opacity="0" />
<polygon id="4039" points="284 269.5,293.25 269.5,293.4102 288.2308,284.0897 287.9102" fill="#000000" stroke="none" stroke-opacity="0" />
<polygon id="4038" points="275 269.75,284.25 269.75,284.25 288.25,274.75 288.25" fill="#000000" stroke="none" stroke-opacity="0" />
<polygon id="4137" points="456.5 114,475 114,475 124.5,456.75 124.5" fill="#000000" stroke="none" stroke-opacity="0" />
<polygon id="4138" points="456.75 124.25,474.75 124.25,474.75 134,456.75 134" fill="#000000" stroke="none" stroke-opacity="0" />
<polygon id="4139" points="456.6602 133.75,475 133.75,475 143.25,456.6602 143.25" fill="#000000" stroke="none" stroke-opacity="0" />
<polygon id="4140" points="456.75 143,474.6603 143,474.6603 152.75,456.75 152.75" fill="#000000" stroke="none" stroke-opacity="0" />
<polygon id="4141" points="457 152.25,474.4102 152.25,474.5705 161.75,456.75 161.75" fill="#000000" stroke="none" stroke-opacity="0" />
<polygon id="4142" points="456.6795 161.7499,468.8077 161.5898,468.968 170.0769,456.75 170.0769" fill="#000000" stroke="none" stroke-opacity="0" />
<polygon id="4143" points="456.5 184.75,475 184.75,475 197.75,456.5 197.75" fill="#000000" stroke="none" stroke-opacity="0" />
<polygon id="4144" points="456.5 197.5,474.5 197.5,474.5 206.5,456.75 206.5" fill="#000000" stroke="none" stroke-opacity="0" />
<polygon id="4145" points="455.8782 217,465.4487 216.6795,465.4487 225.8397,455.9487 226" fill="#000000" stroke="none" stroke-opacity="0" />
<polygon id="4146" points="456.0385 225.75,475 225.75,475 234,456.2692 234" fill="#000000" stroke="none" stroke-opacity="0" />
<polygon id="4147" points="456.0385 233.9103,475 233.75,475 243.75,456.2885 243.9103" fill="#000000" stroke="none" stroke-opacity="0" />
<polygon id="4148" points="475 243.5,496.75 243.5,496.75 233.75,475 233.75" fill="#000000" stroke="none" stroke-opacity="0" />
<polygon id="4149" points="475.0898 233.8205,496.9103 233.8205,496.75 225.25,475 225.25" fill="#000000" stroke="none" stroke-opacity="0" />
<polygon id="4150" points="477 225.5,477 215.5,496.75 215.5,496.75 225.5" fill="#000000" stroke="none" stroke-opacity="0" />
<polygon id="4151" points="477 215.5,497 215.5,497 206.5,476.75 206.5" fill="#000000" stroke="none" stroke-opacity="0" />
<polygon id="4152" points="474.75 206.7308,496.75 206.7308,496.75 197,474.5 197" fill="#000000" stroke="none" stroke-opacity="0" />
<polygon id="4153" points="475 197.0705,496.2692 196.9103,495.8589 184.5192,474.9102 184.7692" fill="#000000" stroke="none" stroke-opacity="0" />
<polygon id="4154" points="474.5192 170.4487,495.9038 170.4487,495.968 152.0898,474.2692 152.25" fill="#000000" stroke="none" stroke-opacity="0" />
<polygon id="4155" points="474.5193 152.5705,495.968 152.5705,495.968 142.1795,474.4295 142.5" fill="#000000" stroke="none" stroke-opacity="0" />
<polygon id="4156" points="474.75 142.75,495.8781 142.75,495.8782 133.25,474.75 133.25" fill="#000000" stroke="none" stroke-opacity="0" />
<polygon id="4157" points="474.5193 133.1602,495.9679 133.3206,496.1282 124.4103,474.5193 124.4102" fill="#000000" stroke="none" stroke-opacity="0" />
<polygon id="4158" points="475 124.5513,496.1281 124.8717,496.3333 113.8397,475 114" fill="#000000" stroke="none" stroke-opacity="0" />
<polygon id="4066" points="411 253,420 253,420 269,410.5 269" fill="#000000" stroke="none" stroke-opacity="0" />
<polygon id="4065" points="419.75 253,419.75 269.75,429 269.75,429 253" fill="#000000" stroke="none" stroke-opacity="0" />
<polygon id="4064" points="429 252.75,429 269.75,438.75 269.75,438.75 253" fill="#000000" stroke="none" stroke-opacity="0" />
<polygon id="4063" points="439 252.75,448.25 252.75,448.25 269.75,438.5 269.75" fill="#000000" stroke="none" stroke-opacity="0" />
<polygon id="4062" points="448.5 253,457.25 253,457.25 270,448.5 270" fill="#000000" stroke="none" stroke-opacity="0" />
<polygon id="4061" points="457.5 253.25,466.5 253.25,466.5 270.25,457.25 270.25" fill="#000000" stroke="none" stroke-opacity="0" />
<polygon id="4060" points="466.75 253.5,475.25 253.5,475.25 270.25,466.5 270.25" fill="#000000" stroke="none" stroke-opacity="0" />
<polygon id="4059" points="475.25 253.5,484 253.5,484 270.25,475.25 270.25" fill="#000000" stroke="none" stroke-opacity="0" />
<polygon id="4058" points="484.25 253.75,493 253.75,493 270,484.25 270" fill="#000000" stroke="none" stroke-opacity="0" />
<polygon id="4048" points="392 269,401 269,401 287.5,392 287.5" fill="#000000" stroke="none" stroke-opacity="0" />
<polygon id="4049" points="401.5 269.25,411 269.25,411 288.25,401.25 288.25" fill="#000000" stroke="none" stroke-opacity="0" />
<polygon id="4050" points="411.25 269.1795,420.25 269.5,420.25 288.5,410.75 288.5" fill="#000000" stroke="none" stroke-opacity="0" xmlns="http://www.w3.org/2000/svg" />
<polygon id="4051" points="420.25 269.5,429 269.5,429 288.25,420.25 288.25" fill="#000000" stroke="none" stroke-opacity="0" />
<polygon id="4052" points="434.609 278.6795,447 279,447 288,434.75 288" fill="#000000" stroke="none" stroke-opacity="0" xmlns="http://www.w3.org/2000/svg" />
<polygon id="4053" points="447 270,447 287.75,457 287.75,457 269.75" fill="#000000" stroke="none" stroke-opacity="0" />
<polygon id="4054" points="457.25 270,457.25 287.5,466.25 287.5,466.25 270.5" fill="#000000" stroke="none" stroke-opacity="0" />
<polygon id="4055" points="466.5 270.25,475.25 270.25,475.25 287.5,466.5 287.5" fill="#000000" stroke="none" stroke-opacity="0" />
<polygon id="4056" points="475.25 270.5,484 270.5,484 287.5,475 287.5" fill="#000000" stroke="none" stroke-opacity="0" />
<polygon id="4057" points="483.75 270.25,493.25 270.25,493.25 287.5,484 287.5" fill="#000000" stroke="none" stroke-opacity="0" />
<polygon id="4203" points="528.75 257,538.25 257,538.25 271.75,529 271.75" fill="#000000" stroke="none" stroke-opacity="0" />
<polygon id="4202" points="538.25 257,547.25 257,547.25 271.5,538.25 271.5" fill="#000000" stroke="none" stroke-opacity="0" />
<polygon id="4201" points="547.5 257,556.25 257,556.25 272,547.25 272" fill="#000000" stroke="none" stroke-opacity="0" />
<polygon id="4200" points="556.5 256,556.5 274,565.25 274,565.25 255.75" fill="#000000" stroke="none" stroke-opacity="0" />
<polygon id="4199" points="565.25 255.75,575 255.75,575 273.75,565.25 273.75" fill="#000000" stroke="none" stroke-opacity="0" />
<polygon id="4198" points="574.75 255.75,583.5 255.75,583.5 267.75,574.75 267.75" fill="#000000" stroke="none" stroke-opacity="0" />
<polygon id="4197" points="583.75 255.75,583.75 267.5,593 267.5,593 256" fill="#000000" stroke="none" stroke-opacity="0" />
<polygon id="4196" points="593 256,611.25 256,611.25 272.25,598.8398 272.0898,598.75 267.25,593 267.5" fill="#000000" stroke="none" stroke-opacity="0" />
<polygon id="4195" points="611.3397 255.8397,620.7308 256,620.7308 272.4102,611.25 272.25" fill="#000000" stroke="none" stroke-opacity="0" />
<polygon id="4194" points="620.5 256,629.75 256,629.75 272.25,620.6411 272.4102" fill="#000000" stroke="none" stroke-opacity="0" />
<polygon id="4193" points="629.75 256.25,638.5 256.25,638.5 272.25,629.5 272.25" fill="#000000" stroke="none" stroke-opacity="0" />
<polygon id="4192" points="638.5 256.25,649 256.25,649 272,638.5 272.0898" fill="#000000" stroke="none" stroke-opacity="0" />
<polygon id="4191" points="648.75 272,648.75 288.5705,637.75 288.5705,637.75 271.75" fill="#000000" stroke="none" stroke-opacity="0" />
<polygon id="4190" points="628.75 272,637.75 272,637.75 288.5513,628.5192 288.5513" fill="#000000" stroke="none" stroke-opacity="0" />
<polygon id="4189" points="619.75 272.25,629 272.25,629 288.5513,619.6795 288.5513" fill="#000000" stroke="none" stroke-opacity="0" />
<polygon id="4188" points="611.25 272.25,620 272.25,619.9999 288.5513,611.1794 288.5514" fill="#000000" stroke="none" stroke-opacity="0" />
<polygon id="4187" points="599 272,611.25 272,611.25 288.6411,599 288.641" fill="#000000" stroke="none" stroke-opacity="0" />
<polygon id="4186" points="581 281,589.5 281,589.5 288.5,581 288.5" fill="#000000" stroke="none" stroke-opacity="0" />
<polygon id="4185" points="565.25 273.75,575.25 273.75,575.25 288.5,565.3205 288.5" fill="#000000" stroke="none" stroke-opacity="0" />
<polygon id="4184" points="556.4295 273.9102,565.5 273.75,565.5 288.5,556.5 288.5" fill="#000000" stroke="none" stroke-opacity="0" />
<polygon id="4183" points="547.2692 272,556.5 272,556.5 288.25,547.5 288.25" fill="#000000" stroke="none" stroke-opacity="0" />
<polygon id="4182" points="538 271.5,547.5 271.5,547.5 288.25,538 288.25" fill="#000000" stroke="none" stroke-opacity="0" />
<polygon id="4181" points="529.0192 271.5,538.25 271.5,538.25 288,529.2692 288" fill="#000000" stroke="none" stroke-opacity="0" />
<polygon id="4211" points="620.3141 214.8141,620.3141 243.9103,610.7244 243.75,610.8846 214.7436" fill="#000000" stroke="none" stroke-opacity="0" />
<polygon id="4212" points="609.7629 214.9038,609.6025 244.0705,596.3461 244.2308,596.3462 214.9039" fill="#000000" stroke="none" stroke-opacity="0" transform="matrix(0.9999999,0,0,0.9999999,1.121718,-4.784489E-05)" />
<polygon id="4213" points="583.4295 213.9423,597.468 213.9423,597.468 243.25,583.75 243.25" fill="#000000" stroke="none" stroke-opacity="0" transform="matrix(0.9999999,0,0,0.9999999,-0.0001089683,0.8012365)" />
<polygon id="4214" points="574.25 213.5321,583.4295 213.3718,583.75 242.75,574.25 242.75" fill="#000000" stroke="none" stroke-opacity="0" transform="matrix(0.9999999,0,0,0.9999999,-0.0002046658,1.281992)" />
<polygon id="4215" points="565.25 213.5705,574.0897 213.5705,574.25 242.75,565.25 242.75" fill="#000000" stroke="none" stroke-opacity="0" transform="matrix(0.9999999,0,0,0.9999999,0.1600749,1.281994)" />
<polygon id="4216" points="556.0001 225.1282,565.4102 225.1282,565.4102 244.0321,556.25 244.0321" fill="#000000" stroke="none" stroke-opacity="0" />
<polygon id="4217" points="547.1795 224.8782,556.5 224.8782,556.3397 244.2628,547.5 244.2628" fill="#000000" stroke="none" stroke-opacity="0" />
<polygon id="4218" points="538.25 224.9295,547.3397 224.7692,547.5 244.3205,538.25 244.3205" fill="#000000" stroke="none" stroke-opacity="0" />
<polygon id="4219" points="520.5 234.25,538.25 234.25,538.25 244.25,520.75 244.25" fill="#000000" stroke="none" stroke-opacity="0" />
<polygon id="4210" points="620.1923 214.7436,629.0063 214.7436,628.8461 243.5897,620.1923 243.4295" fill="#000000" stroke="none" stroke-opacity="0" />
<polygon id="4220" points="520.5 224.75,538.5 224.75,538.5 234.25,520.75 234.25" fill="#000000" stroke="none" stroke-opacity="0" />
<polygon id="4221" points="555.25 113.75,555.25 225.25,565.25 225.25,565.25 214.75,629 214.75,629 243.75,683 243.75,683 212,701.75 212,701.75 170,710.75 170,710.75 122,756.25 122,756.25 113.5" fill="#000000" stroke="none" stroke-opacity="0" xmlns="http://www.w3.org/2000/svg" />
<polygon id="4223" points="10.89739 41.66666,130.7692 41.66666,130.1282 62.82051,139.1025 62.17949,138.4615 223.7179,47.11534 223.7179,46.79482 242.3077,5.128158 241.6667,4.487132 186.5385,10.89739 186.5384" fill="#000000" stroke="none" stroke-opacity="0" xmlns="http://www.w3.org/2000/svg" />
<polygon id="4222" points="130.7692 41.66666,237.5 41.34615,237.1795 78.20512,228.2051 77.88461,227.8846 224.359,138.141 224.0385,138.4615 62.5,130.1282 62.5" fill="#000000" stroke="none" stroke-opacity="0" />
<polygon id="4165" points="514.9038 77.88461,531.0897 77.72435,530.9295 109.1346,515.0641 108.9743" fill="#000000" stroke="none" stroke-opacity="0" />
<polygon id="4164" points="520.032 113.7821,555.2885 113.6218,555.1282 133.8141,520.3525 133.6538" fill="#000000" stroke="none" stroke-opacity="0" />
<polygon id="4163" points="520.5128 133.4936,555.4487 133.4936,555.2885 151.9231,520.1923 151.7628" fill="#000000" stroke="none" stroke-opacity="0" />
<polygon id="4162" points="520.1923 151.7628,555.4487 151.6026,555.2885 170.1923,519.8718 170.032" fill="#000000" stroke="none" stroke-opacity="0" />
<polygon id="4161" points="520.032 169.8718,555.2885 170.1923,555.1282 187.8205,520.3525 187.6602" fill="#000000" stroke="none" stroke-opacity="0" />
<polygon id="4160" points="520.3525 187.5,555.1282 187.3397,554.968 218.75,546.3141 218.9102,546.1538 205.9295,520.3525 205.9295" fill="#000000" stroke="none" stroke-opacity="0" />
<polygon id="4114" points="228.3654 96.47435,245.9936 96.31409,245.9936 113.782,228.2051 113.6218" fill="#000000" stroke="none" stroke-opacity="0" />
<polygon id="4113" points="228.5256 113.4615,246.1538 113.3013,245.9936 124.5192,228.3654 124.359" fill="#000000" stroke="none" stroke-opacity="0" />
<polygon id="4112" points="228.5256 124.359,246.1538 124.1987,245.9936 133.3333,228.5256 133.1731" fill="#000000" stroke="none" stroke-opacity="0" />
<polygon id="4099" points="156.25 224.0384,166.0256 223.8782,165.8654 243.5897,156.25 243.4295" fill="#000000" stroke="none" stroke-opacity="0" />
<polygon id="4100" points="166.0256 224.1987,174.5192 224.0384,174.359 243.2692,165.7051 243.109" fill="#000000" stroke="none" stroke-opacity="0" />
<polygon id="4067" points="391.125 260.75,410.625 260.75,410.625 269.125,391.5 269.125" fill="#000000" stroke="none" stroke-opacity="0" />
<polygon id="4068" points="391.375 260.625,391.25 253,410.875 253,410.875 260.75" fill="#000000" stroke="none" stroke-opacity="0" />
<polygon id="4070" points="356 253,376.125 253,376.125 261.125,356 261.125" fill="#000000" stroke="none" stroke-opacity="0" />
<polygon id="4069" points="356 261,356 269.375,376.5 269.375,376.5 261" fill="#000000" stroke="none" stroke-opacity="0" />
<polygon id="4159" points="520.375 206,520.375 219.125,529.125 219.125,529.125 205.75" fill="#000000" stroke="none" stroke-opacity="0" />
<polygon id="4165B" points="503.375 78.125,515.125 78,515 106.875,503.25 106.5" fill="#000000" stroke="none" stroke-opacity="0" />

</svg>

