<?xml version="1.0" encoding="UTF-8" standalone="no"?>
<!-- Created with Inkscape (http://www.inkscape.org/) -->

<svg xmlns:dc="http://purl.org/dc/elements/1.1/" xmlns:cc="http://creativecommons.org/ns#" xmlns:rdf="http://www.w3.org/1999/02/22-rdf-syntax-ns#" xmlns:svg="http://www.w3.org/2000/svg" xmlns="http://www.w3.org/2000/svg" xmlns:xlink="http://www.w3.org/1999/xlink" xmlns:sodipodi="http://sodipodi.sourceforge.net/DTD/sodipodi-0.dtd" xmlns:inkscape="http://www.inkscape.org/namespaces/inkscape" width="770" height="410" id="svg2" version="1.1" inkscape:version="0.47pre4 " sodipodi:docname="test.svg" style="display:inline">
<defs id="defs4">
<inkscape:perspective sodipodi:type="inkscape:persp3d" inkscape:vp_x="0 : 526.18109 : 1" inkscape:vp_y="0 : 1000 : 0" inkscape:vp_z="744.09448 : 526.18109 : 1" inkscape:persp3d-origin="372.04724 : 350.78739 : 1" id="perspective10" />
<inkscape:perspective id="perspective2832" inkscape:persp3d-origin="0.5 : 0.33333333 : 1" inkscape:vp_z="1 : 0.5 : 1" inkscape:vp_y="0 : 1000 : 0" inkscape:vp_x="0 : 0.5 : 1" sodipodi:type="inkscape:persp3d" />
<script type="text/ecmascript" id="script6">
		var fdat="",sdat="";
		function onAreaOver(evt){
			var ele=evt.target; 
			fdat=ele.getAttribute('fill'); 
			sdat=ele.getAttribute('stroke');
			ele.setAttribute('fill','#006fb6');//多边形填充颜色
			ele.setAttribute('stroke','#006fb6');//stroke 多边形 边框颜色
			
		}
		function onAreaOut(evt){
			var ele=evt.target; 
			ele.setAttribute('fill',fdat);
			ele.setAttribute('stroke',sdat);
		}
		</script>
<symbol overflow="visible" id="symbol" style="overflow:visible">
<path d="m 626,156 2,-2 2,-4 0,-3 -1,-3 -4,-3 -6,-3 -5,-2 -4,-2 -4,8 -6,14" id="path9" style="fill:#000000;stroke:none" />
</symbol>
</defs>
<sodipodi:namedview id="base" pagecolor="#ffffff" bordercolor="#666666" borderopacity="1.0" inkscape:pageopacity="0.0" inkscape:pageshadow="2" inkscape:zoom="5.6" inkscape:cx="583.1007" inkscape:cy="273.63795" inkscape:document-units="px" inkscape:current-layer="svg2" showgrid="false" inkscape:window-width="1280" inkscape:window-height="740" inkscape:window-x="-4" inkscape:window-y="-4" inkscape:window-maximized="1" />
<metadata id="metadata7">
<rdf:RDF>
<cc:Work>
<dc:format>
image/svg+xml</dc:format>
<dc:type rdf:resource="http://purl.org/dc/dcmitype/StillImage" />
<dc:title>
</dc:title>
</cc:Work>
</rdf:RDF>
</metadata>
<image xlink:href="luoyang2_2_1f_b.png" width="770" height="410" id="image2834" x="-485" y="255.93361" transform="translate(485,-255.9336)" inkscape:label="Layer 1" inkscape:groupmode="layer" style="display:inline" />
<polygon id="B1-02" points="278 14.75,278 87.25,352 87.25,352 14.25" fill="#000000" stroke="none" />
<polygon id="B1-03" points="385.75 14.75,385.75 44,400 44,400 14.75" fill="#000000" stroke="none" stroke-opacity="0" />
<polygon id="B1-04" points="419.5 14.75,419.5 54.5,458.75 54.5,458.75 14.25" fill="#000000" stroke="none" stroke-opacity="0" />
<polygon id="B1-05" points="490.75 15.25,529 15.25,529 51.75,491.5 51.75" fill="#000000" stroke="none" stroke-opacity="0" />
<polygon id="B1-06" points="529.25 15,561.75 15,561.75 51.75,529 51.75" fill="#000000" stroke="none" stroke-opacity="0" />
<polygon id="B1-07" points="562 15,597.25 15,597.25 63,578.75 63,578.75 87.5,561 87.5" fill="#000000" stroke="none" stroke-opacity="0" />
<polygon id="B1-08" points="597.25 15,652 15,678.25 42.25,633 87.75,597 87.75" fill="#000000" stroke="none" stroke-opacity="0" />
<polygon id="B1-09" points="511.5 51.75,528.5 51.75,528.5 87.5,493 87.5,493 63,511.25 63" fill="#000000" stroke="none" stroke-opacity="0" />
<polygon id="B1-10" points="528.75 51.75,561.75 51.75,561.75 87.5,528.5 87.5" fill="#000000" stroke="none" stroke-opacity="0" />
<polygon id="B1-11" points="714.25 77.75,740.25 103.75,742.75 104,742.75 142.75,668.25 142.75,668.25 122.5" fill="#000000" stroke="none" stroke-opacity="0" />
<polygon id="B1-12" points="278 143,316 143,316 167.25,277.75 167.25" fill="#000000" stroke="none" stroke-opacity="0" />
<polygon id="B1-13" points="278.5 178.25,316 178.25,316 215.25,278.5 215.25" fill="#000000" stroke="none" stroke-opacity="0" />
<polygon id="B1-14" points="278.5 215,316 215,316 250.25,278.25 250.25" fill="#000000" stroke="none" stroke-opacity="0" />
<polygon id="B1-15" points="278.25 250,315.75 250,315.75 267.75,277.75 267.75" fill="#000000" stroke="none" stroke-opacity="0" />
<polygon id="B1-16" points="278.25 284.75,278.25 321.5,315.25 321.5,315.25 285" fill="#000000" stroke="none" stroke-opacity="0" />
<polygon id="B1-17" points="278.5 374.75,315.25 374.75,315.25 396.75,278.25 396.75" fill="#000000" stroke="none" stroke-opacity="0" />
<polygon id="B1-18" points="315.25 374.75,350.75 374.75,350.75 397,315 397" fill="#000000" stroke="none" stroke-opacity="0" />
<polygon id="B1-19" points="337.75 361,351 361,351 374.5,337.75 374.5" fill="#000000" stroke="none" stroke-opacity="0" />
<polygon id="B1-20" points="315.25 295,351.25 295,351.25 320.25,315.5 320.25" fill="#000000" stroke="none" stroke-opacity="0" />
<polygon id="B1-21" points="315.75 249.75,350.25 249.75,350.25 267.5,315.25 267.5" fill="#000000" stroke="none" stroke-opacity="0" />
<polygon id="B1-22" points="316.25 214.75,351 214.75,351 249.75,316.25 249.75" fill="#000000" stroke="none" stroke-opacity="0" />
<polygon id="B1-23" points="316 178.25,350.75 178.25,350.75 214.5,316 214.5" fill="#000000" stroke="none" stroke-opacity="0" />
<polygon id="B1-24" points="376 143,421 143,421 179.25,376 179.25" fill="#000000" stroke="none" stroke-opacity="0" />
<polygon id="B1-25" points="376.5 179,421 179,421 215,376.25 215" fill="#000000" stroke="none" stroke-opacity="0" />
<polygon id="B1-26" points="376.5 215,421 215,421 249.75,376.25 249.75" fill="#000000" stroke="none" stroke-opacity="0" />
<polygon id="B1-27" points="376.5 249.75,420.5 249.75,420.5 267.75,376.25 267.75" fill="#000000" stroke="none" stroke-opacity="0" />
<polygon id="B1-28" points="376 285.25,421.5 285.25,421.5 321,376 321" fill="#000000" stroke="none" stroke-opacity="0" />
<polygon id="B1-29" points="376 320.75,420.75 320.75,420.75 356,376 356" fill="#000000" stroke="none" stroke-opacity="0" />
<polygon id="B1-30" points="376.25 355.75,376.25 392.75,397 392.75,397 367.5,420.25 367.5,420.25 355.25" fill="#000000" stroke="none" stroke-opacity="0" />
<polygon id="B1-31" points="468.75 356.5,491.75 356.5,491.75 393.75,468.25 393.75" fill="#000000" stroke="none" stroke-opacity="0" />
<polygon id="B1-32" points="491.5 356.5,527.25 356.5,527.25 393.25,492 393.25" fill="#000000" stroke="none" stroke-opacity="0" />
<polygon id="B1-33" points="527.25 356.75,562.25 356.75,562.25 393.5,527.5 393.5" fill="#000000" stroke="none" stroke-opacity="0" />
<polygon id="B1-34" points="562 356.25,610 356.25,610 394.75,562.25 394.75" fill="#000000" stroke="none" stroke-opacity="0" />
<polygon id="B1-35" points="680.25 356.5,704.25 356.5,704.25 393.75,680.75 393.75" fill="#000000" stroke="none" stroke-opacity="0" />
<polygon id="B1-36" points="704.5 356.5,741.25 356.5,741.25 392.75,704.25 392.75" fill="#000000" stroke="none" stroke-opacity="0" />
<polygon id="B1-37" points="703.75 321,741 321,741 357,703.75 357" fill="#000000" stroke="none" stroke-opacity="0" />
<polygon id="B1-38" points="704.5 285.75,741.25 285.75,741.25 321,703.75 321" fill="#000000" stroke="none" stroke-opacity="0" />
<polygon id="B1-39" points="703.75 250,740.75 250,740.75 285.75,704.75 285.75" fill="#000000" stroke="none" stroke-opacity="0" />
<polygon id="B1-40" points="704 215,741 215,741 250.5,704 250.5" fill="#000000" stroke="none" stroke-opacity="0" />
<polygon id="B1-41" points="704.25 214.75,704.25 178.5,741.25 178.5,741.25 215" fill="#000000" stroke="none" stroke-opacity="0" />
<polygon id="B1-42" points="704.5 178.75,704.5 156.5,741 156.5,741 178.75" fill="#000000" stroke="none" stroke-opacity="0" />
<polygon id="B1-43" points="563.25 143.25,599 143.25,599 180.25,562.75 180.25" fill="#000000" stroke="none" stroke-opacity="0" />
<polygon id="B1-44" points="527.25 143,563.25 143,563.25 180.25,526.75 180.25" fill="#000000" stroke="none" stroke-opacity="0" />
<polygon id="B1-45" points="492.25 143.25,527.25 143.25,527.25 180,492.25 180" fill="#000000" stroke="none" stroke-opacity="0" />
<polygon id="B1-46" points="456.5 143.25,492.5 143.25,492.5 179.75,455.5 179.75" fill="#000000" stroke="none" stroke-opacity="0" />
<polygon id="B1-47" points="421 143,456.5 143,456.5 180.25,420.75 180.25" fill="#000000" stroke="none" stroke-opacity="0" />
<polygon id="B1-01" points="421.5 180,421.5 267.5,385 267.5,385 285,421.5 285,421.5 355.5,704 355.5,704 178.5,634 178.5,634 157,599.5 157,599.5 180.5" fill="#000000" stroke="none" stroke-opacity="0" />
</svg>
