<?xml version="1.0" encoding="UTF-8" standalone="no"?>
<!-- Created with Inkscape (http://www.inkscape.org/) -->

<svg xmlns:dc="http://purl.org/dc/elements/1.1/" xmlns:cc="http://creativecommons.org/ns#" xmlns:rdf="http://www.w3.org/1999/02/22-rdf-syntax-ns#" xmlns:svg="http://www.w3.org/2000/svg" xmlns="http://www.w3.org/2000/svg" xmlns:xlink="http://www.w3.org/1999/xlink" xmlns:sodipodi="http://sodipodi.sourceforge.net/DTD/sodipodi-0.dtd" xmlns:inkscape="http://www.inkscape.org/namespaces/inkscape" width="770" height="410" id="svg2" version="1.1" inkscape:version="0.47pre4 " sodipodi:docname="test.svg" style="display:inline">
<defs id="defs4">
<inkscape:perspective sodipodi:type="inkscape:persp3d" inkscape:vp_x="0 : 526.18109 : 1" inkscape:vp_y="0 : 1000 : 0" inkscape:vp_z="744.09448 : 526.18109 : 1" inkscape:persp3d-origin="372.04724 : 350.78739 : 1" id="perspective10" />
<inkscape:perspective id="perspective2832" inkscape:persp3d-origin="0.5 : 0.33333333 : 1" inkscape:vp_z="1 : 0.5 : 1" inkscape:vp_y="0 : 1000 : 0" inkscape:vp_x="0 : 0.5 : 1" sodipodi:type="inkscape:persp3d" />
<script type="text/ecmascript" id="script6">
		var fdat="",sdat="";
		function onAreaOver(evt){
			var ele=evt.target; 
			fdat=ele.getAttribute('fill'); 
			sdat=ele.getAttribute('stroke');
			ele.setAttribute('fill','#006fb6');//多边形填充颜色
			ele.setAttribute('stroke','#006fb6');//stroke 多边形 边框颜色
			
		}
		function onAreaOut(evt){
			var ele=evt.target; 
			ele.setAttribute('fill',fdat);
			ele.setAttribute('stroke',sdat);
		}
		</script>
<symbol overflow="visible" id="symbol" style="overflow:visible" xmlns="http://www.w3.org/2000/svg">
<path d="m 626,156 2,-2 2,-4 0,-3 -1,-3 -4,-3 -6,-3 -5,-2 -4,-2 -4,8 -6,14" id="path9" style="fill:#000000;stroke:none" />
</symbol>
</defs>
<sodipodi:namedview id="base" pagecolor="#ffffff" bordercolor="#666666" borderopacity="1.0" inkscape:pageopacity="0.0" inkscape:pageshadow="2" inkscape:zoom="5.6" inkscape:cx="583.1007" inkscape:cy="273.63795" inkscape:document-units="px" inkscape:current-layer="svg2" showgrid="false" inkscape:window-width="1280" inkscape:window-height="740" inkscape:window-x="-4" inkscape:window-y="-4" inkscape:window-maximized="1" />
<metadata id="metadata7">
<rdf:RDF>
<cc:Work>
<dc:format>
image/svg+xml</dc:format>
<dc:type rdf:resource="http://purl.org/dc/dcmitype/StillImage" />
<dc:title>
</dc:title>
</cc:Work>
</rdf:RDF>
</metadata>
<image xlink:href="luoyang2_2_2f_b.png" width="770" height="410" id="image2834" x="-485" y="255.93361" transform="translate(485,-255.9336)" inkscape:label="Layer 1" inkscape:groupmode="layer" style="display:inline" />
<polygon id="B2-02" points="534 181,534 395,748.5 395,748.5 144,711 144,711 178.5,640.5 179,640.5 157,606 157,606 180" fill="#000000" stroke="none" />
<polygon id="B2-03" points="297 13.5,297 57,280 57,280 89,390 89,390 13" fill="#000000" stroke="none" stroke-opacity="0" />
<polygon id="B2-04" points="496.5 15,536 15,536 88,498 88,497.5 62.5,517 62.5,517 51.5,497 51.5" fill="#000000" stroke="none" stroke-opacity="0" />
<polygon id="B2-05" points="536 15.5,604 15.5,604 88,535.5 88" fill="#000000" stroke="none" stroke-opacity="0" />
<polygon id="B2-06" points="604 15,640 15,640 12.5,675 12.5,751 88.5,751 145,676 145,676 122,640.5 86.5,603.5 86.5" fill="#000000" stroke="none" stroke-opacity="0" />
<polygon id="B2-07" points="534.5 144,534.5 180,551.5 180,551.5 144" fill="#000000" stroke="none" stroke-opacity="0" />
<polygon id="B2-08" points="551.5 144,570 144,570 180.5,551 180.5" fill="#000000" stroke="none" stroke-opacity="0" />
<polygon id="B2-09" points="570.5 144,586 144,586 180.5,570 180.5" fill="#000000" stroke="none" stroke-opacity="0" />
<polygon id="B2-10" points="586 144,605.5 144,605.5 180,586 180" fill="#000000" stroke="none" stroke-opacity="0" />
<polygon id="B2-01" points="357 163,425.5 163,425.5 180.5,533.5 180.5,533.5 395.5,354.5 395.5" fill="#000000" stroke="none" stroke-opacity="0" />
<polygon id="B2-01-1" points="301.5 193,301.5 287.5,356 287.5,356 193.5,342 194,342 184,319.5 184,319.5 193" fill="#000000" stroke="none" stroke-opacity="0" />
<polygon id="B2-01-2" points="356.5 144,392 144,392 163.5,356.5 163.5" fill="#000000" stroke="none" stroke-opacity="0" />
<polygon id="B2-01-3" points="461 143.5,461 180.5,534 180.5,534 143.5" fill="#000000" stroke="none" stroke-opacity="0" />


</svg>
