<?xml version="1.0" encoding="UTF-8" standalone="no"?>
<!-- Created with Inkscape (http://www.inkscape.org/) -->

<svg xmlns:dc="http://purl.org/dc/elements/1.1/" xmlns:cc="http://creativecommons.org/ns#" xmlns:rdf="http://www.w3.org/1999/02/22-rdf-syntax-ns#" xmlns:svg="http://www.w3.org/2000/svg" xmlns="http://www.w3.org/2000/svg" xmlns:xlink="http://www.w3.org/1999/xlink" xmlns:sodipodi="http://sodipodi.sourceforge.net/DTD/sodipodi-0.dtd" xmlns:inkscape="http://www.inkscape.org/namespaces/inkscape" width="770" height="180" id="svg2" version="1.1" inkscape:version="0.47pre4 " sodipodi:docname="test.svg" style="display:inline">
<defs id="defs4">
<inkscape:perspective sodipodi:type="inkscape:persp3d" inkscape:vp_x="0 : 526.18109 : 1" inkscape:vp_y="0 : 1000 : 0" inkscape:vp_z="744.09448 : 526.18109 : 1" inkscape:persp3d-origin="372.04724 : 350.78739 : 1" id="perspective10" />
<inkscape:perspective id="perspective2832" inkscape:persp3d-origin="0.5 : 0.33333333 : 1" inkscape:vp_z="1 : 0.5 : 1" inkscape:vp_y="0 : 1000 : 0" inkscape:vp_x="0 : 0.5 : 1" sodipodi:type="inkscape:persp3d" />
<script type="text/ecmascript" id="script6">
		var fdat="",sdat="";
		function onAreaOver(evt){
			var ele=evt.target; 
			fdat=ele.getAttribute('fill'); 
			sdat=ele.getAttribute('stroke');
			ele.setAttribute('fill','#006fb6');//多边形填充颜色
			ele.setAttribute('stroke','#006fb6');//stroke 多边形 边框颜色
			
		}
		function onAreaOut(evt){
			var ele=evt.target; 
			ele.setAttribute('fill',fdat);
			ele.setAttribute('stroke',sdat);
		}
		</script>
<symbol overflow="visible" id="symbol" style="overflow:visible" xmlns="http://www.w3.org/2000/svg">
<path d="m 626,156 2,-2 2,-4 0,-3 -1,-3 -4,-3 -6,-3 -5,-2 -4,-2 -4,8 -6,14" id="path9" style="fill:#000000;stroke:none" />
</symbol>
</defs>
<sodipodi:namedview id="base" pagecolor="#ffffff" bordercolor="#666666" borderopacity="1.0" inkscape:pageopacity="0.0" inkscape:pageshadow="2" inkscape:zoom="5.6" inkscape:cx="583.1007" inkscape:cy="273.63795" inkscape:document-units="px" inkscape:current-layer="svg2" showgrid="false" inkscape:window-width="1280" inkscape:window-height="740" inkscape:window-x="-4" inkscape:window-y="-4" inkscape:window-maximized="1" />
<metadata id="metadata7">
<rdf:RDF>
<cc:Work>
<dc:format>
image/svg+xml</dc:format>
<dc:type rdf:resource="http://purl.org/dc/dcmitype/StillImage" />
<dc:title>
</dc:title>
</cc:Work>
</rdf:RDF>
</metadata>
<image xlink:href="suqian_2_blm_s.jpg" width="770" height="180" id="image2834" x="-485" y="255.93361" transform="translate(485,-255.9336)" inkscape:label="Layer 1" inkscape:groupmode="layer" style="display:inline" />
<polygon id="S01" points="12.75 72,12.5 100.75,33.5 100.75,33.25 72" fill="#000000" stroke="none" stroke-opacity="0" />
<polygon id="S02" points="36 72.25,35.75 100.5,56 100,56.5 72" fill="#000000" stroke="none" stroke-opacity="0" />
<polygon id="S03" points="58 72.5,57.5 100.25,78.25 100,78.5 72.25" fill="#000000" stroke="none" stroke-opacity="0" />
<polygon id="S04" points="80.5 72.25,80.25 100,101.25 100,101.25 72.5" fill="#000000" stroke="none" stroke-opacity="0" />
<polygon id="S05" points="103 72,102.5 99.75,123.5 100.25,123.5 72.5" fill="#000000" stroke="none" stroke-opacity="0" />
<polygon id="S06" points="125.5 72.75,125.25 100.25,146.25 100,146.25 72.5" fill="#000000" stroke="none" stroke-opacity="0" />
<polygon id="S07" points="193.75 58,193.75 86.5,214.5 86.5,214.5 58" fill="#000000" stroke="none" stroke-opacity="0" />
<polygon id="S08" points="215.75 58.25,215.75 86.5,236.25 86.5,236.25 58.25" fill="#000000" stroke="none" stroke-opacity="0" />
<polygon id="S09" points="238.75 58.5,238.75 86.5,259.5 86.5,259.5 58.25" fill="#000000" stroke="none" stroke-opacity="0" />
<polygon id="S10" points="261.75 58.25,261.75 86.25,282.5 86.25,282.5 58.5" fill="#000000" stroke="none" stroke-opacity="0" />
<polygon id="S11" points="283.5 58.25,283.5 86.5,300.75 86.5,300.75 58" fill="#000000" stroke="none" stroke-opacity="0" />
<polygon id="S12" points="306.25 58,306.25 86,326.25 86,326.25 57.75" fill="#000000" stroke="none" stroke-opacity="0" />
<polygon id="S13" points="328.5 58.25,328.5 86,349.75 86,349.75 58" fill="#000000" stroke="none" stroke-opacity="0" />
<polygon id="S14" points="362.75 58,362.75 86.5,406.5 86.5,406.5 57.75" fill="#000000" stroke="none" stroke-opacity="0" />
<polygon id="S15" points="418.75 58,418.75 86.5,439.25 86.5,439.25 58" fill="#000000" stroke="none" stroke-opacity="0" />
<polygon id="S16" points="441.25 58.25,441.5 86.75,462.25 86.75,462.25 57.75" fill="#000000" stroke="none" stroke-opacity="0" />
<polygon id="S17" points="463.75 58.25,463.75 86.75,484.75 86.75,484.75 58" fill="#000000" stroke="none" stroke-opacity="0" />
<polygon id="S18" points="486.75 58.5,486.75 86.5,507.25 86.5,507.25 58.75" fill="#000000" stroke="none" stroke-opacity="0" />
<polygon id="S19" points="508.5 58.25,508.5 86.25,529.75 86.25,529.75 58.25" fill="#000000" stroke="none" stroke-opacity="0" />
<polygon id="S20" points="531 58.25,531 86.5,552 86.5,552 58.5" fill="#000000" stroke="none" stroke-opacity="0" />
<polygon id="S21" points="554.5 58.25,554.5 86.75,574.75 86.75,574.75 58" fill="#000000" stroke="none" stroke-opacity="0" />
<polygon id="S22" points="621.75 71.75,621.75 100.5,642.5 100.5,642.5 71.75" fill="#000000" stroke="none" stroke-opacity="0" />
<polygon id="S23" points="644 72.25,644 100.5,664.25 100.5,664.25 72.25" fill="#000000" stroke="none" stroke-opacity="0" />
<polygon id="S24" points="666.75 72.25,666.75 100.25,687.5 100.25,687.5 72.5" fill="#000000" stroke="none" stroke-opacity="0" />
<polygon id="S25" points="689.75 72.75,689.75 100,710.25 100,710.25 72.75" fill="#000000" stroke="none" stroke-opacity="0" />
<polygon id="S26" points="711.5 72.75,711.5 100,728.5 100,728.5 72.75" fill="#000000" stroke="none" stroke-opacity="0" />


</svg>

