<?xml version="1.0" encoding="UTF-8" standalone="no"?>
<!-- Created with Inkscape (http://www.inkscape.org/) -->

<svg xmlns:dc="http://purl.org/dc/elements/1.1/" xmlns:cc="http://creativecommons.org/ns#" xmlns:rdf="http://www.w3.org/1999/02/22-rdf-syntax-ns#" xmlns:svg="http://www.w3.org/2000/svg" xmlns="http://www.w3.org/2000/svg" xmlns:xlink="http://www.w3.org/1999/xlink" xmlns:sodipodi="http://sodipodi.sourceforge.net/DTD/sodipodi-0.dtd" xmlns:inkscape="http://www.inkscape.org/namespaces/inkscape" width="770" height="180" id="svg2" version="1.1" inkscape:version="0.47pre4 " sodipodi:docname="test.svg" style="display:inline">
<defs id="defs4">
<inkscape:perspective sodipodi:type="inkscape:persp3d" inkscape:vp_x="0 : 526.18109 : 1" inkscape:vp_y="0 : 1000 : 0" inkscape:vp_z="744.09448 : 526.18109 : 1" inkscape:persp3d-origin="372.04724 : 350.78739 : 1" id="perspective10" />
<inkscape:perspective id="perspective2832" inkscape:persp3d-origin="0.5 : 0.33333333 : 1" inkscape:vp_z="1 : 0.5 : 1" inkscape:vp_y="0 : 1000 : 0" inkscape:vp_x="0 : 0.5 : 1" sodipodi:type="inkscape:persp3d" />
<script type="text/ecmascript" id="script6">
		var fdat="",sdat="";
		function onAreaOver(evt){
			var ele=evt.target; 
			fdat=ele.getAttribute('fill'); 
			sdat=ele.getAttribute('stroke');
			ele.setAttribute('fill','#006fb6');//多边形填充颜色
			ele.setAttribute('stroke','#006fb6');//stroke 多边形 边框颜色
			
		}
		function onAreaOut(evt){
			var ele=evt.target; 
			ele.setAttribute('fill',fdat);
			ele.setAttribute('stroke',sdat);
		}
		</script>
<symbol overflow="visible" id="symbol" style="overflow:visible" xmlns="http://www.w3.org/2000/svg">
<path d="m 626,156 2,-2 2,-4 0,-3 -1,-3 -4,-3 -6,-3 -5,-2 -4,-2 -4,8 -6,14" id="path9" style="fill:#000000;stroke:none" />
</symbol>
</defs>
<sodipodi:namedview id="base" pagecolor="#ffffff" bordercolor="#666666" borderopacity="1.0" inkscape:pageopacity="0.0" inkscape:pageshadow="2" inkscape:zoom="5.6" inkscape:cx="583.1007" inkscape:cy="273.63795" inkscape:document-units="px" inkscape:current-layer="svg2" showgrid="false" inkscape:window-width="1280" inkscape:window-height="740" inkscape:window-x="-4" inkscape:window-y="-4" inkscape:window-maximized="1" />
<metadata id="metadata7">
<rdf:RDF>
<cc:Work>
<dc:format>
image/svg+xml</dc:format>
<dc:type rdf:resource="http://purl.org/dc/dcmitype/StillImage" />
<dc:title>
</dc:title>
</cc:Work>
</rdf:RDF>
</metadata>
<image xlink:href="suqian_1_zlm_n.jpg" width="770" height="180" id="image2834" x="-485" y="255.93361" transform="translate(485,-255.9336)" inkscape:label="Layer 1" inkscape:groupmode="layer" style="display:inline" />
<polygon id="N01" points="28.25 66.5,28.25 92.75,46.5 92.75,46.5 66.5" fill="#000000" stroke="none" />
<polygon id="N02" points="48 67,48 92.5,65.75 92.5,65.75 67" fill="#000000" stroke="none" stroke-opacity="0" />
<polygon id="N03" points="130.5 67,130.5 91.25,150.75 91.25,150.75 66.75" fill="#000000" stroke="none" stroke-opacity="0" />
<polygon id="N04" points="207.5 65.75,207.5 91.5,227.5 91.5,227.5 65.75" fill="#000000" stroke="none" stroke-opacity="0" />
<polygon id="N05" points="235 66.75,235 91.25,255.25 91.25,255.25 66.75" fill="#000000" stroke="none" stroke-opacity="0" />
<polygon id="N06" points="273.5 66.75,273.5 91.25,305.75 91.25,305.75 66.5" fill="#000000" stroke="none" stroke-opacity="0" />
<polygon id="N07" points="442.5 66.75,442.5 91.25,462.5 91.25,462.5 66.75" fill="#000000" stroke="none" stroke-opacity="0" />
<polygon id="N08" points="469.5 66.25,469.5 91.25,487.75 91.25,487.75 65.75" fill="#000000" stroke="none" stroke-opacity="0" />
<polygon id="N09" points="495.5 67,495.5 91.5,512.5 91.5,512.5 67" fill="#000000" stroke="none" stroke-opacity="0" />
<polygon id="N10" points="522.25 67,522.25 91.25,541.25 91.25,541.25 67" fill="#000000" stroke="none" stroke-opacity="0" />
<polygon id="N11" points="599.75 67.25,599.75 91.5,618.5 91.5,618.5 66.75" fill="#000000" stroke="none" stroke-opacity="0" />
<polygon id="N12" points="683.75 67,683.75 91.25,701.75 91.25,701.75 66.75" fill="#000000" stroke="none" stroke-opacity="0" />
<polygon id="N13" points="703.75 67.25,703.75 91.25,720.5 91.25,720.5 67" fill="#000000" stroke="none" stroke-opacity="0" />

</svg>

