<?xml version="1.0" encoding="UTF-8" standalone="no"?>
<!-- Created with Inkscape (http://www.inkscape.org/) -->

<svg xmlns:dc="http://purl.org/dc/elements/1.1/" xmlns:cc="http://creativecommons.org/ns#" xmlns:rdf="http://www.w3.org/1999/02/22-rdf-syntax-ns#" xmlns:svg="http://www.w3.org/2000/svg" xmlns="http://www.w3.org/2000/svg" xmlns:xlink="http://www.w3.org/1999/xlink" xmlns:sodipodi="http://sodipodi.sourceforge.net/DTD/sodipodi-0.dtd" xmlns:inkscape="http://www.inkscape.org/namespaces/inkscape" width="770" height="480" id="svg2" version="1.1" inkscape:version="0.47pre4 " sodipodi:docname="test.svg" style="display:inline" stroke="#000000">
<defs id="defs4">
<inkscape:perspective sodipodi:type="inkscape:persp3d" inkscape:vp_x="0 : 526.18109 : 1" inkscape:vp_y="0 : 1000 : 0" inkscape:vp_z="744.09448 : 526.18109 : 1" inkscape:persp3d-origin="372.04724 : 350.78739 : 1" id="perspective10" />
<inkscape:perspective id="perspective2832" inkscape:persp3d-origin="0.5 : 0.33333333 : 1" inkscape:vp_z="1 : 0.5 : 1" inkscape:vp_y="0 : 1000 : 0" inkscape:vp_x="0 : 0.5 : 1" sodipodi:type="inkscape:persp3d" />
<script type="text/ecmascript" id="script6">
		var fdat="",sdat="";
		function onAreaOver(evt){
			var ele=evt.target; 
			fdat=ele.getAttribute('fill'); 
			sdat=ele.getAttribute('stroke');
			ele.setAttribute('fill','#006fb6');//多边形填充颜色
			ele.setAttribute('stroke','#006fb6');//stroke 多边形 边框颜色
			
		}
		function onAreaOut(evt){
			var ele=evt.target; 
			ele.setAttribute('fill',fdat);
			ele.setAttribute('stroke',sdat);
		}
		</script>
<symbol overflow="visible" id="symbol" style="overflow:visible">
<path d="m 626,156 2,-2 2,-4 0,-3 -1,-3 -4,-3 -6,-3 -5,-2 -4,-2 -4,8 -6,14" id="path9" style="fill:#000000;stroke:none" />
</symbol>
</defs>
<sodipodi:namedview id="base" pagecolor="#ffffff" bordercolor="#666666" borderopacity="1.0" inkscape:pageopacity="0.0" inkscape:pageshadow="2" inkscape:zoom="5.6" inkscape:cx="583.1007" inkscape:cy="273.63795" inkscape:document-units="px" inkscape:current-layer="svg2" showgrid="false" inkscape:window-width="1280" inkscape:window-height="740" inkscape:window-x="-4" inkscape:window-y="-4" inkscape:window-maximized="1" />
<metadata id="metadata7">
<rdf:RDF>
<cc:Work>
<dc:format>
image/svg+xml</dc:format>
<dc:type rdf:resource="http://purl.org/dc/dcmitype/StillImage" />
<dc:title>
</dc:title>
</cc:Work>
</rdf:RDF>
</metadata>
<image xlink:href="luoyang1_2f_ds.png" width="770" height="480" id="image2834" x="-485" y="255.93361" transform="translate(485,-255.9336)" inkscape:label="Layer 1" inkscape:groupmode="layer" style="display:inline" />
<polygon id="03-0253" points="54.25 2.25,99 2.25,99 24.5,54.5 24.5" fill="#000000" stroke="none" stroke-opacity="0" />
<polygon id="03-0239" points="55 24.25,99 24.25,99 67.75,54.75 67.75" fill="#000000" stroke="none" stroke-opacity="0" />
<polygon id="03-0231" points="69.5 84,84.25 84,84 97.25,69 97.25" fill="#000000" stroke="none" stroke-opacity="0" />
<polygon id="03-0232" points="84.25 84.25,98.75 84.25,98.75 97.25,84 97.25" fill="#000000" stroke="none" stroke-opacity="0" />
<polygon id="03-0233" points="81.25 106,99.25 106,99.25 115.75,81 115.75" fill="#000000" stroke="none" stroke-opacity="0" />
<polygon id="03-0230" points="69 105.75,81.25 105.75,81.25 115.5,69.25 115.5" fill="#000000" stroke="none" stroke-opacity="0" />
<polygon id="03-0229" points="69.25 115.75,80.5 115.75,80.5 126,68.75 126" fill="#000000" stroke="none" stroke-opacity="0" />
<polygon id="03-0228" points="68.75 125.75,81.25 125.75,81.25 141,68.75 141" fill="#000000" stroke="none" stroke-opacity="0" />
<polygon id="03-0227" points="69 140.5,81.25 140.5,81.25 155.75,68.75 155.75" fill="#000000" stroke="none" stroke-opacity="0" />
<polygon id="03-0213" points="69 155.5,81.25 155.5,81.25 171.25,68.75 171.25" fill="#000000" stroke="none" stroke-opacity="0" />
<polygon id="03-0234" points="80.75 115.75,99.25 115.75,99.25 125.75,81 125.75" fill="#000000" stroke="none" stroke-opacity="0" />
<polygon id="03-0235" points="81.5 125.75,99.25 125.75,99.25 141,81.25 141" fill="#000000" stroke="none" stroke-opacity="0" />
<polygon id="03-0236" points="81.5 141,99.25 141,99.25 155.75,81.25 155.75" fill="#000000" stroke="none" stroke-opacity="0" />
<polygon id="03-0237" points="81.25 156,99 156,99 171.25,81.25 171.25" fill="#000000" stroke="#000000" />
<polygon id="03-0240" points="54.25 82.75,69.25 82.75,69.25 97.25,40.25 97.25" fill="#000000" stroke="#000000" />
<polygon id="03-0241" points="39.75 97.25,59.75 97.25,59.75 111.5,39.25 111.5" fill="#000000" stroke="#000000" />
<polygon id="03-0242" points="39.5 111.75,60.5 111.75,60.5 127,40 127" fill="#000000" stroke="none" />
<polygon id="03-0243" points="40 126.75,59.75 126.75,59.75 141,39.75 141" fill="#000000" stroke="none" stroke-opacity="0" />
<polygon id="03-0244" points="40 141.25,60 141.25,60 156.75,40 156.75" fill="#000000" stroke="none" stroke-opacity="0" />
<polygon id="03-0245" points="40 156.75,60.25 156.75,60.25 170.25,40.25 170.25" fill="#000000" stroke="none" stroke-opacity="0" />
<polygon id="03-0246" points="40.25 170,60.25 170,60.25 185.5,40.5 185.5" fill="#000000" stroke="none" stroke-opacity="0" />
<polygon id="03-0257" points="39.75 198.5,60 198.5,60 216,39.75 216" fill="#000000" stroke="none" stroke-opacity="0" />
<polygon id="03-0255" points="47 216.25,38.5 216.25,16 253,54.75 276,57.5 270,63.75 281,71.5 291.25,80.75 299.5,91.25 306.75,102.25 311.75,115.5 315.75,129 317.25,138.75 317.25,148 315.75,145.25 321.5,185.5 339,203 299,208.75 301.75,220 274.5,98.5 216.25,98.5 186,60.25 186.5,60.25 216.25" fill="#000000" stroke="none" />
<polygon id="04-0206" points="242.5 283.75,253.5 288.75,242.75 315.5,231 311" fill="#000000" stroke="none" stroke-opacity="0" />
<polygon id="04-0275" points="253.75 288.75,265 293.25,254.25 319.75,242.5 315.25" fill="#000000" stroke="none" stroke-opacity="0" />
<polygon id="04-0207" points="264.75 293,279.75 299,259.25 353.5,243.75 347" fill="#000000" stroke="none" stroke-opacity="0" />
<polygon id="04-0208" points="279.75 299,294.25 304.25,274 358.75,259.25 353.25" fill="#000000" stroke="none" stroke-opacity="0" />
<polygon id="04-0209" points="294.25 304.25,310.5 310,290.5 365,273.5 358.75" fill="#000000" stroke="none" stroke-opacity="0" />
<polygon id="04-0210" points="310.25 309.75,325.75 315.25,306.75 370,290.25 364.5" fill="#000000" stroke="none" stroke-opacity="0" />
<polygon id="04-0211" points="326 314.75,341 319.75,322.5 375.5,307 370" fill="#000000" stroke="none" stroke-opacity="0" />
<polygon id="04-0212" points="341 319.75,356.5 324.5,338 380.5,322.5 375" fill="#000000" stroke="none" stroke-opacity="0" />
<polygon id="04-0276" points="371.25 329,387 333.75,370.25 390,354.5 385.25" fill="#000000" stroke="none" stroke-opacity="0" />
<polygon id="04-0213" points="387 333.5,402.5 338.25,386.25 395.25,370 390" fill="#000000" stroke="none" stroke-opacity="0" />
<polygon id="04-0214" points="402.5 338.25,418 342.5,402 399.5,386.25 395" fill="#000000" stroke="none" stroke-opacity="0" />
<polygon id="04-0215" points="418 342.25,436.5 347,422.25 405,402.25 399.25" fill="#000000" stroke="none" stroke-opacity="0" />
<polygon id="04-0216" points="436.5 347.25,449 350,441 382.5,428.75 379" fill="#000000" stroke="none" stroke-opacity="0" />
<polygon id="04-0217" points="448.5 350.25,465 354.25,457 386,441 381.75" fill="#000000" stroke="none" stroke-opacity="0" />
<polygon id="04-0218" points="465 354,480.75 357.75,473.5 389.25,457 385.5" fill="#000000" stroke="none" stroke-opacity="0" />
<polygon id="04-0219" points="480.75 357.5,496.75 361,484.25 419.25,468.25 415.25" fill="#000000" stroke="none" stroke-opacity="0" />
<polygon id="04-0220" points="496.75 361,512 363.75,500.5 422.75,484.25 419" fill="#000000" stroke="none" stroke-opacity="0" />
<polygon id="04-0221" points="512 363.5,527.75 366.5,516.75 425.75,500.25 422.5" fill="#000000" stroke="none" stroke-opacity="0" />
<polygon id="04-0222" points="527.5 366.75,544 369.5,533.5 428.75,516.75 425.25" fill="#000000" stroke="none" stroke-opacity="0" />
<polygon id="04-0223" points="544 369.75,559.5 372.5,549.75 430.75,533.75 427.75" fill="#000000" stroke="none" stroke-opacity="0" />
<polygon id="04-0224" points="559.75 372.5,576 374.75,567 433.25,549.5 430.75" fill="#000000" stroke="none" stroke-opacity="0" />
<polygon id="04-0225" points="575.75 375,590.75 376.5,583 435.5,567 433" fill="#000000" stroke="none" stroke-opacity="0" />
<polygon id="04-0226" points="590.5 376.5,608 378.25,600.25 438.25,582.75 435.25" fill="#000000" stroke="none" stroke-opacity="0" />
<polygon id="04-0227" points="608 378.75,623.5 381.25,616.25 440,599.75 437.75" fill="#000000" stroke="none" stroke-opacity="0" />
<polygon id="01-0276" points="639.25 382.75,632.75 441.5,640 441.5,660 466,692.25 468.75,717.75 446.5,732.75 452,748.25 455.75,770 459.25,770 389.75" fill="#000000" stroke="none" stroke-opacity="0" />
<polygon id="04-0232" points="723.75 308,723.75 338,706.25 337.25,707.5 307.5" fill="#000000" stroke="none" stroke-opacity="0" />
<polygon id="04-0233" points="698 322.75,697.25 336.75,675.25 335.75,676.75 321.5" fill="#000000" stroke="none" stroke-opacity="0" />
<polygon id="04-0234" points="662.5 304.25,677.75 305.25,675.75 335.5,660.25 334.25" fill="#000000" stroke="none" stroke-opacity="0" />
<polygon id="04-0235" points="647.5 302.75,662.5 304.25,660.5 334,644.75 332.25" fill="#000000" stroke="none" stroke-opacity="0" />
<polygon id="04-0236" points="647.5 302.75,632.5 301.25,628.75 330.5,644.75 332" fill="#000000" stroke="none" stroke-opacity="0" />
<polygon id="04-0237" points="617.25 299.25,632.5 301.25,628.75 330.5,613.25 328.75" fill="#000000" stroke="none" stroke-opacity="0" />
<polygon id="04-0238" points="617.25 299.5,613.5 328.5,597.75 326.75,602 297.5" fill="#000000" stroke="none" stroke-opacity="0" />
<polygon id="04-0239" points="602 297.5,597.75 326.5,582.25 324.5,586.25 295.5" fill="#000000" stroke="none" stroke-opacity="0" />
<polygon id="04-0240" points="572.25 293.25,567.25 323,552.5 320.25,557 290.5" fill="#000000" stroke="none" stroke-opacity="0" />
<polygon id="04-0241" points="557.25 290.75,552.5 320,536.75 317,542 288.25" fill="#000000" stroke="none" stroke-opacity="0" />
<polygon id="04-0242" points="542 288,536.75 317.25,521.5 313.75,526.75 285.25" fill="#000000" stroke="none" stroke-opacity="0" />
<polygon id="04-0243" points="526.75 285,521.25 314,506.25 311,512.5 282.25" fill="#000000" stroke="none" stroke-opacity="0" />
<polygon id="04-0244" points="512.5 282.25,506 311.25,491 308,497.25 278.75" fill="#000000" stroke="none" stroke-opacity="0" />
<polygon id="04-0245" points="497.5 278.75,491 307.75,476 304.5,482.75 276" fill="#000000" stroke="none" stroke-opacity="0" />
<polygon id="04-0246" points="482.75 275.75,476 305,460.25 300.75,467.25 272.5" fill="#000000" stroke="none" stroke-opacity="0" />
<polygon id="04-0247" points="453.25 269,445.5 297.75,430.5 293.5,438 264.5" fill="#000000" stroke="none" stroke-opacity="0" />
<polygon id="04-0248" points="423.75 261.25,438 264.75,430.75 293.5,415.5 289.5" fill="#000000" stroke="none" stroke-opacity="0" />
<polygon id="04-0249" points="408.75 256.75,423.75 261.25,415.25 289.5,401 285.5" fill="#000000" stroke="none" stroke-opacity="0" />
<polygon id="04-0250" points="409 257,401 285.25,385.5 281,394.5 252.5" fill="#000000" stroke="none" stroke-opacity="0" />
<polygon id="04-0251" points="394.5 252.5,385.5 281,371 276.25,379.75 248.25" fill="#000000" stroke="none" stroke-opacity="0" />
<polygon id="04-0252" points="379.75 248,371 276.25,356 272.25,365.25 243.5" fill="#000000" stroke="none" stroke-opacity="0" />
<polygon id="04-0253" points="350.75 239,365.25 243.75,356.5 272,349.25 267.5,344.75 261,343 253.25,345.5 245" fill="#000000" stroke="none" stroke-opacity="0" />
<polygon id="04-0254" points="383.5 235,379.75 248.25,350.5 239,359.25 235" fill="#000000" stroke="none" stroke-opacity="0" />
<polygon id="04-0255" points="383.25 235.5,399.5 235,394.25 252.25,379.5 248.25" fill="#000000" stroke="none" stroke-opacity="0" />
<polygon id="04-0256" points="399.5 235,415.25 234.75,408.75 256.5,394 252.25" fill="#000000" stroke="none" stroke-opacity="0" />
<polygon id="04-0257" points="415 234.75,413.25 242,442 250.75,445.5 237,439 235" fill="#000000" stroke="none" stroke-opacity="0" />
<polygon id="04-0258" points="445.75 236.75,440.25 256,455.25 260.5,460.5 241" fill="#000000" stroke="none" stroke-opacity="0" />
<polygon id="04-0259" points="474.5 244.25,489.25 247.75,482.25 275.75,467.5 272.75" fill="#000000" stroke="none" stroke-opacity="0" />
<polygon id="04-0260" points="489.25 248,503.25 250.75,497.75 279,482.5 275.75" fill="#000000" stroke="none" stroke-opacity="0" />
<polygon id="04-0261" points="503.25 250.5,518 254,512 282.25,497.5 279" fill="#000000" stroke="none" stroke-opacity="0" />
<polygon id="04-0262" points="517.75 254,532.75 256.5,527 285.5,511.75 282.5" fill="#000000" stroke="none" stroke-opacity="0" />
<polygon id="04-0263" points="533 256.5,530.25 270.25,544.75 273.5,547 259.25" fill="#000000" stroke="none" stroke-opacity="0" />
<polygon id="04-0264" points="546.75 259,562.25 261.25,560 275.5,544.75 273.5" fill="#000000" stroke="none" stroke-opacity="0" />
<polygon id="04-0265" points="562 261.5,576.5 263.75,574.25 277.75,560.25 275.5" fill="#000000" stroke="none" stroke-opacity="0" />
<polygon id="04-0266" points="590.5 265.75,586.25 296,602.25 297.75,606.25 268" fill="#000000" stroke="none" stroke-opacity="0" />
<polygon id="04-0267" points="605.75 268,602.5 297.5,617.25 299.5,620.25 270.25" fill="#000000" stroke="none" stroke-opacity="0" />
<polygon id="04-0268" points="620.25 270,616.75 299,632 301.25,635.5 272" fill="#000000" stroke="none" stroke-opacity="0" />
<polygon id="04-0269" points="635.5 272,632 301.75,647.25 303.5,650.25 273.5" fill="#000000" stroke="none" stroke-opacity="0" />
<polygon id="04-0270" points="650 273.25,647.5 303.5,662.5 304.75,665.25 274.5" fill="#000000" stroke="none" stroke-opacity="0" />
<polygon id="04-0271" points="665.25 274.75,662.5 304.25,677.5 305.75,680.25 276.25" fill="#000000" stroke="none" stroke-opacity="0" />
<polygon id="04-0272" points="680 276.25,678 306,693.25 307.25,695 277" fill="#000000" stroke="none" stroke-opacity="0" />
<polygon id="04-0273" points="694.75 277.25,693.25 306.5,708 307.5,709.5 278" fill="#000000" stroke="none" stroke-opacity="0" />
<polygon id="04-0274" points="709.25 277.75,708 307.75,724 308,725 278.5" fill="#000000" stroke="none" stroke-opacity="0" />
<polygon id="05-0201" points="164 201,164 221.75,159.25 222,154.5 220.75,150.75 217,148.75 212.25,149.25 201" fill="#000000" stroke="none" stroke-opacity="0" />
<polygon id="05-0202" points="149 201,149 180.75,164.25 180.75,164.25 201" fill="#000000" stroke="none" stroke-opacity="0" />
<polygon id="05-0203" points="149 180.75,149 166.5,163.75 166.5,163.75 180.75" fill="#000000" stroke="none" stroke-opacity="0" />
<polygon id="05-0204" points="163.75 166.5,163.75 149.75,149.25 149.75,149.25 166.5" fill="#000000" stroke="none" stroke-opacity="0" />
<polygon id="05-0205" points="149.25 149.5,149.25 129.25,164 129.25,164 149.75" fill="#000000" stroke="none" stroke-opacity="0" />
<polygon id="05-0206" points="148.75 114.25,148.75 98.5,164 98.5,164 114.25" fill="#000000" stroke="none" stroke-opacity="0" />
<polygon id="05-0289" points="148.75 82.25,148.75 68,164 68,164 82.5" fill="#000000" stroke="none" stroke-opacity="0" />
<polygon id="05-0207" points="149 67.75,149 47.75,164 47.75,164 68.25" fill="#000000" stroke="none" stroke-opacity="0" />
<polygon id="05-0208" points="149.25 47.75,149.25 27,163.75 27,163.75 47.75" fill="#000000" stroke="none" stroke-opacity="0" />
<polygon id="05-0209" points="163.5 27,179.25 27,179.25 48,163.75 48" fill="#000000" stroke="none" stroke-opacity="0" />
<polygon id="05-0210" points="164.25 48,179.25 48,179.25 68,164 68" fill="#000000" stroke="none" stroke-opacity="0" />
<polygon id="05-0290" points="164 68,179 68,179 82.25,163.75 82.25" fill="#000000" stroke="none" stroke-opacity="0" />
<polygon id="05-0212" points="164.25 98.75,180 98.75,180 114,164.25 114" fill="#000000" stroke="none" stroke-opacity="0" />
<polygon id="05-0213" points="163.75 129.5,179.5 129.5,179.5 150,164 150" fill="#000000" stroke="none" stroke-opacity="0" />
<polygon id="05-0214" points="164 149.75,179.25 149.75,179.25 166.5,163.5 166.5" fill="#000000" stroke="none" stroke-opacity="0" />
<polygon id="05-0215" points="163.75 166.5,179.25 166.5,179.25 180.75,164 180.75" fill="#000000" stroke="none" stroke-opacity="0" />
<polygon id="05-0216" points="164 180.5,179.25 180.5,179.25 200.75,163.75 200.75" fill="#000000" stroke="none" stroke-opacity="0" />
<polygon id="05-0217" points="164 200.75,179.25 200.75,179.25 222.5,163.75 222.5" fill="#000000" stroke="none" stroke-opacity="0" />
<polygon id="05-0218" points="193 201,208.25 201,208.25 222,192.75 222" fill="#000000" stroke="none" stroke-opacity="0" />
<polygon id="05-0219" points="208.5 209.75,222.25 209.75,222.25 222.5,208.25 222.5" fill="#000000" stroke="none" stroke-opacity="0" />
<polygon id="05-0291" points="222.25 209.75,244.25 209.75,244.25 222,222.25 222" fill="#000000" stroke="none" stroke-opacity="0" />
<polygon id="05-0220" points="251.5 201,266.25 201,266.25 222.25,252 222.25" fill="#000000" stroke="none" stroke-opacity="0" />
<polygon id="05-0221" points="266.25 201,281 201,281 222.25,266.25 222.25" fill="#000000" stroke="none" stroke-opacity="0" />
<polygon id="05-0222" points="281 201.5,295.5 201.5,295.5 222.25,280.75 222.25" fill="#000000" stroke="none" stroke-opacity="0" />
<polygon id="05-0223" points="295 200.75,310 200.75,310 222.25,295.25 222.25" fill="#000000" stroke="none" stroke-opacity="0" />
<polygon id="05-0224" points="310.25 201,325 201,325 221.75,309.75 221.75" fill="#000000" stroke="none" stroke-opacity="0" />
<polygon id="05-0225" points="324.5 201,335.25 201,335.25 222.75,324.25 222.75" fill="#000000" stroke="none" stroke-opacity="0" />
<polygon id="05-0226" points="324.75 201.25,324.75 180,336.25 180,336.25 201.5" fill="#000000" stroke="none" stroke-opacity="0" />
<polygon id="05-0227" points="309.75 180,324.75 180,324.75 201,310.25 201" fill="#000000" stroke="none" stroke-opacity="0" />
<polygon id="05-0228" points="295 180,295 201.25,310.5 201.25,310.5 179.75" fill="#000000" stroke="none" stroke-opacity="0" />
<polygon id="05-0229" points="295.25 180.25,280.5 180.25,280.5 201,295 201" fill="#000000" stroke="none" stroke-opacity="0" />
<polygon id="05-0230" points="266.25 180,266.25 201,280.5 201,280.5 180" fill="#000000" stroke="none" stroke-opacity="0" />
<polygon id="05-0231" points="251.75 180.75,251.75 201,266.75 201,266.75 180.5" fill="#000000" stroke="none" stroke-opacity="0" />
<polygon id="05-0292" points="237 180.25,237 192.75,252.25 192.75,252.25 180.5" fill="#000000" stroke="none" stroke-opacity="0" />
<polygon id="05-0232" points="216.25 179.75,216.25 192.25,237 192.25,236.75 180.25" fill="#000000" stroke="none" stroke-opacity="0" />
<polygon id="05-0233" points="193.25 180,193.25 200.75,208 200.75,208.75 180" fill="#000000" stroke="none" stroke-opacity="0" />
<polygon id="05-0234" points="193.25 170.25,193.25 149.75,207.75 149.75,207.75 170" fill="#000000" stroke="none" stroke-opacity="0" />
<polygon id="05-0235" points="207.75 149.75,222.5 149.75,222.5 170.25,207.5 170.25" fill="#000000" stroke="none" stroke-opacity="0" />
<polygon id="05-0236" points="222.5 150.25,237.25 150.25,237.25 170.25,222 170.25" fill="#000000" stroke="none" stroke-opacity="0" />
<polygon id="05-0237" points="236.75 150,251.5 150,251.5 170,237.25 170" fill="#000000" stroke="none" stroke-opacity="0" />
<polygon id="05-0238" points="251.5 150.25,266 150.25,266 170.25,251.5 170.25" fill="#000000" stroke="none" stroke-opacity="0" />
<polygon id="05-0239" points="266.25 150.25,281 150.25,281 170.25,265.75 170.25" fill="#000000" stroke="none" stroke-opacity="0" />
<polygon id="05-0240" points="281 150.25,294.75 150.25,294.75 170,281 170" fill="#000000" stroke="none" stroke-opacity="0" />
<polygon id="05-0241" points="294.5 150,310.25 150,310.25 169.75,294.5 169.75" fill="#000000" stroke="none" stroke-opacity="0" />
<polygon id="05-0242" points="310 150,324.5 150,324.5 170,310.25 170" fill="#000000" stroke="none" stroke-opacity="0" />
<polygon id="05-0243" points="324.75 129,324.75 150.25,309.75 150.25,309.75 128.75" fill="#000000" stroke="none" stroke-opacity="0" />
<polygon id="05-0244" points="309.75 129.25,295 129.25,295 150.25,309.75 150.25" fill="#000000" stroke="none" stroke-opacity="0" />
<polygon id="05-0245" points="295.25 129.25,280.75 129.25,280.75 150.25,295.5 150.25" fill="#000000" stroke="none" stroke-opacity="0" />
<polygon id="05-0246" points="266 128.75,281 128.75,281 150.5,266 150.5" fill="#000000" stroke="none" stroke-opacity="0" />
<polygon id="05-0247" points="251.5 129.25,266.25 129.25,266.25 150.5,251.5 150.5" fill="#000000" stroke="none" stroke-opacity="0" />
<polygon id="05-0248" points="237 129.25,252 129.25,252 150,237 150" fill="#000000" stroke="none" stroke-opacity="0" />
<polygon id="05-0249" points="222.5 129.25,237.25 129.25,237.25 150.5,222.5 150.5" fill="#000000" stroke="none" stroke-opacity="0" />
<polygon id="05-0250" points="207.75 129.25,222.5 129.25,222.5 150,207.75 150" fill="#000000" stroke="none" stroke-opacity="0" />
<polygon id="05-0251" points="193 129.25,207.75 129.25,207.75 150,192.75 150" fill="#000000" stroke="none" stroke-opacity="0" />
<polygon id="05-0252" points="192.75 99,208 99,208 119,192.75 119" fill="#000000" stroke="none" stroke-opacity="0" />
<polygon id="05-0253" points="208 98.75,223.25 98.75,223.25 119,207.5 119" fill="#000000" stroke="none" stroke-opacity="0" />
<polygon id="05-0254" points="223.25 98.75,223.25 118.75,237.25 118.75,237.25 98.75" fill="#000000" stroke="none" stroke-opacity="0" />
<polygon id="05-0255" points="237.25 98.75,237.25 118.5,252 118.5,252 98.75" fill="#000000" stroke="none" stroke-opacity="0" />
<polygon id="05-0256" points="251.75 98.75,251.75 118.5,266.25 118.5,266.25 98.75" fill="#000000" stroke="none" stroke-opacity="0" />
<polygon id="05-0257" points="265.75 98.5,265.75 118.5,281.25 118.5,281.25 98.75" fill="#000000" stroke="none" stroke-opacity="0" />
<polygon id="05-0258" points="281.25 98.75,281.25 118.25,295.5 118.25,295.5 98.5" fill="#000000" stroke="none" stroke-opacity="0" />
<polygon id="05-0259" points="295.25 98.5,295.25 118.5,310.25 118.5,310.25 98.75" fill="#000000" stroke="none" stroke-opacity="0" />
<polygon id="05-0260" points="310.25 98.75,324.5 98.75,324.5 118.5,310.5 118.5" fill="#000000" stroke="none" stroke-opacity="0" />
<polygon id="05-0261" points="324.75 98.75,324.75 118.75,329.25 119,334 116.5,335.5 113.25,335.75 98.75" fill="#000000" stroke="none" stroke-opacity="0" />
<polygon id="05-0262" points="324.5 98.5,324.5 79.25,336.25 79.25,336.25 99" fill="#000000" stroke="none" />
<polygon id="05-0263" points="310 79,310 98.75,324.25 98.75,324.25 78.5" fill="#000000" stroke="none" stroke-opacity="0" />
<polygon id="05-0264" points="310 79,310 99.25,294.75 99.25,294.75 79" fill="#000000" stroke="none" stroke-opacity="0" />
<polygon id="05-0265" points="294.75 79,294.75 98.75,281 98.75,281 79" fill="#000000" stroke="none" stroke-opacity="0" />
<polygon id="05-0266" points="281 79,281 98.5,266.25 98.5,266.25 79.5" fill="#000000" stroke="none" stroke-opacity="0" />
<polygon id="05-0267" points="266.5 79.25,266.5 98.75,251.25 98.75,251.25 78.75" fill="#000000" stroke="none" stroke-opacity="0" />
<polygon id="05-0268" points="237 79.25,251.25 79.25,251.25 98.75,236.75 98.75" fill="#000000" stroke="none" stroke-opacity="0" />
<polygon id="05-0269" points="237 79,222.5 79,222.5 98.5,237 98.5" fill="#000000" stroke="none" stroke-opacity="0" />
<polygon id="05-0270" points="208.25 79.25,208.25 99,223 99,223 79.25" fill="#000000" stroke="none" stroke-opacity="0" />
<polygon id="05-0271" points="193.5 79.25,193.5 99,208 99,208 79" fill="#000000" stroke="none" stroke-opacity="0" />
<polygon id="05-0272" points="192.75 69.25,192.75 47.5,207.75 47.5,207.75 69" fill="#000000" stroke="none" stroke-opacity="0" />
<polygon id="05-0273" points="207.25 47.75,221 47.75,221 69,207.5 69" fill="#000000" stroke="none" stroke-opacity="0" />
<polygon id="05-0274" points="221 48.5,237.5 48.5,237.5 68.75,221.25 68.75" fill="#000000" stroke="none" stroke-opacity="0" />
<polygon id="05-0275" points="237 48.25,252 48.25,252 69,237.25 69" fill="#000000" stroke="none" stroke-opacity="0" />
<polygon id="05-0276" points="251.5 48.5,265.5 48.5,265.5 68.25,251.75 68.25" fill="#000000" stroke="none" stroke-opacity="0" />
<polygon id="05-0277" points="266 48.25,280.75 48.25,280.75 69.5,265.5 69.5" fill="#000000" stroke="none" stroke-opacity="0" />
<polygon id="05-0278" points="280.5 48.5,294.75 48.5,294.75 69.25,280.75 69.25" fill="#000000" stroke="none" stroke-opacity="0" />
<polygon id="05-0279" points="294.75 56.25,317 56.25,317 69.5,294.75 69.5" fill="#000000" stroke="none" stroke-opacity="0" />
<polygon id="05-0280" points="324.5 47.5,324.5 68.25,336.5 68.25,336.5 47.75" fill="#000000" stroke="none" stroke-opacity="0" />
<polygon id="05-0281" points="295.25 27.5,313.75 27.5,324.25 38,313.75 38,313.75 44,295.5 44" fill="#000000" stroke="none" stroke-opacity="0" />
<polygon id="05-0282" points="295.25 27.75,295.25 48.5,281.25 48.5,281.25 27.5" fill="#000000" stroke="none" stroke-opacity="0" />
<polygon id="05-0283" points="281.5 27.75,281.5 48.25,265.75 48.25,265.75 27.25" fill="#000000" stroke="none" stroke-opacity="0" />
<polygon id="05-0284" points="251.25 27.75,266 27.75,266 48.5,251.25 48.5" fill="#000000" stroke="none" stroke-opacity="0" />
<polygon id="05-0285" points="251.25 27.5,251.25 48.25,237 48.25,237 27.5" fill="#000000" stroke="none" stroke-opacity="0" />
<polygon id="05-0286" points="237.25 28,237.25 48.75,220.75 48.75,220.75 27.5" fill="#000000" stroke="none" stroke-opacity="0" />
<polygon id="05-0287" points="221.25 27.75,221.25 47.75,207.5 47.75,207.5 27" fill="#000000" stroke="none" stroke-opacity="0" />
<polygon id="05-0288" points="207.75 27.75,207.75 47.25,193 47.25,193 27.75" fill="#000000" stroke="none" stroke-opacity="0" />
<polygon id="07-0201" points="535.75 200.75,535.75 222,541 222,545.5 220.75,549.5 218,551 214.5,551.25 201" fill="#000000" stroke="none" stroke-opacity="0" />
<polygon id="07-0202" points="535.75 200.75,535.75 181,551 181,551 201" fill="#000000" stroke="none" stroke-opacity="0" />
<polygon id="07-0203" points="536 181,536 166.25,551.25 166.25,551.25 181.25" fill="#000000" stroke="none" stroke-opacity="0" />
<polygon id="07-0204" points="536.25 166.25,536.25 149.75,550.75 149.75,550.75 166.25" fill="#000000" stroke="none" stroke-opacity="0" />
<polygon id="07-0205" points="536.5 149.75,536.5 128.75,551.5 128.75,551.5 149.75" fill="#000000" stroke="none" stroke-opacity="0" />
<polygon id="07-0206" points="536.25 113.5,536.25 98.75,551.5 98.75,551.5 114" fill="#000000" stroke="none" stroke-opacity="0" />
<polygon id="07-0290" points="536.25 83,536.25 67.5,550.75 67.5,550.75 82.75" fill="#000000" stroke="none" stroke-opacity="0" />
<polygon id="07-0207" points="536.25 67.75,536.25 48,551.25 48,551.25 68" fill="#000000" stroke="none" stroke-opacity="0" />
<polygon id="07-0208" points="536.25 48,536.25 27.5,551.25 27.5,551.25 48.25" fill="#000000" stroke="none" stroke-opacity="0" />
<polygon id="07-0209" points="536.5 27.75,521 27.75,521 48,536.75 48" fill="#000000" stroke="none" stroke-opacity="0" />
<polygon id="07-0210" points="536 48.25,536 67.75,521.25 67.75,521.25 48.25" fill="#000000" stroke="none" stroke-opacity="0" />
<polygon id="07-0291" points="521.5 67.75,536 67.75,536 83.25,521.5 83.25" fill="#000000" stroke="none" stroke-opacity="0" />
<polygon id="07-0212" points="521 98.75,536.25 98.75,536.25 114.25,520.75 114.25" fill="#000000" stroke="none" stroke-opacity="0" />
<polygon id="07-0213" points="521.25 129.5,536.75 129.5,536.75 149.75,521.25 149.75" fill="#000000" stroke="none" stroke-opacity="0" />
<polygon id="07-0214" points="521.5 149.5,536.5 149.5,536.5 166.5,520.75 166.5" fill="#000000" stroke="none" stroke-opacity="0" />
<polygon id="07-0215" points="521.25 167,535.5 167,535.5 181,521.25 181" fill="#000000" stroke="none" stroke-opacity="0" />
<polygon id="07-0216" points="521.25 181.25,535.75 181.25,535.75 200.75,521 200.75" fill="#000000" stroke="none" stroke-opacity="0" />
<polygon id="07-0217" points="521.5 200.5,535.75 200.5,535.75 222.25,520.75 222.25" fill="#000000" stroke="none" stroke-opacity="0" />
<polygon id="07-0218" points="507.25 201.25,492.25 201.25,492.25 222.25,507 222.25" fill="#000000" stroke="none" stroke-opacity="0" />
<polygon id="07-0219" points="492.25 201.5,492.25 222.75,477.5 222.75,477.5 200.75" fill="#000000" stroke="none" stroke-opacity="0" />
<polygon id="07-0220" points="477.75 201,477.75 222.5,462.75 222.5,462.75 201" fill="#000000" stroke="none" stroke-opacity="0" />
<polygon id="07-0221" points="462.75 201,462.75 222,448.25 222,448.25 201" fill="#000000" stroke="none" stroke-opacity="0" />
<polygon id="07-0222" points="448.25 201.25,434 201.25,434 222.25,448.5 222.25" fill="#000000" stroke="none" stroke-opacity="0" />
<polygon id="07-0223" points="434 201.25,419.25 201.25,419.25 222.25,434 222.25" fill="#000000" stroke="none" stroke-opacity="0" />
<polygon id="07-0224" points="404.75 201,419.25 201,419.25 222.25,404.75 222.25" fill="#000000" stroke="none" stroke-opacity="0" />
<polygon id="07-0225" points="390.25 209.5,404.75 209.5,404.75 222.25,389.75 222.25" fill="#000000" stroke="none" stroke-opacity="0" />
<polygon id="07-0226" points="390.5 209.5,375.25 209.5,375.25 222,389.75 222" fill="#000000" stroke="none" stroke-opacity="0" />
<polygon id="07-0227" points="364.25 206.5,376 206.5,376 222.25,364 222.25" fill="#000000" stroke="none" stroke-opacity="0" />
<polygon id="07-0228" points="364.75 195,364.75 180.5,376 180.5,376 195" fill="#000000" stroke="none" stroke-opacity="0" />
<polygon id="07-0229" points="385 180.5,385 192.75,405.25 192.75,405.25 180.75" fill="#000000" stroke="none" stroke-opacity="0" />
<polygon id="07-0230" points="405.5 180.75,405.5 201,419.25 201,419.25 180.5" fill="#000000" stroke="none" stroke-opacity="0" />
<polygon id="07-0231" points="419.25 180,419.25 201.25,434.25 201.25,434.25 180" fill="#000000" stroke="none" stroke-opacity="0" />
<polygon id="07-0232" points="434.25 180.25,434.25 201.25,448.25 201.25,448.25 180" fill="#000000" stroke="none" stroke-opacity="0" />
<polygon id="07-0233" points="448.25 180.25,448.25 201,463.25 201,463.25 180.25" fill="#000000" stroke="none" stroke-opacity="0" />
<polygon id="07-0234" points="463.5 180.5,463.5 201.25,477.75 201.25,477.75 180.75" fill="#000000" stroke="none" stroke-opacity="0" />
<polygon id="07-0235" points="477.75 180.25,477.75 201,492.5 201,492.5 180.5" fill="#000000" stroke="none" stroke-opacity="0" />
<polygon id="07-0236" points="492.75 180,492.75 200.75,506.75 200.75,506.75 180" fill="#000000" stroke="none" stroke-opacity="0" />
<polygon id="07-0237" points="507 150,492 150,492 169.75,507 169.75" fill="#000000" stroke="none" stroke-opacity="0" />
<polygon id="07-0238" points="492 149.75,477.25 149.75,477.25 169.75,492.25 169.75" fill="#000000" stroke="none" stroke-opacity="0" />
<polygon id="07-0239" points="477.5 150,463 150,463 169.75,477 169.75" fill="#000000" stroke="none" stroke-opacity="0" />
<polygon id="07-0240" points="463.25 150.25,448.5 149.75,448.5 169.75,463 169.75" fill="#000000" stroke="none" stroke-opacity="0" />
<polygon id="07-0241" points="448.5 150,434 150,434 169.75,448.5 169.75" fill="#000000" stroke="none" stroke-opacity="0" />
<polygon id="07-0242" points="434 150,419 150,419 169.5,433.75 169.5" fill="#000000" stroke="none" stroke-opacity="0" />
<polygon id="07-0243" points="419 150.25,405 150.25,405 169.25,419 169.25" fill="#000000" stroke="none" stroke-opacity="0" />
<polygon id="07-0244" points="405.25 150,389.75 150,389.75 169.75,404.75 169.75" fill="#000000" stroke="none" stroke-opacity="0" />
<polygon id="07-0245" points="390 150,374 150,374 170,389.75 170" fill="#000000" stroke="none" stroke-opacity="0" />
<polygon id="07-0246" points="375 129.75,375 149.75,390 149.75,390 130" fill="#000000" stroke="none" stroke-opacity="0" />
<polygon id="07-0247" points="390.5 129.5,390.5 149.75,404.75 149.75,404.75 129.25" fill="#000000" stroke="none" stroke-opacity="0" />
<polygon id="07-0248" points="404.5 129.25,404.5 149.5,419 149.5,419 129" fill="#000000" stroke="none" stroke-opacity="0" />
<polygon id="07-0249" points="419.25 129.25,419.25 150,434.25 150,434.25 128.75" fill="#000000" stroke="none" stroke-opacity="0" />
<polygon id="07-0250" points="434 129,434 150.25,448.25 150.25,448.25 129" fill="#000000" stroke="none" stroke-opacity="0" />
<polygon id="07-0251" points="448.25 129.25,448.25 149.75,463.5 149.75,463.5 129" fill="#000000" stroke="none" stroke-opacity="0" />
<polygon id="07-0252" points="463.5 129,463.5 150,477.75 150,477.75 129.25" fill="#000000" stroke="none" stroke-opacity="0" />
<polygon id="07-0253" points="477.75 129.5,477.75 149.5,492.25 149.5,492.25 129.25" fill="#000000" stroke="none" stroke-opacity="0" />
<polygon id="07-0254" points="492.5 129.5,492.5 149.75,507.75 149.75,507.75 129.5" fill="#000000" stroke="none" stroke-opacity="0" />
<polygon id="07-0255" points="506.75 99,506.75 119.25,492 119.25,492 98.5" fill="#000000" stroke="none" stroke-opacity="0" />
<polygon id="07-0256" points="492.25 99.25,477.25 99.25,477.25 119,492.25 119" fill="#000000" stroke="none" stroke-opacity="0" />
<polygon id="07-0257" points="477.5 99.5,463.25 99.5,463.25 119,477.25 119" fill="#000000" stroke="none" stroke-opacity="0" />
<polygon id="07-0258" points="463.25 99,448.25 99,448.25 118.75,463.75 118.75" fill="#000000" stroke="none" stroke-opacity="0" />
<polygon id="07-0259" points="448.5 99,434.5 99,434.5 119.75,448.75 119.75" fill="#000000" stroke="none" stroke-opacity="0" />
<polygon id="07-0260" points="419 98.75,434.75 98.75,434.75 119.25,419 119.25" fill="#000000" stroke="none" stroke-opacity="0" />
<polygon id="07-0261" points="419 98.75,419 118.75,404.5 118.75,404.5 99" fill="#000000" stroke="none" stroke-opacity="0" />
<polygon id="07-0262" points="405 99.25,390 99.25,390 119,404.75 119" fill="#000000" stroke="none" stroke-opacity="0" />
<polygon id="07-0263" points="390 99.25,375 99.25,375 119.25,389.75 119.25" fill="#000000" stroke="none" stroke-opacity="0" />
<polygon id="07-0264" points="375.25 98.75,375.25 119,369.75 119,366.25 116.25,364 112,364 98.75" fill="#000000" stroke="none" stroke-opacity="0" />
<polygon id="07-0265" points="364.25 98.75,364.25 78.5,375.75 78.5,375.75 98.75" fill="#000000" stroke="none" stroke-opacity="0" />
<polygon id="07-0266" points="376 78.75,389.75 78.75,389.75 99,375.75 99" fill="#000000" stroke="none" stroke-opacity="0" />
<polygon id="07-0267" points="389.75 79,404.75 79,404.75 99,390 99" fill="#000000" stroke="none" stroke-opacity="0" />
<polygon id="07-0268" points="404.75 79.25,418.75 79.25,418.75 99,404.5 99" fill="#000000" stroke="none" stroke-opacity="0" />
<polygon id="07-0269" points="418.75 78.75,434.25 78.75,434.25 99.25,418.5 99.25" fill="#000000" stroke="none" stroke-opacity="0" />
<polygon id="07-0270" points="434.25 79.25,448.75 79.25,448.75 98.75,434.5 98.75" fill="#000000" stroke="none" stroke-opacity="0" />
<polygon id="07-0271" points="448.75 79,463.5 79,463.5 99.25,448.5 99.25" fill="#000000" stroke="none" stroke-opacity="0" />
<polygon id="07-0272" points="463.5 79,477.5 79,477.5 99.25,463.5 99.25" fill="#000000" stroke="none" stroke-opacity="0" />
<polygon id="07-0273" points="477.5 79.25,492 79.25,492 99.25,477.5 99.25" fill="#000000" stroke="none" stroke-opacity="0" />
<polygon id="07-0274" points="492 79,507.25 79,507.25 99.25,491.5 99.25" fill="#000000" stroke="none" stroke-opacity="0" />
<polygon id="07-0275" points="507.25 48,507.25 69.25,492 69.25,492 47.75" fill="#000000" stroke="none" stroke-opacity="0" />
<polygon id="07-0276" points="484 56.5,484 69.5,456.25 69.5,456.25 56.25" fill="#000000" stroke="none" stroke-opacity="0" />
<polygon id="07-0277" points="448.5 48,448.5 69,433.75 69,433.75 47.5" fill="#000000" stroke="none" stroke-opacity="0" />
<polygon id="07-0278" points="433.75 48,419 48,419 69.5,434.25 69.5" fill="#000000" stroke="none" stroke-opacity="0" />
<polygon id="07-0279" points="419.25 48,405.25 48,405.25 68.75,419.5 68.75" fill="#000000" stroke="none" stroke-opacity="0" />
<polygon id="07-0280" points="405.5 48.25,390.25 48.25,390.25 69,405.25 69" fill="#000000" stroke="none" stroke-opacity="0" />
<polygon id="07-0281" points="390.25 48.25,375 48.25,375 68.5,390.5 68.5" fill="#000000" stroke="none" stroke-opacity="0" />
<polygon id="07-0282" points="364.25 47.25,375.5 47.25,375.5 68.25,364.25 68.25" fill="#000000" stroke="none" stroke-opacity="0" />
<polygon id="07-0283" points="375.5 38.25,375.5 48.25,390.25 48.25,390.25 27.5,386 27.5" fill="#000000" stroke="none" stroke-opacity="0" />
<polygon id="07-0284" points="390.25 27.5,405 27.5,405 48.5,390 48.5" fill="#000000" stroke="none" stroke-opacity="0" />
<polygon id="07-0285" points="405.25 27.25,418.75 27.25,418.75 48.5,404.5 48.5" fill="#000000" stroke="none" stroke-opacity="0" />
<polygon id="07-0286" points="418.5 27.25,434.25 27.25,434.25 48,418.5 48" fill="#000000" stroke="none" stroke-opacity="0" />
<polygon id="07-0287" points="434 27.5,449 27.5,449 48.25,434 48.25" fill="#000000" stroke="none" stroke-opacity="0" />
<polygon id="07-0292" points="456.5 27.75,456.5 39.5,477.5 39.5,477.5 27.75" fill="#000000" stroke="none" stroke-opacity="0" />
<polygon id="07-0288" points="478 27.5,478 39.5,492.25 39.5,492.25 27.75" fill="#000000" stroke="none" stroke-opacity="0" />
<polygon id="07-0289" points="492.25 28,492.25 47.5,507 47.5,507 27.75" fill="#000000" stroke="none" stroke-opacity="0" />
<polygon id="09-0224" points="766.25 201,762.5 235.25,782.5 236,782.5 201" fill="#000000" stroke="none" stroke-opacity="0" />
<polygon id="09-0225" points="748.75 200,766 201.5,762.5 235.25,754 234.75,742.25 232.5" fill="#000000" stroke="none" stroke-opacity="0" />
<polygon id="09-0226" points="749 199.75,742 232.75,732.75 230.5,722 227.25,732.25 195" fill="#000000" stroke="none" stroke-opacity="0" />
<polygon id="09-0227" points="732 195.25,721.75 227.25,711.5 224,702.25 220.25,715 189.5" fill="#000000" stroke="none" stroke-opacity="0" />
<polygon id="09-0228" points="691.25 196.75,708.75 204.5,706.5 209.75,700.25 207.25,695.5 218.5,683.5 212" fill="#000000" stroke="none" stroke-opacity="0" />
<polygon id="09-0229" points="691.25 196.75,674.25 187.25,665.25 201.25,673.75 207,683.5 212" fill="#000000" stroke="none" stroke-opacity="0" />
<polygon id="09-0230" points="668.5 162.75,656.25 151.5,632.25 175.75,648.25 189.75" fill="#000000" stroke="none" stroke-opacity="0" />
<polygon id="09-0231" points="655.75 152.25,643.75 139,618.5 160.5,632.25 176.25" fill="#000000" stroke="none" stroke-opacity="0" />
<polygon id="09-0232" points="643.75 139.25,632.75 125,605.25 144.5,618.25 160.75" fill="#000000" stroke="none" stroke-opacity="0" />
<polygon id="09-0233" points="605.5 144.75,594 127.25,624 109.5,632.5 125.75" fill="#000000" stroke="none" stroke-opacity="0" />
<polygon id="09-0234" points="623.5 109.75,614.5 94,584.25 108.5,594.25 127.25" fill="#000000" stroke="none" stroke-opacity="0" />
<polygon id="09-0235" points="584.75 108.5,576.75 88.75,608.25 77.75,614.5 94.5" fill="#000000" stroke="none" stroke-opacity="0" />
<polygon id="09-0236" points="608.25 78,603.5 60.75,570.75 69.25,577.25 89" fill="#000000" stroke="none" stroke-opacity="0" />
<polygon id="09-0237" points="602.75 61.25,600 44,566.75 48.75,568.75 59.25,571.25 69.5" fill="#000000" stroke="none" stroke-opacity="0" />
<polygon id="09-0238" points="600 44.25,598.5 25.25,588.25 26.25,578.75 29,572.5 33.75,568.5 40.25,567.25 49.25" fill="#000000" stroke="none" stroke-opacity="0" />
<polygon id="09-0256" points="598.5 25.75,600 44,632.5 39,630 33.25,623.5 28,613.75 24.5" fill="#000000" stroke="none" stroke-opacity="0" />
<polygon id="09-0257" points="600 44,632.25 39,635.75 53,603.25 61.5" fill="#000000" stroke="none" stroke-opacity="0" />
<polygon id="09-0258" points="603.5 61.5,608.5 77.75,639.75 67.25,635.75 53" fill="#000000" stroke="none" stroke-opacity="0" />
<polygon id="09-0259" points="608.5 77.75,614.75 94.75,645.5 80.25,639.5 67.25" fill="#000000" stroke="none" stroke-opacity="0" />
<polygon id="09-0260" points="615 94.75,624 110,652.5 93.5,645.5 79.75" fill="#000000" stroke="none" stroke-opacity="0" />
<polygon id="09-0261" points="624 110,652.25 93.5,659.5 105.5,632.75 125" fill="#000000" stroke="none" stroke-opacity="0" />
<polygon id="09-0262" points="633 125.25,659.5 105.5,668.75 117.25,643.5 139.25" fill="#000000" stroke="none" stroke-opacity="0" />
<polygon id="09-0263" points="668.5 117.25,678.75 127.5,655.5 152.5,644 139.25" fill="#000000" stroke="none" stroke-opacity="0" />
<polygon id="09-0264" points="678.5 127.5,690 137.25,669 163,656.25 152" fill="#000000" stroke="none" stroke-opacity="0" />
<polygon id="09-0265" points="701.5 145.25,683.5 173.5,698.75 182.25,714.25 152.25" fill="#000000" stroke="none" stroke-opacity="0" xmlns="http://www.w3.org/2000/svg" />
<polygon id="09-0266" points="714.25 152.25,728 158.75,715.5 190.25,699 182.25" fill="#000000" stroke="none" stroke-opacity="0" xmlns="http://www.w3.org/2000/svg" />
<polygon id="09-0267" points="728 159,741 163.5,732 195.25,715.75 189.75" fill="#000000" stroke="none" stroke-opacity="0" xmlns="http://www.w3.org/2000/svg" />
<polygon id="09-0268" points="740.75 163.5,755.75 167,748.5 200,732 195.25" fill="#000000" stroke="none" stroke-opacity="0" xmlns="http://www.w3.org/2000/svg" />
<polygon id="09-0269" points="755.5 167.25,769.25 167.5,766.25 201.25,748.25 199.75" fill="#000000" stroke="none" stroke-opacity="0" xmlns="http://www.w3.org/2000/svg" />
<polygon id="09-0270" points="766 201,782.5 201,782.5 167,769.25 167.75" fill="#000000" stroke="none" stroke-opacity="0" xmlns="http://www.w3.org/2000/svg" />

</svg>
