<?xml version="1.0" encoding="UTF-8" standalone="no"?>
<!-- Created with Inkscape (http://www.inkscape.org/) -->

<svg xmlns:dc="http://purl.org/dc/elements/1.1/" xmlns:cc="http://creativecommons.org/ns#" xmlns:rdf="http://www.w3.org/1999/02/22-rdf-syntax-ns#" xmlns:svg="http://www.w3.org/2000/svg" xmlns="http://www.w3.org/2000/svg" xmlns:xlink="http://www.w3.org/1999/xlink" xmlns:sodipodi="http://sodipodi.sourceforge.net/DTD/sodipodi-0.dtd" xmlns:inkscape="http://www.inkscape.org/namespaces/inkscape" width="770" height="410" id="svg2" version="1.1" inkscape:version="0.47pre4 " sodipodi:docname="test.svg" style="display:inline" stroke="#000000">
<defs id="defs4">
<inkscape:perspective sodipodi:type="inkscape:persp3d" inkscape:vp_x="0 : 526.18109 : 1" inkscape:vp_y="0 : 1000 : 0" inkscape:vp_z="744.09448 : 526.18109 : 1" inkscape:persp3d-origin="372.04724 : 350.78739 : 1" id="perspective10" />
<inkscape:perspective id="perspective2832" inkscape:persp3d-origin="0.5 : 0.33333333 : 1" inkscape:vp_z="1 : 0.5 : 1" inkscape:vp_y="0 : 1000 : 0" inkscape:vp_x="0 : 0.5 : 1" sodipodi:type="inkscape:persp3d" />
<script type="text/ecmascript" id="script6">
		var fdat="",sdat="";
		function onAreaOver(evt){
			var ele=evt.target; 
			fdat=ele.getAttribute('fill'); 
			sdat=ele.getAttribute('stroke');
			ele.setAttribute('fill','#006fb6');//多边形填充颜色
			ele.setAttribute('stroke','#006fb6');//stroke 多边形 边框颜色
			
		}
		function onAreaOut(evt){
			var ele=evt.target; 
			ele.setAttribute('fill',fdat);
			ele.setAttribute('stroke',sdat);
		}
		</script>
<symbol overflow="visible" id="symbol" style="overflow:visible">
<path d="m 626,156 2,-2 2,-4 0,-3 -1,-3 -4,-3 -6,-3 -5,-2 -4,-2 -4,8 -6,14" id="path9" style="fill:#000000;stroke:none" />
</symbol>
</defs>
<sodipodi:namedview id="base" pagecolor="#ffffff" bordercolor="#666666" borderopacity="1.0" inkscape:pageopacity="0.0" inkscape:pageshadow="2" inkscape:zoom="5.6" inkscape:cx="583.1007" inkscape:cy="273.63795" inkscape:document-units="px" inkscape:current-layer="svg2" showgrid="false" inkscape:window-width="1280" inkscape:window-height="740" inkscape:window-x="-4" inkscape:window-y="-4" inkscape:window-maximized="1" />
<metadata id="metadata7">
<rdf:RDF>
<cc:Work>
<dc:format>
				image/svg+xml</dc:format>
<dc:type rdf:resource="http://purl.org/dc/dcmitype/StillImage" />
<dc:title>
</dc:title>
</cc:Work>
</rdf:RDF>
</metadata>
<image xlink:href="luoyang1_2f_en.png" width="770" height="480" id="image2834" x="-485" y="255.93361" transform="translate(485,-255.9336)" inkscape:label="Layer 1" inkscape:groupmode="layer" style="display:inline" />
<polygon id="02-0254" points="617.9487 89.74358,648.0769 112.8205,676.923 148.0769,697.4359 194.8718,717.9487 169.2308,746.7949 208.9743,717.9487 248.7179,717.9487 260.8974,660.2564 261.5385,659.6154 246.1538,667.9487 235.2564,590.3846 132.0513,567.9487 134.6154,567.3077 55.76923,584.6154 55.76923,607.6923 23.71795,639.1025 62.82051" fill="#000000" stroke="#000000" />
<polygon id="02-0222" points="555.1282 79.48717,567.6282 79.80769,567.3077 132.0513,555.7692 131.7308" fill="#000000" stroke="#000000" />
<polygon id="02-0223" points="516.6666 97.75641,531.4102 97.4359,531.4102 107.6923,540.0641 108.0128,539.7436 132.3718,515.7051 132.0513" fill="#000000" stroke="#000000" />
<polygon id="02-0224" points="492.9487 98.39744,507.6923 98.07692,507.3718 132.6923,493.2692 132.3718" fill="#000000" stroke="#000000" />
<polygon id="02-0225" points="469.5513 108.0128,479.1667 107.6923,478.8462 97.4359,493.2692 97.11538,492.9487 132.3718,469.2308 132.0513" fill="#000000" stroke="#000000" />
<polygon id="02-0226" points="442.6282 55.76923,466.9872 55.44872,466.6667 79.80769,454.4872 79.48717,454.1667 133.0128,443.5898 132.6923" fill="#000000" stroke="#000000" />
<polygon id="02-0227" points="417.6282 56.08974,417.3077 133.0128,443.5898 132.6923,443.2692 54.80769" fill="#000000" stroke="#000000" />
<polygon id="02-0228" points="394.2308 56.08974,417.9487 55.76923,417.6282 132.6923,394.2308 132.3718" fill="#000000" stroke="#000000" />
<polygon id="02-0229" points="370.5128 55.76923,370.1923 79.80769,381.7308 79.48717,381.4102 132.6923,394.5513 132.3718,394.5513 55.44872" fill="#000000" stroke="#000000" />
<polygon id="02-0230" points="367.3077 80.1282,381.7308 79.80769,381.4102 133.0128,366.3462 132.6923" fill="#000000" stroke="#000000" />
<polygon id="02-0231" points="355.4487 56.08974,358.6538 108.0128,367.3077 108.0128,366.0256 132.6923,343.5898 133.3333,343.2692 55.76923" fill="#000000" stroke="#000000" />
<polygon id="02-0232" points="332.0513 55.76923,331.0898 132.6923,343.9102 132.3718,343.2692 55.1282" fill="#000000" stroke="#000000" />
<polygon id="02-0233" points="319.8718 55.76923,319.5513 132.6923,331.4102 133.3333,331.4102 55.44872" fill="#000000" stroke="#000000" />
<polygon id="02-0234" points="296.4744 108.3333,305.4487 108.0128,305.4487 79.16666,306.7308 55.44872,320.5128 55.44872,319.2308 133.6538,296.7949 131.7308" fill="#000000" stroke="#000000" />
<polygon id="02-0255" points="230.4487 26.28205,253.5256 57.05128,252.8846 133.0128,224.6795 161.859,199.6795 183.0128,179.8077 119.8718,187.5 112.5,176.9231 97.75641,176.9231 55.44872,198.7179 25.32051" fill="#000000" stroke="#000000" />
<polygon id="02-0238" points="179.5 119.5,199.5 184.25,176.5 200.5,157 138.25" fill="#000000" stroke="#000000" />
<polygon id="02-0239" points="130.75 150.5,142.5 187.25,147 219.25,176 201.75,156.75 138" fill="#000000" stroke="#000000" />
<polygon id="02-0241" points="97.25 172.25,116.25 235.75,136.25 225,126.5 196,133.5 191.75,122.75 156" fill="#000000" stroke="#000000" />
<polygon id="02-0242" points="75.25 196,100.5 181.5,110.25 216,98.25 223.5,92.25 208.75,83 215.75" fill="#000000" stroke="#000000" />
<polygon id="02-0243" points="48.25 188,54.25 255.5,116.75 237.25,110.75 216,99 224,92.25 209.25,83.25 216.5,75 195.5,100.25 181.25,97 171.75,72.25 183" fill="#000000" stroke="#000000" />
<polygon id="02-0244" points="35.75 189.5,40.5 257,53.75 256,47.75 187.5" fill="#000000" stroke="#000000" />
<polygon id="02-0245" points="23.75 190.75,35.75 189.25,40.25 257,26.75 258.5" fill="#000000" stroke="#000000" />
<polygon id="02-0246" points="11.75 191.5,23.5 191,26.5 259.25,13 259" fill="#000000" stroke="#000000" />
<polygon id="02-0247" points="-0.5 191.25,11.75 191.5,12.75 260.25,0 260.25" fill="#000000" stroke="#000000" />
<polygon id="02-0256" points="455 79.75,469.5 80,469.25 132.75,454.25 133" fill="#000000" stroke="#000000" />
<polygon id="02-0253" points="659.75 318.5,717.5 318.25,717.75 356.75,703.25 375.25,703.75 394,688.75 393.5,688.75 374.25,660.5 375" fill="#000000" stroke="#000000" />
<polygon id="02-0210" points="660.25 393.75,703.75 393.75,703.75 431.5,660.25 431.5" fill="#000000" stroke="#000000" />
<polygon id="02-0252" points="660 431.25,660 450.75,703.5 450.75,703.5 431.5" fill="#000000" stroke="#000000" />
<polygon id="02-0251" points="660.25 450.5,660.25 479.5,702.5 479.5,702.5 451" fill="#000000" stroke="#000000" />
<polygon id="09-0201" points="97.25 258.75,111.75 273.25,123 286.75,145.5 254.75,135.5 242.5,117 250.5" fill="#000000" stroke="#000000" />
<polygon id="09-0203" points="129 294.25,152 262.25,162.25 278.75,172.25 295.5,146.5 322.5,137.5 306.75" fill="#000000" stroke="#000000" />
<polygon id="09-0204" points="145.75 320.5,150.75 330.5,155 340.75,182.25 318.5,176.75 304.75,171.5 294" fill="#000000" stroke="#000000" />
<polygon id="09-0205" points="154.25 339.5,159.25 350.25,162.5 359.5,191.75 342.5,188.25 328.5,183.25 318" fill="#000000" stroke="#000000" />
<polygon id="09-0206" points="162.5 359.25,165.75 369.25,169 380.75,199.75 367,195.25 351.25,192.5 341.25" fill="#000000" stroke="#000000" />
<polygon id="09-0207" points="169.25 380.5,171.25 390.5,173.5 403.75,205.75 392.25,202.25 378.75,200.25 366.75" fill="#000000" stroke="#000000" />
<polygon id="09-0208" points="174.25 402.75,177.5 424,178.25 448.75,194.25 448,202.75 439.5,208.75 427.75,209.5 413.75,207.25 401.5,206.25 392.25" fill="#000000" stroke="#000000" />
<polygon id="09-0286" points="145.75 430.75,177.75 424.25,177.5 449.75,146.75 451.5,147 441.25" fill="#000000" stroke="#000000" />
<polygon id="09-0287" points="142.75 412.25,144.25 423.5,145.75 430.25,177.75 424.25,173.5 402" fill="#000000" stroke="#000000" />
<polygon id="09-0288" points="138.75 394.25,141.25 404.25,142.75 413,173.75 402.75,169.5 380.75" fill="#000000" stroke="#000000" />
<polygon id="09-0289" points="133.25 377.75,163 359.75,168.75 381.75,139 394" fill="#000000" stroke="#000000" />
<polygon id="09-0290" points="127 361.25,130.75 369.25,133.25 378,162.25 360.25,157.75 348.25,154 339.75" fill="#000000" stroke="#000000" />
<polygon id="09-0291" points="119 345.25,123.25 353.25,127 362.5,154.5 340,150.25 328.75,144.75 320.25" fill="#000000" stroke="#000000" />
<polygon id="09-0299" points="84.75 262.5,87.25 276.75,99.75 289.5,114 301.25,123.5 287.25,110 270.5,96.5 258.25" fill="#000000" stroke="#000000" />
<polygon id="09-0294" points="87 276.75,99.25 290,91 304.5,79 293.75" fill="#000000" stroke="#000000" />
<polygon id="09-0295" points="70.25 266.25,74 290,80 294.75,87.25 276.5,85 262" fill="#000000" stroke="#000000" />
<polygon id="10-0201" points="223.75 418.75,238.75 418.75,238.75 446.75,223.5 446.75" fill="#000000" stroke="#000000" xmlns="http://www.w3.org/2000/svg" />
<polygon id="10-0202" points="224 393,239 393,239 419.25,224.5 419.25" fill="#000000" stroke="#000000" xmlns="http://www.w3.org/2000/svg" />
<polygon id="10-0203" points="224 374.75,238.75 374.75,238.75 393.5,224.75 393.5" fill="#000000" stroke="#000000" xmlns="http://www.w3.org/2000/svg" />
<polygon id="10-0204" points="224 353.75,238.75 353.75,238.75 376.5,224 376.5" fill="#000000" stroke="#000000" xmlns="http://www.w3.org/2000/svg" />
<polygon id="10-0205" points="224 334.75,238.75 334.75,238.75 355,224 355" fill="#000000" stroke="#000000" xmlns="http://www.w3.org/2000/svg" />
<polygon id="10-0206" points="223.5 288,239 288,239 314.25,224.75 314.25" fill="#000000" stroke="#000000" xmlns="http://www.w3.org/2000/svg" />
<polygon id="10-0207" points="224 262.5,239 262.5,239 287.5,224 287.5" fill="#000000" stroke="#000000" xmlns="http://www.w3.org/2000/svg" />
<polygon id="10-0208" points="224.25 222.75,239.25 222.5,239.75 196,230.75 196.25,224.5 205" fill="#000000" stroke="#000000" xmlns="http://www.w3.org/2000/svg" />
<polygon id="10-0209" points="240.25 195.75,253 195.75,253 223.25,238.75 223.25" fill="#000000" stroke="#000000" xmlns="http://www.w3.org/2000/svg" />
<polygon id="10-0210" points="238.5 263,253.25 263,253.25 289.25,237.75 289.25" fill="#000000" stroke="#000000" xmlns="http://www.w3.org/2000/svg" />
<polygon id="10-0211" points="238.25 288.25,253.75 288.25,253.75 314.25,237.75 314.25" fill="#000000" stroke="#000000" xmlns="http://www.w3.org/2000/svg" />
<polygon id="10-0212" points="238.75 334.25,253.75 334.25,253.75 354.25,238.25 354.25" fill="#000000" stroke="#000000" xmlns="http://www.w3.org/2000/svg" />
<polygon id="10-0213" points="239 354,253.75 354,253.75 374.75,239.5 374.75" fill="#000000" stroke="#000000" xmlns="http://www.w3.org/2000/svg" />
<polygon id="10-0214" points="239.25 373.5,253.25 373.5,253.25 393.25,238.25 393.25" fill="#000000" stroke="#000000" xmlns="http://www.w3.org/2000/svg" />
<polygon id="10-0215" points="238.5 393,253.5 393,253.5 419.75,239 419.75" fill="#000000" stroke="#000000" xmlns="http://www.w3.org/2000/svg" />
<polygon id="10-0216" points="239.5 419.75,253.75 419.75,253.75 446.25,238.75 446.25" fill="#000000" stroke="#000000" xmlns="http://www.w3.org/2000/svg" />
<polygon id="10-0217" points="267 419.25,281 419.25,281 446,267 446" fill="#000000" stroke="#000000" xmlns="http://www.w3.org/2000/svg" />
<polygon id="10-0218" points="281.25 433.25,295 433.25,295 447,280.5 447" fill="#000000" stroke="#000000" xmlns="http://www.w3.org/2000/svg" />
<polygon id="10-0219" points="323.25 419.25,337.5 419.25,337.5 445.75,322.5 445.75" fill="#000000" stroke="#000000" xmlns="http://www.w3.org/2000/svg" />
<polygon id="10-0220" points="337.25 419.25,351.75 419.25,351.75 446.25,336.75 446.25" fill="#000000" stroke="#000000" xmlns="http://www.w3.org/2000/svg" />
<polygon id="10-0221" points="351 419.25,364.5 419.25,364.5 446,352 446" fill="#000000" stroke="#000000" xmlns="http://www.w3.org/2000/svg" />
<polygon id="10-0222" points="365.5 418.5,379.5 418.5,379.5 447,365.25 447" fill="#000000" stroke="#000000" xmlns="http://www.w3.org/2000/svg" />
<polygon id="10-0223" points="379.75 419,394 419,394 434.25,384.75 446.75,379.75 446.75" fill="#000000" stroke="#000000" xmlns="http://www.w3.org/2000/svg" />
<polygon id="10-0224" points="394.5 419,405 419,404.5 392.75,394.25 392.75" fill="#000000" stroke="#000000" xmlns="http://www.w3.org/2000/svg" />
<polygon id="10-0225" points="379.25 392.75,394 392.75,394 419.25,379.75 419.25" fill="#000000" stroke="#000000" xmlns="http://www.w3.org/2000/svg" />
<polygon id="10-0226" points="365 392.5,365 418.75,379.5 418.75,379.5 392" fill="#000000" stroke="#000000" xmlns="http://www.w3.org/2000/svg" />
<polygon id="10-0227" points="351 392.5,364.75 392.5,364.75 419.25,351 419.25" fill="#000000" stroke="#000000" xmlns="http://www.w3.org/2000/svg" />
<polygon id="10-0228" points="337 392.25,351 392.25,351 420.25,337.25 420.25" fill="#000000" stroke="#000000" xmlns="http://www.w3.org/2000/svg" />
<polygon id="10-0229" points="323 392.5,337 392.5,337 419.75,323.25 419.75" fill="#000000" stroke="#000000" xmlns="http://www.w3.org/2000/svg" />
<polygon id="10-0230" points="288.25 392.25,309.75 392.25,309.75 414,288.25 414" fill="#000000" stroke="#000000" xmlns="http://www.w3.org/2000/svg" />
<polygon id="10-0231" points="267.25 392,281.25 392,281.25 419.5,266.75 419.5" fill="#000000" stroke="#000000" xmlns="http://www.w3.org/2000/svg" />
<polygon id="10-0232" points="267.25 353.25,267.25 380,281.25 380,281.25 352.75" fill="#000000" stroke="#000000" xmlns="http://www.w3.org/2000/svg" />
<polygon id="10-0233" points="280.75 353.25,295.75 353.25,295.75 380.5,281.25 380.5" fill="#000000" stroke="#000000" xmlns="http://www.w3.org/2000/svg" />
<polygon id="10-0234" points="295.75 353,309.75 353,309.75 380.25,296 380.25" fill="#000000" stroke="#000000" xmlns="http://www.w3.org/2000/svg" />
<polygon id="10-0235" points="309.25 352.75,323.25 352.75,323.25 380.5,309.5 380.5" fill="#000000" stroke="#000000" xmlns="http://www.w3.org/2000/svg" />
<polygon id="10-0236" points="323 353.25,337.5 353.25,337.5 379.5,323.5 379.5" fill="#000000" stroke="#000000" xmlns="http://www.w3.org/2000/svg" />
<polygon id="10-0237" points="337.75 352.75,351.75 352.75,351.75 380,338.5 380" fill="#000000" stroke="#000000" xmlns="http://www.w3.org/2000/svg" />
<polygon id="10-0238" points="351.5 353.25,366 353.25,366 379.25,351.5 379.25" fill="#000000" stroke="#000000" xmlns="http://www.w3.org/2000/svg" />
<polygon id="10-0239" points="365.5 353.25,379.5 353.25,379.5 379.75,366.25 379.75" fill="#000000" stroke="#000000" xmlns="http://www.w3.org/2000/svg" />
<polygon id="10-0240" points="379.5 353.5,395.25 353.5,395.25 379.5,379.5 379.5" fill="#000000" stroke="#000000" xmlns="http://www.w3.org/2000/svg" />
<polygon id="10-0241" points="395.25 353.5,405.5 353.5,405.5 379,394.5 379" fill="#000000" stroke="#000000" xmlns="http://www.w3.org/2000/svg" />
<polygon id="10-0242" points="394.25 353.5,405.5 353.75,405.5 339.25,400.5 328.5,394 327.25" fill="#000000" stroke="#000000" xmlns="http://www.w3.org/2000/svg" />
<polygon id="10-0243" points="379.25 327.75,393.5 327.75,393.5 353,379.25 353" fill="#000000" stroke="#000000" xmlns="http://www.w3.org/2000/svg" />
<polygon id="10-0244" points="365.25 328.25,379.75 328.25,379.75 353,365 353" fill="#000000" stroke="#000000" xmlns="http://www.w3.org/2000/svg" />
<polygon id="10-0245" points="351 327.75,351 353,365 353,365 328" fill="#000000" stroke="#000000" xmlns="http://www.w3.org/2000/svg" />
<polygon id="10-0246" points="337 328.25,351.5 328.25,351.5 353.25,336.75 353.25" fill="#000000" stroke="#000000" xmlns="http://www.w3.org/2000/svg" />
<polygon id="10-0247" points="322.75 328,337.5 328,337.5 354.25,323.25 354.25" fill="#000000" stroke="#000000" xmlns="http://www.w3.org/2000/svg" />
<polygon id="10-0248" points="308.75 327.5,308.75 353.5,323 353.5,323 327.75" fill="#000000" stroke="#000000" xmlns="http://www.w3.org/2000/svg" />
<polygon id="10-0249" points="295 327.75,295 353,308.75 353,308.75 327.5" fill="#000000" stroke="#000000" xmlns="http://www.w3.org/2000/svg" />
<polygon id="10-0250" points="281.25 327.75,281.25 354.5,295.25 354.5,295.25 327.25" fill="#000000" stroke="#000000" xmlns="http://www.w3.org/2000/svg" />
<polygon id="10-0251" points="266.75 327.5,281.25 327.5,281.25 352.5,267 352.5" fill="#000000" stroke="#000000" xmlns="http://www.w3.org/2000/svg" />
<polygon id="10-0252" points="267.25 287.75,281.25 287.75,281.25 315.25,267.25 315.25" fill="#000000" stroke="#000000" xmlns="http://www.w3.org/2000/svg" />
<polygon id="10-0253" points="281 288.25,295.25 288.25,295.25 315,281.5 315" fill="#000000" stroke="#000000" xmlns="http://www.w3.org/2000/svg" />
<polygon id="10-0254" points="295 287.75,310 287.75,310 314.25,295 314.25" fill="#000000" stroke="#000000" xmlns="http://www.w3.org/2000/svg" />
<polygon id="10-0255" points="309.5 287.75,323.25 287.75,323.25 314.5,309 314.5" fill="#000000" stroke="#000000" xmlns="http://www.w3.org/2000/svg" />
<polygon id="10-0256" points="323.25 287.75,337.75 287.75,337.75 314.75,322.75 314.75" fill="#000000" stroke="#000000" xmlns="http://www.w3.org/2000/svg" />
<polygon id="10-0257" points="336.75 288.25,351.25 288.25,351.25 314.25,337.25 314.25" fill="#000000" stroke="#000000" xmlns="http://www.w3.org/2000/svg" />
<polygon id="10-0258" points="351.75 287.75,366 287.75,366 314.25,351.75 314.25" fill="#000000" stroke="#000000" xmlns="http://www.w3.org/2000/svg" />
<polygon id="10-0259" points="366 288,379.75 288,379.75 314.75,366.25 314.75" fill="#000000" stroke="#000000" xmlns="http://www.w3.org/2000/svg" />
<polygon id="10-0260" points="379.25 287.75,394.25 288,394.25 314.25,380.25 314.5" fill="#000000" stroke="#000000" xmlns="http://www.w3.org/2000/svg" />
<polygon id="10-0261" points="379.5 262.75,393.75 262.75,393.75 287.5,379.25 287.5" fill="#000000" stroke="#000000" xmlns="http://www.w3.org/2000/svg" />
<polygon id="10-0262" points="365.75 261.75,379.5 261.75,379.5 287.75,365.25 287.75" fill="#000000" stroke="#000000" xmlns="http://www.w3.org/2000/svg" />
<polygon id="10-0263" points="351 261.5,365.75 261.5,365.75 288.5,350.5 288.5" fill="#000000" stroke="#000000" xmlns="http://www.w3.org/2000/svg" />
<polygon id="10-0264" points="336.75 261.5,351 261.5,351 287.5,336.5 287.5" fill="#000000" stroke="#000000" xmlns="http://www.w3.org/2000/svg" />
<polygon id="10-0265" points="322.75 261.25,336.75 261.25,336.75 289.25,323.5 289.25" fill="#000000" stroke="#000000" xmlns="http://www.w3.org/2000/svg" />
<polygon id="10-0266" points="309 261.75,323.5 261.75,323.5 287.75,309.25 287.75" fill="#000000" stroke="#000000" xmlns="http://www.w3.org/2000/svg" />
<polygon id="10-0267" points="295 261.25,308.5 261.25,308.5 289.75,294.75 289.75" fill="#000000" stroke="#000000" xmlns="http://www.w3.org/2000/svg" />
<polygon id="10-0268" points="280.75 261.5,294.75 261.5,294.75 288.25,281 288.25" fill="#000000" stroke="#000000" xmlns="http://www.w3.org/2000/svg" />
<polygon id="10-0269" points="266.75 261.5,280.25 261.5,280.25 289,266.5 289" fill="#000000" stroke="#000000" xmlns="http://www.w3.org/2000/svg" />
<polygon id="10-0270" points="267 222.5,267 249.5,281.25 249.5,281.25 222.75" fill="#000000" stroke="#000000" xmlns="http://www.w3.org/2000/svg" />
<polygon id="10-0271" points="281.25 222.25,295.25 222.25,295.25 250,280.75 250" fill="#000000" stroke="#000000" xmlns="http://www.w3.org/2000/svg" />
<polygon id="10-0272" points="295 222.5,310.25 222.5,310.25 250,295.25 250" fill="#000000" stroke="#000000" xmlns="http://www.w3.org/2000/svg" />
<polygon id="10-0273" points="309.5 222.25,309.5 249.25,323.25 249.25,323.25 222.75" fill="#000000" stroke="#000000" xmlns="http://www.w3.org/2000/svg" />
<polygon id="10-0274" points="323 222.25,323 249.75,337.75 249.75,337.75 221.75" fill="#000000" stroke="#000000" xmlns="http://www.w3.org/2000/svg" />
<polygon id="10-0275" points="337.25 222.5,337.25 249.25,352.25 249.25,352.25 222.5" fill="#000000" stroke="#000000" xmlns="http://www.w3.org/2000/svg" />
<polygon id="10-0276" points="351.5 222.5,351.5 249.25,365.25 249.25,365.25 222.25" fill="#000000" stroke="#000000" xmlns="http://www.w3.org/2000/svg" />
<polygon id="10-0277" points="365.5 232.25,365.5 249.25,379.75 249.25,379.75 232.5" fill="#000000" stroke="#000000" xmlns="http://www.w3.org/2000/svg" />
<polygon id="10-0278" points="394 222,394 249.5,405.5 249.5,405.5 221.5" fill="#000000" stroke="#000000" xmlns="http://www.w3.org/2000/svg" />
<polygon id="10-0279" points="393.75 195.75,393.75 221.5,406 221.5,406 196" fill="#000000" stroke="#000000" xmlns="http://www.w3.org/2000/svg" />
<polygon id="10-0280" points="365.25 195.5,365.25 212,385.75 212,385.75 195.25" fill="#000000" stroke="#000000" xmlns="http://www.w3.org/2000/svg" />
<polygon id="10-0281" points="351 195.5,351 222.5,365 222.5,365 195.25" fill="#000000" stroke="#000000" xmlns="http://www.w3.org/2000/svg" />
<polygon id="10-0282" points="337.25 195.5,337.25 222.75,350.25 222.75,350.25 195" fill="#000000" stroke="#000000" xmlns="http://www.w3.org/2000/svg" />
<polygon id="10-0283" points="323 195.75,323 222.5,337 222.5,337 195.25" fill="#000000" stroke="#000000" xmlns="http://www.w3.org/2000/svg" />
<polygon id="10-0284" points="308.75 195.5,308.5 222.5,322.25 222.75,323.5 195.25" fill="#000000" stroke="#000000" xmlns="http://www.w3.org/2000/svg" />
<polygon id="10-0285" points="295.25 196,295.25 221.75,308.75 223,309.25 195.5" fill="#000000" stroke="#000000" xmlns="http://www.w3.org/2000/svg" />
<polygon id="10-0286" points="281 195.5,280.5 222.25,295 222.75,295.5 196.25" fill="#000000" stroke="#000000" xmlns="http://www.w3.org/2000/svg" />
<polygon id="10-0287" points="267 195.5,267 222.25,280.25 222.75,281.5 195" fill="#000000" stroke="#000000" xmlns="http://www.w3.org/2000/svg" />
<polygon id="10-0288" points="295 433,309.75 432.75,309.75 447,295 447" fill="#000000" stroke="#000000" xmlns="http://www.w3.org/2000/svg" />
<polygon id="10-0289" points="309.5 392,324.25 392,324.25 413.75,310 413.75" fill="#000000" stroke="#000000" xmlns="http://www.w3.org/2000/svg" />
<polygon id="10-0290" points="239.25 244.5,253.5 244.5,253.5 264,239.75 264" fill="#000000" stroke="#000000" xmlns="http://www.w3.org/2000/svg" />
<polygon id="10-0291" points="223.75 244.75,239.25 244.75,239.25 262,223.75 262" fill="#000000" stroke="#000000" xmlns="http://www.w3.org/2000/svg" />
<polygon id="12-0201" points="597.75 419.25,597.75 446.5,606.75 444.75,612.25 434.75,612.25 419.25" fill="#000000" stroke="#000000" xmlns="http://www.w3.org/2000/svg" />
<polygon id="12-0202" points="597.75 353.25,597.75 379.75,611.75 379.75,611.75 354" fill="#000000" stroke="#000000" xmlns="http://www.w3.org/2000/svg" />
<polygon id="12-0203" points="597.75 334.75,611.75 334.75,611.75 354,597.5 354" fill="#000000" stroke="#000000" xmlns="http://www.w3.org/2000/svg" />
<polygon id="12-0204" points="597.5 287.5,597.5 314.75,612 314.75,612 288.25" fill="#000000" stroke="#000000" xmlns="http://www.w3.org/2000/svg" />
<polygon id="12-0205" points="597.25 266.5,612.25 266.5,612.25 288.5,597.75 288.5" fill="#000000" stroke="#000000" xmlns="http://www.w3.org/2000/svg" />
<polygon id="12-0206" points="597.25 247.75,611.75 247.75,611.75 267,597.5 267" fill="#000000" stroke="#000000" xmlns="http://www.w3.org/2000/svg" />
<polygon id="12-0207" points="597.5 222.75,612.25 222.75,612.25 247.5,597.5 247.5" fill="#000000" stroke="#000000" xmlns="http://www.w3.org/2000/svg" />
<polygon id="12-0208" points="597.5 196,604.75 196.5,612.75 207.25,612 222.25,597.25 222" fill="#000000" stroke="#000000" xmlns="http://www.w3.org/2000/svg" />
<polygon id="12-0209" points="583 195.75,583 223.25,597.5 223.25,597.5 195.75" fill="#000000" stroke="#000000" xmlns="http://www.w3.org/2000/svg" />
<polygon id="12-0210" points="583 223.25,583 247.5,597.25 247.5,597.25 223.25" fill="#000000" stroke="#000000" xmlns="http://www.w3.org/2000/svg" />
<polygon id="12-0211" points="583 247,583 267.25,597 267.25,597 247.75" fill="#000000" stroke="#000000" xmlns="http://www.w3.org/2000/svg" />
<polygon id="12-0212" points="582.75 266.75,582.75 288.25,596.5 288.25,596.5 267.75" fill="#000000" stroke="#000000" xmlns="http://www.w3.org/2000/svg" />
<polygon id="12-0213" points="583 288,583 314.75,597.5 314.75,597.5 287.25" fill="#000000" stroke="#000000" xmlns="http://www.w3.org/2000/svg" />
<polygon id="12-0214" points="583 334.5,597.5 334.5,597.5 353.5,583 353.5" fill="#000000" stroke="#000000" xmlns="http://www.w3.org/2000/svg" />
<polygon id="12-0215" points="583.25 353.25,583.25 380,597.5 380,597.5 352.75" fill="#000000" stroke="#000000" xmlns="http://www.w3.org/2000/svg" />
<polygon id="12-0216" points="583 418.75,583 446.75,597.25 446.75,597.25 418.75" fill="#000000" stroke="#000000" xmlns="http://www.w3.org/2000/svg" />
<polygon id="12-0217" points="554.75 419.5,569.5 419.5,569.5 446.5,555.5 446.5" fill="#000000" stroke="#000000" xmlns="http://www.w3.org/2000/svg" />
<polygon id="12-0218" points="541 419,555.5 419,555.5 447,540.75 447" fill="#000000" stroke="#000000" xmlns="http://www.w3.org/2000/svg" />
<polygon id="12-0219" points="526.75 419,541.25 419,541.25 447,527.25 447" fill="#000000" stroke="#000000" xmlns="http://www.w3.org/2000/svg" />
<polygon id="12-0220" points="512.5 418.5,512.5 448.25,527.25 448.25,527.25 418.5" fill="#000000" stroke="#000000" xmlns="http://www.w3.org/2000/svg" />
<polygon id="12-0221" points="498.5 419.5,513.5 419.5,513.5 447,499.25 447" fill="#000000" stroke="#000000" xmlns="http://www.w3.org/2000/svg" />
<polygon id="12-0222" points="485 419.25,499.75 419.25,499.75 446.75,484.75 446.75" fill="#000000" stroke="#000000" xmlns="http://www.w3.org/2000/svg" />
<polygon id="12-0223" points="471 419,485 419,485 447.25,469.75 447.25" fill="#000000" stroke="#000000" xmlns="http://www.w3.org/2000/svg" />
<polygon id="12-0224" points="442.5 428.75,442.5 435,451.5 446,468.75 446.5,469.5 429.25" fill="#000000" stroke="#000000" xmlns="http://www.w3.org/2000/svg" />
<polygon id="12-0225" points="432 392,432 420,443 420,443 392" fill="#000000" stroke="#000000" xmlns="http://www.w3.org/2000/svg" />
<polygon id="12-0226" points="450.5 391.75,450.5 409.5,471.25 409.5,471.25 392.75" fill="#000000" stroke="#000000" xmlns="http://www.w3.org/2000/svg" />
<polygon id="12-0227" points="471.5 392.5,485 392.5,485 419,470.5 419" fill="#000000" stroke="#000000" xmlns="http://www.w3.org/2000/svg" />
<polygon id="12-0228" points="485 392.5,499.25 392.5,499.25 419.25,485.25 419.25" fill="#000000" stroke="#000000" xmlns="http://www.w3.org/2000/svg" />
<polygon id="12-0229" points="499 392.25,513 392.25,513 419.25,500.25 419.25" fill="#000000" stroke="#000000" xmlns="http://www.w3.org/2000/svg" />
<polygon id="12-0230" points="513.5 392.5,527.25 392.5,527.25 417.75,514 417.75" fill="#000000" stroke="#000000" xmlns="http://www.w3.org/2000/svg" />
<polygon id="12-0231" points="527.25 392.75,541.75 392.75,541.75 418.75,527.25 418.75" fill="#000000" stroke="#000000" xmlns="http://www.w3.org/2000/svg" />
<polygon id="12-0232" points="541.5 392.5,555.75 392.5,555.75 419.5,542.25 419.5" fill="#000000" stroke="#000000" xmlns="http://www.w3.org/2000/svg" />
<polygon id="12-0233" points="555.75 392.5,569.5 392.5,569.5 419.75,555.75 419.75" fill="#000000" stroke="#000000" xmlns="http://www.w3.org/2000/svg" />
<polygon id="12-0234" points="555 353.25,570.25 353.25,570.25 380,555 380" fill="#000000" stroke="#000000" xmlns="http://www.w3.org/2000/svg" />
<polygon id="12-0235" points="541 353.5,556 353.5,556 380,540.75 380" fill="#000000" stroke="#000000" xmlns="http://www.w3.org/2000/svg" />
<polygon id="12-0236" points="527 352.75,541.75 352.75,541.75 380.5,527.25 380.75" fill="#000000" stroke="#000000" xmlns="http://www.w3.org/2000/svg" />
<polygon id="12-0237" points="512.75 353.5,526.5 353.5,526.5 380.25,512.5 380.25" fill="#000000" stroke="#000000" xmlns="http://www.w3.org/2000/svg" />
<polygon id="12-0238" points="498.75 353,512.75 353,512.75 379.75,499.25 379.75" fill="#000000" stroke="#000000" xmlns="http://www.w3.org/2000/svg" />
<polygon id="12-0239" points="485 353,485 381,498.75 381,498.75 353" fill="#000000" stroke="#000000" xmlns="http://www.w3.org/2000/svg" />
<polygon id="12-0240" points="471 352.75,471 380,484.5 380,484.5 353.25" fill="#000000" stroke="#000000" xmlns="http://www.w3.org/2000/svg" />
<polygon id="12-0241" points="457 353,457 380.75,471 380.75,471 353" fill="#000000" stroke="#000000" xmlns="http://www.w3.org/2000/svg" />
<polygon id="12-0242" points="442.25 354,442.25 381,457.25 381,457.25 353.5" fill="#000000" stroke="#000000" xmlns="http://www.w3.org/2000/svg" />
<polygon id="12-0243" points="432.5 353.75,432.5 380.5,441.75 380.5,441.75 353.75" fill="#000000" stroke="#000000" xmlns="http://www.w3.org/2000/svg" />
<polygon id="12-0244" points="432.25 353.5,432 339.5,433.75 333.5,438.5 327.75,443.25 328.5,443 353.5" fill="#000000" stroke="#000000" xmlns="http://www.w3.org/2000/svg" />
<polygon id="12-0245" points="443.5 328,457.25 328,457.25 353.25,443.5 353.25" fill="#000000" stroke="#000000" xmlns="http://www.w3.org/2000/svg" />
<polygon id="12-0246" points="457.25 327.5,472 327.5,472 353.25,457.75 353.25" fill="#000000" stroke="#000000" xmlns="http://www.w3.org/2000/svg" />
<polygon id="12-0247" points="471.5 327.75,484.75 327.75,484.75 352.75,471.75 352.75" fill="#000000" stroke="#000000" xmlns="http://www.w3.org/2000/svg" />
<polygon id="12-0248" points="485 327.75,499 327.75,499 353.5,484.5 353.5" fill="#000000" stroke="#000000" xmlns="http://www.w3.org/2000/svg" />
<polygon id="12-0249" points="499.5 327.5,513.5 327.5,513.5 353.75,499.5 353.75" fill="#000000" stroke="#000000" xmlns="http://www.w3.org/2000/svg" />
<polygon id="12-0250" points="513.75 327.75,527.25 327.75,527.25 354.25,514 354.25" fill="#000000" stroke="#000000" xmlns="http://www.w3.org/2000/svg" />
<polygon id="12-0251" points="527.5 327.75,541.25 327.75,541.25 354,527.5 354" fill="#000000" stroke="#000000" xmlns="http://www.w3.org/2000/svg" />
<polygon id="12-0252" points="541.5 327.5,555.25 327.5,555.25 353.5,542 353.5" fill="#000000" stroke="#000000" xmlns="http://www.w3.org/2000/svg" />
<polygon id="12-0253" points="556 327.75,569.5 327.75,569.5 353,556.25 353" fill="#000000" stroke="#000000" xmlns="http://www.w3.org/2000/svg" />
<polygon id="12-0254" points="555 287.75,555 314.75,570.25 314.75,570.25 288" fill="#000000" stroke="#000000" xmlns="http://www.w3.org/2000/svg" />
<polygon id="12-0255" points="540.75 287.75,555.5 287.75,555.5 314.5,540.75 314.5" fill="#000000" stroke="#000000" xmlns="http://www.w3.org/2000/svg" />
<polygon id="12-0256" points="526.75 287.75,540.75 287.75,540.75 314.5,527 314.5" fill="#000000" stroke="#000000" xmlns="http://www.w3.org/2000/svg" />
<polygon id="12-0257" points="512.5 287.5,527.25 287.5,527.25 314.5,512.5 314.5" fill="#000000" stroke="#000000" xmlns="http://www.w3.org/2000/svg" />
<polygon id="12-0258" points="499.25 288.25,512.5 287.75,512.5 315.5,498.5 315.5" fill="#000000" stroke="#000000" xmlns="http://www.w3.org/2000/svg" />
<polygon id="12-0259" points="485.25 287.75,499 287.75,499 314.5,484.75 314.5" fill="#000000" stroke="#000000" xmlns="http://www.w3.org/2000/svg" />
<polygon id="12-0260" points="471 287.75,471 314.75,484.5 314.75,484.5 287" fill="#000000" stroke="#000000" xmlns="http://www.w3.org/2000/svg" />
<polygon id="12-0261" points="457.25 287.75,471 287.75,471 314.75,456.75 314.75" fill="#000000" stroke="#000000" xmlns="http://www.w3.org/2000/svg" />
<polygon id="12-0262" points="442.5 288.25,457.25 288.25,457.25 314,441.75 314" fill="#000000" stroke="#000000" xmlns="http://www.w3.org/2000/svg" />
<polygon id="12-0263" points="442 262.5,457.5 262.5,457.5 288,442.25 288" fill="#000000" stroke="#000000" xmlns="http://www.w3.org/2000/svg" />
<polygon id="12-0264" points="457 262,471.25 262,471.25 288.25,457.5 288.25" fill="#000000" stroke="#000000" xmlns="http://www.w3.org/2000/svg" />
<polygon id="12-0265" points="471.5 262.25,485 262.25,485 287.75,471.25 287.75" fill="#000000" stroke="#000000" xmlns="http://www.w3.org/2000/svg" />
<polygon id="12-0266" points="485 262,499.75 262,499.75 288.75,484.5 288.75" fill="#000000" stroke="#000000" xmlns="http://www.w3.org/2000/svg" />
<polygon id="12-0267" points="499.75 262.25,513.25 262.25,513.25 288.75,499.5 288.75" fill="#000000" stroke="#000000" xmlns="http://www.w3.org/2000/svg" />
<polygon id="12-0268" points="513.25 262.25,528 262.25,528 288,513.5 288" fill="#000000" stroke="#000000" xmlns="http://www.w3.org/2000/svg" />
<polygon id="12-0269" points="528.25 262.25,542 262.25,542 289,529 289" fill="#000000" stroke="#000000" xmlns="http://www.w3.org/2000/svg" />
<polygon id="12-0270" points="542 262.5,556.25 262.5,556.25 288.5,542.25 288.5" fill="#000000" stroke="#000000" xmlns="http://www.w3.org/2000/svg" />
<polygon id="12-0271" points="556.25 262.25,569.5 262.25,569.5 288.5,557.25 288.5" fill="#000000" stroke="#000000" xmlns="http://www.w3.org/2000/svg" />
<polygon id="12-0272" points="555.25 222.75,569.25 222.75,569.25 250.25,555.5 250.25" fill="#000000" stroke="#000000" xmlns="http://www.w3.org/2000/svg" />
<polygon id="12-0273" points="527 228.75,548.75 228.75,548.75 249.75,526.75 249.75" fill="#000000" stroke="#000000" xmlns="http://www.w3.org/2000/svg" />
<polygon id="12-0274" points="499 223,513 223,513 249.5,499.5 249.5" fill="#000000" stroke="#000000" xmlns="http://www.w3.org/2000/svg" />
<polygon id="12-0275" points="484.75 222.5,499.5 222.5,499.5 249.75,484.75 249.75" fill="#000000" stroke="#000000" xmlns="http://www.w3.org/2000/svg" />
<polygon id="12-0276" points="470.75 222.25,486 222.25,486 250,470.5 250" fill="#000000" stroke="#000000" xmlns="http://www.w3.org/2000/svg" />
<polygon id="12-0277" points="457 222.5,470.5 222.5,470.5 250,456.5 250" fill="#000000" stroke="#000000" xmlns="http://www.w3.org/2000/svg" />
<polygon id="12-0278" points="442.5 222,456.75 222,456.75 250,443 250" fill="#000000" stroke="#000000" xmlns="http://www.w3.org/2000/svg" />
<polygon id="12-0279" points="432.25 228.5,442.5 228.5,442.5 249.75,431.25 249.75" fill="#000000" stroke="#000000" xmlns="http://www.w3.org/2000/svg" />
<polygon id="12-0280" points="432 195.5,443 195.5,443 210.25,432.75 210.25" fill="#000000" stroke="#000000" xmlns="http://www.w3.org/2000/svg" />
<polygon id="12-0281" points="443.75 195.25,457 195.25,457 223,443.25 223" fill="#000000" stroke="#000000" xmlns="http://www.w3.org/2000/svg" />
<polygon id="12-0282" points="457.5 195,471 195,471 222.25,457.75 222.25" fill="#000000" stroke="#000000" xmlns="http://www.w3.org/2000/svg" />
<polygon id="12-0283" points="471.25 195.75,485 195.75,485 222.5,472 222.5" fill="#000000" stroke="#000000" xmlns="http://www.w3.org/2000/svg" />
<polygon id="12-0284" points="485.5 195.25,499.5 195.25,499.5 223.5,485 223.5" fill="#000000" stroke="#000000" xmlns="http://www.w3.org/2000/svg" />
<polygon id="12-0285" points="500 195,513 195,513 223.5,500.25 223.5" fill="#000000" stroke="#000000" xmlns="http://www.w3.org/2000/svg" />
<polygon id="12-0286" points="527 195.75,541.5 195.75,541.5 209.5,527 209.5" fill="#000000" stroke="#000000" xmlns="http://www.w3.org/2000/svg" />
<polygon id="12-0287" points="556 195.75,556 222.25,569.25 222.25,569.25 196.25" fill="#000000" stroke="#000000" xmlns="http://www.w3.org/2000/svg" />
<polygon id="12-0288" points="541.5 195.5,555.75 195.5,555.75 209.25,541.25 209.25" fill="#000000" stroke="#000000" xmlns="http://www.w3.org/2000/svg" />
<polygon id="12-0289" points="597.25 379.25,597.25 397.5,611.5 397.5,611.5 380.25" fill="#000000" stroke="#000000" xmlns="http://www.w3.org/2000/svg" />
<polygon id="12-0290" points="583.25 379.75,583.25 397.75,597 397.75,597 380" fill="#000000" stroke="#000000" xmlns="http://www.w3.org/2000/svg" />
<polygon id="12-0291" points="513.5 228.75,521.25 229,521 250,512.75 249.25" fill="#000000" stroke="#000000" xmlns="http://www.w3.org/2000/svg" />
<polygon id="12-0292" points="597.75 397,597.75 419.5,612.5 419.5,612.5 397.75" fill="#000000" stroke="#000000" xmlns="http://www.w3.org/2000/svg" />
<polygon id="12-0293" points="583.25 397.75,583.25 419,597.75 419,597.75 398.5" fill="#000000" stroke="#000000" xmlns="http://www.w3.org/2000/svg" />

</svg>
