<?xml version="1.0" encoding="UTF-8" standalone="no"?>
<!-- Created with Inkscape (http://www.inkscape.org/) -->

<svg xmlns:dc="http://purl.org/dc/elements/1.1/" xmlns:cc="http://creativecommons.org/ns#" xmlns:rdf="http://www.w3.org/1999/02/22-rdf-syntax-ns#" xmlns:svg="http://www.w3.org/2000/svg" xmlns="http://www.w3.org/2000/svg" xmlns:xlink="http://www.w3.org/1999/xlink" xmlns:sodipodi="http://sodipodi.sourceforge.net/DTD/sodipodi-0.dtd" xmlns:inkscape="http://www.inkscape.org/namespaces/inkscape" width="770" height="480" id="svg2" version="1.1" inkscape:version="0.47pre4 " sodipodi:docname="test.svg" style="display:inline" stroke="#000000">
<defs id="defs4">
<inkscape:perspective sodipodi:type="inkscape:persp3d" inkscape:vp_x="0 : 526.18109 : 1" inkscape:vp_y="0 : 1000 : 0" inkscape:vp_z="744.09448 : 526.18109 : 1" inkscape:persp3d-origin="372.04724 : 350.78739 : 1" id="perspective10" />
<inkscape:perspective id="perspective2832" inkscape:persp3d-origin="0.5 : 0.33333333 : 1" inkscape:vp_z="1 : 0.5 : 1" inkscape:vp_y="0 : 1000 : 0" inkscape:vp_x="0 : 0.5 : 1" sodipodi:type="inkscape:persp3d" />
<script type="text/ecmascript" id="script6">
		var fdat="",sdat="";
		function onAreaOver(evt){
			var ele=evt.target; 
			fdat=ele.getAttribute('fill'); 
			sdat=ele.getAttribute('stroke');
			ele.setAttribute('fill','#006fb6');//多边形填充颜色
			ele.setAttribute('stroke','#006fb6');//stroke 多边形 边框颜色
			
		}
		function onAreaOut(evt){
			var ele=evt.target; 
			ele.setAttribute('fill',fdat);
			ele.setAttribute('stroke',sdat);
		}
		</script>
<symbol overflow="visible" id="symbol" style="overflow:visible">
<path d="m 626,156 2,-2 2,-4 0,-3 -1,-3 -4,-3 -6,-3 -5,-2 -4,-2 -4,8 -6,14" id="path9" style="fill:#000000;stroke:none" />
</symbol>
</defs>
<sodipodi:namedview id="base" pagecolor="#ffffff" bordercolor="#666666" borderopacity="1.0" inkscape:pageopacity="0.0" inkscape:pageshadow="2" inkscape:zoom="5.6" inkscape:cx="583.1007" inkscape:cy="273.63795" inkscape:document-units="px" inkscape:current-layer="svg2" showgrid="false" inkscape:window-width="1280" inkscape:window-height="740" inkscape:window-x="-4" inkscape:window-y="-4" inkscape:window-maximized="1" />
<metadata id="metadata7">
<rdf:RDF>
<cc:Work>
<dc:format>
				image/svg+xml</dc:format>
<dc:type rdf:resource="http://purl.org/dc/dcmitype/StillImage" />
<dc:title>
</dc:title>
</cc:Work>
</rdf:RDF>
</metadata>
<image xlink:href="luoyang1_1f_ds.png" width="770" height="480" id="image2834" x="-485" y="255.93361" transform="translate(485,-255.9336)" inkscape:label="Layer 1" inkscape:groupmode="layer" style="display:inline" />
<polygon id="03-1134" points="15.5 253.75,55.5 277.25,75.75 236.75,69.5 232.25,69.75 215.5,38.5 215.5" fill="#000000" stroke="#000000" />
<polygon id="03-1135" points="76.5 236.5,90.75 245,76.75 271.25,62.75 263" fill="#000000" stroke="#000000" />
<polygon id="03-1136" points="69.75 215,99.5 215.5,105 220,90.75 245,69.75 232.25" fill="#000000" stroke="#000000" />
<polygon id="03-1187" points="69.5 197.75,69.5 216.5,102 216.75,110.5 201.5,95 201,94.75 198" fill="#000000" stroke="#000000" />
<polygon id="03-1199" points="39.5 198.75,68.5 198.25,68.75 215,39.25 215.5" fill="#000000" stroke="#000000" />
<polygon id="03-1184" points="98 185,98.5 201.5,111 201.5,109.5 184.75" fill="#000000" stroke="#000000" />
<polygon id="03-1185" points="39.5 185.75,70 185.5,70.25 198.5,39.25 199.25" fill="#000000" stroke="#000000" />
<polygon id="03-1138" points="84 155.5,84 170.75,110.5 170.5,110.5 155.5" fill="#000000" stroke="#000000" />
<polygon id="03-1132" points="70 156,69.5 170.5,40.25 170.25,40 156" fill="#000000" stroke="#000000" />
<polygon id="03-1139" points="69.5 155.75,110.75 156,110.75 140.75,69.25 140.75" fill="#000000" stroke="#000000" />
<polygon id="03-1131" points="39.75 155.5,69.25 155.75,69.25 140,40.5 140" fill="#000000" stroke="#000000" />
<polygon id="03-1140" points="68.75 127,110.5 127,110.5 140.75,69 140.75" fill="#000000" stroke="#000000" />
<polygon id="03-1130" points="40.25 126.75,69.25 127.25,69.25 140.25,39.75 140.75" fill="#000000" stroke="#000000" />
<polygon id="03-1141" points="69 112,111 112,111 127.75,69.25 127.75" fill="#000000" stroke="#000000" />
<polygon id="03-1129" points="38.75 112,70 111.25,69.25 127.5,40.25 127.5" fill="#000000" stroke="#000000" />
<polygon id="03-1142" points="69.5 97.25,110 97.25,110 112.5,69.75 112.5" fill="#000000" stroke="#000000" />
<polygon id="03-1128" points="39 97,69.5 96.75,68.75 113.5,39 112.25" fill="#000000" stroke="#000000" />
<polygon id="03-1143" points="69.75 83.75,69.75 97.75,99.75 97.75,99.75 83.5" fill="#000000" stroke="#000000" />
<polygon id="03-1127" points="54.25 68,70.5 67.75,70.5 97.25,38.5 97.5,53.75 82.5" fill="#000000" stroke="#000000" />
<polygon id="03-1198" points="69.25 54,99.75 54,99.75 68.5,69 68.5" fill="#000000" stroke="#000000" />
<polygon id="03-1146" points="69.5 53.5,100 53.5,100 38.75,69.5 38.75" fill="#000000" stroke="#000000" />
<polygon id="03-1147" points="69.25 23.75,69.25 39.5,100.5 39.5,100.5 24" fill="#000000" stroke="#000000" />
<polygon id="03-1126" points="54 24,54.75 32.75,46 32.25,36 42.5,36 58.25,46.75 69.25,68.5 68,68.5 24" fill="#000000" stroke="#000000" />
<polygon id="04-1101" points="148 273.75,165.25 281.5,151.75 309,135.25 300.5" fill="#000000" stroke="#000000" />
<polygon id="04-1102" points="164.5 281.5,208.5 301.75,198 329,192 324.75,185.75 340.5,144.75 322" fill="#000000" stroke="#000000" />
<polygon id="04-1103" points="208.75 301.5,223.75 308,213 335,199 329.25" fill="#000000" stroke="#000000" />
<polygon id="04-1104" points="224 307.75,238.75 315,228.75 341.75,212.75 335" fill="#000000" stroke="#000000" />
<polygon id="04-1105" points="239 314.25,254.5 320,244 347.75,229.5 342.75" fill="#000000" stroke="#000000" />
<polygon id="04-1106" points="254.25 320.25,269.75 326.5,259.75 353.5,244.25 347.75" fill="#000000" stroke="#000000" />
<polygon id="04-1107" points="269.5 326,284.25 331.25,274.75 358.75,260 353.5" fill="#000000" stroke="#000000" />
<polygon id="04-1108" points="288.25 320.75,304.75 326,290.5 365.75,275.25 360.25" fill="#000000" stroke="#000000" />
<polygon id="04-1109" points="304 326,320 331.25,307 370,291 365.5" fill="#000000" stroke="#000000" />
<polygon id="04-1110" points="320 331.5,335.75 336.5,323 376.25,307.5 370.25" fill="#000000" stroke="#000000" />
<polygon id="04-1111" points="335.5 336.25,350.75 341.75,338.25 380.75,322.25 375.75" fill="#000000" stroke="#000000" />
<polygon id="04-1112" points="362 360.5,377.75 364.75,370.5 391.25,354.75 386" fill="#000000" stroke="#000000" />
<polygon id="04-1113" points="362 359.5,378.25 364.25,389.75 323.25,374.25 318" fill="#000000" stroke="#000000" />
<polygon id="04-1114" points="382.25 351,397.25 355.25,386 395,371 391.75" fill="#000000" stroke="#000000" />
<polygon id="04-1115" points="397.25 355.25,414.5 360.25,403 400.25,386 395.25" fill="#000000" stroke="#000000" />
<polygon id="04-1116" points="476.5 375.5,467.75 415.25,484.75 418.25,492.75 377.5" fill="#000000" stroke="#000000" />
<polygon id="04-1117" points="492.75 377.25,508.75 381,500.75 421.75,484.5 419" fill="#000000" stroke="#000000" />
<polygon id="04-1118" points="509 381,524.5 384.75,517.25 424.5,500.5 422.25" fill="#000000" stroke="#000000" />
<polygon id="04-1119" points="523.75 384,540.75 386.75,534 428.25,517.5 424.75" fill="#000000" stroke="#000000" />
<polygon id="04-1120" points="540.25 386.75,557 389.5,550.75 430.5,534.5 428.25" fill="#000000" stroke="#000000" />
<polygon id="04-1121" points="556.75 389,573 392,565.75 433,551.25 431.25" fill="#000000" stroke="#000000" />
<polygon id="04-1122" points="573 391.75,588.75 394.25,583.25 436.25,566.25 434" fill="#000000" stroke="#000000" />
<polygon id="04-1123" points="588.75 394.25,606.25 396.5,601 437.5,584.25 436.25" fill="#000000" stroke="#000000" />
<polygon id="04-1124" points="605.75 396.75,621.5 398.25,617 439,600.5 437.25" fill="#000000" stroke="#000000" />
<polygon id="04-1125" points="637 399.5,661.75 403,693.75 405,718.25 405.25,716.5 448.5,691.5 469.25,658 466.5,639.25 441.75,633 441.5" fill="#000000" stroke="#000000" />
<polygon id="04-1126" points="718.5 404.75,735.25 405.5,734 448.5,716 447.5" fill="#000000" stroke="none" stroke-opacity="0" />
<polygon id="04-1127" points="719.25 376.75,736.5 377.75,735.25 406.25,717.5 405" fill="#000000" stroke="none" stroke-opacity="0" />
<polygon id="04-1128" points="607.75 368,624.75 369.5,621.5 399.5,604.25 396.75" fill="#000000" stroke="#000000" />
<polygon id="04-1129" points="592.25 366,607.5 367.75,604 396.5,588.5 394.5" fill="#000000" stroke="#000000" />
<polygon id="04-1130" points="576.75 363.25,592.5 365.75,588 394.75,573.5 392.75" fill="#000000" stroke="#000000" />
<polygon id="04-1131" points="560.5 361,577.5 363,573.25 392.5,556.5 389.75" fill="#000000" stroke="#000000" />
<polygon id="04-1132" points="543.25 369.5,559.25 371.75,555.75 390.5,540.5 387.5" fill="#000000" stroke="#000000" />
<polygon id="04-1133" points="527.5 366.25,543.5 369,540.75 387.5,523.75 384.25" fill="#000000" stroke="#000000" />
<polygon id="04-1134" points="512.25 363.25,528 365.75,523 385,507 382.25" fill="#000000" stroke="#000000" />
<polygon id="04-1135" points="496.25 360.25,512.25 362.75,508.25 382,492.5 378.75" fill="#000000" stroke="#000000" />
<polygon id="04-1136" points="480.75 357.25,496.5 359.75,492.5 378,477 376.75" fill="#000000" stroke="#000000" />
<polygon id="04-1137" points="464.5 353.5,480.25 356.5,472.75 389.25,457.5 386.5" fill="#000000" stroke="#000000" />
<polygon id="04-1138" points="449 350,464.5 353,457.25 386.75,441.75 382.25" fill="#000000" stroke="#000000" />
<polygon id="04-1139" points="404.75 327.75,421.25 330.75,414 359.75,397.5 355.5" fill="#000000" stroke="#000000" />
<polygon id="04-1140" points="390.5 322.75,405 327.25,397.25 355,382 351.25" fill="#000000" stroke="#000000" />
<polygon id="04-1141" points="358.75 314.25,367.5 316,364 326.75,355.25 324.25" fill="#000000" stroke="#000000" />
<polygon id="04-1142" points="344 309.25,359 313.75,351.5 341.75,335.25 336" fill="#000000" stroke="#000000" />
<polygon id="04-1143" points="328.75 303.75,344.5 309.25,334 338.75,319.5 331.75" fill="#000000" stroke="#000000" />
<polygon id="04-1144" points="313.75 299,328.75 304.5,319.5 333,303.75 327" fill="#000000" stroke="#000000" />
<polygon id="04-1145" points="298.25 292.75,313.5 298.75,303.25 328.5,287.75 322.25" fill="#000000" stroke="#000000" />
<polygon id="04-1146" points="283.75 287.5,298 292.75,284.25 331.5,269.25 325.5" fill="#000000" stroke="#000000" />
<polygon id="04-1147" points="268.25 282.5,283.5 287.5,269.5 326.75,254 321" fill="#000000" stroke="#000000" />
<polygon id="04-1148" points="253.75 276.25,268.5 282,254 320.75,237 315.5" fill="#000000" stroke="#000000" />
<polygon id="04-1149" points="238.75 269.75,254.25 276.5,237.75 314.5,222.75 308" fill="#000000" stroke="#000000" />
<polygon id="04-1150" points="190.5 262,205.5 268.5,193.5 295.75,179.25 287.75" fill="#000000" stroke="#000000" />
<polygon id="04-1151" points="176.75 254.75,190.5 261.75,179.5 288.75,163.25 281.25" fill="#000000" stroke="#000000" />
<polygon id="04-1152" points="160.75 247.5,176.5 255.25,163 282.5,147.75 274.5" fill="#000000" stroke="#000000" />
<polygon id="04-1153" points="351 238.25,365.5 243.75,353 282.5,344 272,341.25 256.75,345.5 244.5" fill="#000000" stroke="#000000" />
<polygon id="04-1154" points="365.75 243.75,380.75 248,368 287.75,353 283" fill="#000000" stroke="#000000" />
<polygon id="04-1155" points="380.25 248,394.25 252.5,382.5 292.25,368.5 288.5" fill="#000000" stroke="#000000" />
<polygon id="04-1156" points="394.25 252.25,409 257,398 296,382.25 291.75" fill="#000000" stroke="#000000" />
<polygon id="04-1157" points="409 257,423.5 261,413 300.5,398.25 296.25" fill="#000000" stroke="#000000" />
<polygon id="04-1158" points="423.5 261,438.75 265,427.75 304.75,413 301.5" fill="#000000" strsoke="#000000" />
<polygon id="04-1159" points="437.25 270.5,451.75 274.75,442.75 308.25,427.75 305.5" fill="#000000" stroke="none" stroke-opacity="0" />
<polygon id="04-1160" points="467.25 272.5,482.5 275.5,473.25 315.75,458 312" fill="#000000" stroke="none" stroke-opacity="0" />
<polygon id="04-1161" points="482.5 276.25,497 279.5,489 319.25,473 315.75" fill="#000000" stroke="none" stroke-opacity="0" />
<polygon id="04-1162" points="496.75 279.75,512.75 282.75,504 322.25,487.75 318.75" fill="#000000" stroke="none" stroke-opacity="0" />
<polygon id="04-1163" points="511.75 282.5,528 285.25,519.5 325.25,503 322.25" fill="#000000" stroke="none" stroke-opacity="0" />
<polygon id="04-1164" points="527.25 285,542.5 288.25,534.75 328.25,519.5 325.5" fill="#000000" stroke="none" stroke-opacity="0" />
<polygon id="04-1165" points="541.75 288.25,557.5 290.5,550.5 331.25,533.75 328" fill="#000000" stroke="none" stroke-opacity="0" />
<polygon id="04-1166" points="557 291,572.25 293.5,565.5 334.5,550.25 331.25" fill="#000000" stroke="none" stroke-opacity="0" />
<polygon id="04-1167" points="586.25 295.5,602 297.5,596.25 338.5,580.5 336" fill="#000000" stroke="none" stroke-opacity="0" />
<polygon id="04-1168" points="601.75 297.75,618 299.5,612.5 340.5,596 338.25" fill="#000000" stroke="none" stroke-opacity="0" />
<polygon id="04-1169" points="617 300,632.5 301.5,628.25 342.25,612 340" fill="#000000" stroke="none" stroke-opacity="0" />
<polygon id="04-1170" points="632.25 301.5,647.5 302.25,643 343.75,627.25 342.25" fill="#000000" stroke="none" stroke-opacity="0" />
<polygon id="04-1171" points="646.5 303.5,662.5 304,658.5 345.75,643.5 343.75" fill="#000000" stroke="none" stroke-opacity="0" />
<polygon id="04-1172" points="662.5 304.5,678 305,674.75 346.25,658.5 345" fill="#000000" stroke="none" stroke-opacity="0" />
<polygon id="04-1173" points="676.5 321.5,698 323.5,695.5 349,674 346.25" fill="#000000" stroke="none" stroke-opacity="0" />
<polygon id="04-1174" points="706.75 307.75,723.5 308,721.5 350,705 348.75" fill="#000000" stroke="none" stroke-opacity="0" />
<polygon id="04-1175" points="709.75 267,725.25 267.5,723 308,707.75 308.5" fill="#000000" stroke="none" stroke-opacity="0" />
<polygon id="04-1176" points="694.75 265.5,709.75 266.75,707.25 308,692 307.75" fill="#000000" stroke="none" stroke-opacity="0" />
<polygon id="04-1177" points="680.5 264.75,695.5 265.75,692.75 307.75,677.25 306.5" fill="#000000" stroke="none" stroke-opacity="0" />
<polygon id="04-1178" points="666 263.5,681.25 264.5,677.5 305.5,662.25 305" fill="#000000" stroke="none" stroke-opacity="0" />
<polygon id="04-1179" points="651 262.5,666 264,662.5 305.5,648 304.25" fill="#000000" stroke="none" stroke-opacity="0" />
<polygon id="04-1180" points="636.5 260.75,631.5 302.5,648.5 302.5,651.25 262.25" fill="#000000" stroke="none" stroke-opacity="0" />
<polygon id="04-1181" points="621.75 259.5,637 261.5,631.75 302.5,616 300.5" fill="#000000" stroke="none" stroke-opacity="0" />
<polygon id="04-1182" points="606.75 257.5,622.25 258.75,616.5 301,601.25 299.25" fill="#000000" stroke="none" stroke-opacity="0" />
<polygon id="04-1183" points="592.25 255.75,586.5 296.25,602.25 299,607.75 257.25" fill="#000000" stroke="none" stroke-opacity="0" />
<polygon id="04-1184" points="558.75 275.75,574.25 279,578.25 253,563.5 251.25" fill="#000000" stroke="none" stroke-opacity="0" />
<polygon id="04-1185" points="549 248.75,564 251,559 275.75,544.5 273" fill="#000000" stroke="none" stroke-opacity="0" />
<polygon id="04-1186" points="534.5 246.25,549.75 248.75,544.5 273.25,529 270.5" fill="#000000" stroke="none" stroke-opacity="0" />
<polygon id="04-1187" points="520.5 242.75,534.75 245.75,527 285.25,511 283.25" fill="#000000" stroke="none" stroke-opacity="0" />
<polygon id="04-1188" points="505.25 239.75,520.25 242.5,511.75 283.25,497 280.5" fill="#000000" stroke="none" stroke-opacity="0" />
<polygon id="04-1189" points="491 236.75,505.75 240,497.75 279.5,482.5 276" fill="#000000" stroke="none" stroke-opacity="0" />
<polygon id="04-1190" points="475.5 237.25,491.75 237,483 276.75,467.75 273.5" fill="#000000" stroke="none" stroke-opacity="0" />
<polygon id="04-1191" points="445.5 236.75,440 257,455 261.25,460 240.5" fill="#000000" stroke="none" stroke-opacity="0" />
<polygon id="04-1192" points="413.5 242.75,441.75 251,446.75 236.75,436.75 235,414.5 235.5" fill="#000000" stroke="none" stroke-opacity="0" />
<polygon id="04-1193" points="394 252,409 257.25,415.75 235,399.25 234.75" fill="#000000" stroke="none" stroke-opacity="0" />
<polygon id="04-1194" points="383.5 235.25,379 247.5,394.25 252.75,399.75 234.75" fill="#000000" stroke="none" stroke-opacity="0" />
<polygon id="04-1195" points="351 238.75,354.5 235.25,384 235.25,379 247.25" fill="#000000" stroke="none" stroke-opacity="0" />
<polygon id="04-1196" points="435 345.5,450 349,440.5 383,428 379.5" fill="#000000" stroke="none" stroke-opacity="0" />
<polygon id="04-1197" points="703.5 376,701.5 407,717.5 406.5,720 376.5" fill="#000000" stroke="none" stroke-opacity="0" />
<polygon id="04-1198" points="687.5 375,685.5 405.5,703 405.5,704.5 376" fill="#000000" stroke="none" stroke-opacity="0" />
<polygon id="04-1199" points="672 373.5,688.5 374.5,685.5 406.5,670 405" fill="#000000" stroke="none" stroke-opacity="0" />
<polygon id="05-1101" points="137.75 201.25,164.125 201.25,164.125 222.25,144.5495 222.4501,139.6026 219.157,137.625 215.3942,137.7756 204.516" fill="#000000" stroke="none" stroke-opacity="0" />
<polygon id="05-1102" points="138.141 181.25,164.1026 180.9295,164.1026 201.7628,137.6602 201.9231" fill="#000000" stroke="none" stroke-opacity="0" />
<polygon id="05-1103" points="137.9808 166.6667,164.5833 166.9872,164.2628 181.4103,137.6602 181.5705" fill="#000000" stroke="none" stroke-opacity="0" />
<polygon id="05-1104" points="138.3013 150.3205,164.1026 150.1603,164.1026 167.7885,138.141 167.3077" fill="#000000" stroke="none" stroke-opacity="0" />
<polygon id="05-1105" points="137.9808 129.8077,163.6218 129.9679,163.9423 150.1602,138.4615 150.9615" fill="#000000" stroke="none" stroke-opacity="0" />
<polygon id="05-1106" points="137.6602 98.8782,137.3397 114.7436,163.9423 114.7436,164.5833 98.71795" fill="#000000" stroke="none" stroke-opacity="0" />
<polygon id="05-1107" points="138.141 48.07692,137.8205 68.75,164.2628 68.58974,164.1026 47.59615" fill="#000000" stroke="none" stroke-opacity="0" />
<polygon id="05-1108" points="149.1987 16.66667,149.0385 48.07692,163.9423 47.91666,163.782 16.82692" fill="#000000" stroke="none" stroke-opacity="0" />
<polygon id="05-1109" points="163.6218 16.98718,179.3269 16.82692,179.1667 49.03846,164.2628 48.8782" fill="#000000" stroke="none" stroke-opacity="0" />
<polygon id="05-1110" points="164.1026 47.59615,179.4872 47.4359,179.3269 68.26923,163.6218 68.10897" fill="#000000" stroke="none" stroke-opacity="0" />
<polygon id="05-1112" points="164.2628 99.03846,179.9679 99.03846,179.8077 114.5833,163.782 114.4231" fill="#000000" stroke="none" stroke-opacity="0" />
<polygon id="05-1113" points="163.782 130.1282,179.9679 129.9679,179.8077 151.4423,163.4615 151.282" fill="#000000" stroke="#000000" />
<polygon id="05-1114" points="164.1026 150.4808,179.6474 150.3205,179.4872 167.1474,163.6218 166.9872" fill="#000000" stroke="#000000" />
<polygon id="05-1115" points="164.2628 166.3461,179.9679 166.1859,179.8077 181.4102,164.1026 181.25" fill="#000000" stroke="#000000" />
<polygon id="05-1116" points="163.6218 181.5705,180.609 181.4102,180.4487 201.1218,163.4615 200.9615" fill="#000000" stroke="#000000" />
<polygon id="05-1117" points="164.1026 201.4423,179.9679 201.282,179.8077 222.2756,162.9808 222.1154" fill="#000000" stroke="#000000" />
<polygon id="05-1118" points="192.9487 200.8013,208.1731 200.8013,208.0128 222.2756,192.7885 222.1154" fill="#000000" stroke="#000000" />
<polygon id="05-1119" points="208.4936 210.0961,222.7564 209.9359,222.5961 222.1154,208.6538 221.9551" fill="#000000" stroke="#000000" />
<polygon id="05-1120" points="251.9231 201.282,251.7628 221.6346,266.8269 221.4743,266.6667 200.9615" fill="#000000" stroke="#000000" />
<polygon id="05-1121" points="266.5064 200.8013,281.25 200.641,281.0898 222.1154,265.7051 221.9551" fill="#000000" stroke="#000000" />
<polygon id="05-1122" points="281.25 201.1218,294.8718 200.9615,294.7115 222.5961,280.7692 222.4359" fill="#000000" stroke="#000000" />
<polygon id="05-1123" points="295.1923 200.9615,310.2564 200.8013,310.0962 222.2756,294.7115 222.1154" fill="#000000" stroke="#000000" />
<polygon id="05-1124" points="310.4167 201.1218,324.359 200.9615,324.1987 222.1154,310.4167 221.9551" fill="#000000" stroke="#000000" />
<polygon id="05-1125" points="324.5192 200.8013,336.3782 200.641,336.218 222.5961,324.0385 222.4359" fill="#000000" stroke="#000000" />
<polygon id="05-1126" points="324.6795 180.9295,335.0962 180.7692,334.9359 195.5128,324.5192 195.3526" fill="#000000" stroke="#000000" />
<polygon id="05-1127" points="309.6154 180.2885,324.359 180.1282,324.1987 201.282,309.2949 201.1218" fill="#000000" stroke="#000000" />
<polygon id="05-1128" points="295.1923 180.1282,309.9359 179.9679,309.7756 201.282,295.1923 201.1218" fill="#000000" stroke="#000000" />
<polygon id="05-1129" points="280.7692 180.1282,295.032 179.9679,294.8718 201.4423,280.9295 201.282" fill="#000000" stroke="#000000" />
<polygon id="05-1130" points="266.0256 180.1282,280.2885 179.9679,280.1282 201.6026,265.7051 201.4423" fill="#000000" stroke="#000000" />
<polygon id="05-1131" points="251.4423 180.7692,265.7051 180.609,265.5449 201.6026,251.282 201.4423" fill="#000000" stroke="#000000" />
<polygon id="05-1132" points="236.859 181.0897,251.282 180.9295,251.1218 193.4295,236.859 193.2692" fill="#000000" stroke="#000000" />
<polygon id="05-1133" points="192.9487 180.2885,208.3333 180.1282,208.1731 200.4808,192.7885 200.3205" fill="#000000" stroke="#000000" />
<polygon id="05-1134" points="193.109 150,208.1731 149.8397,208.0128 170.5128,192.9487 170.3526" fill="#000000" stroke="#000000" />
<polygon id="05-1135" points="208.1731 149.8397,222.5961 149.6795,222.4359 170.032,208.4936 169.8718" fill="#000000" stroke="#000000" />
<polygon id="05-1136" points="222.2756 149.8397,237.3397 149.6795,237.1795 170.032,222.4359 169.8718" fill="#000000" stroke="#000000" />
<polygon id="05-1137" points="237.3397 149.6795,252.0833 149.5192,251.9231 170.3526,236.6987 170.1923" fill="#000000" stroke="#000000" />
<polygon id="05-1138" points="251.7628 149.8397,266.0256 149.6795,265.8654 170.032,251.6026 169.8718" fill="#000000" stroke="#000000" />
<polygon id="05-1139" points="266.1859 149.8397,281.25 149.6795,281.0897 170.8333,265.5449 170.6731" fill="#000000" stroke="#000000" />
<polygon id="05-1140" points="280.7692 149.8397,295.1923 149.6795,295.032 170.5128,281.4102 170.3526" fill="#000000" stroke="#000000" />
<polygon id="05-1141" points="295.032 149.8397,310.2564 149.6795,310.0961 170.1923,295.6731 170.032" fill="#000000" stroke="#000000" />
<polygon id="05-1142" points="310.2564 150,324.8397 149.8397,324.6795 170.1923,310.7372 170.032" fill="#000000" stroke="#000000" />
<polygon id="05-1143" points="309.7756 128.8461,325.3205 128.6859,325.1602 150,309.7756 149.8397" fill="#000000" stroke="#000000" />
<polygon id="05-1144" points="294.5513 128.8461,294.391 150.3205,309.9359 150.1602,309.7756 128.5256" fill="#000000" stroke="#000000" />
<polygon id="05-1145" points="280.9295 128.5256,280.7692 151.282,294.2308 151.1218,294.0705 128.8461" fill="#000000" stroke="#000000" />
<polygon id="05-1146" points="266.3461 129.0064,280.7692 128.8461,280.609 149.5192,265.7051 149.359" fill="#000000" stroke="#000000" />
<polygon id="05-1147" points="251.6026 128.8461,265.8654 128.6859,265.7051 150.1602,251.7628 150" fill="#000000" stroke="#000000" />
<polygon id="05-1148" points="236.859 128.6859,251.282 128.5256,251.1218 149.8397,237.1795 149.6795" fill="#000000" stroke="#000000" />
<polygon id="05-1149" points="222.1154 128.8461,236.5385 128.6859,236.3782 150.1602,221.3141 150" fill="#000000" stroke="#000000" />
<polygon id="05-1150" points="208.0128 128.8461,207.8526 149.8397,222.1154 149.6795,221.9551 128.6859" fill="#000000" stroke="#000000" />
<polygon id="05-1151" points="192.7885 129.1667,207.6923 129.0064,207.5321 149.8397,192.9487 149.6795" fill="#000000" stroke="#000000" />
<polygon id="05-1152" points="192.9487 99.19872,208.4936 99.03846,208.3333 119.7115,193.2692 119.5513" fill="#000000" stroke="#000000" />
<polygon id="05-1153" points="207.8526 98.8782,222.5962 98.71795,222.4359 119.2308,208.8141 119.0705" fill="#000000" stroke="#000000" />
<polygon id="05-1154" points="222.4359 98.55769,237.3398 98.39743,237.1795 119.5513,222.7564 119.391" fill="#000000" stroke="#000000" />
<polygon id="05-1155" points="237.1795 99.03846,252.2436 98.8782,252.0833 119.8718,237.9808 119.7115" fill="#000000" stroke="#000000" />
<polygon id="05-1156" points="252.0833 98.8782,266.5064 98.71795,266.3462 119.7115,252.0833 119.5513" fill="#000000" stroke="#000000" />
<polygon id="05-1157" points="265.8654 98.71795,281.4102 98.55769,281.25 119.5513,266.6667 119.391" fill="#000000" stroke="#000000" />
<polygon id="05-1158" points="280.9295 98.71795,295.3526 98.55769,295.1923 119.391,281.5705 119.2308" fill="#000000" stroke="#000000" />
<polygon id="05-1159" points="295.032 98.71795,310.2564 98.55769,310.0962 119.0705,295.3526 118.9103" fill="#000000" stroke="#000000" />
<polygon id="05-1160" points="309.9359 99.03846,324.5192 98.8782,324.359 118.9103,310.0962 118.75" fill="#000000" stroke="#000000" />
<polygon id="05-1161" points="324.8398 99.19872,336.218 99.03846,336.3782 112.8205,330.9295 118.75,324.8398 119.2307" fill="#000000" stroke="#000000" />
<polygon id="05-1162" points="324.1987 78.84615,324.359 99.67948,336.6987 99.67948,335.8974 79.16666" fill="#000000" stroke="#000000" />
<polygon id="05-1163" points="309.7756 78.6859,310.5769 99.19872,323.718 99.03846,323.5577 78.84615" fill="#000000" stroke="#000000" />
<polygon id="05-1164" points="295.1923 78.84615,309.2949 79.00641,310.2564 99.03846,294.7115 98.8782" fill="#000000" stroke="#000000" />
<polygon id="05-1165" points="280.7692 78.6859,280.609 99.67948,295.1923 99.51923,295.032 78.52563" fill="#000000" stroke="#000000" />
<polygon id="05-1166" points="265.8654 78.84615,265.7051 99.19872,280.4487 99.03846,280.2885 78.6859" fill="#000000" stroke="#000000" />
<polygon id="05-1167" points="251.4423 78.6859,251.2821 98.71795,265.2244 98.55769,265.0641 78.36538" fill="#000000" stroke="#000000" />
<polygon id="05-1168" points="236.859 78.6859,236.6987 98.8782,251.4423 98.71795,251.2821 77.88461" fill="#000000" stroke="#000000" />
<polygon id="05-1169" points="221.7949 78.52563,221.6346 99.03846,236.6987 98.8782,236.5385 78.36538" fill="#000000" stroke="#000000" />
<polygon id="05-1170" points="208.0128 78.84615,207.8526 98.8782,221.3141 98.71795,221.1539 78.20512" fill="#000000" stroke="#000000" />
<polygon id="05-1171" points="192.9487 78.84615,192.7885 99.19872,207.5321 99.03846,207.3718 78.20512" fill="#000000" stroke="#000000" />
<polygon id="05-1172" points="193.109 48.07692,207.8526 47.91667,207.6923 69.23077,192.6282 69.07051" fill="#000000" stroke="#000000" />
<polygon id="05-1173" points="208.1731 47.91667,220.9936 47.75641,220.8333 69.39102,208.1731 69.23077" fill="#000000" stroke="#000000" />
<polygon id="05-1174" points="220.9936 47.75641,237.5 47.59615,237.3398 69.07051,221.6346 68.91026" fill="#000000" stroke="#000000" />
<polygon id="05-1175" points="237.5 47.75641,237.3398 68.91026,251.9231 68.75,251.7628 47.59615" fill="#000000" stroke="#000000" />
<polygon id="05-1176" points="251.6026 47.59615,266.5064 47.4359,266.3462 69.23077,252.2436 69.07051" fill="#000000" stroke="#000000" />
<polygon id="05-1177" points="266.1859 47.75641,281.4102 47.59615,281.25 69.23077,266.3462 69.07051" fill="#000000" stroke="#000000" />
<polygon id="05-1178" points="280.9295 48.39743,294.8718 48.23718,294.7115 69.71154,281.5705 69.55128" fill="#000000" stroke="#000000" />
<polygon id="05-1179" points="294.8718 56.89103,309.9359 56.73077,309.7756 69.39102,294.8718 69.23077" fill="#000000" stroke="#000000" />
<polygon id="05-1180" points="324.0385 48.23718,336.0577 48.07692,335.8974 69.71154,324.359 69.55128" fill="#000000" stroke="#000000" />
<polygon id="05-1181" points="294.5513 44.55128,313.141 45.19231,312.9808 39.42308,324.6795 39.42308,324.8398 31.89103,310.0962 16.50641,294.8718 16.34615" fill="#000000" stroke="#000000" />
<polygon id="05-1182" points="280.9295 16.50641,281.0898 47.91667,295.032 48.23718,294.5513 15.86538" fill="#000000" stroke="#000000" />
<polygon id="05-1183" points="266.1859 16.82692,265.8654 47.75641,280.7692 48.23718,280.4487 16.02564" fill="#000000" stroke="#000000" />
<polygon id="05-1184" points="251.2821 16.34615,251.9231 48.23718,265.5449 48.07692,265.3846 16.34615" fill="#000000" stroke="#000000" />
<polygon id="05-1185" points="237.1795 17.14744,237.0192 48.07692,252.0833 47.91667,252.0833 15.86538" fill="#000000" stroke="#000000" />
<polygon id="05-1186" points="220.9936 16.34615,220.8333 47.91667,236.859 47.75641,236.6987 16.66667" fill="#000000" stroke="#000000" />
<polygon id="05-1187" points="207.6923 16.50641,221.6346 16.34615,221.4744 48.71795,207.5321 48.55769" fill="#000000" stroke="#000000" />
<polygon id="05-1188" points="193.2692 16.1859,207.8526 16.02564,207.6923 48.07692,192.9487 47.91667" fill="#000000" stroke="#000000" />
<polygon id="05-1189" points="137.9808 68.10897,163.9423 67.94872,163.7821 83.33333,137.9808 83.17307" fill="#000000" stroke="#000000" />
<polygon id="05-1190" points="138.3013 16.82692,149.8397 16.66667,149.6795 48.07692,138.141 47.91667" fill="#000000" stroke="#000000" />
<polygon id="05-1191" points="164.4231 67.6282,179.0064 67.46795,178.8462 83.17307,164.1026 83.01282" fill="#000000" stroke="#000000" />
<polygon id="05-1192" points="223.0769 209.6154,243.75 209.4551,243.5898 222.2757,222.7564 222.2757" fill="#000000" stroke="#000000" />
<polygon id="05-1193" points="216.0257 180.2885,216.0257 193.109,236.218 192.9487,236.0577 180.4487" fill="#000000" stroke="#000000" />
<polygon id="05-1194" points="310.4167 56.57051,323.718 56.41026,323.5577 69.23077,310.2564 69.07051" fill="#000000" stroke="#000000" />
<polygon id="07-1101" points="536.0577 201.4423,561.8589 201.282,561.6987 222.9167,536.8589 222.7564" fill="#000000" stroke="#000000" />
<polygon id="07-1102" points="535.8974 181.0897,535.7372 201.1218,562.9808 200.9615,562.8205 180.609" fill="#000000" stroke="#000000" />
<polygon id="07-1103" points="535.8974 166.6667,562.1794 166.5064,562.0192 180.609,535.8974 180.4487" fill="#000000" stroke="#000000" />
<polygon id="07-1104" points="535.7372 149.8397,562.3397 149.6795,562.1794 167.3077,535.4166 167.1474" fill="#000000" stroke="#000000" />
<polygon id="07-1105" points="535.7372 129.4872,535.5769 150.1603,562.1794 150.1603,562.0192 129.1667" fill="#000000" stroke="#000000" />
<polygon id="07-1106" points="535.8974 99.03846,535.7372 114.2628,551.4423 114.1026,551.282 98.71795" fill="#000000" stroke="#000000" />
<polygon id="07-1107" points="536.2179 48.07692,551.1218 47.91667,550.9615 68.26923,535.5769 68.10897" fill="#000000" stroke="#000000" />
<polygon id="07-1108" points="535.8974 16.66667,535.7372 47.75641,551.282 47.59615,551.1218 16.34615" fill="#000000" stroke="#000000" />
<polygon id="07-1109" points="520.5128 16.98718,535.5769 16.82692,535.4166 47.59615,521.4743 47.4359" fill="#000000" stroke="#000000" />
<polygon id="07-1110" points="520.8333 47.4359,520.673 68.58974,535.5769 68.42949,535.4166 47.75641" fill="#000000" stroke="#000000" />
<polygon id="07-1111" points="520.673 68.26923,520.5128 83.33334,536.2179 83.17308,536.0577 67.94872" fill="#000000" stroke="#000000" />
<polygon id="07-1112" points="520.9936 98.55769,520.8333 114.4231,535.5769 114.2628,535.4166 98.71795" fill="#000000" stroke="#000000" />
<polygon id="07-1113" points="520.032 129.6474,519.8718 150.4808,535.7372 150.3205,535.5769 129.8077" fill="#000000" stroke="#000000" />
<polygon id="07-1114" points="520.5128 150.1602,520.3525 167.4679,534.7756 167.3077,534.6154 150.1602" fill="#000000" stroke="#000000" />
<polygon id="07-1115" points="520.1923 167.7885,520.032 180.609,535.7372 180.4487,535.5769 167.3077" fill="#000000" stroke="#000000" />
<polygon id="07-1116" points="519.7115 180.4487,519.5513 201.7628,535.5769 201.6026,535.4166 180.4487" fill="#000000" stroke="#000000" />
<polygon id="07-1117" points="519.2308 201.7628,519.0705 222.4359,536.0577 222.2756,535.8974 201.7628" fill="#000000" stroke="#000000" />
<polygon id="07-1118" points="491.3461 201.282,491.1859 222.7564,507.0513 222.5962,506.891 200.641" fill="#000000" stroke="#000000" />
<polygon id="07-1119" points="477.0833 201.1218,491.9872 200.9615,491.8269 222.2756,477.0833 222.1154" fill="#000000" stroke="#000000" />
<polygon id="07-1120" points="462.8205 200.8013,477.8846 200.8013,477.7244 222.2756,462.9808 222.1154" fill="#000000" stroke="#000000" />
<polygon id="07-1121" points="447.9167 201.4423,463.782 201.282,463.6218 222.2756,447.9167 222.1154" fill="#000000" stroke="#000000" />
<polygon id="07-1122" points="433.9743 200.9615,433.8141 222.4359,447.7564 222.2756,447.5961 200.8013" fill="#000000" stroke="#000000" />
<polygon id="07-1123" points="419.0705 201.282,434.1346 201.1218,433.9743 222.4359,418.5897 222.2756" fill="#000000" stroke="#000000" />
<polygon id="07-1124" points="404.0064 201.282,403.8461 221.9551,418.4295 221.7949,418.2692 200.9615" fill="#000000" stroke="#000000" />
<polygon id="07-1125" points="389.9038 209.1346,404.3269 208.9744,404.1667 223.0769,389.5833 222.9167" fill="#000000" stroke="#000000" />
<polygon id="07-1126" points="364.1025 207.0513,376.282 206.891,376.1218 222.2756,364.1025 222.1154" fill="#000000" stroke="#000000" />
<polygon id="07-1127" points="364.1025 180.7692,363.9423 195.1923,376.1218 195.032,375.9615 180.4487" fill="#000000" stroke="#000000" />
<polygon id="07-1128" points="384.9359 180.2885,384.7756 193.75,404.9679 193.5897,404.8077 180.4487" fill="#000000" stroke="#000000" />
<polygon id="07-1129" points="404.9679 179.9679,418.9102 179.8077,418.75 201.1218,404.9679 200.9615" fill="#000000" stroke="#000000" />
<polygon id="07-1130" points="418.4295 180.2885,434.1346 180.1282,433.9743 201.4423,419.391 201.282" fill="#000000" stroke="#000000" />
<polygon id="07-1131" points="434.2949 180.2885,448.5577 180.1282,448.3974 201.7628,434.7756 201.6026" fill="#000000" stroke="#000000" />
<polygon id="07-1132" points="449.0385 180.1282,463.141 179.9679,462.9808 202.4038,448.7179 202.2436" fill="#000000" stroke="#000000" />
<polygon id="07-1133" points="463.3013 179.8077,477.4038 179.6474,477.2436 202.0833,463.6218 201.9231" fill="#000000" stroke="#000000" />
<polygon id="07-1134" points="477.7243 180.1282,491.9872 179.9679,491.8269 202.4038,477.7243 202.2436" fill="#000000" stroke="#000000" />
<polygon id="07-1135" points="492.1474 180.2885,507.532 180.1282,507.3718 203.0449,492.1474 202.8846" fill="#000000" stroke="#000000" />
<polygon id="07-1136" points="491.9872 149.6795,507.2115 149.5192,507.0513 170.5128,492.3077 170.3526" fill="#000000" stroke="#000000" />
<polygon id="07-1137" points="476.9231 150.1603,492.1474 150.1603,491.9872 170.1923,477.4038 170.0321" fill="#000000" stroke="#000000" />
<polygon id="07-1138" points="462.9808 149.6795,477.0833 149.5192,476.9231 170.5128,463.141 170.3526" fill="#000000" stroke="#000000" />
<polygon id="07-1139" points="448.0769 150,462.5 149.8397,462.3397 170.6731,447.5961 170.5128" fill="#000000" stroke="#000000" />
<polygon id="07-1140" points="434.2949 150,448.3974 149.8397,448.2372 170.8333,433.9743 170.6731" fill="#000000" stroke="#000000" />
<polygon id="07-1141" points="418.75 150.1603,433.8141 150.1603,433.6538 170.5128,419.0705 170.3526" fill="#000000" stroke="#000000" />
<polygon id="07-1142" points="404.4872 150.1603,418.4295 150.1603,418.2692 170.6731,405.2885 170.5128" fill="#000000" stroke="#000000" />
<polygon id="07-1143" points="389.9038 150,404.4872 149.8397,404.3269 170.9936,390.3846 170.8333" fill="#000000" stroke="#000000" />
<polygon id="07-1144" points="373.8782 150.1603,389.9038 150.1603,389.7436 169.7115,373.8782 169.5513" fill="#000000" stroke="#000000" />
<polygon id="07-1145" points="373.8782 129.3269,373.718 150.1603,390.2244 150.1603,390.0641 129.1667" fill="#000000" stroke="#000000" />
<polygon id="07-1146" points="390.0641 129.1667,405.2885 129.1667,405.1282 150.4808,390.7051 150.3205" fill="#000000" stroke="#000000" />
<polygon id="07-1147" points="404.8077 129.1667,419.0705 129.1667,418.9102 150.4808,405.2885 150.3205" fill="#000000" stroke="#000000" />
<polygon id="07-1148" points="419.0705 129.0064,434.2949 128.8461,434.2949 149.8397,418.5898 149.6795" fill="#000000" stroke="#000000" />
<polygon id="07-1149" points="434.6154 129.3269,448.5577 129.1667,448.3974 150.641,433.4936 150.4808" fill="#000000" stroke="#000000" />
<polygon id="07-1150" points="448.718 129.1667,463.4615 129.1667,463.3013 150.9615,448.718 150.8013" fill="#000000" stroke="#000000" />
<polygon id="07-1151" points="463.6218 129.0064,477.8846 128.8461,477.7244 150.4808,463.4615 150.3205" fill="#000000" stroke="#000000" />
<polygon id="07-1152" points="477.8846 129.3269,491.9872 129.1667,491.8269 150.4808,478.2051 150.3205" fill="#000000" stroke="#000000" />
<polygon id="07-1153" points="491.9872 129.4872,506.891 129.8077,506.7308 150.4808,491.8269 150.3205" fill="#000000" stroke="#000000" />
<polygon id="07-1154" points="491.9872 99.19872,507.2115 99.03846,507.0513 119.391,491.6667 119.2308" fill="#000000" stroke="#000000" />
<polygon id="07-1155" points="477.0833 99.35897,491.8269 99.19872,491.6667 119.2308,476.7628 119.0705" fill="#000000" stroke="#000000" />
<polygon id="07-1156" points="462.8205 98.8782,477.4038 98.71795,477.2436 119.5513,463.4615 119.391" fill="#000000" stroke="#000000" />
<polygon id="07-1157" points="447.9167 99.35897,463.141 99.19872,462.9808 119.7115,447.7564 119.5513" fill="#000000" stroke="#000000" />
<polygon id="07-1158" points="433.8141 99.03846,448.8782 98.8782,448.7179 119.5513,434.1346 119.391" fill="#000000" stroke="#000000" />
<polygon id="07-1159" points="418.5897 99.19872,434.4551 99.03846,434.2949 119.391,418.9102 119.2308" fill="#000000" stroke="#000000" />
<polygon id="07-1160" points="404.4872 98.8782,418.9102 98.71795,418.75 119.2308,404.8077 119.0705" fill="#000000" stroke="#000000" />
<polygon id="07-1161" points="389.7436 99.03846,404.6474 98.8782,404.4872 119.2308,390.2244 119.0705" fill="#000000" stroke="#000000" />
<polygon id="07-1162" points="375.641 98.71795,390.2244 98.55769,390.0641 119.2308,375.641 119.0705" fill="#000000" stroke="#000000" />
<polygon id="07-1163" points="364.1026 98.71795,375.8013 98.55769,375.3205 119.7115,368.2692 119.391,363.9423 113.782" fill="#000000" stroke="#000000" />
<polygon id="07-1164" points="364.1026 78.6859,375.9615 78.52564,375.8013 98.55769,363.6218 98.39744" fill="#000000" stroke="#000000" />
<polygon id="07-1165" points="375.8013 78.6859,390.5449 78.52564,390.3846 99.51923,375.8013 99.35897" fill="#000000" stroke="#000000" />
<polygon id="07-1166" points="390.3846 79.00641,405.2885 78.84615,405.1282 100,390.7051 99.83974" fill="#000000" stroke="#000000" />
<polygon id="07-1167" points="405.609 79.00641,419.5513 78.84615,419.5513 99.83974,405.4487 99.67949" fill="#000000" stroke="#000000" />
<polygon id="07-1168" points="420.032 78.36539,433.9743 78.20512,433.8141 99.03846,420.032 98.8782" fill="#000000" stroke="#000000" />
<polygon id="07-1169" points="433.9743 79.32692,448.0769 79.16666,447.9167 99.03846,434.1346 98.8782" fill="#000000" stroke="#000000" />
<polygon id="07-1170" points="448.2372 78.84615,463.3013 78.6859,463.141 99.51923,448.2372 99.35897" fill="#000000" stroke="#000000" />
<polygon id="07-1171" points="462.6602 78.84615,477.7243 78.6859,477.5641 99.19872,463.9423 99.03846" fill="#000000" stroke="#000000" />
<polygon id="07-1172" points="477.7243 78.52564,492.4679 78.36539,492.3077 99.19872,477.8846 99.03846" fill="#000000" stroke="#000000" />
<polygon id="07-1173" points="492.4679 78.6859,507.3718 78.52564,507.2115 99.35897,492.4679 99.19872" fill="#000000" stroke="#000000" />
<polygon id="07-1174" points="491.8269 48.23718,491.6667 68.91026,507.3718 68.75,507.2115 48.23718" fill="#000000" stroke="#000000" />
<polygon id="07-1175" points="455.9295 56.73077,455.7692 69.39102,484.1346 69.23077,483.9743 56.57051" fill="#000000" stroke="#000000" />
<polygon id="07-1176" points="433.4936 47.91667,449.1987 47.75641,449.0385 69.71154,434.1346 69.55128" fill="#000000" stroke="#000000" />
<polygon id="07-1177" points="419.2307 47.91667,434.1346 47.75641,433.9743 69.23077,418.9102 69.07051" fill="#000000" stroke="#000000" />
<polygon id="07-1178" points="404.4872 47.91667,419.391 47.75641,419.2307 69.23077,404.0064 69.07051" fill="#000000" stroke="#000000" />
<polygon id="07-1179" points="389.9038 48.23718,404.9679 48.07692,404.8077 69.55128,389.4231 69.39102" fill="#000000" stroke="#000000" />
<polygon id="07-1180" points="375.4807 47.91667,390.0641 47.75641,389.9038 69.39102,375.4807 69.23077" fill="#000000" stroke="#000000" />
<polygon id="07-1181" points="364.1025 47.75641,376.1218 47.59615,375.9615 69.07051,363.782 68.91026" fill="#000000" stroke="#000000" />
<polygon id="07-1182" points="390.0641 27.24359,389.9038 48.8782,404.8077 48.71795,404.6474 27.24359" fill="#000000" stroke="#000000" />
<polygon id="07-1183" points="405.1282 27.5641,418.9102 27.40385,418.75 47.59615,404.9679 47.4359" fill="#000000" stroke="#000000" />
<polygon id="07-1184" points="419.0705 27.24359,434.1346 27.08333,433.9743 47.91667,418.9102 47.75641" fill="#000000" stroke="#000000" />
<polygon id="07-1185" points="434.1346 27.24359,448.2372 27.08333,448.0769 48.23718,434.4551 48.07692" fill="#000000" stroke="#000000" />
<polygon id="07-1186" points="455.9295 16.50641,455.9295 40.22436,477.2436 40.0641,477.0833 17.14744" fill="#000000" stroke="#000000" />
<polygon id="07-1187" points="491.9872 16.82692,491.8269 48.07692,507.5321 47.91667,507.5321 16.82692" fill="#000000" stroke="#000000" />
<polygon id="07-1188" points="376.6026 222.2757,389.5833 222.2757,389.4231 208.6539,376.7628 208.6539" fill="#000000" stroke="#000000" />
<polygon id="07-1189" points="536.218 68.26923,536.0577 83.33334,550.9615 83.17307,550.8013 68.26923" fill="#000000" stroke="#000000" />
<polygon id="07-1190" points="375.1602 47.27564,389.5833 47.11538,389.7436 28.04487,385.7372 27.40384,375.641 38.14102" fill="#000000" stroke="#000000" />
<polygon id="07-1191" points="477.8846 40.54487,491.9872 40.86538,491.8269 16.1859,477.5641 16.02564" fill="#000000" stroke="#000000" />
<polygon id="08-1197" points="205.7692 268.5897,220.5128 274.6795,208.3333 302.5641,193.2692 296.7949" fill="#000000" stroke="#000000" />
<polygon id="08-1193" points="655.1282 372.7564,652.8846 402.2436,671.1538 402.8846,672.4359 373.7179" fill="#000000" stroke="#000000" />
<polygon id="08-1194" points="723.3974 308.9743,738.4615 308.9743,737.1794 350.3205,720.5128 350.641" fill="#000000" stroke="#000000" />
<polygon id="08-1195" points="725.3205 268.2692,739.7436 268.2692,739.1025 309.9359,722.7565 309.9359" fill="#000000" stroke="#000000" xmlns="http://www.w3.org/2000/svg" />
<polygon id="09-1130" points="598.0769 25.32051,582.8525 25.80128,573.718 31.25,568.1089 38.6218,566.0256 49.03846,599.1987 44.07051" fill="#000000" stroke="#000000" />
<polygon id="09-1131" points="565.3846 49.67949,567.468 60.57692,569.7115 68.75,601.923 61.69872,600.1602 44.55128" fill="#000000" stroke="#000000" />
<polygon id="09-1132" points="569.8718 69.07051,572.5961 80.60897,576.6025 90.0641,608.8141 77.72436,604.8077 68.10897,602.2436 61.69872" fill="#000000" stroke="#000000" />
<polygon id="09-1133" points="608.6538 78.04487,614.2628 94.23077,584.9359 109.2949,576.4423 90.86539" fill="#000000" stroke="#000000" />
<polygon id="09-1134" points="584.4551 108.8141,593.9102 128.2051,623.0769 110.2564,614.1025 94.07051" fill="#000000" stroke="#000000" />
<polygon id="09-1135" points="622.9166 110.2564,632.3718 125.3205,605.2885 145.1923,598.718 135.8974,594.0705 128.5256" fill="#000000" stroke="#000000" />
<polygon id="09-1136" points="605.4487 145.3526,611.6987 153.6859,618.1089 162.3397,644.2308 139.2628,637.3397 131.891,632.6923 124.8397" fill="#000000" stroke="#000000" />
<polygon id="09-1137" points="618.4294 162.8205,624.6795 169.5513,633.173 177.2436,655.7692 152.0833,648.5577 144.7115,644.2308 138.6218" fill="#000000" stroke="#000000" />
<polygon id="09-1138" points="655.9295 152.5641,662.5 157.532,669.2308 163.6218,648.2372 189.9038,639.2628 184.2949,633.0128 178.2051" fill="#000000" stroke="#000000" />
<polygon id="09-1139" points="648.2371 190.5449,656.4102 196.1538,664.7435 202.7244,683.173 174.1987,674.9999 168.4295,669.2307 163.6218" fill="#000000" stroke="#000000" />
<polygon id="09-1140" points="682.0513 191.8269,701.923 202.5641,695.1923 218.9102,683.0128 213.4615,672.4359 207.3718" fill="#000000" stroke="#000000" />
<polygon id="09-1141" points="714.423 189.2628,702.0833 221.1538,712.3397 225.4808,721.7949 228.3654,731.2499 195.5128" fill="#000000" stroke="#000000" />
<polygon id="09-1142" points="731.7307 195.5128,749.0385 199.8397,742.1474 233.3333,730.6089 231.4102,722.1154 228.8461" fill="#000000" stroke="#000000" />
<polygon id="09-1143" points="745.8333 149.1987,758.173 152.0833,748.8782 200.1603,731.2499 195.3526" fill="#000000" stroke="#000000" />
<polygon id="09-1144" points="732.3718 144.8718,745.673 148.8782,730.6089 195.6731,713.9423 190.7051" fill="#000000" stroke="#000000" />
<polygon id="09-1145" points="720.5128 139.4231,732.2115 144.7115,713.3013 189.2628,698.7179 182.532" fill="#000000" stroke="#000000" />
<polygon id="09-1146" points="709.1346 133.1731,720.5128 139.2628,698.0769 182.6923,682.3718 173.8782" fill="#000000" stroke="#000000" />
<polygon id="09-1147" points="698.7179 125.641,709.1346 133.0128,682.6923 174.5192,668.2692 163.141" fill="#000000" stroke="#000000" />
<polygon id="09-1148" points="688.3013 116.8269,698.7179 125.1603,667.9487 163.4615,654.3269 151.6026" fill="#000000" stroke="#000000" />
<polygon id="09-1149" points="679.4871 107.5321,688.3013 116.9872,654.9679 152.4038,643.4294 138.782" fill="#000000" stroke="#000000" />
<polygon id="09-1150" points="670.9935 96.79487,679.4871 107.3718,643.1089 140.3846,632.532 125" fill="#000000" stroke="#000000" />
<polygon id="09-1151" points="664.2628 86.05769,670.9935 97.27564,632.3718 125.8013,622.7563 110.0962" fill="#000000" stroke="#000000" />
<polygon id="09-1152" points="658.173 74.51923,664.7435 86.21795,622.7563 110.7372,613.9423 95.03205" fill="#000000" stroke="#000000" />
<polygon id="09-1153" points="652.7243 62.33974,658.6538 74.19872,614.7435 94.07051,608.3333 77.72436" fill="#000000" stroke="#000000" />
<polygon id="09-1154" points="649.1987 50,652.4038 62.33974,608.8141 78.20512,602.4038 61.3782" fill="#000000" stroke="#000000" />
<polygon id="09-1155" points="599.0385 43.58974,646.9551 36.85897,649.3589 50.48077,601.923 62.17949" fill="#000000" stroke="#000000" />
<polygon id="09-1156" points="598.5577 24.51923,631.2499 23.8782,632.0513 41.02564,598.8782 44.39103" fill="#000000" stroke="#000000" />

</svg>
