<?xml version="1.0" encoding="UTF-8" standalone="no"?>
<!-- Created with Inkscape (http://www.inkscape.org/) -->

<svg xmlns:dc="http://purl.org/dc/elements/1.1/" xmlns:cc="http://creativecommons.org/ns#" xmlns:rdf="http://www.w3.org/1999/02/22-rdf-syntax-ns#" xmlns:svg="http://www.w3.org/2000/svg" xmlns="http://www.w3.org/2000/svg" xmlns:xlink="http://www.w3.org/1999/xlink" xmlns:sodipodi="http://sodipodi.sourceforge.net/DTD/sodipodi-0.dtd" xmlns:inkscape="http://www.inkscape.org/namespaces/inkscape" width="770" height="410" id="svg2" version="1.1" inkscape:version="0.47pre4 " sodipodi:docname="test.svg" style="display:inline">
<defs id="defs4">
<inkscape:perspective sodipodi:type="inkscape:persp3d" inkscape:vp_x="0 : 526.18109 : 1" inkscape:vp_y="0 : 1000 : 0" inkscape:vp_z="744.09448 : 526.18109 : 1" inkscape:persp3d-origin="372.04724 : 350.78739 : 1" id="perspective10" />
<inkscape:perspective id="perspective2832" inkscape:persp3d-origin="0.5 : 0.33333333 : 1" inkscape:vp_z="1 : 0.5 : 1" inkscape:vp_y="0 : 1000 : 0" inkscape:vp_x="0 : 0.5 : 1" sodipodi:type="inkscape:persp3d" />
<script type="text/ecmascript" id="script6">
		var fdat="",sdat="";
		function onAreaOver(evt){
			var ele=evt.target; 
			fdat=ele.getAttribute('fill'); 
			sdat=ele.getAttribute('stroke');
			ele.setAttribute('fill','#006fb6');//多边形填充颜色
			ele.setAttribute('stroke','#006fb6');//stroke 多边形 边框颜色
			
		}
		function onAreaOut(evt){
			var ele=evt.target; 
			ele.setAttribute('fill',fdat);
			ele.setAttribute('stroke',sdat);
		}
		</script>
<symbol overflow="visible" id="symbol" style="overflow:visible">
<path d="m 626,156 2,-2 2,-4 0,-3 -1,-3 -4,-3 -6,-3 -5,-2 -4,-2 -4,8 -6,14" id="path9" style="fill:#000000;stroke:none" />
</symbol>
</defs>
<sodipodi:namedview id="base" pagecolor="#ffffff" bordercolor="#666666" borderopacity="1.0" inkscape:pageopacity="0.0" inkscape:pageshadow="2" inkscape:zoom="5.6" inkscape:cx="583.1007" inkscape:cy="273.63795" inkscape:document-units="px" inkscape:current-layer="svg2" showgrid="false" inkscape:window-width="1280" inkscape:window-height="740" inkscape:window-x="-4" inkscape:window-y="-4" inkscape:window-maximized="1" />
<metadata id="metadata7">
<rdf:RDF>
<cc:Work>
<dc:format>
image/svg+xml</dc:format>
<dc:type rdf:resource="http://purl.org/dc/dcmitype/StillImage" />
<dc:title>
</dc:title>
</cc:Work>
</rdf:RDF>
</metadata>
<image xlink:href="yancheng_mall_3f.png" width="770" height="410" id="image2834" x="-485" y="255.93361" transform="translate(485,-255.9336)" inkscape:label="Layer 1" inkscape:groupmode="layer" style="display:inline" />
<polygon id="3001" points="87 88,104.5 125,131.5 112.5,113 75.5" fill="#000000" stroke="none" stroke-opacity="0" />
<polygon id="3002" points="112.5 75,131 112.5,156 102,139 64.5,128.5 61.5,118.5 66" fill="#000000" stroke="none" stroke-opacity="0" />
<polygon id="3003" points="157 88,163 100,174.5 95,169 82.5" fill="#000000" stroke="none" stroke-opacity="0" />
<polygon id="3004" points="166 54.5,179.5 92,206.5 84,194 45.5" fill="#000000" stroke="none" stroke-opacity="0" />
<polygon id="3005" points="194.5 44.5,206.5 84.5,233.5 77.5,222.5 37" fill="#000000" stroke="none" stroke-opacity="0" />
<polygon id="3006" points="222.5 37.5,233 77.5,260.5 69.5,251 30" fill="#000000" stroke="none" stroke-opacity="0" />
<polygon id="3007" points="250.5 30.5,260.5 71.5,288.5 65,284.5 38,310 33.5,308.5 22,278 26" fill="#000000" stroke="none" stroke-opacity="0" />
<polygon id="3008" points="292.5 47.75,294.5 64,306 62.5,304.75 46.25" fill="#000000" stroke="none" stroke-opacity="0" />
<polygon id="3009" points="308.5 22.5,314 61.5,341.5 60.5,338 19" fill="#000000" stroke="none" stroke-opacity="0" />
<polygon id="3010" points="336 19,341.5 60,367.5 58.5,396.5 58,421 59.5,449.5 62.5,454 22,426 19,415.5 10.5,402.5 5.25,389.5 3,374.5 2.75,359.25 5.75,346.25 11.75" fill="#000000" stroke="none" stroke-opacity="0" />
<polygon id="3011" points="458.25 46,456.5 62.75,468.75 64.5,471 47.75" fill="#000000" stroke="none" stroke-opacity="0" />
<polygon id="3012" points="452.75 33.5,478.5 37,475 65.25,504.5 70,513 31.5,481 25.5,454.25 21.5" fill="#000000" stroke="none" stroke-opacity="0" />
<polygon id="3013" points="513 31.5,504.5 70,531.75 76.25,541 37.5" fill="#000000" stroke="none" stroke-opacity="0" />
<polygon id="3014" points="540.75 38,531.75 75.75,557 83.5,568 45.75" fill="#000000" stroke="none" stroke-opacity="0" />
<polygon id="3015" points="568 46,596 55.5,584.5 93.5,556.5 83.5" fill="#000000" stroke="none" stroke-opacity="0" />
<polygon id="3016" points="593.5 82.5,606.5 87.5,601.5 99.5,589.75 95" fill="#000000" stroke="none" stroke-opacity="0" />
<polygon id="3017" points="593.75 63.75,620 74,608.5 101.5,634 113.25,650.5 76.25,644.25 68,631.25 62.75,623 64.25,596 55.5" fill="#000000" stroke="none" stroke-opacity="0" />
<polygon id="3018" points="634 113,659 125,676.5 87.75,650.5 76" fill="#000000" stroke="none" stroke-opacity="0" />
<polygon id="3019" points="677 87.5,658 125,659.5 174,688.5 175,688.5 183,746 184.5,746.5 167.5,741 162,726.5 163,726 116.5,704.5 103.5,698 93.5,684.5 87.5" fill="#000000" stroke="none" stroke-opacity="0" />
<polygon id="3020" points="571.5 126,562.5 149,600.5 153.5,606.5 140" fill="#000000" stroke="none" stroke-opacity="0" />
<polygon id="3021" points="538.5 145.5,564 148,572.5 126,546.5 118.5" fill="#000000" stroke="none" stroke-opacity="0" />
<polygon id="3022" points="514.5 138,538.75 144.25,547.5 119,521.5 111.5" fill="#000000" stroke="none" stroke-opacity="0" />
<polygon id="3023" points="496.5 106.5,493.5 126,508.5 128.5,513.5 110" fill="#000000" stroke="none" stroke-opacity="0" />
<polygon id="3024" points="476.5 102.75,474.25 115.5,495.5 120,498 106.5" fill="#000000" stroke="none" stroke-opacity="0" />
<polygon id="3025" points="470 101,465.5 128.25,442 125.5,446 98" fill="#000000" stroke="none" stroke-opacity="0" />
<polygon id="3026" points="420 95.5,418.5 109,436.75 110.75,438 97" fill="#000000" stroke="none" stroke-opacity="0" />
<polygon id="3027" points="394.75 94.5,393.5 114.5,417.5 115,419.5 95.5" fill="#000000" stroke="none" stroke-opacity="0" />
<polygon id="3028" points="343.25 96,343.5 108.5,346.5 108.25,346.5 116.25,370 114.5,369.5 94.5" fill="#000000" stroke="none" stroke-opacity="0" />
<polygon id="3029" points="325.25 97,326 107.5,343.25 106,343.25 96" fill="#000000" stroke="none" stroke-opacity="0" />
<polygon id="3030" points="317.25 97.5,320.5 125.5,298 128.5,293.75 101" fill="#000000" stroke="none" stroke-opacity="0" />
<polygon id="3031" points="266 106.5,268.5 119.5,288.5 116,286.75 102.75" fill="#000000" stroke="none" stroke-opacity="0" />
<polygon id="3032" points="266 106.75,269.5 125.5,255 129.5,249.75 110.25" fill="#000000" stroke="none" stroke-opacity="0" />
<polygon id="3033" points="216.75 119.5,224.75 145.25,248 137.75,241 112" fill="#000000" stroke="none" stroke-opacity="0" />
<polygon id="3034" points="192 127,200.75 148.5,224.25 144.75,216.75 119.5" fill="#000000" stroke="none" stroke-opacity="0" />
<polygon id="3035" points="191.5 126.5,200.25 148.25,162.75 153,157 139.5,174.5 133" fill="#000000" stroke="none" stroke-opacity="0" />
<polygon id="3036" points="157 139,166.25 161.5,165.5 167.5,144 167,135 161.5,136 152.5,142 147.5" fill="#000000" stroke="none" stroke-opacity="0" />
<polygon id="3037" points="162.5 153,166.25 161.5,166 167.25,187.75 167,188.5 150" fill="#000000" stroke="none" stroke-opacity="0" />
<polygon id="3038" points="188.25 150,187.25 167.5,210.5 166.5,211 147,200.75 148.5" fill="#000000" stroke="none" stroke-opacity="0" />
<polygon id="3039" points="210.75 147.25,210 167,230.75 167,228.5 159.5,223.75 145" fill="#000000" stroke="none" stroke-opacity="0" />
<polygon id="3040" points="224 145,248 137.25,255 164,245.75 167.25,230.75 166.75" fill="#000000" stroke="none" stroke-opacity="0" />
<polygon id="3041" points="257.5 136,263.5 162,276.75 158.75,271.75 133.5" fill="#000000" stroke="none" stroke-opacity="0" />
<polygon id="3042" points="271.5 133.5,276.75 158.75,302 155,298 128.5" fill="#000000" stroke="none" stroke-opacity="0" />
<polygon id="3043" points="297.5 128.5,302 154.5,323 151.5,320 125.5" fill="#000000" stroke="none" stroke-opacity="0" />
<polygon id="3044" points="320.25 125,345 123,346.25 148.75,323 151.5" fill="#000000" stroke="none" stroke-opacity="0" />
<polygon id="3045" points="345 123.25,346.25 148.5,370 147.75,369.5 121.75" fill="#000000" stroke="none" stroke-opacity="0" />
<polygon id="3046" points="393.5 121.5,393.5 149,417 150,418 122.25" fill="#000000" stroke="none" stroke-opacity="0" />
<polygon id="3047" points="418.25 122.5,442 125,439.5 151,416.75 149.5" fill="#000000" stroke="none" stroke-opacity="0" />
<polygon id="3048" points="442 125.75,439.5 150.5,461 153.75,464.75 128.5" fill="#000000" stroke="none" stroke-opacity="0" />
<polygon id="3049" points="465 128.5,491.5 133.75,486 158.25,461 153.75" fill="#000000" stroke="none" stroke-opacity="0" />
<polygon id="3050" points="491.5 133.75,505.5 137.5,500 161.75,485.75 158" fill="#000000" stroke="none" stroke-opacity="0" />
<polygon id="3051" points="515 137.5,508.5 164,519.5 167.5,533.5 167.5,539.5 144.5" fill="#000000" stroke="none" stroke-opacity="0" />
<polygon id="3052" points="539 145,532.5 167,554 166.75,554 146.5" fill="#000000" stroke="none" stroke-opacity="0" />
<polygon id="3053" points="554 145,554 167,576.5 167,576.5 150.5" fill="#000000" stroke="none" stroke-opacity="0" />
<polygon id="3054" points="574.5 150,576 167.5,599 168,598 160.5,600.5 152.5" fill="#000000" stroke="none" stroke-opacity="0" />
<polygon id="3055" points="606.5 140,598 160.25,599 167.75,620.5 168,626.5 162,627.5 152,618.5 145" fill="#000000" stroke="none" stroke-opacity="0" />
<polygon id="3056-A" points="597.25 182,597 203.25,618 203.75,617.5 182" fill="#000000" stroke="none" stroke-opacity="0" xmlns="http://www.w3.org/2000/svg" />
<polygon id="3056-B" points="575 182,575 203.5,597.5 203.5,597 182" fill="#000000" stroke="none" stroke-opacity="0" />
<polygon id="3057" points="575.5 181.5,575.5 203.5,554.5 203.5,554.5 182.25" fill="#000000" stroke="none" stroke-opacity="0" />
<polygon id="3058" points="531.75 204,554.75 204,554 181.75,531.5 181.5" fill="#000000" stroke="none" stroke-opacity="0" />
<polygon id="3059" points="531.25 181.5,531.75 203.5,510 203.5,509.25 182" fill="#000000" stroke="none" stroke-opacity="0" />
<polygon id="3060" points="509.75 181.75,509.75 203.5,488 203.5,488 182" fill="#000000" stroke="none" stroke-opacity="0" />
<polygon id="3061" points="477.75 203.25,488 203.75,488.5 182.25,477.5 182.5" fill="#000000" stroke="none" stroke-opacity="0" />
<polygon id="3062" points="456.75 203.5,478 203.5,478 182.75,456.75 183.5" fill="#000000" stroke="none" stroke-opacity="0" />
<polygon id="3063" points="456.25 212,456.75 226.25,475 226,475.25 211.25" fill="#000000" stroke="none" stroke-opacity="0" />
<polygon id="3064" points="456.5 233.25,456.25 247.5,489.5 247.75,489.25 232.5" fill="#000000" stroke="none" stroke-opacity="0" />
<polygon id="3065" points="456.5 246.75,456.5 269,489.5 269.75,489.25 246.5" fill="#000000" stroke="none" stroke-opacity="0" />
<polygon id="3066" points="456.75 268.5,456.75 290.5,489.25 291,489.25 268.75" fill="#000000" stroke="none" stroke-opacity="0" />
<polygon id="3067" points="456.5 290.75,456.5 310.25,488.75 309.75,488.75 290" fill="#000000" stroke="none" stroke-opacity="0" />
<polygon id="3068" points="455.75 332.5,456 343.75,467.25 343.75,467.25 332.75" fill="#000000" stroke="none" stroke-opacity="0" />
<polygon id="3069" points="424.5 333.25,424.5 356.25,446.5 356.25,446.5 333" fill="#000000" stroke="none" stroke-opacity="0" />
<polygon id="3070" points="424.5 332.5,424.5 356.25,402 356.25,402 332.5" fill="#000000" stroke="none" stroke-opacity="0" />
<polygon id="3071" points="402.5 332.75,402.5 356,381 356,381 333.5" fill="#000000" stroke="none" stroke-opacity="0" />
<polygon id="3072" points="360.5 333,359.75 356,316.75 356,316 397,445.5 397.5,446 356,381 356.25,381.5 332.75" fill="#000000" stroke="none" stroke-opacity="0" />
<polygon id="3073" points="337.75 356.25,360.25 356.25,360.25 333,338.25 333" fill="#000000" stroke="none" stroke-opacity="0" />
<polygon id="3074" points="338.75 333,338.5 355.75,316.5 355.75,316.75 332.75" fill="#000000" stroke="none" stroke-opacity="0" />
<polygon id="3075" points="274.5 311,274.5 348,306.75 348,306.75 310.5" fill="#000000" stroke="none" stroke-opacity="0" />
<polygon id="3076" points="273.5 289.5,274.25 311.25,307.25 311,306.75 289.5" fill="#000000" stroke="none" stroke-opacity="0" />
<polygon id="3077" points="273.5 268.75,274 291,306.5 291.5,306.5 269.25" fill="#000000" stroke="none" stroke-opacity="0" />
<polygon id="3078" points="273.75 258.25,273.25 269.5,307 270.25,306.75 258" fill="#000000" stroke="none" stroke-opacity="0" />
<polygon id="3079" points="274 233,273.75 248.5,306.25 247.25,306.75 232.5" fill="#000000" stroke="none" stroke-opacity="0" />
<polygon id="3080" points="288 212,287.5 226.75,306.5 226.5,307 211.5" fill="#000000" stroke="none" stroke-opacity="0" />
<polygon id="3081" points="285 184,284.75 204.25,307.25 204.5,306.75 184" fill="#000000" stroke="none" stroke-opacity="0" />
<polygon id="3082" points="275.5 183.5,275.75 204,285 204.25,284.75 183.25" fill="#000000" stroke="none" stroke-opacity="0" />
<polygon id="3083" points="252.25 202.75,274.5 203.5,275.25 182.5,252 182.25" fill="#000000" stroke="none" stroke-opacity="0" />
<polygon id="3084" points="251.75 181.75,252.75 203,231.25 204,231.5 182.25" fill="#000000" stroke="none" stroke-opacity="0" />
<polygon id="3085" points="231.75 182,231.75 203.75,209.25 204.25,209.75 182" fill="#000000" stroke="none" stroke-opacity="0" />
<polygon id="3086" points="210.5 182.5,210.75 203.75,188 204.25,188.25 182.5" fill="#000000" stroke="none" stroke-opacity="0" />
<polygon id="3087" points="189 181.75,188.25 204,166 204,166.5 182.25" fill="#000000" stroke="none" stroke-opacity="0" />
<polygon id="3088" points="144.75 182.25,144.75 205.25,167 204.75,166.5 181.75" fill="#000000" stroke="none" stroke-opacity="0" />
<polygon id="3089" points="106 182.5,106.5 197.5,124.25 197.5,124.25 181.75" fill="#000000" stroke="none" stroke-opacity="0" />
<polygon id="3090" points="87.5 87.5,104.25 123.75,103.5 170.25,92.75 170.25,92.75 174,80.25 173.75,74.5 174.75,74 183.75,16.75 184,17 167,18.25 164.5,21.75 162.25,36.75 162.25,36.75 117.75,59.75 103.25,64 95.75,78.75 87.5" fill="#000000" stroke="none" stroke-opacity="0" />
<polygon id="1159-2" points="17.5 183.5,17 397,274 397.5,274.5 202.5,146 204,145 189.5,124 190,124 204.5,104 203.5,73.5 203.5,74 183.5" fill="#000000" stroke="none" stroke-opacity="0" />
<polygon id="1160-2" points="746.5 184.5,746 398,467.5 397.5,468 310,488.5 309,489 203.5,618 203.5,618 187.5,639 188,639 182.5,656 182,656.5 201.5,703 202.5,703.5 183" fill="#000000" stroke="none" stroke-opacity="0" />
</svg>
