<?xml version="1.0" encoding="UTF-8" standalone="no"?>
<!-- Created with Inkscape (http://www.inkscape.org/) -->

<svg xmlns:dc="http://purl.org/dc/elements/1.1/" xmlns:cc="http://creativecommons.org/ns#" xmlns:rdf="http://www.w3.org/1999/02/22-rdf-syntax-ns#" xmlns:svg="http://www.w3.org/2000/svg" xmlns="http://www.w3.org/2000/svg" xmlns:xlink="http://www.w3.org/1999/xlink" xmlns:sodipodi="http://sodipodi.sourceforge.net/DTD/sodipodi-0.dtd" xmlns:inkscape="http://www.inkscape.org/namespaces/inkscape" width="770" height="410" id="svg2" version="1.1" inkscape:version="0.47pre4 " sodipodi:docname="test.svg" style="display:inline">
<defs id="defs4">
<inkscape:perspective sodipodi:type="inkscape:persp3d" inkscape:vp_x="0 : 526.18109 : 1" inkscape:vp_y="0 : 1000 : 0" inkscape:vp_z="744.09448 : 526.18109 : 1" inkscape:persp3d-origin="372.04724 : 350.78739 : 1" id="perspective10" />
<inkscape:perspective id="perspective2832" inkscape:persp3d-origin="0.5 : 0.33333333 : 1" inkscape:vp_z="1 : 0.5 : 1" inkscape:vp_y="0 : 1000 : 0" inkscape:vp_x="0 : 0.5 : 1" sodipodi:type="inkscape:persp3d" />
<script type="text/ecmascript" id="script6">
		var fdat="",sdat="";
		function onAreaOver(evt){
			var ele=evt.target; 
			fdat=ele.getAttribute('fill'); 
			sdat=ele.getAttribute('stroke');
			ele.setAttribute('fill','#006fb6');//多边形填充颜色
			ele.setAttribute('stroke','#006fb6');//stroke 多边形 边框颜色
			
		}
		function onAreaOut(evt){
			var ele=evt.target; 
			ele.setAttribute('fill',fdat);
			ele.setAttribute('stroke',sdat);
		}
		</script>
<symbol overflow="visible" id="symbol" style="overflow:visible" xmlns="http://www.w3.org/2000/svg">
<path d="m 626,156 2,-2 2,-4 0,-3 -1,-3 -4,-3 -6,-3 -5,-2 -4,-2 -4,8 -6,14" id="path9" style="fill:#000000;stroke:none" />
</symbol>
</defs>
<sodipodi:namedview id="base" pagecolor="#ffffff" bordercolor="#666666" borderopacity="1.0" inkscape:pageopacity="0.0" inkscape:pageshadow="2" inkscape:zoom="5.6" inkscape:cx="583.1007" inkscape:cy="273.63795" inkscape:document-units="px" inkscape:current-layer="svg2" showgrid="false" inkscape:window-width="1280" inkscape:window-height="740" inkscape:window-x="-4" inkscape:window-y="-4" inkscape:window-maximized="1" />
<metadata id="metadata7">
<rdf:RDF>
<cc:Work>
<dc:format>
image/svg+xml</dc:format>
<dc:type rdf:resource="http://purl.org/dc/dcmitype/StillImage" />
<dc:title>
</dc:title>
</cc:Work>
</rdf:RDF>
</metadata>
<image xlink:href="yancheng_mall_2f.png" width="770" height="410" id="image2834" x="-485" y="255.93361" transform="translate(485,-255.9336)" inkscape:label="Layer 1" inkscape:groupmode="layer" style="display:inline" />
<polygon id="2001" points="36.5 116,60 102.5,58.5 100.25,61.75 95.75,78.75 86.5,85 87.25,103.25 125,102.75 160,36.25 160.25" fill="#000000" stroke="none" stroke-opacity="0" xmlns="http://www.w3.org/2000/svg" />
<polygon id="2002" points="85.25 87.75,102.75 124.25,129.25 112.25,111.5 75.75" fill="#000000" stroke="none" stroke-opacity="0" xmlns="http://www.w3.org/2000/svg" />
<polygon id="2003" points="111.75 75.75,127.75 112.75,153.5 101.25,143.5 74,169.25 63.5,166.25 54.25,139.5 64,128.5 63,119 67" fill="#000000" stroke="none" stroke-opacity="0" xmlns="http://www.w3.org/2000/svg" />
<polygon id="2004" points="155 83.5,161 99.25,173 95,166.75 78.75" fill="#000000" stroke="none" stroke-opacity="0" xmlns="http://www.w3.org/2000/svg" />
<polygon id="2005" points="193 45.5,205.25 82.25,231.5 75.75,222 37.75" fill="#000000" stroke="none" stroke-opacity="0" xmlns="http://www.w3.org/2000/svg" />
<polygon id="2006" points="222 38,231.75 75.5,257 69.5,249 32" fill="#000000" stroke="none" stroke-opacity="0" xmlns="http://www.w3.org/2000/svg" />
<polygon id="2007" points="292 47,295 64.5,306 63,304.5 45" fill="#000000" stroke="none" stroke-opacity="0" />
<polygon id="2008" points="309 21.5,313 61,340 59,339.5 19" fill="#000000" stroke="none" stroke-opacity="0" xmlns="http://www.w3.org/2000/svg" />
<polygon id="2009" points="338 19,339.5 59,367 58,366.5 18.5" fill="#000000" stroke="none" stroke-opacity="0" xmlns="http://www.w3.org/2000/svg" />
<polygon id="2010" points="366.25 18.5,367.5 58,395.5 59,396.5 17.5" fill="#000000" stroke="none" stroke-opacity="0" xmlns="http://www.w3.org/2000/svg" />
<polygon id="2011" points="395 18,396 59,422.75 59.75,425.5 19" fill="#000000" stroke="none" stroke-opacity="0" xmlns="http://www.w3.org/2000/svg" />
<polygon id="2012" points="424.5 18.5,454 21.5,449.5 61,422.75 59.5" fill="#000000" stroke="none" stroke-opacity="0" xmlns="http://www.w3.org/2000/svg" />
<polygon id="2013" points="458.5 46,456.5 63.5,467 65,470.5 47.5" fill="#000000" stroke="none" stroke-opacity="0" />
<polygon id="2014" points="512 30.5,504.5 70,532 77,540 37.5" fill="#000000" stroke="none" stroke-opacity="0" />
<polygon id="2015" points="540.25 38,568.25 45.75,556.5 83.5,531.5 76.75" fill="#000000" stroke="none" stroke-opacity="0" xmlns="http://www.w3.org/2000/svg" />
<polygon id="2016" points="594.5 83,606.5 87.5,602.5 99.5,591 95" fill="#000000" stroke="none" stroke-opacity="0" />
<polygon id="2017" points="593.5 63.5,620 73.5,608.25 101.75,634.5 114,650.5 75.5,644.5 67,634.5 63,621 64,596.25 54" fill="#000000" stroke="none" stroke-opacity="0" xmlns="http://www.w3.org/2000/svg" />
<polygon id="2018" points="650.5 76.25,675.75 88.75,659 124,634.25 113.25" fill="#000000" stroke="none" stroke-opacity="0" xmlns="http://www.w3.org/2000/svg" />
<polygon id="2019" points="700 94.5,705 103,727 117.5,726 160,659.5 159.5,659.5 122.5,676.75 86,683.25 86" fill="#000000" stroke="none" stroke-opacity="0" xmlns="http://www.w3.org/2000/svg" />
<polygon id="2020" points="570.25 126.5,563.5 146.75,599.5 153,605.75 139.75" fill="#000000" stroke="none" stroke-opacity="0" xmlns="http://www.w3.org/2000/svg" />
<polygon id="2021" points="546.25 118.25,538.25 144.25,564 146.75,570.25 126.5" fill="#000000" stroke="none" stroke-opacity="0" xmlns="http://www.w3.org/2000/svg" />
<polygon id="2022" points="521 111.5,546.5 118.5,538.25 144.25,514.75 137.75" fill="#000000" stroke="none" stroke-opacity="0" xmlns="http://www.w3.org/2000/svg" />
<polygon id="2023" points="497.5 106,492.5 124.5,508 128,513 109" fill="#000000" stroke="none" stroke-opacity="0" />
<polygon id="2024" points="476.25 101.75,474 115.5,494 119,497 106" fill="#000000" stroke="none" stroke-opacity="0" xmlns="http://www.w3.org/2000/svg" />
<polygon id="2025" points="443.5 97.5,442 125.5,465.5 129,469.5 101" fill="#000000" stroke="none" stroke-opacity="0" />
<polygon id="2026" points="419 95,418.5 108.5,437 110.5,437.75 96.75" fill="#000000" stroke="none" stroke-opacity="0" xmlns="http://www.w3.org/2000/svg" />
<polygon id="2027" points="394.5 93.75,393.75 112.75,415.75 114.25,416.25 108.75,418.5 108.25,419.5 94.5" fill="#000000" stroke="none" stroke-opacity="0" xmlns="http://www.w3.org/2000/svg" />
<polygon id="2028" points="344 95,345.5 115,369.5 113.5,367.75 93.5" fill="#000000" stroke="none" stroke-opacity="0" xmlns="http://www.w3.org/2000/svg" />
<polygon id="2029" points="323.5 97,325 111,345 108.5,344.5 94.5" fill="#000000" stroke="none" stroke-opacity="0" />
<polygon id="2030" points="297 127.5,321 124.5,317 97,292.5 100" fill="#000000" stroke="none" stroke-opacity="0" />
<polygon id="2031" points="265.75 105.5,268 118,288 115,285.5 102.5" fill="#000000" stroke="none" stroke-opacity="0" xmlns="http://www.w3.org/2000/svg" />
<polygon id="2032" points="248.5 109.5,255 129,269.75 125.5,264.75 105.25" fill="#000000" stroke="none" stroke-opacity="0" xmlns="http://www.w3.org/2000/svg" />
<polygon id="2033" points="215.5 118.5,223 144.75,248 138.5,241 110" fill="#000000" stroke="none" stroke-opacity="0" xmlns="http://www.w3.org/2000/svg" />
<polygon id="2034" points="215.5 118,223 145,200 148,192 126" fill="#000000" stroke="none" stroke-opacity="0" xmlns="http://www.w3.org/2000/svg" />
<polygon id="2035" points="157 140,162.25 154.25,201 149,192 125.5" fill="#000000" stroke="none" stroke-opacity="0" xmlns="http://www.w3.org/2000/svg" />
<polygon id="2036" points="157.25 139.5,166.25 166.5,142 166,136.25 162,134.5 153.75,138.75 147.5" fill="#000000" stroke="none" stroke-opacity="0" xmlns="http://www.w3.org/2000/svg" />
<polygon id="2037" points="162 153.5,166.5 166.5,189.25 167.5,188 148.5" fill="#000000" stroke="none" stroke-opacity="0" xmlns="http://www.w3.org/2000/svg" />
<polygon id="2038" points="187.5 149,189.5 167.5,209.5 166.5,209.75 146.5" fill="#000000" stroke="none" stroke-opacity="0" xmlns="http://www.w3.org/2000/svg" />
<polygon id="2039" points="209.75 146.75,209.25 166.5,229.5 166.5,223.25 144.25" fill="#000000" stroke="none" stroke-opacity="0" xmlns="http://www.w3.org/2000/svg" />
<polygon id="2040" points="223.5 144.75,229.5 166,242.5 167,255.5 163.5,248 137" fill="#000000" stroke="none" stroke-opacity="0" xmlns="http://www.w3.org/2000/svg" />
<polygon id="2041" points="257 136,263.25 160.75,277 158,270.75 132.5" fill="#000000" stroke="none" stroke-opacity="0" xmlns="http://www.w3.org/2000/svg" />
<polygon id="2042" points="270.5 132,277 157.75,302.5 153.5,297 127" fill="#000000" stroke="none" stroke-opacity="0" xmlns="http://www.w3.org/2000/svg" />
<polygon id="2043" points="297.25 127.5,302.5 153.5,323 150.75,320.25 124.25" fill="#000000" stroke="none" stroke-opacity="0" xmlns="http://www.w3.org/2000/svg" />
<polygon id="2044" points="320.5 124.25,345 122.5,347 148.5,323.25 150.25" fill="#000000" stroke="none" stroke-opacity="0" xmlns="http://www.w3.org/2000/svg" />
<polygon id="2045" points="344.75 122.75,368.25 121.5,369.25 148,346.5 148.5" fill="#000000" stroke="none" stroke-opacity="0" xmlns="http://www.w3.org/2000/svg" />
<polygon id="2046" points="393.25 121,392.75 147.5,416.75 149,417.5 122.75" fill="#000000" stroke="none" stroke-opacity="0" xmlns="http://www.w3.org/2000/svg" />
<polygon id="2047" points="417 122.5,416.75 149,440.5 151.5,442.75 125" fill="#000000" stroke="none" stroke-opacity="0" xmlns="http://www.w3.org/2000/svg" />
<polygon id="2048" points="442.5 125.25,440.5 151.25,462 153.5,465.5 128" fill="#000000" stroke="none" stroke-opacity="0" xmlns="http://www.w3.org/2000/svg" />
<polygon id="2049" points="465 127.5,461.5 153.5,486.25 157.5,490 131.75" fill="#000000" stroke="none" stroke-opacity="0" xmlns="http://www.w3.org/2000/svg" />
<polygon id="2050" points="490 131.5,506 135,498.75 161.5,486 157.25" fill="#000000" stroke="none" stroke-opacity="0" xmlns="http://www.w3.org/2000/svg" />
<polygon id="2051" points="514.5 137.5,508.25 162.75,518.5 166.25,533 166,533.25 160.25,538.75 144.5" fill="#000000" stroke="none" stroke-opacity="0" xmlns="http://www.w3.org/2000/svg" />
<polygon id="2052" points="538.5 144.5,533 160.5,532.5 166,553.5 166,552.25 145.75" fill="#000000" stroke="none" stroke-opacity="0" xmlns="http://www.w3.org/2000/svg" />
<polygon id="2053" points="552.5 145.5,553.5 166,575 166,575 148.5" fill="#000000" stroke="none" stroke-opacity="0" xmlns="http://www.w3.org/2000/svg" />
<polygon id="2054" points="574.5 148.5,574.75 166.25,596.75 166,596.75 160.75,599.25 153" fill="#000000" stroke="none" stroke-opacity="0" xmlns="http://www.w3.org/2000/svg" />
<polygon id="2055" points="605.5 140,597 159.25,596.75 165.75,617.5 167,626.5 162.5,628 153,622.5 147.5" fill="#000000" stroke="none" stroke-opacity="0" xmlns="http://www.w3.org/2000/svg" />
<polygon id="2056" points="659.5 159.75,659.5 170,670 170,670.25 174,682.5 174,682.5 159" fill="#000000" stroke="none" stroke-opacity="0" xmlns="http://www.w3.org/2000/svg" />
<polygon id="2057" points="575.75 182,575.5 203.75,597 203.75,597 181.75" fill="#000000" stroke="none" stroke-opacity="0" xmlns="http://www.w3.org/2000/svg" />
<polygon id="2058" points="553 182.25,553 203.5,575.25 203.5,575.5 181.75" fill="#000000" stroke="none" stroke-opacity="0" xmlns="http://www.w3.org/2000/svg" />
<polygon id="2059" points="531.5 182.25,531.5 203,553 203,552.75 182.25" fill="#000000" stroke="none" stroke-opacity="0" xmlns="http://www.w3.org/2000/svg" />
<polygon id="2060" points="509.5 182.25,509.5 203.25,531.25 203,531.25 181.75" fill="#000000" stroke="none" stroke-opacity="0" xmlns="http://www.w3.org/2000/svg" />
<polygon id="2061" points="510 181.5,510 203.5,488.25 203,487.75 182.5" fill="#000000" stroke="none" stroke-opacity="0" xmlns="http://www.w3.org/2000/svg" />
<polygon id="2062" points="477.5 182.75,477.5 200.25,488 200.5,488 182.5" fill="#000000" stroke="none" stroke-opacity="0" xmlns="http://www.w3.org/2000/svg" />
<polygon id="2063" points="477.75 182.5,477.75 203.5,455.75 204,456.25 182.5" fill="#000000" stroke="none" stroke-opacity="0" xmlns="http://www.w3.org/2000/svg" />
<polygon id="2064" points="456.25 210.75,455.75 225.75,475 225.75,475 210.75" fill="#000000" stroke="none" stroke-opacity="0" xmlns="http://www.w3.org/2000/svg" />
<polygon id="2065" points="456.25 232.75,456 246.75,488.75 247.25,488.75 233" fill="#000000" stroke="none" stroke-opacity="0" xmlns="http://www.w3.org/2000/svg" />
<polygon id="2066" points="456.5 246.75,456.25 266.5,488.5 266.75,488.5 247" fill="#000000" stroke="none" stroke-opacity="0" xmlns="http://www.w3.org/2000/svg" />
<polygon id="2067" points="456 266.5,456.25 290,489 289.5,488.75 267" fill="#000000" stroke="none" stroke-opacity="0" xmlns="http://www.w3.org/2000/svg" />
<polygon id="2068" points="456.25 289.75,456.5 310,488.75 310.25,488.75 290" fill="#000000" stroke="none" stroke-opacity="0" xmlns="http://www.w3.org/2000/svg" />
<polygon id="2069" points="455.5 330.5,456 342,467.5 342,467.5 330.5" fill="#000000" stroke="none" stroke-opacity="0" />
<polygon id="2070" points="424 332.5,423.75 354,446.25 354,446.5 332.5" fill="#000000" stroke="none" stroke-opacity="0" xmlns="http://www.w3.org/2000/svg" />
<polygon id="2071" points="424 332,424 353.75,402.5 353.75,402.5 332" fill="#000000" stroke="none" stroke-opacity="0" xmlns="http://www.w3.org/2000/svg" />
<polygon id="2072" points="403 332,403 353.75,381 353.75,380.75 332" fill="#000000" stroke="none" stroke-opacity="0" xmlns="http://www.w3.org/2000/svg" />
<polygon id="2073" points="316.5 352.5,359.25 353.25,359.5 332,381.25 331.75,381.5 353.75,446 354,445.5 396.75,316.25 397" fill="#000000" stroke="none" stroke-opacity="0" xmlns="http://www.w3.org/2000/svg" />
<polygon id="2074" points="359.25 331.75,360 353.25,337.25 352.75,337 331.75" fill="#000000" stroke="none" stroke-opacity="0" xmlns="http://www.w3.org/2000/svg" />
<polygon id="2075" points="337.5 331.5,337.5 354,316.5 354,316.5 331.75" fill="#000000" stroke="none" stroke-opacity="0" xmlns="http://www.w3.org/2000/svg" />
<polygon id="2076" points="274 310,274 347,306 347,306 309.5" fill="#000000" stroke="none" stroke-opacity="0" />
<polygon id="2077" points="274 290,274 311,306 311,306 290" fill="#000000" stroke="none" stroke-opacity="0" xmlns="http://www.w3.org/2000/svg" />
<polygon id="2078" points="306 269,306 294,273.5 294,273.5 269" fill="#000000" stroke="none" stroke-opacity="0" xmlns="http://www.w3.org/2000/svg" />
<polygon id="2079" points="305.5 247,305.5 270,273.5 270,273.5 246.5" fill="#000000" stroke="none" stroke-opacity="0" xmlns="http://www.w3.org/2000/svg" />
<polygon id="2080" points="274 247,306.5 247,306.5 233.5,274.5 233.5" fill="#000000" stroke="none" stroke-opacity="0" xmlns="http://www.w3.org/2000/svg" />
<polygon id="2081" points="288 211,288 226.5,306 226.5,306.5 211" fill="#000000" stroke="none" stroke-opacity="0" />
<polygon id="2082" points="284.5 183.5,284.5 202,307 202,307 183.5" fill="#000000" stroke="none" stroke-opacity="0" />
<polygon id="2083" points="273.5 183.5,273.75 203.5,285.5 203.5,285.5 183.5" fill="#000000" stroke="none" stroke-opacity="0" xmlns="http://www.w3.org/2000/svg" />
<polygon id="2084" points="273.25 182.5,273.5 204,252 204,252 182.5" fill="#000000" stroke="none" stroke-opacity="0" xmlns="http://www.w3.org/2000/svg" />
<polygon id="2085" points="252 182.5,252 204,231.5 204,231.5 181.75" fill="#000000" stroke="none" stroke-opacity="0" xmlns="http://www.w3.org/2000/svg" />
<polygon id="2086" points="209 182.25,209 204,232 204,231.75 182" fill="#000000" stroke="none" stroke-opacity="0" xmlns="http://www.w3.org/2000/svg" />
<polygon id="2087" points="208.75 181.5,209 202.75,186.5 203,186.5 182.25" fill="#000000" stroke="none" stroke-opacity="0" xmlns="http://www.w3.org/2000/svg" />
<polygon id="2088" points="186.5 182.25,186.5 203,166.5 203,166.75 182" fill="#000000" stroke="none" stroke-opacity="0" xmlns="http://www.w3.org/2000/svg" />
<polygon id="2089" points="166.5 182,166.5 203,144 203,144 182.25" fill="#000000" stroke="none" stroke-opacity="0" xmlns="http://www.w3.org/2000/svg" />
<polygon id="2090" points="103.25 182,103.5 196.5,123 197,123 181.5" fill="#000000" stroke="none" stroke-opacity="0" xmlns="http://www.w3.org/2000/svg" />
<polygon id="2091" points="79.5 160.5,79.5 174,90.25 173.75,90.25 169.5,102.5 170,102.75 160.5" fill="#000000" stroke="none" stroke-opacity="0" xmlns="http://www.w3.org/2000/svg" />
<polygon id="1006-1" points="193.25 45.75,205.25 82,179.75 91.5,166.25 54.5" fill="#000000" stroke="none" stroke-opacity="0" />
<polygon id="1009-1" points="249.25 32,257 69,287.5 64.5,283 36,310 33.25,308.75 22,297.5 23.25,281.25 25.75,263.25 29.25" fill="#000000" stroke="none" stroke-opacity="0" />
<polygon id="1016-1" points="454.25 22,453 33,479 37,474.75 64.5,504.5 70,512.25 30.75,482 26,465.25 23.5" fill="#000000" stroke="none" stroke-opacity="0" />
<polygon id="1019-1" points="568.25 45.75,556.25 83,582.25 92,596 54.5,580.25 49.5" fill="#000000" stroke="none" stroke-opacity="0" />
<polygon id="1117-1" points="689.25 160.75,737.75 161,743 163,746 166.25,746 204,689 203.75" fill="#000000" stroke="none" stroke-opacity="0" />
<polygon id="1158-1" points="73.25 203.75,72.75 160.25,24.5 160.75,20.25 162,17.5 164.5,15.75 167.75,15.75 203.75" fill="#000000" stroke="none" stroke-opacity="0" />
<polygon id="1159-1" points="16.25 203.5,16 396.5,273.5 396.5,273.75 203.25,144.25 203,144 189.25,123.25 189.25,123 202.75" fill="#000000" stroke="none" stroke-opacity="0" />
<polygon id="1160-1" points="596.75 181.75,618 182.25,617.75 186.75,639.5 187.25,639.75 182,658.75 182.25,659.25 201.5,746.25 203.5,745.75 396.5,466.75 397.25,467.25 309.75,489.25 309.5,488.25 203.25,596.75 202.75" fill="#000000" stroke="none" stroke-opacity="0" />

</svg>
