<?xml version="1.0" encoding="UTF-8" standalone="no"?>
<!-- Created with Inkscape (http://www.inkscape.org/) -->

<svg xmlns:dc="http://purl.org/dc/elements/1.1/" xmlns:cc="http://creativecommons.org/ns#" xmlns:rdf="http://www.w3.org/1999/02/22-rdf-syntax-ns#" xmlns:svg="http://www.w3.org/2000/svg" xmlns="http://www.w3.org/2000/svg" xmlns:xlink="http://www.w3.org/1999/xlink" xmlns:sodipodi="http://sodipodi.sourceforge.net/DTD/sodipodi-0.dtd" xmlns:inkscape="http://www.inkscape.org/namespaces/inkscape" width="770" height="410" id="svg2" version="1.1" inkscape:version="0.47pre4 " sodipodi:docname="test.svg" style="display:inline">
<defs id="defs4">
<inkscape:perspective sodipodi:type="inkscape:persp3d" inkscape:vp_x="0 : 526.18109 : 1" inkscape:vp_y="0 : 1000 : 0" inkscape:vp_z="744.09448 : 526.18109 : 1" inkscape:persp3d-origin="372.04724 : 350.78739 : 1" id="perspective10" />
<inkscape:perspective id="perspective2832" inkscape:persp3d-origin="0.5 : 0.33333333 : 1" inkscape:vp_z="1 : 0.5 : 1" inkscape:vp_y="0 : 1000 : 0" inkscape:vp_x="0 : 0.5 : 1" sodipodi:type="inkscape:persp3d" />
<script type="text/ecmascript" id="script6">
		var fdat="",sdat="";
		function onAreaOver(evt){
			var ele=evt.target; 
			fdat=ele.getAttribute('fill'); 
			sdat=ele.getAttribute('stroke');
			ele.setAttribute('fill','#006fb6');//多边形填充颜色
			ele.setAttribute('stroke','#006fb6');//stroke 多边形 边框颜色
			
		}
		function onAreaOut(evt){
			var ele=evt.target; 
			ele.setAttribute('fill',fdat);
			ele.setAttribute('stroke',sdat);
		}
		</script>
<symbol overflow="visible" id="symbol" style="overflow:visible">
<path d="m 626,156 2,-2 2,-4 0,-3 -1,-3 -4,-3 -6,-3 -5,-2 -4,-2 -4,8 -6,14" id="path9" style="fill:#000000;stroke:none" />
</symbol>
</defs>
<sodipodi:namedview id="base" pagecolor="#ffffff" bordercolor="#666666" borderopacity="1.0" inkscape:pageopacity="0.0" inkscape:pageshadow="2" inkscape:zoom="5.6" inkscape:cx="583.1007" inkscape:cy="273.63795" inkscape:document-units="px" inkscape:current-layer="svg2" showgrid="false" inkscape:window-width="1280" inkscape:window-height="740" inkscape:window-x="-4" inkscape:window-y="-4" inkscape:window-maximized="1" />
<metadata id="metadata7">
<rdf:RDF>
<cc:Work>
<dc:format>
image/svg+xml</dc:format>
<dc:type rdf:resource="http://purl.org/dc/dcmitype/StillImage" />
<dc:title>
</dc:title>
</cc:Work>
</rdf:RDF>
</metadata>
<image xlink:href="yancheng_mall_4f.png" width="770" height="410" id="image2834" x="-485" y="255.93361" transform="translate(485,-255.9336)" inkscape:label="Layer 1" inkscape:groupmode="layer" style="display:inline" />
<polygon id="4001" points="84.5 87.5,103.5 123,103.5 161.5,36.5 161.5,36 116,56 104.5,64 95,75 88.5" fill="#000000" stroke="none" stroke-opacity="0" xmlns="http://www.w3.org/2000/svg" />
<polygon id="4002" points="84.5 89,104 123.5,129 111.5,112.5 75" fill="#000000" stroke="none" stroke-opacity="0" xmlns="http://www.w3.org/2000/svg" />
<polygon id="4003" points="110.5 75,128 112.5,153.5 100.5,144 72.5,169 63.5,165.5 54,139.5 63.5,131 62,117 68" fill="#000000" stroke="none" stroke-opacity="0" xmlns="http://www.w3.org/2000/svg" />
<polygon id="4004" points="155.5 83,162 100,174 95.5,167.5 78" fill="#000000" stroke="none" stroke-opacity="0" xmlns="http://www.w3.org/2000/svg" />
<polygon id="4005" points="166 53.5,179 93,207 83.5,193.5 45" fill="#000000" stroke="none" stroke-opacity="0" xmlns="http://www.w3.org/2000/svg" />
<polygon id="4006" points="193 44.5,222 37,250 30,259 70,232.5 76,205.5 83.5" fill="#000000" stroke="none" stroke-opacity="0" xmlns="http://www.w3.org/2000/svg" />
<polygon id="4007" points="249 30,259.5 70,288.5 65,283.5 36.5,310.5 33.5,308.5 21.5,279 24.5" fill="#000000" stroke="none" stroke-opacity="0" xmlns="http://www.w3.org/2000/svg" />
<polygon id="4008" points="290.5 47,294 64.5,306.5 62.5,304 45" fill="#000000" stroke="none" stroke-opacity="0" xmlns="http://www.w3.org/2000/svg" />
<polygon id="4009" points="308.5 21,313.5 61.5,341 60,338 17.5" fill="#000000" stroke="none" stroke-opacity="0" xmlns="http://www.w3.org/2000/svg" />
<polygon id="4010" points="337 18,348 10.5,361.5 5,381.5 1.5,401.5 4.5,414.5 9.5,428 19.5,454 20.5,450 63,395 58,341.5 58.5" fill="#000000" stroke="none" stroke-opacity="0" xmlns="http://www.w3.org/2000/svg" />
<polygon id="4011" points="458 46,456.5 62,469 63,470.5 47.5" fill="#000000" stroke="none" stroke-opacity="0" xmlns="http://www.w3.org/2000/svg" />
<polygon id="4012" points="454 20.5,473.5 23,513.5 30.5,505.5 70.5,474.5 63.5,478.5 36.5,452.5 33.5" fill="#000000" stroke="none" stroke-opacity="0" xmlns="http://www.w3.org/2000/svg" />
<polygon id="4013" points="514 30.5,541.5 36.5,569.5 45.5,557 84,529.5 76.5,504 70" fill="#000000" stroke="none" stroke-opacity="0" xmlns="http://www.w3.org/2000/svg" />
<polygon id="4014" points="556.5 82.5,584 92.5,598 54,567.5 44.5" fill="#000000" stroke="none" stroke-opacity="0" xmlns="http://www.w3.org/2000/svg" />
<polygon id="4015" points="594.5 79.5,608 84,601 101,589.5 96" fill="#000000" stroke="none" stroke-opacity="0" xmlns="http://www.w3.org/2000/svg" />
<polygon id="4017" points="593.5 63,619 75,610 102,658 125.5,676 89,651.5 76.5,644 67,632.5 62,623.5 62,598 53.5" fill="#000000" stroke="none" stroke-opacity="0" xmlns="http://www.w3.org/2000/svg" />
<polygon id="4016" points="675.5 88,685.5 87,698.5 95,703.5 103,726.5 115.5,727 184.5,690 183,688.5 174.5,670.5 173.5,659.5 170.5,658 125.5" fill="#000000" stroke="none" stroke-opacity="0" xmlns="http://www.w3.org/2000/svg" />
<polygon id="4018" points="571.5 125.5,561.5 148,600.5 153,594 168,620 167.5,628.5 159.5,626 149.5,614.5 143,587 132" fill="#000000" stroke="none" stroke-opacity="0" xmlns="http://www.w3.org/2000/svg" />
<polygon id="4019" points="514.5 137,540 145.5,562 147.5,572.5 126,544.5 117.5,519.5 111" fill="#000000" stroke="none" stroke-opacity="0" xmlns="http://www.w3.org/2000/svg" />
<polygon id="4020" points="497 105,494 125,508 129,512.5 109.5" fill="#000000" stroke="none" stroke-opacity="0" xmlns="http://www.w3.org/2000/svg" />
<polygon id="4021" points="481 102,478.5 116,495.5 118,498.5 105.5" fill="#000000" stroke="none" stroke-opacity="0" xmlns="http://www.w3.org/2000/svg" />
<polygon id="4022" points="444.5 97.5,469.5 101,466 129,442.5 125.5" fill="#000000" stroke="none" stroke-opacity="0" xmlns="http://www.w3.org/2000/svg" />
<polygon id="4023" points="393.5 113.5,416.5 114.5,416.5 108,437.5 110.5,437.5 96,413.5 94.5,394.5 94" fill="#000000" stroke="none" stroke-opacity="0" xmlns="http://www.w3.org/2000/svg" />
<polygon id="4024" points="346.5 114.5,368 114,368 93.5,346 95.5,324 97,323.5 110.5,346.5 109" fill="#000000" stroke="none" stroke-opacity="0" xmlns="http://www.w3.org/2000/svg" />
<polygon id="4025" points="293 100.5,296.5 127,320.5 124,317 97.5" fill="#000000" stroke="none" stroke-opacity="0" xmlns="http://www.w3.org/2000/svg" />
<polygon id="4026" points="265 105.5,268 119.5,288.5 116,286 100.5" fill="#000000" stroke="none" stroke-opacity="0" xmlns="http://www.w3.org/2000/svg" />
<polygon id="4027" points="265 105.5,270.5 125,254 129,248.5 110" fill="#000000" stroke="none" stroke-opacity="0" xmlns="http://www.w3.org/2000/svg" />
<polygon id="4028" points="222.5 144.5,249 138,241 110.5,214.5 118" fill="#000000" stroke="none" stroke-opacity="0" xmlns="http://www.w3.org/2000/svg" />
<polygon id="4029" points="210.5 146,223 145,215.5 118,202 122.5" fill="#000000" stroke="none" stroke-opacity="0" xmlns="http://www.w3.org/2000/svg" />
<polygon id="4030" points="200 148.5,211.5 146.5,203 123,191.5 126.5" fill="#000000" stroke="none" stroke-opacity="0" xmlns="http://www.w3.org/2000/svg" />
<polygon id="4031" points="191.5 126.5,200 148.5,186.5 149.5,177 132" fill="#000000" stroke="none" stroke-opacity="0" xmlns="http://www.w3.org/2000/svg" />
<polygon id="4032" points="178.5 131,188.5 149.5,174.5 153,167 135" fill="#000000" stroke="none" stroke-opacity="0" xmlns="http://www.w3.org/2000/svg" />
<polygon id="4033" points="157 140,164 154,176 152,168.5 134" fill="#000000" stroke="none" stroke-opacity="0" xmlns="http://www.w3.org/2000/svg" />
<polygon id="4034" points="157.5 139,170.5 168.5,144 168.5,136 163,134 154.5,139 147" fill="#000000" stroke="none" stroke-opacity="0" xmlns="http://www.w3.org/2000/svg" />
<polygon id="4035" points="164.5 154,166.5 161.5,163.5 169,189 167,189 150" fill="#000000" stroke="none" stroke-opacity="0" xmlns="http://www.w3.org/2000/svg" />
<polygon id="4036" points="189 147.5,187.5 167,199 167,199 148" fill="#000000" stroke="none" stroke-opacity="0" xmlns="http://www.w3.org/2000/svg" />
<polygon id="4037" points="199 147.5,210.5 146.5,209.5 167.5,198 167" fill="#000000" stroke="none" stroke-opacity="0" xmlns="http://www.w3.org/2000/svg" />
<polygon id="4038" points="210.5 145,209.5 167.5,232.5 167,224.5 143.5" fill="#000000" stroke="none" stroke-opacity="0" xmlns="http://www.w3.org/2000/svg" />
<polygon id="4039" points="224 143.5,231.5 167,243 167,235.5 141" fill="#000000" stroke="none" stroke-opacity="0" xmlns="http://www.w3.org/2000/svg" />
<polygon id="4040" points="235 141,248.5 136.5,256 164.5,242 168.5" fill="#000000" stroke="none" stroke-opacity="0" xmlns="http://www.w3.org/2000/svg" />
<polygon id="4041" points="257 135.5,271 131.5,277 158.5,264 163" fill="#000000" stroke="none" stroke-opacity="0" xmlns="http://www.w3.org/2000/svg" />
<polygon id="4042" points="270.5 131,284 129,289 157.5,276 159" fill="#000000" stroke="none" stroke-opacity="0" xmlns="http://www.w3.org/2000/svg" />
<polygon id="4043" points="284.5 130,297.5 127,302 155,289 157" fill="#000000" stroke="none" stroke-opacity="0" xmlns="http://www.w3.org/2000/svg" />
<polygon id="4044" points="296.5 127,309.5 125.5,313.5 154.5,302.5 155" fill="#000000" stroke="none" stroke-opacity="0" xmlns="http://www.w3.org/2000/svg" />
<polygon id="4045" points="308.5 125.5,321 124.5,324 152.5,311.5 154" fill="#000000" stroke="none" stroke-opacity="0" xmlns="http://www.w3.org/2000/svg" />
<polygon id="4046" points="320 124,333 123,335 151,322 152.5" fill="#000000" stroke="none" stroke-opacity="0" xmlns="http://www.w3.org/2000/svg" />
<polygon id="4047" points="331.5 123.5,346 122.5,347.5 150.5,335 151.5" fill="#000000" stroke="none" stroke-opacity="0" xmlns="http://www.w3.org/2000/svg" />
<polygon id="4048" points="345 122.5,357.5 122,358.5 148.5,346.5 150" fill="#000000" stroke="none" stroke-opacity="0" xmlns="http://www.w3.org/2000/svg" />
<polygon id="4049" points="358 122,369.5 121.5,370.5 148.5,358.5 148.5" fill="#000000" stroke="none" stroke-opacity="0" xmlns="http://www.w3.org/2000/svg" />
<polygon id="4050" points="393 120,393 148,405.5 149,406 121" fill="#000000" stroke="none" stroke-opacity="0" xmlns="http://www.w3.org/2000/svg" />
<polygon id="4051" points="405.5 121,418 122,417.5 149.5,405.5 149.5" fill="#000000" stroke="none" stroke-opacity="0" xmlns="http://www.w3.org/2000/svg" />
<polygon id="4052" points="417 122,431 123.5,430 150.5,417.5 150" fill="#000000" stroke="none" stroke-opacity="0" xmlns="http://www.w3.org/2000/svg" />
<polygon id="4053" points="429.5 123.5,443 124.5,440.5 152,428.5 150.5" fill="#000000" stroke="none" stroke-opacity="0" xmlns="http://www.w3.org/2000/svg" />
<polygon id="4054" points="443 125,453.5 127,452 153,440.5 152" fill="#000000" stroke="none" stroke-opacity="0" xmlns="http://www.w3.org/2000/svg" />
<polygon id="4055" points="454 126.5,466 128,462.5 154.5,451.5 153" fill="#000000" stroke="none" stroke-opacity="0" xmlns="http://www.w3.org/2000/svg" />
<polygon id="4056" points="465.5 127.5,478.5 130,474.5 157,462.5 154" fill="#000000" stroke="none" stroke-opacity="0" xmlns="http://www.w3.org/2000/svg" />
<polygon id="4057" points="478.5 130.5,492.5 133,487 159,474.5 157" fill="#000000" stroke="none" stroke-opacity="0" xmlns="http://www.w3.org/2000/svg" />
<polygon id="4058" points="493 132,506 135,499 161,487.5 158.5" fill="#000000" stroke="none" stroke-opacity="0" xmlns="http://www.w3.org/2000/svg" />
<polygon id="4059" points="514.5 136.5,508 163.5,519.5 167,527.5 140.5" fill="#000000" stroke="none" stroke-opacity="0" xmlns="http://www.w3.org/2000/svg" />
<polygon id="4060" points="527 140.5,539.5 145,532.5 168,519.5 167.5" fill="#000000" stroke="none" stroke-opacity="0" xmlns="http://www.w3.org/2000/svg" />
<polygon id="4061" points="539.5 143.5,532.5 167,553.5 166,552.5 146" fill="#000000" stroke="none" stroke-opacity="0" xmlns="http://www.w3.org/2000/svg" />
<polygon id="4062" points="553 145.5,552.5 167,566 167,564 148" fill="#000000" stroke="none" stroke-opacity="0" xmlns="http://www.w3.org/2000/svg" />
<polygon id="4063" points="564 148,564 167,576.5 167.5,576 150" fill="#000000" stroke="none" stroke-opacity="0" xmlns="http://www.w3.org/2000/svg" />
<polygon id="4064" points="575.5 149,575 167,594.5 168,596.5 160,601.5 152" fill="#000000" stroke="none" stroke-opacity="0" xmlns="http://www.w3.org/2000/svg" />
<polygon id="4065" points="585 181.5,585.5 204,596.5 204,596.5 181.5" fill="#000000" stroke="none" stroke-opacity="0" xmlns="http://www.w3.org/2000/svg" />
<polygon id="4066" points="573 182,573 204.5,587 204,586.5 181.5" fill="#000000" stroke="none" stroke-opacity="0" xmlns="http://www.w3.org/2000/svg" />
<polygon id="4067" points="563.5 181.5,564 203.5,574.5 204,575.5 181.5" fill="#000000" stroke="none" stroke-opacity="0" xmlns="http://www.w3.org/2000/svg" />
<polygon id="4068" points="564 181.5,564.5 202.5,552 203,552 181.5" fill="#000000" stroke="none" stroke-opacity="0" xmlns="http://www.w3.org/2000/svg" />
<polygon id="4069" points="553.5 181.5,555 204,543 204,542.5 182" fill="#000000" stroke="none" stroke-opacity="0" xmlns="http://www.w3.org/2000/svg" />
<polygon id="4070" points="532 204.5,542.5 203.5,544 181,532 181.5" fill="#000000" stroke="none" stroke-opacity="0" xmlns="http://www.w3.org/2000/svg" />
<polygon id="4071" points="532.5 180.5,532.5 203.5,521 203,521 181.5" fill="#000000" stroke="none" stroke-opacity="0" xmlns="http://www.w3.org/2000/svg" />
<polygon id="4072" points="521.5 181.5,521 203.5,510 203.5,510 182" fill="#000000" stroke="none" stroke-opacity="0" xmlns="http://www.w3.org/2000/svg" />
<polygon id="4073" points="499.5 203,510.5 203.5,510.5 181,499.5 181.5" fill="#000000" stroke="none" stroke-opacity="0" xmlns="http://www.w3.org/2000/svg" />
<polygon id="4074" points="499.5 181.5,500.5 203.5,489 203.5,488.5 182" fill="#000000" stroke="none" stroke-opacity="0" xmlns="http://www.w3.org/2000/svg" />
<polygon id="4075" points="489.5 182,490 204,478.5 203.5,478 182.5" fill="#000000" stroke="none" stroke-opacity="0" xmlns="http://www.w3.org/2000/svg" />
<polygon id="4076" points="479 183,478.5 204,456 204,456 184" fill="#000000" stroke="none" stroke-opacity="0" xmlns="http://www.w3.org/2000/svg" />
<polygon id="4077" points="456 211,455 227.5,475 227,476 211.5" fill="#000000" stroke="none" stroke-opacity="0" xmlns="http://www.w3.org/2000/svg" />
<polygon id="4078" points="456.5 233.5,456.5 248,490 249,490 233.5" fill="#000000" stroke="none" stroke-opacity="0" xmlns="http://www.w3.org/2000/svg" />
<polygon id="4079" points="457 248.5,456.5 258.5,488.5 259,489.5 248" fill="#000000" stroke="none" stroke-opacity="0" xmlns="http://www.w3.org/2000/svg" />
<polygon id="4080" points="456 257,489 256.5,489 268,456 268" fill="#000000" stroke="none" stroke-opacity="0" xmlns="http://www.w3.org/2000/svg" />
<polygon id="4081" points="457 268,489 267.5,489 277.5,457 278" fill="#000000" stroke="none" stroke-opacity="0" xmlns="http://www.w3.org/2000/svg" />
<polygon id="4082" points="456 278,456.5 290,490 289.5,490 278" fill="#000000" stroke="none" stroke-opacity="0" xmlns="http://www.w3.org/2000/svg" />
<polygon id="4083" points="457.5 289.5,489.5 290,488 299.5,457 299.5" fill="#000000" stroke="none" stroke-opacity="0" xmlns="http://www.w3.org/2000/svg" />
<polygon id="4084" points="456 299.5,489 299.5,489 311.5,456.5 311.5" fill="#000000" stroke="none" stroke-opacity="0" xmlns="http://www.w3.org/2000/svg" />
<polygon id="4085" points="455.5 333,456 347.5,467 348.5,467.5 332.5" fill="#000000" stroke="none" stroke-opacity="0" xmlns="http://www.w3.org/2000/svg" />
<polygon id="4086" points="424 333.5,424 355.5,446.5 355.5,446.5 332" fill="#000000" stroke="none" stroke-opacity="0" xmlns="http://www.w3.org/2000/svg" />
<polygon id="4087" points="424.5 333,402.5 333,402.5 355.5,424.5 355.5" fill="#000000" stroke="none" stroke-opacity="0" xmlns="http://www.w3.org/2000/svg" />
<polygon id="4088" points="401.5 332,381 332,381 356,403 356" fill="#000000" stroke="none" stroke-opacity="0" xmlns="http://www.w3.org/2000/svg" />
<polygon id="4089" points="383.5 332,359 332,359 355.5,383 355.5" fill="#000000" stroke="none" stroke-opacity="0" xmlns="http://www.w3.org/2000/svg" />
<polygon id="4090" points="361 332,337.5 332,337.5 355.5,361.5 355.5" fill="#000000" stroke="none" stroke-opacity="0" xmlns="http://www.w3.org/2000/svg" />
<polygon id="4091" points="338 332.5,316.5 332.5,316.5 356,338.5 356" fill="#000000" stroke="none" stroke-opacity="0" xmlns="http://www.w3.org/2000/svg" />
<polygon id="4092" points="273.5 332.5,273.5 349.5,305 349.5,305 332.5" fill="#000000" stroke="none" stroke-opacity="0" xmlns="http://www.w3.org/2000/svg" />
<polygon id="4093" points="274 310.5,306.5 310.5,307.5 300,274 300" fill="#000000" stroke="none" stroke-opacity="0" xmlns="http://www.w3.org/2000/svg" />
<polygon id="4094" points="274.5 301,274.5 289.5,306.5 289.5,306.5 301.5" fill="#000000" stroke="none" stroke-opacity="0" xmlns="http://www.w3.org/2000/svg" />
<polygon id="4095" points="274 289.5,306 290,306.5 278,274 278.5" fill="#000000" stroke="none" stroke-opacity="0" xmlns="http://www.w3.org/2000/svg" />
<polygon id="4096" points="274.5 280.5,306.5 280.5,306.5 268,274 268" fill="#000000" stroke="none" stroke-opacity="0" xmlns="http://www.w3.org/2000/svg" />
<polygon id="4097" points="274.5 268.5,306 268.5,306 256.5,274.5 256.5" fill="#000000" stroke="none" stroke-opacity="0" xmlns="http://www.w3.org/2000/svg" />
<polygon id="4098" points="274 257,306.5 257,306.5 247,274.5 247" fill="#000000" stroke="none" stroke-opacity="0" xmlns="http://www.w3.org/2000/svg" />
<polygon id="4099" points="274 246.5,306 246.5,306 232.5,274 232.5" fill="#000000" stroke="none" stroke-opacity="0" xmlns="http://www.w3.org/2000/svg" />
<polygon id="4100" points="287 212,306.5 212,306.5 226.5,287 226.5" fill="#000000" stroke="none" stroke-opacity="0" xmlns="http://www.w3.org/2000/svg" />
<polygon id="4101" points="283.5 204,306.5 204,306.5 183,283.5 182.5" fill="#000000" stroke="none" stroke-opacity="0" xmlns="http://www.w3.org/2000/svg" />
<polygon id="4102" points="272.5 203,286.5 203,286.5 182,273.5 182" fill="#000000" stroke="none" stroke-opacity="0" xmlns="http://www.w3.org/2000/svg" />
<polygon id="4103" points="264 202.5,273.5 203.5,274 182,264 182" fill="#000000" stroke="none" stroke-opacity="0" xmlns="http://www.w3.org/2000/svg" />
<polygon id="4104" points="264.5 181.5,264.5 202,250.5 202,250.5 182" fill="#000000" stroke="none" stroke-opacity="0" xmlns="http://www.w3.org/2000/svg" />
<polygon id="4105" points="251.5 182,251 203.5,242 203.5,242 182.5" fill="#000000" stroke="none" stroke-opacity="0" xmlns="http://www.w3.org/2000/svg" />
<polygon id="4106" points="241.5 181.5,241.5 203,230 203,230.5 182" fill="#000000" stroke="none" stroke-opacity="0" xmlns="http://www.w3.org/2000/svg" />
<polygon id="4107" points="230 181.5,230 203.5,220 203.5,220 182" fill="#000000" stroke="none" stroke-opacity="0" xmlns="http://www.w3.org/2000/svg" />
<polygon id="4108" points="220.5 181.5,220.5 203.5,209.5 203.5,209.5 181.5" fill="#000000" stroke="none" stroke-opacity="0" xmlns="http://www.w3.org/2000/svg" />
<polygon id="4109" points="210.5 181.5,210.5 203.5,187 203.5,187 182.5" fill="#000000" stroke="none" stroke-opacity="0" xmlns="http://www.w3.org/2000/svg" />
<polygon id="4110" points="187.5 181.5,187.5 204,176 204,176 182.5" fill="#000000" stroke="none" stroke-opacity="0" xmlns="http://www.w3.org/2000/svg" />
<polygon id="4111" points="166 204,176.5 204,176.5 181.5,165 182" fill="#000000" stroke="none" stroke-opacity="0" xmlns="http://www.w3.org/2000/svg" />
<polygon id="4112" points="166.5 182,166 204.5,154.5 204.5,154.5 181.5" fill="#000000" stroke="none" stroke-opacity="0" xmlns="http://www.w3.org/2000/svg" />
<polygon id="4113" points="155 181.5,155 204,145 204,145 182" fill="#000000" stroke="none" stroke-opacity="0" xmlns="http://www.w3.org/2000/svg" />
<polygon id="4114" points="134.5 203.5,146.5 203.5,146.5 181.5,135 181.5" fill="#000000" stroke="none" stroke-opacity="0" xmlns="http://www.w3.org/2000/svg" />
<polygon id="4115" points="136 181.5,136 202.5,123.5 202.5,123 181.5" fill="#000000" stroke="none" stroke-opacity="0" xmlns="http://www.w3.org/2000/svg" />
<polygon id="4116" points="16.5 332.5,78.5 333,103 333.5,189 333,190 203,124 202.5,124 182,16.5 182" fill="#000000" stroke="none" stroke-opacity="0" xmlns="http://www.w3.org/2000/svg" />
<polygon id="4117" points="16 356.5,17 332,102.5 333,189.5 333.5,188.5 203,273.5 202,275 310,294.5 311,294.5 332,273.5 332.5,274 349.5,296 349.5,295.5 399.5,14.5 398.5" fill="#000000" stroke="none" stroke-opacity="0" xmlns="http://www.w3.org/2000/svg" />
<polygon id="1160-3" points="488.5 203,488 310.5,467.5 311,467.5 397.5,746.5 398,746.5 182,597 182.5,596 201" fill="#000000" stroke="none" stroke-opacity="0" />
</svg>
