<?xml version="1.0" encoding="UTF-8" standalone="no"?>
<!-- Created with Inkscape (http://www.inkscape.org/) -->

<svg xmlns:dc="http://purl.org/dc/elements/1.1/" xmlns:cc="http://creativecommons.org/ns#" xmlns:rdf="http://www.w3.org/1999/02/22-rdf-syntax-ns#" xmlns:svg="http://www.w3.org/2000/svg" xmlns="http://www.w3.org/2000/svg" xmlns:xlink="http://www.w3.org/1999/xlink" xmlns:sodipodi="http://sodipodi.sourceforge.net/DTD/sodipodi-0.dtd" xmlns:inkscape="http://www.inkscape.org/namespaces/inkscape" width="770" height="410" id="svg2" version="1.1" inkscape:version="0.47pre4 " sodipodi:docname="test.svg" style="display:inline">
<defs id="defs4">
<inkscape:perspective sodipodi:type="inkscape:persp3d" inkscape:vp_x="0 : 526.18109 : 1" inkscape:vp_y="0 : 1000 : 0" inkscape:vp_z="744.09448 : 526.18109 : 1" inkscape:persp3d-origin="372.04724 : 350.78739 : 1" id="perspective10" />
<inkscape:perspective id="perspective2832" inkscape:persp3d-origin="0.5 : 0.33333333 : 1" inkscape:vp_z="1 : 0.5 : 1" inkscape:vp_y="0 : 1000 : 0" inkscape:vp_x="0 : 0.5 : 1" sodipodi:type="inkscape:persp3d" />
<script type="text/ecmascript" id="script6">
		var fdat="",sdat="";
		function onAreaOver(evt){
			var ele=evt.target; 
			fdat=ele.getAttribute('fill'); 
			sdat=ele.getAttribute('stroke');
			ele.setAttribute('fill','#006fb6');//多边形填充颜色
			ele.setAttribute('stroke','#006fb6');//stroke 多边形 边框颜色
			
		}
		function onAreaOut(evt){
			var ele=evt.target; 
			ele.setAttribute('fill',fdat);
			ele.setAttribute('stroke',sdat);
		}
		</script>
<symbol overflow="visible" id="symbol" style="overflow:visible" xmlns="http://www.w3.org/2000/svg">
<path d="m 626,156 2,-2 2,-4 0,-3 -1,-3 -4,-3 -6,-3 -5,-2 -4,-2 -4,8 -6,14" id="path9" style="fill:#000000;stroke:none" />
</symbol>
</defs>
<sodipodi:namedview id="base" pagecolor="#ffffff" bordercolor="#666666" borderopacity="1.0" inkscape:pageopacity="0.0" inkscape:pageshadow="2" inkscape:zoom="5.6" inkscape:cx="583.1007" inkscape:cy="273.63795" inkscape:document-units="px" inkscape:current-layer="svg2" showgrid="false" inkscape:window-width="1280" inkscape:window-height="740" inkscape:window-x="-4" inkscape:window-y="-4" inkscape:window-maximized="1" />
<metadata id="metadata7">
<rdf:RDF>
<cc:Work>
<dc:format>
image/svg+xml</dc:format>
<dc:type rdf:resource="http://purl.org/dc/dcmitype/StillImage" />
<dc:title>
</dc:title>
</cc:Work>
</rdf:RDF>
</metadata>
<image xlink:href="yancheng_mall_1f.png" width="770" height="410" id="image2834" x="-485" y="255.93361" transform="translate(485,-255.9336)" inkscape:label="Layer 1" inkscape:groupmode="layer" style="display:inline" />
<polygon id="1001" points="37.5 139,72.5 139.5,73 160,37.5 159.5" fill="#000000" stroke="none" />
<polygon id="1002" points="37.20928 139.5349,73.25578 140.3101,73.64338 123.6434,60.85269 101.938,37.20928 115.5039" fill="#000000" stroke="none" stroke-opacity="0" />
<polygon id="1003" points="60.0775 101.5504,73.64338 123.6434,98.44958 110.0775,86.04649 87.98449" fill="#000000" stroke="none" stroke-opacity="0" />
<polygon id="1004" points="112.0155 75.96899,122.4806 97.67441,148.8372 87.59689,138.7597 63.95348" fill="#000000" stroke="none" stroke-opacity="0" />
<polygon id="1005" points="145.7364 61.2403,150.7752 71.31782,169.7674 63.95348,166.279 53.48837" fill="#000000" stroke="none" stroke-opacity="0" />
<polygon id="1006" points="167.0542 53.48837,182.9457 100.3876,208.1395 91.08526,195.3488 44.96123" fill="#000000" stroke="none" stroke-opacity="0" />
<polygon id="1007" points="194.9612 44.57364,201.5504 67.44185,229.0697 60.8527,222.8682 37.59689" fill="#000000" stroke="none" stroke-opacity="0" />
<polygon id="1008" points="222.8682 36.8217,228.6821 60.46511,255.0387 55.42635,249.2248 30.62015" fill="#000000" stroke="none" stroke-opacity="0" />
<polygon id="1009" points="250 30.62015,258.5271 78.68216,288.372 73.25581,281.3953 25.19379" fill="#000000" stroke="none" stroke-opacity="0" />
<polygon id="1010" points="281.0077 24.8062,282.1705 36.8217,302.3255 34.88371,301.5504 22.09302" fill="#000000" stroke="none" stroke-opacity="0" />
<polygon id="1011" points="308.1395 21.70542,311.6279 45.34883,339.2596 42.91085,337.5969 18.99224" fill="#000000" stroke="none" stroke-opacity="0" xmlns="http://www.w3.org/2000/svg" />
<polygon id="1012" points="337.9845 18.21705,339.5349 43.41085,367.8294 42.24805,365.8914 17.44186" fill="#000000" stroke="none" stroke-opacity="0" />
<polygon id="1013" points="395.3488 17.05426,395.3488 42.24805,423.2558 43.41085,425.5814 19.76744" fill="#000000" stroke="none" stroke-opacity="0" />
<polygon id="1014" points="424.4186 18.21705,423.2558 43.63565,451.5504 45.73643,453.8759 21.70542" fill="#000000" stroke="none" stroke-opacity="0" xmlns="http://www.w3.org/2000/svg" />
<polygon id="1015" points="459.6899 22.09302,460.0775 34.88371,479.8449 36.8217,481.0077 24.4186" fill="#000000" stroke="none" stroke-opacity="0" />
<polygon id="1016" points="481.3953 25.58139,473.6434 72.86821,502.3255 78.68216,512.403 30.62015" fill="#000000" stroke="none" stroke-opacity="0" />
<polygon id="1017" points="512.403 30.23255,507.7519 55.42635,533.7209 62.0155,540.6976 37.59689" fill="#000000" stroke="none" stroke-opacity="0" />
<polygon id="1018" points="539.9224 36.4341,534.1085 60.8527,561.6279 68.60464,568.217 45.73643" fill="#000000" stroke="none" stroke-opacity="0" />
<polygon id="1019" points="568.217 43.79844,553.8759 90.69766,579.4573 99.99998,595.7364 53.87596" fill="#000000" stroke="none" stroke-opacity="0" />
<polygon id="1020" points="596.124 53.10077,592.248 62.40309,612.7906 70.54263,617.0542 61.2403" fill="#000000" stroke="none" stroke-opacity="0" />
<polygon id="1021" points="623.6434 63.95348,613.9534 87.98448,640.6976 99.22479,649.9999 75.58138" fill="#000000" stroke="none" stroke-opacity="0" />
<polygon id="1022" points="675.9689 87.98449,664.341 109.6899,691.0852 123.6434,703.1007 102.3256" fill="#000000" stroke="none" stroke-opacity="0" />
<polygon id="1023" points="702.7131 101.5504,689.9224 122.4806,689.1472 140.6977,725.5813 140.6977,725.1937 115.5039" fill="#000000" stroke="none" stroke-opacity="0" />
<polygon id="1024" points="687.9844 139.5349,689.5348 160.8527,725.1937 160.0775,725.5813 138.3721" fill="#000000" stroke="none" stroke-opacity="0" />
<polygon id="1025" points="660.0775 139.1473,660.465 160.8527,689.5348 161.2403,690.31 138.7597" fill="#000000" stroke="none" stroke-opacity="0" />
<polygon id="1026" points="665.5038 110.0775,658.527 122.8682,659.6899 139.5349,689.1472 139.1473,689.5348 123.2558" fill="#000000" stroke="none" stroke-opacity="0" />
<polygon id="1027" points="605.0891 108.9147,623.5697 115.9418,629.5 118,633 115,639.5348 99.2248,613.5659 87.59689" fill="#000000" stroke="none" stroke-opacity="0" xmlns="http://www.w3.org/2000/svg" />
<polygon id="1028" points="595.7364 78.68217,586.8217 102.7132,605.4767 109.3023,614.0659 86.3217" fill="#000000" stroke="none" stroke-opacity="0" xmlns="http://www.w3.org/2000/svg" />
<polygon id="1029" points="560.8527 67.82945,553.8759 91.47286,528.6821 84.49612,534.8837 60.07751" fill="#000000" stroke="none" stroke-opacity="0" />
<polygon id="1030" points="507.3643 54.26356,502.7131 77.13177,529.0697 83.33332,534.8837 61.2403" fill="#000000" stroke="none" stroke-opacity="0" />
<polygon id="1031" points="451.5504 43.79845,449.6124 69.76743,467.0542 71.70542,470.9302 46.89922" fill="#000000" stroke="none" stroke-opacity="0" />
<polygon id="1032" points="423.6434 43.41085,451.1628 44.96124,450 69.37984,422.4302 68.32945" fill="#000000" stroke="none" stroke-opacity="0" xmlns="http://www.w3.org/2000/svg" />
<polygon id="1033" points="394.9612 41.86046,423.6434 41.86046,422.4806 68.60464,394.9612 65.89146" fill="#000000" stroke="none" stroke-opacity="0" />
<polygon id="1034" points="338.8721 43.74806,340.6976 67.66666,366.279 65.11627,366.6666 41.86046" fill="#000000" stroke="none" stroke-opacity="0" xmlns="http://www.w3.org/2000/svg" />
<polygon id="1035" points="310.4651 43.79844,313.9535 70.54263,340.6976 67.82944,338.7597 41.86046" fill="#000000" stroke="none" stroke-opacity="0" />
<polygon id="1036" points="292.248 47.28682,312.0155 44.18604,316.5038 70.70541,295.7364 74.031" fill="#000000" stroke="none" stroke-opacity="0" xmlns="http://www.w3.org/2000/svg" />
<polygon id="1037" points="227.5194 58.91472,233.2209 84.0465,260.8527 77.51937,254.2635 55.42635" fill="#000000" stroke="none" stroke-opacity="0" xmlns="http://www.w3.org/2000/svg" />
<polygon id="1038" points="201.1628 66.66666,208.9147 91.08526,233.3333 83.72092,227.1318 59.68991" fill="#000000" stroke="none" stroke-opacity="0" />
<polygon id="1039" points="148.062 85.65891,157.7519 110.0775,175.969 103.1008,166.6666 77.51937" fill="#000000" stroke="none" stroke-opacity="0" />
<polygon id="1040" points="147.6744 85.27131,157.7519 110.0775,132.5581 120.5426,122.093 97.28681" fill="#000000" stroke="none" stroke-opacity="0" />
<polygon id="1041" points="71.70541 123.2558,72.09301 140.6977,103.876 140.6977,104.2635 123.2558,97.2868 109.6899" fill="#000000" stroke="none" stroke-opacity="0" />
<polygon id="1042" points="72.8682 139.6977,72.48061 159.6899,103.1008 160.4651,103.1008 139.1473" fill="#000000" stroke="none" stroke-opacity="0" xmlns="http://www.w3.org/2000/svg" />
<polygon id="1043" points="156.2015 137.9845,138.7597 146.124,134.7713 151.5504,136.0465 158.1395,145.3488 161.6279,165.8914 161.6279" fill="#000000" stroke="none" stroke-opacity="0" xmlns="http://www.w3.org/2000/svg" />
<polygon id="1044" points="154.6511 137.9845,161.6279 153.1008,175.1938 151.938,167.4418 132.9457" fill="#000000" stroke="none" stroke-opacity="0" />
<polygon id="1045" points="167.4418 132.9457,175.1938 150.3876,188.3721 150.3876,180.2325 127.5194" fill="#000000" stroke="none" stroke-opacity="0" />
<polygon id="1046" points="179.4573 127.907,191.0853 124.031,200.3876 148.8372,187.9845 149.2248" fill="#000000" stroke="none" stroke-opacity="0" />
<polygon id="1047" points="189.1473 122.093,200 148.062,226.3566 145.3488,215.1163 113.1783" fill="#000000" stroke="none" stroke-opacity="0" xmlns="http://www.w3.org/2000/svg" />
<polygon id="1048" points="214.7287 113.5659,225.5814 144.186,248.4496 138.7597,240.31 106.9767" fill="#000000" stroke="none" stroke-opacity="0" />
<polygon id="1049" points="248.062 104.2636,254.2635 129.8449,271.3178 125.5814,263.9535 99.99999" fill="#000000" stroke="none" stroke-opacity="0" />
<polygon id="1050" points="263.5659 100.3876,268.6046 118.217,287.9845 115.5039,284.8837 96.51162" fill="#000000" stroke="none" stroke-opacity="0" />
<polygon id="1051" points="293.0232 95.73643,297.6744 128.2946,320.155 125.5814,316.279 93.02325" fill="#000000" stroke="none" stroke-opacity="0" />
<polygon id="1052" points="324.031 93.41084,325.1938 111.6279,345.3488 108.9147,345.3488 114.3411,369.3798 113.5659,368.9922 91.08526" fill="#000000" stroke="none" stroke-opacity="0" />
<polygon id="1053" points="393.4108 91.86046,394.5736 114.3411,419.3798 114.7287,419.7674 108.8643,437.0969 108.9651,437.2093 94.18604" fill="#000000" stroke="none" stroke-opacity="0" xmlns="http://www.w3.org/2000/svg" />
<polygon id="1054" points="445.7364 92.24805,442.248 124.8062,465.8914 128.2946,470.5426 96.51162" fill="#000000" stroke="none" stroke-opacity="0" />
<polygon id="1055" points="476.3565 97.67441,475.1938 115.5039,495.7364 118.9922,498.8372 101.1628" fill="#000000" stroke="none" stroke-opacity="0" />
<polygon id="1056" points="497.2868 101.5504,493.7984 125.969,507.7519 129.0697,512.403 104.2636" fill="#000000" stroke="none" stroke-opacity="0" />
<polygon id="1057" points="523.2557 106.5891,514.341 137.5969,538.372 143.7984,548.062 113.1783" fill="#000000" stroke="none" stroke-opacity="0" />
<polygon id="1058" points="547.6744 112.7907,572.093 121.3178,563.1782 147.2868,536.8217 146.5116" fill="#000000" stroke="none" stroke-opacity="0" />
<polygon id="1059" points="570.9302 125.1938,584.2209 129.5697,577.1937 149.3372,562.7906 148.4496" fill="#000000" stroke="none" stroke-opacity="0" xmlns="http://www.w3.org/2000/svg" />
<polygon id="1060" points="584.496 129.0697,576.8565 148.1744,589.9224 151.1628,596.124 133.3333" fill="#000000" stroke="none" stroke-opacity="0" xmlns="http://www.w3.org/2000/svg" />
<polygon id="1061" points="594.9612 132.5581,588.7596 151.1628,601.1627 152.3256,606.8643 137.3721" fill="#000000" stroke="none" stroke-opacity="0" xmlns="http://www.w3.org/2000/svg" />
<polygon id="1062" points="606.5891 137.5969,596.5116 161.6279,622.093 161.6279,626.7441 155.8139,625.9689 148.062,615.8914 141.4729" fill="#000000" stroke="none" stroke-opacity="0" />
<polygon id="1063" points="574.8062 160.8527,596.8992 161.2403,601.1627 151.1628,574.0309 146.8992" fill="#000000" stroke="none" stroke-opacity="0" />
<polygon id="1064" points="552.7131 146.5116,552.3255 161.2403,574.8062 160.8527,574.8062 146.8992" fill="#000000" stroke="none" stroke-opacity="0" />
<polygon id="1065" points="538.7596 146.5116,533.3333 160.4651,553.4883 159.6899,553.4883 145.7364" fill="#000000" stroke="none" stroke-opacity="0" />
<polygon id="1066" points="539.5349 144.186,532.5581 161.2403,508.5271 160.4651,513.9534 136.8217" fill="#000000" stroke="none" stroke-opacity="0" />
<polygon id="1067" points="491.4728 132.5581,506.5891 134.8837,500.7751 161.6279,486.4341 158.1395" fill="#000000" stroke="none" stroke-opacity="0" />
<polygon id="1068" points="464.7286 128.6822,492.248 131.3953,487.5969 157.7519,461.6279 153.5387" fill="#000000" stroke="none" stroke-opacity="0" xmlns="http://www.w3.org/2000/svg" />
<polygon id="1069" points="465.8914 127.1318,462.7906 153.8759,439.5349 150.7752,442.248 122.8682" fill="#000000" stroke="none" stroke-opacity="0" />
<polygon id="1070" points="417.0542 122.4806,444.9612 123.2558,440.6976 150.7752,416.6666 150.3876" fill="#000000" stroke="none" stroke-opacity="0" />
<polygon id="1071" points="393.0232 121.3178,418.9922 121.7054,418.6046 150.3876,393.4108 150" fill="#000000" stroke="none" stroke-opacity="0" />
<polygon id="1072" points="344.5736 122.4806,346.124 149.6124,369.7674 148.062,368.217 120.155" fill="#000000" stroke="none" stroke-opacity="0" />
<polygon id="1073" points="319.7674 124.4186,323.2558 151.938,346.5116 150,344.5736 120.9302" fill="#000000" stroke="none" stroke-opacity="0" />
<polygon id="1074" points="320.5426 124.031,323.2558 152.3256,301.5504 153.8759,297.6744 127.907" fill="#000000" stroke="none" stroke-opacity="0" />
<polygon id="1075" points="270.155 131.7829,275.5814 158.5271,301.938 152.7132,297.2868 126.3566" fill="#000000" stroke="none" stroke-opacity="0" />
<polygon id="1076" points="256.2015 135.2713,263.1783 162.4031,275.5814 157.7519,270.9302 132.1705" fill="#000000" stroke="none" stroke-opacity="0" />
<polygon id="1077" points="247.6744 138.3721,254.2635 161.2403,228.6821 160.4651,222.4806 143.0232" fill="#000000" stroke="none" stroke-opacity="0" />
<polygon id="1078" points="222.093 142.6356,229.0697 160.0775,207.7519 160.0775,208.1395 147.2868" fill="#000000" stroke="none" stroke-opacity="0" />
<polygon id="1079" points="187.9845 148.062,186.8217 162.0155,209.3023 161.6279,208.5271 145.7364" fill="#000000" stroke="none" stroke-opacity="0" />
<polygon id="1080" points="162.4031 152.3256,166.6666 161.2403,186.0465 162.0155,187.9845 150" fill="#000000" stroke="none" stroke-opacity="0" />
<polygon id="1081" points="71.70541 160.5271,72.09301 176.7442,91.47285 176.3566,92.24805 170.155,102.7132 170.5426,102.7132 160.0775" fill="#000000" stroke="none" stroke-opacity="0" xmlns="http://www.w3.org/2000/svg" />
<polygon id="1082" points="103.1008 181.7829,103.1008 203.4884,124.031 204.2635,124.031 181.6201" fill="#000000" stroke="none" stroke-opacity="0" xmlns="http://www.w3.org/2000/svg" />
<polygon id="1083" points="143.7984 181.7829,144.9612 203.4884,167.4418 203.4884,166.279 181.3953" fill="#000000" stroke="none" stroke-opacity="0" xmlns="http://www.w3.org/2000/svg" />
<polygon id="1084" points="165.8914 181.0077,167.0542 203.1008,188.7597 203.7635,188.3721 181.0077" fill="#000000" stroke="none" stroke-opacity="0" xmlns="http://www.w3.org/2000/svg" />
<polygon id="1085" points="187.5969 182.1705,209.3023 181.7829,208.9147 203.7132,188.7597 203.4884" fill="#000000" stroke="none" stroke-opacity="0" xmlns="http://www.w3.org/2000/svg" />
<polygon id="1086" points="207.3643 182.5581,232.5581 181.8953,231.7829 203.8759,207.7519 203.8759" fill="#000000" stroke="none" stroke-opacity="0" xmlns="http://www.w3.org/2000/svg" />
<polygon id="1087" points="230.6201 182.5581,252.7132 182.1705,253.4883 204.6511,230.6201 203.8759" fill="#000000" stroke="none" stroke-opacity="0" />
<polygon id="1088" points="251.938 181.7829,274.4186 182.1705,275.5814 204.2635,251.5504 204.6511" fill="#000000" stroke="none" stroke-opacity="0" />
<polygon id="1089" points="274.031 181.7829,274.4186 204.2635,285.2713 203.8759,286.0465 183.7209" fill="#000000" stroke="none" stroke-opacity="0" />
<polygon id="1090" points="286.0465 183.3333,306.5891 183.3333,306.5891 203.4884,286.1589 204.6511" fill="#000000" stroke="none" stroke-opacity="0" xmlns="http://www.w3.org/2000/svg" />
<polygon id="1091" points="287.9845 211.2403,288.0969 225.969,307.3643 225.5814,305.8139 210.8527" fill="#000000" stroke="none" stroke-opacity="0" xmlns="http://www.w3.org/2000/svg" />
<polygon id="1092" points="274.4186 232.9457,275.031 248.8372,306.2015 248.8372,306.2015 232.5581" fill="#000000" stroke="none" stroke-opacity="0" xmlns="http://www.w3.org/2000/svg" />
<polygon id="1093" points="274.4186 248.062,274.4186 268.6046,305.8139 268.6046,305.4263 247.2868" fill="#000000" stroke="none" stroke-opacity="0" />
<polygon id="1094" points="274.4186 267.0542,275.031 290.3101,306.5891 290.3101,305.4263 265.5038" fill="#000000" stroke="none" stroke-opacity="0" xmlns="http://www.w3.org/2000/svg" />
<polygon id="1095" points="274.031 289.5349,274.531 311.4031,305.8139 310.8527,305.8139 287.5969" fill="#000000" stroke="none" stroke-opacity="0" xmlns="http://www.w3.org/2000/svg" />
<polygon id="1096" points="274.8062 308.1395,275.1938 323.2558,306.2015 322.8682,305.8139 308.5271" fill="#000000" stroke="none" stroke-opacity="0" />
<polygon id="1097" points="274.8062 321.7054,274.4186 348.1744,306.2015 348.062,306.2015 321.3178" fill="#000000" stroke="none" stroke-opacity="0" xmlns="http://www.w3.org/2000/svg" />
<polygon id="1098" points="316.6666 332.9457,316.6666 365.1162,338.372 365.5038,338.372 332.9457" fill="#000000" stroke="none" stroke-opacity="0" />
<polygon id="1099" points="337.5969 332.7829,337.9845 365.8914,359.6899 365.1162,359.6899 332.3953" fill="#000000" stroke="none" stroke-opacity="0" xmlns="http://www.w3.org/2000/svg" />
<polygon id="1100" points="359.6899 332.1705,359.3023 397.2248,403.8759 396.062,402.7131 331.3953" fill="#000000" stroke="none" stroke-opacity="0" xmlns="http://www.w3.org/2000/svg" />
<polygon id="1101" points="401.938 332.1705,402.9883 366.0038,425.1938 366.0542,424.8062 332.5581" fill="#000000" stroke="none" stroke-opacity="0" xmlns="http://www.w3.org/2000/svg" />
<polygon id="1102" points="424.4185 332.1705,424.469 366.2791,445.7364 366.2791,446.5116 332.1705" fill="#000000" stroke="none" stroke-opacity="0" xmlns="http://www.w3.org/2000/svg" />
<polygon id="1103" points="456.9767 332.9457,457.3643 342.4728,467.4302 342.748,467.2674 332.6705" fill="#000000" stroke="none" stroke-opacity="0" xmlns="http://www.w3.org/2000/svg" />
<polygon id="1104" points="455.8139 289.1473,456.2015 309.3023,487.2596 310.8527,487.9844 289.5349" fill="#000000" stroke="none" stroke-opacity="0" xmlns="http://www.w3.org/2000/svg" />
<polygon id="1105" points="455.8139 268.217,456.2015 292.248,489.1472 291.4728,488.7596 267.0542" fill="#000000" stroke="none" stroke-opacity="0" />
<polygon id="1106" points="455.4263 246.124,489.5349 247.2868,489.5349 270.155,455.8139 270.155" fill="#000000" stroke="none" stroke-opacity="0" />
<polygon id="1107" points="455.0387 234.1085,455.8139 248.8372,488.1472 249.5504,487.9844 234.6705" fill="#000000" stroke="none" stroke-opacity="0" xmlns="http://www.w3.org/2000/svg" />
<polygon id="1108" points="455.8139 211.2403,455.8139 226.7442,475.5814 227.5194,476.1938 211.2403" fill="#000000" stroke="none" stroke-opacity="0" xmlns="http://www.w3.org/2000/svg" />
<polygon id="1109" points="455.5387 183.3953,456.2015 203.876,478.2945 204.4263,478.2945 183.7209" fill="#000000" stroke="none" stroke-opacity="0" xmlns="http://www.w3.org/2000/svg" />
<polygon id="1110" points="477.1317 182.5581,488.372 181.7829,488.7596 203.0504,477.9069 203.6628" fill="#000000" stroke="none" stroke-opacity="0" xmlns="http://www.w3.org/2000/svg" />
<polygon id="1111" points="487.9844 181.3953,487.5969 204.6512,511.2403 204.2635,510.8527 182.1705" fill="#000000" stroke="none" stroke-opacity="0" />
<polygon id="1112" points="510.8527 181.7829,531.3953 181.3953,531.0077 203.4884,510.8527 203.1008" fill="#000000" stroke="none" stroke-opacity="0" />
<polygon id="1113" points="531.3953 181.7829,553.1007 181.3953,552.7131 204.2635,531.0077 203.876" fill="#000000" stroke="none" stroke-opacity="0" />
<polygon id="1114" points="553.1007 181.7829,575.1937 181.3953,574.8062 203.876,552.4883 203.4884" fill="#000000" stroke="none" stroke-opacity="0" xmlns="http://www.w3.org/2000/svg" />
<polygon id="1115" points="574.4185 182.1705,597.2867 181.7829,596.8992 203.4884,574.093 203.1008" fill="#000000" stroke="none" stroke-opacity="0" xmlns="http://www.w3.org/2000/svg" />
<polygon id="1116" points="660.465 160.4651,660.0775 171.7054,673.6434 170.9302,674.0309 176.3566,688.372 176.7442,689.1472 160.0775" fill="#000000" stroke="none" stroke-opacity="0" />
<polygon id="1117-A" points="689.1472 160.8527,688.7596 204.2635,725.9689 203.876,725.5813 159.4147" fill="#000000" stroke="none" stroke-opacity="0" xmlns="http://www.w3.org/2000/svg" />
<polygon id="1117-B" points="724.8062 160.0775,736.434 159.6899,744.9612 163.1783,747.6744 168.9922,746.5115 202.3256,724.8062 203.1008" fill="#000000" stroke="none" stroke-opacity="0" />
<polygon id="1118-A" points="712.9534 202.3256,713.5658 227.907,725.1937 227.5194,724.8062 202.7132" fill="#000000" stroke="none" stroke-opacity="0" xmlns="http://www.w3.org/2000/svg" />
<polygon id="1118-B" points="725.1937 201.938,724.8062 227.1318,746.5115 226.7442,746.624 201.7752" fill="#000000" stroke="none" stroke-opacity="0" xmlns="http://www.w3.org/2000/svg" />
<polygon id="1119-A" points="713.1782 225.1938,712.7906 248.4496,725.1937 248.062,724.8062 225.969" fill="#000000" stroke="none" stroke-opacity="0" />
<polygon id="1119-B" points="725.1937 226.7442,724.8062 249.2248,747.2867 248.8372,746.3992 226.1938" fill="#000000" stroke="none" stroke-opacity="0" xmlns="http://www.w3.org/2000/svg" />
<polygon id="1120" points="737.8062 267.4418,738.4185 288.562,746.3992 288.6744,746.5115 267.8294" fill="#000000" stroke="none" stroke-opacity="0" xmlns="http://www.w3.org/2000/svg" />
<polygon id="1121-A" points="713.1782 268.6046,724.4185 268.217,725.0309 312.5155,713.4534 311.6279" fill="#000000" stroke="none" stroke-opacity="0" xmlns="http://www.w3.org/2000/svg" />
<polygon id="1121-B" points="724.8062 296.8992,724.4185 312.0155,746.5115 311.6279,746.124 296.124" fill="#000000" stroke="none" stroke-opacity="0" />
<polygon id="1122-A" points="713.5658 310.0775,713.1782 335.2713,724.4185 334.8837,724.0309 309.3023" fill="#000000" stroke="none" stroke-opacity="0" xmlns="http://www.w3.org/2000/svg" />
<polygon id="1122-B" points="724.0309 310.0775,747.2867 309.6899,746.8992 335.6589,724.8062 335.2713" fill="#000000" stroke="none" stroke-opacity="0" />
<polygon id="1123-A" points="714.341 334.8837,723.7557 334.4961,723.3682 368.8798,714.2906 368.9922" fill="#000000" stroke="none" stroke-opacity="0" xmlns="http://www.w3.org/2000/svg" />
<polygon id="1123-B" points="724.0309 333.7209,723.6434 368.6046,746.8992 368.217,746.5115 333.7209" fill="#000000" stroke="none" stroke-opacity="0" />
<polygon id="1124" points="724.8062 367.0542,724.4185 398.4496,746.8992 398.062,746.5115 367.0542" fill="#000000" stroke="none" stroke-opacity="0" />
<polygon id="1125" points="704.6511 366.2791,724.8062 365.8914,724.4185 398.062,704.2635 397.6744" fill="#000000" stroke="none" stroke-opacity="0" />
<polygon id="1126" points="689.5348 366.2791,705.8139 365.8914,704.6511 396.8992,689.5348 396.5116" fill="#000000" stroke="none" stroke-opacity="0" />
<polygon id="1127" points="617.8294 367.8294,640.2596 367.4418,639.872 397.624,618.0542 397.2364" fill="#000000" stroke="none" stroke-opacity="0" xmlns="http://www.w3.org/2000/svg" />
<polygon id="1128" points="618.4418 367.0542,618.0542 397.6744,596.5116 397.2868,596.124 366.6667" fill="#000000" stroke="none" stroke-opacity="0" xmlns="http://www.w3.org/2000/svg" />
<polygon id="1129" points="596.124 366.6667,595.7364 396.8992,574.8062 396.5116,574.4185 367.4418" fill="#000000" stroke="none" stroke-opacity="0" />
<polygon id="1130" points="553.4883 366.9922,575.1937 367.4418,574.4186 398.062,553.1007 397.6744" fill="#000000" stroke="none" stroke-opacity="0" xmlns="http://www.w3.org/2000/svg" />
<polygon id="1131" points="523.6434 366.2791,523.6434 379.0697,532.1705 379.4573,531.8333 396.7248,553.8759 397.6744,554.2635 367.0542" fill="#000000" stroke="none" stroke-opacity="0" xmlns="http://www.w3.org/2000/svg" />
<polygon id="1132" points="523.6434 367.0542,523.6434 377.5193,510.8527 377.5193,510.4651 397.2868,487.9845 398.4496,487.9845 367.0542" fill="#000000" stroke="none" stroke-opacity="0" />
<polygon id="1133" points="476.7441 379.4573,475.907 398.8372,488.3721 398.8372,488.8721 368.2674,481.0077 368.7674,481.3954 379.4574" fill="#000000" stroke="none" stroke-opacity="0" xmlns="http://www.w3.org/2000/svg" />
<polygon id="1134" points="458.9147 378.6822,458.9147 398.062,477.0697 398.3372,477.907 378.907" fill="#000000" stroke="none" stroke-opacity="0" xmlns="http://www.w3.org/2000/svg" />
<polygon id="1135" points="423.2558 365.5038,446.8992 365.5038,446.5116 396.8992,422.9186 396.5116" fill="#000000" stroke="none" stroke-opacity="0" xmlns="http://www.w3.org/2000/svg" />
<polygon id="1136" points="402.7131 365.1162,424.4186 364.7287,423.531 397.062,402.9883 396.6744" fill="#000000" stroke="none" stroke-opacity="0" xmlns="http://www.w3.org/2000/svg" />
<polygon id="1137" points="338.3721 364.3411,337.4845 397.562,359.3023 397.6744,360.4147 363.9535" fill="#000000" stroke="none" stroke-opacity="0" xmlns="http://www.w3.org/2000/svg" />
<polygon id="1138" points="316.6666 365.1162,337.9845 364.7287,337.5969 396.8992,315.5038 396.5116" fill="#000000" stroke="none" stroke-opacity="0" />
<polygon id="1139" points="286.3837 379.6822,286.4961 398.062,303.4883 397.6744,303.1007 379.4573" fill="#000000" stroke="none" stroke-opacity="0" xmlns="http://www.w3.org/2000/svg" />
<polygon id="1140" points="273.6434 366.6667,282.5581 366.2791,282.1705 379.8449,286.4341 379.4573,286.6085 397.6744,274.031 398.062" fill="#000000" stroke="none" stroke-opacity="0" xmlns="http://www.w3.org/2000/svg" />
<polygon id="1141" points="236.9845 367.4922,237.5969 379.0697,253.1007 378.2946,253.4883 398.062,274.531 398.5,274.4185 366.2791" fill="#000000" stroke="none" stroke-opacity="0" xmlns="http://www.w3.org/2000/svg" />
<polygon id="1142" points="237.5969 367.4418,237.6472 379.4573,230.2325 379.0697,230.2325 397.2868,208.9147 398.062,208.9147 367.4418" fill="#000000" stroke="none" stroke-opacity="0" xmlns="http://www.w3.org/2000/svg" />
<polygon id="1143" points="186.8217 367.8294,208.9147 367.4418,208.5271 398.062,186.5969 398.1744" fill="#000000" stroke="none" stroke-opacity="0" xmlns="http://www.w3.org/2000/svg" />
<polygon id="1144" points="165.8914 367.0542,187.5969 366.6667,187.2093 397.6744,166.279 397.2868" fill="#000000" stroke="none" stroke-opacity="0" />
<polygon id="1145" points="143.7364 396.6744,165.8914 397.2868,165.5038 366.6667,143.7984 366.2791" fill="#000000" stroke="none" stroke-opacity="0" xmlns="http://www.w3.org/2000/svg" />
<polygon id="1146" points="144.186 366.6667,143.7984 396.8992,123.2558 396.5116,122.8682 367.8294" fill="#000000" stroke="none" stroke-opacity="0" />
<polygon id="1147" points="59.68989 354.1046,59.3023 398.062,74.41857 397.6744,73.53098 354.7791" fill="#000000" stroke="none" stroke-opacity="0" xmlns="http://www.w3.org/2000/svg" />
<polygon id="1148" points="37.20927 377.0697,36.82167 397.4496,61.24028 398.062,60.85268 377.1317" fill="#000000" stroke="none" stroke-opacity="0" xmlns="http://www.w3.org/2000/svg" />
<polygon id="1149" points="16.27904 377.5193,37.59687 377.1317,37.20927 397.2868,15.89145 396.8992" fill="#000000" stroke="none" stroke-opacity="0" />
<polygon id="1150" points="16.05424 353.8759,15.66664 378.2946,38.75966 377.907,38.37206 353.1007" fill="#000000" stroke="none" stroke-opacity="0" xmlns="http://www.w3.org/2000/svg" />
<polygon id="1151" points="16.27904 333.1085,15.89145 354.2635,37.98447 353.8759,37.59687 333.1085" fill="#000000" stroke="none" stroke-opacity="0" xmlns="http://www.w3.org/2000/svg" />
<polygon id="1152" points="16.27904 310.4651,15.89145 333.7209,38.37206 333.3333,37.98447 310.0775" fill="#000000" stroke="none" stroke-opacity="0" />
<polygon id="1153" points="15.72865 289.9225,15.34106 311.6279,38.37206 311.2403,37.98447 290.31" fill="#000000" stroke="none" stroke-opacity="0" xmlns="http://www.w3.org/2000/svg" />
<polygon id="1154" points="15.89145 268.6046,15.50385 291.4728,38.75966 291.0852,38.37206 267.8294" fill="#000000" stroke="none" stroke-opacity="0" />
<polygon id="1155" points="15.77904 246.8992,15.39145 261.2403,24.41858 260.8527,24.03098 247.2868" fill="#000000" stroke="none" stroke-opacity="0" xmlns="http://www.w3.org/2000/svg" />
<polygon id="1156" points="15.89145 225.969,16.00385 239.9225,37.98447 239.5349,38.09687 225.1938" fill="#000000" stroke="none" stroke-opacity="0" xmlns="http://www.w3.org/2000/svg" />
<polygon id="1157" points="15.89145 201.9884,15.50385 225.969,38.37206 225.5814,37.98447 202.7132" fill="#000000" stroke="none" stroke-opacity="0" xmlns="http://www.w3.org/2000/svg" />
<polygon id="1158" points="15.50385 167.0542,15.11625 203.8759,72.86818 203.4884,72.48058 159.3023,37.59687 158.9147,28.29454 159.3023,19.76741 161.6279" fill="#000000" stroke="none" stroke-opacity="0" />
<polygon id="1159" points="38.5 203.5,38.5 376.5,59.5 378,61 354.5,102 355.5,102 368.5,275 366.5,274.5 203.5,145.5 203.5,145.5 189.5,125 189.5,124.5 204" fill="#000000" stroke="none" stroke-opacity="0" />
<polygon id="1160" points="488.5 204,487.5 311,467 310.5,467 347,481 346.5,481 368,660.5 368.5,660.5 354.5,689.5 355,690.5 366,715 365.5,713.5 268.5,724.5 268,724.5 247.5,715 247,713.5 203.5,659.5 203.5,660 182.5,640 181.5,639.5 187.5,617.5 187.5,618 182,597.5 181.5,597 204" fill="#000000" stroke="none" stroke-opacity="0" />



</svg>
