<?xml version="1.0" encoding="UTF-8" standalone="no"?>
<!-- Created with Inkscape (http://www.inkscape.org/) -->

<svg xmlns:dc="http://purl.org/dc/elements/1.1/" xmlns:cc="http://creativecommons.org/ns#" xmlns:rdf="http://www.w3.org/1999/02/22-rdf-syntax-ns#" xmlns:svg="http://www.w3.org/2000/svg" xmlns="http://www.w3.org/2000/svg" xmlns:xlink="http://www.w3.org/1999/xlink" xmlns:sodipodi="http://sodipodi.sourceforge.net/DTD/sodipodi-0.dtd" xmlns:inkscape="http://www.inkscape.org/namespaces/inkscape" width="770" height="800" id="svg2" version="1.1" inkscape:version="0.47pre4 " sodipodi:docname="test.svg" style="display:inline">
<defs id="defs4">
<inkscape:perspective sodipodi:type="inkscape:persp3d" inkscape:vp_x="0 : 526.18109 : 1" inkscape:vp_y="0 : 1000 : 0" inkscape:vp_z="744.09448 : 526.18109 : 1" inkscape:persp3d-origin="372.04724 : 350.78739 : 1" id="perspective10" />
<inkscape:perspective id="perspective2832" inkscape:persp3d-origin="0.5 : 0.33333333 : 1" inkscape:vp_z="1 : 0.5 : 1" inkscape:vp_y="0 : 1000 : 0" inkscape:vp_x="0 : 0.5 : 1" sodipodi:type="inkscape:persp3d" />
<script type="text/ecmascript" id="script6">
		var fdat="",sdat="";
		function onAreaOver(evt){
			var ele=evt.target; 
			fdat=ele.getAttribute('fill'); 
			sdat=ele.getAttribute('stroke');
			ele.setAttribute('fill','#006fb6');//多边形填充颜色
			ele.setAttribute('stroke','#006fb6');//stroke 多边形 边框颜色
			
		}
		function onAreaOut(evt){
			var ele=evt.target; 
			ele.setAttribute('fill',fdat);
			ele.setAttribute('stroke',sdat);
		}
		</script>
<symbol overflow="visible" id="symbol" style="overflow:visible">
<path d="m 626,156 2,-2 2,-4 0,-3 -1,-3 -4,-3 -6,-3 -5,-2 -4,-2 -4,8 -6,14" id="path9" style="fill:#000000;stroke:none" />
</symbol>
</defs>
<sodipodi:namedview id="base" pagecolor="#ffffff" bordercolor="#666666" borderopacity="1.0" inkscape:pageopacity="0.0" inkscape:pageshadow="2" inkscape:zoom="5.6" inkscape:cx="583.1007" inkscape:cy="273.63795" inkscape:document-units="px" inkscape:current-layer="svg2" showgrid="false" inkscape:window-width="1280" inkscape:window-height="740" inkscape:window-x="-4" inkscape:window-y="-4" inkscape:window-maximized="1" />
<metadata id="metadata7">
<rdf:RDF>
<cc:Work>
<dc:format>
image/svg+xml</dc:format>
<dc:type rdf:resource="http://purl.org/dc/dcmitype/StillImage" />
<dc:title>
</dc:title>
</cc:Work>
</rdf:RDF>
</metadata>
<image xlink:href="zhengzhou_2_b.jpg" width="770" height="800" id="image2834" x="-485" y="255.93361" transform="translate(485,-255.9336)" inkscape:label="Layer 1" inkscape:groupmode="layer" style="display:inline" xmlns:inkscape="http://www.inkscape.org/namespaces/inkscape" xmlns:xlink="http://www.w3.org/1999/xlink" xmlns="http://www.w3.org/2000/svg" />
<polygon id="B09" points="422 126,422 159,441 159,441 126" fill="#000000" stroke="none" stroke-opacity="0" />
<polygon id="B10" points="478 124,478 162,507 162,507 124" fill="#000000" stroke="none" stroke-opacity="0" />
<polygon id="B11" points="526 124,526 162,555.5 162,555.5 124.5" fill="#000000" stroke="none" stroke-opacity="0" />
<polygon id="B12" points="579.5 124.5,579.5 162.5,608.5 162.5,608 124.5" fill="#000000" stroke="none" stroke-opacity="0" />
<polygon id="B13" points="629.5 124,629.5 162.5,658.5 162.5,658.5 124.5" fill="#000000" stroke="none" stroke-opacity="0" />
<polygon id="B01" points="248.5 280,248.5 300,263 300,263 280" fill="#000000" stroke="none" stroke-opacity="0" />
<polygon id="B02" points="269.5 280.5,269.5 300,284.5 300,284.5 280.5" fill="#000000" stroke="none" stroke-opacity="0" />
<polygon id="B03" points="290.5 280.5,290.5 299.5,306 299.5,306 280" fill="#000000" stroke="none" stroke-opacity="0" />
<polygon id="B04" points="375 280,375 300,388.5 300,388.5 280" fill="#000000" stroke="none" stroke-opacity="0" />
<polygon id="B05" points="394.5 280.5,394.5 300,408 300.5,408 280.5" fill="#000000" stroke="none" stroke-opacity="0" />
<polygon id="B06" points="413.5 280.5,413.5 300.5,428.5 300.5,427.5 280" fill="#000000" stroke="none" stroke-opacity="0" />
<polygon id="B07" points="651.5 280,651 300,664.5 300,664.5 280.5" fill="#000000" stroke="none" stroke-opacity="0" />
<polygon id="B08" points="670.5 281,670.5 300,684.5 300,684 281" fill="#000000" stroke="none" stroke-opacity="0" />
<polygon id="B43" points="25.5 422,25 443.5,42.5 444,43 422" fill="#000000" stroke="none" stroke-opacity="0" />
<polygon id="B44" points="98 421.5,98 443.5,114.5 443.5,114.5 421.5" fill="#000000" stroke="none" stroke-opacity="0" />
<polygon id="B45" points="121 422,121 444,139 444,139 421.5" fill="#000000" stroke="none" stroke-opacity="0" />
<polygon id="B46" points="216.5 421.5,216.5 443.5,234 443.5,234 421.5" fill="#000000" stroke="none" stroke-opacity="0" />
<polygon id="B47" points="239.5 422,239.5 444.5,258 444.5,258 421.5" fill="#000000" stroke="none" stroke-opacity="0" />
<polygon id="B48" points="435 421.5,435 443.5,453 443.5,453 421.5" fill="#000000" stroke="none" stroke-opacity="0" />
<polygon id="B49" points="459.5 422,459.5 443,477.5 443,477.5 421.5" fill="#000000" stroke="none" stroke-opacity="0" />
<polygon id="B50" points="531 421,531 444,548.5 444,548.5 421.5" fill="#000000" stroke="none" stroke-opacity="0" />
<polygon id="B51" points="555.5 421,555.5 444,572 444,572 421.5" fill="#000000" stroke="none" stroke-opacity="0" />
<polygon id="B37" points="98 600.5,98 624.5,114 624.5,114 600" fill="#000000" stroke="none" stroke-opacity="0" />
<polygon id="B38" points="120 600.5,120 624.5,137 624.5,137 600" fill="#000000" stroke="none" stroke-opacity="0" />
<polygon id="B39" points="188 599.5,188 625,205 625,205 600" fill="#000000" stroke="none" stroke-opacity="0" />
<polygon id="B40" points="211 600,211 624,228 624,228 599.5" fill="#000000" stroke="none" stroke-opacity="0" />
<polygon id="B41" points="256 600,256 624.5,272.5 624.5,272.5 599.5" fill="#000000" stroke="none" stroke-opacity="0" />
<polygon id="B42" points="279 601,279 624.5,295 624.5,295 600.5" fill="#000000" stroke="none" stroke-opacity="0" />
<polygon id="B31" points="491.5 582.5,491.5 615,516.5 615,516.5 583" fill="#000000" stroke="none" stroke-opacity="0" />
<polygon id="B32" points="534.5 582.5,534.5 615.5,559.5 615.5,559.5 582" fill="#000000" stroke="none" stroke-opacity="0" />
<polygon id="B33" points="581.5 582.5,581 615,606.5 615,607 583" fill="#000000" stroke="none" stroke-opacity="0" />
<polygon id="B34" points="626 582.5,625.5 615.5,651.5 615.5,652 582.5" fill="#000000" stroke="none" stroke-opacity="0" />
<polygon id="B35" points="674 582.5,674 615,700 616,699.5 582.5" fill="#000000" stroke="none" stroke-opacity="0" />
<polygon id="B36" points="714 582,713.5 612.5,732 613,731 582" fill="#000000" stroke="none" stroke-opacity="0" />
</svg>

