<?xml version="1.0" encoding="UTF-8" standalone="no"?>
<!-- Created with Inkscape (http://www.inkscape.org/) -->

<svg xmlns:dc="http://purl.org/dc/elements/1.1/" xmlns:cc="http://creativecommons.org/ns#" xmlns:rdf="http://www.w3.org/1999/02/22-rdf-syntax-ns#" xmlns:svg="http://www.w3.org/2000/svg" xmlns="http://www.w3.org/2000/svg" xmlns:xlink="http://www.w3.org/1999/xlink" xmlns:sodipodi="http://sodipodi.sourceforge.net/DTD/sodipodi-0.dtd" xmlns:inkscape="http://www.inkscape.org/namespaces/inkscape" width="770" height="410" id="svg2" version="1.1" inkscape:version="0.47pre4 " sodipodi:docname="test.svg" style="display:inline">
<defs id="defs4">
<inkscape:perspective sodipodi:type="inkscape:persp3d" inkscape:vp_x="0 : 526.18109 : 1" inkscape:vp_y="0 : 1000 : 0" inkscape:vp_z="744.09448 : 526.18109 : 1" inkscape:persp3d-origin="372.04724 : 350.78739 : 1" id="perspective10" />
<inkscape:perspective id="perspective2832" inkscape:persp3d-origin="0.5 : 0.33333333 : 1" inkscape:vp_z="1 : 0.5 : 1" inkscape:vp_y="0 : 1000 : 0" inkscape:vp_x="0 : 0.5 : 1" sodipodi:type="inkscape:persp3d" />
<script type="text/ecmascript" id="script6">
		var fdat="",sdat="";
		function onAreaOver(evt){
			var ele=evt.target; 
			fdat=ele.getAttribute('fill'); 
			sdat=ele.getAttribute('stroke');
			ele.setAttribute('fill','#006fb6');//多边形填充颜色
			ele.setAttribute('stroke','#006fb6');//stroke 多边形 边框颜色
			
		}
		function onAreaOut(evt){
			var ele=evt.target; 
			ele.setAttribute('fill',fdat);
			ele.setAttribute('stroke',sdat);
		}
		</script>
<symbol overflow="visible" id="symbol" style="overflow:visible" xmlns="http://www.w3.org/2000/svg">
<path d="m 626,156 2,-2 2,-4 0,-3 -1,-3 -4,-3 -6,-3 -5,-2 -4,-2 -4,8 -6,14" id="path9" style="fill:#000000;stroke:none" />
</symbol>
</defs>
<sodipodi:namedview id="base" pagecolor="#ffffff" bordercolor="#666666" borderopacity="1.0" inkscape:pageopacity="0.0" inkscape:pageshadow="2" inkscape:zoom="5.6" inkscape:cx="583.1007" inkscape:cy="273.63795" inkscape:document-units="px" inkscape:current-layer="svg2" showgrid="false" inkscape:window-width="1280" inkscape:window-height="740" inkscape:window-x="-4" inkscape:window-y="-4" inkscape:window-maximized="1" />
<metadata id="metadata7">
<rdf:RDF>
<cc:Work>
<dc:format>
image/svg+xml</dc:format>
<dc:type rdf:resource="http://purl.org/dc/dcmitype/StillImage" />
<dc:title>
</dc:title>
</cc:Work>
</rdf:RDF>
</metadata>
<image xlink:href="wuxi_ad_zlm_s.jpg" width="770" height="410" id="image2834" x="-485" y="255.93361" transform="translate(485,-255.9336)" inkscape:label="Layer 1" inkscape:groupmode="layer" style="display:inline" />
<polygon id="A01" points="86 192,86 218.5,102 218.5,102 191.5" fill="#000000" stroke="none" stroke-opacity="0" />
<polygon id="A02" points="102.5 192,102.5 217.5,121 217.5,121 192" fill="#000000" stroke="none" stroke-opacity="0" />
<polygon id="A03" points="121.5 192.5,139 192.5,139 217.5,120.5 217.5" fill="#000000" stroke="none" stroke-opacity="0" />
<polygon id="A04" points="139.5 193,155 193,155 218.5,138.5 218.5" fill="#000000" stroke="none" stroke-opacity="0" />
<polygon id="A05" points="160.5 203,172.5 203,172.5 216,160 216" fill="#000000" stroke="none" stroke-opacity="0" />
<polygon id="A06" points="178 202.5,190.5 202.5,190.5 214.5,178 214.5" fill="#000000" stroke="none" stroke-opacity="0" />
<polygon id="A07" points="196 202.5,208.5 202.5,208.5 215,196 215" fill="#000000" stroke="none" stroke-opacity="0" />
<polygon id="A08" points="214.5 203,225.5 203,225.5 214.5,214.5 214.5" fill="#000000" stroke="none" stroke-opacity="0" />
<polygon id="A09" points="232 192.5,246.5 192.5,246.5 218,232 218" fill="#000000" stroke="none" stroke-opacity="0" />
<polygon id="A10" points="246.5 192.5,265 192.5,265 218,247 218" fill="#000000" stroke="none" stroke-opacity="0" />
<polygon id="A11" points="265 192.5,283.5 192.5,283.5 218,265 218" fill="#000000" stroke="none" stroke-opacity="0" />
<polygon id="A12" points="283 192.5,302 192.5,302 218,283 218" fill="#000000" stroke="none" stroke-opacity="0" />
<polygon id="A13" points="464 192.5,481 192.5,481 217.5,464 217.5" fill="#000000" stroke="none" stroke-opacity="0" />
<polygon id="A14" points="481 192.5,500 192.5,500 218.5,480.5 218.5" fill="#000000" stroke="none" stroke-opacity="0" />
<polygon id="A15" points="499.5 192.5,518.5 192.5,518.5 217.5,500 217.5" fill="#000000" stroke="none" stroke-opacity="0" />
<polygon id="A16" points="519 193,533.5 193,533.5 218,519 218" fill="#000000" stroke="none" stroke-opacity="0" />
<polygon id="A17" points="539.5 203.5,551.5 203.5,551.5 215,540 215" fill="#000000" stroke="none" stroke-opacity="0" />
<polygon id="A18" points="557.5 203.5,569.5 203.5,569.5 215,557.5 215" fill="#000000" stroke="none" stroke-opacity="0" />
<polygon id="A19" points="575.5 203,587.5 203,587.5 214.5,575.5 214.5" fill="#000000" stroke="none" stroke-opacity="0" />
<polygon id="A20" points="593 202.5,606 202.5,606 215,593.5 215" fill="#000000" stroke="none" stroke-opacity="0" />
<polygon id="A21" points="611 193,611 219,627 219,627 193" fill="#000000" stroke="none" stroke-opacity="0" />
<polygon id="A22" points="627.5 193.5,645 193.5,645 218.5,628 218.5" fill="#000000" stroke="none" stroke-opacity="0" />
<polygon id="A23" points="646 193,662 193,662 217.5,645.5 217.5" fill="#000000" stroke="none" stroke-opacity="0" />
<polygon id="A24" points="663 193.5,679.5 193.5,679.5 217.5,662 217.5" fill="#000000" stroke="none" stroke-opacity="0" />
<polygon id="A25" points="338 205,338 217.5,348.5 217.5,348.5 205.5" fill="#000000" stroke="none" stroke-opacity="0" />
<polygon id="A26" points="354 205.5,354 215.5,364 215.5,364 205.5" fill="#000000" stroke="none" stroke-opacity="0" />
<polygon id="A27" points="401 205,401 216,411.5 216,411.5 204.5" fill="#000000" stroke="none" stroke-opacity="0" />
<polygon id="A28" points="417.5 205.5,417.5 217,427.5 217,427.5 205.5" fill="#000000" stroke="none" stroke-opacity="0" />
<polygon id="A29" points="338.5 221.5,349 221.5,349 228,338 228" fill="#000000" stroke="none" stroke-opacity="0" />
<polygon id="A30" points="417.5 221.5,417.5 227,427.5 227,427.5 221.5" fill="#000000" stroke="none" stroke-opacity="0" />

</svg>

