<?xml version="1.0" encoding="UTF-8" standalone="no"?>
<!-- Created with Inkscape (http://www.inkscape.org/) -->

<svg xmlns:dc="http://purl.org/dc/elements/1.1/" xmlns:cc="http://creativecommons.org/ns#" xmlns:rdf="http://www.w3.org/1999/02/22-rdf-syntax-ns#" xmlns:svg="http://www.w3.org/2000/svg" xmlns="http://www.w3.org/2000/svg" xmlns:xlink="http://www.w3.org/1999/xlink" xmlns:sodipodi="http://sodipodi.sourceforge.net/DTD/sodipodi-0.dtd" xmlns:inkscape="http://www.inkscape.org/namespaces/inkscape" width="770" height="800" id="svg2" version="1.1" inkscape:version="0.47pre4 " sodipodi:docname="test.svg" style="display:inline">
<defs id="defs4">
<inkscape:perspective sodipodi:type="inkscape:persp3d" inkscape:vp_x="0 : 526.18109 : 1" inkscape:vp_y="0 : 1000 : 0" inkscape:vp_z="744.09448 : 526.18109 : 1" inkscape:persp3d-origin="372.04724 : 350.78739 : 1" id="perspective10" />
<inkscape:perspective id="perspective2832" inkscape:persp3d-origin="0.5 : 0.33333333 : 1" inkscape:vp_z="1 : 0.5 : 1" inkscape:vp_y="0 : 1000 : 0" inkscape:vp_x="0 : 0.5 : 1" sodipodi:type="inkscape:persp3d" />
<script type="text/ecmascript" id="script6">
		var fdat="",sdat="";
		function onAreaOver(evt){
			var ele=evt.target; 
			fdat=ele.getAttribute('fill'); 
			sdat=ele.getAttribute('stroke');
			ele.setAttribute('fill','#006fb6');//多边形填充颜色
			ele.setAttribute('stroke','#006fb6');//stroke 多边形 边框颜色
			
		}
		function onAreaOut(evt){
			var ele=evt.target; 
			ele.setAttribute('fill',fdat);
			ele.setAttribute('stroke',sdat);
		}
		</script>
<symbol overflow="visible" id="symbol" style="overflow:visible" xmlns="http://www.w3.org/2000/svg">
<path d="m 626,156 2,-2 2,-4 0,-3 -1,-3 -4,-3 -6,-3 -5,-2 -4,-2 -4,8 -6,14" id="path9" style="fill:#000000;stroke:none" />
</symbol>
</defs>
<sodipodi:namedview id="base" pagecolor="#ffffff" bordercolor="#666666" borderopacity="1.0" inkscape:pageopacity="0.0" inkscape:pageshadow="2" inkscape:zoom="5.6" inkscape:cx="583.1007" inkscape:cy="273.63795" inkscape:document-units="px" inkscape:current-layer="svg2" showgrid="false" inkscape:window-width="1280" inkscape:window-height="740" inkscape:window-x="-4" inkscape:window-y="-4" inkscape:window-maximized="1" />
<metadata id="metadata7">
<rdf:RDF>
<cc:Work>
<dc:format>
image/svg+xml</dc:format>
<dc:type rdf:resource="http://purl.org/dc/dcmitype/StillImage" />
<dc:title>
</dc:title>
</cc:Work>
</rdf:RDF>
</metadata>
<image xlink:href="qdchengyang_1_n.jpg" width="770" height="800" id="image2834" x="-485" y="255.93361" transform="translate(485,-255.9336)" inkscape:label="Layer 1" inkscape:groupmode="layer" style="display:inline" />
<polygon id="N01" points="45 286.5,45 319,64.5 319,64.5 286.5" fill="#000000" stroke="none" stroke-opacity="0" />
<polygon id="N02" points="100.5 286.5,100.5 320,153 320,153 286.5" fill="#000000" stroke="none" stroke-opacity="0" />
<polygon id="N03" points="166.5 260,166.5 278.5,180.5 278.5,180.5 260" fill="#000000" stroke="none" stroke-opacity="0" />
<polygon id="N04" points="228.5 260.5,228.5 278.5,243 278.5,243 260.5" fill="#000000" stroke="none" stroke-opacity="0" />
<polygon id="N05" points="331 260,331 278.5,345.5 278.5,345.5 259.5" fill="#000000" stroke="none" stroke-opacity="0" />
<polygon id="N06" points="393 260.5,393 278.5,407.5 278.5,407.5 260.5" fill="#000000" stroke="none" stroke-opacity="0" />
<polygon id="N07" points="543 286.5,543 320,564 320,564 287" fill="#000000" stroke="none" stroke-opacity="0" />
<polygon id="N08" points="584.5 285.5,584.5 319.5,605 319.5,605 285.5" fill="#000000" stroke="none" stroke-opacity="0" />
<polygon id="N09" points="625 286,625 319.5,647 319.5,647 285.5" fill="#000000" stroke="none" stroke-opacity="0" />
<polygon id="N10" points="666.5 286,666.5 320,688.5 320,688.5 286" fill="#000000" stroke="none" stroke-opacity="0" />
<polygon id="N11" points="709 286.5,709 320,729 320,729 286" fill="#000000" stroke="none" stroke-opacity="0" />
<polygon id="N12" points="43 663,43 697,62.5 697,62.5 663" fill="#000000" stroke="none" stroke-opacity="0" />
<polygon id="N13" points="82.5 663.5,82.5 697,104.5 697,104.5 664" fill="#000000" stroke="none" stroke-opacity="0" />
<polygon id="N14" points="125 663.5,125 697,145.5 697,145.5 663.5" fill="#000000" stroke="none" stroke-opacity="0" />
<polygon id="N15" points="165.5 663.5,165.5 696.5,186.5 696.5,186.5 663.5" fill="#000000" stroke="none" stroke-opacity="0" />
<polygon id="N16" points="206.5 662.5,206.5 697,228 697,228 662.5" fill="#000000" stroke="none" stroke-opacity="0" />
<polygon id="N17" points="363.5 637.5,363.5 656.5,378 656.5,378 637" fill="#000000" stroke="none" stroke-opacity="0" />
<polygon id="N18" points="425 638,425 656.5,440 656.5,440 637.5" fill="#000000" stroke="none" stroke-opacity="0" />
<polygon id="N19" points="527.5 638,527.5 656.5,542.5 656.5,542.5 638" fill="#000000" stroke="none" stroke-opacity="0" />
<polygon id="N20" points="589.5 638,589.5 656.5,605 656.5,605 637.5" fill="#000000" stroke="none" stroke-opacity="0" />
<polygon id="N21" points="617.5 663,617.5 697.5,671 697.5,671 663" fill="#000000" stroke="none" stroke-opacity="0" />
<polygon id="N22" points="706.5 663.5,706.5 697.5,727 697.5,727 663.5" fill="#000000" stroke="none" stroke-opacity="0" />

</svg>

