<?xml version="1.0" encoding="UTF-8" standalone="no"?>
<!-- Created with Inkscape (http://www.inkscape.org/) -->

<svg xmlns:dc="http://purl.org/dc/elements/1.1/" xmlns:cc="http://creativecommons.org/ns#" xmlns:rdf="http://www.w3.org/1999/02/22-rdf-syntax-ns#" xmlns:svg="http://www.w3.org/2000/svg" xmlns="http://www.w3.org/2000/svg" xmlns:xlink="http://www.w3.org/1999/xlink" xmlns:sodipodi="http://sodipodi.sourceforge.net/DTD/sodipodi-0.dtd" xmlns:inkscape="http://www.inkscape.org/namespaces/inkscape" width="770" height="800" id="svg2" version="1.1" inkscape:version="0.47pre4 " sodipodi:docname="test.svg" style="display:inline">
<defs id="defs4">
<inkscape:perspective sodipodi:type="inkscape:persp3d" inkscape:vp_x="0 : 526.18109 : 1" inkscape:vp_y="0 : 1000 : 0" inkscape:vp_z="744.09448 : 526.18109 : 1" inkscape:persp3d-origin="372.04724 : 350.78739 : 1" id="perspective10" />
<inkscape:perspective id="perspective2832" inkscape:persp3d-origin="0.5 : 0.33333333 : 1" inkscape:vp_z="1 : 0.5 : 1" inkscape:vp_y="0 : 1000 : 0" inkscape:vp_x="0 : 0.5 : 1" sodipodi:type="inkscape:persp3d" />
<script type="text/ecmascript" id="script6">
		var fdat="",sdat="";
		function onAreaOver(evt){
			var ele=evt.target; 
			fdat=ele.getAttribute('fill'); 
			sdat=ele.getAttribute('stroke');
			ele.setAttribute('fill','#006fb6');//多边形填充颜色
			ele.setAttribute('stroke','#006fb6');//stroke 多边形 边框颜色
			
		}
		function onAreaOut(evt){
			var ele=evt.target; 
			ele.setAttribute('fill',fdat);
			ele.setAttribute('stroke',sdat);
		}
		</script>
<symbol overflow="visible" id="symbol" style="overflow:visible" xmlns="http://www.w3.org/2000/svg">
<path d="m 626,156 2,-2 2,-4 0,-3 -1,-3 -4,-3 -6,-3 -5,-2 -4,-2 -4,8 -6,14" id="path9" style="fill:#000000;stroke:none" />
</symbol>
</defs>
<sodipodi:namedview id="base" pagecolor="#ffffff" bordercolor="#666666" borderopacity="1.0" inkscape:pageopacity="0.0" inkscape:pageshadow="2" inkscape:zoom="5.6" inkscape:cx="583.1007" inkscape:cy="273.63795" inkscape:document-units="px" inkscape:current-layer="svg2" showgrid="false" inkscape:window-width="1280" inkscape:window-height="740" inkscape:window-x="-4" inkscape:window-y="-4" inkscape:window-maximized="1" />
<metadata id="metadata7">
<rdf:RDF>
<cc:Work>
<dc:format>
image/svg+xml</dc:format>
<dc:type rdf:resource="http://purl.org/dc/dcmitype/StillImage" />
<dc:title>
</dc:title>
</cc:Work>
</rdf:RDF>
</metadata>
<image xlink:href="qdchengyang_4_e.jpg" width="770" height="800" id="image2834" x="-485" y="255.93361" transform="translate(485,-255.9336)" inkscape:label="Layer 1" inkscape:groupmode="layer" style="display:inline" />
<polygon id="E01" points="261 106.5,261 136,278.5 136,278.5 106.5" fill="#000000" stroke="none" stroke-opacity="0" />
<polygon id="E02" points="294 106.5,294 135.5,312 135.5,312 106.5" fill="#000000" stroke="none" stroke-opacity="0" />
<polygon id="E03" points="327 107,327 136,344.5 136,344.5 107.5" fill="#000000" stroke="none" stroke-opacity="0" />
<polygon id="E04" points="458.5 107.5,458.5 136,476.5 136,476.5 108" fill="#000000" stroke="none" stroke-opacity="0" />
<polygon id="E05" points="491.5 107,491.5 135.5,510 135.5,510 107" fill="#000000" stroke="none" stroke-opacity="0" />
<polygon id="E06" points="524.5 107,524.5 136,542.5 136,542.5 106.5" fill="#000000" stroke="none" stroke-opacity="0" />
<polygon id="E07" points="320.5 285,320.5 314,337.5 314,337.5 285" fill="#000000" stroke="none" stroke-opacity="0" />
<polygon id="E08" points="211 449.5,211 481,228 481,228 449.5" fill="#000000" stroke="none" stroke-opacity="0" />
<polygon id="E09" points="238 450,238 480.5,255 480.5,255 450" fill="#000000" stroke="none" stroke-opacity="0" />
<polygon id="E10" points="266 451,266 480.5,283.5 480.5,283.5 450" fill="#000000" stroke="none" stroke-opacity="0" />
<polygon id="E11" points="646.5 453.5,646.5 485.5,665 485.5,665 454" fill="#000000" stroke="none" stroke-opacity="0" />
<polygon id="E12" points="241 642.5,251.5 642.5,251.5 681.5,241 681.5" fill="#000000" stroke="none" stroke-opacity="0" />
<polygon id="E13-1" points="259 645,259 676.5,278 676.5,278 645" fill="#000000" stroke="none" stroke-opacity="0" />
<polygon id="E13-2" points="310 646,310 676.5,328.5 676.5,328.5 645" fill="#000000" stroke="none" stroke-opacity="0" />
<polygon id="E14-1" points="351.5 646,351.5 676.5,370 676.5,370 646.5" fill="#000000" stroke="none" stroke-opacity="0" />
<polygon id="E14-2" points="402 645.5,402 677,419.5 677,419.5 645" fill="#000000" stroke="none" stroke-opacity="0" />
<polygon id="E15" points="614 644.5,614 677,632.5 677,632.5 644.5" fill="#000000" stroke="none" stroke-opacity="0" />
<polygon id="E16" points="648.5 645,648.5 677,668 677,668 645.5" fill="#000000" stroke="none" stroke-opacity="0" />
<polygon id="E17" points="686 645.5,686 676.5,705 676.5,705 645" fill="#000000" stroke="none" stroke-opacity="0" />
<polygon id="E18" points="721.5 645,721.5 677,740 677,740 644.5" fill="#000000" stroke="none" stroke-opacity="0" />

</svg>

