<?xml version="1.0" encoding="UTF-8" standalone="no"?>
<!-- Created with Inkscape (http://www.inkscape.org/) -->

<svg xmlns:dc="http://purl.org/dc/elements/1.1/" xmlns:cc="http://creativecommons.org/ns#" xmlns:rdf="http://www.w3.org/1999/02/22-rdf-syntax-ns#" xmlns:svg="http://www.w3.org/2000/svg" xmlns="http://www.w3.org/2000/svg" xmlns:xlink="http://www.w3.org/1999/xlink" xmlns:sodipodi="http://sodipodi.sourceforge.net/DTD/sodipodi-0.dtd" xmlns:inkscape="http://www.inkscape.org/namespaces/inkscape" width="770" height="665" id="svg2" version="1.1" inkscape:version="0.47pre4 " sodipodi:docname="test.svg" style="display:inline">
	<defs id="defs4">
		<inkscape:perspective sodipodi:type="inkscape:persp3d" inkscape:vp_x="0 : 526.18109 : 1" inkscape:vp_y="0 : 1000 : 0" inkscape:vp_z="744.09448 : 526.18109 : 1" inkscape:persp3d-origin="372.04724 : 350.78739 : 1" id="perspective10" />
		<inkscape:perspective id="perspective2832" inkscape:persp3d-origin="0.5 : 0.33333333 : 1" inkscape:vp_z="1 : 0.5 : 1" inkscape:vp_y="0 : 1000 : 0" inkscape:vp_x="0 : 0.5 : 1" sodipodi:type="inkscape:persp3d" />
		<script type="text/ecmascript" id="script6">
		var fdat="",sdat="";
		function onAreaOver(evt){
			var ele=evt.target; 
			fdat=ele.getAttribute('fill'); 
			sdat=ele.getAttribute('stroke');
			ele.setAttribute('fill','#006fb6');//多边形填充颜色
			ele.setAttribute('stroke','#006fb6');//stroke 多边形 边框颜色
			
		}
		function onAreaOut(evt){
			var ele=evt.target; 
			ele.setAttribute('fill',fdat);
			ele.setAttribute('stroke',sdat);
		}
		</script>
		<symbol overflow="visible" id="symbol" style="overflow:visible">
			<path d="m 626,156 2,-2 2,-4 0,-3 -1,-3 -4,-3 -6,-3 -5,-2 -4,-2 -4,8 -6,14" id="path9" style="fill:#000000;stroke:none" />
		</symbol>
	</defs>
	<sodipodi:namedview id="base" pagecolor="#ffffff" bordercolor="#666666" borderopacity="1.0" inkscape:pageopacity="0.0" inkscape:pageshadow="2" inkscape:zoom="5.6" inkscape:cx="583.1007" inkscape:cy="273.63795" inkscape:document-units="px" inkscape:current-layer="svg2" showgrid="false" inkscape:window-width="1280" inkscape:window-height="740" inkscape:window-x="-4" inkscape:window-y="-4" inkscape:window-maximized="1" />
	<metadata id="metadata7">
		<rdf:RDF>
			<cc:Work>
				<dc:format>
				image/svg+xml</dc:format>
				<dc:type rdf:resource="http://purl.org/dc/dcmitype/StillImage" />
				<dc:title></dc:title>
			</cc:Work>
		</rdf:RDF>
	</metadata>
	<image xlink:href="zhengzhou_mall_a_af.png" width="770" height="665" id="image2834" x="-485" y="255.93361" transform="translate(485,-255.9336)" inkscape:label="Layer 1" inkscape:groupmode="layer" style="display:inline" />
	<polygon id="AF001" points="309.25 148.5,379 213,375 221,371.75 229,369 237,366.5 245.5,363.5 254.75,337.25 263.25,303 231.5,298 227.25,294 225,289 224.5,284.25 225.25,259.75 202.75" fill="#000000" stroke="none" stroke-opacity="0" />
	<polygon id="AF002" points="259.75 202.5,254.25 208.5,273.25 226.75,279.25 220.75" fill="#000000" stroke="none" stroke-opacity="0" />
	<polygon id="AF003" points="254.5 208,273.5 226.75,268.25 232.5,248.75 214.5" fill="#000000" stroke="none" stroke-opacity="0" />
	<polygon id="AF004" points="249 214.5,243.5 220.25,262.5 238.25,268 232.5" fill="#000000" stroke="none" stroke-opacity="0" />
	<polygon id="AF005" points="243.75 220.25,237.75 226.5,256.75 244.75,262.25 238.25" fill="#000000" stroke="none" stroke-opacity="0" />
	<polygon id="AF006" points="256.75 244.5,238 226.5,232.5 232.75,251.25 250.75" fill="#000000" stroke="none" stroke-opacity="0" />
	<polygon id="AF007" points="227 238.75,204.5 262.5,224.25 280.5,245.75 256.25" fill="#000000" stroke="none" stroke-opacity="0" />
	<polygon id="AF008" points="204.75 262.25,199.75 267.75,218.5 286.5,224 280.25" fill="#000000" stroke="none" stroke-opacity="0" />
	<polygon id="AF009" points="199.75 268,218.5 286.25,213.25 292.5,194.5 273.75" fill="#000000" stroke="none" stroke-opacity="0" />
	<polygon id="AF010" points="194.5 273.75,188.75 280.25,207.5 298.5,213.25 292.5" fill="#000000" stroke="none" stroke-opacity="0" />
	<polygon id="AF011" points="189 280.5,207.25 298.25,201.5 305,182.75 286.75" fill="#000000" stroke="none" stroke-opacity="0" />
	<polygon id="AF012" points="182.75 286.75,177.75 292.25,196.75 310.25,201.5 304.75" fill="#000000" stroke="none" stroke-opacity="0" />
	<polygon id="AF013" points="178 292.25,172.25 297.75,191.25 316.5,196.75 310.25" fill="#000000" stroke="none" stroke-opacity="0" />
	<polygon id="AF014" points="172.25 297.5,167 303.75,185.75 322,191.5 316.5" fill="#000000" stroke="none" stroke-opacity="0" />
	<polygon id="AF015" points="167 303.75,161 310.25,172.5 321.5,178.75 315" fill="#000000" stroke="none" stroke-opacity="0" />
	<polygon id="AF016" points="161 310,155.75 315.75,167.25 327,172.75 321" fill="#000000" stroke="none" stroke-opacity="0" />
	<polygon id="AF017" points="156 315.5,174.75 334.25,169.25 340,150.25 321.75" fill="#000000" stroke="none" stroke-opacity="0" />
	<polygon id="AF018" points="150.5 321.75,145 328.5,163.5 346.25,169.25 339.75" fill="#000000" stroke="none" stroke-opacity="0" />
	<polygon id="AF019" points="145 328.5,163.25 346.25,135.75 376.25,117.25 358" fill="#000000" stroke="none" stroke-opacity="0" />
	<polygon id="AF020" points="117.25 358,136 376.25,130.5 381.75,111.5 364.25" fill="#000000" stroke="none" stroke-opacity="0" />
	<polygon id="AF021" points="111.75 364.25,106.25 370,125 388.25,130.5 381.75" fill="#000000" stroke="none" stroke-opacity="0" />
	<polygon id="AF022" points="106.5 370,124.75 388.25,119.5 394.25,101 376" fill="#000000" stroke="none" stroke-opacity="0" />
	<polygon id="AF023" points="101.25 375.75,95 382.5,113.75 400.25,119.25 394" fill="#000000" stroke="none" stroke-opacity="0" />
	<polygon id="AF024" points="113.75 400.25,95.25 382.5,90 388.25,109 405.75" fill="#000000" stroke="none" stroke-opacity="0" />
	<polygon id="AF025" points="84.5 394,102.75 411.5,95 420.75,76.25 403.25" fill="#000000" stroke="none" stroke-opacity="0" />
	<polygon id="AF026" points="76.25 402.75,67.75 412.25,86.5 430,95 420.5" fill="#000000" stroke="none" stroke-opacity="0" />
	<polygon id="AF027" points="67.75 412,59.5 421.25,78.5 438.75,86.5 430" fill="#000000" stroke="none" stroke-opacity="0" />
	<polygon id="AF028" points="135.5 430.75,142 436,136.5 442.25,130 436" fill="#000000" stroke="none" stroke-opacity="0" />
	<polygon id="AF029" points="130 436.25,124.5 431,133.25 422,138.75 427.25" fill="#000000" stroke="none" stroke-opacity="0" />
	<polygon id="AF030" points="135 418.5,140.75 424.75,147 418.75,140.75 412.75" fill="#000000" stroke="none" stroke-opacity="0" />
	<polygon id="AF031" points="140.75 412.75,146.25 407,152.5 412.5,147 418.25" fill="#000000" stroke="none" stroke-opacity="0" />
	<polygon id="AF032" points="146.25 407.25,151.5 401,164 412,158 418.5" fill="#000000" stroke="none" stroke-opacity="0" />
	<polygon id="AF033" points="151.75 401,157.5 395.25,169 406.75,164 411.75" fill="#000000" stroke="none" stroke-opacity="0" />
	<polygon id="AF034" points="157.5 395.25,162.5 389.5,174.5 400.25,168.75 406.5" fill="#000000" stroke="none" stroke-opacity="0" />
	<polygon id="AF035" points="162.75 389.75,174.5 400,180 394.5,168.25 383.75" fill="#000000" stroke="none" stroke-opacity="0" />
	<polygon id="AF036" points="168.5 383.75,174 377.5,185.75 388,179.75 394.25" fill="#000000" stroke="none" stroke-opacity="0" />
	<polygon id="AF037" points="174 377.5,179.75 371.5,191.25 382.75,185.75 388" fill="#000000" stroke="none" stroke-opacity="0" />
	<polygon id="AF038" points="180 371.75,185.25 365.75,196.25 376.25,191 382.25" fill="#000000" stroke="none" stroke-opacity="0" />
	<polygon id="AF039" points="234.25 311.5,246.5 322.75,251.5 316.5,239.75 305.5" fill="#000000" stroke="none" stroke-opacity="0" />
	<polygon id="AF040" points="240 305.5,251.5 316.5,257 311,245.25 300.25" fill="#000000" stroke="none" stroke-opacity="0" />
	<polygon id="AF041" points="245.25 300.25,256.75 310.75,263 304.5,251 293.5" fill="#000000" stroke="none" stroke-opacity="0" />
	<polygon id="AF042" points="251 293.5,262.5 304,268 298.75,256.5 288" fill="#000000" stroke="none" stroke-opacity="0" />
	<polygon id="AF043" points="256.5 288,261.75 281.75,273.5 292.5,268 298.75" fill="#000000" stroke="none" stroke-opacity="0" />
	<polygon id="AF044" points="261.5 282,273 292.5,279 287,267.75 275.75" fill="#000000" stroke="none" stroke-opacity="0" />
	<polygon id="AF045" points="267.75 275.5,273.5 281,279.25 275.25,272.75 269.75" fill="#000000" stroke="none" stroke-opacity="0" />
	<polygon id="AF046" points="272.75 269.75,283.25 259,289.5 264,279.25 275" fill="#000000" stroke="none" stroke-opacity="0" />
	<polygon id="AF047" points="295.5 269,301.5 274.5,290 286.75,284 281.25" fill="#000000" stroke="none" stroke-opacity="0" />
	<polygon id="AF048" points="301 274.5,307.75 280,296 292.5,289.75 286.75" fill="#000000" stroke="none" stroke-opacity="0" />
	<polygon id="AF049" points="307.5 280.25,313.25 285.5,302.25 297.75,296.5 292" fill="#000000" stroke="none" stroke-opacity="0" />
	<polygon id="AF050" points="337.25 307.75,332 313.75,332.5 318.75,342.75 318,342.25 312" fill="#000000" stroke="none" stroke-opacity="0" />
	<polygon id="AF051" points="333 318.75,342.75 317.75,343 324.5,333.5 325" fill="#000000" stroke="none" stroke-opacity="0" />
	<polygon id="AF052" points="333.75 324.75,343 324.5,343.5 330.5,334 331" fill="#000000" stroke="none" stroke-opacity="0" />
	<polygon id="AF053" points="334.25 331.25,343.75 330.75,343.75 337.75,334.75 337.75" fill="#000000" stroke="none" stroke-opacity="0" />
	<polygon id="AF054" points="334.75 338,344 338,344.5 344.25,335 344.5" fill="#000000" stroke="none" stroke-opacity="0" />
	<polygon id="AF055" points="335 344.25,344.75 344,344.5 350,335 350" fill="#000000" stroke="none" stroke-opacity="0" />
	<polygon id="AF056" points="335 350,344 350,343.75 357,334.75 356.75" fill="#000000" stroke="none" stroke-opacity="0" />
	<polygon id="AF057" points="335 356.75,344 357,343.5 364.25,334 362.5" fill="#000000" stroke="none" stroke-opacity="0" />
	<polygon id="AF058" points="330.75 374.5,340.5 377.25,338.5 384,328.75 380.75" fill="#000000" stroke="none" stroke-opacity="0" />
	<polygon id="AF059" points="328.75 380.75,338 384,335.5 389.75,327 386" fill="#000000" stroke="none" stroke-opacity="0" />
	<polygon id="AF060" points="327 386,335.75 390,333.25 395.5,324.75 391.75" fill="#000000" stroke="none" stroke-opacity="0" />
	<polygon id="AF061" points="325 391.75,333.5 395.25,330.5 401.75,321.75 397" fill="#000000" stroke="none" stroke-opacity="0" />
	<polygon id="AF062" points="322.5 397,330.25 401.75,327.5 407.75,319 402.5" fill="#000000" stroke="none" stroke-opacity="0" />
	<polygon id="AF063" points="319.25 402.75,315.75 408,323.75 413.75,327.75 408" fill="#000000" stroke="none" stroke-opacity="0" />
	<polygon id="AF064" points="316 408,324 413.25,320.5 419.25,312.5 413.25" fill="#000000" stroke="none" stroke-opacity="0" />
	<polygon id="AF065" points="296.75 432.25,303.5 439.25,298.25 444,292.25 436.25" fill="#000000" stroke="none" stroke-opacity="0" />
	<polygon id="AF066" points="292.5 436.25,298.5 443.5,294 448.5,287.75 440.75" fill="#000000" stroke="none" stroke-opacity="0" />
	<polygon id="AF067" points="288 441,294 448,289 452.25,282.5 444.5" fill="#000000" stroke="none" stroke-opacity="0" />
	<polygon id="AF068" points="283.25 444.75,288.75 452.25,283.25 456.25,278.25 447.75" fill="#000000" stroke="none" stroke-opacity="0" />
	<polygon id="AF069" points="272.5 451.25,277.25 459.75,283.25 456.25,278.25 447.75" fill="#000000" stroke="none" stroke-opacity="0" />
	<polygon id="AF070" points="267.25 454.25,271.75 462.75,277.5 459.5,272.5 451.5" fill="#000000" stroke="none" stroke-opacity="0" />
	<polygon id="AF071" points="262 456.75,266 465.75,271.75 462.5,267.5 454.25" fill="#000000" stroke="none" stroke-opacity="0" />
	<polygon id="AF072" points="238.75 465.75,241.25 475,234.75 476.5,233 467" fill="#000000" stroke="none" stroke-opacity="0" />
	<polygon id="AF073" points="227.75 468.25,228.25 477.75,234.75 476.5,233 467.25" fill="#000000" stroke="none" stroke-opacity="0" />
	<polygon id="AF074" points="221 468.75,221.25 478.5,228.25 477.75,227.5 468.25" fill="#000000" stroke="none" stroke-opacity="0" />
	<polygon id="AF075" points="215 469,215 479,221.75 479,221.25 468.75" fill="#000000" stroke="none" stroke-opacity="0" />
	<polygon id="AF076" points="207.75 469,207.5 479.5,215.25 479.25,215.25 469.25" fill="#000000" stroke="none" stroke-opacity="0" />
	<polygon id="AF077" points="202 469.25,201.5 479.25,207.75 479.5,207.75 469.25" fill="#000000" stroke="none" stroke-opacity="0" />
	<polygon id="AF078" points="196 469.25,195.25 479.25,201.75 479.25,202.25 469" fill="#000000" stroke="none" stroke-opacity="0" />
	<polygon id="AF079" points="189.25 468.75,188.75 478.5,195.5 479,196 469.5" fill="#000000" stroke="none" stroke-opacity="0" />
	<polygon id="AF080" points="172 464.25,164.5 471.25,170.5 475.5,181.75 477.75,182.5 470,176 468.75" fill="#000000" stroke="none" stroke-opacity="0" />
	<polygon id="AF081" points="59.5 421.5,105.5 464.25,110.25 483.5,99 501,93.25 501.5,79.75 526.5,70.75 528.25,34 505.5,56 466,51.75 451.75,41.5 442" fill="#000000" stroke="none" stroke-opacity="0" />
	<polygon id="AF082" points="110.25 483.75,121.25 490.75,108.75 512.75,95.75 505.75" fill="#000000" stroke="none" stroke-opacity="0" />
	<polygon id="AF083" points="111.25 509,123.25 487.25,131.25 491.5,120.75 514.25" fill="#000000" stroke="none" stroke-opacity="0" />
	<polygon id="AF084" points="131.5 491.25,120.5 514.25,128.75 518.25,139.5 494.75" fill="#000000" stroke="none" stroke-opacity="0" />
	<polygon id="AF085" points="138.75 494.25,128.5 518.25,136.75 522,146.25 497.5" fill="#000000" stroke="none" stroke-opacity="0" />
	<polygon id="AF086" points="146.25 497.5,136.75 521.5,145.75 525,153.5 500" fill="#000000" stroke="none" stroke-opacity="0" />
	<polygon id="AF087" points="153.5 500.25,146 524.25,154.75 527.5,161 502.25" fill="#000000" stroke="none" stroke-opacity="0" />
	<polygon id="AF088" points="169.25 504.5,163.5 529.25,172.75 531.25,177.75 506" fill="#000000" stroke="none" stroke-opacity="0" />
	<polygon id="AF089" points="177.75 506.25,172.5 531.5,182 532.75,185.25 507" fill="#000000" stroke="none" stroke-opacity="0" />
	<polygon id="AF090" points="185 507.25,182.25 532.5,190.75 533.5,192.5 508" fill="#000000" stroke="none" stroke-opacity="0" />
	<polygon id="AF091" points="192.25 508.25,201.25 508.75,200.5 533.75,190.75 533.5" fill="#000000" stroke="none" stroke-opacity="0" />
	<polygon id="AF092" points="201 508.5,200.25 533.25,209.25 533.75,218.75 533.5,228.25 532.5,240.75 530.75,255.25 527.5,249 503.25,238.75 505.5,229.75 507.25,220.5 508.25,211.25 509" fill="#000000" stroke="none" stroke-opacity="0" />
	<polygon id="AF093" points="249 503.25,255 527,264.25 524.75,256 501.25" fill="#000000" stroke="none" stroke-opacity="0" />
	<polygon id="AF094" points="267.75 497,271 505.75,267.25 507,273 522.25,281.5 518.75,289.25 515.25,278.75 492.25" fill="#000000" stroke="none" stroke-opacity="0" />
	<polygon id="AF095" points="278.75 492.5,289.25 515,298 510.75,285.75 488.25" fill="#000000" stroke="none" stroke-opacity="0" />
	<polygon id="AF096" points="286 488.5,293 484.25,306 506.25,297.75 510.75" fill="#000000" stroke="none" stroke-opacity="0" />
	<polygon id="AF097" points="292.75 484.5,300 480,313.25 501.25,305.5 506" fill="#000000" stroke="none" stroke-opacity="0" />
	<polygon id="AF098" points="299.75 480.25,313 501,321 495.5,306.25 475.75" fill="#000000" stroke="none" stroke-opacity="0" />
	<polygon id="AF099" points="306 475.75,321 496,328.5 490.25,312.5 470.5" fill="#000000" stroke="none" stroke-opacity="0" />
	<polygon id="AF100" points="312.5 470.75,328.25 489.75,336 484,318.75 465.5" fill="#000000" stroke="none" stroke-opacity="0" />
	<polygon id="AF101" points="318.75 465.5,335.75 483.75,343.75 477,352 468,361 457,366.25 449.5,371.25 441,348.5 428.5,342 439.5,334 449.25,327.25 457.5" fill="#000000" stroke="none" stroke-opacity="0" />
	<polygon id="AF102" points="348.5 428.75,370.75 440.75,375.75 433.5,353 421.25" fill="#000000" stroke="none" stroke-opacity="0" />
	<polygon id="AF103" points="353.25 421.25,357.25 414,379.75 425.5,375.5 433.5" fill="#000000" stroke="none" stroke-opacity="0" />
	<polygon id="AF104" points="357.25 414,360.25 407,383.5 416.75,379.5 425.5" fill="#000000" stroke="none" stroke-opacity="0" />
	<polygon id="AF105" points="360.5 407,363.5 399.5,387 407.75,383.5 417" fill="#000000" stroke="none" stroke-opacity="0" />
	<polygon id="AF106" points="363.75 399.5,366 392.5,390 399.25,386.75 408" fill="#000000" stroke="none" stroke-opacity="0" />
	<polygon id="AF107" points="366.25 392.5,368.5 384.25,392.75 391.25,389.75 399.25" fill="#000000" stroke="none" stroke-opacity="0" />
	<polygon id="AF108" points="368.75 384.5,392.5 391,396.75 377.75,370.75 373.5" fill="#000000" stroke="none" stroke-opacity="0" />
	<polygon id="AF109" points="372 360.5,372.75 353.25,399.375 353.75,398.75 363.625" fill="#000000" stroke="none" stroke-opacity="0" />
	<polygon id="AF110" points="373 353.5,373.25 345.125,399.75 345.25,399.5 353.875" fill="#000000" stroke="none" stroke-opacity="0" />
	<polygon id="AF111" points="373.25 345,373.5 335.875,399.75 335.75,399.75 345.625" fill="#000000" stroke="none" stroke-opacity="0" />
	<polygon id="AF112" points="373.5 336.25,373 326.5,382.5 324.5,383 335.75" fill="#000000" stroke="none" stroke-opacity="0" />
	<polygon id="AF113" points="382.25 324.5,390.75 322.25,391.5 336,382.75 336" fill="#000000" stroke="none" stroke-opacity="0" />
	<polygon id="AF114" points="390.5 322.25,399.25 319.5,400 335.75,391 336" fill="#000000" stroke="none" stroke-opacity="0" />
	<polygon id="AF115" points="363.5 255.5,366.5 246.25,391.5 253.25,390.75 255.75,386.5 260" fill="#000000" stroke="none" stroke-opacity="0" />
	<polygon id="AF116" points="366.5 246.25,369.25 237,393.25 246,391.25 253.25" fill="#000000" stroke="none" stroke-opacity="0" />
	<polygon id="AF117" points="369.25 237,372.25 228.5,396.75 238.5,393 246" fill="#000000" stroke="none" stroke-opacity="0" />
	<polygon id="AF118" points="376.25 219.5,380.75 212.25,403.25 225,399.75 231.75" fill="#000000" stroke="none" stroke-opacity="0" />
	<polygon id="AF119" points="380.75 212.25,386 204,407.25 218,403 224.75" fill="#000000" stroke="none" stroke-opacity="0" />
	<polygon id="AF120" points="386 203.75,391.75 196.5,411.5 212,407.25 218" fill="#000000" stroke="none" stroke-opacity="0" />
	<polygon id="AF121" points="391.75 196.5,397.25 189.5,416.25 206,411.5 211.75" fill="#000000" stroke="none" stroke-opacity="0" />
	<polygon id="AF122" points="397.25 189.5,403.5 182.5,421.5 200.75,416 206" fill="#000000" stroke="none" stroke-opacity="0" />
	<polygon id="AF123" points="403.25 182.5,410.25 176.25,427 195.5,421.25 200.25" fill="#000000" stroke="none" stroke-opacity="0" />
	<polygon id="AF124" points="410.25 176.25,417.5 170.25,433.25 190.5,426.75 195.25" fill="#000000" stroke="none" stroke-opacity="0" />
	<polygon id="AF125" points="424.75 163.75,439 185.5,445.5 181.25,432.5 159" fill="#000000" stroke="none" stroke-opacity="0" />
	<polygon id="AF126" points="432.25 159,445.5 181,452 177.25,440.5 154.75" fill="#000000" stroke="none" stroke-opacity="0" />
	<polygon id="AF127" points="440 154.25,449.25 150,459.25 173.5,451.75 176.75" fill="#000000" stroke="none" stroke-opacity="0" />
	<polygon id="AF128" points="449 150,459.25 173.5,466.5 170.5,457.5 146.25" fill="#000000" stroke="none" stroke-opacity="0" />
	<polygon id="AF129" points="466.5 170,457.25 146.5,466.5 143.75,473 167.75" fill="#000000" stroke="none" stroke-opacity="0" />
	<polygon id="AF130" points="466.5 143.5,475.25 141.5,480.75 165.75,472.75 167.5" fill="#000000" stroke="none" stroke-opacity="0" />
	<polygon id="AF131" points="475 142,485 140.25,488.5 164,480.75 165.75" fill="#000000" stroke="none" stroke-opacity="0" />
	<polygon id="AF132" points="485 139.5,493.75 138.75,496.25 163,488.5 164.5" fill="#000000" stroke="none" stroke-opacity="0" />
	<polygon id="AF133" points="493.75 138.25,503.25 138,503.75 162.5,496.25 162.5" fill="#000000" stroke="none" stroke-opacity="0" />
	<polygon id="AF134" points="503.25 137.5,512 137.5,511.5 162,503.5 162.25" fill="#000000" stroke="none" stroke-opacity="0" />
	<polygon id="AF135" points="512 137.5,521.5 138.25,519.25 162.5,510.75 162" fill="#000000" stroke="none" stroke-opacity="0" />
	<polygon id="AF136" points="521 138.5,530.25 139.25,527.25 163.25,518.75 162.5" fill="#000000" stroke="none" stroke-opacity="0" />
	<polygon id="AF137" points="529.75 138.75,527 163.25,534.5 165.5,539.5 141" fill="#000000" stroke="none" stroke-opacity="0" />
	<polygon id="AF138" points="549 143,564.75 148.25,554.5 172.5,542 168" fill="#000000" stroke="none" stroke-opacity="0" />
	<polygon id="AF139" points="517.25 226.5,522.25 192.75,533.25 195.25,543.5 198.75,529.5 230.5" fill="#000000" stroke="none" stroke-opacity="0" />
	<polygon id="AF140" points="499.25 192.25,509.25 191.75,522 193.25,517.25 226.25,503.75 226.25,492.75 228,491.5 222.75,502 221.25" fill="#000000" stroke="none" stroke-opacity="0" />
	<polygon id="AF141" points="476.125 197.375,477.875 203.375,473 205,470.5 199.125" fill="#000000" stroke="none" stroke-opacity="0" />
	<polygon id="AF142" points="470.5 199,473 204.875,468.25 207.25,464.75 201.25" fill="#000000" stroke="none" stroke-opacity="0" />
	<polygon id="AF143" points="465 201.5,468.125 207.125,463.375 210,459.875 204.375" fill="#000000" stroke="none" stroke-opacity="0" />
	<polygon id="AF144" points="454.875 207.875,458.75 213.375,463.375 210,459.875 204.375" fill="#000000" stroke="none" stroke-opacity="0" />
	<polygon id="AF145" points="450 211.625,454 216.875,458.875 213.25,455 208" fill="#000000" stroke="none" stroke-opacity="0" />
	<polygon id="AF146" points="445.75 216,450 220.5,454.625 216.125,450.25 211.625" fill="#000000" stroke="none" stroke-opacity="0" />
	<polygon id="AF147" points="437.75 224.375,443 228.75,439.125 233.125,433.75 228.75" fill="#000000" stroke="none" stroke-opacity="0" />
	<polygon id="AF148" points="433.875 228.75,430.375 233.5,436 237.875,439.125 233" fill="#000000" stroke="none" stroke-opacity="0" />
	<polygon id="AF149" points="436 237.625,433.25 242.25,427.625 238.625,430.625 233.5" fill="#000000" stroke="none" stroke-opacity="0" />
	<polygon id="AF150" points="431.125 246.875,433.25 242.25,427.625 238.625,425.125 244.25" fill="#000000" stroke="none" stroke-opacity="0" />
	<polygon id="AF151" points="431.25 246.875,429 252,422.5 249.75,425.125 244.25" fill="#000000" stroke="none" stroke-opacity="0" />
	<polygon id="AF152" points="427.25 256.875,429 252,422.5 249.75,420.875 255.125" fill="#000000" stroke="none" stroke-opacity="0" />
	<polygon id="AF153" points="427.25 256.875,425.75 262.125,419.375 260.75,420.875 255.125" fill="#000000" stroke="none" stroke-opacity="0" />
	<polygon id="AF154" points="424.75 267.625,425.75 262.125,419.375 260.75,418.5 266.875" fill="#000000" stroke="none" stroke-opacity="0" />
	<polygon id="AF155" points="477.875 203.125,487.75 229.875,478.625 234.75,472 239.625,464.75 246.5,460.125 253,456.75 259.125,454 266.625,452.125 273.625,451.375 279.625,450.75 287.625,430.875 288.75,432.375 269.25,424.625 267.875,425.75 262.125,427.375 256.75,429.125 251.875,431.125 246.75,433.375 242.25,436.375 237,442.75 228.375,437.875 224.625,445.75 216.125,450 220.375,454.875 216,461.75 211.125,468.125 207" fill="#000000" stroke="none" stroke-opacity="0" />
	<polygon id="AF156" points="416.125 271.875,415.625 278,422.875 278.375,423.375 272.5" fill="#000000" stroke="none" stroke-opacity="0" />
	<polygon id="AF157" points="415.375 284.25,415.625 278,422.875 278.375,422.625 284.25" fill="#000000" stroke="none" stroke-opacity="0" />
	<polygon id="AF158" points="415.375 284.25,415.75 289.375,422.625 289,422.625 284.25" fill="#000000" stroke="none" stroke-opacity="0" />
	<polygon id="AF159" points="415.75 289.25,450.75 287.375,451.25 294,452.875 302.125,421.125 312.75,419.25 306.875,417.75 300.875,416.75 295.375" fill="#000000" stroke="none" stroke-opacity="0" />
	<polygon id="AF160" points="426.75 310.75,430.875 320.625,436.125 330.5,412.75 345.5,400 345.125,400 334.5,399.25 319.625" fill="#000000" stroke="none" stroke-opacity="0" />
	<polygon id="AF161" points="135.5 430.5,152 412.75,158 418.5,202.75 370.75,196.25 364.5,234.75 324,240 329,257 310.5,283.75 281.25,308.5 303,319.5 290.5,337.25 308,332.25 313.25,334.25 332.5,335 344.25,334.75 356.5,334.25 362.25,343 364,340.25 377,331 374.75,327 386.5,320.5 401.75,312.75 413.25,318.25 417.5,301.25 437,296.5 432.5,286.5 442.25,274.5 450.25,262.25 457,266.25 465.75,257.75 470,241.25 475,239 466,228.25 468,214.5 469,189.75 469.25,189 478.5,181.5 477.75,182.5 470.25,176.25 468.75,171.75 464.5,167.5 468.75,137.75 440.75,142 436.25" fill="#000000" stroke="none" stroke-opacity="0" />
									</svg>
