<?xml version="1.0" encoding="UTF-8" standalone="no"?>
<!-- Created with Inkscape (http://www.inkscape.org/) -->

<svg xmlns:dc="http://purl.org/dc/elements/1.1/" xmlns:cc="http://creativecommons.org/ns#" xmlns:rdf="http://www.w3.org/1999/02/22-rdf-syntax-ns#" xmlns:svg="http://www.w3.org/2000/svg" xmlns="http://www.w3.org/2000/svg" xmlns:xlink="http://www.w3.org/1999/xlink" xmlns:sodipodi="http://sodipodi.sourceforge.net/DTD/sodipodi-0.dtd" xmlns:inkscape="http://www.inkscape.org/namespaces/inkscape" width="770" height="410" id="svg2" version="1.1" inkscape:version="0.47pre4 " sodipodi:docname="test.svg" style="display:inline">
<defs id="defs4">
<inkscape:perspective sodipodi:type="inkscape:persp3d" inkscape:vp_x="0 : 526.18109 : 1" inkscape:vp_y="0 : 1000 : 0" inkscape:vp_z="744.09448 : 526.18109 : 1" inkscape:persp3d-origin="372.04724 : 350.78739 : 1" id="perspective10" />
<inkscape:perspective id="perspective2832" inkscape:persp3d-origin="0.5 : 0.33333333 : 1" inkscape:vp_z="1 : 0.5 : 1" inkscape:vp_y="0 : 1000 : 0" inkscape:vp_x="0 : 0.5 : 1" sodipodi:type="inkscape:persp3d" />
<script type="text/ecmascript" id="script6">
		var fdat="",sdat="";
		function onAreaOver(evt){
			var ele=evt.target; 
			fdat=ele.getAttribute('fill'); 
			sdat=ele.getAttribute('stroke');
			ele.setAttribute('fill','#006fb6');//多边形填充颜色
			ele.setAttribute('stroke','#006fb6');//stroke 多边形 边框颜色
			
		}
		function onAreaOut(evt){
			var ele=evt.target; 
			ele.setAttribute('fill',fdat);
			ele.setAttribute('stroke',sdat);
		}
		</script>
<symbol overflow="visible" id="symbol" style="overflow:visible">
<path d="m 626,156 2,-2 2,-4 0,-3 -1,-3 -4,-3 -6,-3 -5,-2 -4,-2 -4,8 -6,14" id="path9" style="fill:#000000;stroke:none" />
</symbol>
</defs>
<sodipodi:namedview id="base" pagecolor="#ffffff" bordercolor="#666666" borderopacity="1.0" inkscape:pageopacity="0.0" inkscape:pageshadow="2" inkscape:zoom="5.6" inkscape:cx="583.1007" inkscape:cy="273.63795" inkscape:document-units="px" inkscape:current-layer="svg2" showgrid="false" inkscape:window-width="1280" inkscape:window-height="740" inkscape:window-x="-4" inkscape:window-y="-4" inkscape:window-maximized="1" />
<metadata id="metadata7">
<rdf:RDF>
<cc:Work>
<dc:format>
				image/svg+xml</dc:format>
<dc:type rdf:resource="http://purl.org/dc/dcmitype/StillImage" />
<dc:title>
</dc:title>
</cc:Work>
</rdf:RDF>
</metadata>
<image xlink:href="zhengzhou_mall_a_2f.png" width="770" height="665" id="image2834" x="-485" y="255.93361" transform="translate(485,-255.9336)" inkscape:label="Layer 1" inkscape:groupmode="layer" style="display:inline" />
<polygon id="A2001" points="226.75 63.75,236 54.25,239.25 49.75,240.25 44.25,238.75 38.5,236 34.25,230.5 31,224.75 30.25,218.75 31.5,214.75 34.25,211.75 40,211 45.25,212.5 51" fill="#000000" stroke="none" stroke-opacity="0" transform="matrix(2.291,0,0,2.291,-103.354,-60.551)" />
<polygon id="A2002" points="383.75 57,347.5 97,439 181.25,486.5 166.75,488.75 155.25,492 143.75,496.75 131,501.5 120.75,506.5 111.25,475 81.5,468.5 76.5,460 75.25,451.75 79.75,446.25 84.75,430.5 70.5,413 83" fill="#000000" stroke="none" stroke-opacity="0" />
<polygon id="A2003" points="346.5 95.75,373 120.75,365.75 128.75,338.5 103.75" fill="#000000" stroke="none" stroke-opacity="0" />
<polygon id="A2004" points="338.75 103.5,365.75 128.5,358.25 136.75,331 111.75" fill="#000000" stroke="none" stroke-opacity="0" />
<polygon id="A2005" points="189 75.25,200.974 86.22504,197.7865 89.77166,185.75 78.75" fill="#000000" stroke="none" stroke-opacity="0" transform="matrix(2.291,0,0,2.291,-102.264,-60.89707)" />
<polygon id="A2006" points="185.75 78.6875,198.0514 89.44428,194.5524 92.89666,183 81.8125" fill="#000000" stroke="none" stroke-opacity="0" transform="matrix(2.291,0,0,2.291,-102.264,-60.897)" />
<polygon id="A2007" points="183.0625 81.75,194.6308 92.83416,191.1139 96.38179,179.125 85.625" fill="#000000" stroke="none" stroke-opacity="0" transform="matrix(2.291,0,0,2.291,-102.264,-60.897)" />
<polygon id="A2008" points="169.3125 88.89088,162.3125 95.9375,162.7054 101.9267,175.4881 114.1638,188.2263 100.0537,175.2699 88.3929" fill="#000000" stroke="none" stroke-opacity="0" transform="matrix(2.291,0,0,2.291,-102.264,-60.897)" />
<polygon id="A2009" points="164.2331 103.6726,175.5206 114.0713,172.1 117.7886,160.625 106.9534" fill="#000000" stroke="none" stroke-opacity="0" transform="matrix(2.291,0,0,2.291,-102.264,-60.897)" />
<polygon id="A2010" points="160.8432 107,172.2091 117.9284,169.2071 121.2737,157.7014 110.6409" fill="#000000" stroke="none" stroke-opacity="0" transform="matrix(2.291,0,0,2.291,-102.264,-60.897)" />
<polygon id="A2011" points="157.7372 110.6767,169.098 121.2112,165.6467 124.6784,154.4733 113.7064" fill="#000000" stroke="none" stroke-opacity="0" transform="matrix(2.291,0,0,2.291,-102.264,-60.897)" />
<polygon id="A2012" points="154.4655 113.7462,165.8335 124.7868,162.4584 128.5675,153.2888 119.2719" fill="#000000" stroke="none" stroke-opacity="0" transform="matrix(2.291,0,0,2.291,-102.264,-60.897)" />
<polygon id="A2021" points="117.7818 144.2044,111.125 151.5,110.9068 157.1152,123.8632 169.6351,136.3811 155.7719,124.129 144.0814" fill="#000000" stroke="none" stroke-opacity="0" transform="matrix(2.291,0,0,2.291,-101.3026,-60.897)" />
<polygon id="A2013" points="240.75 205.25,270 233.25,263 241,233 213.5" fill="#000000" stroke="none" stroke-opacity="0" />
<polygon id="A2014" points="233.5 213.75,225.75 221.5,255.25 248.5,263 241" fill="#000000" stroke="none" stroke-opacity="0" />
<polygon id="A2015" points="225.75 221.75,218.75 229.25,248.25 256,255.25 248" fill="#000000" stroke="none" stroke-opacity="0" />
<polygon id="A2016" points="218.75 229.25,211.25 237,241 265,248.5 256" fill="#000000" stroke="none" stroke-opacity="0" />
<polygon id="A2017" points="208.5 247.75,217.25 247.25,220.25 244.75,241 264.75,234.25 272.25" fill="#000000" stroke="none" stroke-opacity="0" />
<polygon id="A2018" points="208.75 248,234 272,226.75 280.75,200.75 256.25" fill="#000000" stroke="none" stroke-opacity="0" />
<polygon id="A2019" points="201 256.5,193.75 264.75,219 288.5,226.75 280.5" fill="#000000" stroke="none" stroke-opacity="0" />
<polygon id="A2020" points="193.75 264.25,186.25 272,211.25 296,219 288" fill="#000000" stroke="none" stroke-opacity="0" />
<polygon id="A2022" points="147.5 310.75,174.25 336.5,167.5 344.5,140.5 319" fill="#000000" stroke="none" stroke-opacity="0" />
<polygon id="A2023" points="140.75 319,167.5 344.75,147 367.5,151.5 373.25,140.5 385.75,126 385.75,114.25 374.5,109.5 379.5,94.5 364.5,108.25 349.25,110.25 351.25" fill="#000000" stroke="none" stroke-opacity="0" />
<polygon id="A2024" points="181.25 385.75,189 393.25,196.5 384.75,188.5 378" fill="#000000" stroke="none" stroke-opacity="0" />
<polygon id="A2025" points="188.75 378,196.5 384.75,203.75 377.25,195.25 370.25" fill="#000000" stroke="none" stroke-opacity="0" />
<polygon id="A2026" points="195.75 370.5,211.25 384,218.75 375.75,203 362" fill="#000000" stroke="none" stroke-opacity="0" />
<polygon id="A2027" points="203.25 362.25,218.75 375.5,226 368.25,210.5 354.25" fill="#000000" stroke="none" stroke-opacity="0" />
<polygon id="A2028" points="210.5 354.5,225.75 368.25,233 359.5,218 346" fill="#000000" stroke="none" stroke-opacity="0" />
<polygon id="A2029" points="218.25 346,233 359.5,240.5 352.25,224.75 338.25" fill="#000000" stroke="none" stroke-opacity="0" />
<polygon id="A2030" points="224.75 338.25,240 352,247.75 344,232 330" fill="#000000" stroke="none" stroke-opacity="0" />
<polygon id="A2031" points="232.25 330.25,247.75 343.75,254.75 336,239.75 322.25" fill="#000000" stroke="none" stroke-opacity="0" />
<polygon id="A2032" points="239.75 322.25,254.75 336.5,262.5 328.25,247.25 314.5" fill="#000000" stroke="none" stroke-opacity="0" />
<polygon id="A2033" points="312.75 242,320.5 234.25,336.25 249,329 257" fill="#000000" stroke="none" stroke-opacity="0" />
<polygon id="A2034" points="320.75 234,328.25 226.5,343.5 240.75,335.75 249" fill="#000000" stroke="none" stroke-opacity="0" />
<polygon id="A2035" points="328.5 226.5,343.25 240.75,351 232.5,335 218" fill="#000000" stroke="none" stroke-opacity="0" />
<polygon id="A2036" points="335.25 218,342.75 210.25,358 224.75,350.75 232.25" fill="#000000" stroke="none" stroke-opacity="0" />
<polygon id="A2037" points="342.75 210.25,350.25 202,366 216.25,357.75 224.5" fill="#000000" stroke="none" stroke-opacity="0" />
<polygon id="A2038" points="350.5 202,357.75 194.25,372.5 209,365.25 216" fill="#000000" stroke="none" stroke-opacity="0" />
<polygon id="A2039" points="357.75 194.5,364.75 186.75,372.5 193.25,365.25 201.75" fill="#000000" stroke="none" stroke-opacity="0" />
<polygon id="A2040" points="364.75 186.75,372.5 192.75,394.5 169,386.25 162.25" fill="#000000" stroke="none" stroke-opacity="0" />
<polygon id="A2041" points="402.5 177.75,411 184.25,393.25 203.5,385.5 196" fill="#000000" stroke="none" stroke-opacity="0" />
<polygon id="A2042" points="410.75 184.25,418.25 192.5,401.5 210.5,393.5 203.25" fill="#000000" stroke="none" stroke-opacity="0" />
<polygon id="A2043" points="418 192.25,426.25 199.25,409.5 218.75,401.75 210" fill="#000000" stroke="none" stroke-opacity="0" />
<polygon id="A2044" points="410 218.5,425.75 198.75,434.75 206,417 225.25" fill="#000000" stroke="none" stroke-opacity="0" />
<polygon id="A2045" points="444.25 249.5,457.5 247,459 258.5,445.75 260" fill="#000000" stroke="none" stroke-opacity="0" />
<polygon id="A2046" points="446 259.5,459 258,459.75 268,446.75 268.25" fill="#000000" stroke="none" stroke-opacity="0" />
<polygon id="A2047" points="447 268,447 276.5,460.25 277.25,459.75 267.5" fill="#000000" stroke="none" stroke-opacity="0" />
<polygon id="A2048" points="447 276,460.25 277,460.25 285.25,447 284.75" fill="#000000" stroke="none" stroke-opacity="0" />
<polygon id="A2049" points="447.25 284.5,460.5 285,460.25 294,446.5 293.25" fill="#000000" stroke="none" stroke-opacity="0" />
<polygon id="A2050" points="447 292.75,446 301.5,459.25 303.5,460.25 293.75" fill="#000000" stroke="none" stroke-opacity="0" />
<polygon id="A2051" points="446.5 301.75,445.25 310,457.75 312.5,458.75 303.5" fill="#000000" stroke="none" stroke-opacity="0" />
<polygon id="A2052" points="437.25 324,454.75 329.25,451.5 338,434.5 331.75" fill="#000000" stroke="none" stroke-opacity="0" />
<polygon id="A2053" points="434.75 331.75,431.75 339.5,448.75 345.75,451.25 337.75" fill="#000000" stroke="none" stroke-opacity="0" />
<polygon id="A2054" points="432.25 339.5,428.5 346.5,445 354.5,448.75 345.75" fill="#000000" stroke="none" stroke-opacity="0" />
<polygon id="A2055" points="429 346.5,426 353.75,441 362,444.75 354.25" fill="#000000" stroke="none" stroke-opacity="0" />
<polygon id="A2056" points="426 353.75,422.25 361,437.25 370,441 362" fill="#000000" stroke="none" stroke-opacity="0" />
<polygon id="A2057" points="422.5 360.75,418 367.75,433 377.25,437.5 369.25" fill="#000000" stroke="none" stroke-opacity="0" />
<polygon id="A2058" points="418.5 367.5,413.75 374.75,428 384.75,433.25 376.75" fill="#000000" stroke="none" stroke-opacity="0" />
<polygon id="A2059" points="393 399.5,405.75 413,399.25 419,386.5 405.5" fill="#000000" stroke="none" stroke-opacity="0" />
<polygon id="A2060" points="386.75 405.5,381.5 410.5,392.5 424.5,399 419" fill="#000000" stroke="none" stroke-opacity="0" />
<polygon id="A2061" points="381.75 410.5,375.25 415.5,385.5 429.75,392.5 424.25" fill="#000000" stroke="none" stroke-opacity="0" />
<polygon id="A2062" points="375.5 415.5,368.75 420,378 435,385.75 429.5" fill="#000000" stroke="none" stroke-opacity="0" />
<polygon id="A2063" points="371 423.5,364.25 428.25,371 440,378 434.75" fill="#000000" stroke="none" stroke-opacity="0" />
<polygon id="A2064" points="364.5 428.25,357.25 432.5,363.25 444,371.25 439.5" fill="#000000" stroke="none" stroke-opacity="0" />
<polygon id="A2065" points="357.5 432.5,349.5 436.75,355.5 447.75,363.5 443.25" fill="#000000" stroke="none" stroke-opacity="0" />
<polygon id="A2066" points="319.25 449.25,322 460,313.25 462.25,310.75 451" fill="#000000" stroke="none" stroke-opacity="0" />
<polygon id="A2067" points="310.75 451.25,313.25 462.25,304.5 464,303.75 452.25" fill="#000000" stroke="none" stroke-opacity="0" />
<polygon id="A2068" points="304 452.5,295 453,295.25 464.5,304.5 463.75" fill="#000000" stroke="none" stroke-opacity="0" />
<polygon id="A2069" points="253.5 452.25,262.25 452.5,261.25 466,252.5 465.5" fill="#000000" stroke="none" stroke-opacity="0" />
<polygon id="A2070" points="237.5 452.75,232 461.5,242.25 463.5,243.75 453.5" fill="#000000" stroke="none" stroke-opacity="0" />
<polygon id="A2071" points="229.5 445.75,220.25 455.25,225.5 459.5,232.25 461.25,237.5 452.75" fill="#000000" stroke="none" stroke-opacity="0" />
<polygon id="A2072" points="229.5 446,220.5 455,211.75 448.25,222.25 438.25" fill="#000000" stroke="none" stroke-opacity="0" />
<polygon id="A2073" points="212 448.25,204.5 440.25,213.75 430.75,222 438.5" fill="#000000" stroke="none" stroke-opacity="0" />
<polygon id="A2074" points="204.5 440.25,196.25 433.25,205.25 423.5,213.75 431" fill="#000000" stroke="none" stroke-opacity="0" />
<polygon id="A2075" points="196.5 433.25,188.25 426.25,197.75 416.25,205.5 424" fill="#000000" stroke="none" stroke-opacity="0" />
<polygon id="A2076" points="197.75 416.75,190.25 409,180.5 419,188.5 426.25" fill="#000000" stroke="none" stroke-opacity="0" />
<polygon id="A2077" points="181 419,172.5 411.5,181.25 401.5,190.25 409.5" fill="#000000" stroke="none" stroke-opacity="0" />
<polygon id="A2078" points="172.75 411.25,164 404,173.75 394,181.5 401.75" fill="#000000" stroke="none" stroke-opacity="0" />
<polygon id="A2079" points="153 405,166.5 417.75,159.25 426,146 412.75" fill="#000000" stroke="none" stroke-opacity="0" />
<polygon id="A2080" points="146.25 412.5,138.75 420.75,152.25 433.25,159.25 426" fill="#000000" stroke="none" stroke-opacity="0" />
<polygon id="A2081" points="139.25 420.75,131.5 429,144.5 441.75,152.75 432.75" fill="#000000" stroke="none" stroke-opacity="0" />
<polygon id="A2082" points="131.75 429,144.75 441.5,137.75 447.5,122.5 438.25" fill="#000000" stroke="none" stroke-opacity="0" />
<polygon id="A2083" points="146.5 472.75,155.75 469.5,166.25 476,153.25 497" fill="#000000" stroke="none" stroke-opacity="0" />
<polygon id="A2084" points="166 476,175.75 481,159.25 514.25,149.25 506" fill="#000000" stroke="none" stroke-opacity="0" />
<polygon id="A2085" points="175.75 481.5,185.75 486,170.5 520,159.25 514" fill="#000000" stroke="none" stroke-opacity="0" />
<polygon id="A2086" points="185.25 486,195.5 490,182.5 524.5,170.5 519.75" fill="#000000" stroke="none" stroke-opacity="0" />
<polygon id="A2087" points="195.5 490,205.25 493.5,193.5 529,182.25 524.5" fill="#000000" stroke="none" stroke-opacity="0" />
<polygon id="A2088" points="205.25 493.75,215.75 497,205.5 532.75,193.25 528.75" fill="#000000" stroke="none" stroke-opacity="0" />
<polygon id="A2089" points="226 499.5,235.5 501.5,247.25 503.5,256.75 504.75,268.25 505.5,267.5 539.5,256.5 540,242 538.5,229 536.5,218.5 534.5" fill="#000000" stroke="none" stroke-opacity="0" />
<polygon id="A2090" points="268.5 506,279 505.5,280 540.5,267 539.5" fill="#000000" stroke="none" stroke-opacity="0" />
<polygon id="A2091" points="278.5 506.5,290 505,292 539.5,279.5 539.5" fill="#000000" stroke="none" stroke-opacity="0" />
<polygon id="A2092" points="289.5 505.5,301 503.5,305 538,291.5 539" fill="#000000" stroke="none" stroke-opacity="0" />
<polygon id="A2093" points="301 504,311 503,316.5 535.5,305.5 537.5" fill="#000000" stroke="none" stroke-opacity="0" />
<polygon id="A2094" points="311.5 503,322 501,328.5 534.5,316 536.5" fill="#000000" stroke="none" stroke-opacity="0" />
<polygon id="A2095" points="321.5 501.5,333 498.5,341.5 531,328.5 534" fill="#000000" stroke="none" stroke-opacity="0" />
<polygon id="A2096" points="333 499,342.5 495.5,353.5 527.5,341 531" fill="#000000" stroke="none" stroke-opacity="0" />
<polygon id="A2097" points="353 491.5,362.5 487.5,376 519,364.5 523" fill="#000000" stroke="none" stroke-opacity="0" />
<polygon id="A2098" points="362.5 488,372.5 483,387.5 514.5,375 518.5" fill="#000000" stroke="none" stroke-opacity="0" />
<polygon id="A2099" points="372.5 483,382 479,398.5 510,387.5 514" fill="#000000" stroke="none" stroke-opacity="0" />
<polygon id="A2100" points="382 479.5,391.5 473.5,409.5 503,398 509" fill="#000000" stroke="none" stroke-opacity="0" />
<polygon id="A2101" points="392 474,403.5 466.5,414.5 458,425 448.5,452 478,435 492.5,432 489.5,422 496,409.5 502.5" fill="#000000" stroke="none" stroke-opacity="0" />
<polygon id="A2102" points="425 448.5,448 473,457.5 465,433 440" fill="#000000" stroke="none" stroke-opacity="0" />
<polygon id="A2103" points="433 440,440.5 431.5,466.5 456,457.5 464" fill="#000000" stroke="none" stroke-opacity="0" />
<polygon id="A2104" points="441 431.5,447 424,474.5 447,466.5 455" fill="#000000" stroke="none" stroke-opacity="0" />
<polygon id="A2105" points="447.5 424.5,454 415.5,482 436.5,474 447" fill="#000000" stroke="none" stroke-opacity="0" />
<polygon id="A2106" points="454 415.5,460 407.5,488.5 427,481.5 436.5" fill="#000000" stroke="none" stroke-opacity="0" />
<polygon id="A2107" points="460.5 407.5,466 399.5,495.5 417,488.5 426.5" fill="#000000" stroke="none" stroke-opacity="0" />
<polygon id="A2108" points="485 360.5,480 371.5,474.5 382.5,466.5 399.5,495.5 417,497 414.75,501.5 417.25,511.5 399,509.25 397.75,515.5 383,519 372.5" fill="#000000" stroke="none" stroke-opacity="0" />
<polygon id="A2109" points="485.25 360.5,489 349.75,522.75 360.5,518.75 372.5" fill="#000000" stroke="none" stroke-opacity="0" />
<polygon id="A2110" points="489.25 349.75,492 339.5,525.75 348.25,522.75 360.5" fill="#000000" stroke="none" stroke-opacity="0" />
<polygon id="A2111" points="497.5 307.5,532.5 311.25,533.75 299.25,498 296.5" fill="#000000" stroke="none" stroke-opacity="0" />
<polygon id="A2112" points="498.25 296.5,498.75 286,535 287,533.5 299.75" fill="#000000" stroke="none" stroke-opacity="0" />
<polygon id="A2114" points="498.75 286,499.5 275,534.5 274.5,535 287.25" fill="#000000" stroke="none" stroke-opacity="0" />
<polygon id="A2114" points="499.5 274.75,534.25 274.25,532.75 253.25,498.5 262.25" fill="#000000" stroke="none" stroke-opacity="0" />
<polygon id="A2115" points="486.75 166.75,521.75 174.25,526.5 153.75,492.75 142.25,490.25 150.25" fill="#000000" stroke="none" stroke-opacity="0" />
<polygon id="A2116" points="492.75 142.25,526.25 153.75,529.75 144.75,496.75 130.75" fill="#000000" stroke="none" stroke-opacity="0" />
<polygon id="A2117" points="502 119.25,534.5 135.75,539.25 126.75,508.5 108.75" fill="#000000" stroke="none" stroke-opacity="0" />
<polygon id="A2118" points="508.75 108.25,514.75 98,544.25 117.5,539 126.5" fill="#000000" stroke="none" stroke-opacity="0" />
<polygon id="A2119" points="515 98,522.25 88,550.5 109.25,544 117.25" fill="#000000" stroke="none" stroke-opacity="0" />
<polygon id="A2120" points="522.25 88,531 76.5,538 69.25,547.75 60.75,570.5 86.5,562 94.25,555.5 101.5,550 108.75" fill="#000000" stroke="none" stroke-opacity="0" />
<polygon id="A2121" points="547.75 61,570.5 86.25,578.5 80,557 52.75" fill="#000000" stroke="none" stroke-opacity="0" />
<polygon id="A2122" points="567 44.75,587 73,595.25 68,577.5 37.75" fill="#000000" stroke="none" stroke-opacity="0" />
<polygon id="A2123" points="578 38,594.75 67.75,604 62.75,587.75 32" fill="#000000" stroke="none" stroke-opacity="0" />
<polygon id="A2124" points="588 32.25,603.75 62.25,612.75 58.5,622.75 54.25,610.5 21.25,599 25.75" fill="#000000" stroke="none" stroke-opacity="0" />
<polygon id="A2125" points="610.75 21.5,622.5 54,639.75 49.25,652.5 46.75,662.75 45.25,659.25 9.75,649.25 10.75,640.5 12,631.25 14.25,621.75 17.5" fill="#000000" stroke="none" stroke-opacity="0" />
<polygon id="A2126" points="659.75 9.75,671.25 8.75,673 44.25,662.5 45" fill="#000000" stroke="none" stroke-opacity="0" />
<polygon id="A2127" points="671.5 9.25,684 9,683.25 44,673 43.75" fill="#000000" stroke="none" stroke-opacity="0" />
<polygon id="A2128" points="683.5 8.75,696.25 9.75,693.25 44.5,683 43.5" fill="#000000" stroke="none" stroke-opacity="0" />
<polygon id="A2129" points="696 9.75,708.25 10.75,703.75 45.75,693.25 43.75" fill="#000000" stroke="none" stroke-opacity="0" />
<polygon id="A2130" points="708.5 11,720.75 13.5,713.5 47.75,703.75 45.25" fill="#000000" stroke="none" stroke-opacity="0" />
<polygon id="A2131" points="733.75 17,746 20.75,733.75 54,723.5 50.25" fill="#000000" stroke="none" stroke-opacity="0" />
<polygon id="A2132" points="745.75 20.75,757 25.5,742 57.75,734.25 53.5" fill="#000000" stroke="none" stroke-opacity="0" />
<polygon id="A2133" points="713.25 86.75,708 105,695.5 102.5,698 83.5" fill="#000000" stroke="none" stroke-opacity="0" />
<polygon id="A2134" points="698.25 83.5,695.75 102,682 101.5,681.75 82" fill="#000000" stroke="none" stroke-opacity="0" />
<polygon id="A2135" points="682 82.5,666.75 83.5,667.75 102,682.25 101" fill="#000000" stroke="none" stroke-opacity="0" />
<polygon id="A2136" points="647 87,636.25 90.25,643 108,652.25 104.25" fill="#000000" stroke="none" stroke-opacity="0" />
<polygon id="A2137" points="636.25 90.25,622.25 96.5,631 113.75,643.25 107.75" fill="#000000" stroke="none" stroke-opacity="0" />
<polygon id="A2138" points="622.75 96.5,613.75 101.5,605.5 106.75,596.5 114,622.25 141.75,628.25 137.25,639.25 129.75" fill="#000000" stroke="none" stroke-opacity="0" />
<polygon id="A2139" points="596.75 114,585.75 125.25,599.75 138,610 128.25" fill="#000000" stroke="none" stroke-opacity="0" />
<polygon id="A2140" points="576.25 138.25,592 148.75,585.75 160.5,568.25 151.75" fill="#000000" stroke="none" stroke-opacity="0" />
<polygon id="A2141" points="568.5 151.75,585.5 160.25,581 172.75,563 166.25" fill="#000000" stroke="none" stroke-opacity="0" />
<polygon id="A2142" points="563.25 166,559 182,577.75 184.75,581 172.5" fill="#000000" stroke="none" stroke-opacity="0" />
<polygon id="A2143" points="559 181.75,557 196.25,566.5 197,567.5 183.25" fill="#000000" stroke="none" stroke-opacity="0" />
<polygon id="A2144" points="557.5 196,556.75 213,565.5 212.5,566.25 196.5" fill="#000000" stroke="none" stroke-opacity="0" />
<polygon id="A2145" points="558.75 228.25,577.75 225,580.75 237.25,562.5 243.25" fill="#000000" stroke="none" stroke-opacity="0" />
<polygon id="A2146" points="533.25 253,580.75 237.25,583.75 246.75,587.25 253.75,591.25 261.25,582.75 267.25,601 289.5,589.75 300.5,583.5 293.25,578.25 287.5,569.75 276.5,534.75 298,534.75 286.75,534.75 275.5" fill="#000000" stroke="none" stroke-opacity="0" />
<polygon id="A2147" points="617.25 263.75,604.75 277,591.5 261,607.75 251.25" fill="#000000" stroke="none" stroke-opacity="0" />
<polygon id="A2148" points="608 251.25,591.5 261,585 249.5,602.25 241.75" fill="#000000" stroke="none" stroke-opacity="0" />
<polygon id="A2149" points="602.25 241.75,585 249.5,580.5 237.25,598 232" fill="#000000" stroke="none" stroke-opacity="0" />
<polygon id="A2150" points="597.75 232.25,581.25 237.25,577.75 225,595.75 221" fill="#000000" stroke="none" stroke-opacity="0" />
<polygon id="A2151" points="576 211.5,594.5 211,594.75 199.25,576.5 198.75" fill="#000000" stroke="none" stroke-opacity="0" />
<polygon id="A2152" points="576.5 199,577.5 184.5,595.75 189,594.5 199" fill="#000000" stroke="none" stroke-opacity="0" />
<polygon id="A2153" points="577.75 184.25,581.25 172.75,598.5 178.25,595.75 189.25" fill="#000000" stroke="none" stroke-opacity="0" />
<polygon id="A2154" points="586 159.75,602.75 168.25,598.25 178,581.25 172.5" fill="#000000" stroke="none" stroke-opacity="0" />
<polygon id="A2155" points="586.25 159.5,592.25 149,608 158.5,602.25 168.25" fill="#000000" stroke="none" stroke-opacity="0" />
<polygon id="A2156" points="600.25 137.75,610 128.5,622 141.75,614.5 150.75" fill="#000000" stroke="none" stroke-opacity="0" />
<polygon id="A2157" points="631.5 113.5,642.75 108.25,649.25 125.25,639.25 129.5" fill="#000000" stroke="none" stroke-opacity="0" />
<polygon id="A2158" points="642.75 108.25,652 104.25,656.25 122.75,649.25 125" fill="#000000" stroke="none" stroke-opacity="0" />
<polygon id="A2159" points="668 102,670.5 120.5,681.5 120.25,682 101" fill="#000000" stroke="none" stroke-opacity="0" />
<polygon id="A2160" points="682.25 101.25,695.5 102,692 121,681.5 120" fill="#000000" stroke="none" stroke-opacity="0" />
<polygon id="A2161" points="695.5 102.5,708 105,702.75 123.5,691.75 120.5" fill="#000000" stroke="none" stroke-opacity="0" />
<polygon id="A2162" points="43 434,93.5 421,139 447.5,153 497.5,127.5 542.5,77.5 556.5,33.5 531.5,18 482" fill="#000000" stroke="none" stroke-opacity="0" />
<polygon id="A2163" points="201 554,218 551,235 554,250 562,261.5 574,269 588.5,272 605.5,269 622,261 637,249.5 649.5,234 657,218 659,200.5 657,187 649,175 637,167.5 622.5,165 606,167 589.5,174.5 574,186.5 562" fill="#000000" stroke="none" stroke-opacity="0" />
<polygon id="A2164" points="385 195.5,444.5 250,446 260,447 276.5,447 294,445 309.5,458 312.5,454 328.5,438 324.5,433 336.5,427.5 350,421 363,414.5 374,424 381.5,413 396.5,402.5 409,393 399.5,381 411.5,369.5 420,371 424,361 430,350 436,355.5 448.5,335.5 457,323 460.5,319.5 449.5,309.5 451.5,295.5 453.5,295.5 460,285 460.5,272.5 460.5,262.5 460,262.5 452,254 452,252 466,242 463,244 453.5,235.5 451,173.5 394,181.5 386,189.5 393,203 377.5,211 384.5,270 319.5,262.5 313,313.5 258,321 265" fill="#000000" stroke="none" stroke-opacity="0" xmlns="http://www.w3.org/2000/svg" />
</svg>
