<?xml version="1.0" encoding="UTF-8" standalone="no"?>
<!-- Created with Inkscape (http://www.inkscape.org/) -->

<svg xmlns:dc="http://purl.org/dc/elements/1.1/" xmlns:cc="http://creativecommons.org/ns#" xmlns:rdf="http://www.w3.org/1999/02/22-rdf-syntax-ns#" xmlns:svg="http://www.w3.org/2000/svg" xmlns="http://www.w3.org/2000/svg" xmlns:xlink="http://www.w3.org/1999/xlink" xmlns:sodipodi="http://sodipodi.sourceforge.net/DTD/sodipodi-0.dtd" xmlns:inkscape="http://www.inkscape.org/namespaces/inkscape" width="770" height="665" id="svg2" version="1.1" inkscape:version="0.47pre4 " sodipodi:docname="test.svg" style="display:inline">
	<defs id="defs4">
		<inkscape:perspective sodipodi:type="inkscape:persp3d" inkscape:vp_x="0 : 526.18109 : 1" inkscape:vp_y="0 : 1000 : 0" inkscape:vp_z="744.09448 : 526.18109 : 1" inkscape:persp3d-origin="372.04724 : 350.78739 : 1" id="perspective10" />
		<inkscape:perspective id="perspective2832" inkscape:persp3d-origin="0.5 : 0.33333333 : 1" inkscape:vp_z="1 : 0.5 : 1" inkscape:vp_y="0 : 1000 : 0" inkscape:vp_x="0 : 0.5 : 1" sodipodi:type="inkscape:persp3d" />
		<script type="text/ecmascript" id="script6">
		var fdat="",sdat="";
		function onAreaOver(evt){
			var ele=evt.target; 
			fdat=ele.getAttribute('fill'); 
			sdat=ele.getAttribute('stroke');
			ele.setAttribute('fill','#006fb6');//多边形填充颜色
			ele.setAttribute('stroke','#006fb6');//stroke 多边形 边框颜色
			
		}
		function onAreaOut(evt){
			var ele=evt.target; 
			ele.setAttribute('fill',fdat);
			ele.setAttribute('stroke',sdat);
		}
		</script>
		<symbol overflow="visible" id="symbol" style="overflow:visible">
			<path d="m 626,156 2,-2 2,-4 0,-3 -1,-3 -4,-3 -6,-3 -5,-2 -4,-2 -4,8 -6,14" id="path9" style="fill:#000000;stroke:none" />
		</symbol>
	</defs>
	<sodipodi:namedview id="base" pagecolor="#ffffff" bordercolor="#666666" borderopacity="1.0" inkscape:pageopacity="0.0" inkscape:pageshadow="2" inkscape:zoom="5.6" inkscape:cx="583.1007" inkscape:cy="273.63795" inkscape:document-units="px" inkscape:current-layer="svg2" showgrid="false" inkscape:window-width="1280" inkscape:window-height="740" inkscape:window-x="-4" inkscape:window-y="-4" inkscape:window-maximized="1" />
	<metadata id="metadata7">
		<rdf:RDF>
			<cc:Work>
				<dc:format>
				image/svg+xml</dc:format>
				<dc:type rdf:resource="http://purl.org/dc/dcmitype/StillImage" />
				<dc:title></dc:title>
			</cc:Work>
		</rdf:RDF>
	</metadata>
	<image xlink:href="zhengzhou_mall_b_bf.png" width="770" height="665" id="image2834" x="-485" y="255.93361" transform="translate(485,-255.9336)" inkscape:label="Layer 1" inkscape:groupmode="layer" style="display:inline" />
	<polygon id="BF001" points="567 149.25,581.25 155,572.375 180,556.625 173.75" fill="#000000" stroke="none" stroke-opacity="0" />
	<polygon id="BF002" points="581.25 155.125,572.375 180,580.875 182.625,588.5 157.625" fill="#000000" stroke="none" stroke-opacity="0" />
	<polygon id="BF003" points="588.375 157.625,580.75 182.5,589.5 185,595.875 159.875" fill="#000000" stroke="none" stroke-opacity="0" />
	<polygon id="BF004" points="595.75 160,607.75 163,618.125 165,627.625 166.5,623.625 192.25,614.5 190.75,605.75 189.125,589.375 184.875" fill="#000000" stroke="none" stroke-opacity="0" />
	<polygon id="BF005" points="627.5 166.5,623.625 192.125,632.125 193.25,634.625 167.375" fill="#000000" stroke="none" stroke-opacity="0" />
	<polygon id="BF006" points="634.75 167.125,632.125 193.125,641 193.875,643.125 167.875" fill="#000000" stroke="none" stroke-opacity="0" />
	<polygon id="BF007" points="643 167.875,640.875 193.75,649.75 194.375,650.5 168.125" fill="#000000" stroke="none" stroke-opacity="0" />
	<polygon id="BF008" points="650.625 168.125,649.875 194.375,658.625 194.75,658.875 168.5" fill="#000000" stroke="none" stroke-opacity="0" />
	<polygon id="BF009" points="658.75 168.5,658.75 194.625,667.25 195,667.375 168.875" fill="#000000" stroke="none" stroke-opacity="0" />
	<polygon id="BF010" points="667.375 168.875,667.25 194.75,675.875 195,684 177.125,670.875 177.5,670.375 168.875" fill="#000000" stroke="none" stroke-opacity="0" />
	<polygon id="BF011" points="688.625 187.375,681.375 201.25,688 205.625,695.375 190.875" fill="#000000" stroke="none" stroke-opacity="0" />
	<polygon id="BF012" points="695.625 209.5,688 205.625,695.375 190.875,703 195.125" fill="#000000" stroke="none" stroke-opacity="0" />
	<polygon id="BF013" points="702.875 195.125,695.5 209.5,703.375 213.375,709.875 198.375" fill="#000000" stroke="none" stroke-opacity="0" />
	<polygon id="BF014" points="717 183.625,703.375 213.25,705.625 218.125,706.875 223.625,707.25 228.125,706.875 233.5,705.625 238,703.125 243.625,711 246.125,707.125 260.125,736.875 268.25,740.625 254.25,743.375 245.25,748 231.125,753.625 216,758.75 201.375" fill="#000000" stroke="none" stroke-opacity="0" />
	<polygon id="BF015" points="703.125 243.5,699.375 248.25,691.5 255.75,707.25 260.25,711.125 246.125" fill="#000000" stroke="none" stroke-opacity="0" />
	<polygon id="BF016" points="667 249.875,669 269,678 270.625,682.5 254.375" fill="#000000" stroke="none" stroke-opacity="0" />
	<polygon id="BF017" points="638 223,653.5 223.25,656.25 230,659.25 238.5,661.5 246.125,640.625 250.375,639.625 241.125,636.5 241" fill="#000000" stroke="none" stroke-opacity="0" />
	<polygon id="BF018" points="619.125 220,631.75 222.375,631.375 243.375,621 246.75,615.875 245.875" fill="#000000" stroke="none" stroke-opacity="0" />
	<polygon id="BF019" points="609.75 218.75,619.125 220.125,615.875 246,604.25 244.125" fill="#000000" stroke="none" stroke-opacity="0" />
	<polygon id="BF020" points="600.25 216.75,609.75 218.75,604.625 244.125,594.75 241.5" fill="#000000" stroke="none" stroke-opacity="0" />
	<polygon id="BF021" points="590.625 214.75,600.25 217,594.875 241.5,584.875 238.875" fill="#000000" stroke="none" stroke-opacity="0" />
	<polygon id="BF022" points="581.25 212.5,574.75 235.75,585 238.875,590.625 214.875" fill="#000000" stroke="none" stroke-opacity="0" />
	<polygon id="BF023" points="571.875 210,581.375 212.625,574.875 235.75,564.75 232.875" fill="#000000" stroke="none" stroke-opacity="0" />
	<polygon id="BF024" points="571.875 210.125,562.375 207.25,554.5 230.125,564.75 233" fill="#000000" stroke="none" stroke-opacity="0" />
	<polygon id="BF025" points="553.625 203.875,562.5 207.375,554.625 230,544.375 227" fill="#000000" stroke="none" stroke-opacity="0" />
	<polygon id="BF026" points="544.5 226.75,553.625 204,544.875 200.125,535.25 224" fill="#000000" stroke="none" stroke-opacity="0" />
</svg>
