<?xml version="1.0" encoding="UTF-8" standalone="no"?>
<!-- Created with Inkscape (http://www.inkscape.org/) -->

<svg xmlns:dc="http://purl.org/dc/elements/1.1/" xmlns:cc="http://creativecommons.org/ns#" xmlns:rdf="http://www.w3.org/1999/02/22-rdf-syntax-ns#" xmlns:svg="http://www.w3.org/2000/svg" xmlns="http://www.w3.org/2000/svg" xmlns:xlink="http://www.w3.org/1999/xlink" xmlns:sodipodi="http://sodipodi.sourceforge.net/DTD/sodipodi-0.dtd" xmlns:inkscape="http://www.inkscape.org/namespaces/inkscape" width="770" height="410" id="svg2" version="1.1" inkscape:version="0.47pre4 " sodipodi:docname="test.svg" style="display:inline">
	<defs id="defs4">
		<inkscape:perspective sodipodi:type="inkscape:persp3d" inkscape:vp_x="0 : 526.18109 : 1" inkscape:vp_y="0 : 1000 : 0" inkscape:vp_z="744.09448 : 526.18109 : 1" inkscape:persp3d-origin="372.04724 : 350.78739 : 1" id="perspective10" />
		<inkscape:perspective id="perspective2832" inkscape:persp3d-origin="0.5 : 0.33333333 : 1" inkscape:vp_z="1 : 0.5 : 1" inkscape:vp_y="0 : 1000 : 0" inkscape:vp_x="0 : 0.5 : 1" sodipodi:type="inkscape:persp3d" />
		<script type="text/ecmascript" id="script6">
		var fdat="",sdat="";
		function onAreaOver(evt){
			var ele=evt.target; 
			fdat=ele.getAttribute('fill'); 
			sdat=ele.getAttribute('stroke');
			ele.setAttribute('fill','#006fb6');//多边形填充颜色
			ele.setAttribute('stroke','#006fb6');//stroke 多边形 边框颜色
			
		}
		function onAreaOut(evt){
			var ele=evt.target; 
			ele.setAttribute('fill',fdat);
			ele.setAttribute('stroke',sdat);
		}
		</script>
		<symbol overflow="visible" id="symbol" style="overflow:visible">
			<path d="m 626,156 2,-2 2,-4 0,-3 -1,-3 -4,-3 -6,-3 -5,-2 -4,-2 -4,8 -6,14" id="path9" style="fill:#000000;stroke:none" />
		</symbol>
	</defs>
	<sodipodi:namedview id="base" pagecolor="#ffffff" bordercolor="#666666" borderopacity="1.0" inkscape:pageopacity="0.0" inkscape:pageshadow="2" inkscape:zoom="5.6" inkscape:cx="583.1007" inkscape:cy="273.63795" inkscape:document-units="px" inkscape:current-layer="svg2" showgrid="false" inkscape:window-width="1280" inkscape:window-height="740" inkscape:window-x="-4" inkscape:window-y="-4" inkscape:window-maximized="1" />
	<metadata id="metadata7">
		<rdf:RDF>
			<cc:Work>
				<dc:format>
				image/svg+xml</dc:format>
				<dc:type rdf:resource="http://purl.org/dc/dcmitype/StillImage" />
				<dc:title></dc:title>
			</cc:Work>
		</rdf:RDF>
	</metadata>
	<image xlink:href="zhengzhou_mall_a_1f.png" width="770" height="665" id="image2834" x="-485" y="255.93361" transform="translate(485,-255.9336)" inkscape:label="Layer 1" inkscape:groupmode="layer" style="display:inline" />
	<polygon id="A1001" points="226.75 63.75,236 54.25,239.25 49.75,240.25 44.25,238.75 38.5,236 34.25,230.5 31,224.75 30.25,218.75 31.5,214.75 34.25,211.75 40,211 45.25,212.5 51" fill="#000000" stroke="none" stroke-opacity="0" transform="matrix(2.291,0,0,2.291,-103.354,-60.551)" xmlns="http://www.w3.org/2000/svg" />
	<polygon id="A1002" points="209.25 54.25,216.125 61.5,212.75 65,206 57.75" fill="#000000" stroke="none" stroke-opacity="0" transform="matrix(2.287,0,0,2.287,-102.662,-60.37804)" xmlns="http://www.w3.org/2000/svg" />
	<polygon id="A1003" points="206.25 57.625,212.875 65,209.625 68.375,202.375 61.5" fill="#000000" stroke="none" stroke-opacity="0" transform="matrix(2.287,0,0,2.287,-102.662,-60.37804)" xmlns="http://www.w3.org/2000/svg" />
	<polygon id="A1004" points="202.5 61.5,210 68.25,206.125 71.875,199.25 65.125" fill="#000000" stroke="none" stroke-opacity="0" transform="matrix(2.287,0,0,2.287,-102.662,-60.37804)" xmlns="http://www.w3.org/2000/svg" />
	<polygon id="A1005" points="199.125 65,206 71.875,202.625 74.75,196.125 68.375" fill="#000000" stroke="none" stroke-opacity="0" transform="matrix(2.287,0,0,2.287,-102.3741,-60.37804)" xmlns="http://www.w3.org/2000/svg" />
	<polygon id="A1006" points="189 75.25,196.5 82.1875,193.3125 85.625,185.75 78.75" fill="#000000" stroke="none" stroke-opacity="0" transform="matrix(2.291,0,0,2.291,-102.264,-60.897)" xmlns="http://www.w3.org/2000/svg" />
	<polygon id="A1007" points="185.75 78.6875,193.25 85.625,190.1875 88.75,183 81.8125" fill="#000000" stroke="none" stroke-opacity="0" transform="matrix(2.291,0,0,2.291,-102.264,-60.897)" xmlns="http://www.w3.org/2000/svg" />
	<polygon id="A1008" points="183.0625 81.75,190.375 88.6875,186.3125 92.5625,179.125 85.625" fill="#000000" stroke="none" stroke-opacity="0" transform="matrix(2.291,0,0,2.291,-102.264,-60.897)" xmlns="http://www.w3.org/2000/svg" />
	<polygon id="A1009" points="169.3125 89,162.3125 95.9375,163.6875 104,177.125 117.4375,191.5 103,177.125 89.375" fill="#000000" stroke="none" stroke-opacity="0" transform="matrix(2.291,0,0,2.291,-102.264,-60.897)" xmlns="http://www.w3.org/2000/svg" />
	<polygon id="A1010" points="163.6875 104,170.9375 111.125,168.0625 114.1875,160.625 107.0625" fill="#000000" stroke="none" stroke-opacity="0" transform="matrix(2.291,0,0,2.291,-102.264,-60.897)" xmlns="http://www.w3.org/2000/svg" />
	<polygon id="A1011" points="160.625 107,168.0625 114,164.1875 118,156.9375 110.75" fill="#000000" stroke="none" stroke-opacity="0" transform="matrix(2.291,0,0,2.291,-102.264,-60.897)" xmlns="http://www.w3.org/2000/svg" />
	<polygon id="A1012" points="158.9375 112.75,164.1875 117.9375,161.5 120.75,156.4375 115.125" fill="#000000" stroke="none" stroke-opacity="0" transform="matrix(2.291,0,0,2.291,-102.264,-60.897)" xmlns="http://www.w3.org/2000/svg" />
	<polygon id="A1013" points="159.8125 118.875,168.125 127.1875,164.75 130.75,156.5625 122" fill="#000000" stroke="none" stroke-opacity="0" transform="matrix(2.291,0,0,2.291,-102.264,-60.897)" xmlns="http://www.w3.org/2000/svg" />
	<polygon id="A1014" points="143.625 136.75,152 145.125,148.75 148.25,140.5 140" fill="#000000" stroke="none" stroke-opacity="0" transform="matrix(2.291,0,0,2.291,-101.3026,-60.897)" xmlns="http://www.w3.org/2000/svg" />
	<polygon id="A1015" points="136.75 137,142.25 141.75,138.75 146,133.125 141.25" fill="#000000" stroke="none" stroke-opacity="0" transform="matrix(2.291,0,0,2.291,-101.3026,-60.897)" xmlns="http://www.w3.org/2000/svg" />
	<polygon id="A1016" points="131.875 139.375,138.625 145.875,135 149.375,128.5 142.5" fill="#000000" stroke="none" stroke-opacity="0" transform="matrix(2.291,0,0,2.291,-101.3026,-60.897)" xmlns="http://www.w3.org/2000/svg" />
	<polygon id="A1017" points="128.625 142.625,135.125 149.125,132.25 152,125.75 145.375" fill="#000000" stroke="none" stroke-opacity="0" transform="matrix(2.291,0,0,2.291,-101.3026,-60.897)" xmlns="http://www.w3.org/2000/svg" />
	<polygon id="A1031" points="135.75 148.75,142.25 155.125,138.875 158.5,132.25 151.875" fill="#000000" stroke="none" stroke-opacity="0" transform="matrix(2.291,0,0,2.291,-101.3026,-60.897)" xmlns="http://www.w3.org/2000/svg" />
	<polygon id="A1032" points="138.75 145.875,145.5 151.75,142.125 155,135.625 148.875" fill="#000000" stroke="none" stroke-opacity="0" transform="matrix(2.291,0,0,2.291,-101.3026,-60.897)" xmlns="http://www.w3.org/2000/svg" />
	<polygon id="A1033" points="138.625 146.25,145.375 151.75,148.75 148.125,142.5 142" fill="#000000" stroke="none" stroke-opacity="0" transform="matrix(2.291,0,0,2.291,-101.3026,-60.897)" xmlns="http://www.w3.org/2000/svg" />
	<polygon id="A1034" points="165 117.25,171.375 123.625,168 127.375,161.625 120.625" fill="#000000" stroke="none" stroke-opacity="0" transform="matrix(2.291,0,0,2.291,-102.264,-60.897)" xmlns="http://www.w3.org/2000/svg" />
	<polygon id="A1035" points="168.125 114,174.75 120.625,171.375 123.875,165 117.25" fill="#000000" stroke="none" stroke-opacity="0" transform="matrix(2.291,0,0,2.291,-102.264,-60.897)" xmlns="http://www.w3.org/2000/svg" />
	<polygon id="A1036" points="170.875 111.1875,177.1875 117.4375,174.625 120.6875,168.125 114.0625" fill="#000000" stroke="none" stroke-opacity="0" transform="matrix(2.291,0,0,2.291,-102.264,-60.897)" xmlns="http://www.w3.org/2000/svg" />
	<polygon id="A1018" points="118 144.75,111.125 151.5,111.125 159.625,125.5 174,139 158.5,125.875 145.5" fill="#000000" stroke="none" stroke-opacity="0" transform="matrix(2.291,0,0,2.291,-101.3026,-60.897)" xmlns="http://www.w3.org/2000/svg" />
	<polygon id="A1019" points="108.75 162.75,116.625 170.875,113.125 173.875,105.5 166" fill="#000000" stroke="none" stroke-opacity="0" transform="matrix(2.291,0,0,2.291,-101.3026,-60.897)" xmlns="http://www.w3.org/2000/svg" />
	<polygon id="A1020" points="102.125 169.75,109.875 177.25,113.125 173.875,105.5 166" fill="#000000" stroke="none" stroke-opacity="0" transform="matrix(2.291,0,0,2.291,-101.3026,-60.897)" xmlns="http://www.w3.org/2000/svg" />
	<polygon id="A1021" points="98.875 173.5,106.75 180.5,109.875 176.875,102 169.875" fill="#000000" stroke="none" stroke-opacity="0" transform="matrix(2.291,0,0,2.291,-101.3026,-60.897)" xmlns="http://www.w3.org/2000/svg" />
	<polygon id="A1022" points="95.875 176.5,103.25 183.875,106.625 180.625,99.25 173.125" fill="#000000" stroke="none" stroke-opacity="0" transform="matrix(2.291,0,0,2.291,-101.3026,-60.897)" xmlns="http://www.w3.org/2000/svg" />
	<polygon id="A1030" points="116.25 170.875,119.5 167.75,125.75 173.875,122.875 177.125" fill="#000000" stroke="none" stroke-opacity="0" transform="matrix(2.291,0,0,2.291,-101.3026,-60.897)" xmlns="http://www.w3.org/2000/svg" />
	<polygon id="A1029" points="116.5 171,113.375 173.875,119.875 180.375,122.875 177.125" fill="#000000" stroke="none" stroke-opacity="0" transform="matrix(2.291,0,0,2.291,-101.3026,-60.897)" xmlns="http://www.w3.org/2000/svg" />
	<polygon id="A1028" points="109.75 177,113.25 173.625,119.875 180.375,116.5 183.375" fill="#000000" stroke="none" stroke-opacity="0" transform="matrix(2.291,0,0,2.291,-101.3026,-60.897)" xmlns="http://www.w3.org/2000/svg" />
	<polygon id="A1027" points="106.625 180.5,112.875 187,116.5 183.5,110.125 176.875" fill="#000000" stroke="none" stroke-opacity="0" transform="matrix(2.291,0,0,2.291,-101.3026,-60.897)" xmlns="http://www.w3.org/2000/svg" />
	<polygon id="A1026" points="106.875 180.375,113.125 186.625,110.125 190.375,103.375 184" fill="#000000" stroke="none" stroke-opacity="0" transform="matrix(2.291,0,0,2.291,-101.3026,-60.897)" xmlns="http://www.w3.org/2000/svg" />
	<polygon id="A1025" points="103.375 183.875,110.375 190.875,106.625 194.75,100 187.625" fill="#000000" stroke="none" stroke-opacity="0" transform="matrix(2.291,0,0,2.291,-101.3026,-60.897)" xmlns="http://www.w3.org/2000/svg" />
	<polygon id="A1023" points="91.25 179.875,84.625 186.25,91.75 193.375,94 191.125,95.625 193,100.25 188.125" fill="#000000" stroke="none" stroke-opacity="0" transform="matrix(2.291,0,0,2.291,-101.3026,-60.897)" xmlns="http://www.w3.org/2000/svg" />
	<polygon id="A1024" points="106.875 194.625,100.25 188.25,95.75 193.125,98.375 196,106 195.5" fill="#000000" stroke="none" stroke-opacity="0" transform="matrix(2.291,0,0,2.291,-101.3026,-60.897)" xmlns="http://www.w3.org/2000/svg" />
	<polygon id="A1147" points="72.375 214.625,74.25 224.25,84.5 221.375,85.25 211.375" fill="#000000" stroke="none" stroke-opacity="0" transform="matrix(2.291,0,0,2.291,-100.662,-62.50036)" xmlns="http://www.w3.org/2000/svg" />
	<polygon id="A1148" points="85.375 211.5,84.5 221.375,91.375 225.625,95.75 217" fill="#000000" stroke="none" stroke-opacity="0" transform="matrix(2.291,0,0,2.291,-100.662,-62.50036)" xmlns="http://www.w3.org/2000/svg" />
	<polygon id="A1149" points="95.75 217,106.25 222.75,97.75 229,91.375 225.625" fill="#000000" stroke="none" stroke-opacity="0" transform="matrix(2.291,0,0,2.291,-100.662,-62.50036)" xmlns="http://www.w3.org/2000/svg" />
	<polygon id="A1150" points="106.25 222.875,109 233.375,99.875 235.875,98 228.75" fill="#000000" stroke="none" stroke-opacity="0" transform="matrix(2.291,0,0,2.291,-100.662,-62.50036)" xmlns="http://www.w3.org/2000/svg" />
	<polygon id="A1151" points="108.875 233.375,110.75 245.125,104.75 241,103.25 235" fill="#000000" stroke="none" stroke-opacity="0" transform="matrix(2.291,0,0,2.291,-100.662,-62.50036)" xmlns="http://www.w3.org/2000/svg" />
	<polygon id="A1152" points="98 250.625,105.625 255.5,100.25 265.25,93.75 257.375" fill="#000000" stroke="none" stroke-opacity="0" transform="matrix(2.291,0,0,2.291,-100.662,-62.50036)" xmlns="http://www.w3.org/2000/svg" />
	<polygon id="A1153" points="93.875 257.375,100.25 265.25,88.875 268.375,86.375 259.5" fill="#000000" stroke="none" stroke-opacity="0" transform="matrix(2.291,0,0,2.291,-100.662,-62.50036)" xmlns="http://www.w3.org/2000/svg" />
	<polygon id="A1154" points="86.375 259.5,89 268.25,78 270.625,78.875 261.875" fill="#000000" stroke="none" stroke-opacity="0" transform="matrix(2.291,0,0,2.291,-100.662,-62.50036)" xmlns="http://www.w3.org/2000/svg" />
	<polygon id="A1155" points="72 258.125,68 265.5,78 270.5,79.5 261.75" fill="#000000" stroke="none" stroke-opacity="0" transform="matrix(2.291,0,0,2.291,-100.662,-62.50036)" xmlns="http://www.w3.org/2000/svg" />
	<polygon id="A1156" points="65.625 253.625,58.125 259.75,68.125 265.375,72.125 258.125" fill="#000000" stroke="none" stroke-opacity="0" transform="matrix(2.291,0,0,2.291,-100.662,-62.50036)" xmlns="http://www.w3.org/2000/svg" />
	<polygon id="A1157" points="65.5 253.625,58.25 259.75,53.875 245,62.75 242.375" fill="#000000" stroke="none" stroke-opacity="0" transform="matrix(2.291,0,0,2.291,-100.662,-62.50036)" xmlns="http://www.w3.org/2000/svg" />
	<polygon id="A1158" points="140.125 304.125,140 314,132.875 313.125,135.625 304" fill="#000000" stroke="none" stroke-opacity="0" transform="matrix(2.291,0,0,2.291,-102.264,-64.10316)" xmlns="http://www.w3.org/2000/svg" />
	<polygon id="A1159" points="132.625 301.875,126.875 309.875,132.75 313.25,135.5 304" fill="#000000" stroke="none" stroke-opacity="0" transform="matrix(2.291,0,0,2.291,-102.264,-64.10316)" xmlns="http://www.w3.org/2000/svg" />
	<polygon id="A1160" points="132.5 301.875,126.875 309.875,122.25 305.5,129.5 299.375" fill="#000000" stroke="none" stroke-opacity="0" transform="matrix(2.291,0,0,2.291,-102.264,-64.10316)" xmlns="http://www.w3.org/2000/svg" />
	<polygon id="A1161" points="119 298.75,127.875 296.25,129.375 299.375,122.5 305.375" fill="#000000" stroke="none" stroke-opacity="0" transform="matrix(2.291,0,0,2.291,-102.264,-64.10316)" xmlns="http://www.w3.org/2000/svg" />
	<polygon id="A1162" points="127.875 296.125,119.25 298.625,118.125 292.25,127 292" fill="#000000" stroke="none" stroke-opacity="0" transform="matrix(2.291,0,0,2.291,-102.264,-64.10316)" xmlns="http://www.w3.org/2000/svg" />
	<polygon id="A1163" points="118.25 292.25,127 292.125,128.125 289,119 285.625" fill="#000000" stroke="none" stroke-opacity="0" transform="matrix(2.291,0,0,2.291,-102.264,-64.10316)" xmlns="http://www.w3.org/2000/svg" />
	<polygon id="A1164" points="119 285.625,122.125 279.875,129.625 285.5,128.25 289" fill="#000000" stroke="none" stroke-opacity="0" transform="matrix(2.291,0,0,2.291,-102.264,-64.10316)" xmlns="http://www.w3.org/2000/svg" />
	<polygon id="A1165" points="122.375 279.75,127.125 274.875,132.5 282.625,129.625 285.5" fill="#000000" stroke="none" stroke-opacity="0" transform="matrix(2.291,0,0,2.291,-102.264,-64.10316)" xmlns="http://www.w3.org/2000/svg" />
	<polygon id="A1166" points="127.125 274.875,132.875 271.875,135.75 281.25,132.625 282.5" fill="#000000" stroke="none" stroke-opacity="0" transform="matrix(2.291,0,0,2.291,-102.264,-64.10316)" xmlns="http://www.w3.org/2000/svg" />
	<polygon id="A1167" points="132.875 271.75,140 270.875,139.75 280.875,135.75 281.25" fill="#000000" stroke="none" stroke-opacity="0" transform="matrix(2.291,0,0,2.291,-102.264,-64.10316)" xmlns="http://www.w3.org/2000/svg" />
	<polygon id="A1168" points="146 272,152 274.625,146.625 283.25,143.25 281.625" fill="#000000" stroke="none" stroke-opacity="0" transform="matrix(2.291,0,0,2.291,-102.264,-64.10316)" xmlns="http://www.w3.org/2000/svg" />
	<polygon id="A1169" points="152.125 274.625,157.25 279.875,153.5 282.5,149.75 278.5" fill="#000000" stroke="none" stroke-opacity="0" transform="matrix(2.291,0,0,2.291,-102.264,-64.10316)" xmlns="http://www.w3.org/2000/svg" />
	<polygon id="A1170" points="157.375 279.875,160.125 286,156.5 287,154 282.25" fill="#000000" stroke="none" stroke-opacity="0" transform="matrix(2.291,0,0,2.291,-102.264,-64.10316)" xmlns="http://www.w3.org/2000/svg" />
	<polygon id="A1070" points="111.75 204.25,117.75 197.75,120.5 200.75,114.375 206.875" fill="#000000" stroke="none" stroke-opacity="0" transform="matrix(2.291,0,0,2.291,-101.9436,-62.8201)" xmlns="http://www.w3.org/2000/svg" />
	<polygon id="A1071" points="120.5 200.75,114.5 206.875,119 211.25,125.25 204.875" fill="#000000" stroke="none" stroke-opacity="0" transform="matrix(2.291,0,0,2.291,-101.9436,-62.8201)" xmlns="http://www.w3.org/2000/svg" />
	<polygon id="A1069" points="117.5 197.75,123 202.875,126.875 199.125,120.75 193.875" fill="#000000" stroke="none" stroke-opacity="0" transform="matrix(2.291,0,0,2.291,-101.9436,-62.8201)" xmlns="http://www.w3.org/2000/svg" />
	<polygon id="A1068" points="120.875 194,126.875 199,131.75 194.25,125.5 188.625" fill="#000000" stroke="none" stroke-opacity="0" transform="matrix(2.291,0,0,2.291,-101.9436,-62.8201)" xmlns="http://www.w3.org/2000/svg" />
	<polygon id="A1067" points="127.375 186.625,136.625 195.75,140.375 191.875,130.75 183.25" fill="#000000" stroke="none" stroke-opacity="0" transform="matrix(2.291,0,0,2.291,-101.9436,-62.8201)" xmlns="http://www.w3.org/2000/svg" />
	<polygon id="A1066" points="133.625 179.875,143.5 188.375,140.375 191.875,130.75 183.25" fill="#000000" stroke="none" stroke-opacity="0" transform="matrix(2.291,0,0,2.291,-101.9436,-62.8201)" xmlns="http://www.w3.org/2000/svg" />
	<polygon id="A1065" points="136.75 175.875,146.625 184.625,143.375 188.25,133.625 180" fill="#000000" stroke="none" stroke-opacity="0" transform="matrix(2.291,0,0,2.291,-101.9436,-62.8201)" xmlns="http://www.w3.org/2000/svg" />
	<polygon id="A1064" points="139.625 178.375,146.375 184.5,149.5 181.375,142.5 174.75" fill="#000000" stroke="none" stroke-opacity="0" transform="matrix(2.291,0,0,2.291,-101.9436,-62.8201)" xmlns="http://www.w3.org/2000/svg" />
	<polygon id="A1063" points="146 171.375,152.75 177.625,149.5 181.375,142.5 174.75" fill="#000000" stroke="none" stroke-opacity="0" transform="matrix(2.291,0,0,2.291,-101.9436,-62.8201)" xmlns="http://www.w3.org/2000/svg" />
	<polygon id="A1062" points="149.125 167.875,156 174,152.625 177.625,145.875 171.25" fill="#000000" stroke="none" stroke-opacity="0" transform="matrix(2.291,0,0,2.291,-101.9436,-62.8201)" xmlns="http://www.w3.org/2000/svg" />
	<polygon id="A1061" points="152.25 164.5,159 170.875,156 174.125,149 168" fill="#000000" stroke="none" stroke-opacity="0" transform="matrix(2.291,0,0,2.291,-101.9436,-62.8201)" xmlns="http://www.w3.org/2000/svg" />
	<polygon id="A1060" points="181.75 132.5,188.5 139.25,191.625 136,184.875 129.125" fill="#000000" stroke="none" stroke-opacity="0" transform="matrix(2.291,0,0,2.291,-102.585,-60.25626)" xmlns="http://www.w3.org/2000/svg" />
	<polygon id="A1059" points="187.75 126.125,194.5 132.75,191.625 135.875,184.875 129.375" fill="#000000" stroke="none" stroke-opacity="0" transform="matrix(2.291,0,0,2.291,-102.585,-60.25626)" xmlns="http://www.w3.org/2000/svg" />
	<polygon id="A1058" points="187.875 126.125,191.875 121.875,198.375 128.75,194.375 132.625" fill="#000000" stroke="none" stroke-opacity="0" transform="matrix(2.291,0,0,2.291,-102.585,-60.25626)" xmlns="http://www.w3.org/2000/svg" />
	<polygon id="A1057" points="191.875 122,198.25 128.625,201.25 125.625,194.75 119" fill="#000000" stroke="none" stroke-opacity="0" transform="matrix(2.291,0,0,2.291,-102.585,-60.25626)" xmlns="http://www.w3.org/2000/svg" />
	<polygon id="A1056" points="194.75 119,201.25 125.625,204.125 122.5,197.625 116.125" fill="#000000" stroke="none" stroke-opacity="0" transform="matrix(2.291,0,0,2.291,-102.585,-60.25626)" xmlns="http://www.w3.org/2000/svg" />
	<polygon id="A1055" points="204.125 122.375,194.375 113.125,198.375 109.5,207.5 118.5" fill="#000000" stroke="none" stroke-opacity="0" transform="matrix(2.291,0,0,2.291,-102.585,-60.25626)" xmlns="http://www.w3.org/2000/svg" />
	<polygon id="A1054" points="199.875 107,206.125 112.75,211.125 108.125,204.75 102.25" fill="#000000" stroke="none" stroke-opacity="0" transform="matrix(2.291,0,0,2.291,-102.585,-60.25626)" xmlns="http://www.w3.org/2000/svg" />
	<polygon id="A1053" points="204.75 102.375,210.875 108.125,214.25 104.625,208 99" fill="#000000" stroke="none" stroke-opacity="0" transform="matrix(2.291,0,0,2.291,-102.585,-60.25626)" xmlns="http://www.w3.org/2000/svg" />
	<polygon id="A1052" points="208 99,214.125 104.5,217.75 100.875,211.125 95.25" fill="#000000" stroke="none" stroke-opacity="0" transform="matrix(2.291,0,0,2.291,-102.585,-60.25626)" xmlns="http://www.w3.org/2000/svg" />
	<polygon id="A1105" points="220.75 104.375,212.75 112.5,216.125 115.75,224 107.375" fill="#000000" stroke="none" stroke-opacity="0" transform="matrix(2.291,0,0,2.291,-102.585,-60.25626)" xmlns="http://www.w3.org/2000/svg" />
	<polygon id="A1104" points="224 107.25,216 115.75,219.5 119.25,227.5 110.375" fill="#000000" stroke="none" stroke-opacity="0" transform="matrix(2.291,0,0,2.291,-102.585,-60.25626)" xmlns="http://www.w3.org/2000/svg" />
	<polygon id="A1103" points="227.25 110.5,235.125 117.375,232.125 120.625,228.25 116.875,223.375 122.25,219.625 119" fill="#000000" stroke="none" stroke-opacity="0" transform="matrix(2.291,0,0,2.291,-102.585,-60.25626)" xmlns="http://www.w3.org/2000/svg" />
	<polygon id="A1037" points="186.375 92.375,194.25 99.75,191 103.25,183.25 95.5" fill="#000000" stroke="none" stroke-opacity="0" transform="matrix(2.291,0,0,2.291,-102.264,-60.897)" xmlns="http://www.w3.org/2000/svg" />
	<polygon id="A1038" points="186.5 92.375,194.25 99.75,197.5 96,190 88.75" fill="#000000" stroke="none" stroke-opacity="0" transform="matrix(2.291,0,0,2.291,-102.264,-60.897)" xmlns="http://www.w3.org/2000/svg" />
	<polygon id="A1039" points="190.125 88.875,197.5 96,200.5 92.25,193.25 85.625" fill="#000000" stroke="none" stroke-opacity="0" transform="matrix(2.291,0,0,2.291,-102.264,-60.897)" xmlns="http://www.w3.org/2000/svg" />
	<polygon id="A1040" points="193.375 85.625,200.625 92.25,203.75 88.875,196.375 82.125" fill="#000000" stroke="none" stroke-opacity="0" transform="matrix(2.291,0,0,2.291,-102.264,-60.897)" xmlns="http://www.w3.org/2000/svg" />
	<polygon id="A1041" points="204.875 72.75,212.125 80.25,217.125 75,210 68.25" fill="#000000" stroke="none" stroke-opacity="0" transform="matrix(2.287,0,0,2.287,-102.662,-60.37804)" xmlns="http://www.w3.org/2000/svg" />
	<polygon id="A1042" points="209.875 68,217.125 74.875,221.875 69.875,214.75 63" fill="#000000" stroke="none" stroke-opacity="0" transform="matrix(2.287,0,0,2.287,-102.662,-60.37804)" xmlns="http://www.w3.org/2000/svg" />
	<polygon id="A1043" points="214.75 62.875,221.875 69.75,226.875 63.75,219.5 57.25" fill="#000000" stroke="none" stroke-opacity="0" transform="matrix(2.287,0,0,2.287,-102.662,-60.37804)" xmlns="http://www.w3.org/2000/svg" />
	<polygon id="A1051" points="218 88.25,227 97.125,230 94.125,221 85.125" fill="#000000" stroke="none" stroke-opacity="0" transform="matrix(2.291,0,0,2.291,-103.867,-60.89718)" xmlns="http://www.w3.org/2000/svg" />
	<polygon id="A1050" points="221.125 85.125,229.875 94,233.375 90.25,224.375 81.375" fill="#000000" stroke="none" stroke-opacity="0" transform="matrix(2.291,0,0,2.291,-103.867,-60.89718)" xmlns="http://www.w3.org/2000/svg" />
	<polygon id="A1049" points="224.375 81.375,233.25 90.125,238.125 85,229.125 76" fill="#000000" stroke="none" stroke-opacity="0" transform="matrix(2.291,0,0,2.291,-103.867,-60.89718)" xmlns="http://www.w3.org/2000/svg" />
	<polygon id="A1048" points="229.25 76,238.125 85,243.375 79.625,234 70.75" fill="#000000" stroke="none" stroke-opacity="0" transform="matrix(2.291,0,0,2.291,-103.867,-60.89718)" xmlns="http://www.w3.org/2000/svg" />
	<polygon id="A1047" points="234 70.625,243.375 79.5,246.375 76.125,237.25 67.125" fill="#000000" stroke="none" stroke-opacity="0" transform="matrix(2.291,0,0,2.291,-103.867,-60.89718)" xmlns="http://www.w3.org/2000/svg" />
	<polygon id="A1046" points="237.375 67.125,246.375 76,249.75 72.5,240.25 64" fill="#000000" stroke="none" stroke-opacity="0" transform="matrix(2.291,0,0,2.291,-103.867,-60.89718)" xmlns="http://www.w3.org/2000/svg" />
	<polygon id="A1044" points="240.25 64.25,244.125 59.875,246.375 59.125,248.75 59.625,252.75 62.375,246 68.875" fill="#000000" stroke="none" stroke-opacity="0" transform="matrix(2.291,0,0,2.291,-103.867,-60.89718)" xmlns="http://www.w3.org/2000/svg" />
	<polygon id="A1045" points="252.75 62.375,246 68.875,249.5 72.5,256.375 65.75" fill="#000000" stroke="none" stroke-opacity="0" transform="matrix(2.291,0,0,2.291,-103.867,-60.89718)" xmlns="http://www.w3.org/2000/svg" />
	<polygon id="A1110" points="249.75 72.5,257.125 79.375,261.5 70.5,256.25 65.75" fill="#000000" stroke="none" stroke-opacity="0" transform="matrix(2.291,0,0,2.291,-103.867,-60.89718)" xmlns="http://www.w3.org/2000/svg" />
	<polygon id="A1109" points="249.75 72.375,257.125 79.375,255.25 83.875,246.5 76" fill="#000000" stroke="none" stroke-opacity="0" transform="matrix(2.291,0,0,2.291,-103.867,-60.89718)" xmlns="http://www.w3.org/2000/svg" />
	<polygon id="A1108" points="246.5 76,255.25 83.75,253.5 88.75,243.375 79.5" fill="#000000" stroke="none" stroke-opacity="0" transform="matrix(2.291,0,0,2.291,-103.867,-60.89718)" xmlns="http://www.w3.org/2000/svg" />
	<polygon id="A1107" points="243.375 79.625,253.375 88.75,251.375 96.875,238.5 84.75" fill="#000000" stroke="none" stroke-opacity="0" transform="matrix(2.291,0,0,2.291,-103.867,-60.89718)" xmlns="http://www.w3.org/2000/svg" />
	<polygon id="A1106" points="238.375 84.875,251.25 96.875,251 99.25,241 109.875,227.125 97.25" fill="#000000" stroke="none" stroke-opacity="0" transform="matrix(2.291,0,0,2.291,-103.867,-60.89718)" xmlns="http://www.w3.org/2000/svg" />
	<polygon id="A1200" points="276.75 60.75,280.75 56.5,287.375 63.625,284 67" fill="#000000" stroke="none" stroke-opacity="0" transform="matrix(2.291,0,0,2.291,-104.5081,-60.89706)" xmlns="http://www.w3.org/2000/svg" />
	<polygon id="A1201" points="284.5 53,280.75 56.5,287.375 63.5,290.875 60.125" fill="#000000" stroke="none" stroke-opacity="0" transform="matrix(2.291,0,0,2.291,-104.5081,-60.89706)" xmlns="http://www.w3.org/2000/svg" />
	<polygon id="A1202" points="288 49.875,284.625 53.125,290.75 60,294 56.75" fill="#000000" stroke="none" stroke-opacity="0" transform="matrix(2.291,0,0,2.291,-104.5081,-60.89706)" xmlns="http://www.w3.org/2000/svg" />
	<polygon id="A1203" points="292.75 46,297.5 43.125,302.125 51.125,298.125 53.625" fill="#000000" stroke="none" stroke-opacity="0" transform="matrix(2.291,0,0,2.291,-104.5081,-60.89706)" xmlns="http://www.w3.org/2000/svg" />
	<polygon id="A1204" points="302.125 40.625,297.5 43.125,302.125 51,306.375 48.875" fill="#000000" stroke="none" stroke-opacity="0" transform="matrix(2.291,0,0,2.291,-104.5081,-60.89706)" xmlns="http://www.w3.org/2000/svg" />
	<polygon id="A1205" points="302 40.375,307.25 38.125,311.375 46.875,306.375 48.875" fill="#000000" stroke="none" stroke-opacity="0" transform="matrix(2.291,0,0,2.291,-104.5081,-60.89706)" xmlns="http://www.w3.org/2000/svg" />
	<polygon id="A1206" points="312.125 36.125,307.25 38.125,311.25 46.75,315.75 45" fill="#000000" stroke="none" stroke-opacity="0" transform="matrix(2.291,0,0,2.291,-104.5081,-60.89706)" xmlns="http://www.w3.org/2000/svg" />
	<polygon id="A1208" points="334 30.75,334.375 40,338.875 39.875,339 30.75" fill="#000000" stroke="none" stroke-opacity="0" transform="matrix(2.291,0,0,2.291,-104.5081,-60.89706)" xmlns="http://www.w3.org/2000/svg" />
	<polygon id="A1209" points="343.875 30.875,344 40,338.875 39.875,339 30.75" fill="#000000" stroke="none" stroke-opacity="0" transform="matrix(2.291,0,0,2.291,-104.5081,-60.89706)" xmlns="http://www.w3.org/2000/svg" />
	<polygon id="A1210" points="349.875 31.125,349.5 40.25,344 39.75,343.875 30.875" fill="#000000" stroke="none" stroke-opacity="0" transform="matrix(2.291,0,0,2.291,-104.5081,-60.89706)" xmlns="http://www.w3.org/2000/svg" />
	<polygon id="A1211" points="355.25 31.875,354 40.875,349.375 40.125,349.75 31.375" fill="#000000" stroke="none" stroke-opacity="0" transform="matrix(2.291,0,0,2.291,-104.5081,-60.89706)" xmlns="http://www.w3.org/2000/svg" />
	<polygon id="A1212" points="355.25 31.875,353.875 40.625,358.375 41.375,360.25 32.375" fill="#000000" stroke="none" stroke-opacity="0" transform="matrix(2.291,0,0,2.291,-104.5081,-60.89706)" xmlns="http://www.w3.org/2000/svg" />
	<polygon id="A1213" points="366.375 34.25,363.125 42.375,368.25 43.875,371.125 35.5" fill="#000000" stroke="none" stroke-opacity="0" transform="matrix(2.291,0,0,2.291,-104.5081,-60.89706)" xmlns="http://www.w3.org/2000/svg" />
	<polygon id="A1214" points="375.875 37.5,372.875 45.625,368.25 43.875,371.125 35.5" fill="#000000" stroke="none" stroke-opacity="0" transform="matrix(2.291,0,0,2.291,-104.5081,-60.89706)" xmlns="http://www.w3.org/2000/svg" />
	<polygon id="A1207" points="312.25 36,318.75 53.625,335.125 49.125,334.125 30.625,322.5 32.875" fill="#000000" stroke="none" stroke-opacity="0" transform="matrix(2.291,0,0,2.291,-104.5081,-60.89706)" xmlns="http://www.w3.org/2000/svg" />
	<polygon id="A1215" points="372.875 45.625,368.625 54.625,364.75 53.25,368.375 44" fill="#000000" stroke="none" stroke-opacity="0" transform="matrix(2.291,0,0,2.291,-104.5081,-60.89706)" xmlns="http://www.w3.org/2000/svg" />
	<polygon id="A1216" points="363.25 42.25,360.625 51.75,364.75 53.25,368.375 44" fill="#000000" stroke="none" stroke-opacity="0" transform="matrix(2.291,0,0,2.291,-104.5081,-60.89706)" xmlns="http://www.w3.org/2000/svg" />
	<polygon id="A1217" points="358.25 41.375,356.375 50.75,360.625 51.625,363.125 42.75" fill="#000000" stroke="none" stroke-opacity="0" transform="matrix(2.291,0,0,2.291,-104.5081,-60.89706)" xmlns="http://www.w3.org/2000/svg" />
	<polygon id="A1218" points="353.75 40.75,353 50.25,356.375 50.625,358.125 41.375" fill="#000000" stroke="none" stroke-opacity="0" transform="matrix(2.291,0,0,2.291,-104.5081,-60.89706)" xmlns="http://www.w3.org/2000/svg" />
	<polygon id="A1219" points="348.875 40.125,348.625 49.5,353 50.25,353.75 40.875" fill="#000000" stroke="none" stroke-opacity="0" transform="matrix(2.291,0,0,2.291,-104.5081,-60.89706)" xmlns="http://www.w3.org/2000/svg" />
	<polygon id="A1220" points="344 39.875,343.75 49.125,348.75 49.375,348.875 40.125" fill="#000000" stroke="none" stroke-opacity="0" transform="matrix(2.291,0,0,2.291,-104.5081,-60.89706)" xmlns="http://www.w3.org/2000/svg" />
	<polygon id="A1221" points="339.875 40,339.75 49.125,343.75 49,344 40.125" fill="#000000" stroke="none" stroke-opacity="0" transform="matrix(2.291,0,0,2.291,-104.5081,-60.89706)" xmlns="http://www.w3.org/2000/svg" />
	<polygon id="A1222" points="334.5 40.125,334.75 49.125,339.875 48.875,339.875 40" fill="#000000" stroke="none" stroke-opacity="0" transform="matrix(2.291,0,0,2.291,-104.5081,-60.89706)" xmlns="http://www.w3.org/2000/svg" />
	<polygon id="A1223" points="315.5 45.125,317.5 50.375,313.125 52.25,311.125 46.875" fill="#000000" stroke="none" stroke-opacity="0" transform="matrix(2.291,0,0,2.291,-104.5081,-60.89706)" xmlns="http://www.w3.org/2000/svg" />
	<polygon id="A1224" points="306.375 49,309.25 54,313.125 52.25,311.125 46.875" fill="#000000" stroke="none" stroke-opacity="0" transform="matrix(2.291,0,0,2.291,-104.5081,-60.89706)" xmlns="http://www.w3.org/2000/svg" />
	<polygon id="A1225" points="302.125 51,305.5 56.5,309.375 54.25,306.375 48.875" fill="#000000" stroke="none" stroke-opacity="0" transform="matrix(2.291,0,0,2.291,-104.5081,-60.89706)" xmlns="http://www.w3.org/2000/svg" />
	<polygon id="A1226" points="298.125 53.625,301.625 58.875,305.625 56.5,302.25 51.125" fill="#000000" stroke="none" stroke-opacity="0" transform="matrix(2.291,0,0,2.291,-104.5081,-60.89706)" xmlns="http://www.w3.org/2000/svg" />
	<polygon id="A1227" points="294.25 56.5,298.375 61.375,301.625 58.875,298.375 53.75" fill="#000000" stroke="none" stroke-opacity="0" transform="matrix(2.291,0,0,2.291,-104.5081,-60.89706)" xmlns="http://www.w3.org/2000/svg" />
	<polygon id="A1228" points="291 59.875,294.875 64,298.375 61.25,294.25 56.625" fill="#000000" stroke="none" stroke-opacity="0" transform="matrix(2.291,0,0,2.291,-104.5081,-60.89706)" xmlns="http://www.w3.org/2000/svg" />
	<polygon id="A1229" points="287.375 63.75,291.625 67.375,295.125 64.125,291.125 59.875" fill="#000000" stroke="none" stroke-opacity="0" transform="matrix(2.291,0,0,2.291,-104.5081,-60.89706)" xmlns="http://www.w3.org/2000/svg" />
	<polygon id="A1230" points="284 67.125,288.375 70.625,291.5 67.125,287.375 63.875" fill="#000000" stroke="none" stroke-opacity="0" transform="matrix(2.291,0,0,2.291,-104.5081,-60.89706)" xmlns="http://www.w3.org/2000/svg" />
	<polygon id="A1102" points="239.125 135.75,248.625 134.25,249.25 139.75,239.75 140.125" fill="#000000" stroke="none" stroke-opacity="0" transform="matrix(2.291,0,0,2.291,-102.585,-63.46125)" xmlns="http://www.w3.org/2000/svg" />
	<polygon id="A1101" points="239.875 144,249.5 144.125,249.25 139.75,239.75 140.125" fill="#000000" stroke="none" stroke-opacity="0" transform="matrix(2.291,0,0,2.291,-102.585,-63.46125)" xmlns="http://www.w3.org/2000/svg" />
	<polygon id="A1100" points="240 144.125,249.375 144.125,249.625 148.125,240.25 148.25" fill="#000000" stroke="none" stroke-opacity="0" transform="matrix(2.291,0,0,2.291,-102.585,-63.46125)" xmlns="http://www.w3.org/2000/svg" />
	<polygon id="A1099" points="240.125 151.875,249.625 151.875,249.625 148.125,240.25 148.25" fill="#000000" stroke="none" stroke-opacity="0" transform="matrix(2.291,0,0,2.291,-102.585,-63.46125)" xmlns="http://www.w3.org/2000/svg" />
	<polygon id="A1098" points="240.25 155.875,249.75 156.125,249.875 151.875,240.25 151.875" fill="#000000" stroke="none" stroke-opacity="0" transform="matrix(2.291,0,0,2.291,-102.585,-63.46125)" xmlns="http://www.w3.org/2000/svg" />
	<polygon id="A1097" points="240.375 156,249.625 156,249.25 160,240.125 159" fill="#000000" stroke="none" stroke-opacity="0" transform="matrix(2.291,0,0,2.291,-102.585,-63.46125)" xmlns="http://www.w3.org/2000/svg" />
	<polygon id="A1096" points="239.75 163.125,248.75 163.875,249 160,240.125 159" fill="#000000" stroke="none" stroke-opacity="0" transform="matrix(2.291,0,0,2.291,-102.585,-63.46125)" xmlns="http://www.w3.org/2000/svg" />
	<polygon id="A1095" points="237.625 170,247.25 172.25,246.375 175.625,237 173.375" fill="#000000" stroke="none" stroke-opacity="0" transform="matrix(2.291,0,0,2.291,-102.585,-63.46125)" xmlns="http://www.w3.org/2000/svg" />
	<polygon id="A1094" points="236.125 176.75,245.25 179.125,246.375 175.625,237 173.375" fill="#000000" stroke="none" stroke-opacity="0" transform="matrix(2.291,0,0,2.291,-102.585,-63.46125)" xmlns="http://www.w3.org/2000/svg" />
	<polygon id="A1093" points="234.625 180.375,243 183.375,245.125 179.125,236.125 176.75" fill="#000000" stroke="none" stroke-opacity="0" transform="matrix(2.291,0,0,2.291,-102.585,-63.46125)" xmlns="http://www.w3.org/2000/svg" />
	<polygon id="A1092" points="233.25 183.375,241.375 187.25,242.875 183.5,234.5 180.25" fill="#000000" stroke="none" stroke-opacity="0" transform="matrix(2.291,0,0,2.291,-102.585,-63.46125)" xmlns="http://www.w3.org/2000/svg" />
	<polygon id="A1091" points="231.125 186.5,239.25 190.75,241.125 187.125,233.125 183.25" fill="#000000" stroke="none" stroke-opacity="0" transform="matrix(2.291,0,0,2.291,-102.585,-63.46125)" xmlns="http://www.w3.org/2000/svg" />
	<polygon id="A1090" points="229.375 189.75,237.5 194.625,239.125 190.625,231.25 186.5" fill="#000000" stroke="none" stroke-opacity="0" transform="matrix(2.291,0,0,2.291,-102.585,-63.46125)" xmlns="http://www.w3.org/2000/svg" />
	<polygon id="A1089" points="227.25 193,235 197.375,237.25 194.5,229.5 189.75" fill="#000000" stroke="none" stroke-opacity="0" transform="matrix(2.291,0,0,2.291,-102.585,-63.46125)" xmlns="http://www.w3.org/2000/svg" />
	<polygon id="A1072" points="138.125 229.5,146.75 220.875,150.5 221.875,150.5 224.875,147.75 224.875,146.375 233.125" fill="#000000" stroke="none" stroke-opacity="0" transform="matrix(2.291,0,0,2.291,-102.585,-63.46125)" xmlns="http://www.w3.org/2000/svg" />
	<polygon id="A1073" points="147.75 224.75,146.25 233,149.75 233.5,150.5 225" fill="#000000" stroke="none" stroke-opacity="0" transform="matrix(2.291,0,0,2.291,-102.585,-63.46125)" xmlns="http://www.w3.org/2000/svg" />
	<polygon id="A1074" points="155 224.75,154 234.375,158.375 235,159.25 225.125" fill="#000000" stroke="none" stroke-opacity="0" transform="matrix(2.291,0,0,2.291,-102.585,-63.46125)" xmlns="http://www.w3.org/2000/svg" />
	<polygon id="A1075" points="162.625 225.25,162.125 235.125,158.375 235,159.25 225.125" fill="#000000" stroke="none" stroke-opacity="0" transform="matrix(2.291,0,0,2.291,-102.585,-63.46125)" xmlns="http://www.w3.org/2000/svg" />
	<polygon id="A1076" points="165.875 225.25,166.25 235,162.125 235,162.5 225.125" fill="#000000" stroke="none" stroke-opacity="0" transform="matrix(2.291,0,0,2.291,-102.585,-63.46125)" xmlns="http://www.w3.org/2000/svg" />
	<polygon id="A1077" points="169.75 225.375,170.125 235,166.25 235.125,166 225.375" fill="#000000" stroke="none" stroke-opacity="0" transform="matrix(2.291,0,0,2.291,-102.585,-63.46125)" xmlns="http://www.w3.org/2000/svg" />
	<polygon id="A1078" points="174.125 225.125,173.875 234.75,170 235,169.75 225.375" fill="#000000" stroke="none" stroke-opacity="0" transform="matrix(2.291,0,0,2.291,-102.585,-63.46125)" xmlns="http://www.w3.org/2000/svg" />
	<polygon id="A1079" points="174.25 225.25,174 234.75,178.125 234.125,177.625 225" fill="#000000" stroke="none" stroke-opacity="0" transform="matrix(2.291,0,0,2.291,-102.585,-63.46125)" xmlns="http://www.w3.org/2000/svg" />
	<polygon id="A1080" points="180.75 224.25,182.25 233.375,178.125 234.125,177.625 225" fill="#000000" stroke="none" stroke-opacity="0" transform="matrix(2.291,0,0,2.291,-102.585,-63.46125)" xmlns="http://www.w3.org/2000/svg" />
	<polygon id="A1081" points="184 223.625,186.625 232,182.25 233.375,180.75 224.375" fill="#000000" stroke="none" stroke-opacity="0" transform="matrix(2.291,0,0,2.291,-102.585,-63.46125)" xmlns="http://www.w3.org/2000/svg" />
	<polygon id="A1082" points="197.875 218.375,201.75 226.75,205.625 224.125,200.875 216.625" fill="#000000" stroke="none" stroke-opacity="0" transform="matrix(2.291,0,0,2.291,-102.585,-63.46125)" xmlns="http://www.w3.org/2000/svg" />
	<polygon id="A1083" points="204.125 214.75,208.75 222.125,205.625 224.125,200.875 216.625" fill="#000000" stroke="none" stroke-opacity="0" transform="matrix(2.291,0,0,2.291,-102.585,-63.46125)" xmlns="http://www.w3.org/2000/svg" />
	<polygon id="A1084" points="207.375 212.625,204.25 214.625,208.625 222.25,212.25 220.125" fill="#000000" stroke="none" stroke-opacity="0" transform="matrix(2.291,0,0,2.291,-102.585,-63.46125)" xmlns="http://www.w3.org/2000/svg" />
	<polygon id="A1085" points="207.625 212.625,210.125 210.75,215.75 217.875,212.25 220.125" fill="#000000" stroke="none" stroke-opacity="0" transform="matrix(2.291,0,0,2.291,-102.585,-63.46125)" xmlns="http://www.w3.org/2000/svg" />
	<polygon id="A1086" points="212.5 208.5,210.125 210.75,215.625 218,218.75 215.375" fill="#000000" stroke="none" stroke-opacity="0" transform="matrix(2.291,0,0,2.291,-102.585,-63.46125)" xmlns="http://www.w3.org/2000/svg" />
	<polygon id="A1087" points="215.75 205.875,212.5 208.5,218.625 215.375,222 213" fill="#000000" stroke="none" stroke-opacity="0" transform="matrix(2.291,0,0,2.291,-102.585,-63.46125)" xmlns="http://www.w3.org/2000/svg" />
	<polygon id="A1088" points="221.875 213,215.875 205.875,218.25 203.5,224.375 210" fill="#000000" stroke="none" stroke-opacity="0" transform="matrix(2.291,0,0,2.291,-102.585,-63.46125)" xmlns="http://www.w3.org/2000/svg" />
	<polygon id="A1171" points="122.75 245.375,118.625 254.375,123.625 257,127.125 247.125" fill="#000000" stroke="none" stroke-opacity="0" transform="matrix(2.291,0,0,2.291,-102.585,-63.46125)" xmlns="http://www.w3.org/2000/svg" />
	<polygon id="A1172" points="136.5 250.25,134.25 260.375,123.625 257,127.125 247.125" fill="#000000" stroke="none" stroke-opacity="0" transform="matrix(2.291,0,0,2.291,-102.585,-63.46125)" xmlns="http://www.w3.org/2000/svg" />
	<polygon id="A1173" points="142.25 251.625,139.875 260.75,149.625 262.875,161.625 263.625,162.25 253.875,152.25 253.875" fill="#000000" stroke="none" stroke-opacity="0" transform="matrix(2.291,0,0,2.291,-102.585,-63.46125)" xmlns="http://www.w3.org/2000/svg" />
	<polygon id="A1174" points="162.25 253.75,161.875 263.375,169.875 263.75,176.625 263.25,176.75 253.75" fill="#000000" stroke="none" stroke-opacity="0" transform="matrix(2.291,0,0,2.291,-102.585,-63.46125)" xmlns="http://www.w3.org/2000/svg" />
	<polygon id="A1175" points="176.75 253.75,181.875 253.5,182.375 263,176.625 263.25" fill="#000000" stroke="none" stroke-opacity="0" transform="matrix(2.291,0,0,2.291,-102.585,-63.46125)" xmlns="http://www.w3.org/2000/svg" />
	<polygon id="A1176" points="191.125 250.5,193.75 260.125,198.625 258.625,195.5 249.25" fill="#000000" stroke="none" stroke-opacity="0" transform="matrix(2.291,0,0,2.291,-102.585,-63.46125)" xmlns="http://www.w3.org/2000/svg" />
	<polygon id="A1177" points="214.375 241.25,219.25 250.625,214.375 252.875,210.25 243.25" fill="#000000" stroke="none" stroke-opacity="0" transform="matrix(2.291,0,0,2.291,-102.585,-63.46125)" xmlns="http://www.w3.org/2000/svg" />
	<polygon id="A1178" points="218.375 239.375,223.875 247.875,219.125 250.5,214.375 241.25" fill="#000000" stroke="none" stroke-opacity="0" transform="matrix(2.291,0,0,2.291,-102.585,-63.46125)" xmlns="http://www.w3.org/2000/svg" />
	<polygon id="A1179" points="223 236.5,228.875 245.375,223.875 248,218.75 239.5" fill="#000000" stroke="none" stroke-opacity="0" transform="matrix(2.291,0,0,2.291,-102.585,-63.46125)" xmlns="http://www.w3.org/2000/svg" />
	<polygon id="A1180" points="227.25 233.625,233.75 241.875,228.625 245.25,223 236.5" fill="#000000" stroke="none" stroke-opacity="0" transform="matrix(2.291,0,0,2.291,-102.585,-63.46125)" xmlns="http://www.w3.org/2000/svg" />
	<polygon id="A1181" points="234.875 227,241.75 236.75,234.75 243,227.375 233.75" fill="#000000" stroke="none" stroke-opacity="0" transform="matrix(2.291,0,0,2.291,-102.585,-63.46125)" xmlns="http://www.w3.org/2000/svg" />
	<polygon id="A1182" points="234.875 227,240.875 235.375,245.125 230.875,238.375 223.625" fill="#000000" stroke="none" stroke-opacity="0" transform="matrix(2.291,0,0,2.291,-102.585,-63.46125)" xmlns="http://www.w3.org/2000/svg" />
	<polygon id="A1183" points="241.875 220,249.375 226.875,245.125 230.875,238.375 223.625" fill="#000000" stroke="none" stroke-opacity="0" transform="matrix(2.291,0,0,2.291,-102.585,-63.46125)" xmlns="http://www.w3.org/2000/svg" />
	<polygon id="A1184" points="248 212.75,255.75 218.5,259 214.25,250.875 208.75" fill="#000000" stroke="none" stroke-opacity="0" transform="matrix(2.291,0,0,2.291,-102.585,-63.46125)" xmlns="http://www.w3.org/2000/svg" />
	<polygon id="A1185" points="253.5 204.625,261.875 209,259 214.25,250.875 208.75" fill="#000000" stroke="none" stroke-opacity="0" transform="matrix(2.291,0,0,2.291,-102.585,-63.46125)" xmlns="http://www.w3.org/2000/svg" />
	<polygon id="A1186" points="253.5 204.625,261.875 209.125,262.375 208.125,264.5 209.625,269.5 201.375,258.625 195.25" fill="#000000" stroke="none" stroke-opacity="0" transform="matrix(2.291,0,0,2.291,-102.585,-63.46125)" xmlns="http://www.w3.org/2000/svg" />
	<polygon id="A1187" points="258.625 195.25,267.75 200.375,270.375 195.25,260.875 190.625" fill="#000000" stroke="none" stroke-opacity="0" transform="matrix(2.291,0,0,2.291,-102.585,-63.46125)" xmlns="http://www.w3.org/2000/svg" />
	<polygon id="A1188" points="261 190.75,270.375 195.25,272.375 190,262.625 186.375" fill="#000000" stroke="none" stroke-opacity="0" transform="matrix(2.291,0,0,2.291,-102.585,-63.46125)" xmlns="http://www.w3.org/2000/svg" />
	<polygon id="A1189" points="262.75 186.375,272.25 190,273.875 184.5,264.25 181.625" fill="#000000" stroke="none" stroke-opacity="0" transform="matrix(2.291,0,0,2.291,-102.585,-63.46125)" xmlns="http://www.w3.org/2000/svg" />
	<polygon id="A1190" points="264.25 181.5,273.625 184.375,275 179.625,265.625 176.875" fill="#000000" stroke="none" stroke-opacity="0" transform="matrix(2.291,0,0,2.291,-102.585,-63.46125)" xmlns="http://www.w3.org/2000/svg" />
	<polygon id="A1191" points="278 162.875,268 161.875,268.5 156.875,278.125 157.75" fill="#000000" stroke="none" stroke-opacity="0" transform="matrix(2.291,0,0,2.291,-102.585,-63.46125)" xmlns="http://www.w3.org/2000/svg" />
	<polygon id="A1192" points="273.75 152.375,278.375 152.5,278.25 157.625,273.75 157.375" fill="#000000" stroke="none" stroke-opacity="0" transform="matrix(2.291,0,0,2.291,-102.585,-63.46125)" xmlns="http://www.w3.org/2000/svg" />
	<polygon id="A1193" points="273.75 152.375,278.375 152.5,278.125 146.875,273.5 146.875" fill="#000000" stroke="none" stroke-opacity="0" transform="matrix(2.291,0,0,2.291,-102.585,-63.46125)" xmlns="http://www.w3.org/2000/svg" />
	<polygon id="A1194" points="268.75 146.875,278.125 146.875,278.125 136.625,268.5 137.25" fill="#000000" stroke="none" stroke-opacity="0" transform="matrix(2.291,0,0,2.291,-102.585,-63.46125)" xmlns="http://www.w3.org/2000/svg" />
	<polygon id="A1111" points="259.125 138.125,268.625 137.375,268.75 146.625,258.75 146.25" fill="#000000" stroke="none" stroke-opacity="0" transform="matrix(2.291,0,0,2.291,-102.585,-63.46125)" xmlns="http://www.w3.org/2000/svg" />
	<polygon id="A1112" points="259.125 149.75,264.375 149.875,264.25 157.125,258.875 157.125" fill="#000000" stroke="none" stroke-opacity="0" transform="matrix(2.291,0,0,2.291,-102.585,-63.46125)" xmlns="http://www.w3.org/2000/svg" />
	<polygon id="A1113" points="258.875 157,268.625 156.875,268 161.875,258.375 161.625" fill="#000000" stroke="none" stroke-opacity="0" transform="matrix(2.291,0,0,2.291,-102.585,-63.46125)" xmlns="http://www.w3.org/2000/svg" />
	<polygon id="A1114" points="258.375 161.625,268.125 161.875,267.5 167.25,257.75 166" fill="#000000" stroke="none" stroke-opacity="0" transform="matrix(2.291,0,0,2.291,-102.585,-63.46125)" xmlns="http://www.w3.org/2000/svg" />
	<polygon id="A1115" points="257.75 165.75,277.125 168.625,276.625 174.25,274.875 179.625,256 174.25" fill="#000000" stroke="none" stroke-opacity="0" transform="matrix(2.291,0,0,2.291,-102.585,-63.46125)" xmlns="http://www.w3.org/2000/svg" />
	<polygon id="A1116" points="259.25 175.125,257.875 180.25,264.125 181.625,265.75 176.875" fill="#000000" stroke="none" stroke-opacity="0" transform="matrix(2.291,0,0,2.291,-102.585,-63.46125)" xmlns="http://www.w3.org/2000/svg" />
	<polygon id="A1117" points="256.75 184.625,258.125 179.75,264.25 181.625,262.625 186.375" fill="#000000" stroke="none" stroke-opacity="0" transform="matrix(2.291,0,0,2.291,-102.585,-63.46125)" xmlns="http://www.w3.org/2000/svg" />
	<polygon id="A1118" points="256.75 184.625,255.125 188.875,260.5 191.25,262.625 186.375" fill="#000000" stroke="none" stroke-opacity="0" transform="matrix(2.291,0,0,2.291,-102.585,-63.46125)" xmlns="http://www.w3.org/2000/svg" />
	<polygon id="A1119" points="253.5 192.75,255.25 188.875,260.625 191.125,258.5 195.125" fill="#000000" stroke="none" stroke-opacity="0" transform="matrix(2.291,0,0,2.291,-102.585,-63.46125)" xmlns="http://www.w3.org/2000/svg" />
	<polygon id="A1120" points="250.875 196.875,253.5 192.875,258.625 195.25,256 200.25" fill="#000000" stroke="none" stroke-opacity="0" transform="matrix(2.291,0,0,2.291,-102.585,-63.46125)" xmlns="http://www.w3.org/2000/svg" />
	<polygon id="A1121" points="248.375 200.875,251 197,256 200.25,253.625 204.625" fill="#000000" stroke="none" stroke-opacity="0" transform="matrix(2.291,0,0,2.291,-102.585,-63.46125)" xmlns="http://www.w3.org/2000/svg" />
	<polygon id="A1122" points="242.875 203.125,246.125 199.25,253.625 204.75,250.75 209.125" fill="#000000" stroke="none" stroke-opacity="0" transform="matrix(2.291,0,0,2.291,-102.585,-63.46125)" xmlns="http://www.w3.org/2000/svg" />
	<polygon id="A1123" points="243 203.25,240.375 206.875,248 212.875,250.75 209.125" fill="#000000" stroke="none" stroke-opacity="0" transform="matrix(2.291,0,0,2.291,-102.585,-63.46125)" xmlns="http://www.w3.org/2000/svg" />
	<polygon id="A1146" points="127.25 236.25,122.875 245.375,127.5 247.375,131.375 238.125" fill="#000000" stroke="none" stroke-opacity="0" transform="matrix(2.291,0,0,2.291,-102.585,-63.46125)" xmlns="http://www.w3.org/2000/svg" />
	<polygon id="A1145" points="135.5 239.625,132.375 248.875,127.5 247.375,131.375 238.125" fill="#000000" stroke="none" stroke-opacity="0" transform="matrix(2.291,0,0,2.291,-102.585,-63.46125)" xmlns="http://www.w3.org/2000/svg" />
	<polygon id="A1144" points="138.875 244.25,137.875 250.5,132.375 249,134.375 243.125" fill="#000000" stroke="none" stroke-opacity="0" transform="matrix(2.291,0,0,2.291,-102.585,-63.46125)" xmlns="http://www.w3.org/2000/svg" />
	<polygon points="608,249 609,249 610,250 611,250 612,250 613,251 614,251 614,251 615,251 616,252 617,252 618,252 619,252 620,252 621,252 622,252 623,253 624,253 625,253 626,253 627,253 627,252 627,251 627,250 627,249 628,248 628,247 628,246 628,245 628,244 628,243 628,242 628,241 628,240 628,240 629,239 629,238 629,237 629,236 629,235 629,234 629,234 628,234 627,234 626,234 625,233 624,233 623,233 622,233 621,233 620,233 619,232 618,232 617,232 616,232 615,231 614,231 614,231 614,232 613,233 613,234 613,235 612,236 612,237 612,238 611,239 611,240 611,241 610,242 610,243 610,243 610,244 609,245 609,246 609,247 608,248 608,249" fill="#FFFFFF" stroke="#000000" />
	<polygon id="A1143" points="138.9375 244.375,143.25 245.375,142.25 251.5,137.75 250.5" fill="#000000" stroke="none" stroke-opacity="0" transform="matrix(2.291,0,0,2.291,-102.585,-63.46125)" xmlns="http://www.w3.org/2000/svg" />
	<polygon id="A1142" points="147.9375 246.375,143.25 245.375,142.25 251.5,146.75 252.5" fill="#000000" stroke="none" stroke-opacity="0" transform="matrix(2.291,0,0,2.291,-102.585,-63.46125)" xmlns="http://www.w3.org/2000/svg" />
	<polygon id="A1141" points="147.8125 246.375,152.75 246.875,151.75 254,146.75 252.5" fill="#000000" stroke="none" stroke-opacity="0" transform="matrix(2.291,0,0,2.291,-102.585,-63.46125)" xmlns="http://www.w3.org/2000/svg" />
	<polygon id="A1140" points="157.5625 247.5,152.75 247.25,151.75 253.875,156.875 254" fill="#000000" stroke="none" stroke-opacity="0" transform="matrix(2.291,0,0,2.291,-102.585,-63.46125)" xmlns="http://www.w3.org/2000/svg" />
	<polygon id="A1139" points="157.6875 247.625,162.125 247.875,162 254,156.875 254" fill="#000000" stroke="none" stroke-opacity="0" transform="matrix(2.291,0,0,2.291,-102.585,-63.46125)" xmlns="http://www.w3.org/2000/svg" />
	<polygon id="A1138" points="166.1875 244.125,161.875 244.125,162 253.625,166.125 253.625" fill="#000000" stroke="none" stroke-opacity="0" transform="matrix(2.291,0,0,2.291,-102.585,-63.46125)" xmlns="http://www.w3.org/2000/svg" />
	<polygon id="A1137" points="171.0625 244,166.25 244.25,166.125 253.875,171.125 254" fill="#000000" stroke="none" stroke-opacity="0" transform="matrix(2.291,0,0,2.291,-102.585,-63.46125)" xmlns="http://www.w3.org/2000/svg" />
	<polygon id="A1136" points="171.0625 244.125,176.125 243.625,176.125 253.75,171.125 254" fill="#000000" stroke="none" stroke-opacity="0" transform="matrix(2.291,0,0,2.291,-102.585,-63.46125)" xmlns="http://www.w3.org/2000/svg" />
	<polygon id="A1135" points="180.4375 243.125,176.125 243.625,176.25 254,181.75 253.625" fill="#000000" stroke="none" stroke-opacity="0" transform="matrix(2.291,0,0,2.291,-102.585,-63.46125)" xmlns="http://www.w3.org/2000/svg" />
	<polygon id="A1134" points="188.875 241.125,191.125 250.5,196 249.125,193.375 240.25" fill="#000000" stroke="none" stroke-opacity="0" transform="matrix(2.291,0,0,2.291,-102.585,-63.46125)" xmlns="http://www.w3.org/2000/svg" />
	<polygon id="A1133" points="193.25 240.375,197.625 239.125,200.625 247.625,196 248.875" fill="#000000" stroke="none" stroke-opacity="0" transform="matrix(2.291,0,0,2.291,-102.585,-63.46125)" xmlns="http://www.w3.org/2000/svg" />
	<polygon id="A1132" points="197.625 239.125,204.25 256.75,214.5 252.75,206.25 235" fill="#000000" stroke="none" stroke-opacity="0" transform="matrix(2.291,0,0,2.291,-102.585,-63.46125)" xmlns="http://www.w3.org/2000/svg" />
	<polygon id="A1131" points="207.75 238.25,210.25 243.375,214.625 241.125,212 236.125" fill="#000000" stroke="none" stroke-opacity="0" transform="matrix(2.291,0,0,2.291,-102.585,-63.46125)" xmlns="http://www.w3.org/2000/svg" />
	<polygon id="A1130" points="216 233.875,218.75 238.75,214.625 241.125,212 236.125" fill="#000000" stroke="none" stroke-opacity="0" transform="matrix(2.291,0,0,2.291,-102.585,-63.46125)" xmlns="http://www.w3.org/2000/svg" />
	<polygon id="A1129" points="216.125 233.875,219.75 231.75,223.375 236.25,218.75 239.25" fill="#000000" stroke="none" stroke-opacity="0" transform="matrix(2.291,0,0,2.291,-102.585,-63.46125)" xmlns="http://www.w3.org/2000/svg" />
	<polygon id="A1128" points="223.125 228.75,219.75 231.75,223.5 236.375,227.75 233.5" fill="#000000" stroke="none" stroke-opacity="0" transform="matrix(2.291,0,0,2.291,-102.585,-63.46125)" xmlns="http://www.w3.org/2000/svg" />
	<polygon id="A1127" points="223 229,227 225.5,231.5 230.25,227.75 233.5" fill="#000000" stroke="none" stroke-opacity="0" transform="matrix(2.291,0,0,2.291,-102.585,-63.46125)" xmlns="http://www.w3.org/2000/svg" />
	<polygon id="A1126" points="230.625 222.625,227 225.5,231.375 230.25,234.875 227.125" fill="#000000" stroke="none" stroke-opacity="0" transform="matrix(2.291,0,0,2.291,-102.585,-63.46125)" xmlns="http://www.w3.org/2000/svg" />
	<polygon id="A1125" points="231.875 216.875,228.25 220.125,235 227.125,238.75 223.25" fill="#000000" stroke="none" stroke-opacity="0" transform="matrix(2.291,0,0,2.291,-102.585,-63.46125)" xmlns="http://www.w3.org/2000/svg" />
	<polygon id="A1124" points="235 214,231.75 217,238.875 223.375,241.5 220.125" fill="#000000" stroke="none" stroke-opacity="0" transform="matrix(2.291,0,0,2.291,-102.585,-63.46125)" xmlns="http://www.w3.org/2000/svg" />
	<polygon id="A1198" points="270 70,273.875 72.375,269.125 81.625,265 78.875" fill="#000000" stroke="none" stroke-opacity="0" transform="matrix(2.291,0,0,2.291,-104.5081,-60.89706)" xmlns="http://www.w3.org/2000/svg" />
	<polygon id="A1199" points="273.75 72.5,278.125 74.875,273.5 83.625,269.25 81.625" fill="#000000" stroke="none" stroke-opacity="0" transform="matrix(2.291,0,0,2.291,-104.5081,-60.89706)" xmlns="http://www.w3.org/2000/svg" />
	<polygon id="A1231" points="282.25 77.375,278.125 74.875,273.375 83.5,277.5 85.625" fill="#000000" stroke="none" stroke-opacity="0" transform="matrix(2.291,0,0,2.291,-104.5081,-60.89706)" xmlns="http://www.w3.org/2000/svg" />
	<polygon id="A1232" points="282.1608 77.38692,277.6382 85.55275,281.7838 87.5628,286.1808 80.02512" fill="#000000" stroke="none" transform="matrix(2.291,0,0,2.291,-104.5081,-60.89706)" xmlns="http://www.w3.org/2000/svg" />
	<polygon id="A1197" points="262.3115 84.04521,271.608 87.5628,269.5979 92.08541,260.6783 89.07034" fill="#000000" stroke="none" stroke-opacity="0" transform="matrix(2.291,0,0,2.291,-104.5081,-60.89706)" xmlns="http://www.w3.org/2000/svg" />
	<polygon id="A1196" points="260.804 88.94471,269.5979 91.95979,268.0904 96.98491,259.2964 94.22109" fill="#000000" stroke="none" stroke-opacity="0" transform="matrix(2.291,0,0,2.291,-104.5081,-60.89706)" xmlns="http://www.w3.org/2000/svg" />
	<polygon id="A1195" points="259.2964 94.09547,257.6633 103.6432,266.5829 105.1507,268.0904 97.11054" fill="#000000" stroke="none" stroke-opacity="0" transform="matrix(2.291,0,0,2.291,-104.5081,-60.89706)" xmlns="http://www.w3.org/2000/svg" />
	<polygon id="A1235" points="266.4572 104.8995,275.8793 106.407,277.3869 99.37185,268.0904 96.98491" fill="#000000" stroke="none" stroke-opacity="0" transform="matrix(2.291,0,0,2.291,-104.5081,-60.89706)" xmlns="http://www.w3.org/2000/svg" />
	<polygon id="A1234" points="267.9648 96.98491,277.3869 99.37185,278.8944 95.10049,269.5979 91.83416" fill="#000000" stroke="none" stroke-opacity="0" transform="matrix(2.291,0,0,2.291,-104.5081,-60.89706)" xmlns="http://www.w3.org/2000/svg" />
	<polygon id="A1233" points="269.7236 91.70853,278.7688 94.97486,280.1507 90.32662,271.608 87.43717" fill="#000000" stroke="none" stroke-opacity="0" transform="matrix(2.291,0,0,2.291,-104.5081,-60.89706)" xmlns="http://www.w3.org/2000/svg" />
	<polygon id="A1252" points="363.4421 67.08542,360.6783 74.37185,354.7738 72.61304,357.1608 65.07536" fill="#000000" stroke="none" stroke-opacity="0" transform="matrix(2.291,0,0,2.291,-104.5081,-60.89706)" xmlns="http://www.w3.org/2000/svg" />
	<polygon id="A1251" points="350.2512 63.31657,349.1205 71.23115,354.7738 72.61304,357.1608 65.07536" fill="#000000" stroke="none" stroke-opacity="0" transform="matrix(2.291,0,0,2.291,-104.5081,-60.89706)" xmlns="http://www.w3.org/2000/svg" />
	<polygon id="A1250" points="343.9698 62.93969,343.9698 70.603,349.2462 71.10549,350.3769 63.31657" fill="#000000" stroke="none" stroke-opacity="0" transform="matrix(2.291,0,0,2.291,-104.5081,-60.89706)" xmlns="http://www.w3.org/2000/svg" />
	<polygon id="A1249" points="343.8442 63.06532,343.9698 70.35175,337.1859 70.47737,337.0602 63.06531" fill="#000000" stroke="none" stroke-opacity="0" transform="matrix(2.291,0,0,2.291,-104.5081,-60.89706)" xmlns="http://www.w3.org/2000/svg" />
	<polygon id="A1248" points="326.5075 61.30653,330.5276 73.2412,326.3819 74.74873,321.7337 63.19095" fill="#000000" stroke="none" stroke-opacity="0" transform="matrix(2.291,0,0,2.291,-104.5081,-60.89706)" xmlns="http://www.w3.org/2000/svg" />
	<polygon id="A1247" points="315.9547 66.08039,320.9799 76.88441,326.3819 74.74873,321.7337 63.19095" fill="#000000" stroke="none" stroke-opacity="0" transform="matrix(2.291,0,0,2.291,-104.5081,-60.89706)" xmlns="http://www.w3.org/2000/svg" />
	<polygon id="A1246" points="309.4221 69.59798,315.9547 79.39697,320.9799 76.75878,315.9548 66.33164" fill="#000000" stroke="none" stroke-opacity="0" transform="matrix(2.291,0,0,2.291,-104.5081,-60.89706)" xmlns="http://www.w3.org/2000/svg" />
	<polygon id="A1245" points="309.2964 69.72361,316.0804 79.5226,311.809 82.91457,303.6432 74.24622" fill="#000000" stroke="none" stroke-opacity="0" transform="matrix(2.291,0,0,2.291,-104.5081,-60.89706)" xmlns="http://www.w3.org/2000/svg" />
	<polygon id="A1244" points="303.6432 74.37185,298.4924 79.77386,307.6633 87.31155,311.6833 83.04019" fill="#000000" stroke="none" stroke-opacity="0" transform="matrix(2.291,0,0,2.291,-104.5081,-60.89706)" xmlns="http://www.w3.org/2000/svg" />
	<polygon id="A1243" points="294.221 85.05023,314.3216 98.24119,310.6783 104.1457,308.9196 110.3015,286.3065 105.1507,287.3115 99.49747,289.4472 94.22108,291.4572 89.8241" fill="#000000" stroke="none" stroke-opacity="0" transform="matrix(2.291,0,0,2.291,-104.5081,-60.89706)" xmlns="http://www.w3.org/2000/svg" />
	<polygon id="A1242" points="286.4321 105.0251,292.9648 106.5326,292.3367 113.5679,285.0502 113.6935" fill="#000000" stroke="none" stroke-opacity="0" transform="matrix(2.291,0,0,2.291,-104.5081,-60.89706)" xmlns="http://www.w3.org/2000/svg" />
	<polygon id="A1241" points="285.4271 113.1909,285.0502 120.3517,292.3366 120.4774,292.3366 113.1909" fill="#000000" stroke="none" stroke-opacity="0" transform="matrix(2.291,0,0,2.291,-104.5081,-60.89706)" xmlns="http://www.w3.org/2000/svg" />
	<polygon id="A1240" points="285.6783 127.1357,297.7386 125.2512,298.9949 130.7789,287.5628 134.5477" fill="#000000" stroke="none" stroke-opacity="0" transform="matrix(2.291,0,0,2.291,-104.5081,-60.89706)" xmlns="http://www.w3.org/2000/svg" />
	<polygon id="A1239" points="287.6884 134.4221,298.9949 130.7789,301.2563 136.0553,290.0753 141.0804" fill="#000000" stroke="none" stroke-opacity="0" transform="matrix(2.291,0,0,2.291,-104.5081,-60.89706)" xmlns="http://www.w3.org/2000/svg" />
	<polygon id="A1238" points="290.201 140.9548,301.2563 136.0553,304.1457 141.206,293.8442 147.613" fill="#000000" stroke="none" stroke-opacity="0" transform="matrix(2.291,0,0,2.291,-104.5081,-60.89706)" xmlns="http://www.w3.org/2000/svg" />
	<polygon id="A1237" points="293.9698 147.6131,297.9899 153.5176,304.397 149.1206,299.8743 143.7186" fill="#000000" stroke="none" stroke-opacity="0" transform="matrix(2.291,0,0,2.291,-104.5081,-60.89706)" xmlns="http://www.w3.org/2000/svg" />
	<polygon id="A1236" points="298.2412 153.5176,303.015 159.0452,308.1658 153.8945,304.3969 149.2462" fill="#000000" stroke="none" stroke-opacity="0" transform="matrix(2.291,0,0,2.291,-104.5081,-60.89706)" xmlns="http://www.w3.org/2000/svg" />
	<polygon id="A1253" points="354.8994 72.48743,360.5527 74.24622,358.6682 79.77385,361.3065 80.65326,358.5427 89.94974,349.623 87.18591,350.3769 83.54271,351.7587 83.91959" fill="#000000" stroke="none" stroke-opacity="0" transform="matrix(2.291,0,0,2.291,-104.5081,-60.89706)" xmlns="http://www.w3.org/2000/svg" />
	<polygon id="A1254" points="348.9949 71.10551,347.7386 83.16582,351.7588 83.91958,354.7739 72.61306" fill="#000000" stroke="none" stroke-opacity="0" transform="matrix(2.291,0,0,2.291,-104.5081,-60.89706)" xmlns="http://www.w3.org/2000/svg" />
	<polygon id="A1255" points="343.5929 70.603,342.9648 82.6633,347.7386 83.04019,348.8693 71.10551" fill="#000000" stroke="none" stroke-opacity="0" transform="matrix(2.291,0,0,2.291,-104.5081,-60.89706)" xmlns="http://www.w3.org/2000/svg" />
	<polygon id="A1256" points="337.3115 70.603,338.5678 83.16582,342.9648 82.6633,343.3417 70.47737" fill="#000000" stroke="none" stroke-opacity="0" transform="matrix(2.291,0,0,2.291,-104.5081,-60.89706)" xmlns="http://www.w3.org/2000/svg" />
	<polygon id="A1257" points="330.402 73.36682,333.5427 84.4221,330.2764 85.42712,326.1306 74.87436" fill="#000000" stroke="none" stroke-opacity="0" transform="matrix(2.291,0,0,2.291,-104.5081,-60.89706)" xmlns="http://www.w3.org/2000/svg" />
	<polygon id="A1258" points="320.7286 77.13567,326.8844 86.6834,330.2764 85.42712,326.1306 74.87436" fill="#000000" stroke="none" stroke-opacity="0" transform="matrix(2.291,0,0,2.291,-104.5081,-60.89706)" xmlns="http://www.w3.org/2000/svg" />
	<polygon id="A1259" points="315.8291 79.64824,322.8643 88.69346,326.7588 86.55777,320.7286 77.01004" fill="#000000" stroke="none" stroke-opacity="0" transform="matrix(2.291,0,0,2.291,-104.5081,-60.89706)" xmlns="http://www.w3.org/2000/svg" />
	<polygon id="A1260" points="311.6833 83.0402,319.0954 91.70853,322.7387 88.56782,315.8291 79.64822" fill="#000000" stroke="none" stroke-opacity="0" transform="matrix(2.291,0,0,2.291,-104.5081,-60.89706)" xmlns="http://www.w3.org/2000/svg" />
	<polygon id="A1261" points="307.7888 87.18593,316.3316 94.7236,319.0955 91.83414,311.9346 82.91455" fill="#000000" stroke="none" stroke-opacity="0" transform="matrix(2.291,0,0,2.291,-104.5081,-60.89706)" xmlns="http://www.w3.org/2000/svg" />
	<polygon id="A1262" points="297.8643 107.6633,309.0452 110.1759,308.7939 114.4472,297.2361 114.3216" fill="#000000" stroke="none" stroke-opacity="0" transform="matrix(2.291,0,0,2.291,-104.5081,-60.89706)" xmlns="http://www.w3.org/2000/svg" />
	<polygon id="A1263" points="297.2361 114.4472,308.7939 114.196,309.0452 119.598,297.4874 119.8492" fill="#000000" stroke="none" stroke-opacity="0" transform="matrix(2.291,0,0,2.291,-104.5081,-60.89706)" xmlns="http://www.w3.org/2000/svg" />
	<polygon id="A1264" points="297.613 125.2512,309.2964 123.2412,310.5527 127.7638,298.9949 130.7789" fill="#000000" stroke="none" stroke-opacity="0" transform="matrix(2.291,0,0,2.291,-104.5081,-60.89706)" xmlns="http://www.w3.org/2000/svg" />
	<polygon id="A1265" points="299.1206 130.6532,310.5527 127.7638,311.8091 131.5327,301.1306 135.9296" fill="#000000" stroke="none" stroke-opacity="0" transform="matrix(2.291,0,0,2.291,-104.5081,-60.89706)" xmlns="http://www.w3.org/2000/svg" />
	<polygon id="A1266" points="304.2714 141.3316,314.0703 135.3015,311.8091 131.5327,301.1306 135.9296" fill="#000000" stroke="none" stroke-opacity="0" transform="matrix(2.291,0,0,2.291,-104.5081,-60.89706)" xmlns="http://www.w3.org/2000/svg" />
	<polygon id="A1267" points="304.2714 141.3316,313.9447 135.3015,316.583 138.3166,308.1658 146.608" fill="#000000" stroke="none" stroke-opacity="0" transform="matrix(2.291,0,0,2.291,-104.5081,-60.89706)" xmlns="http://www.w3.org/2000/svg" />
	<polygon id="A1268" points="311.5578 150.5025,319.8492 141.8342,316.583 138.3166,308.1658 146.608" fill="#000000" stroke="none" stroke-opacity="0" transform="matrix(2.291,0,0,2.291,-104.5081,-60.89706)" xmlns="http://www.w3.org/2000/svg" />
		</svg>
