<?xml version="1.0" encoding="UTF-8" standalone="no"?>
<!-- Created with Inkscape (http://www.inkscape.org/) -->

<svg xmlns:dc="http://purl.org/dc/elements/1.1/" xmlns:cc="http://creativecommons.org/ns#" xmlns:rdf="http://www.w3.org/1999/02/22-rdf-syntax-ns#" xmlns:svg="http://www.w3.org/2000/svg" xmlns="http://www.w3.org/2000/svg" xmlns:xlink="http://www.w3.org/1999/xlink" xmlns:sodipodi="http://sodipodi.sourceforge.net/DTD/sodipodi-0.dtd" xmlns:inkscape="http://www.inkscape.org/namespaces/inkscape" width="770" height="250" id="svg2" version="1.1" inkscape:version="0.47pre4 " sodipodi:docname="test.svg" style="display:inline">
<defs id="defs4">
<inkscape:perspective sodipodi:type="inkscape:persp3d" inkscape:vp_x="0 : 526.18109 : 1" inkscape:vp_y="0 : 1000 : 0" inkscape:vp_z="744.09448 : 526.18109 : 1" inkscape:persp3d-origin="372.04724 : 350.78739 : 1" id="perspective10" />
<inkscape:perspective id="perspective2832" inkscape:persp3d-origin="0.5 : 0.33333333 : 1" inkscape:vp_z="1 : 0.5 : 1" inkscape:vp_y="0 : 1000 : 0" inkscape:vp_x="0 : 0.5 : 1" sodipodi:type="inkscape:persp3d" />
<script type="text/ecmascript" id="script6">
		var fdat="",sdat="";
		function onAreaOver(evt){
			var ele=evt.target; 
			fdat=ele.getAttribute('fill'); 
			sdat=ele.getAttribute('stroke');
			ele.setAttribute('fill','#006fb6');//多边形填充颜色
			ele.setAttribute('stroke','#006fb6');//stroke 多边形 边框颜色
			
		}
		function onAreaOut(evt){
			var ele=evt.target; 
			ele.setAttribute('fill',fdat);
			ele.setAttribute('stroke',sdat);
		}
		</script>
<symbol overflow="visible" id="symbol" style="overflow:visible">
<path d="m 626,156 2,-2 2,-4 0,-3 -1,-3 -4,-3 -6,-3 -5,-2 -4,-2 -4,8 -6,14" id="path9" style="fill:#000000;stroke:none" />
</symbol>
</defs>
<sodipodi:namedview id="base" pagecolor="#ffffff" bordercolor="#666666" borderopacity="1.0" inkscape:pageopacity="0.0" inkscape:pageshadow="2" inkscape:zoom="5.6" inkscape:cx="583.1007" inkscape:cy="273.63795" inkscape:document-units="px" inkscape:current-layer="svg2" showgrid="false" inkscape:window-width="1280" inkscape:window-height="740" inkscape:window-x="-4" inkscape:window-y="-4" inkscape:window-maximized="1" />
<metadata id="metadata7">
<rdf:RDF>
<cc:Work>
<dc:format>
image/svg+xml</dc:format>
<dc:type rdf:resource="http://purl.org/dc/dcmitype/StillImage" />
<dc:title>
</dc:title>
</cc:Work>
</rdf:RDF>
</metadata>
<image xlink:href="fuzhou_1n_gyl.jpg" width="770" height="250" id="image2834" x="-485" y="255.93361" transform="translate(485,-255.9336)" inkscape:label="Layer 1" inkscape:groupmode="layer" style="display:inline" />
<polygon id="N01" points="737 98.5,737 162.5,759 162.5,759 98.5" fill="#000000" stroke="none" stroke-opacity="0" />
<polygon id="N02" points="718 98,718 162,737 162,737 98" fill="#000000" stroke="none" stroke-opacity="0" />
<polygon id="N03,N04,N05" points="712 92,712 162.5,646 162.5,646 92" fill="#000000" stroke="none" stroke-opacity="0" />
<polygon id="N05上方扇形" points="657 80.5,676 77,688 77.5,701.5 81,701.5 91.5,690.5 89.5,675 89.5,658 92.5" fill="#000000" stroke="none" stroke-opacity="0" />
<polygon id="N06,N07,N08" points="569 98,569 162,641.5 162,641.5 98" fill="#000000" stroke="none" stroke-opacity="0" />
<polygon id="N09" points="538.5 99,538.5 162.5,564 162.5,564 99" fill="#000000" stroke="none" stroke-opacity="0" />
<polygon id="N10" points="511.5 99,511.5 162,537.5 162,537.5 99.5" fill="#000000" stroke="none" stroke-opacity="0" />
<polygon id="N11" points="484.5 99.5,484.5 161.5,510 161.5,510 99.5" fill="#000000" stroke="none" stroke-opacity="0" />
<polygon id="N12" points="483 100,483 161.5,456 161.5,456 99.5" fill="#000000" stroke="none" stroke-opacity="0" />
<polygon id="N13" points="454 99.5,454 162,429.5 162,429.5 99" fill="#000000" stroke="none" stroke-opacity="0" />
<polygon id="N14,N15,N16" points="371.5 165.5,371.5 190,397.5 190,397.5 165" fill="#000000" stroke="none" stroke-opacity="0" />
<polygon id="N17" points="313.5 97.5,313.5 160.5,338.5 160.5,338.5 98" fill="#000000" stroke="none" stroke-opacity="0" />
<polygon id="N18" points="312 98.5,312 161,286 161,285.5 99" fill="#000000" stroke="none" stroke-opacity="0" />
<polygon id="N19" points="260.5 98.5,261 161,285 160.5,284.5 98.5" fill="#000000" stroke="none" stroke-opacity="0" />
<polygon id="N20" points="254 98,253.5 162,231.5 162.5,231 98.5" fill="#000000" stroke="none" stroke-opacity="0" />
<polygon id="N21" points="227 98.5,227 161.5,204.5 162,204.5 98.5" fill="#000000" stroke="none" stroke-opacity="0" />
<polygon id="N22" points="177.5 98,177.5 162,200 162,201 98" fill="#000000" stroke="none" stroke-opacity="0" />
<polygon id="N23" points="151.5 98,151 162,174 162,174 98" fill="#000000" stroke="none" stroke-opacity="0" />
<polygon id="N24" points="127.5 98,127.5 162,147.5 162,147.5 98" fill="#000000" stroke="none" stroke-opacity="0" />
<polygon id="N25,N26,N27" points="56.5 95,56.5 161,122 161,122 94.5" fill="#000000" stroke="none" stroke-opacity="0" />
<polygon id="N28" points="32 98,32 162.5,51 162.5,51 98" fill="#000000" stroke="none" stroke-opacity="0" />
<polygon id="N29" points="11 98,11 161.5,30.5 161.5,30.5 98" fill="#000000" stroke="none" stroke-opacity="0" />
<polygon id="H1" points="268.5 72,287 70,301.5 66.5,316 61.5,316.5 89.5,308 89,298.5 87.5,286.5 89.5,278 87.5,268.5 87" fill="#000000" stroke="none" stroke-opacity="0" />
<polygon id="H2" points="452.5 66,452.5 88.5,461.5 88.5,470.5 88,483 90,494 88,502.5 88,513 90,512 79.5,502.5 75.5,491.5 74,479.5 73,466 70" fill="#000000" stroke="none" stroke-opacity="0" />
<polygon id="H3" points="68 82,68 90.5,73 92.5,80 90.5,89 89.5,97.5 90,106 92,110.5 90,110.5 80.5,101.5 78,93 77,84 77,75.5 79" fill="#000000" stroke="none" stroke-opacity="0" />
<polygon id="LED1" points="344.5 98,344.5 121.5,373 121.5,373 98.5" fill="#000000" stroke="none" stroke-opacity="0" />
<polygon id="LED4" points="344.5 121.5,344.5 139,373 139,373 121.5" fill="#000000" stroke="none" stroke-opacity="0" />
<polygon id="LED6" points="345 139,345 160.5,373 160.5,373 139" fill="#000000" stroke="none" stroke-opacity="0" />
<polygon id="LED3" points="397.5 98.5,397.5 121.5,425 121.5,425 98.5" fill="#000000" stroke="none" stroke-opacity="0" />
<polygon id="LED5" points="397.5 121.5,397.5 139,424.5 139,424.5 121.5" fill="#000000" stroke="none" stroke-opacity="0" />
<polygon id="LED8" points="397 139,397 160.5,425 160.5,425 139" fill="#000000" stroke="none" stroke-opacity="0" />
</svg>


