<?xml version="1.0" encoding="UTF-8" standalone="no"?>
<!-- Created with Inkscape (http://www.inkscape.org/) -->

<svg xmlns:dc="http://purl.org/dc/elements/1.1/" xmlns:cc="http://creativecommons.org/ns#" xmlns:rdf="http://www.w3.org/1999/02/22-rdf-syntax-ns#" xmlns:svg="http://www.w3.org/2000/svg" xmlns="http://www.w3.org/2000/svg" xmlns:xlink="http://www.w3.org/1999/xlink" xmlns:sodipodi="http://sodipodi.sourceforge.net/DTD/sodipodi-0.dtd" xmlns:inkscape="http://www.inkscape.org/namespaces/inkscape" width="770" height="250" id="svg2" version="1.1" inkscape:version="0.47pre4 " sodipodi:docname="test.svg" style="display:inline">
<defs id="defs4">
<inkscape:perspective sodipodi:type="inkscape:persp3d" inkscape:vp_x="0 : 526.18109 : 1" inkscape:vp_y="0 : 1000 : 0" inkscape:vp_z="744.09448 : 526.18109 : 1" inkscape:persp3d-origin="372.04724 : 350.78739 : 1" id="perspective10" />
<inkscape:perspective id="perspective2832" inkscape:persp3d-origin="0.5 : 0.33333333 : 1" inkscape:vp_z="1 : 0.5 : 1" inkscape:vp_y="0 : 1000 : 0" inkscape:vp_x="0 : 0.5 : 1" sodipodi:type="inkscape:persp3d" />
<script type="text/ecmascript" id="script6">
		var fdat="",sdat="";
		function onAreaOver(evt){
			var ele=evt.target; 
			fdat=ele.getAttribute('fill'); 
			sdat=ele.getAttribute('stroke');
			ele.setAttribute('fill','#006fb6');//多边形填充颜色
			ele.setAttribute('stroke','#006fb6');//stroke 多边形 边框颜色
			
		}
		function onAreaOut(evt){
			var ele=evt.target; 
			ele.setAttribute('fill',fdat);
			ele.setAttribute('stroke',sdat);
		}
		</script>
<symbol overflow="visible" id="symbol" style="overflow:visible">
<path d="m 626,156 2,-2 2,-4 0,-3 -1,-3 -4,-3 -6,-3 -5,-2 -4,-2 -4,8 -6,14" id="path9" style="fill:#000000;stroke:none" />
</symbol>
</defs>
<sodipodi:namedview id="base" pagecolor="#ffffff" bordercolor="#666666" borderopacity="1.0" inkscape:pageopacity="0.0" inkscape:pageshadow="2" inkscape:zoom="5.6" inkscape:cx="583.1007" inkscape:cy="273.63795" inkscape:document-units="px" inkscape:current-layer="svg2" showgrid="false" inkscape:window-width="1280" inkscape:window-height="740" inkscape:window-x="-4" inkscape:window-y="-4" inkscape:window-maximized="1" />
<metadata id="metadata7">
<rdf:RDF>
<cc:Work>
<dc:format>
image/svg+xml</dc:format>
<dc:type rdf:resource="http://purl.org/dc/dcmitype/StillImage" />
<dc:title>
</dc:title>
</cc:Work>
</rdf:RDF>
</metadata>
<image xlink:href="fuzhou_2s_kcl.jpg" width="770" height="250" id="image2834" x="-485" y="255.93361" transform="translate(485,-255.9336)" inkscape:label="Layer 1" inkscape:groupmode="layer" style="display:inline" />
<polygon id="S01,S02" points="702 50,702 122.5,750 122.5,750 49.5" fill="#000000" stroke="none" stroke-opacity="0" />
<polygon id="S03,S04,S05" points="606.5 50,606.5 122.5,673 122.5,673 49.5" fill="#000000" stroke="none" stroke-opacity="0" />
<polygon id="S06,S07,S08" points="577 50,577 122.5,511.5 122.5,511.5 50" fill="#000000" stroke="none" stroke-opacity="0" />
<polygon id="S09" points="464 49.5,464 123.5,482 123.5,482 50" fill="#000000" stroke="none" stroke-opacity="0" />
<polygon id="S10,S11,S12" points="389.5 50,389.5 122,459 122,459 50" fill="#000000" stroke="none" stroke-opacity="0" />
<polygon id="S13,S14,S15" points="326 50,326 122.5,389.5 122.5,389.5 50" fill="#000000" stroke="none" stroke-opacity="0" />
<polygon id="S16" points="302 50,302 122.5,322 122.5,322 50" fill="#000000" stroke="none" stroke-opacity="0" />
<polygon id="S17,S18,S19" points="207 50,207 123.5,273.5 123.5,273.5 50.5" fill="#000000" stroke="none" stroke-opacity="0" />
<polygon id="S20,S21,S22" points="112.5 50,112.5 122.5,179 122.5,179 50" fill="#000000" stroke="none" stroke-opacity="0" />
<polygon id="S23,S24,S25" points="16.5 50,16.5 122.5,82.5 122.5,82.5 50" fill="#000000" stroke="none" stroke-opacity="0" />
</svg>


