<?xml version="1.0" encoding="UTF-8" standalone="no"?>
<!-- Created with Inkscape (http://www.inkscape.org/) -->

<svg xmlns:dc="http://purl.org/dc/elements/1.1/" xmlns:cc="http://creativecommons.org/ns#" xmlns:rdf="http://www.w3.org/1999/02/22-rdf-syntax-ns#" xmlns:svg="http://www.w3.org/2000/svg" xmlns="http://www.w3.org/2000/svg" xmlns:xlink="http://www.w3.org/1999/xlink" xmlns:sodipodi="http://sodipodi.sourceforge.net/DTD/sodipodi-0.dtd" xmlns:inkscape="http://www.inkscape.org/namespaces/inkscape" width="770" height="410" id="svg2" version="1.1" inkscape:version="0.47pre4 " sodipodi:docname="test.svg" style="display:inline">
<defs id="defs4">
<inkscape:perspective sodipodi:type="inkscape:persp3d" inkscape:vp_x="0 : 526.18109 : 1" inkscape:vp_y="0 : 1000 : 0" inkscape:vp_z="744.09448 : 526.18109 : 1" inkscape:persp3d-origin="372.04724 : 350.78739 : 1" id="perspective10" />
<inkscape:perspective id="perspective2832" inkscape:persp3d-origin="0.5 : 0.33333333 : 1" inkscape:vp_z="1 : 0.5 : 1" inkscape:vp_y="0 : 1000 : 0" inkscape:vp_x="0 : 0.5 : 1" sodipodi:type="inkscape:persp3d" />
<script type="text/ecmascript" id="script6">
		var fdat="",sdat="";
		function onAreaOver(evt){
			var ele=evt.target; 
			fdat=ele.getAttribute('fill'); 
			sdat=ele.getAttribute('stroke');
			ele.setAttribute('fill','#006fb6');//多边形填充颜色
			ele.setAttribute('stroke','#006fb6');//stroke 多边形 边框颜色
			
		}
		function onAreaOut(evt){
			var ele=evt.target; 
			ele.setAttribute('fill',fdat);
			ele.setAttribute('stroke',sdat);
		}
		</script>
<symbol overflow="visible" id="symbol" style="overflow:visible" xmlns="http://www.w3.org/2000/svg">
<path d="m 626,156 2,-2 2,-4 0,-3 -1,-3 -4,-3 -6,-3 -5,-2 -4,-2 -4,8 -6,14" id="path9" style="fill:#000000;stroke:none" />
</symbol>
</defs>
<sodipodi:namedview id="base" pagecolor="#ffffff" bordercolor="#666666" borderopacity="1.0" inkscape:pageopacity="0.0" inkscape:pageshadow="2" inkscape:zoom="5.6" inkscape:cx="583.1007" inkscape:cy="273.63795" inkscape:document-units="px" inkscape:current-layer="svg2" showgrid="false" inkscape:window-width="1280" inkscape:window-height="740" inkscape:window-x="-4" inkscape:window-y="-4" inkscape:window-maximized="1" />
<metadata id="metadata7">
<rdf:RDF>
<cc:Work>
<dc:format>
image/svg+xml</dc:format>
<dc:type rdf:resource="http://purl.org/dc/dcmitype/StillImage" />
<dc:title>
</dc:title>
</cc:Work>
</rdf:RDF>
</metadata>
<image xlink:href="licang_ad.jpg" width="770" height="410" id="image2834" x="-485" y="255.93361" transform="translate(485,-255.9336)" inkscape:label="Layer 1" inkscape:groupmode="layer" style="display:inline" />
<polygon id="S01" points="151 38,151 73.5,178 73.5,178 38" fill="#000000" stroke="none" />
<polygon id="S02" points="240 38,240 73.5,267.5 73.5,267.5 38" fill="#000000" stroke="none" stroke-opacity="0" />
<polygon id="N01" points="580 37,580 73.5,608 73.5,608 37" fill="#000000" stroke="none" stroke-opacity="0" />
<polygon id="E01" points="27.5 186,27.5 211.5,57 211.5,57 185.5" fill="#000000" stroke="none" stroke-opacity="0" />
<polygon id="E02" points="141.5 176,141.5 209.5,166.5 209.5,166.5 176" fill="#000000" stroke="none" stroke-opacity="0" />
<polygon id="E03" points="245 176,245 209,270 209,270 176" fill="#000000" stroke="none" stroke-opacity="0" />
<polygon id="E04" points="517 176,517 209,542 209,542 176.5" fill="#000000" stroke="none" stroke-opacity="0" />
<polygon id="E05" points="620 176.5,620 210.5,645 210.5,645 176.5" fill="#000000" stroke="none" stroke-opacity="0" />
<polygon id="E06" points="709 185.5,709 210.5,738.5 210.5,738.5 185.5" fill="#000000" stroke="none" stroke-opacity="0" />
<polygon id="W01" points="32 319.5,32 347,63.5 347,63.5 319.5" fill="#000000" stroke="none" stroke-opacity="0" />
<polygon id="W02" points="125 313.5,125 346,149 346,149 313.5" fill="#000000" stroke="none" stroke-opacity="0" />
<polygon id="W03" points="225.5 313.5,225.5 346.5,250 346.5,250 313.5" fill="#000000" stroke="none" stroke-opacity="0" />
<polygon id="W04" points="509 313,509 346.5,533.5 346.5,533.5 313.5" fill="#000000" stroke="none" stroke-opacity="0" />
<polygon id="W05" points="610.5 312.5,610.5 345.5,633.5 345.5,633.5 312.5" fill="#000000" stroke="none" stroke-opacity="0" />
<polygon id="W06" points="703 322,703 347.5,732.5 347.5,732.5 322.5" fill="#000000" stroke="none" stroke-opacity="0" />

 
</svg>

