<?xml version="1.0" encoding="UTF-8" standalone="no"?>
<!-- Created with Inkscape (http://www.inkscape.org/) -->

<svg xmlns:dc="http://purl.org/dc/elements/1.1/" xmlns:cc="http://creativecommons.org/ns#" xmlns:rdf="http://www.w3.org/1999/02/22-rdf-syntax-ns#" xmlns:svg="http://www.w3.org/2000/svg" xmlns="http://www.w3.org/2000/svg" xmlns:xlink="http://www.w3.org/1999/xlink" xmlns:sodipodi="http://sodipodi.sourceforge.net/DTD/sodipodi-0.dtd" xmlns:inkscape="http://www.inkscape.org/namespaces/inkscape" width="770" height="260" id="svg2" version="1.1" inkscape:version="0.47pre4 " sodipodi:docname="test.svg" style="display:inline">
<defs id="defs4">
<inkscape:perspective sodipodi:type="inkscape:persp3d" inkscape:vp_x="0 : 526.18109 : 1" inkscape:vp_y="0 : 1000 : 0" inkscape:vp_z="744.09448 : 526.18109 : 1" inkscape:persp3d-origin="372.04724 : 350.78739 : 1" id="perspective10" />
<inkscape:perspective id="perspective2832" inkscape:persp3d-origin="0.5 : 0.33333333 : 1" inkscape:vp_z="1 : 0.5 : 1" inkscape:vp_y="0 : 1000 : 0" inkscape:vp_x="0 : 0.5 : 1" sodipodi:type="inkscape:persp3d" />
<script type="text/ecmascript" id="script6">
		var fdat="",sdat="";
		function onAreaOver(evt){
			var ele=evt.target; 
			fdat=ele.getAttribute('fill'); 
			sdat=ele.getAttribute('stroke');
			ele.setAttribute('fill','#006fb6');//多边形填充颜色
			ele.setAttribute('stroke','#006fb6');//stroke 多边形 边框颜色
			
		}
		function onAreaOut(evt){
			var ele=evt.target; 
			ele.setAttribute('fill',fdat);
			ele.setAttribute('stroke',sdat);
		}
		</script>
<symbol overflow="visible" id="symbol" style="overflow:visible" xmlns="http://www.w3.org/2000/svg">
<path d="m 626,156 2,-2 2,-4 0,-3 -1,-3 -4,-3 -6,-3 -5,-2 -4,-2 -4,8 -6,14" id="path9" style="fill:#000000;stroke:none" />
</symbol>
</defs>
<sodipodi:namedview id="base" pagecolor="#ffffff" bordercolor="#666666" borderopacity="1.0" inkscape:pageopacity="0.0" inkscape:pageshadow="2" inkscape:zoom="5.6" inkscape:cx="583.1007" inkscape:cy="273.63795" inkscape:document-units="px" inkscape:current-layer="svg2" showgrid="false" inkscape:window-width="1280" inkscape:window-height="740" inkscape:window-x="-4" inkscape:window-y="-4" inkscape:window-maximized="1" />
<metadata id="metadata7">
<rdf:RDF>
<cc:Work>
<dc:format>
image/svg+xml</dc:format>
<dc:type rdf:resource="http://purl.org/dc/dcmitype/StillImage" />
<dc:title>
</dc:title>
</cc:Work>
</rdf:RDF>
</metadata>
<image xlink:href="taian_b_2f_b5.png" width="770" height="260" id="image2834" x="-485" y="255.93361" transform="translate(485,-255.9336)" inkscape:label="Layer 1" inkscape:groupmode="layer" style="display:inline" />
<polygon id="B5-2024" points="666.5 55.5,611 56,611 138.5,637.5 138.5,642.5 146,652 157,662 164.5,674.5 171,689.5 173.5,701.5 173,713 170.5,724.5 165,736 156.5,744.5 144.5,750 133.5,752.5 122,753 109.5,751 97,744 83.5,735.5 72,724 63.5,711.5 58,698 55" fill="#000000" stroke="none" stroke-opacity="0" xmlns="http://www.w3.org/2000/svg" />
<polygon id="B5-2023" points="610.5 56.5,583.5 56.5,583.5 138,611 138" fill="#000000" stroke="none" stroke-opacity="0" xmlns="http://www.w3.org/2000/svg" />
<polygon id="B5-2022" points="584 56.5,556.5 56.5,556.5 137.5,584 137.5" fill="#000000" stroke="none" stroke-opacity="0" xmlns="http://www.w3.org/2000/svg" />
<polygon id="B5-2021" points="556.5 57,529.5 57,529.5 137.5,556.5 137.5" fill="#000000" stroke="none" stroke-opacity="0" xmlns="http://www.w3.org/2000/svg" />
<polygon id="B5-2020" points="530 57,501.5 57,501.5 137.5,530 137.5" fill="#000000" stroke="none" stroke-opacity="0" xmlns="http://www.w3.org/2000/svg" />
<polygon id="B5-2019" points="475 57,502 57,502 138,475 138" fill="#000000" stroke="none" stroke-opacity="0" xmlns="http://www.w3.org/2000/svg" />
<polygon id="B5-2018" points="475 57,447.5 57,447.5 137.5,475.5 137.5" fill="#000000" stroke="none" stroke-opacity="0" xmlns="http://www.w3.org/2000/svg" />
<polygon id="B5-2017" points="447.5 57,420.5 57,420.5 137.5,448 137.5" fill="#000000" stroke="none" stroke-opacity="0" xmlns="http://www.w3.org/2000/svg" />
<polygon id="B5-2016" points="420.5 56.5,393 56.5,393 137.5,421 137.5" fill="#000000" stroke="none" stroke-opacity="0" xmlns="http://www.w3.org/2000/svg" />
<polygon id="B5-2015" points="393.5 56.5,365 56.5,365 137.5,393 137.5" fill="#000000" stroke="none" stroke-opacity="0" xmlns="http://www.w3.org/2000/svg" />
<polygon id="B5-2014" points="365.5 56,339 56,339 137.5,365.5 137.5" fill="#000000" stroke="none" stroke-opacity="0" xmlns="http://www.w3.org/2000/svg" />
<polygon id="B5-2013" points="311.5 57,311.5 137.5,339 137.5,339 57" fill="#000000" stroke="none" stroke-opacity="0" xmlns="http://www.w3.org/2000/svg" />
<polygon id="B5-2012" points="312 56,285 56,285 137.5,311.5 137.5" fill="#000000" stroke="none" stroke-opacity="0" xmlns="http://www.w3.org/2000/svg" />
<polygon id="B5-2011" points="284.5 56.5,258 56.5,258 137.5,286 137.5" fill="#000000" stroke="none" stroke-opacity="0" xmlns="http://www.w3.org/2000/svg" />
<polygon id="B5-2010" points="258.5 57,230 57,230 137.5,258 137.5" fill="#000000" stroke="none" stroke-opacity="0" xmlns="http://www.w3.org/2000/svg" />
<polygon id="B5-2009" points="230.5 57,202.5 57,202.5 137.5,230 137.5" fill="#000000" stroke="none" stroke-opacity="0" xmlns="http://www.w3.org/2000/svg" />
<polygon id="B5-2008" points="203 57,176.5 57,176.5 137.5,203.5 137.5" fill="#000000" stroke="none" stroke-opacity="0" xmlns="http://www.w3.org/2000/svg" />
<polygon id="B5-2007" points="176.5 56.5,148.5 56.5,148.5 138.5,177.5 138.5" fill="#000000" stroke="none" stroke-opacity="0" xmlns="http://www.w3.org/2000/svg" />
<polygon id="B5-2006" points="148.5 56.5,121 56.5,121 137.5,148.5 137.5" fill="#000000" stroke="none" stroke-opacity="0" xmlns="http://www.w3.org/2000/svg" />
<polygon id="B5-2005" points="121 137,121 56,94 56,93.5 137.5" fill="#000000" stroke="none" stroke-opacity="0" xmlns="http://www.w3.org/2000/svg" />
<polygon id="B5-2004" points="94 56.5,67 56.5,67 138,93 138" fill="#000000" stroke="none" stroke-opacity="0" xmlns="http://www.w3.org/2000/svg" />
<polygon id="B5-2003" points="67 56.5,39.5 56.5,39.5 137.5,67.5 137.5" fill="#000000" stroke="none" stroke-opacity="0" xmlns="http://www.w3.org/2000/svg" />
<polygon id="B5-2002" points="40 137.5,40 191.5,68 191.5,68 245.5,122.5 245.5,122.5 138" fill="#000000" stroke="none" stroke-opacity="0" />
<polygon id="B5-2001" points="16.5 192.5,68 192.5,68 246.5,17.5 246.5" fill="#000000" stroke="none" stroke-opacity="0" />
</svg>
