<?xml version="1.0" encoding="UTF-8" standalone="no"?>
<!-- Created with Inkscape (http://www.inkscape.org/) -->

<svg xmlns:dc="http://purl.org/dc/elements/1.1/" xmlns:cc="http://creativecommons.org/ns#" xmlns:rdf="http://www.w3.org/1999/02/22-rdf-syntax-ns#" xmlns:svg="http://www.w3.org/2000/svg" xmlns="http://www.w3.org/2000/svg" xmlns:xlink="http://www.w3.org/1999/xlink" xmlns:sodipodi="http://sodipodi.sourceforge.net/DTD/sodipodi-0.dtd" xmlns:inkscape="http://www.inkscape.org/namespaces/inkscape" width="770" height="450" id="svg2" version="1.1" inkscape:version="0.47pre4 " sodipodi:docname="test.svg" style="display:inline">
<defs id="defs4">
<inkscape:perspective sodipodi:type="inkscape:persp3d" inkscape:vp_x="0 : 526.18109 : 1" inkscape:vp_y="0 : 1000 : 0" inkscape:vp_z="744.09448 : 526.18109 : 1" inkscape:persp3d-origin="372.04724 : 350.78739 : 1" id="perspective10" />
<inkscape:perspective id="perspective2832" inkscape:persp3d-origin="0.5 : 0.33333333 : 1" inkscape:vp_z="1 : 0.5 : 1" inkscape:vp_y="0 : 1000 : 0" inkscape:vp_x="0 : 0.5 : 1" sodipodi:type="inkscape:persp3d" />
<script type="text/ecmascript" id="script6">
		var fdat="",sdat="";
		function onAreaOver(evt){
			var ele=evt.target; 
			fdat=ele.getAttribute('fill'); 
			sdat=ele.getAttribute('stroke');
			ele.setAttribute('fill','#006fb6');//多边形填充颜色
			ele.setAttribute('stroke','#006fb6');//stroke 多边形 边框颜色
			
		}
		function onAreaOut(evt){
			var ele=evt.target; 
			ele.setAttribute('fill',fdat);
			ele.setAttribute('stroke',sdat);
		}
		</script>
<symbol overflow="visible" id="symbol" style="overflow:visible">
<path d="m 626,156 2,-2 2,-4 0,-3 -1,-3 -4,-3 -6,-3 -5,-2 -4,-2 -4,8 -6,14" id="path9" style="fill:#000000;stroke:none" />
</symbol>
</defs>
<sodipodi:namedview id="base" pagecolor="#ffffff" bordercolor="#666666" borderopacity="1.0" inkscape:pageopacity="0.0" inkscape:pageshadow="2" inkscape:zoom="5.6" inkscape:cx="583.1007" inkscape:cy="273.63795" inkscape:document-units="px" inkscape:current-layer="svg2" showgrid="false" inkscape:window-width="1280" inkscape:window-height="740" inkscape:window-x="-4" inkscape:window-y="-4" inkscape:window-maximized="1" />
<metadata id="metadata7">
<rdf:RDF>
<cc:Work>
<dc:format>
image/svg+xml</dc:format>
<dc:type rdf:resource="http://purl.org/dc/dcmitype/StillImage" />
<dc:title>
</dc:title>
</cc:Work>
</rdf:RDF>
</metadata>
<image xlink:href="taian_b_1f_b1_b3.png" width="770" height="450" id="image2834" x="-485" y="255.93361" transform="translate(485,-255.9336)" inkscape:label="Layer 1" inkscape:groupmode="layer" style="display:inline" />
<polygon id="B1-1001" points="20.5 413,77.5 413,77.5 390,20 390" fill="#000000" stroke="none" stroke-opacity="0" />
<polygon id="B1-1002" points="20.5 390,20.5 367.5,76.5 367.5,76.5 390.5" fill="#000000" stroke="none" stroke-opacity="0" />
<polygon id="B1-1003" points="77 367.5,77 344.5,20.5 344.5,20.5 368" fill="#000000" stroke="none" stroke-opacity="0" />
<polygon id="B1-1004" points="21 345,21 321,77 321,77 344.5" fill="#000000" stroke="none" stroke-opacity="0" />
<polygon id="B1-1005" points="21 321,20.5 299,77 299,77 321" fill="#000000" stroke="none" stroke-opacity="0" />
<polygon id="B1-1006" points="77 299,77 276.5,21 276.5,21 299.5" fill="#000000" stroke="none" stroke-opacity="0" />
<polygon id="B1-1007" points="21.5 277,21.5 252.5,77 252.5,77 276.5" fill="#000000" stroke="none" stroke-opacity="0" />
<polygon id="B1-1008" points="21 253,21 230.5,66 231,66 253" fill="#000000" stroke="none" stroke-opacity="0" />
<polygon id="B1-1009" points="66 231,66 208.5,21 208.5,21 230.5" fill="#000000" stroke="none" stroke-opacity="0" />
<polygon id="B1-1010" points="31.5 208,100.5 208,100.5 164.5,99 153.5,95 144,88 136,79.5 131,67 128.5,58 129,48 134,39.5 141.5,33 152.5,31.5 163.5" fill="#000000" stroke="none" stroke-opacity="0" />
<polygon id="B1-1011" points="203 25,203 92.5,171 92.5,161.5 91,153 87.5,142.5 80.5,136.5 68.5,136.5 53,142 38.5,153.5 29,162.5 25" fill="#000000" stroke="none" stroke-opacity="0" />
<polygon id="B1-1012" points="203.5 14,223.5 14,223.5 66,203.5 66" fill="#000000" stroke="none" stroke-opacity="0" />
<polygon id="B1-1013" points="223.5 14,223.5 66,243.5 66,243.5 14.5" fill="#000000" stroke="none" stroke-opacity="0" />
<polygon id="B1-1014" points="243 14.5,265 14.5,265 66,243.5 66" fill="#000000" stroke="none" stroke-opacity="0" />
<polygon id="B1-1015" points="265 14,286.5 14,286.5 66,264.5 66" fill="#000000" stroke="none" stroke-opacity="0" />
<polygon id="B1-1016" points="330.5 15,351.5 15,351.5 66.5,329.5 66.5" fill="#000000" stroke="none" stroke-opacity="0" />
<polygon id="B1-1017" points="351.5 14.5,373 14.5,373 66,352.5 66" fill="#000000" stroke="none" stroke-opacity="0" />
<polygon id="B1-1018" points="373 15,395.5 15,395.5 66,373.5 66" fill="#000000" stroke="none" stroke-opacity="0" />
<polygon id="B1-1019" points="395.5 15.5,416 15.5,416 66,395 66" fill="#000000" stroke="none" stroke-opacity="0" />
<polygon id="B1-1020" points="416 14.5,438.5 14.5,438.5 65.5,415.5 65.5" fill="#000000" stroke="none" stroke-opacity="0" />
<polygon id="B1-1021" points="438.5 14.5,460 14.5,460 65.5,437.5 65.5" fill="#000000" stroke="none" stroke-opacity="0" />
<polygon id="B1-1022" points="460.5 14.5,480.5 14.5,480.5 66,460 66" fill="#000000" stroke="none" stroke-opacity="0" />
<polygon id="B1-1023" points="481.5 15,502.5 15,502.5 66,480.5 66" fill="#000000" stroke="none" stroke-opacity="0" />
<polygon id="B1-1024" points="502 14.5,525 14.5,525 66,502.5 66" fill="#000000" stroke="none" stroke-opacity="0" />
<polygon id="B1-1025" points="525 15,546.5 15,546.5 66.5,524.5 66.5" fill="#000000" stroke="none" stroke-opacity="0" />
<polygon id="B1-1026" points="547 14.5,568.5 14.5,568.5 66.5,546 66.5" fill="#000000" stroke="none" stroke-opacity="0" />
<polygon id="B1-1027" points="568.5 14.5,590 14.5,590 66,568.5 66" fill="#000000" stroke="none" stroke-opacity="0" />
<polygon id="B1-1028" points="590 94.5,614.5 94.5,614.5 139.5,592 139.5" fill="#000000" stroke="none" stroke-opacity="0" />
<polygon id="B1-1029" points="615 94.5,635 94.5,635 139,614.5 139" fill="#000000" stroke="none" stroke-opacity="0" />
<polygon id="B1-1030" points="635 138.5,635 184.5,659 184.5,659 139.5" fill="#000000" stroke="none" stroke-opacity="0" />
<polygon id="B1-1031" points="659 139,680.5 139,680.5 184.5,658 184.5" fill="#000000" stroke="none" stroke-opacity="0" />
<polygon id="B1-1032" points="681 140,702.5 140,702.5 185.5,680 185.5" fill="#000000" stroke="none" stroke-opacity="0" />
<polygon id="B1-1033" points="703 140,724.5 140,724.5 184,702.5 184" fill="#000000" stroke="none" stroke-opacity="0" />
<polygon id="B1-1034" points="703 185,727.5 185,727.5 231.5,702 231.5" fill="#000000" stroke="none" stroke-opacity="0" />
<polygon id="B1-1035" points="703 185,680.5 185,680.5 230.5,701.5 230.5" fill="#000000" stroke="none" stroke-opacity="0" />
<polygon id="B1-1036" points="680.5 185,658.5 185,658.5 232,680 232" fill="#000000" stroke="none" stroke-opacity="0" />
<polygon id="B1-1037" points="658.5 184.5,634 184.5,634 232,659 232" fill="#000000" stroke="none" stroke-opacity="0" />
<polygon id="B1-1038" points="612.5 163.5,636 163.5,636 206,614 206" fill="#000000" stroke="none" stroke-opacity="0" />
<polygon id="B1-1039" points="612.5 163.5,591.5 163.5,591.5 206.5,613.5 206.5" fill="#000000" stroke="none" stroke-opacity="0" />
<polygon id="B1-1040" points="591.5 163.5,635.5 163.5,635.5 139,592 139" fill="#000000" stroke="none" stroke-opacity="0" />
<polygon id="B1-1041" points="590 66,590 127,568.5 127,568.5 66.5" fill="#000000" stroke="none" stroke-opacity="0" />
<polygon id="B1-1042" points="568 66.5,546 66.5,546 128,569 128" fill="#000000" stroke="none" stroke-opacity="0" />
<polygon id="B1-1043" points="546 66,502 66,502 127,531 127,531 84,546 84" fill="#000000" stroke="none" stroke-opacity="0" />
<polygon id="B1-1044" points="480.5 66,480.5 127.5,502.5 127.5,502.5 65.5" fill="#000000" stroke="none" stroke-opacity="0" />
<polygon id="B1-1045" points="480.5 66,459.5 66,459.5 126.5,480.5 126.5" fill="#000000" stroke="none" stroke-opacity="0" />
<polygon id="B1-1046" points="438 66,437 127.5,459.5 127.5,459.5 66" fill="#000000" stroke="none" stroke-opacity="0" />
<polygon id="B1-1047" points="416 66,437.5 66,437.5 127.5,416 127.5" fill="#000000" stroke="none" stroke-opacity="0" />
<polygon id="B1-1048" points="395 66,395 127.5,416 127.5,416 65.5" fill="#000000" stroke="none" stroke-opacity="0" />
<polygon id="B1-1049" points="373.5 66.5,373.5 126,394.5 126,394.5 66" fill="#000000" stroke="none" stroke-opacity="0" />
<polygon id="B1-1050" points="351.5 66.5,373.5 66.5,373.5 109.5,352 109.5" fill="#000000" stroke="none" stroke-opacity="0" />
<polygon id="B1-1051" points="330.5 66.5,330.5 109.5,352 109.5,352 66" fill="#000000" stroke="none" stroke-opacity="0" />
<polygon id="B1-1052" points="286 65.5,286 110.5,264.5 110.5,264.5 65.5" fill="#000000" stroke="none" stroke-opacity="0" />
<polygon id="B1-1053" points="264.5 65.5,264.5 110,243 110,243 66" fill="#000000" stroke="none" stroke-opacity="0" />
<polygon id="B1-1054" points="243.5 65.5,243.5 110,223 110,223 66" fill="#000000" stroke="none" stroke-opacity="0" />
<polygon id="B1-1055" points="203 66,223.5 66,223.5 110,203.5 110" fill="#000000" stroke="none" stroke-opacity="0" />
<polygon id="B1-1056" points="66 208,110.5 208.5,110.5 231,66.5 231" fill="#000000" stroke="none" stroke-opacity="0" />
<polygon id="B1-1057" points="66.5 230.5,110.5 230.5,110.5 253,66 253" fill="#000000" stroke="none" stroke-opacity="0" />
<polygon id="B1-1056" points="77.5 253,111 253,111 276.5,77 276.5" fill="#000000" stroke="none" stroke-opacity="0" />
<polygon id="B1-1059" points="77.5 276.5,111 276.5,111 299,76.5 299" fill="#000000" stroke="none" stroke-opacity="0" />
<polygon id="B1-1060" points="77.5 299,133.5 299,133.5 322.5,77 322.5" fill="#000000" stroke="none" stroke-opacity="0" />
<polygon id="B1-1061" points="77.5 322.5,132 322.5,132 345,77 345" fill="#000000" stroke="none" stroke-opacity="0" />
<polygon id="B1-1062" points="77.5 345,133.5 345,133.5 367.5,77 367.5" fill="#000000" stroke="none" stroke-opacity="0" />
<polygon id="B1-1063" points="77.5 368,133.5 368,133.5 390,77.5 390" fill="#000000" stroke="none" stroke-opacity="0" />
<polygon id="B1-1064" points="77.5 390,134.5 390,134.5 413.5,77 413.5" fill="#000000" stroke="none" stroke-opacity="0" />
<polygon id="B3-1001" points="275 189,358 189,394 225,385.5 233,385.5 347,203 347,203 260" fill="#000000" stroke="none" stroke-opacity="0" />
<polygon id="B3-1002" points="394 225,385.5 233,385.5 279,430 279,430 260.5" fill="#000000" stroke="none" stroke-opacity="0" />
<polygon id="B3-1003" points="385.5 279,430.5 279,430.5 301.5,385 301.5" fill="#000000" stroke="none" stroke-opacity="0" />
<polygon id="B3-1004" points="385.5 301.5,430.5 301.5,430.5 325.5,386 325.5" fill="#000000" stroke="none" stroke-opacity="0" />
<polygon id="B3-1005" points="386 325,429.5 325,429.5 347.5,386 347.5" fill="#000000" stroke="none" stroke-opacity="0" />
<polygon id="B3-1006" points="453.5 279.5,498.5 279.5,498.5 303,453.5 303" fill="#000000" stroke="none" stroke-opacity="0" />
<polygon id="B3-1007" points="453.5 303,498.5 303,498.5 326,453.5 326" fill="#000000" stroke="none" stroke-opacity="0" />
<polygon id="B3-1008" points="498.5 279.5,521.5 279.5,521.5 325.5,498 325.5" fill="#000000" stroke="none" stroke-opacity="0" />
<polygon id="B3-1009" points="521.5 279.5,544.5 279.5,544.5 348,522 348" fill="#000000" stroke="none" stroke-opacity="0" />
<polygon id="B3-1010" points="544.5 279.5,567.5 279.5,567.5 347.5,544.5 347.5" fill="#000000" stroke="none" stroke-opacity="0" />
<polygon id="B3-1011" points="567.5 279,589.5 279,589.5 348,567.5 348" fill="#000000" stroke="none" stroke-opacity="0" xmlns="http://www.w3.org/2000/svg" />
<polygon id="B3-1012" points="590 279.5,613 279.5,613 347.5,589 347.5" fill="#000000" stroke="none" stroke-opacity="0" xmlns="http://www.w3.org/2000/svg" />
<polygon id="B3-1013" points="612.5 279.5,635 279.5,635 348,612.5 348" fill="#000000" stroke="none" stroke-opacity="0" xmlns="http://www.w3.org/2000/svg" />
<polygon id="B3-1014" points="635 279.5,658.5 279.5,658.5 347.5,635.5 347.5" fill="#000000" stroke="none" stroke-opacity="0" xmlns="http://www.w3.org/2000/svg" />
<polygon id="B3-1015" points="634.5 347.5,658.5 347.5,658.5 370,667 373.5,676 380.5,680 388.5,680.5 396.5,678.5 404,674 409.5,666.5 414.5,657.5 416,635 416.5" fill="#000000" stroke="none" stroke-opacity="0" xmlns="http://www.w3.org/2000/svg" />
<polygon id="B3-1016" points="635 347.5,635 415.5,613.5 415.5,613.5 347.5" fill="#000000" stroke="none" stroke-opacity="0" xmlns="http://www.w3.org/2000/svg" />
<polygon id="B3-1017" points="589.5 348.5,589.5 416,612.5 416,612.5 347.5" fill="#000000" stroke="none" stroke-opacity="0" xmlns="http://www.w3.org/2000/svg" />
<polygon id="B3-1018" points="589 348,589 416,566.5 416,566.5 348" fill="#000000" stroke="none" stroke-opacity="0" xmlns="http://www.w3.org/2000/svg" />
<polygon id="B3-1019" points="567 371,533 371,533 416,566.5 416" fill="#000000" stroke="none" stroke-opacity="0" xmlns="http://www.w3.org/2000/svg" />
<polygon id="B3-1020" points="499 347.5,521.5 347.5,521.5 416.5,498 416.5" fill="#000000" stroke="none" stroke-opacity="0" xmlns="http://www.w3.org/2000/svg" />
<polygon id="B3-1021" points="498 348,498 416.5,475.5 416.5,475.5 347.5" fill="#000000" stroke="none" stroke-opacity="0" xmlns="http://www.w3.org/2000/svg" />
<polygon id="B3-1022" points="476 348.5,453.5 348.5,453.5 415.5,475 415.5" fill="#000000" stroke="none" stroke-opacity="0" xmlns="http://www.w3.org/2000/svg" />
<polygon id="B3-1023" points="431.5 347.5,407 347.5,407 416,431 416" fill="#000000" stroke="none" stroke-opacity="0" xmlns="http://www.w3.org/2000/svg" />
<polygon id="B3-1024" points="385 347,407 347,407 416,383.5 416" fill="#000000" stroke="none" stroke-opacity="0" xmlns="http://www.w3.org/2000/svg" />
<polygon id="B3-1025" points="385 370.5,350.5 370.5,350.5 416,383.5 416" fill="#000000" stroke="none" stroke-opacity="0" xmlns="http://www.w3.org/2000/svg" />
<polygon id="B3-1026" points="339.5 347.5,339.5 416,315.5 416,315.5 347" fill="#000000" stroke="none" stroke-opacity="0" xmlns="http://www.w3.org/2000/svg" />
<polygon id="B3-1027" points="293.5 347.5,293.5 402,315.5 402,315.5 346.5" fill="#000000" stroke="none" stroke-opacity="0" xmlns="http://www.w3.org/2000/svg" />
<polygon id="B3-1028" points="270.5 347.5,293.5 347.5,293.5 402,271 402" fill="#000000" stroke="none" stroke-opacity="0" xmlns="http://www.w3.org/2000/svg" />
<polygon id="B3-1029" points="248 347.5,271 347.5,271 402.5,247 402.5" fill="#000000" stroke="none" stroke-opacity="0" xmlns="http://www.w3.org/2000/svg" />
<polygon id="B3-1030" points="224.5 348,248 348,248 402.5,224.5 402.5" fill="#000000" stroke="none" stroke-opacity="0" xmlns="http://www.w3.org/2000/svg" />
<polygon id="B3-1031" points="201.5 348,224.5 348,224.5 402.5,203 402.5" fill="#000000" stroke="none" stroke-opacity="0" xmlns="http://www.w3.org/2000/svg" />
</svg>
