<?xml version="1.0" encoding="UTF-8" standalone="no"?>
<!-- Created with Inkscape (http://www.inkscape.org/) -->

<svg xmlns:dc="http://purl.org/dc/elements/1.1/" xmlns:cc="http://creativecommons.org/ns#" xmlns:rdf="http://www.w3.org/1999/02/22-rdf-syntax-ns#" xmlns:svg="http://www.w3.org/2000/svg" xmlns="http://www.w3.org/2000/svg" xmlns:xlink="http://www.w3.org/1999/xlink" xmlns:sodipodi="http://sodipodi.sourceforge.net/DTD/sodipodi-0.dtd" xmlns:inkscape="http://www.inkscape.org/namespaces/inkscape" width="770" height="650" id="svg2" version="1.1" inkscape:version="0.47pre4 " sodipodi:docname="test.svg" style="display:inline">
<defs id="defs4">
<inkscape:perspective sodipodi:type="inkscape:persp3d" inkscape:vp_x="0 : 526.18109 : 1" inkscape:vp_y="0 : 1000 : 0" inkscape:vp_z="744.09448 : 526.18109 : 1" inkscape:persp3d-origin="372.04724 : 350.78739 : 1" id="perspective10" />
<inkscape:perspective id="perspective2832" inkscape:persp3d-origin="0.5 : 0.33333333 : 1" inkscape:vp_z="1 : 0.5 : 1" inkscape:vp_y="0 : 1000 : 0" inkscape:vp_x="0 : 0.5 : 1" sodipodi:type="inkscape:persp3d" />
<script type="text/ecmascript" id="script6">
		var fdat="",sdat="";
		function onAreaOver(evt){
			var ele=evt.target; 
			fdat=ele.getAttribute('fill'); 
			sdat=ele.getAttribute('stroke');
			ele.setAttribute('fill','#006fb6');//多边形填充颜色
			ele.setAttribute('stroke','#006fb6');//stroke 多边形 边框颜色
			
		}
		function onAreaOut(evt){
			var ele=evt.target; 
			ele.setAttribute('fill',fdat);
			ele.setAttribute('stroke',sdat);
		}
		</script>
<symbol overflow="visible" id="symbol" style="overflow:visible">
<path d="m 626,156 2,-2 2,-4 0,-3 -1,-3 -4,-3 -6,-3 -5,-2 -4,-2 -4,8 -6,14" id="path9" style="fill:#000000;stroke:none" />
</symbol>
</defs>
<sodipodi:namedview id="base" pagecolor="#ffffff" bordercolor="#666666" borderopacity="1.0" inkscape:pageopacity="0.0" inkscape:pageshadow="2" inkscape:zoom="5.6" inkscape:cx="583.1007" inkscape:cy="273.63795" inkscape:document-units="px" inkscape:current-layer="svg2" showgrid="false" inkscape:window-width="1280" inkscape:window-height="740" inkscape:window-x="-4" inkscape:window-y="-4" inkscape:window-maximized="1" />
<metadata id="metadata7">
<rdf:RDF>
<cc:Work>
<dc:format>
image/svg+xml</dc:format>
<dc:type rdf:resource="http://purl.org/dc/dcmitype/StillImage" />
<dc:title>
</dc:title>
</cc:Work>
</rdf:RDF>
</metadata>
<image xlink:href="taian_b_1f_b6_b7.png" width="770" height="650" id="image2834" x="-485" y="255.93361" transform="translate(485,-255.9336)" inkscape:label="Layer 1" inkscape:groupmode="layer" style="display:inline" />
<polygon id="B6-1001" points="182.5 494,235.5 494,235.5 477,182.5 477" fill="#000000" stroke="none" stroke-opacity="0" />
<polygon id="B6-1002" points="183 477,183 459,235 459,235 477" fill="#000000" stroke="none" stroke-opacity="0" />
<polygon id="B6-1003" points="183 459.5,183 441.5,235.5 441.5,235.5 459.5" fill="#000000" stroke="none" stroke-opacity="0" />
<polygon id="B6-1004" points="183 441.5,183 424.5,235.5 424.5,235.5 442" fill="#000000" stroke="none" stroke-opacity="0" />
<polygon id="B6-1005" points="183 425,183 407,235 407,235 425" fill="#000000" stroke="none" stroke-opacity="0" />
<polygon id="B6-1006" points="183 407,183 382.5,218 382.5,218 407" fill="#000000" stroke="none" stroke-opacity="0" />
<polygon id="B6-1007" points="183 372.5,235.5 372.5,235.5 355.5,182.5 355.5" fill="#000000" stroke="none" stroke-opacity="0" />
<polygon id="B6-1008" points="183 355.5,183 337.5,236 337.5,236 355" fill="#000000" stroke="none" stroke-opacity="0" />
<polygon id="B6-1009" points="181.5 269.5,181.5 251,235.5 251,235.5 270" fill="#000000" stroke="none" stroke-opacity="0" />
<polygon id="B6-1010" points="182 251,182 234,235.5 234,235.5 251.5" fill="#000000" stroke="none" stroke-opacity="0" />
<polygon id="B6-1011" points="182.5 234,182.5 209.5,235 209.5,235 234" fill="#000000" stroke="none" stroke-opacity="0" />
<polygon id="B6-1012" points="193 199,193 165.5,235.5 165.5,235.5 200.5" fill="#000000" stroke="none" stroke-opacity="0" />
<polygon id="B6-1013" points="193.5 165,193.5 140,235 140,235 166" fill="#000000" stroke="none" stroke-opacity="0" />
<polygon id="B6-1014" points="184 131.5,235 131.5,235 60.5,218 60.5,183 95" fill="#000000" stroke="none" stroke-opacity="0" />
<polygon id="B6-1015" points="235.5 61.5,252.5 61.5,252.5 131,235 131" fill="#000000" stroke="none" stroke-opacity="0" />
<polygon id="B6-1016" points="252 61,270 61,270 132.5,252 132.5" fill="#000000" stroke="none" stroke-opacity="0" />
<polygon id="B6-1017" points="270 61,270 113.5,286.5 113.5,286.5 61" fill="#000000" stroke="none" stroke-opacity="0" />
<polygon id="B6-1018" points="286.5 61,286.5 113,304 113,304 60.5" fill="#000000" stroke="none" stroke-opacity="0" />
<polygon id="B6-1019" points="304 61,321.5 61,321.5 114,303.5 114" fill="#000000" stroke="none" stroke-opacity="0" />
<polygon id="B6-1020" points="321.5 61.5,339.5 61.5,339.5 114,322 114" fill="#000000" stroke="none" stroke-opacity="0" />
<polygon id="B6-1021" points="339 61,356.5 61,356.5 114,339 114" fill="#000000" stroke="none" stroke-opacity="0" />
<polygon id="B6-1022" points="356.5 61,373 61,373 114,356.5 114" fill="#000000" stroke="none" stroke-opacity="0" />
<polygon id="B6-1023" points="373 61.5,390.5 61.5,390.5 114.5,373 114.5" fill="#000000" stroke="none" stroke-opacity="0" />
<polygon id="B6-1024" points="390 61,407.5 61,407.5 114.5,390 114.5" fill="#000000" stroke="none" stroke-opacity="0" />
<polygon id="B6-1025" points="407.5 61,426.5 61,426.5 114,406.5 114" fill="#000000" stroke="none" stroke-opacity="0" />
<polygon id="B6-1026" points="434.5 71.5,434.5 104.5,460 104.5,460 71" fill="#000000" stroke="none" stroke-opacity="0" />
<polygon id="B6-1027" points="460.5 71.5,460.5 113.5,477 113.5,477 71" fill="#000000" stroke="none" stroke-opacity="0" />
<polygon id="B6-1028" points="477 71,495 71,495 113.5,477 113.5" fill="#000000" stroke="none" stroke-opacity="0" />
<polygon id="B6-1029" points="495 71.5,511.5 71.5,511.5 114,494 114" fill="#000000" stroke="none" stroke-opacity="0" />
<polygon id="B6-1030" points="512 71,529.5 71,529.5 113,511.5 113" fill="#000000" stroke="none" stroke-opacity="0" />
<polygon id="B6-1031" points="477 113,477 139,494.5 139,494.5 131,529.5 131,529.5 112" fill="#000000" stroke="none" stroke-opacity="0" />
<polygon id="B6-1032" points="495 131,530 131,530 166,495 166" fill="#000000" stroke="none" stroke-opacity="0" />
<polygon id="B6-1033-1" points="299 113.5,459.5 113.5,459.5 139,494.5 139,494.5 511.5,442.5 511.5,442.5 547,374 547,374 510.5,320 510.5,320 547.5,286 547.5,287.5 511,234.5 511,234.5 337,200.5 337,200.5 269.5,235.5 269.5,235.5 167,270.5 167,271 113.5" fill="#000000" stroke="none" stroke-opacity="0" />
<polygon id="B6-1033-2" points="494.5 199,547 199,547 164.5,701.5 164.5,701.5 200,738 200,738 269,701 269,701 304.5,736.5 304.5,736.5 529.5,701.5 529.5,701.5 546.5,494.5 546.5" fill="#000000" stroke="none" stroke-opacity="0" />
<polygon id="B6-1034" points="701.5 165.5,701.5 199.5,719.5 199.5,719.5 165.5" fill="#000000" stroke="none" stroke-opacity="0" />
<polygon id="B6-1035" points="719 165.5,738.5 165.5,738.5 199.5,719.5 199.5" fill="#000000" stroke="none" stroke-opacity="0" />
<polygon id="B7-1001" points="164.5 494,164.5 528.5,180 528.5,180 546.5,166 546.5,166 599,131.5 633,62 633,28 599,28 526.5,61 493" fill="#000000" stroke="none" stroke-opacity="0" />
<polygon id="B7-1002" points="26.75 443.5,26.75 424.5,62.75 424.5,62.75 443.5" fill="#000000" stroke="none" stroke-opacity="0" />
<polygon id="B7-1003" points="27 424.5,27 407,62.75 407,62.75 424.5" fill="#000000" stroke="none" stroke-opacity="0" />
<polygon id="B7-1004" points="44.75 407,44.75 390.25,88.25 390.25,88.25 407.75" fill="#000000" stroke="none" stroke-opacity="0" />
<polygon id="B7-1005" points="45 390.25,45 372.75,88 372.75,88 390.25" fill="#000000" stroke="none" stroke-opacity="0" />
<polygon id="B7-1006" points="88 372.5,88 355,62.5 355.25,45.25 373" fill="#000000" stroke="none" stroke-opacity="0" />
<polygon id="B7-1007" points="62.5 355,62.5 337,88 337,88 355" fill="#000000" stroke="none" stroke-opacity="0" />
<polygon id="B7-1008" points="62.25 270.25,62.25 251.75,88 251.75,88 269.75" fill="#000000" stroke="none" stroke-opacity="0" />
<polygon id="B7-1009" points="62.25 251.75,88 251.75,88 233.75,44 233.75" fill="#000000" stroke="none" stroke-opacity="0" />
<polygon id="B7-1010" points="44.5 234,44.5 216.5,88.25 216.5,88.25 233.5" fill="#000000" stroke="none" stroke-opacity="0" />
<polygon id="B7-1011" points="44.5 199.5,88 199.5,88 216.5,44.75 216.5" fill="#000000" stroke="none" stroke-opacity="0" />
<polygon id="B7-1012" points="44.75 199.75,44.75 182.25,88.25 182.25,88.25 199.5" fill="#000000" stroke="none" stroke-opacity="0" />
<polygon id="B7-1013" points="88 182.25,88 164.5,44.75 164.5,44.75 182.5" fill="#000000" stroke="none" stroke-opacity="0" />
<polygon id="B7-1014" points="45 164.5,45 147,88 147,88 164.75" fill="#000000" stroke="none" stroke-opacity="0" />
<polygon id="B7-1015" points="87.75 147.25,87.75 129.75,45.25 129.75,45.25 146.75" fill="#000000" stroke="none" stroke-opacity="0" />
<polygon id="B7-1016" points="45.25 129.75,45.25 113,88 113,88 129.75" fill="#000000" stroke="none" stroke-opacity="0" />
<polygon id="B7-1017" points="45.5 113.25,45.5 95,88.5 95,88.5 113.25" fill="#000000" stroke="none" stroke-opacity="0" />
<polygon id="B7-1018" points="97 77.5,131.75 77.5,131.75 95,96.5 95" fill="#000000" stroke="none" stroke-opacity="0" />
<polygon id="B7-1019" points="88.5 95,131.75 95,131.75 113,88 113" fill="#000000" stroke="none" stroke-opacity="0" />
<polygon id="B7-1020" points="88.5 112.75,132 112.75,132 130.75,88 130.75" fill="#000000" stroke="none" stroke-opacity="0" />
<polygon id="B7-1021" points="88 130.75,131.5 130.75,131.5 147.75,88 147.75" fill="#000000" stroke="none" stroke-opacity="0" />
<polygon id="B7-1022" points="87.75 147.5,131.75 147.5,131.75 165.5,87.5 165.5" fill="#000000" stroke="none" stroke-opacity="0" />
<polygon id="B7-1023" points="131.75 165,131.75 182.25,88 182.25,88 165.25" fill="#000000" stroke="none" stroke-opacity="0" />
<polygon id="B7-1024" points="88.25 182.25,115.25 182.25,115.25 199.75,88 199.75" fill="#000000" stroke="none" stroke-opacity="0" />
<polygon id="B7-1025" points="88 199.75,115 199.75,115 217,88 217" fill="#000000" stroke="none" stroke-opacity="0" />
<polygon id="B7-1026" points="88.25 216.75,115 216.75,115 234.5,88 234.5" fill="#000000" stroke="none" stroke-opacity="0" />
<polygon id="B7-1027" points="88.25 251.5,114.75 251.5,114.75 270,87.75 270" fill="#000000" stroke="none" stroke-opacity="0" />
<polygon id="B7-1028" points="88 337,115 337,115 355.25,87.75 355.25" fill="#000000" stroke="none" stroke-opacity="0" />
<polygon id="B7-1029" points="88 355,115 355,115 372.75,87.75 372.75" fill="#000000" stroke="none" stroke-opacity="0" />
<polygon id="B7-1030" points="88 372.75,114.75 372.75,114.75 390,87.75 390" fill="#000000" stroke="none" stroke-opacity="0" />
<polygon id="B7-1031" points="88.25 390,115 390,115 407.5,88.25 407.5" fill="#000000" stroke="none" stroke-opacity="0" />
<polygon id="B7-1032" points="97.25 407.5,97.25 443.25,132.75 443.25,132.75 425,114.75 425,114.75 407.25" fill="#000000" stroke="none" stroke-opacity="0" />
<polygon id="B7-1033" points="79.75 407,79.75 443,97.25 443,97.25 407.5" fill="#000000" stroke="none" stroke-opacity="0" />
<polygon id="B7-1034" points="62.75 407.25,79.75 407.25,79.75 443.25,62.5 443.25" fill="#000000" stroke="none" stroke-opacity="0" />
<polygon id="B7-1035" points="79.5 16.5,131.75 16.5,131.75 34.25,79.25 34.25" fill="#000000" stroke="none" stroke-opacity="0" />
</svg>
