<?xml version="1.0" encoding="UTF-8" standalone="no"?>
<!-- Created with Inkscape (http://www.inkscape.org/) -->

<svg xmlns:dc="http://purl.org/dc/elements/1.1/" xmlns:cc="http://creativecommons.org/ns#" xmlns:rdf="http://www.w3.org/1999/02/22-rdf-syntax-ns#" xmlns:svg="http://www.w3.org/2000/svg" xmlns="http://www.w3.org/2000/svg" xmlns:xlink="http://www.w3.org/1999/xlink" xmlns:sodipodi="http://sodipodi.sourceforge.net/DTD/sodipodi-0.dtd" xmlns:inkscape="http://www.inkscape.org/namespaces/inkscape" width="770" height="650" id="svg2" version="1.1" inkscape:version="0.47pre4 " sodipodi:docname="test.svg" style="display:inline">
<defs id="defs4">
<inkscape:perspective sodipodi:type="inkscape:persp3d" inkscape:vp_x="0 : 526.18109 : 1" inkscape:vp_y="0 : 1000 : 0" inkscape:vp_z="744.09448 : 526.18109 : 1" inkscape:persp3d-origin="372.04724 : 350.78739 : 1" id="perspective10" />
<inkscape:perspective id="perspective2832" inkscape:persp3d-origin="0.5 : 0.33333333 : 1" inkscape:vp_z="1 : 0.5 : 1" inkscape:vp_y="0 : 1000 : 0" inkscape:vp_x="0 : 0.5 : 1" sodipodi:type="inkscape:persp3d" />
<script type="text/ecmascript" id="script6">
		var fdat="",sdat="";
		function onAreaOver(evt){
			var ele=evt.target; 
			fdat=ele.getAttribute('fill'); 
			sdat=ele.getAttribute('stroke');
			ele.setAttribute('fill','#006fb6');//多边形填充颜色
			ele.setAttribute('stroke','#006fb6');//stroke 多边形 边框颜色
			
		}
		function onAreaOut(evt){
			var ele=evt.target; 
			ele.setAttribute('fill',fdat);
			ele.setAttribute('stroke',sdat);
		}
		</script>
<symbol overflow="visible" id="symbol" style="overflow:visible">
<path d="m 626,156 2,-2 2,-4 0,-3 -1,-3 -4,-3 -6,-3 -5,-2 -4,-2 -4,8 -6,14" id="path9" style="fill:#000000;stroke:none" />
</symbol>
</defs>
<sodipodi:namedview id="base" pagecolor="#ffffff" bordercolor="#666666" borderopacity="1.0" inkscape:pageopacity="0.0" inkscape:pageshadow="2" inkscape:zoom="5.6" inkscape:cx="583.1007" inkscape:cy="273.63795" inkscape:document-units="px" inkscape:current-layer="svg2" showgrid="false" inkscape:window-width="1280" inkscape:window-height="740" inkscape:window-x="-4" inkscape:window-y="-4" inkscape:window-maximized="1" />
<metadata id="metadata7">
<rdf:RDF>
<cc:Work>
<dc:format>
image/svg+xml</dc:format>
<dc:type rdf:resource="http://purl.org/dc/dcmitype/StillImage" />
<dc:title>
</dc:title>
</cc:Work>
</rdf:RDF>
</metadata>
<image xlink:href="taian_b_2f_b6_b7.png" width="770" height="650" id="image2834" x="-485" y="255.93361" transform="translate(485,-255.9336)" inkscape:label="Layer 1" inkscape:groupmode="layer" style="display:inline" />
<polygon id="B6-2001" points="201.25 494,235.5 494,235.5 476.75,201.5 476.75" fill="#000000" stroke="none" stroke-opacity="0" />
<polygon id="B6-2002" points="201.5 476.75,201.5 459.25,235.5 459.25,235.5 476.75" fill="#000000" stroke="none" stroke-opacity="0" />
<polygon id="B6-2003" points="201.75 459.25,201.75 441.75,235.25 441.75,235.25 459.25" fill="#000000" stroke="none" stroke-opacity="0" />
<polygon id="B6-2004" points="200.75 441.75,200.75 425,235.25 425,235.25 441.5" fill="#000000" stroke="none" stroke-opacity="0" />
<polygon id="B6-2005" points="201 425,201 408,235.25 408,235.25 425.25" fill="#000000" stroke="none" stroke-opacity="0" />
<polygon id="B6-2006" points="201 382.25,217.75 382.25,217.75 408.25,201 408.25" fill="#000000" stroke="none" stroke-opacity="0" />
<polygon id="B6-2007" points="201 373,201 355.5,235.5 355.5,235.5 373" fill="#000000" stroke="none" stroke-opacity="0" />
<polygon id="B6-2008" points="201 338,235.75 338,235.75 355.5,201.5 355.5" fill="#000000" stroke="none" stroke-opacity="0" />
<polygon id="B6-2009" points="201 270.5,201 251.75,235.5 251.75,235.5 270" fill="#000000" stroke="none" stroke-opacity="0" />
<polygon id="B6-2010" points="201 209.25,222.5 209.25,222.5 235.25,235.75 235.25,235.75 251.75,201 251.75" fill="#000000" stroke="none" stroke-opacity="0" />
<polygon id="B6-2011" points="200.75 199.25,200.75 165.75,235.75 165.75,235.75 199" fill="#000000" stroke="none" stroke-opacity="0" />
<polygon id="B6-2012" points="200.75 165.75,200.75 130.75,235.75 130.75,235.75 166" fill="#000000" stroke="none" stroke-opacity="0" />
<polygon id="B6-2013" points="201.25 130.75,201.25 111.75,234.75 78,234.75 131" fill="#000000" stroke="none" stroke-opacity="0" />
<polygon id="B6-2014" points="235 78.75,253 78.75,253 131.75,235 131.75" fill="#000000" stroke="none" stroke-opacity="0" />
<polygon id="B6-2015" points="253 78.75,270 78.75,270 131.25,252.5 131.25" fill="#000000" stroke="none" stroke-opacity="0" />
<polygon id="B6-2016" points="270 79,287.25 79,287.25 113.75,269.75 113.75" fill="#000000" stroke="none" stroke-opacity="0" />
<polygon id="B6-2017" points="287.25 79.25,305.25 79.25,305.25 113.75,287.5 113.75" fill="#000000" stroke="none" stroke-opacity="0" />
<polygon id="B6-2018" points="305.25 79.5,322.5 79.5,322.5 114,304.75 114" fill="#000000" stroke="none" stroke-opacity="0" />
<polygon id="B6-2019" points="322.5 79.5,339 79.5,339 114,322.25 114" fill="#000000" stroke="none" stroke-opacity="0" />
<polygon id="B6-2020" points="339 79.25,356.75 79.25,356.75 113.75,338.75 113.75" fill="#000000" stroke="none" stroke-opacity="0" />
<polygon id="B6-2021" points="434.75 79,459.75 79,459.75 96.5,434.75 96.5" fill="#000000" stroke="none" stroke-opacity="0" />
<polygon id="B6-2022" points="459.75 79,477.75 79,477.75 113.5,459.75 113.5" fill="#000000" stroke="none" stroke-opacity="0" />
<polygon id="B6-2023" points="477.75 79,494.75 79,494.75 113.75,477.25 113.75" fill="#000000" stroke="none" stroke-opacity="0" />
<polygon id="B6-2024" points="494.75 79.25,512.25 79.25,512.25 113.75,494.5 113.75" fill="#000000" stroke="none" stroke-opacity="0" />
<polygon id="B6-2025" points="477 113.75,477 130.75,512 130.75,512 114" fill="#000000" stroke="none" stroke-opacity="0" />
<polygon id="B6-2026" points="477 130.75,512 130.75,512 147.75,477 147.75" fill="#000000" stroke="none" stroke-opacity="0" />
<polygon id="B6-2027" points="477 147.75,477 166.5,511.5 166.5,511.5 147.5" fill="#000000" stroke="none" stroke-opacity="0" />
<polygon id="B6-2028-1" points="356.5 96,426.5 96,426.5 113.5,476.5 113.5,476.5 166,494 166,494 408.5,477.5 408.5,477.5 510.5,443 510.5,443 547.5,373.5 547.5,373.5 510,356 510,356 547,287 547,287 511,235 511,235 337.5,217 337.5,217 270,235.5 270,235.5 166,269.5 166,269.5 113,356.5 113" fill="#000000" stroke="none" stroke-opacity="0" />
<polygon id="B6-2028-2" points="494 199.5,529 199.5,529 268.5,598.5 268.5,598.5 148,668 148,668 268.5,737 268.5,737 547,477 547,477 407.5,494 407.5" fill="#000000" stroke="none" stroke-opacity="0" />
<polygon id="B6-2029" points="541 148,597.5 148,598 268.5,528.5 268.5,529 166" fill="#000000" stroke="none" stroke-opacity="0" />
<polygon id="B6-2030" points="668.5 148.5,725 148.5,737.5 167.5,737.5 268.5,668.5 268.5" fill="#000000" stroke="none" stroke-opacity="0" />
<polygon id="B7-2001" points="164.5 494,166.5 598,132.5 632,62 632.5,28.5 598.5,28.5 528,62 494" fill="#000000" stroke="none" stroke-opacity="0" />
<polygon id="B7-2002" points="62.5 494,63 476.5,114.5 476.5,115 493.5" fill="#000000" stroke="none" stroke-opacity="0" />
<polygon id="B7-2003" points="63 477,63 459.5,115 459.5,115 476.5" fill="#000000" stroke="none" stroke-opacity="0" />
<polygon id="B7-2004" points="63 460,63 442.5,115 442.5,115 459.5" fill="#000000" stroke="none" stroke-opacity="0" />
<polygon id="B7-2005" points="27.5 443,27.5 407,44.5 407,44.5 372,61 355.5,115 355.5,115 442.5" fill="#000000" stroke="none" stroke-opacity="0" />
<polygon id="B7-2006" points="62 355,62 337.5,115 337.5,115 355.5" fill="#000000" stroke="none" stroke-opacity="0" />
<polygon id="B7-2007" points="71 337.5,71 270,115 270,115 274.5,108 286,108.5 321,115 332.5,115 337" fill="#000000" stroke="none" stroke-opacity="0" />
<polygon id="B7-2008" points="62.5 270,62.5 252,114.5 251.5,114.5 270" fill="#000000" stroke="none" stroke-opacity="0" />
<polygon id="B7-2009" points="79.5 252,79.5 234,115 234,115 216.5,43.5 216.5,43.5 234.5,60.5 251.5" fill="#000000" stroke="none" stroke-opacity="0" />
<polygon id="B7-2010" points="44 216.5,44 199.5,114.5 199.5,114.5 216" fill="#000000" stroke="none" stroke-opacity="0" />
<polygon id="B7-2011" points="114.5 199.5,114.5 182.5,44.5 182,44.5 199.5" fill="#000000" stroke="none" stroke-opacity="0" />
<polygon id="B7-2012" points="79.5 182.5,79.5 164.5,114.5 164.5,114.5 182" fill="#000000" stroke="none" stroke-opacity="0" />
<polygon id="B7-2013" points="79.5 182.5,79.5 164.5,115 164.5,115 113,78.5 113,78.5 95,44.5 95,44.5 181.5" fill="#000000" stroke="none" stroke-opacity="0" />
<polygon id="B7-2014" points="79 113,78.5 95.5,114.5 95.5,114.5 113.5" fill="#000000" stroke="none" stroke-opacity="0" />
<polygon id="B7-2015" points="79 95.5,79 79,115 78,114 95.5" fill="#000000" stroke="none" stroke-opacity="0" />
<polygon id="B7-2016" points="79.5 79.5,79.5 53.5,115 52.5,115.5 79.5" fill="#000000" stroke="none" stroke-opacity="0" />
<polygon id="B7-2017" points="80 53.5,80 34.5,114.5 34.5,114.5 52.5" fill="#000000" stroke="none" stroke-opacity="0" />
<polygon id="B7-2018" points="80 35,80 17.5,115 17.5,115 34" fill="#000000" stroke="none" stroke-opacity="0" />
</svg>
