<?xml version="1.0" encoding="UTF-8" standalone="no"?>
<!-- Created with Inkscape (http://www.inkscape.org/) -->

<svg xmlns:dc="http://purl.org/dc/elements/1.1/" xmlns:cc="http://creativecommons.org/ns#" xmlns:rdf="http://www.w3.org/1999/02/22-rdf-syntax-ns#" xmlns:svg="http://www.w3.org/2000/svg" xmlns="http://www.w3.org/2000/svg" xmlns:xlink="http://www.w3.org/1999/xlink" xmlns:sodipodi="http://sodipodi.sourceforge.net/DTD/sodipodi-0.dtd" xmlns:inkscape="http://www.inkscape.org/namespaces/inkscape" width="770" height="410" id="svg2" version="1.1" inkscape:version="0.47pre4 " sodipodi:docname="test.svg" style="display:inline" stroke="#000000">
<defs id="defs4">
<inkscape:perspective sodipodi:type="inkscape:persp3d" inkscape:vp_x="0 : 526.18109 : 1" inkscape:vp_y="0 : 1000 : 0" inkscape:vp_z="744.09448 : 526.18109 : 1" inkscape:persp3d-origin="372.04724 : 350.78739 : 1" id="perspective10" />
<inkscape:perspective id="perspective2832" inkscape:persp3d-origin="0.5 : 0.33333333 : 1" inkscape:vp_z="1 : 0.5 : 1" inkscape:vp_y="0 : 1000 : 0" inkscape:vp_x="0 : 0.5 : 1" sodipodi:type="inkscape:persp3d" />
<script type="text/ecmascript" id="script6">
		var fdat="",sdat="";
		function onAreaOver(evt){
			var ele=evt.target; 
			fdat=ele.getAttribute('fill'); 
			sdat=ele.getAttribute('stroke');
			ele.setAttribute('fill','#006fb6');//多边形填充颜色
			ele.setAttribute('stroke','#006fb6');//stroke 多边形 边框颜色
			
		}
		function onAreaOut(evt){
			var ele=evt.target; 
			ele.setAttribute('fill',fdat);
			ele.setAttribute('stroke',sdat);
		}
		</script>
<symbol overflow="visible" id="symbol" style="overflow:visible">
<path d="m 626,156 2,-2 2,-4 0,-3 -1,-3 -4,-3 -6,-3 -5,-2 -4,-2 -4,8 -6,14" id="path9" style="fill:#000000;stroke:none" />
</symbol>
</defs>
<sodipodi:namedview id="base" pagecolor="#ffffff" bordercolor="#666666" borderopacity="1.0" inkscape:pageopacity="0.0" inkscape:pageshadow="2" inkscape:zoom="5.6" inkscape:cx="583.1007" inkscape:cy="273.63795" inkscape:document-units="px" inkscape:current-layer="svg2" showgrid="false" inkscape:window-width="1280" inkscape:window-height="740" inkscape:window-x="-4" inkscape:window-y="-4" inkscape:window-maximized="1" />
<metadata id="metadata7">
<rdf:RDF>
<cc:Work>
<dc:format>
image/svg+xml</dc:format>
<dc:type rdf:resource="http://purl.org/dc/dcmitype/StillImage" />
<dc:title>
</dc:title>
</cc:Work>
</rdf:RDF>
</metadata>
<image xlink:href="xinxiang_mall_2f.png" width="770" height="530" id="image2834" x="-485" y="255.93361" transform="translate(485,-255.9336)" inkscape:label="Layer 1" inkscape:groupmode="layer" style="display:inline" />
<polygon id="2001" points="726.5 130,764.5 160.5,763 238,722 237,721.5 209,693 209,692.5 176" fill="#000000" stroke="none" stroke-opacity="0" />
<polygon id="2002" points="662.5 158.5,692.5 177.5,727 130.5,718.5 118,706.5 111,693 108" fill="#000000" stroke="none" stroke-opacity="0" />
<polygon id="2003" points="633 141.5,663 157.5,692.5 108.5,658.5 90.5" fill="#000000" stroke="none" stroke-opacity="0" />
<polygon id="2004" points="633 142,659 90.5,626 74.5,602 126" fill="#000000" stroke="#000000" />
<polygon id="2005" points="600.5 126.5,626 73.5,592.5 60,571.5 113.5" fill="#000000" stroke="#000000" />
<polygon id="2006" points="536 102,571 114,592 60,557.5 47,528 41,519.5 72.5,546 79.5" fill="#000000" stroke="#000000" />
<polygon id="2007" points="469.5 88,504.5 95.5,518.5 39,478.5 31.5" fill="#000000" stroke="#000000" />
<polygon id="2008" points="469 88.5,479 30,441 26,436.5 84" fill="#000000" stroke="#000000" />
<polygon id="2009" points="436 84.5,440.5 25,403.5 23,400 82" fill="#000000" stroke="#000000" />
<polygon id="2010" points="367 81.5,399 81,404 22.5,364 23" fill="#000000" stroke="#000000" />
<polygon id="2011" points="368 81,332 83,326.5 26,363.5 23.5" fill="#000000" stroke="#000000" />
<polygon id="2012" points="332 83.5,326.5 25,288.5 31.5,297.5 90" fill="#000000" stroke="#000000" />
<polygon id="2013" points="251.5 39,289 31,297.5 88,264 95.5" fill="#000000" stroke="#000000" />
<polygon id="2014" points="249 72.5,241.5 41.5,205.5 50,175.5 60.5,195 116,231 103.5,224 79" fill="#000000" stroke="#000000" />
<polygon id="2015" points="175.5 60.5,195 116,166.5 128.5,141.5 73.5" fill="#000000" stroke="#000000" />
<polygon id="2016" points="141 74,165.5 129,133.5 142.5,107 91.5" fill="#000000" stroke="#000000" />
<polygon id="2017" points="106.5 91,133.5 143.5,104 160,75 109.5" fill="#000000" stroke="#000000" />
<polygon id="2018" points="74.5 108.5,63 110.5,49 120,40 131.5,75.5 177.5,105.5 161" fill="#000000" stroke="#000000" />
<polygon id="2019" points="4 236.5,47 237,47 208,76.5 209.5,76.5 176,40.5 131,4.5 160" fill="#000000" stroke="#000000" />
<polygon id="2020" points="126 201,128.5 213,172 211.5,157.5 183.5" fill="#000000" stroke="#000000" />
<polygon id="2021" points="158 183,164.5 199,192 185,184.5 170.5" fill="#000000" stroke="#000000" />
<polygon id="2022" points="185 170,194 191.5,221.5 180.5,213.5 159" fill="#000000" stroke="#000000" />
<polygon id="2023" points="213.5 157,225.5 194.5,255 183.5,245.5 150" fill="#000000" stroke="#000000" />
<polygon id="2024" points="249.5 163.5,271 158,267.5 142.5,245 149.5" fill="#000000" stroke="#000000" />
<polygon id="2025" points="284 138.5,292 174,311 171,305.5 134.5" fill="#000000" stroke="#000000" />
<polygon id="2026" points="305.75 134.25,311.5 170,340.5 166,336.25 131" fill="#000000" stroke="#000000" />
<polygon id="2027" points="336.5 130.75,369 128.75,370 165,340.25 165.5" fill="#000000" stroke="#000000" />
<polygon id="2028" points="400 129.25,398.75 163.75,428.75 166.75,431.5 131.25" fill="#000000" stroke="#000000" />
<polygon id="2029" points="431.25 130.75,462.75 134.75,456.75 169.75,427.75 166" fill="#000000" stroke="#000000" />
<polygon id="2030" points="462.75 134.25,483.5 138.5,475.75 173.75,457 170.25" fill="#000000" stroke="#000000" />
<polygon id="2031" points="500.5 142.25,497.25 158,519.5 164.25,524.75 149.25" fill="#000000" stroke="#000000" />
<polygon id="2032" points="525.25 149,555.25 159,542.5 193.5,513.25 182" fill="#000000" stroke="#000000" />
<polygon id="2033" points="555.5 158.5,584 170.75,574.5 191.5,547.75 181" fill="#000000" stroke="#000000" />
<polygon id="2034" points="577.25 185,604 198.5,611.5 184.25,584.25 170.5" fill="#000000" stroke="#000000" />
<polygon id="2035" points="612 184.25,639.75 200.25,640 211.75,597.25 211" fill="#000000" stroke="#000000" />
<polygon id="2036" points="567 211.25,596.75 211.5,603.5 198.5,577.25 185,566.75 206.5" fill="#000000" stroke="#000000" />
<polygon id="2037" points="538 210.75,567 211.25,566.75 206,573.75 191.5,547.75 180.5,537.25 206" fill="#000000" stroke="#000000" />
<polygon id="2038" points="514.25 183.5,505.75 209.75,537.5 212.25,537 206,542.25 193.75" fill="#000000" stroke="#000000" />
<polygon id="2039" points="476.75 209.75,487.5 213,496.25 212,503 183.75,485.25 178.75" fill="#000000" stroke="#000000" />
<polygon id="2040" points="456.75 170,485.25 174.75,476.5 210,451.25 204.75" fill="#000000" stroke="#000000" />
<polygon id="2041" points="423.75 201,451.5 205,456.5 170,427.5 166.25" fill="#000000" stroke="#000000" />
<polygon id="2042" points="397.5 199.75,422.75 201.5,427 167,399 163.5" fill="#000000" stroke="#000000" />
<polygon id="2043" points="339.75 165.5,370.5 164.75,370.75 199.5,342.75 200.75" fill="#000000" stroke="#000000" />
<polygon id="2044" points="311 171,316.5 204.25,342.25 201.75,339.25 167" fill="#000000" stroke="#000000" />
<polygon id="2045" points="310.75 171,316.5 204,290 209.75,282.75 174.75" fill="#000000" stroke="#000000" />
<polygon id="2046" points="265 184,283.25 178.75,289.75 210.25,280.25 212.5,272.75 211.5" fill="#000000" stroke="#000000" />
<polygon id="2047" points="225.75 194.5,231.25 212.25,262.75 212,255 183" fill="#000000" stroke="#000000" />
<polygon id="2048" points="220.25 180.75,231.25 212.5,202.25 211.25,194.75 192" fill="#000000" stroke="#000000" />
<polygon id="2049" points="191.25 185.5,202.25 211.5,172.5 212,166.25 198.5" fill="#000000" stroke="#000000" />
<polygon id="2050" points="172.25 236.5,172.75 264.5,202 265,201 237" fill="#000000" stroke="#000000" />
<polygon id="2051" points="202 236.5,231 237.25,231.25 265,202 264.75" fill="#000000" stroke="#000000" />
<polygon id="2052" points="231.25 237,257.25 237.25,257.75 265.5,230 264.5" fill="#000000" stroke="#000000" />
<polygon id="2053" points="257.5 237.25,285 236.75,285.25 265.5,258 264.75" fill="#000000" stroke="#000000" />
<polygon id="2054" points="285.5 236.75,322.5 236.75,328 241.25,327.5 264.5,284.5 265.25" fill="#000000" stroke="#000000" />
<polygon id="2055" points="314.5 276,314 295.25,328.25 295.5,328.25 275.25" fill="#000000" stroke="#000000" />
<polygon id="2056" points="286.5 306.5,286.25 322.5,328 322.5,328 307.25" fill="#000000" stroke="#000000" />
<polygon id="2057" points="286 322.25,286 350.25,328 350.25,328 322.5" fill="#000000" stroke="#000000" />
<polygon id="2058" points="285.5 350.5,285.5 379.75,327.5 379.75,327.5 350.5" fill="#000000" stroke="#000000" />
<polygon id="2059" points="286 380,286 408,328 408,328 378.75" fill="#000000" stroke="#000000" />
<polygon id="2060" points="289.5 433.75,288.5 446,312.75 447,313 442.5,326.5 442.5,326.5 433" fill="#000000" stroke="#000000" />
<polygon id="2061" points="344.25 433.75,343.5 519,425.5 519.75,424 434" fill="#000000" stroke="#000000" />
<polygon id="2062" points="441.25 434,442 442.5,456.25 442,456.25 446.25,479 446,479 433.5" fill="#000000" stroke="#000000" />
<polygon id="2063" points="439.75 378.5,439.75 407.5,482.5 407.5,482.5 378" fill="#000000" stroke="#000000" />
<polygon id="2064" points="440.25 350,481.5 350,481.5 378.5,440 378.5" fill="#000000" stroke="#000000" />
<polygon id="2065" points="440.25 322.25,440.25 349.75,481.75 349.75,481.75 321.75" fill="#000000" stroke="#000000" />
<polygon id="2066" points="440.25 307.25,440.25 322.25,481.75 322.25,481.75 307.25" fill="#000000" stroke="#000000" />
<polygon id="2067" points="439.75 295.25,453.5 295.25,453.5 275.5,440.5 275.5" fill="#000000" stroke="#000000" />
<polygon id="2068" points="440 240.75,444.25 236.5,482.5 236.5,482.5 264.75,440.25 264.75" fill="#000000" stroke="#000000" />
<polygon id="2069" points="482.75 236,510.5 236,510.5 264.25,482.75 264.25" fill="#000000" stroke="#000000" />
<polygon id="2070" points="510 236.25,537.25 236.25,537.25 265.25,510 265.25" fill="#000000" stroke="#000000" />
<polygon id="2071" points="538 237,566.25 237,566.25 265.25,536.5 265.25" fill="#000000" stroke="#000000" />
<polygon id="2072" points="565.75 236.75,595.75 236.75,595.75 265.5,565.5 265.5" fill="#000000" stroke="#000000" />
<polygon id="2073" points="596.25 236.5,624 236.5,624 264.75,595.75 264.75" fill="#000000" stroke="#000000" />
<polygon id="2074" points="623.5 237,652 237,654 266,623.75 265" fill="#000000" stroke="#000000" xmlns="http://www.w3.org/2000/svg" />
<polygon id="2075" points="3 237.5,172.5 236.5,172.5 264,328 264.5,329 276.5,314 276,313.5 296,314 296,314.5 307,286.5 306.5,285.5 409.5,327.5 409.5,326.5 433,289.5 432.5,290 448,326 446.5,326 520.5,92 520,29 519.5,13 512.5,4.5 496" fill="#000000" stroke="#000000" xmlns="http://www.w3.org/2000/svg" />
<polygon id="2076" points="483 265.5,483.5 308,482.5 307.5,484 406.5,453 408,454.5 432.5,480 433.5,478.5 447.5,478 466,477.5 521,595 520.5,595.5 264.5" fill="#000000" stroke="#000000" xmlns="http://www.w3.org/2000/svg" />
<polygon id="2077" points="596.5 264.5,653 265,653 237.5,723.5 235.5,764.5 236.5,766 459.5,765 498,755.5 511.5,738.5 519,596.5 521" fill="#000000" stroke="#000000" xmlns="http://www.w3.org/2000/svg" />
</svg>
