<?xml version="1.0" encoding="UTF-8" standalone="no"?>
<!-- Created with Inkscape (http://www.inkscape.org/) -->

<svg xmlns:dc="http://purl.org/dc/elements/1.1/" xmlns:cc="http://creativecommons.org/ns#" xmlns:rdf="http://www.w3.org/1999/02/22-rdf-syntax-ns#" xmlns:svg="http://www.w3.org/2000/svg" xmlns="http://www.w3.org/2000/svg" xmlns:xlink="http://www.w3.org/1999/xlink" xmlns:sodipodi="http://sodipodi.sourceforge.net/DTD/sodipodi-0.dtd" xmlns:inkscape="http://www.inkscape.org/namespaces/inkscape" width="770" height="410" id="svg2" version="1.1" inkscape:version="0.47pre4 " sodipodi:docname="test.svg" style="display:inline" stroke="#000000">
<defs id="defs4">
<inkscape:perspective sodipodi:type="inkscape:persp3d" inkscape:vp_x="0 : 526.18109 : 1" inkscape:vp_y="0 : 1000 : 0" inkscape:vp_z="744.09448 : 526.18109 : 1" inkscape:persp3d-origin="372.04724 : 350.78739 : 1" id="perspective10" />
<inkscape:perspective id="perspective2832" inkscape:persp3d-origin="0.5 : 0.33333333 : 1" inkscape:vp_z="1 : 0.5 : 1" inkscape:vp_y="0 : 1000 : 0" inkscape:vp_x="0 : 0.5 : 1" sodipodi:type="inkscape:persp3d" />
<script type="text/ecmascript" id="script6">
		var fdat="",sdat="";
		function onAreaOver(evt){
			var ele=evt.target; 
			fdat=ele.getAttribute('fill'); 
			sdat=ele.getAttribute('stroke');
			ele.setAttribute('fill','#006fb6');//多边形填充颜色
			ele.setAttribute('stroke','#006fb6');//stroke 多边形 边框颜色
			
		}
		function onAreaOut(evt){
			var ele=evt.target; 
			ele.setAttribute('fill',fdat);
			ele.setAttribute('stroke',sdat);
		}
		</script>
<symbol overflow="visible" id="symbol" style="overflow:visible" xmlns="http://www.w3.org/2000/svg">
<path d="m 626,156 2,-2 2,-4 0,-3 -1,-3 -4,-3 -6,-3 -5,-2 -4,-2 -4,8 -6,14" id="path9" style="fill:#000000;stroke:none" />
</symbol>
</defs>
<sodipodi:namedview id="base" pagecolor="#ffffff" bordercolor="#666666" borderopacity="1.0" inkscape:pageopacity="0.0" inkscape:pageshadow="2" inkscape:zoom="5.6" inkscape:cx="583.1007" inkscape:cy="273.63795" inkscape:document-units="px" inkscape:current-layer="svg2" showgrid="false" inkscape:window-width="1280" inkscape:window-height="740" inkscape:window-x="-4" inkscape:window-y="-4" inkscape:window-maximized="1" />
<metadata id="metadata7">
<rdf:RDF>
<cc:Work>
<dc:format>
image/svg+xml</dc:format>
<dc:type rdf:resource="http://purl.org/dc/dcmitype/StillImage" />
<dc:title>
</dc:title>
</cc:Work>
</rdf:RDF>
</metadata>
<image xlink:href="xinxiang_mall_1f.png" width="770" height="530" id="image2834" x="-485" y="255.93361" transform="translate(485,-255.9336)" inkscape:label="Layer 1" inkscape:groupmode="layer" style="display:inline" />
<polygon id="1001" points="734.5 209.5,735.25 178,755.5 153,763.75 159.75,764.25 209.5" fill="#000000" stroke="none" stroke-opacity="0" />
<polygon id="1002" points="706.5 156.75,735.25 177.75,755.75 153,725 129.75" fill="#000000" stroke="none" stroke-opacity="0" />
<polygon id="1003" points="645 118.5,677.75 136.5,693.75 109.75,659.75 90.75" fill="#000000" stroke="none" stroke-opacity="0" />
<polygon id="1004" points="612.75 102.75,645.5 118.25,660 90.5,625 74.5" fill="#000000" stroke="none" stroke-opacity="0" />
<polygon id="1005" points="580.25 89.5,613 103.25,625.75 74.5,591 60.25" fill="#000000" stroke="none" stroke-opacity="0" />
<polygon id="1006" points="535.75 110.25,570 120.5,591 60.5,553.75 48" fill="#000000" stroke="none" stroke-opacity="0" />
<polygon id="1007" points="523 59,548.75 66.5,554 48.25,527 40.25" fill="#000000" stroke="none" stroke-opacity="0" />
<polygon id="1008" points="468.75 94.5,485.75 97.25,502.25 101.75,517.5 38.25,497.5 34,479 31.75" fill="#000000" stroke="none" stroke-opacity="0" />
<polygon id="1009" points="438.25 57.75,458 60,474.25 62,479.5 31.75,458.75 28.5,441.25 27" fill="#000000" stroke="none" stroke-opacity="0" />
<polygon id="1010" points="401.75 56,420.25 56.25,439.25 58,441.5 26.5,419.25 25.25,402.25 24" fill="#000000" stroke="none" stroke-opacity="0" />
<polygon id="1011" points="365.75 23.75,366.25 56,329.5 58,326.5 26.5,345.5 24.75" fill="#000000" stroke="none" stroke-opacity="0" />
<polygon id="1012" points="326.75 26.5,329.75 57.75,294 62.5,288.75 31,306.5 28" fill="#000000" stroke="none" stroke-opacity="0" />
<polygon id="1013" points="288.75 30.75,300 95,281 97.5,265.5 101.75,250.5 39.25,268.5 34.25" fill="#000000" stroke="none" stroke-opacity="0" />
<polygon id="1014" points="214 48.25,222.25 73.75,248 66.5,240.75 40.25,226.75 44.25" fill="#000000" stroke="none" stroke-opacity="0" />
<polygon id="1015" points="214.25 48,233.5 109.75,215.25 116,199.5 121.25,176.25 60.5,194.25 54" fill="#000000" stroke="none" stroke-opacity="0" />
<polygon id="1016" points="155.25 103.5,187.75 89.5,176.5 60.25,157.25 67.25,142.25 74" fill="#000000" stroke="none" stroke-opacity="0" />
<polygon id="1017" points="122.75 119.75,138.75 111.75,156 103.25,142.75 73.75,123 83.25,108.25 91.5" fill="#000000" stroke="none" stroke-opacity="0" />
<polygon id="1018" points="75 109.5,92 137.5,123.5 119,108 89.5" fill="#000000" stroke="#000000" />
<polygon id="1019" points="43 130,62.5 159,33 180,13 153" fill="#000000" stroke="#000000" />
<polygon id="1020" points="13 153,32.5 179.5,33 210,3.5 208.5,3.5 159" fill="#000000" stroke="#000000" />
<polygon id="1021" points="62.5 157,76.5 178.5,77 210.5,33.5 210.5,33 180" fill="#000000" stroke="#000000" />
<polygon id="1022" points="91.5 136,105 161,116 162,138.5 147.5,123 119.5" fill="#000000" stroke="#000000" />
<polygon id="1023" points="123 119,138 147.5,169.5 133.5,156.5 103.5" fill="#000000" stroke="#000000" />
<polygon id="1024" points="156 102,168.5 134,199.5 120.5,188 90" fill="#000000" stroke="#000000" />
<polygon id="1025" points="237.5 92,241 110,265.5 102,261.5 85" fill="#000000" stroke="#000000" />
<polygon id="1026" points="294 62,299 94.5,317 92,334.5 92,330 57" fill="#000000" stroke="#000000" />
<polygon id="1027" points="330 56,335 90,360 90.5,368 82,366 54.5" fill="#000000" stroke="#000000" />
<polygon id="1028" points="402 54,401 83,410.5 90,434 90.5,439 58.5" fill="#000000" stroke="#000000" />
<polygon id="1029" points="438.5 56.5,435 90.5,469 95.5,475 62.5" fill="#000000" stroke="#000000" />
<polygon id="1030" points="505.5 85.5,533 93.5,528.5 107,504 103" fill="#000000" stroke="#000000" />
<polygon id="1031" points="581 89,614 102,600.5 133.5,583.5 126.5,570.5 120.5" fill="#000000" stroke="#000000" />
<polygon id="1032" points="613.5 101.5,633.5 111.5,646 119.5,632 148,613.5 140.5,600 135.5" fill="#000000" stroke="#000000" />
<polygon id="1033" points="646.5 118.5,663 128,677.5 135,665 159,654.5 161,632.5 149" fill="#000000" stroke="#000000" />
<polygon id="1034" points="707.5 155,692 177.5,692 211.5,734.5 210,735 177.5" fill="#000000" stroke="#000000" />
<polygon id="1035" points="612.5 180,640.5 196.5,640.5 213.5,595.5 212.5" fill="#000000" stroke="#000000" />
<polygon id="1036" points="576.5 184.5,604.5 200,614 180,584 165.5" fill="#000000" stroke="#000000" />
<polygon id="1037" points="548 181,574.5 191,585.5 164,558 154" fill="#000000" stroke="#000000" />
<polygon id="1038" points="513.5 181.5,543.5 193,558 152,525.5 142.5" fill="#000000" stroke="#000000" />
<polygon id="1038a" points="514.75 182.25,506 212.5,536.25 211.75,543.5 192.5" fill="#000000" stroke="#000000" />
<polygon id="1039" points="501.5 136,498.5 155,512 157,518 140" fill="#000000" stroke="#000000" />
<polygon id="1040" points="457 169.5,476.5 174,485 132.5,464.5 128" fill="#000000" stroke="#000000" />
<polygon id="1041" points="427.5 166.5,457 169,463.5 131,432 127" fill="#000000" stroke="#000000" />
<polygon id="1042" points="399 164,428 166.5,432.5 126.5,398.5 125" fill="#000000" stroke="#000000" />
<polygon id="1043" points="340 167,370 164,369 126,337 128.5" fill="#000000" stroke="#000000" />
<polygon id="1044" points="312 168.5,340 166,336.5 127.5,305.5 132" fill="#000000" stroke="#000000" />
<polygon id="1045" points="293 173,312 170,305.5 128,284 132.5" fill="#000000" stroke="#000000" />
<polygon id="1046" points="266 136.5,269.75 153.5,257.75 157.5,251.25 140" fill="#000000" stroke="#000000" />
<polygon id="1047" points="242.5 142.5,254.75 181.5,224.75 192.25,210 153.25" fill="#000000" stroke="#000000" />
<polygon id="1047a" points="224.75 192.5,231.5 212,264 212,255 180.25" fill="#000000" stroke="#000000" />
<polygon id="1048" points="194.25 191.5,221.25 181.25,210.5 152.75,182.5 164.25" fill="#000000" stroke="#000000" />
<polygon id="1049" points="184 167,155.5 181.5,164.5 199.75,192 186" fill="#000000" stroke="#000000" />
<polygon id="1050" points="155 181,171.75 211.75,128.5 211.75,128.75 195.75" fill="#000000" stroke="#000000" />
<polygon id="1051" points="165.25 199,171.25 212.75,203 212.5,202 206,191.75 186" fill="#000000" stroke="#000000" />
<polygon id="1052" points="195 191.25,202.5 206,202.75 212.5,231.25 212.25,220.25 181.75" fill="#000000" stroke="#000000" />
<polygon id="1053" points="255.5 181.5,282.5 174,290.75 208.25,281 212.25,262.25 212.75" fill="#000000" stroke="#000000" />
<polygon id="1054" points="283.25 174.75,312.5 169.25,317.25 205,291.75 208.75" fill="#000000" stroke="#000000" />
<polygon id="1055" points="312.5 168.25,341.5 166,344 201.75,317.25 204.75" fill="#000000" stroke="#000000" />
<polygon id="1056" points="341.75 165.75,370.5 164.5,371.25 200.75,345 202.25" fill="#000000" stroke="#000000" />
<polygon id="1057" points="398.75 163.25,398 199.25,425.5 201.25,427.75 166.75" fill="#000000" stroke="#000000" />
<polygon id="1058" points="427.75 166,457 169.25,451 204.75,425.5 201" fill="#000000" stroke="#000000" />
<polygon id="1059" points="457 169.75,485.5 175.5,479 210,452 205" fill="#000000" stroke="#000000" />
<polygon id="1060" points="486.25 174.75,514.75 182.75,505.75 211.75,483.25 212.25,476.25 207.75" fill="#000000" stroke="#000000" xmlns="http://www.w3.org/2000/svg" />
<polygon id="1061" points="548 181.25,537.25 211.75,568 211.5,567 205.75,574 191.5" fill="#000000" stroke="none" stroke-opacity="0" />
<polygon id="1062" points="577.75 185.5,567.25 205.5,568.25 212.75,595.75 212.5,602.75 198.5" fill="#000000" stroke="none" stroke-opacity="0" />
<polygon id="1063" points="482.75 237.25,446.75 236.75,440.25 242,440.5 265,483 265.5" fill="#000000" stroke="none" stroke-opacity="0" />
<polygon id="1064" points="483 237.25,511.25 237.75,510.75 265.25,483 265.5" fill="#000000" stroke="none" stroke-opacity="0" />
<polygon id="1065" points="536.75 237,536.75 265,557.25 264.25,557.5 237" fill="#000000" stroke="none" stroke-opacity="0" />
<polygon id="1066" points="565.75 237.25,565.75 264.25,595.25 264.75,595.75 237.25" fill="#000000" stroke="none" stroke-opacity="0" />
<polygon id="1067" points="595.25 237.25,623.75 237.25,623.25 265.25,594.75 264.25" fill="#000000" stroke="none" stroke-opacity="0" />
<polygon id="1068" points="623.25 237.5,651.75 237.75,651.5 265,623 265" fill="#000000" stroke="none" stroke-opacity="0" />
<polygon id="1069" points="721 224.25,721.25 264.75,764 265.25,764 223.5" fill="#000000" stroke="none" stroke-opacity="0" xmlns="http://www.w3.org/2000/svg" />
<polygon id="1070" points="721.5 264.25,721.25 295,764.25 295,764.25 264" fill="#000000" stroke="none" stroke-opacity="0" xmlns="http://www.w3.org/2000/svg" />
<polygon id="1071" points="721.25 294.25,721.25 323.5,764 323.5,764 293" fill="#000000" stroke="none" stroke-opacity="0" xmlns="http://www.w3.org/2000/svg" />
<polygon id="1072" points="721.5 322.75,721.5 351,764 351.5,764 322" fill="#000000" stroke="none" stroke-opacity="0" xmlns="http://www.w3.org/2000/svg" />
<polygon id="1073" points="722 350.25,722 379.5,763.5 379.5,763.5 350.75" fill="#000000" stroke="none" stroke-opacity="0" xmlns="http://www.w3.org/2000/svg" />
<polygon id="1074" points="721 406,720 436.25,764.25 436,764.75 405.5" fill="#000000" stroke="none" stroke-opacity="0" />
<polygon id="1075" points="720.75 436,721.25 464.25,764.25 464.5,764.25 435" fill="#000000" stroke="none" stroke-opacity="0" />
<polygon id="1076" points="721.75 464,720.25 492,764.5 492.25,763.75 462.5" fill="#000000" stroke="none" stroke-opacity="0" />
<polygon id="1077" points="735.75 491.5,735 518.75,744.75 519,753.75 514.75,761.25 505.25,764.75 492.5" fill="#000000" stroke="#000000" />
<polygon id="1078" points="735.5 491.25,735.25 519.75,719.75 519.5,719.75 491.25" fill="#000000" stroke="#000000" />
<polygon id="1079" points="678.25 492,709 492,709 519.75,678.25 520" fill="#000000" stroke="#000000" />
<polygon id="1080" points="651.25 476.5,667 476.25,667.5 519.5,650.75 520.25" fill="#000000" stroke="#000000" />
<polygon id="1081" points="622.75 476.75,622.75 519.25,650.25 519.25,651.5 483,641 483,640.75 477" fill="#000000" stroke="#000000" />
<polygon id="1082" points="594.25 519.25,623.5 520,622.75 476.5,595.5 476.5" fill="#000000" stroke="#000000" />
<polygon id="1083" points="567.5 518.75,595 518.75,595 476.75,567.25 476.75" fill="#000000" stroke="#000000" />
<polygon id="1084" points="567 519.25,538.5 519.25,538.5 477.5,567.25 477.5" fill="#000000" stroke="#000000" />
<polygon id="1085" points="538.25 477.75,538.25 519.25,510.5 519.25,510.5 478" fill="#000000" stroke="#000000" />
<polygon id="1086" points="483.25 492.75,510.75 492.75,510.75 520,482.5 520" fill="#000000" stroke="#000000" />
<polygon id="1087" points="482 492.25,483 519.5,455 519.5,455 491.25" fill="#000000" stroke="#000000" xmlns="http://www.w3.org/2000/svg" />
<polygon id="1088" points="441.5 434,441.5 443.5,455.75 442.75,455.25 448,478.5 448,479.25 433.75" fill="#000000" stroke="#000000" xmlns="http://www.w3.org/2000/svg" />
<polygon id="1089" points="440.25 379,440.25 408.25,478.5 408.25,478.5 378.5" fill="#000000" stroke="#000000" />
<polygon id="1090" points="440 378.5,482 378.5,482 350.5,440.25 350.5" fill="#000000" stroke="#000000" />
<polygon id="1091" points="440.25 323,440.25 351.75,482 351.75,482 322.25" fill="#000000" stroke="#000000" />
<polygon id="1092" points="440 307.5,440 323.75,481.75 323.75,481.75 307.5" fill="#000000" stroke="#000000" />
<polygon id="1093" points="440.5 276,440.5 296,454.75 296,454.75 275.5" fill="#000000" stroke="#000000" />
<polygon id="1094" points="398.25 434.25,398.25 477.25,423.75 477.25,423.75 433.75" fill="#000000" stroke="#000000" />
<polygon id="1095" points="397.75 477.5,397.75 519.5,424.5 519.5,424.5 477" fill="#000000" stroke="#000000" />
<polygon id="1096" points="370.25 477,397.75 477,397.75 434,370.5 434" fill="#000000" stroke="#000000" />
<polygon id="1097" points="369.75 477.25,369.75 519.25,397.75 519.25,397.75 476.75" fill="#000000" stroke="#000000" />
<polygon id="1098" points="344 477,369.75 477,369.75 433,343.75 433" fill="#000000" stroke="#000000" />
<polygon id="1099" points="344 476.5,344 519.25,369.75 519.25,369.75 476.5" fill="#000000" stroke="#000000" />
<polygon id="1100" points="284.5 492.25,284.5 519.5,313.5 519.5,313.5 492.25" fill="#000000" stroke="#000000" />
<polygon id="1101" points="257.25 477,257.25 519.25,284.25 519.25,284.5 492,289.5 491.5,289.25 476.25" fill="#000000" stroke="#000000" />
<polygon id="1102" points="229 519,257 519,257 476.25,228.5 476.25" fill="#000000" stroke="#000000" />
<polygon id="1103" points="201.5 519.75,229.25 519.75,229.25 476,201 476" fill="#000000" stroke="#000000" />
<polygon id="1104" points="201.25 520,173.25 520,173.25 477,201 477" fill="#000000" stroke="#000000" />
<polygon id="1105" points="173.25 520.25,145.25 519.5,145.25 477.75,173 477.75" fill="#000000" stroke="#000000" />
<polygon id="1106" points="145 519.75,118.75 519.75,118.75 477.25,144.25 477.25" fill="#000000" stroke="#000000" />
<polygon id="1107" points="102 482.75,118.5 482.75,118.5 519.5,102.25 519.5" fill="#000000" stroke="#000000" />
<polygon id="1108" points="59.75 495.5,59.75 519,90.5 519,90.75 495.75" fill="#000000" stroke="#000000" xmlns="http://www.w3.org/2000/svg" />
<polygon id="1109" points="3.5 407.5,3.75 436.25,47.5 436.75,46.25 406.5" fill="#000000" stroke="#000000" />
<polygon id="1110" points="4 407.5,47 408.25,47.25 378.75,4.25 378" fill="#000000" stroke="#000000" />
<polygon id="1111" points="3.5 378.5,47.25 379,47.25 350.25,3.5 350.25" fill="#000000" stroke="#000000" />
<polygon id="1112" points="4 350.25,47.25 350.75,46.5 322.25,5 322.25" fill="#000000" stroke="#000000" />
<polygon id="1113" points="4.75 322.5,47.25 323.5,47.25 293.75,3.75 295" fill="#000000" stroke="#000000" />
<polygon id="1114" points="3.75 294.5,47 294,47.25 265.75,3.75 265.5" fill="#000000" stroke="#000000" />
<polygon id="1115" points="3.5 265.25,47.25 265.75,46.75 223.75,4 223.5" fill="#000000" stroke="#000000" />
<polygon id="1116" points="173 237.25,173.25 265.75,202 265.75,201.5 237.5" fill="#000000" stroke="#000000" />
<polygon id="1117" points="201.5 237.25,231.25 237.5,231.25 266.25,202.5 265.25" fill="#000000" stroke="#000000" />
<polygon id="1118" points="231 237.5,257.75 237.5,258.25 264.75,231.25 266" fill="#000000" stroke="#000000" />
<polygon id="1119" points="258.5 264.75,286 265.75,285.75 237.5,258.25 237" fill="#000000" stroke="#000000" />
<polygon id="1120" points="285 237.25,323 236.75,328.25 242.25,328.25 265,286.5 265.5" fill="#000000" stroke="#000000" />
<polygon id="1121" points="314 275.5,314.75 296,328.5 295.75,328 275.75" fill="#000000" stroke="#000000" />
<polygon id="1122" points="286.5 307.5,328.5 307.5,328.75 323.5,286.25 323.25" fill="#000000" stroke="#000000" />
<polygon id="1123" points="286.25 323.25,286.25 351,328.25 351.25,328.75 322.75" fill="#000000" stroke="#000000" />
<polygon id="1124" points="286 351.25,286.25 379.5,328 379.25,328.5 351" fill="#000000" stroke="#000000" />
<polygon id="1125" points="285.75 379.75,285.5 408.75,328 408.75,328.25 379.25" fill="#000000" stroke="#000000" />
<polygon id="1126" points="289 434,289.75 446.75,313 446,313.5 443,326.75 442.75,327 434.25" fill="#000000" stroke="#000000" />
<polygon id="1127" points="90.5 459,45.5 458.5,48 263.5,90.5 264.5,90.5 238,172 237,172 266.5,200 266,200 283.5,258 282.5,258.5 266.5,279.5 266,280.5 296,328.5 296,329 309.5,286.5 309,285 409.5,315.5 408,315.5 433.5,281.5 432.5,282 451.5,316 451.5,314.5 492.5,290 491.5,290 476.5,103.5 476,101.5 507,92 507,91.5 475" fill="#000000" stroke="#000000" xmlns="http://www.w3.org/2000/svg" />
<polygon id="1128" points="453 407,452.5 432.5,479 433.5,479 448.5,456 449,455 490.5,510.5 491.5,510.5 478.5,596 477,596.5 263.5,536.5 264,536.5 237.5,511 237,509.5 265.5,482.5 265.5,482 295,482 307.5,478.5 408.5" fill="#000000" stroke="#000000" xmlns="http://www.w3.org/2000/svg" />
<polygon id="1129" points="597 264.5,652.5 264.5,652.5 238.5,723 237.5,722 379,763 380,764 407.5,721 406.5,720 492.5,668 492,668 475.5,597 475.5" fill="#000000" stroke="#000000" xmlns="http://www.w3.org/2000/svg" />



</svg>
