<?xml version="1.0" encoding="UTF-8" standalone="no"?>
<!-- Created with Inkscape (http://www.inkscape.org/) -->

<svg xmlns:dc="http://purl.org/dc/elements/1.1/" xmlns:cc="http://creativecommons.org/ns#" xmlns:rdf="http://www.w3.org/1999/02/22-rdf-syntax-ns#" xmlns:svg="http://www.w3.org/2000/svg" xmlns="http://www.w3.org/2000/svg" xmlns:xlink="http://www.w3.org/1999/xlink" xmlns:sodipodi="http://sodipodi.sourceforge.net/DTD/sodipodi-0.dtd" xmlns:inkscape="http://www.inkscape.org/namespaces/inkscape" width="770" height="450" id="svg2" version="1.1" inkscape:version="0.47pre4 " sodipodi:docname="test.svg" style="display:inline">
<defs id="defs4">
<inkscape:perspective sodipodi:type="inkscape:persp3d" inkscape:vp_x="0 : 526.18109 : 1" inkscape:vp_y="0 : 1000 : 0" inkscape:vp_z="744.09448 : 526.18109 : 1" inkscape:persp3d-origin="372.04724 : 350.78739 : 1" id="perspective10" />
<inkscape:perspective id="perspective2832" inkscape:persp3d-origin="0.5 : 0.33333333 : 1" inkscape:vp_z="1 : 0.5 : 1" inkscape:vp_y="0 : 1000 : 0" inkscape:vp_x="0 : 0.5 : 1" sodipodi:type="inkscape:persp3d" />
<script type="text/ecmascript" id="script6">
		var fdat="",sdat="";
		function onAreaOver(evt){
			var ele=evt.target; 
			fdat=ele.getAttribute('fill'); 
			sdat=ele.getAttribute('stroke');
			ele.setAttribute('fill','#006fb6');//多边形填充颜色
			ele.setAttribute('stroke','#006fb6');//stroke 多边形 边框颜色
			
		}
		function onAreaOut(evt){
			var ele=evt.target; 
			ele.setAttribute('fill',fdat);
			ele.setAttribute('stroke',sdat);
		}
		</script>
<symbol overflow="visible" id="symbol" style="overflow:visible" xmlns="http://www.w3.org/2000/svg">
<path d="m 626,156 2,-2 2,-4 0,-3 -1,-3 -4,-3 -6,-3 -5,-2 -4,-2 -4,8 -6,14" id="path9" style="fill:#000000;stroke:none" />
</symbol>
</defs>
<sodipodi:namedview id="base" pagecolor="#ffffff" bordercolor="#666666" borderopacity="1.0" inkscape:pageopacity="0.0" inkscape:pageshadow="2" inkscape:zoom="5.6" inkscape:cx="583.1007" inkscape:cy="273.63795" inkscape:document-units="px" inkscape:current-layer="svg2" showgrid="false" inkscape:window-width="1280" inkscape:window-height="740" inkscape:window-x="-4" inkscape:window-y="-4" inkscape:window-maximized="1" />
<metadata id="metadata7">
<rdf:RDF>
<cc:Work>
<dc:format>
image/svg+xml</dc:format>
<dc:type rdf:resource="http://purl.org/dc/dcmitype/StillImage" />
<dc:title>
</dc:title>
</cc:Work>
</rdf:RDF>
</metadata>
<image xlink:href="luoyang1_1_n.jpg" width="770" height="450" id="image2834" x="-485" y="255.93361" transform="translate(485,-255.9336)" inkscape:label="Layer 1" inkscape:groupmode="layer" style="display:inline" />
<polygon id="N-45" points="734 224.5,734.5 237.5,745 237.5,745 224.5" fill="#000000" stroke="none" />
<polygon id="N-46" points="735 237,735 250,744.5 250,744.5 237" fill="#000000" stroke="none" stroke-opacity="0" />
<polygon id="N-47" points="709.5 225,709.5 238,729.5 238,729.5 224.5" fill="#000000" stroke="none" stroke-opacity="0" />
<polygon id="N-48" points="710 237.5,710 249.5,729.5 249.5,729.5 237.5" fill="#000000" stroke="none" stroke-opacity="0" />
<polygon id="N-49" points="694 224,694 238.5,704.5 238.5,704.5 224" fill="#000000" stroke="none" stroke-opacity="0" />
<polygon id="N-50" points="694.5 238.5,694.5 250,704 250,704 238" fill="#000000" stroke="none" stroke-opacity="0" />
<polygon id="N-51" points="649 229,649 245,678.5 245,678.5 229.5" fill="#000000" stroke="none" stroke-opacity="0" />
<polygon id="N-52" points="623 224,623 238,633 238,633 224" fill="#000000" stroke="none" stroke-opacity="0" />
<polygon id="N-53" points="623.5 238,623.5 249.5,633 249.5,633 237.5" fill="#000000" stroke="none" stroke-opacity="0" />
<polygon id="N-54" points="598.5 224.5,598.5 238,618.5 238,618.5 224.5" fill="#000000" stroke="none" stroke-opacity="0" />
<polygon id="N-55" points="599 237.5,599 249.5,618.5 249.5,618.5 237.5" fill="#000000" stroke="none" stroke-opacity="0" />
<polygon id="N-56" points="582 224.5,582 237.5,593 237.5,593 223.5" fill="#000000" stroke="none" stroke-opacity="0" />
<polygon id="N-57" points="582.5 237,582.5 250.5,593 250.5,593 237" fill="#000000" stroke="none" stroke-opacity="0" />
<polygon id="N-58" points="545 224,545 247,556.5 247,556.5 223.5" fill="#000000" stroke="none" stroke-opacity="0" />
<polygon id="N-59" points="527 220.5,527 246.5,541.5 246.5,541.5 220.5" fill="#000000" stroke="none" stroke-opacity="0" />
<polygon id="N-60" points="510.5 224,510.5 247.5,522.5 247.5,522.5 224" fill="#000000" stroke="none" stroke-opacity="0" />
<polygon id="N-61" points="495 226,495 250,504.5 250,504.5 225" fill="#000000" stroke="none" stroke-opacity="0" />
<polygon id="N-62" points="453.5 226.5,453.5 249,478.5 249,478.5 225.5" fill="#000000" stroke="none" stroke-opacity="0" />
<polygon id="N-63" points="416.5 228.5,416.5 250,427 250,427 228.5" fill="#000000" stroke="none" stroke-opacity="0" />
<polygon id="N-64" points="402 229,402 249,414 249,414.5 229" fill="#000000" stroke="none" stroke-opacity="0" />
<polygon id="N-65" points="370.5 229.5,370.5 250.5,399 250.5,399 229" fill="#000000" stroke="none" stroke-opacity="0" />
<polygon id="N-66" points="356.5 229,356.5 249,367.5 249,367.5 228.5" fill="#000000" stroke="none" stroke-opacity="0" />
<polygon id="N-67" points="342 228,342 249.5,352.5 249.5,352.5 228" fill="#000000" stroke="none" stroke-opacity="0" />
<polygon id="N-68" points="291 226.5,291 248.5,316.5 248.5,316.5 226.5" fill="#000000" stroke="none" stroke-opacity="0" />
<polygon id="N-69" points="244.5 222.5,244.5 247,256 247,256 222.5" fill="#000000" stroke="none" stroke-opacity="0" />
<polygon id="N-70" points="226 221.5,226 247,239.5 247,239.5 221.5" fill="#000000" stroke="none" stroke-opacity="0" />
<polygon id="N-71" points="209.5 223,209.5 247.5,222.5 247.5,222.5 223" fill="#000000" stroke="none" stroke-opacity="0" />
<polygon id="N-72" points="207.5 223.5,198.5 223.5,198.5 247,207.5 247" fill="#000000" stroke="none" stroke-opacity="0" />
<polygon id="N-73" points="172.5 223.5,172.5 237.5,183.5 237.5,183.5 224" fill="#000000" stroke="none" stroke-opacity="0" />
<polygon id="N-74" points="173 237,173 249.5,183 249.5,183 237" fill="#000000" stroke="none" stroke-opacity="0" />
<polygon id="N-75" points="148.5 224,148.5 237,167.5 237,167.5 224" fill="#000000" stroke="none" stroke-opacity="0" />
<polygon id="N-76" points="149 236,149 250,167 250,167 236" fill="#000000" stroke="none" stroke-opacity="0" />
<polygon id="N-77" points="132 224,132 238,143 238,143 224.5" fill="#000000" stroke="none" stroke-opacity="0" />
<polygon id="N-78" points="132.5 237.5,132.5 250,142.5 250,142.5 237" fill="#000000" stroke="none" stroke-opacity="0" />
<polygon id="N-79" points="87.5 228.5,87.5 245,118 245,118 228.5" fill="#000000" stroke="none" stroke-opacity="0" />
<polygon id="N-80" points="62.5 224.5,62.5 237.5,73 237.5,73 224" fill="#000000" stroke="none" stroke-opacity="0" />
<polygon id="N-81" points="62.5 237,62.5 249.5,72.5 249.5,72.5 237" fill="#000000" stroke="none" stroke-opacity="0" />
<polygon id="N-82" points="37 224,37 238.5,57 238.5,57 224.5" fill="#000000" stroke="none" stroke-opacity="0" />
<polygon id="N-83" points="37 239,37 250.5,57 250.5,57 239" fill="#000000" stroke="none" stroke-opacity="0" />
<polygon id="N-84" points="22 224.5,22 238.5,31 238.5,31 224.5" fill="#000000" stroke="none" stroke-opacity="0" />
<polygon id="N-85" points="22.5 238,22.5 249.5,31.5 249.5,31.5 238" fill="#000000" stroke="none" stroke-opacity="0" />


</svg>

