<?xml version="1.0" encoding="UTF-8" standalone="no"?>
<!-- Created with Inkscape (http://www.inkscape.org/) -->

<svg xmlns:dc="http://purl.org/dc/elements/1.1/" xmlns:cc="http://creativecommons.org/ns#" xmlns:rdf="http://www.w3.org/1999/02/22-rdf-syntax-ns#" xmlns:svg="http://www.w3.org/2000/svg" xmlns="http://www.w3.org/2000/svg" xmlns:xlink="http://www.w3.org/1999/xlink" xmlns:sodipodi="http://sodipodi.sourceforge.net/DTD/sodipodi-0.dtd" xmlns:inkscape="http://www.inkscape.org/namespaces/inkscape" width="770" height="600" id="svg2" version="1.1" inkscape:version="0.47pre4 " sodipodi:docname="test.svg" style="display:inline">
<defs id="defs4">
<inkscape:perspective sodipodi:type="inkscape:persp3d" inkscape:vp_x="0 : 526.18109 : 1" inkscape:vp_y="0 : 1000 : 0" inkscape:vp_z="744.09448 : 526.18109 : 1" inkscape:persp3d-origin="372.04724 : 350.78739 : 1" id="perspective10" />
<inkscape:perspective id="perspective2832" inkscape:persp3d-origin="0.5 : 0.33333333 : 1" inkscape:vp_z="1 : 0.5 : 1" inkscape:vp_y="0 : 1000 : 0" inkscape:vp_x="0 : 0.5 : 1" sodipodi:type="inkscape:persp3d" />
<script type="text/ecmascript" id="script6">
		var fdat="",sdat="";
		function onAreaOver(evt){
			var ele=evt.target; 
			fdat=ele.getAttribute('fill'); 
			sdat=ele.getAttribute('stroke');
			ele.setAttribute('fill','#006fb6');//多边形填充颜色
			ele.setAttribute('stroke','#006fb6');//stroke 多边形 边框颜色
			
		}
		function onAreaOut(evt){
			var ele=evt.target; 
			ele.setAttribute('fill',fdat);
			ele.setAttribute('stroke',sdat);
		}
		</script>
<symbol overflow="visible" id="symbol" style="overflow:visible" xmlns="http://www.w3.org/2000/svg">
<path d="m 626,156 2,-2 2,-4 0,-3 -1,-3 -4,-3 -6,-3 -5,-2 -4,-2 -4,8 -6,14" id="path9" style="fill:#000000;stroke:none" />
</symbol>
</defs>
<sodipodi:namedview id="base" pagecolor="#ffffff" bordercolor="#666666" borderopacity="1.0" inkscape:pageopacity="0.0" inkscape:pageshadow="2" inkscape:zoom="5.6" inkscape:cx="583.1007" inkscape:cy="273.63795" inkscape:document-units="px" inkscape:current-layer="svg2" showgrid="false" inkscape:window-width="1280" inkscape:window-height="740" inkscape:window-x="-4" inkscape:window-y="-4" inkscape:window-maximized="1" />
<metadata id="metadata7">
<rdf:RDF>
<cc:Work>
<dc:format>
image/svg+xml</dc:format>
<dc:type rdf:resource="http://purl.org/dc/dcmitype/StillImage" />
<dc:title>
</dc:title>
</cc:Work>
</rdf:RDF>
</metadata>
<image xlink:href="luoyang1_2_s.jpg" width="770" height="600" id="image2834" x="-485" y="255.93361" transform="translate(485,-255.9336)" inkscape:label="Layer 1" inkscape:groupmode="layer" style="display:inline" />
<polygon id="S-10" points="437 479,437 502,467.5 502,467.5 479" fill="#000000" stroke="none" />
<polygon id="S-11" points="342 507,368 507,368 478.5,341.5 478.5" fill="#000000" stroke="none" stroke-opacity="0" />
<polygon id="S-12" points="312.5 479,312.5 508,339 508,339 478.5" fill="#000000" stroke="none" stroke-opacity="0" />
<polygon id="S-13" points="283 479,283 507.5,309.5 507.5,309.5 478" fill="#000000" stroke="none" stroke-opacity="0" />
<polygon id="S-14" points="253.5 479,253.5 508,280.5 508,280.5 479" fill="#000000" stroke="none" stroke-opacity="0" />
<polygon id="S-15" points="226 479,226 507.5,250.5 507.5,250.5 479" fill="#000000" stroke="none" stroke-opacity="0" />
<polygon id="S-16" points="195.5 479.5,195.5 507.5,220.5 507.5,220.5 478.5" fill="#000000" stroke="none" stroke-opacity="0" />
<polygon id="S-17" points="165.5 479,165.5 508.5,192 508.5,192 479" fill="#000000" stroke="none" stroke-opacity="0" />
<polygon id="S-18" points="136 479,136 508,163 508,163 479" fill="#000000" stroke="none" stroke-opacity="0" />
<polygon id="S-19" points="107 479,107 507.5,134 507.5,134 479" fill="#000000" stroke="none" stroke-opacity="0" />
<polygon id="S-20" points="79 477,79 508,92 508,92 477" fill="#000000" stroke="none" stroke-opacity="0" />
<polygon id="S-21" points="50.5 477,50.5 508,76 508,76 476.5" fill="#000000" stroke="none" stroke-opacity="0" />
<polygon id="S-22" points="35 476,35 508,47.5 508,47.5 476.5" fill="#000000" stroke="none" stroke-opacity="0" />
<polygon id="S-23" points="710 173,710 201.5,724 201.5,724 173" fill="#000000" stroke="none" stroke-opacity="0" />
<polygon id="S-24" points="679 173.5,679 202,707 202,707 173" fill="#000000" stroke="none" stroke-opacity="0" />
<polygon id="S-25" points="662.5 173.5,662.5 201,675 201,675 173" fill="#000000" stroke="none" stroke-opacity="0" />
<polygon id="S-26" points="618 175,618 201,644.5 201,644.5 174.5" fill="#000000" stroke="none" stroke-opacity="0" />
<polygon id="S-27" points="585 175.5,585 202.5,613 202.5,613 175.5" fill="#000000" stroke="none" stroke-opacity="0" />
<polygon id="S-28" points="553.5 175,553.5 202,581 202,581 175" fill="#000000" stroke="none" stroke-opacity="0" />
<polygon id="S-29" points="523 175,523 201.5,550 201.5,550 174.5" fill="#000000" stroke="none" stroke-opacity="0" />
<polygon id="S-30" points="491 175.5,491 201.5,517.5 201.5,517.5 175.5" fill="#000000" stroke="none" stroke-opacity="0" />
<polygon id="S-31" points="459 175,459 201.5,486.5 201.5,486.5 175" fill="#000000" stroke="none" stroke-opacity="0" />
<polygon id="S-32" points="427.5 175,427.5 202,455 202,455 175" fill="#000000" stroke="none" stroke-opacity="0" />
<polygon id="S-33" points="395.5 175.5,395.5 202,423 202,423 175.5" fill="#000000" stroke="none" stroke-opacity="0" />
<polygon id="S-34" points="363.5 175,363.5 201,391.5 201,391.5 174.5" fill="#000000" stroke="none" stroke-opacity="0" />
<polygon id="S-35" points="255.5 175.5,255.5 196,289 196,289 175" fill="#000000" stroke="none" stroke-opacity="0" />
</svg>

