<?xml version="1.0" encoding="UTF-8" standalone="no"?>
<!-- Created with Inkscape (http://www.inkscape.org/) -->

<svg xmlns:dc="http://purl.org/dc/elements/1.1/" xmlns:cc="http://creativecommons.org/ns#" xmlns:rdf="http://www.w3.org/1999/02/22-rdf-syntax-ns#" xmlns:svg="http://www.w3.org/2000/svg" xmlns="http://www.w3.org/2000/svg" xmlns:xlink="http://www.w3.org/1999/xlink" xmlns:sodipodi="http://sodipodi.sourceforge.net/DTD/sodipodi-0.dtd" xmlns:inkscape="http://www.inkscape.org/namespaces/inkscape" width="770" height="410" id="svg2" version="1.1" inkscape:version="0.47pre4 " sodipodi:docname="test.svg" style="display:inline" stroke="#000000">
<defs id="defs4">
<inkscape:perspective sodipodi:type="inkscape:persp3d" inkscape:vp_x="0 : 526.18109 : 1" inkscape:vp_y="0 : 1000 : 0" inkscape:vp_z="744.09448 : 526.18109 : 1" inkscape:persp3d-origin="372.04724 : 350.78739 : 1" id="perspective10" />
<inkscape:perspective id="perspective2832" inkscape:persp3d-origin="0.5 : 0.33333333 : 1" inkscape:vp_z="1 : 0.5 : 1" inkscape:vp_y="0 : 1000 : 0" inkscape:vp_x="0 : 0.5 : 1" sodipodi:type="inkscape:persp3d" />
<script type="text/ecmascript" id="script6">
		var fdat="",sdat="";
		function onAreaOver(evt){
			var ele=evt.target; 
			fdat=ele.getAttribute('fill'); 
			sdat=ele.getAttribute('stroke');
			ele.setAttribute('fill','#006fb6');//多边形填充颜色
			ele.setAttribute('stroke','#006fb6');//stroke 多边形 边框颜色
			
		}
		function onAreaOut(evt){
			var ele=evt.target; 
			ele.setAttribute('fill',fdat);
			ele.setAttribute('stroke',sdat);
		}
		</script>
<symbol overflow="visible" id="symbol" style="overflow:visible" xmlns="http://www.w3.org/2000/svg">
<path d="m 626,156 2,-2 2,-4 0,-3 -1,-3 -4,-3 -6,-3 -5,-2 -4,-2 -4,8 -6,14" id="path9" style="fill:#000000;stroke:none" />
</symbol>
</defs>
<sodipodi:namedview id="base" pagecolor="#ffffff" bordercolor="#666666" borderopacity="1.0" inkscape:pageopacity="0.0" inkscape:pageshadow="2" inkscape:zoom="5.6" inkscape:cx="583.1007" inkscape:cy="273.63795" inkscape:document-units="px" inkscape:current-layer="svg2" showgrid="false" inkscape:window-width="1280" inkscape:window-height="740" inkscape:window-x="-4" inkscape:window-y="-4" inkscape:window-maximized="1" />
<metadata id="metadata7">
<rdf:RDF>
<cc:Work>
<dc:format>
				image/svg+xml</dc:format>
<dc:type rdf:resource="http://purl.org/dc/dcmitype/StillImage" />
<dc:title>
</dc:title>
</cc:Work>
</rdf:RDF>
</metadata>
<image xlink:href="bengbu_mall_a_4f.png" width="770" height="410" id="image2834" x="-485" y="255.93361" transform="translate(485,-255.9336)" inkscape:label="Layer 1" inkscape:groupmode="layer" style="display:inline" />
<polygon id="A1-4001" points="617.5 63.75,623.25 87.75,644.25 80.75,658.25 82.25,668.75 74.75,673.75 58.75,665.25 45.75,650 42.5,637 49.75,632.25 60.75" fill="#000000" stroke="none" stroke-opacity="0" />
<polygon id="A1-4002" points="605 77.25,607.5 89,617.25 86,614.25 75" fill="#000000" stroke="none" stroke-opacity="0" />
<polygon id="A1-4003" points="595.5 78.25,598 91,608 89.25,605 77" fill="#000000" stroke="none" stroke-opacity="0" />
<polygon id="A1-4004" points="582.5 56.25,591.25 55,597.75 90.75,589 91.75" fill="#000000" stroke="none" stroke-opacity="0" />
<polygon id="A1-4005" points="573 57.75,579.75 94.75,588.5 93,582.25 55.25" fill="#000000" stroke="none" stroke-opacity="0" />
<polygon id="A1-4006" points="564.25 59,570.25 95.5,579.5 94.5,573.25 57.5" fill="#000000" stroke="none" stroke-opacity="0" />
<polygon id="A1-4007" points="564.25 58.75,570.75 95.5,561 97.25,555.25 61.5" fill="#000000" stroke="none" stroke-opacity="0" />
<polygon id="A1-4008" points="555.5 61,561.5 97.25,551.25 97.75,546.25 62.25" fill="#000000" stroke="none" stroke-opacity="0" />
<polygon id="A1-4009" points="538.75 64,542.75 99.75,551.5 99,547.5 62.5" fill="#000000" stroke="none" stroke-opacity="0" />
<polygon id="A1-4010" points="529.5 89.75,530.25 102.25,543 100,541.25 87" fill="#000000" stroke="none" stroke-opacity="0" />
<polygon id="A1-4011" points="538.5 63.25,540.25 78.75,522.75 80.5,523.75 103,489 106.75,478 112,462.75 109.5,453 95.25,456.75 81.25,465.5 75.25,474 72.5,485 76,493.5 83.25,506.75 66.25" fill="#000000" stroke="none" stroke-opacity="0" />
<polygon id="A2-4001" points="664.75 122.625,683.5 117.125,689.625 137.375,714.75 129.75,708.375 109.25,699.125 110.375,689.25 104.25,673 102.25,660.125 103.75" fill="#000000" stroke="none" stroke-opacity="0" xmlns="http://www.w3.org/2000/svg" />
<polygon id="A2-4002" points="595.875 125.875,600.125 148,610.125 146.25,605.625 124" fill="#000000" stroke="none" stroke-opacity="0" />
<polygon id="A2-4003" points="596 125.75,600.125 148,590.5 149.5,586.375 127.875" fill="#000000" stroke="none" stroke-opacity="0" />
<polygon id="A2-4004" points="576.75 129.25,586.625 127.25,590.125 149.625,579.875 151.375" fill="#000000" stroke="none" stroke-opacity="0" />
<polygon id="A2-4005" points="570.5 153.25,580.5 151.5,576.75 128.75,567.75 130.75" fill="#000000" stroke="none" stroke-opacity="0" />
<polygon id="A2-4006" points="558 133,560.25 154.75,572 153.75,568.25 130.75" fill="#000000" stroke="none" stroke-opacity="0" />
<polygon id="A2-4007" points="558.25 132.5,560.5 154.75,551.75 156,548.25 133.75" fill="#000000" stroke="none" stroke-opacity="0" />
<polygon id="A2-4008" points="539 134.75,539.75 147.75,550 146.5,549 133.5" fill="#000000" stroke="none" stroke-opacity="0" />
<polygon id="A2-4009" points="529 136.5,530.75 149.5,541.25 148,539.25 134.25" fill="#000000" stroke="none" stroke-opacity="0" xmlns="http://www.w3.org/2000/svg" />
<polygon id="A2-4010" points="531 149,532 162.25,552 160,550.5 146.25" fill="#000000" stroke="none" stroke-opacity="0" />
<polygon id="A2-4011" points="533.25 168,534.75 178.5,544.5 176.75,544 166.5" fill="#000000" stroke="none" stroke-opacity="0" />
<polygon id="A2-4012" points="534.25 178.75,535.75 188.25,547.25 187.25,545 176" fill="#000000" stroke="none" stroke-opacity="0" />
<polygon id="A2-4013" points="536.25 187.75,537 198.25,557.625 195.375,556.25 184.625" fill="#000000" stroke="none" stroke-opacity="0" />
<polygon id="A2-4014" points="537.5 197.25,537.75 207.25,558.875 205,557.5 194.875" fill="#000000" stroke="none" stroke-opacity="0" />
<polygon id="A2-4015" points="537.75 206.5,539 217.25,560.25 214.25,558.625 203.25" fill="#000000" stroke="none" stroke-opacity="0" />
<polygon id="A2-4016" points="538.75 216.5,539.5 227.25,561.5 223,560.75 213.5" fill="#000000" stroke="none" stroke-opacity="0" />
<polygon id="A2-4017" points="539.75 226.5,540.75 237,563.25 234.5,562 223.25" fill="#000000" stroke="none" stroke-opacity="0" />
<polygon id="A2-4018" points="540.75 237.5,542.5 245.5,564.5 242.75,563.75 234.25" fill="#000000" stroke="none" stroke-opacity="0" />
<polygon id="A2-4019" points="542.25 245,543.5 255.5,565.625 253.25,564.5 241.75" fill="#000000" stroke="none" stroke-opacity="0" />
<polygon id="A2-4020" points="544 254.5,545.25 266,567.25 263.5,565.375 253" fill="#000000" stroke="none" stroke-opacity="0" />
<polygon id="A2-4021" points="549.75 303.5,551.25 314.5,574.25 312.25,572.375 300.75" fill="#000000" stroke="none" stroke-opacity="0" />
<polygon id="A2-4022" points="551.25 314.25,552.375 325.5,577.125 322.125,574.625 311.25" fill="#000000" stroke="none" stroke-opacity="0" />
<polygon id="A2-4023" points="528.25 321.25,518.5 337.25,524.5 342.5,519 347.75,533.5 358.75,538 352,556.75 351.375,554.125 329.5,543.25 329.75" fill="#000000" stroke="none" stroke-opacity="0" />
<polygon id="A2-4024" points="510.75 333,518.75 338.75,528.25 321.25,519.75 316.5" fill="#000000" stroke="none" stroke-opacity="0" />
<polygon id="A2-4025" points="512.5 313,521 316.25,511.25 335.5,504 330.75" fill="#000000" stroke="none" stroke-opacity="0" />
<polygon id="A2-4026" points="503.75 309,513.25 313.25,505 329.75,496.25 327.5" fill="#000000" stroke="none" stroke-opacity="0" />
<polygon id="A2-4027" points="494.75 305.5,504.5 309,496.25 328.75,489.25 324" fill="#000000" stroke="none" stroke-opacity="0" />
<polygon id="A2-4028" points="461.5 298.25,458.75 323.75,464.25 333,474.75 336.25,484.5 331.75,490.25 325.25,494.75 305.25,483.75 301.5,470.25 298.5" fill="#000000" stroke="none" stroke-opacity="0" />
<polygon id="A2-4029" points="454 287,467.5 288.25,486.75 292.5,480.5 283,483.75 278.75,478.75 272.25,470 278" fill="#000000" stroke="none" stroke-opacity="0" />
<polygon id="A2-4030" points="480.75 283.75,486.5 292.75,494.25 285.25,487.25 276.5" fill="#000000" stroke="none" stroke-opacity="0" />
<polygon id="A2-4031" points="487.25 276,494 286.25,501.75 278.5,494 270.75" fill="#000000" stroke="none" stroke-opacity="0" />
<polygon id="A2-4032" points="493.75 270.25,501.75 279.25,508.75 272.25,499.5 264" fill="#000000" stroke="none" stroke-opacity="0" />
<polygon id="A2-4033" points="497 252.5,514 263.5,518.75 254,501 245" fill="#000000" stroke="none" stroke-opacity="0" />
<polygon id="A2-4034" points="500.375 245.5,518.75 255,522.75 246,504.25 237.75" fill="#000000" stroke="none" stroke-opacity="0" />
<polygon id="A2-4035" points="504 238,522.75 246.5,525.5 237.25,506.5 231.25" fill="#000000" stroke="none" stroke-opacity="0" />
<polygon id="A2-4036" points="506.25 231.625,526.5 238,527.75 226.25,507 224.5" fill="#000000" stroke="none" stroke-opacity="0" />
<polygon id="A2-4037" points="507.5 225,527.75 226.5,528.25 216.75,508.25 216.5" fill="#000000" stroke="none" stroke-opacity="0" />
<polygon id="A2-4038" points="508.25 209.5,508.25 218.125,528 218,528.75 206.5" fill="#000000" stroke="none" stroke-opacity="0" />
<polygon id="A2-4039" points="508.75 209.25,529 208,526.5 197,507.75 201.25" fill="#000000" stroke="none" stroke-opacity="0" />
<polygon id="A2-4040" points="505.75 194,508.25 202.25,527.5 198.5,524.25 187.25" fill="#000000" stroke="none" stroke-opacity="0" />
<polygon id="A2-4041" points="502 186.25,506.375 195.25,524.5 189.75,521.25 178.25" fill="#000000" stroke="none" stroke-opacity="0" />
<polygon id="A2-4042" points="500 180.25,502.25 187.5,522.25 180.25,517 169.5" fill="#000000" stroke="none" stroke-opacity="0" />
<polygon id="A2-4043" points="497.25 161.5,502.5 168.75,512.5 162,506 154" fill="#000000" stroke="none" stroke-opacity="0" />
<polygon id="A2-4044" points="491 155,497.5 161.25,506.25 153.75,499.25 147" fill="#000000" stroke="none" stroke-opacity="0" />
<polygon id="A2-4045" points="479.5 156,483.5 160.25,488.75 151.75,493 156.25,500 147,490.5 140" fill="#000000" stroke="none" stroke-opacity="0" />
<polygon id="A2-4046" points="466.75 148,479.5 156.25,491.25 139.75,470 141.5" fill="#000000" stroke="none" stroke-opacity="0" />
<polygon id="A2-4047" points="440.5 161.5,451 162.25,459 167,469.5 141.5,453.5 142.5,444.75 144.75,439.75 153.5" fill="#000000" stroke="none" stroke-opacity="0" />
<polygon id="A2-4048" points="458 166,465.5 170.25,476.75 154.5,466.75 147.75" fill="#000000" stroke="none" stroke-opacity="0" />
<polygon id="A2-4049" points="465.5 169.5,472.25 176.25,485.25 161.5,476 153.5" fill="#000000" stroke="none" stroke-opacity="0" />
<polygon id="A2-4050" points="472.5 176.25,480.25 184.5,496.75 172.75,486 161.25" fill="#000000" stroke="none" stroke-opacity="0" />
<polygon id="A2-4051" points="481.25 189.5,485.75 197.5,504.5 191,499.25 178.75" fill="#000000" stroke="none" stroke-opacity="0" />
<polygon id="A2-4052" points="486.25 196.25,487.75 205.5,508.25 202.25,505 189.75" fill="#000000" stroke="none" stroke-opacity="0" />
<polygon id="A2-4053" points="488.25 205,488.5 213.75,508.75 214.25,508.5 201.5" fill="#000000" stroke="none" stroke-opacity="0" />
<polygon id="A2-4054" points="489 214.25,488.75 222,507.75 225.25,508.5 213.25" fill="#000000" stroke="none" stroke-opacity="0" />
<polygon id="A2-4055" points="489 220.75,485.75 229.5,506.125 235.625,507.375 224.5" fill="#000000" stroke="none" stroke-opacity="0" />
<polygon id="A2-4056" points="486.5 230,480.25 243,497.5 252.75,506 234.25" fill="#000000" stroke="none" stroke-opacity="0" />
<polygon id="A2-4057" points="477.75 247.25,493.75 259.75,479.75 272.75,467.5 256.75" fill="#000000" stroke="none" stroke-opacity="0" />
<polygon id="A2-4058" points="467.75 256.5,479.25 272.5,469.5 279.125,459.5 261.25" fill="#000000" stroke="none" stroke-opacity="0" />
<polygon id="A2-4059" points="459.5 261.25,470 279.5,459.25 284.5,452.5 266" fill="#000000" stroke="none" stroke-opacity="0" />
<polygon id="A2-4060" points="459.5 284.75,452.25 265.5,442.75 268.25,444.5 285.75,451.5 288.5" fill="#000000" stroke="none" stroke-opacity="0" />
<polygon id="A2-4061" points="555.5 264,561.5 303,571.5 301,576.5 321.5,553.5 325,557.5 363,588 362.5,652.5 348.5,721.5 332.5,720.5 319,744 318.5,750 303,741.5 287,761 281.5,711.5 131,689.5 136.5,683 116,666.5 121,609 135.5,608 145,552 154,542 161,542.5 167.5,547 187,556 185,566.5 261" fill="#000000" stroke="none" stroke-opacity="0" />
<polygon id="A3-4001" points="327.25 68.75,356.5 70.25,372.25 86,381.25 72,399.5 71.5,414 85.25,414 106.25,397.75 119,380 117.25,375 109.25,339.5 107.75,340.5 86.25,323.5 83.5" fill="#000000" stroke="none" stroke-opacity="0" />
<polygon id="A3-4002" points="321 94,334 94,334 107,321 105.75" fill="#000000" stroke="none" stroke-opacity="0" />
<polygon id="A3-4003" points="323 67.75,320.25 105.25,311 104,314.25 67.25" fill="#000000" stroke="none" stroke-opacity="0" />
<polygon id="A3-4004" points="306.5 66.5,301.25 103,311.25 103.75,315 67" fill="#000000" stroke="none" stroke-opacity="0" />
<polygon id="A3-4005" points="297 65.25,306.75 66.25,302.5 102.5,293.25 102.25" fill="#000000" stroke="none" stroke-opacity="0" />
<polygon id="A3-4006" points="288 64,284 100.5,293.5 102.5,297.75 65" fill="#000000" stroke="none" stroke-opacity="0" />
<polygon id="A3-4007" points="280 62.75,288.75 64,284.5 101.25,274.75 100.25" fill="#000000" stroke="none" stroke-opacity="0" />
<polygon id="A3-4008" points="271.25 61.25,280.25 62,274.75 99.5,265.25 98.5" fill="#000000" stroke="none" stroke-opacity="0" />
<polygon id="A3-4009" points="262.5 58.75,271.5 61,266.25 98.5,255.5 97" fill="#000000" stroke="none" stroke-opacity="0" />
<polygon id="A3-4010" points="253.5 56.25,263.25 58.25,255.5 96.75,246.5 95.25" fill="#000000" stroke="none" stroke-opacity="0" />
<polygon id="A3-4011" points="244.25 60.5,237.25 93,246.75 95.25,252.75 62.75" fill="#000000" stroke="none" stroke-opacity="0" />
<polygon id="A3-4012" points="244.25 60.75,237.25 92.75,228.25 91,235.25 60.5" fill="#000000" stroke="none" stroke-opacity="0" />
<polygon id="A3-4013" points="235.25 60,228.75 90.25,219.75 88.5,226 58" fill="#000000" stroke="none" stroke-opacity="0" />
<polygon id="A3-4014" points="216 56,226.25 58.25,220.25 89.25,210.25 87.75" fill="#000000" stroke="none" stroke-opacity="0" />
<polygon id="A3-4015" points="216.75 56.5,210.75 86.75,200.75 85.5,208.25 55" fill="#000000" stroke="none" stroke-opacity="0" />
<polygon id="A3-4016" points="199.75 52.25,208.75 54.25,201.25 85.75,192 83.75" fill="#000000" stroke="none" stroke-opacity="0" />
<polygon id="A3-4017" points="183 80.75,192.5 84,201.25 47.5,191.75 44.75" fill="#000000" stroke="none" stroke-opacity="0" />
<polygon id="A3-4018" points="173.75 78.25,183.25 80.75,192.25 44.25,183.75 42.5" fill="#000000" stroke="none" stroke-opacity="0" />
<polygon id="A3-4019" points="169.75 48.5,181.75 51,174.75 79.25,162.25 76" fill="#000000" stroke="none" stroke-opacity="0" />
<polygon id="A3-4020" points="146.75 71.5,156.5 74,159.25 61.75,150.5 59" fill="#000000" stroke="none" stroke-opacity="0" />
<polygon id="A3-4021" points="141.5 57,150.25 59.25,147.25 72,137.25 69.25" fill="#000000" stroke="none" stroke-opacity="0" />
<polygon id="A3-4022" points="137.75 68.75,150.25 33.75,135.75 29,121 38,112.75 22,95.25 14.25,76.75 22,71 40.75,75.75 57.5,95.25 63.5,97.75 54.75" fill="#000000" stroke="none" stroke-opacity="0" />
<polygon id="A4-4001" points="418.75 265.5,412 289.5,426.25 288.25,428.5 268.5" fill="#000000" stroke="none" stroke-opacity="0" />
<polygon id="A4-4002" points="402.5 280.5,413.25 285.25,418.75 265.875,409.5 262" fill="#000000" stroke="none" stroke-opacity="0" />
<polygon id="A4-4003" points="410 263.5,402.5 281,391.5 274,402.75 258" fill="#000000" stroke="none" stroke-opacity="0" />
<polygon id="A4-4004" points="403.25 257.5,392 274.5,383.25 266.75,396.75 252.75" fill="#000000" stroke="none" stroke-opacity="0" />
<polygon id="A4-4005" points="369.5 249.75,386.75 240.75,383.25 231.5,365 238.5" fill="#000000" stroke="none" stroke-opacity="0" />
<polygon id="A4-4006" points="364.75 238.5,383.75 232,381.5 223,361.5 227" fill="#000000" stroke="none" stroke-opacity="0" />
<polygon id="A4-4007" points="361 215.75,362.25 227.25,381.5 224.75,380.5 216" fill="#000000" stroke="none" stroke-opacity="0" />
<polygon id="A4-4008" points="360.25 215.75,380.75 215.75,381 207,361 204" fill="#000000" stroke="none" stroke-opacity="0" />
<polygon id="A4-4009" points="361.5 203.75,381 208,382.75 198.5,364 193" fill="#000000" stroke="none" stroke-opacity="0" />
<polygon id="A4-4010" points="364 192.5,383 198.5,386.25 191,368.5 182.25" fill="#000000" stroke="none" stroke-opacity="0" />
<polygon id="A4-4011" points="371.5 175.75,389 187,395.75 177.25,381 163.75" fill="#000000" stroke="none" stroke-opacity="0" />
<polygon id="A4-4012" points="380.75 163.5,395.5 177.25,402.25 171.75,390.25 155.5" fill="#000000" stroke="none" stroke-opacity="0" />
<polygon id="A4-4013" points="390.25 155.5,402 172.25,409.75 168,398.5 150" fill="#000000" stroke="none" stroke-opacity="0" />
<polygon id="A4-4014" points="409.5 167.75,426.5 162.25,426.75 152,419 144.5,394.75 144" fill="#000000" stroke="none" stroke-opacity="0" xmlns="http://www.w3.org/2000/svg" />
<polygon id="A4-4015" points="377.5 155.25,383.75 161.5,399 150,395.5 143,374 142.75,381.75 150.75" fill="#000000" stroke="none" stroke-opacity="0" />
<polygon id="A4-4016" points="366.25 149.75,374.75 158.25,381.75 151,373.25 142.25" fill="#000000" stroke="none" stroke-opacity="0" />
<polygon id="A4-4017" points="366 149.5,375.25 158.25,369 163.5,359.75 157.5" fill="#000000" stroke="none" stroke-opacity="0" />
<polygon id="A4-4018" points="354.5 165.25,364.5 171.75,369.25 164,360 156.75" fill="#000000" stroke="none" stroke-opacity="0" />
<polygon id="A4-4019" points="350 173.75,359.75 178.75,355.5 187.25,346.5 183" fill="#000000" stroke="none" stroke-opacity="0" />
<polygon id="A4-4020" points="346.5 182,355.25 186.5,353.75 194,344.25 193" fill="#000000" stroke="none" stroke-opacity="0" />
<polygon id="A4-4021" points="343.75 192.5,341.25 202,361 204.5,362.5 196.25" fill="#000000" stroke="none" stroke-opacity="0" />
<polygon id="A4-4022" points="341.5 201.5,340.75 211.25,360.5 213.25,360.5 204.5" fill="#000000" stroke="none" stroke-opacity="0" />
<polygon id="A4-4023" points="341 210.75,340.75 221.5,361.5 221.75,360.5 212.75" fill="#000000" stroke="none" stroke-opacity="0" />
<polygon id="A4-4024" points="340.25 221.25,342.25 232.25,362 228.75,361.5 220" fill="#000000" stroke="none" stroke-opacity="0" />
<polygon id="A4-4025" points="341.75 232.25,345 241.75,364.25 235,362 227.25" fill="#000000" stroke="none" stroke-opacity="0" />
<polygon id="A4-4026" points="345.75 240.5,348 250.5,367 242.75,364 234.25" fill="#000000" stroke="none" stroke-opacity="0" />
<polygon id="A4-4027" points="347.75 250.5,352.5 259.75,370.5 249,366.25 241.75" fill="#000000" stroke="none" stroke-opacity="0" />
<polygon id="A4-4028" points="352.75 259,357 267.75,373.25 256.25,369 249.75" fill="#000000" stroke="none" stroke-opacity="0" />
<polygon id="A4-4029" points="371.25 267.375,377.75 273.125,369.25 282,361.375 274.125" fill="#000000" stroke="none" stroke-opacity="0" />
<polygon id="A4-4030" points="369.875 281.625,377.5 288.75,384.125 279.5,377.375 273.125" fill="#000000" stroke="none" stroke-opacity="0" />
<polygon id="A4-4031" points="377.25 288.5,386 294.75,391.25 284.5,383.75 279.25" fill="#000000" stroke="none" stroke-opacity="0" />
<polygon id="A4-4032" points="411.875 289.75,413.375 285.125,393 275,386.625 281.25,390.5 285,385.75 295.125" fill="#000000" stroke="none" stroke-opacity="0" />
<polygon id="A4-4033" points="376.875 309.125,385.625 331.125,395.875 338.25,407.25 336.5,415.25 325.5,413 309.25,411.875 298.75,397.625 300.125,386.75 302.625" fill="#000000" stroke="none" stroke-opacity="0" />
<polygon id="A4-4034" points="368.375 312.625,377.25 331.25,384.875 326.625,377 309" fill="#000000" stroke="none" stroke-opacity="0" />
<polygon id="A4-4035" points="359.5 316.25,368.25 312,377.5 331.5,371 335" fill="#000000" stroke="none" stroke-opacity="0" />
<polygon id="A4-4036" points="359.5 316.25,371 334.5,364.25 339,353 321.25" fill="#000000" stroke="none" stroke-opacity="0" />
<polygon id="A4-4037" points="352.75 320.5,364 339,356 344.25,345.25 324.75" fill="#000000" stroke="none" stroke-opacity="0" />
<polygon id="A4-4038" points="322.75 356.25,338.25 356.5,343 363.25,356.25 351.75,349.75 346.25,354.75 340.75,345 325,333.25 332.5,325.25 338.5" fill="#000000" stroke="none" stroke-opacity="0" />
<polygon id="A4-4039" points="297.75 327,297.25 338.5,322 339.25,322.25 327.5" fill="#000000" stroke="none" stroke-opacity="0" xmlns="http://www.w3.org/2000/svg" />
<polygon id="A4-4040" points="299.5 307,298.5 322.25,323.25 323.5,323.75 308.75" fill="#000000" stroke="none" stroke-opacity="0" xmlns="http://www.w3.org/2000/svg" />
<polygon id="A4-4041" points="304.75 258.5,304.25 269.25,327 271,327.5 259.75" fill="#000000" stroke="none" stroke-opacity="0" />
<polygon id="A4-4042" points="306 249,305 259.25,327.25 260.5,328.75 250" fill="#000000" stroke="none" stroke-opacity="0" />
<polygon id="A4-4043" points="306.75 238.5,306 250,328.25 251.5,329.25 240.5" fill="#000000" stroke="none" stroke-opacity="0" />
<polygon id="A4-4044" points="307.75 228.75,306.5 239.25,330 243.25,330.25 230.75" fill="#000000" stroke="none" stroke-opacity="0" />
<polygon id="A4-4045" points="308.5 230.25,330 232.5,330.5 220.75,309.5 219.25" fill="#000000" stroke="none" stroke-opacity="0" />
<polygon id="A4-4046" points="308.5 221,330.75 222.25,331.75 210.75,310 209.5" fill="#000000" stroke="none" stroke-opacity="0" />
<polygon id="A4-4047" points="310.5 200.25,310.25 212,331.75 212.75,332.25 200.75" fill="#000000" stroke="none" stroke-opacity="0" />
<polygon id="A4-4048" points="312.25 190,311 200.75,331.75 202.25,332.75 191.75" fill="#000000" stroke="none" stroke-opacity="0" />
<polygon id="A4-4049" points="322.25 181.75,322.25 191.5,333 192.5,334.25 181.75" fill="#000000" stroke="none" stroke-opacity="0" />
<polygon id="A4-4050" points="323.5 172.5,322.5 182.25,335 182.75,334.5 172" fill="#000000" stroke="none" stroke-opacity="0" />
<polygon id="A4-4051" points="315.25 150.5,314.75 165.25,335.5 168,336.5 152" fill="#000000" stroke="none" stroke-opacity="0" />
<polygon id="A4-4052" points="326.75 138.5,326.25 151.25,336.25 152.5,336.25 139.75" fill="#000000" stroke="none" stroke-opacity="0" />
<polygon id="A4-4053" points="317.25 138.75,317 152.75,326.25 152.25,327 138.75" fill="#000000" stroke="none" stroke-opacity="0" />
<polygon id="A4-4054" points="306.75 138.5,305.5 160,315.5 161.75,317.5 139.25" fill="#000000" stroke="none" stroke-opacity="0" />
<polygon id="A4-4055" points="307.25 137.75,305.25 160,295.75 159,297 136.75" fill="#000000" stroke="none" stroke-opacity="0" />
<polygon id="A4-4056" points="296.75 136.75,295.5 159,286 157.75,287 136.25" fill="#000000" stroke="none" stroke-opacity="0" xmlns="http://www.w3.org/2000/svg" />
<polygon id="A4-4057" points="287.25 136.25,285.5 158.25,275.75 156.75,278.75 135" fill="#000000" stroke="none" stroke-opacity="0" xmlns="http://www.w3.org/2000/svg" />
<polygon id="A4-4058" points="260.75 155.5,275.75 157.5,278.75 135.5,265 133.25" fill="#000000" stroke="none" stroke-opacity="0" xmlns="http://www.w3.org/2000/svg" />
<polygon id="A4-4059" points="248 142.25,257.75 144.75,260.25 132,250.5 129.75" fill="#000000" stroke="none" stroke-opacity="0" />
<polygon id="A4-4060" points="250 129.75,248.25 141.75,238.5 141,240.25 128" fill="#000000" stroke="none" stroke-opacity="0" />
<polygon id="A4-4061" points="226.25 148,237.5 150.75,240.75 128.25,230.75 126.25" fill="#000000" stroke="none" stroke-opacity="0" />
<polygon id="A4-4062" points="231 126.25,227.25 147.75,216.75 146.5,222.25 124.75" fill="#000000" stroke="none" stroke-opacity="0" />
<polygon id="A4-4063" points="212 123.25,207.5 145,217 146.75,221.75 125.25" fill="#000000" stroke="none" stroke-opacity="0" />
<polygon id="A4-4064" points="202.75 121.25,198 143,208.75 145,212.25 123" fill="#000000" stroke="none" stroke-opacity="0" />
<polygon id="A4-4065" points="203.5 120.5,198.5 143.25,188.25 140.5,193.25 119.25" fill="#000000" stroke="none" stroke-opacity="0" />
<polygon id="A4-4066" points="193 119.25,188.5 141,178 138.75,183.75 117" fill="#000000" stroke="none" stroke-opacity="0" />
<polygon id="A4-4067" points="183.5 116.75,178.5 138.25,168.25 135.75,173.75 114.5" fill="#000000" stroke="none" stroke-opacity="0" />
<polygon id="A4-4068" points="174 114.5,168.75 135.5,159.5 133.5,165 112" fill="#000000" stroke="none" stroke-opacity="0" />
<polygon id="A4-4069" points="165.5 111.75,159 133.75,149.5 131,155.25 109.25" fill="#000000" stroke="none" stroke-opacity="0" />
<polygon id="A4-4070" points="155.5 109.75,149.75 131,140.25 128.25,146.25 106.75" fill="#000000" stroke="none" stroke-opacity="0" />
<polygon id="A4-4071" points="133 103.5,147 107,141 129.25,126.5 125" fill="#000000" stroke="none" stroke-opacity="0" />
<polygon id="A4-4072" points="114.5 110,124.5 113.75,128 102.5,118 98.75" fill="#000000" stroke="none" stroke-opacity="0" />
<polygon id="A4-4073" points="105.5 107.75,115 110,118.5 98,109.25 95.5" fill="#000000" stroke="none" stroke-opacity="0" />
<polygon id="A4-4074" points="93.75 113.25,103 116.5,110.25 95.5,99.25 93.25" fill="#000000" stroke="none" stroke-opacity="0" />
<polygon id="A4-4075" points="74.75 107.75,93.75 114.25,100.75 93.75,90.75 92.5,80 98.25" fill="#000000" stroke="none" stroke-opacity="0" />
<polygon id="A4-4076" points="73 107.75,71 115.75,91.5 123.5,94.5 114.25" fill="#000000" stroke="none" stroke-opacity="0" />
<polygon id="A4-4077" points="70.75 115.25,68.5 126,88 132.5,92.25 122.5" fill="#000000" stroke="none" stroke-opacity="0" />
<polygon id="A4-4078" points="87.75 132,84 142.5,64.75 135.25,69 123.5" fill="#000000" stroke="none" stroke-opacity="0" />
<polygon id="A4-4079" points="64.25 133.75,61.75 144.25,80.5 151.75,84.5 140.5" fill="#000000" stroke="none" stroke-opacity="0" />
<polygon id="A4-4080" points="80.5 152,77.75 160.25,58 153.5,61.75 142.75" fill="#000000" stroke="none" stroke-opacity="0" />
<polygon id="A4-4081" points="77.5 159.75,74.25 170,54 163.75,57.75 153.5" fill="#000000" stroke="none" stroke-opacity="0" />
<polygon id="A4-4082" points="54.25 163,51.5 171.75,71.25 179.25,74.75 169.5" fill="#000000" stroke="none" stroke-opacity="0" />
<polygon id="A4-4083" points="51 171.5,47.5 180.5,58.25 185,61.5 175" fill="#000000" stroke="none" stroke-opacity="0" />
<polygon id="A4-4084" points="48 180.25,45 191,54.25 194.25,58.5 185.5" fill="#000000" stroke="none" stroke-opacity="0" />
<polygon id="A4-4085" points="31.25 226.75,41.5 230.75,35.5 250,24.5 244.5" fill="#000000" stroke="none" stroke-opacity="0" xmlns="http://www.w3.org/2000/svg" />
<polygon id="A4-4086" points="17.75 223,31.5 227,24.25 245,11.5 240.75" fill="#000000" stroke="none" stroke-opacity="0" />
<polygon id="A4-4087" points="26.5 246.5,18 276,10.5 283,19 298.5,26.5 293.5,42.5 303,39 315,128.5 339.5,245 360.5,319 369,321.5 356.5,310 352.5,310 339,299 338.5,299 308,313 308,317.5 269.5,305.5 269,312 191.5,322.5 191,325 174,324 166,313.5 160.5,260.5 155.5,128.5 125.5,130.5 116,107.5 108,94.5 113.5,71.5 179,61 176,54 193,42 229,35.5 250" fill="#000000" stroke="none" stroke-opacity="0" xmlns="http://www.w3.org/2000/svg" />





</svg>
