<?xml version="1.0" encoding="UTF-8" standalone="no"?>
<!-- Created with Inkscape (http://www.inkscape.org/) -->

<svg xmlns:dc="http://purl.org/dc/elements/1.1/" xmlns:cc="http://creativecommons.org/ns#" xmlns:rdf="http://www.w3.org/1999/02/22-rdf-syntax-ns#" xmlns:svg="http://www.w3.org/2000/svg" xmlns="http://www.w3.org/2000/svg" xmlns:xlink="http://www.w3.org/1999/xlink" xmlns:sodipodi="http://sodipodi.sourceforge.net/DTD/sodipodi-0.dtd" xmlns:inkscape="http://www.inkscape.org/namespaces/inkscape" width="770" height="410" id="svg2" version="1.1" inkscape:version="0.47pre4 " sodipodi:docname="test.svg" style="display:inline" stroke="#000000">
<defs id="defs4">
<inkscape:perspective sodipodi:type="inkscape:persp3d" inkscape:vp_x="0 : 526.18109 : 1" inkscape:vp_y="0 : 1000 : 0" inkscape:vp_z="744.09448 : 526.18109 : 1" inkscape:persp3d-origin="372.04724 : 350.78739 : 1" id="perspective10" />
<inkscape:perspective id="perspective2832" inkscape:persp3d-origin="0.5 : 0.33333333 : 1" inkscape:vp_z="1 : 0.5 : 1" inkscape:vp_y="0 : 1000 : 0" inkscape:vp_x="0 : 0.5 : 1" sodipodi:type="inkscape:persp3d" />
<script type="text/ecmascript" id="script6">
		var fdat="",sdat="";
		function onAreaOver(evt){
			var ele=evt.target; 
			fdat=ele.getAttribute('fill'); 
			sdat=ele.getAttribute('stroke');
			ele.setAttribute('fill','#006fb6');//多边形填充颜色
			ele.setAttribute('stroke','#006fb6');//stroke 多边形 边框颜色
			
		}
		function onAreaOut(evt){
			var ele=evt.target; 
			ele.setAttribute('fill',fdat);
			ele.setAttribute('stroke',sdat);
		}
		</script>
<symbol overflow="visible" id="symbol" style="overflow:visible">
<path d="m 626,156 2,-2 2,-4 0,-3 -1,-3 -4,-3 -6,-3 -5,-2 -4,-2 -4,8 -6,14" id="path9" style="fill:#000000;stroke:none" />
</symbol>
</defs>
<sodipodi:namedview id="base" pagecolor="#ffffff" bordercolor="#666666" borderopacity="1.0" inkscape:pageopacity="0.0" inkscape:pageshadow="2" inkscape:zoom="5.6" inkscape:cx="583.1007" inkscape:cy="273.63795" inkscape:document-units="px" inkscape:current-layer="svg2" showgrid="false" inkscape:window-width="1280" inkscape:window-height="740" inkscape:window-x="-4" inkscape:window-y="-4" inkscape:window-maximized="1" />
<metadata id="metadata7">
<rdf:RDF>
<cc:Work>
<dc:format>
				image/svg+xml</dc:format>
<dc:type rdf:resource="http://purl.org/dc/dcmitype/StillImage" />
<dc:title>
</dc:title>
</cc:Work>
</rdf:RDF>
</metadata>
<image xlink:href="bengbu_mall_a_1f.png" width="770" height="410" id="image2834" x="-485" y="255.93361" transform="translate(485,-255.9336)" inkscape:label="Layer 1" inkscape:groupmode="layer" style="display:inline" />
<polygon id="A1-1001" points="629.25 57.5,638.25 41.5,656 36.25,672.25 46.5,676.5 63.25,667.75 79,650.5 84,640.25 79.25,625.75 82,622.25 65.75,630.25 64.25" fill="#000000" stroke="none" stroke-opacity="0" />
<polygon id="A1-1002" points="615.5 46.5,608.25 48,612.75 67.25,630.5 64,629.5 56.5" fill="#000000" stroke="none" stroke-opacity="0" />
<polygon id="A1-1003" points="594.25 67.25,606.25 64.75,602.25 49.25,590.5 51.5" fill="#000000" stroke="none" stroke-opacity="0" />
<polygon id="A1-1004" points="581.75 54.5,591.25 52,595 72.25,586 74.75" fill="#000000" stroke="none" stroke-opacity="0" />
<polygon id="A1-1005" points="577.25 75.5,586 74.75,581.5 53.5,572.75 55.5" fill="#000000" stroke="none" stroke-opacity="0" />
<polygon id="A1-1006" points="556 58.75,565 57.5,568.25 76.75,559 78.75" fill="#000000" stroke="none" stroke-opacity="0" />
<polygon id="A1-1007" points="546 60.25,556 59,559 78.5,549.5 80.25" fill="#000000" stroke="none" stroke-opacity="0" />
<polygon id="A1-1008" points="538 61.75,546.5 60.25,550 79.5,540.25 81" fill="#000000" stroke="none" stroke-opacity="0" />
<polygon id="A1-1009" points="525 62.5,526.5 73,536.75 71.5,535.5 61.25" fill="#000000" stroke="none" stroke-opacity="0" />
<polygon id="A1-1010" points="511.25 65,513.25 85.5,523.25 84.25,521.5 63.5" fill="#000000" stroke="none" stroke-opacity="0" />
<polygon id="A1-1011" points="494.75 80,506 66.25,511.5 65.75,512.75 85.75,495 88" fill="#000000" stroke="none" stroke-opacity="0" />
<polygon id="A1-1012" points="463 68.75,450 83,451.25 102.5,465 114,487.75 112.5,491.5 105.5,506.5 104.25,505 87,495.5 87,494.5 79.75,482 68" fill="#000000" stroke="none" stroke-opacity="0" />
<polygon id="A1-1013" points="505.25 87,506.5 104.5,515.75 103.75,514.25 85.25" fill="#000000" stroke="none" stroke-opacity="0" />
<polygon id="A1-1014" points="514 84.75,516 104,525.25 102.5,523.25 84.5" fill="#000000" stroke="none" stroke-opacity="0" />
<polygon id="A1-1015" points="523.875 88.875,525.125 102.25,533.875 101.125,532.75 86.875" fill="#000000" stroke="none" stroke-opacity="0" />
<polygon id="A1-1016" points="533 87.125,534 101.25,542.5 99.25,541.75 86.375" fill="#000000" stroke="none" stroke-opacity="0" />
<polygon id="A1-1017" points="541 81,543 99.125,552.5 97.375,549.625 79.25" fill="#000000" stroke="none" stroke-opacity="0" />
<polygon id="A1-1018" points="549.875 79.5,552.75 96.875,561.75 96.125,559 78.25" fill="#000000" stroke="none" stroke-opacity="0" />
<polygon id="A1-1019" points="559.125 78.75,561.875 95.5,571.625 94.25,568.125 76.75" fill="#000000" stroke="none" stroke-opacity="0" />
<polygon id="A1-1020" points="577 75.625,580.625 92.875,589.75 90.75,586 74.75" fill="#000000" stroke="none" stroke-opacity="0" />
<polygon id="A1-1021" points="586.375 74.75,589.75 91,598.625 89.125,595.125 71.875" fill="#000000" stroke="none" stroke-opacity="0" />
<polygon id="A1-1022" points="596.25 76.5,598.375 89.125,608 87.125,605.125 75" fill="#000000" stroke="none" stroke-opacity="0" />
<polygon id="A1-1023" points="605.25 74.875,607.875 87.375,617 84.625,614.125 72.375" fill="#000000" stroke="none" stroke-opacity="0" />
<polygon id="A1-1024" points="613.125 67.5,617.125 84.375,625.75 82.875,622 65.625" fill="#000000" stroke="none" stroke-opacity="0" />
<polygon id="A2-1001" points="731.25 277.25,734.25 288.5,761 279,758.25 268.75" fill="#000000" stroke="none" stroke-opacity="0" />
<polygon id="A2-1002" points="728.75 267.75,731.5 277,758.25 268.75,753.25 260" fill="#000000" stroke="none" stroke-opacity="0" />
<polygon id="A2-1003" points="726.25 258,729 268.25,751.25 260,748 251.75" fill="#000000" stroke="none" stroke-opacity="0" />
<polygon id="A2-1004" points="723.25 248.25,726 258.5,748.25 252,744.75 241.25" fill="#000000" stroke="none" stroke-opacity="0" />
<polygon id="A2-1005" points="720.5 239,723.5 248.25,744.75 242,741.75 231.75" fill="#000000" stroke="none" stroke-opacity="0" />
<polygon id="A2-1006" points="717.5 230,721 238.75,741.75 232.25,738.5 223" fill="#000000" stroke="none" stroke-opacity="0" />
<polygon id="A2-1007" points="713.75 218.25,717.5 229.5,739 223,735.25 210.5" fill="#000000" stroke="none" stroke-opacity="0" />
<polygon id="A2-1008" points="717 188.5,718.75 195.5,729.5 192.25,726.5 184.25" fill="#000000" stroke="none" stroke-opacity="0" />
<polygon id="A2-1009" points="703.25 183.25,706 192,727.25 184.5,723.5 176" fill="#000000" stroke="none" stroke-opacity="0" />
<polygon id="A2-1010" points="700.75 172.75,703.25 182.75,724 176,720.75 166" fill="#000000" stroke="none" stroke-opacity="0" />
<polygon id="A2-1011" points="698 163.5,700.5 172.75,721 166.25,718.75 156.5" fill="#000000" stroke="none" stroke-opacity="0" />
<polygon id="A2-1012" points="694.5 153.75,698 163.5,718.5 156.25,714.75 147.5" fill="#000000" stroke="none" stroke-opacity="0" />
<polygon id="A2-1013" points="692.75 145,694.75 153.75,715 147.5,713.25 138" fill="#000000" stroke="none" stroke-opacity="0" />
<polygon id="A2-1014" points="689.25 134.75,692.75 144.25,713.75 137.75,709.25 128.75" fill="#000000" stroke="none" stroke-opacity="0" />
<polygon id="A2-1015" points="686.5 124.75,688.75 134.5,713.75 127,710.5 117.5" fill="#000000" stroke="none" stroke-opacity="0" />
<polygon id="A2-1016" points="679.5 101,685.5 124.5,712.25 117.75,704.75 110,691 102.75" fill="#000000" stroke="none" stroke-opacity="0" />
<polygon id="A2-1017" points="675.25 118.25,685.75 116.25,679 100.25,669.5 100.5" fill="#000000" stroke="none" stroke-opacity="0" />
<polygon id="A2-1018" points="659.25 101,664 121.25,675 118,669 100.5" fill="#000000" stroke="none" stroke-opacity="0" />
<polygon id="A2-1019" points="643 114.25,648 136.75,662.75 132.75,657.25 110.5" fill="#000000" stroke="none" stroke-opacity="0" />
<polygon id="A2-1020" points="634 116.75,639.25 138.75,649 136.75,643.25 113.75" fill="#000000" stroke="none" stroke-opacity="0" />
<polygon id="A2-1021" points="624 118.5,628.75 141,638.75 138.25,633.5 117" fill="#000000" stroke="none" stroke-opacity="0" />
<polygon id="A2-1022" points="614.75 120.75,619.5 143,628.5 141.5,624 118.25" fill="#000000" stroke="none" stroke-opacity="0" />
<polygon id="A2-1023" points="567.75 129.5,570.5 152.5,581.25 150.5,577.75 128.25" fill="#000000" stroke="none" stroke-opacity="0" />
<polygon id="A2-1024" points="558.25 132,560.5 153.5,570.5 152.75,568 129.25" fill="#000000" stroke="none" stroke-opacity="0" />
<polygon id="A2-1025" points="548.5 133,552 155.5,560.75 154.25,559 131" fill="#000000" stroke="none" stroke-opacity="0" />
<polygon id="A2-1026" points="539 134.5,540.25 146.5,550 146,549 132.25" fill="#000000" stroke="none" stroke-opacity="0" />
<polygon id="A2-1027" points="529.5 135,530.5 147.75,540.25 146.5,539.5 133.5" fill="#000000" stroke="none" stroke-opacity="0" />
<polygon id="A2-1028" points="530.75 148,531.5 162,552.25 159.25,550.5 145.75" fill="#000000" stroke="none" stroke-opacity="0" />
<polygon id="A2-1029" points="533.25 166.75,534.25 177,545.75 176.75,544.75 165.75" fill="#000000" stroke="none" stroke-opacity="0" xmlns="http://www.w3.org/2000/svg" />
<polygon id="A2-1030" points="534.25 177.25,535.5 187,546.75 185.75,545.75 177" fill="#000000" stroke="none" stroke-opacity="0" xmlns="http://www.w3.org/2000/svg" />
<polygon id="A2-1031" points="536 187.5,537.5 197.5,558.75 195.25,556 184.25" fill="#000000" stroke="none" stroke-opacity="0" />
<polygon id="A2-1032" points="537.75 196.25,538.25 207.25,560 204.25,557.75 194.5" fill="#000000" stroke="none" stroke-opacity="0" />
<polygon id="A2-1033" points="538.5 207.25,540 216.25,560.5 214.5,559.75 203.75" fill="#000000" stroke="none" stroke-opacity="0" />
<polygon id="A2-1034" points="540 215.75,540.5 226.25,562.25 223.75,561 213.75" fill="#000000" stroke="none" stroke-opacity="0" />
<polygon id="A2-1035" points="540.25 226,541.75 236.75,563.75 234.25,562.5 223.5" fill="#000000" stroke="none" stroke-opacity="0" />
<polygon id="A2-1036" points="541.5 236.5,543.75 245.25,565 244,564 233.25" fill="#000000" stroke="none" stroke-opacity="0" xmlns="http://www.w3.org/2000/svg" />
<polygon id="A2-1037" points="544 245.75,544.75 255.5,567.75 254.25,566 243.5" fill="#000000" stroke="none" stroke-opacity="0" xmlns="http://www.w3.org/2000/svg" />
<polygon id="A2-1038" points="545 255.5,545.25 266,568.75 263.5,566.75 253.75" fill="#000000" stroke="none" stroke-opacity="0" xmlns="http://www.w3.org/2000/svg" />
<polygon id="A2-1039" points="550.3333 304.3333,551.6666 314.3333,574.6666 312.3333,573.3333 301.9999" fill="#000000" stroke="none" stroke-opacity="0" />
<polygon id="A2-1040" points="552.3333 314.6666,553.3333 324.6666,576.3333 322.3333,574.9999 311.9999" fill="#000000" stroke="none" stroke-opacity="0" />
<polygon id="A2-1041" points="556.3333 351.3333,557.9999 363.9999,570.9999 363.3333,569.3333 348.9999" fill="#000000" stroke="none" stroke-opacity="0" xmlns="http://www.w3.org/2000/svg" />
<polygon id="A2-1042" points="569.3333 349.9999,570.9999 363.3333,582.3333 361.9999,579.9999 348.6666" fill="#000000" stroke="none" stroke-opacity="0" />
<polygon id="A2-1043" points="579.9999 340.9999,582.3333 361.3333,594.3333 360.6666,591.3333 339.3333" fill="#000000" stroke="none" stroke-opacity="0" />
<polygon id="A2-1044" points="591.3333 339,594.3333 361.8333,606.3333 359.3333,602.8333 337" fill="#000000" stroke="none" stroke-opacity="0" />
<polygon id="A2-1045" points="602.9999 337,606.6666 359.3333,617.8333 357.5,614.4999 335" fill="#000000" stroke="none" stroke-opacity="0" />
<polygon id="A2-1046" points="614.6666 334.5,617.9999 357.8333,629.1666 355,625.6666 332.8333" fill="#000000" stroke="none" stroke-opacity="0" />
<polygon id="A2-1047" points="625.9999 332.8333,629.3333 354.8333,641.1666 352.6666,637.3333 330.6666" fill="#000000" stroke="none" stroke-opacity="0" />
<polygon id="A2-1048" points="637.6666 330.6666,641.6666 352.1666,652.8333 349.6666,648.1666 328.3333" fill="#000000" stroke="none" stroke-opacity="0" />
<polygon id="A2-1049" points="648.6666 328.4999,653.4999 349.6666,664.4999 345.4999,659.8333 326.6666" fill="#000000" stroke="none" stroke-opacity="0" />
<polygon id="A2-1050" points="659.8333 326.4999,664.3333 345.1666,676.4999 342.6666,670.9999 323.3333" fill="#000000" stroke="none" stroke-opacity="0" />
<polygon id="A2-1051" points="670.9999 322.8333,676.6666 343.1666,688.1666 340.3333,683.6666 320.1666" fill="#000000" stroke="none" stroke-opacity="0" />
<polygon id="A2-1052" points="683.3333 320.1666,687.9999 340.3333,698.9999 336.9999,693.9999 316.9999" fill="#000000" stroke="none" stroke-opacity="0" />
<polygon id="A2-1053" points="694.1666 317.1666,699.4999 337.3333,710.9999 334.6666,705.4999 314.1666" fill="#000000" stroke="none" stroke-opacity="0" />
<polygon id="A2-1054" points="705.9999 314.6666,711.1666 334.4999,722.6666 331.3333,721.3333 324.9999,714.9999 325.6666,711.1666 313.3333" fill="#000000" stroke="none" stroke-opacity="0" />
<polygon id="A2-1055" points="711.8333 293,719.1666 319.8333,734.3333 315.8333,745.3333 295,741.8333 285.1666" fill="#000000" stroke="none" stroke-opacity="0" />
<polygon id="A2-1056" points="532.1666 348.5,536.6666 352.8333,546.8333 350,543.3333 332.3333" fill="#000000" stroke="none" stroke-opacity="0" />
<polygon id="A2-1057" points="525.6666 343.1666,532.1666 348.3333,543.9999 331.1666,536.8333 326.5" fill="#000000" stroke="none" stroke-opacity="0" />
<polygon id="A2-1058" points="518.8333 338.6666,525.6666 343.3333,537.3333 326,528.4999 321.5" fill="#000000" stroke="none" stroke-opacity="0" xmlns="http://www.w3.org/2000/svg" />
<polygon id="A2-1059" points="511.1666 334.1666,518.9999 338.8333,529.3333 320.5,520.4999 316.5" fill="#000000" stroke="none" stroke-opacity="0" />
<polygon id="A2-1060" points="521.6666 316.5,512.6666 312,503.9999 332,510.6666 334.9999" fill="#000000" stroke="none" stroke-opacity="0" />
<polygon id="A2-1061" points="512.6666 311.9999,505.4999 308.8333,496.3333 328.6666,504.4999 331.6667" fill="#000000" stroke="none" stroke-opacity="0" />
<polygon id="A2-1062" points="490.1666 325.1666,496.8332 329,505 308.8333,494.8333 306.5" fill="#000000" stroke="none" stroke-opacity="0" />
<polygon id="A2-1063" points="461.6666 298.1666,458.6666 324.3333,463.8333 331.8333,472.9999 337.9999,484.6666 334.6666,490.3333 325.8333,494.9999 305.4999,477.1666 300.4999" fill="#000000" stroke="none" stroke-opacity="0" />
<polygon id="A2-1064" points="458.8333 288.6666,470.1666 289.6666,487.6666 292.6666,481.8333 283,485.4999 280,479.3333 272.8333,469.9999 279.6666,459.6666 284.1666" fill="#000000" stroke="none" stroke-opacity="0" />
<polygon id="A2-1065" points="481.9999 282.8333,487.9999 292.6666,496.4999 286,488.3333 277.1666" fill="#000000" stroke="none" stroke-opacity="0" />
<polygon id="A2-1066" points="488.9999 276.5,495.9999 286,503.1666 279.5,495.3333 271.3333" fill="#000000" stroke="none" stroke-opacity="0" />
<polygon id="A2-1067" points="495.6666 271,503.3333 279.6666,510.3333 272.1666,500.4999 264.6666" fill="#000000" stroke="none" stroke-opacity="0" />
<polygon id="A2-1068" points="497.4999 252.8333,514.8333 264.3333,519.8333 255.1666,500.8333 245.8333" fill="#000000" stroke="none" stroke-opacity="0" />
<polygon id="A2-1069" points="500.9999 245.8333,519.8333 254.8333,523.6666 246,503.9999 238.8333" fill="#000000" stroke="none" stroke-opacity="0" />
<polygon id="A2-1070" points="503.9999 238.6666,523.3333 246,526.1666 237,506.8333 231.3333" fill="#000000" stroke="none" stroke-opacity="0" />
<polygon id="A2-1071" points="506.6666 231.6666,526.3333 236.8333,527.9999 226.5,508.3333 224.5" fill="#000000" stroke="none" stroke-opacity="0" />
<polygon id="A2-1072" points="508.6666 224,527.9999 226.5,528.9999 217,509.3333 216.5" fill="#000000" stroke="none" stroke-opacity="0" />
<polygon id="A2-1073" points="509.4999 216.1666,529.1666 217,528.1666 207.3333,509.4999 208.8333" fill="#000000" stroke="none" stroke-opacity="0" />
<polygon id="A2-1074" points="509.8333 209,528.4999 207.5,526.9999 197.8333,507.9999 201.1666" fill="#000000" stroke="none" stroke-opacity="0" xmlns="http://www.w3.org/2000/svg" />
<polygon id="A2-1075" points="508.1666 201,526.8333 197.3333,524.9999 187.3333,506.1666 193.3333" fill="#000000" stroke="none" stroke-opacity="0" />
<polygon id="A2-1076" points="506.1666 193.6666,525.1666 187.3333,521.8333 178.1666,503.6666 186.1666" fill="#000000" stroke="none" stroke-opacity="0" />
<polygon id="A2-1077" points="503.4999 185.6666,522.1666 177.8333,517.1666 169.3333,499.4999 179.6666" fill="#000000" stroke="none" stroke-opacity="0" />
<polygon id="A2-1078" points="502.6666 168.1666,512.8333 162,505.3333 153.3333,496.9999 160.6666" fill="#000000" stroke="none" stroke-opacity="0" />
<polygon id="A2-1079" points="491.3333 154.6667,496.6666 161,505.8333 152.8333,499.3333 146.3333" fill="#000000" stroke="none" stroke-opacity="0" />
<polygon id="A2-1080" points="478.9999 155,483.1399 158.22,488.7466 152.1133,491.3333 155.3334,498.8333 146,490.9999 139.1667" fill="#000000" stroke="none" stroke-opacity="0" />
<polygon id="A2-1081" points="478.8799 154.88,490.8799 139.52,469.5999 140.64,465.92 148.32" fill="#000000" stroke="none" stroke-opacity="0" />
<polygon id="A2-1082" points="469.5999 140.8,457.7599 165.44,449.1199 162.56,439.8399 161.12,440.1599 152.8,443.9999 145.12,452.3199 140.8" fill="#000000" stroke="none" stroke-opacity="0" />
<polygon id="A2-1083" points="457.7599 165.76,466.2399 171.04,476.3199 154.08,466.3999 148" fill="#000000" stroke="none" stroke-opacity="0" xmlns="http://www.w3.org/2000/svg" />
<polygon id="A2-1084" points="465.4399 169.28,472.1599 175.04,485.5999 160.8,476.6399 153.44" fill="#000000" stroke="none" stroke-opacity="0" />
<polygon id="A2-1085" points="471.9999 174.88,479.3599 184.32,496.7999 172.8,485.2799 161.28" fill="#000000" stroke="none" stroke-opacity="0" />
<polygon id="A2-1086" points="482.3999 188.16,486.0799 197.6,504.9599 190.4,499.5199 179.36" fill="#000000" stroke="none" stroke-opacity="0" />
<polygon id="A2-1087" points="486.5599 196.64,486.8799 205.6,507.6799 201.28,504.7999 189.76" fill="#000000" stroke="none" stroke-opacity="0" />
<polygon id="A2-1088" points="487.3599 205.28,488.3199 213.92,509.1199 213.44,507.6799 200.96" fill="#000000" stroke="none" stroke-opacity="0" />
<polygon id="A2-1089" points="488.6399 213.44,488.1599 222.56,508.6399 224,509.2799 212.32" fill="#000000" stroke="none" stroke-opacity="0" />
<polygon id="A2-1090" points="488.4799 222.24,485.7599 229.76,504.9599 236.32,508.7999 223.84" fill="#000000" stroke="none" stroke-opacity="0" />
<polygon id="A2-1091" points="486.3999 229.6,480.1599 242.08,497.4399 252.8,504.9599 235.84" fill="#000000" stroke="none" stroke-opacity="0" />
<polygon id="A2-1092" points="467.5199 257.6,479.6799 273.6,494.3999 260.16,477.9199 247.52" fill="#000000" stroke="none" stroke-opacity="0" />
<polygon id="A2-1093" points="460.3199 261.76,469.7599 279.52,479.5199 272.64,467.0399 256.8" fill="#000000" stroke="none" stroke-opacity="0" />
<polygon id="A2-1094" points="452.64 265.92,458.8799 284.32,470.2399 280.16,460.4799 261.6" fill="#000000" stroke="none" stroke-opacity="0" />
<polygon id="A2-1095" points="443.36 268.48,445.9199 287.36,454.5799 288.82,459.3999 284.4799,452.64 266.24" fill="#000000" stroke="none" stroke-opacity="0" xmlns="http://www.w3.org/2000/svg" />
<polygon id="A2-1096" points="556 264.5,561.5 304,574 301.5,580.5 342,656.5 328,718 312.5,712.5 293,735.5 288,720.5 234.5,714.5 218,684 116,661.5 121.5,662.5 131,620 142.5,618 133.5,580 139.5,581 149.5,552.5 155,553.5 168.5,555 176.5,556.5 184.5,568.5 263" fill="#000000" stroke="none" stroke-opacity="0" xmlns="http://www.w3.org/2000/svg" />
<polygon id="A3-1001" points="367.7248 83.06877,380.6878 70.89946,399.4709 71.16401,412.1693 85.18517,411.9047 104.2328,399.2063 116.6666,376.455 116.1376,371.9576 108.7301,358.201 107.6719,358.7301 91.00528,367.1957 90.74073" fill="#000000" stroke="none" stroke-opacity="0" />
<polygon id="A3-1002" points="349.2063 89.68253,366.6666 90.21163,367.1957 83.86242,355.8201 69.84126,348.9417 68.78306" fill="#000000" stroke="none" stroke-opacity="0" />
<polygon id="A3-1003" points="339.6825 88.88888,349.2063 89.15343,349.4709 68.78306,340.4762 69.31216" fill="#000000" stroke="none" stroke-opacity="0" />
<polygon id="A3-1004" points="323.6031 66.9603,323.2804 77.51321,336.5079 77.51321,336.5079 67.98941" fill="#000000" stroke="none" stroke-opacity="0" xmlns="http://www.w3.org/2000/svg" />
<polygon id="A3-1005" points="314.0211 66.40211,311.9047 87.03703,321.4285 87.56612,324.074 65.87301" fill="#000000" stroke="none" stroke-opacity="0" />
<polygon id="A3-1006" points="305.5555 64.55025,314.2857 65.3439,311.9047 86.24338,302.6455 85.97882" fill="#000000" stroke="none" stroke-opacity="0" />
<polygon id="A3-1007" points="296.8253 63.49205,305.8201 64.55025,302.91 85.44972,293.1216 85.18517" fill="#000000" stroke="none" stroke-opacity="0" />
<polygon id="A3-1008" points="288.0952 63.2275,284.9206 83.59787,293.6508 84.39153,297.619 63.2275" fill="#000000" stroke="none" stroke-opacity="0" />
<polygon id="A3-1009" points="279.1005 61.37565,288.3597 62.1693,285.4497 82.53967,276.7195 82.01057" fill="#000000" stroke="none" stroke-opacity="0" />
<polygon id="A3-1010" points="270.8994 60.0529,279.3651 61.64021,276.9841 81.48147,267.1957 80.95237" fill="#000000" stroke="none" stroke-opacity="0" xmlns="http://www.w3.org/2000/svg" />
<polygon id="A3-1011" points="261.6402 58.73015,271.164 59.78835,266.9312 81.21692,257.1428 80.15872" fill="#000000" stroke="none" stroke-opacity="0" xmlns="http://www.w3.org/2000/svg" />
<polygon id="A3-1012" points="252.91 56.3492,262.1693 57.9365,257.1428 78.83597,247.8836 78.57142" fill="#000000" stroke="none" stroke-opacity="0" />
<polygon id="A3-1013" points="241.7989 61.1111,252.1164 62.1693,248.9418 76.98412,239.9471 76.45502" fill="#000000" stroke="none" stroke-opacity="0" />
<polygon id="A3-1014" points="233.3333 59.78835,241.7989 61.1111,239.9471 75.66136,230.4233 74.86771" fill="#000000" stroke="none" stroke-opacity="0" />
<polygon id="A3-1015" points="207.4074 53.96825,216.9312 56.61375,212.9629 72.13491,204.2328 70.10581" fill="#000000" stroke="none" stroke-opacity="0" xmlns="http://www.w3.org/2000/svg" />
<polygon id="A3-1016" points="198.9418 52.11639,207.4074 54.2328,204.4973 69.04761,194.709 67.72486" fill="#000000" stroke="none" stroke-opacity="0" />
<polygon id="A3-1017" points="190.7407 43.65079,201.0582 46.29629,194.9735 67.4603,184.3915 65.07935" fill="#000000" stroke="none" stroke-opacity="0" />
<polygon id="A3-1018" points="186.5079 64.02116,191.5344 43.12169,182.5397 41.53439,176.455 62.96296" fill="#000000" stroke="none" stroke-opacity="0" />
<polygon id="A3-1019" points="176.455 62.43385,183.0688 41.79893,173.8095 40.21164,167.7249 60.0529" fill="#000000" stroke="none" stroke-opacity="0" />
<polygon id="A3-1020" points="167.7249 60.28835,173.8095 39.68253,164.8148 36.77248,158.7301 58.20105" fill="#000000" stroke="none" stroke-opacity="0" xmlns="http://www.w3.org/2000/svg" />
<polygon id="A3-1021" points="143.6508 48.14814,155.8201 51.05819,160.0529 36.77248,148.1481 33.33333" fill="#000000" stroke="none" stroke-opacity="0" />
<polygon id="A3-1022" points="132.8042 49.20634,142.5926 53.17459,148.1481 34.39153,138.8889 30.68783" fill="#000000" stroke="none" stroke-opacity="0" />
<polygon id="A3-1023" points="133.0688 48.94179,139.6825 30.68783,128.5714 31.21693,119.5767 36.50793,116.1376 44.70899" fill="#000000" stroke="none" stroke-opacity="0" />
<polygon id="A3-1024" points="118.7831 37.03703,110.582 22.22222,94.44443 14.81481,76.19046 22.22222,69.04761 40.74073,78.04231 57.67195,97.35448 65.3439,105.5555 58.20105,118.7831 63.7566,125.1323 47.35449,115.6084 44.70898" fill="#000000" stroke="none" stroke-opacity="0" />
<polygon id="A3-1025" points="119.0476 64.02115,128.836 66.93121,133.8624 50.26454,125.3968 47.08994" fill="#000000" stroke="none" stroke-opacity="0" />
<polygon id="A3-1026" points="129.1296 67.25395,138.3598 69.31216,142.5926 52.64549,133.8624 48.94179" fill="#000000" stroke="none" stroke-opacity="0" xmlns="http://www.w3.org/2000/svg" />
<polygon id="A3-1027" points="141.0053 57.9365,150.5291 60.84655,146.5608 72.48676,136.2434 70.1058" fill="#000000" stroke="none" stroke-opacity="0" xmlns="http://www.w3.org/2000/svg" />
<polygon id="A3-1028" points="150 60.582,158.7301 63.2275,155.5555 75.39681,146.5608 72.7513" fill="#000000" stroke="none" stroke-opacity="0" />
<polygon id="A3-1029" points="159.7883 58.4656,155.8201 74.60316,164.8148 76.98411,169.0476 60.582" fill="#000000" stroke="none" stroke-opacity="0" />
<polygon id="A3-1030" points="169.0476 60.31745,164.2857 76.98411,173.8095 80.15871,178.0423 62.96295" fill="#000000" stroke="none" stroke-opacity="0" />
<polygon id="A3-1031" points="173.8095 79.89417,182.5397 81.74602,187.3016 64.02115,178.3069 61.6402" fill="#000000" stroke="none" stroke-opacity="0" />
<polygon id="A3-1032" points="187.037 65.3439,182.5397 81.74602,191.5344 84.39152,195.5026 67.4603" fill="#000000" stroke="none" stroke-opacity="0" />
<polygon id="A3-1033" points="195.5026 66.93121,191.2698 84.39152,201.5873 86.24337,204.4973 69.04761" fill="#000000" stroke="none" stroke-opacity="0" />
<polygon id="A3-1034" points="203.9682 69.84126,201.3227 85.97882,210.0529 87.56612,213.2857 72.0185" fill="#000000" stroke="none" stroke-opacity="0" xmlns="http://www.w3.org/2000/svg" />
<polygon id="A3-1035" points="230.9523 74.60316,227.2487 91.79893,237.8307 93.38622,240.7407 75.66136" fill="#000000" stroke="none" stroke-opacity="0" />
<polygon id="A3-1036" points="240.7407 76.98411,237.8307 93.38622,248.1481 95.50262,249.2063 77.77776" fill="#000000" stroke="none" stroke-opacity="0" />
<polygon id="A3-1037" points="249.4709 78.83596,246.5608 95.50262,255.8201 96.82538,258.4656 79.36507" fill="#000000" stroke="none" stroke-opacity="0" />
<polygon id="A3-1038" points="258.7301 79.62962,255.8201 96.82538,264.8148 98.67723,267.7248 80.68781" fill="#000000" stroke="none" stroke-opacity="0" />
<polygon id="A3-1039" points="267.1957 80.42326,276.7195 81.74602,273.8095 99.73544,264.8148 99.47088" fill="#000000" stroke="none" stroke-opacity="0" />
<polygon id="A3-1040" points="276.455 82.01057,285.4497 83.06876,283.3333 100.5291,274.074 99.47088" fill="#000000" stroke="none" stroke-opacity="0" />
<polygon id="A3-1041" points="285.4497 83.06876,295.2381 85.18517,292.5926 102.3809,282.5396 101.0582" fill="#000000" stroke="none" stroke-opacity="0" />
<polygon id="A3-1042" points="294.4444 85.44972,303.1746 85.44972,302.91 103.1746,293.1216 102.6455" fill="#000000" stroke="none" stroke-opacity="0" />
<polygon id="A3-1043" points="303.9682 85.18517,302.6454 103.4391,311.3756 104.4973,312.4338 86.24337" fill="#000000" stroke="none" stroke-opacity="0" />
<polygon id="A3-1044" points="312.4338 87.03702,311.9047 104.4973,320.8994 105.0264,321.9576 86.74337" fill="#000000" stroke="none" stroke-opacity="0" xmlns="http://www.w3.org/2000/svg" />
<polygon id="A3-1045" points="321.4285 92.85712,330.4232 93.65078,329.8941 106.0846,320.1058 105.0264" fill="#000000" stroke="none" stroke-opacity="0" />
<polygon id="A3-1046" points="330.6878 93.91533,340.6534 94.94443,340.6534 107.1137,330.4232 106.6137" fill="#000000" stroke="none" stroke-opacity="0" xmlns="http://www.w3.org/2000/svg" />
<polygon id="A3-1047" points="339.9471 88.88887,340.2116 106.6137,348.9417 107.4074,349.9999 89.41798" fill="#000000" stroke="none" stroke-opacity="0" />
<polygon id="A3-1048" points="349.9999 89.94707,349.2063 107.1428,358.4656 107.9365,358.9947 89.94707" fill="#000000" stroke="none" stroke-opacity="0" />
<polygon id="A4-1001" points="418.783 267.1957,429.3651 269.5767,426.455 287.5661,412.6984 289.9471" fill="#000000" stroke="none" stroke-opacity="0" />
<polygon id="A4-1002" points="413.2275 285.1852,402.6455 281.746,412.4339 263.492,420.1058 265.873" fill="#000000" stroke="none" stroke-opacity="0" />
<polygon id="A4-1003" points="402.6455 281.4814,412.4338 263.7566,403.9682 259.7883,393.3862 275.6613" fill="#000000" stroke="none" stroke-opacity="0" />
<polygon id="A4-1004" points="403.9682 259.5238,397.0899 253.4391,383.5978 267.1957,393.1216 276.1905" fill="#000000" stroke="none" stroke-opacity="0" />
<polygon id="A4-1005" points="370.1058 249.7354,387.8307 240.4762,383.0688 232.0106,365.3439 238.8889" fill="#000000" stroke="none" stroke-opacity="0" />
<polygon id="A4-1006" points="364.5502 239.1534,383.3333 231.4815,380.9523 224.3386,361.9047 228.3069" fill="#000000" stroke="none" stroke-opacity="0" />
<polygon id="A4-1007" points="361.6402 228.3069,381.4814 223.545,380.6878 215.6084,360.8465 216.6667" fill="#000000" stroke="none" stroke-opacity="0" />
<polygon id="A4-1008" points="360.6111 216.6376,380.6878 215.6084,381.2169 208.201,361.1111 204.2328" fill="#000000" stroke="none" stroke-opacity="0" xmlns="http://www.w3.org/2000/svg" />
<polygon id="A4-1009" points="361.1111 204.2328,381.2169 207.9365,383.0688 199.4709,363.7566 192.8571" fill="#000000" stroke="none" stroke-opacity="0" />
<polygon id="A4-1010" points="382.8333 199.1772,363.7566 193.3862,368.2539 182.2751,386.2433 192.0635" fill="#000000" stroke="none" stroke-opacity="0" xmlns="http://www.w3.org/2000/svg" />
<polygon id="A4-1011" points="371.164 176.455,389.1534 186.5079,394.9735 177.7778,381.746 163.2275" fill="#000000" stroke="none" stroke-opacity="0" />
<polygon id="A4-1012" points="380.9523 163.2275,394.709 177.7778,402.6455 172.2222,390.2116 155.5555" fill="#000000" stroke="none" stroke-opacity="0" />
<polygon id="A4-1013" points="389.9471 155.0264,401.8518 171.4286,408.9947 166.4021,399.7354 149.7354" fill="#000000" stroke="none" stroke-opacity="0" />
<polygon id="A4-1014" points="396.2963 144.1799,408.9947 167.1958,426.7195 160.8465,426.7195 153.4391,420.1058 144.709,406.8783 142.0635" fill="#000000" stroke="none" stroke-opacity="0" />
<polygon id="A4-1015" points="396.0317 143.1217,399.4709 150,389.9471 155.0264,382.8042 161.6402,376.7195 155.5555,381.2169 151.3227,373.5449 143.3862,384.656 142.8571" fill="#000000" stroke="none" stroke-opacity="0" />
<polygon id="A4-1016" points="365.873 151.0291,374.6031 158.4656,382.2751 150.5291,373.2804 143.3862" fill="#000000" stroke="none" stroke-opacity="0" xmlns="http://www.w3.org/2000/svg" />
<polygon id="A4-1017" points="360.3174 157.4074,368.783 164.5502,374.6031 158.4656,365.3148 151.0582" fill="#000000" stroke="none" stroke-opacity="0" xmlns="http://www.w3.org/2000/svg" />
<polygon id="A4-1018" points="360.3174 157.4074,368.5185 164.8148,363.7566 171.164,354.2328 165.3439" fill="#000000" stroke="none" stroke-opacity="0" />
<polygon id="A4-1019" points="350.2645 174.0741,365.3439 181.2169,360.8465 189.1534,345.5026 183.8624" fill="#000000" stroke="none" stroke-opacity="0" />
<polygon id="A4-1020" points="344.709 184.6561,343.6508 192.8571,357.9365 195.7672,360.582 189.418" fill="#000000" stroke="none" stroke-opacity="0" />
<polygon id="A4-1021" points="343.6508 192.8571,362.4338 197.0899,360.8465 206.3492,341.7989 202.3809" fill="#000000" stroke="none" stroke-opacity="0" />
<polygon id="A4-1022" points="342.5926 202.6455,341.1534 207.9074,341.2698 212.9629,359.7883 214.7566,360.3174 205.8783" fill="#000000" stroke="none" stroke-opacity="0" xmlns="http://www.w3.org/2000/svg" />
<polygon id="A4-1023" points="341.5344 212.9629,340.3889 217.7248,341.5344 221.9576,361.1111 221.4285,361.1111 213.2275" fill="#000000" stroke="none" stroke-opacity="0" xmlns="http://www.w3.org/2000/svg" />
<polygon id="A4-1024" points="341.5 222.375,341.125 227.75,342.125 232.125,361.5 228.25,360.625 221.625" fill="#000000" stroke="#000000" xmlns="http://www.w3.org/2000/svg" />
<polygon id="A4-1025" points="342.25 232.875,344.625 241.875,363.25 236.125,362 228.5" fill="#000000" stroke="#000000" />
<polygon id="A4-1026" points="344.5 242.375,347.75 250.75,366.25 243,363.75 236" fill="#000000" stroke="#000000" />
<polygon id="A4-1027" points="347.75 251.75,352.375 260.25,370 250,366.75 243.5" fill="#000000" stroke="#000000" />
<polygon id="A4-1028" points="352.25 261.125,357.5 268.25,374.125 257,370.875 250.5" fill="#000000" stroke="#000000" />
<polygon id="A4-1029" points="363.75 276,370 283.125,378 274.375,371.5 268.25" fill="#000000" stroke="#000000" />
<polygon id="A4-1030" points="370 283.75,377.375 289,384.5 280.25,378.25 275.125" fill="#000000" stroke="#000000" />
<polygon id="A4-1031" points="377.875 290,385.625 295.125,391.125 286,385.375 280.5" fill="#000000" stroke="#000000" />
<polygon id="A4-1032" points="392.375 286.125,387 281.625,392.875 276.25,402.375 281.75,413.5 285.375,412.875 289.875,386.375 296.5" fill="#000000" stroke="#000000" />
<polygon id="A4-1033" points="378.625 311,386.625 333,393.5 338.375,405.5 339.375,414.25 331.125,416.125 321.125,411.25 300.375,397.5 301.625,386 305.5" fill="#000000" stroke="#000000" />
<polygon id="A4-1034" points="368.875 314.25,376.25 330.25,379.25 331.5,383.875 326.75,377.125 309" fill="#000000" stroke="#000000" xmlns="http://www.w3.org/2000/svg" />
<polygon id="A4-1035" points="361.625 318.5,371 335.5,378 331.25,368 314.25" fill="#000000" stroke="#000000" />
<polygon id="A4-1036" points="353 322.5,364 339.75,370.75 335.25,361 318.25" fill="#000000" stroke="#000000" />
<polygon id="A4-1037" points="345.375 327.375,357.25 344.5,364.125 340,352.875 322.375" fill="#000000" stroke="#000000" />
<polygon id="A4-1038" points="338.25 332.125,350.125 349.625,358.5 344.125,345.125 327.5" fill="#000000" stroke="#000000" />
<polygon id="A4-1039" points="331.25 338.25,344.5 353.75,350.25 348,337.625 332.125" fill="#000000" stroke="#000000" />
<polygon id="A4-1040" points="330.25 339.25,329.125 359.625,338.625 360.25,344 354.375" fill="#000000" stroke="#000000" />
<polygon id="A4-1041" points="297.625 338.625,297.125 349.125,321.125 350.25,321.625 340.125" fill="#000000" stroke="#000000" />
<polygon id="A4-1042" points="297.875 329.125,297.375 338.625,322.125 340.375,322.625 330.5" fill="#000000" stroke="#000000" />
<polygon id="A4-1043" points="303.75 279.625,302.5 289.375,325.25 290.875,325.875 281.625" fill="#000000" stroke="#000000" />
<polygon id="A4-1044" points="304.625 269.625,303.625 279.25,326.25 281.25,326.875 270.625" fill="#000000" stroke="#000000" />
<polygon id="A4-1045" points="305.25 259.25,304.5 269,327.75 270.75,328.25 261" fill="#000000" stroke="#000000" />
<polygon id="A4-1046" points="306 250.25,305.5 261,327.75 261,328.5 251.5" fill="#000000" stroke="#000000" />
<polygon id="A4-1047" points="307.5 241.25,306.75 250.75,328.5 253,329 241.5" fill="#000000" stroke="#000000" />
<polygon id="A4-1048" points="308 231,307.5 240,329 242,330 232" fill="#000000" stroke="#000000" />
<polygon id="A4-1049" points="309 221,308 230.75,330.75 231.5,330 221.75" fill="#000000" stroke="#000000" />
<polygon id="A4-1050" points="309.75 210,308.5 221,330.75 221.75,331.5 211.5" fill="#000000" stroke="#000000" />
<polygon id="A4-1051" points="311.25 200.5,310 209,331.75 211.5,331.75 200.75" fill="#000000" stroke="#000000" />
<polygon id="A4-1052" points="312 191,311.5 202,332.25 201.5,331.75 192.25" fill="#000000" stroke="#000000" />
<polygon id="A4-1053" points="323 177.5,322 191.5,333 193,333.75 178.5" fill="#000000" stroke="#000000" />
<polygon id="A4-1054" points="314.5 161,313 171.75,334 172.75,333.75 162.25" fill="#000000" stroke="#000000" />
<polygon id="A4-1055" points="316 151.25,314.25 160.75,334.75 163.25,334.75 152.25" fill="#000000" stroke="#000000" />
<polygon id="A4-1056" points="327 140.5,325.25 152.75,335.25 153.25,336.5 140.75" fill="#000000" stroke="#000000" xmlns="http://www.w3.org/2000/svg" />
<polygon id="A4-1057" points="315.75 139.25,315.75 153,324.5 153,326.25 140.25" fill="#000000" stroke="#000000" />
<polygon id="A4-1058" points="306.75 138.5,304.5 160.25,314 161.25,316.5 138.5" fill="#000000" stroke="#000000" />
<polygon id="A4-1059" points="297.5 137,293.5 159.75,305 160.25,307 136.75" fill="#000000" stroke="#000000" />
<polygon id="A4-1060" points="249.5 130.5,247.5 142.75,254 144,254.5 138.5,259 139.25,259.5 131.75" fill="#000000" stroke="#000000" xmlns="http://www.w3.org/2000/svg" />
<polygon id="A4-1061" points="239.25 129.25,238.25 141.25,247.25 142.25,249.75 130" fill="#000000" stroke="#000000" xmlns="http://www.w3.org/2000/svg" />
<polygon id="A4-1062" points="230.5 127.5,226 149.5,236.75 151,240 128" fill="#000000" stroke="#000000" />
<polygon id="A4-1063" points="220.75 125.75,216.5 147.5,226.25 150,230.25 126.75" fill="#000000" stroke="#000000" />
<polygon id="A4-1064" points="211.25 124,207 146,216.5 147.25,220.25 125" fill="#000000" stroke="#000000" />
<polygon id="A4-1065" points="197.25 143.25,206 146.5,211.25 122.75,202.5 120.75" fill="#000000" stroke="#000000" />
<polygon id="A4-1066" points="193.5 119,187.25 141,197.25 144,202.75 120.25" fill="#000000" stroke="#000000" xmlns="http://www.w3.org/2000/svg" />
<polygon id="A4-1067" points="184 117,193 118.75,186.75 140.75,177.75 138" fill="#000000" stroke="#000000" />
<polygon id="A4-1068" points="174.5 115.25,184 116.75,177.25 138.25,168.75 137" fill="#000000" stroke="#000000" />
<polygon id="A4-1069" points="165 112.75,174.25 114.5,168.25 136.25,158.75 134.75" fill="#000000" stroke="#000000" />
<polygon id="A4-1070" points="118.75 99.5,114.5 111,120.25 113.25,122 107.5,126 109,127.25 101.75" fill="#000000" stroke="#000000" />
<polygon id="A4-1071" points="108.75 96.25,104.25 107.25,113.25 110.75,118.25 99" fill="#000000" stroke="#000000" />
<polygon id="A4-1072" points="99.75 93.5,109 96,102.25 118,93 114.75" fill="#000000" stroke="#000000" />
<polygon id="A4-1073" points="90.75 90.5,82.75 111.75,91.75 114.5,99.75 93.75" fill="#000000" stroke="#000000" />
<polygon id="A4-1074" points="65.25 105.25,82 111.25,90.75 90,82.25 87.5,71.25 95.75" fill="#000000" stroke="#000000" />
<polygon id="A4-1075" points="64.75 105,60.75 113.75,80.5 120.5,82.75 112.5" fill="#000000" stroke="#000000" xmlns="http://www.w3.org/2000/svg" />
<polygon id="A4-1076" points="60 113.75,55.5 122.25,76 130.75,80.5 121.5" fill="#000000" stroke="#000000" xmlns="http://www.w3.org/2000/svg" />
<polygon id="A4-1077" points="54.75 123,53 132.5,72.75 139.5,75.25 131" fill="#000000" stroke="#000000" />
<polygon id="A4-1078" points="53.5 133.25,50.75 140.75,70.25 149.25,73.25 139.75" fill="#000000" stroke="#000000" xmlns="http://www.w3.org/2000/svg" />
<polygon id="A4-1079" points="50 142,48.5 151.75,67 159,70.5 149.75" fill="#000000" stroke="#000000" />
<polygon id="A4-1080" points="34 188.25,54.25 196,50.75 205,30.75 198.25" fill="#000000" stroke="#000000" />
<polygon id="A4-1081" points="29.75 199.25,27.25 207.25,47.5 215,51 206" fill="#000000" stroke="#000000" />
<polygon id="A4-1082" points="26.25 208,23.75 215.75,44.5 223.25,48 216.25" fill="#000000" stroke="#000000" xmlns="http://www.w3.org/2000/svg" />
<polygon id="A4-1083" points="22.25 216.5,19.25 225,41.5 232.75,44.25 224.25" fill="#000000" stroke="#000000" />
<polygon id="A4-1084" points="17.75 225,14.5 234,38.25 242,41.75 234.25" fill="#000000" stroke="#000000" />
<polygon id="A4-1085" points="13.25 234.25,11 243.75,35.5 251,38.5 242.75" fill="#000000" stroke="#000000" />
<polygon id="A4-1086" points="27.75 250,20.75 267.5,33.5 272.25,39.75 253" fill="#000000" stroke="#000000" />
<polygon id="A4-1087" points="19.5 273.75,37.75 280.25,34.75 294.5,45 297.75,41.5 304.75,31.5 301.5,24.75 294.75,16.75 280.5" fill="#000000" stroke="#000000" xmlns="http://www.w3.org/2000/svg" />
<polygon id="A4-1088" points="45.25 296.5,37.5 315.75,50 319.75,55.75 299.75" fill="#000000" stroke="#000000" />
<polygon id="A4-1089" points="55.25 299.25,50.25 320.25,62 323.25,68 303.5" fill="#000000" stroke="#000000" />
<polygon id="A4-1090" points="68 303.5,78.5 307,72.75 326.25,62.5 324.25" fill="#000000" stroke="#000000" />
<polygon id="A4-1091" points="78.5 306.75,89.75 309.5,84.5 330,73.5 326.5" fill="#000000" stroke="#000000" />
<polygon id="A4-1092" points="90.25 310.75,102 313.5,96 332.75,85.5 330.5" fill="#000000" stroke="#000000" xmlns="http://www.w3.org/2000/svg" />
<polygon id="A4-1093" points="101.5 313,113.25 315.75,107 336.25,96 333.5" fill="#000000" stroke="#000000" />
<polygon id="A4-1094" points="112.75 315.5,124 320,119 338,107.5 337.25" fill="#000000" stroke="#000000" />
<polygon id="A4-1095" points="123.5 319.25,135.5 322.5,130.5 342.5,119.75 339.25" fill="#000000" stroke="#000000" />
<polygon id="A4-1096" points="136.25 322.75,146.75 325.5,142.75 344,131.25 342.5" fill="#000000" stroke="#000000" />
<polygon id="A4-1097" points="147.5 325.5,158.5 327.75,154.25 348.25,143.75 344.75" fill="#000000" stroke="#000000" />
<polygon id="A4-1098" points="163.75 328.5,159.5 349,177 353.25,180.5 332.25" fill="#000000" stroke="#000000" />
<polygon id="A4-1099" points="180.5 331.5,177.5 353.25,189 354.75,192.25 334.75" fill="#000000" stroke="#000000" />
<polygon id="A4-1100" points="192.5 334.25,189.5 355.75,201 357.75,204 336.75" fill="#000000" stroke="#000000" />
<polygon id="A4-1101" points="204 336.25,216.25 338,213.25 359.25,202.25 359" fill="#000000" stroke="#000000" />
<polygon id="A4-1102" points="216.5 338.25,227.5 340.5,225.25 361.25,214 359.5" fill="#000000" stroke="#000000" />
<polygon id="A4-1103" points="227.75 339.75,239.25 341.75,236.75 362.75,226.25 361.5" fill="#000000" stroke="#000000" />
<polygon id="A4-1104" points="237.75 363,248.25 364.25,251 342.75,239.5 342" fill="#000000" stroke="#000000" />
<polygon id="A4-1105" points="251.5 343.25,263 345,260.75 365.5,249.5 364.25" fill="#000000" stroke="#000000" xmlns="http://www.w3.org/2000/svg" />
<polygon id="A4-1106" points="262.5 344.5,274.5 346.75,271.5 367.25,260.5 365.75" fill="#000000" stroke="#000000" />
<polygon id="A4-1107" points="274 345.75,272 366.75,284.25 367.5,286.25 347.25" fill="#000000" stroke="#000000" />
<polygon id="A4-1108" points="286.5 347.5,296.75 348,296.25 369.5,284.25 368" fill="#000000" stroke="#000000" xmlns="http://www.w3.org/2000/svg" />
<polygon id="A4-1109" points="297.5 349.25,309.25 349.5,307.75 370.75,295.75 369.75" fill="#000000" stroke="#000000" xmlns="http://www.w3.org/2000/svg" />
<polygon id="A4-1110" points="309 349.75,322 351,321 372,307.25 371.25" fill="#000000" stroke="#000000" />
<polygon id="A4-1111" points="83.5 112,36 251.5,45 253.5,34.5 273,117 298.5,112.5 314.5,157.5 327.5,224 339.5,296.5 348,298 329,311 329.5,314.5 291,303 290.5,314.5 162,295.5 159.5,294 149.5,258 145.5,256.5 155.5,193 143.5,159 135.5,160.5 124,125 114,122.5 123.5" fill="#000000" stroke="#000000" />


</svg>
