<?xml version="1.0" encoding="UTF-8" standalone="no"?>
<!-- Created with Inkscape (http://www.inkscape.org/) -->

<svg xmlns:dc="http://purl.org/dc/elements/1.1/" xmlns:cc="http://creativecommons.org/ns#" xmlns:rdf="http://www.w3.org/1999/02/22-rdf-syntax-ns#" xmlns:svg="http://www.w3.org/2000/svg" xmlns="http://www.w3.org/2000/svg" xmlns:xlink="http://www.w3.org/1999/xlink" xmlns:sodipodi="http://sodipodi.sourceforge.net/DTD/sodipodi-0.dtd" xmlns:inkscape="http://www.inkscape.org/namespaces/inkscape" width="770" height="410" id="svg2" version="1.1" inkscape:version="0.47pre4 " sodipodi:docname="test.svg" style="display:inline">
<defs id="defs4">
<inkscape:perspective sodipodi:type="inkscape:persp3d" inkscape:vp_x="0 : 526.18109 : 1" inkscape:vp_y="0 : 1000 : 0" inkscape:vp_z="744.09448 : 526.18109 : 1" inkscape:persp3d-origin="372.04724 : 350.78739 : 1" id="perspective10" />
<inkscape:perspective id="perspective2832" inkscape:persp3d-origin="0.5 : 0.33333333 : 1" inkscape:vp_z="1 : 0.5 : 1" inkscape:vp_y="0 : 1000 : 0" inkscape:vp_x="0 : 0.5 : 1" sodipodi:type="inkscape:persp3d" />
<script type="text/ecmascript" id="script6">
		var fdat="",sdat="";
		function onAreaOver(evt){
			var ele=evt.target; 
			fdat=ele.getAttribute('fill'); 
			sdat=ele.getAttribute('stroke');
			ele.setAttribute('fill','#006fb6');//多边形填充颜色
			ele.setAttribute('stroke','#006fb6');//stroke 多边形 边框颜色
			
		}
		function onAreaOut(evt){
			var ele=evt.target; 
			ele.setAttribute('fill',fdat);
			ele.setAttribute('stroke',sdat);
		}
		</script>
<symbol overflow="visible" id="symbol" style="overflow:visible" xmlns="http://www.w3.org/2000/svg">
<path d="m 626,156 2,-2 2,-4 0,-3 -1,-3 -4,-3 -6,-3 -5,-2 -4,-2 -4,8 -6,14" id="path9" style="fill:#000000;stroke:none" />
</symbol>
</defs>
<sodipodi:namedview id="base" pagecolor="#ffffff" bordercolor="#666666" borderopacity="1.0" inkscape:pageopacity="0.0" inkscape:pageshadow="2" inkscape:zoom="5.6" inkscape:cx="583.1007" inkscape:cy="273.63795" inkscape:document-units="px" inkscape:current-layer="svg2" showgrid="false" inkscape:window-width="1280" inkscape:window-height="740" inkscape:window-x="-4" inkscape:window-y="-4" inkscape:window-maximized="1" />
<metadata id="metadata7">
<rdf:RDF>
<cc:Work>
<dc:format>
image/svg+xml</dc:format>
<dc:type rdf:resource="http://purl.org/dc/dcmitype/StillImage" />
<dc:title>
</dc:title>
</cc:Work>
</rdf:RDF>
</metadata>
<image xlink:href="bengbu_mall_b_1f.png" width="770" height="410" id="image2834" x="-485" y="255.93361" transform="translate(485,-255.9336)" inkscape:label="Layer 1" inkscape:groupmode="layer" style="display:inline" />
<polygon id="B1-1001" points="673.718 21.47436,691.0256 16.02564,708.0128 24.35897,712.8205 41.66666,704.8077 58.65385,687.1795 64.74359,677.8846 59.9359,662.1795 63.46154,658.0128 47.11538,666.9872 44.8718,664.7436 37.5" fill="#000000" stroke="none" stroke-opacity="0" />
<polygon id="B1-1002" points="648.3974 28.36539,664.7436 37.5,667.1474 44.8718,648.718 49.51923,643.9102 29.48718" fill="#000000" stroke="none" stroke-opacity="0" />
<polygon id="B1-1003" points="643.9102 29.64744,648.718 49.35897,639.7436 51.76282,634.7756 31.89103" fill="#000000" stroke="none" stroke-opacity="0" />
<polygon id="B1-1004" points="634.9359 31.89103,623.0769 34.9359,626.2821 50,638.782 46.79487" fill="#000000" stroke="none" stroke-opacity="0" />
<polygon id="B1-1005" points="616.5064 35.89743,620.9936 55.92949,612.3397 58.01282,608.0128 38.14103" fill="#000000" stroke="none" stroke-opacity="0" />
<polygon id="B1-1006" points="608.173 38.14103,599.0385 40.0641,603.0449 60.09615,612.3397 58.01282" fill="#000000" stroke="none" stroke-opacity="0" />
<polygon id="B1-1007" points="598.718 38.78205,603.0449 59.9359,594.0705 61.85897,589.9038 40.54487" fill="#000000" stroke="none" stroke-opacity="0" />
<polygon id="B1-1008" points="589.9038 40.54487,580.7692 42.6282,585.0961 63.78205,594.2308 61.85897" fill="#000000" stroke="none" stroke-opacity="0" />
<polygon id="B1-1009" points="582.0513 48.55769,573.2372 50.64103,575.8013 65.54487,585.4166 63.78205" fill="#000000" stroke="none" stroke-opacity="0" />
<polygon id="B1-1010" points="573.3974 50.80128,564.5833 52.40385,566.8269 67.30769,576.1218 65.22436" fill="#000000" stroke="none" stroke-opacity="0" />
<polygon id="B1-1011" points="545.9936 55.28846,547.5961 69.71154,539.1025 71.3141,537.3397 56.41026" fill="#000000" stroke="none" stroke-opacity="0" />
<polygon id="B1-1012" points="537.3397 56.41026,528.3654 57.3718,529.6474 72.27564,539.2628 71.3141" fill="#000000" stroke="none" stroke-opacity="0" />
<polygon id="B1-1013" points="518.5897 52.2436,528.0449 51.1218,529.8077 72.4359,520.8333 73.55769" fill="#000000" stroke="none" stroke-opacity="0" />
<polygon id="B1-1014" points="509.6154 53.36538,518.5897 52.24359,520.9936 73.55769,511.5385 74.67949" fill="#000000" stroke="none" stroke-opacity="0" />
<polygon id="B1-1015" points="509.9359 53.52565,500.8013 54.64744,502.0833 75.80128,511.6987 74.67949" fill="#000000" stroke="none" stroke-opacity="0" />
<polygon id="B1-1016" points="500.8013 54.80769,491.1859 55.60897,492.9487 76.28205,502.2436 75.48077" fill="#000000" stroke="none" stroke-opacity="0" />
<polygon id="B1-1017" points="491.3461 55.60897,482.3718 56.57051,483.8141 77.08334,493.2692 76.44231" fill="#000000" stroke="none" stroke-opacity="0" />
<polygon id="B1-1018" points="482.532 56.89103,473.2372 57.3718,474.3589 77.88461,484.1346 77.08334" fill="#000000" stroke="none" stroke-opacity="0" />
<polygon id="B1-1019" points="463.9423 58.17308,473.3974 57.53205,474.5192 77.88461,464.9038 78.36539" fill="#000000" stroke="none" stroke-opacity="0" />
<polygon id="B1-1020" points="464.9038 78.20512,456.4102 78.6859,455.6089 58.17308,464.2628 58.33333" fill="#000000" stroke="none" stroke-opacity="0" />
<polygon id="B1-1021" points="442.7885 58.97436,442.7885 67.94872,453.2051 68.26923,453.0449 58.97436" fill="#000000" stroke="none" stroke-opacity="0" />
<polygon id="B1-1022" points="437.1795 59.45513,437.5 80.1282,428.0449 80.28846,428.0449 59.29487" fill="#000000" stroke="none" stroke-opacity="0" />
<polygon id="B1-1023" points="422.4359 59.61538,409.4551 72.91666,409.6154 79.96795,428.2051 80.1282,428.2051 59.45512" fill="#000000" stroke="none" stroke-opacity="0" />
<polygon id="B1-1024" points="377.5641 59.9359,364.2628 73.23717,363.9423 91.34615,376.7628 105.1282,400 105.1282,410.0962 97.27564,418.9102 97.59615,419.2308 79.96795,409.6154 79.96795,409.2949 73.39743,397.2756 59.9359" fill="#000000" stroke="none" stroke-opacity="0" />
<polygon id="B1-1025" points="419.391 80.1282,418.75 97.59615,428.5256 97.4359,428.5256 80.28846" fill="#000000" stroke="none" stroke-opacity="0" />
<polygon id="B1-1026" points="428.5256 80.1282,428.3654 97.4359,437.8205 97.27564,437.6602 80.1282" fill="#000000" stroke="none" stroke-opacity="0" />
<polygon id="B1-1027" points="437.8205 84.13461,437.8205 97.11539,447.1154 97.27564,446.9551 84.13461" fill="#000000" stroke="none" stroke-opacity="0" />
<polygon id="B1-1028" points="446.9551 84.13461,447.1154 96.95512,457.0513 96.95512,456.7308 83.97436" fill="#000000" stroke="none" stroke-opacity="0" />
<polygon id="B1-1029" points="456.5705 78.52564,457.2115 96.95512,466.3462 96.3141,466.0256 78.04487" fill="#000000" stroke="none" stroke-opacity="0" />
<polygon id="B1-1030" points="466.0256 78.04487,466.1859 96.15385,476.1218 95.51282,475.3205 77.72436" fill="#000000" stroke="none" stroke-opacity="0" />
<polygon id="B1-1031" points="475.1603 77.72436,475.9615 95.51282,485.0962 94.8718,484.2949 76.92307" fill="#000000" stroke="none" stroke-opacity="0" />
<polygon id="B1-1032" points="484.2949 77.08333,485.0962 94.71154,494.0705 94.07051,493.5898 76.44231" fill="#000000" stroke="none" stroke-opacity="0" />
<polygon id="B1-1033" points="493.5898 76.28205,494.0705 93.91026,503.8462 93.10897,503.0449 75.48077" fill="#000000" stroke="none" stroke-opacity="0" />
<polygon id="B1-1034" points="503.0449 75.64102,503.8462 92.94872,513.3013 92.14744,512.3397 74.51923" fill="#000000" stroke="none" stroke-opacity="0" />
<polygon id="B1-1035" points="512.3397 74.67948,513.3013 91.82692,522.5961 90.86539,521.1538 73.39743" fill="#000000" stroke="none" stroke-opacity="0" />
<polygon id="B1-1036" points="521.1538 73.39743,522.4359 90.70512,532.0513 89.90385,530.6089 72.27564" fill="#000000" stroke="none" stroke-opacity="0" />
<polygon id="B1-1037" points="530.4487 72.11538,532.0513 89.58333,541.5064 88.46154,539.5833 71.15385" fill="#000000" stroke="none" stroke-opacity="0" />
<polygon id="B1-1038" points="539.423 71.3141,541.3461 88.30128,550.6411 87.17949,547.7564 69.55128" fill="#000000" stroke="none" stroke-opacity="0" />
<polygon id="B1-1039" points="566.9872 67.14743,569.7115 84.13461,579.1666 82.85256,575.9615 65.22436" fill="#000000" stroke="none" stroke-opacity="0" />
<polygon id="B1-1040" points="576.1218 65.38461,579.1666 82.53205,588.3013 80.76923,585.4166 63.6218" fill="#000000" stroke="none" stroke-opacity="0" />
<polygon id="B1-1041" points="585.4166 63.6218,588.4615 80.60897,597.5961 79.00641,594.391 61.85897" fill="#000000" stroke="none" stroke-opacity="0" />
<polygon id="B1-1042" points="594.5513 61.85897,597.5961 78.6859,606.891 76.92307,603.2051 59.9359" fill="#000000" stroke="none" stroke-opacity="0" />
<polygon id="B1-1043" points="603.2051 60.09615,606.7308 76.60256,616.0256 74.83974,612.5 58.01282" fill="#000000" stroke="none" stroke-opacity="0" />
<polygon id="B1-1044" points="612.5 57.85256,616.0256 74.67948,625.1602 72.59615,621.3141 55.76923" fill="#000000" stroke="none" stroke-opacity="0" />
<polygon id="B1-1045" points="622.5961 60.73718,631.5705 58.65385,634.4551 70.03205,625.1602 72.27564" fill="#000000" stroke="none" stroke-opacity="0" />
<polygon id="B1-1046" points="631.7308 58.8141,640.7051 56.89103,643.4294 67.6282,634.4551 69.8718" fill="#000000" stroke="none" stroke-opacity="0" />
<polygon id="B1-1047" points="639.7436 51.60257,643.2692 67.14743,652.7244 65.0641,648.718 49.35897" fill="#000000" stroke="none" stroke-opacity="0" />
<polygon id="B1-1048" points="648.718 49.51923,658.0128 46.95513,662.3397 62.98077,652.7244 65.0641" fill="#000000" stroke="none" stroke-opacity="0" />
<polygon id="B2-1001" points="763.6218 250.641,739.2628 258.4936,736.3782 248.8782,760.4166 241.3462" fill="#000000" stroke="none" stroke-opacity="0" />
<polygon id="B2-1002" points="760.4166 241.5064,757.6923 231.5705,733.6538 239.4231,736.5385 249.0385" fill="#000000" stroke="none" stroke-opacity="0" />
<polygon id="B2-1003" points="733.8141 239.4231,730.9294 229.6474,752.4038 222.9167,755.2885 232.2115" fill="#000000" stroke="none" stroke-opacity="0" />
<polygon id="B2-1004" points="752.2435 223.0769,749.1987 213.3013,727.8846 219.7115,731.0897 229.4872" fill="#000000" stroke="none" stroke-opacity="0" />
<polygon id="B2-1005" points="728.0449 219.8718,725.1602 210.2564,746.3141 203.6859,748.8782 213.141" fill="#000000" stroke="none" stroke-opacity="0" />
<polygon id="B2-1006" points="725.3205 210.4167,722.2756 200.4808,742.7885 194.391,746.1538 204.0064" fill="#000000" stroke="none" stroke-opacity="0" />
<polygon id="B2-1007" points="710.7371 162.5,731.2499 156.4103,728.0449 146.4744,708.173 152.4038" fill="#000000" stroke="none" stroke-opacity="0" />
<polygon id="B2-1008" points="708.3333 152.4038,705.4487 142.7885,724.8397 137.1795,727.8846 146.4744" fill="#000000" stroke="none" stroke-opacity="0" />
<polygon id="B2-1009" points="727.4038 136.2179,705.4487 142.9487,702.4038 133.4936,724.3589 126.6026" fill="#000000" stroke="none" stroke-opacity="0" />
<polygon id="B2-1010" points="724.5192 126.6026,720.8333 116.9872,699.3589 123.5577,702.5641 133.6538" fill="#000000" stroke="none" stroke-opacity="0" />
<polygon id="B2-1011" points="699.6794 123.7179,696.6346 113.9423,715.0641 108.3333,718.7499 117.6282" fill="#000000" stroke="none" stroke-opacity="0" />
<polygon id="B2-1012" points="690.3846 92.46795,696.6346 114.1026,715.0641 108.3333,712.6602 103.6859,707.6923 96.95512,699.0384 90.22436" fill="#000000" stroke="none" stroke-opacity="0" />
<polygon id="B2-1013" points="690.3846 92.6282,680.6089 95.51282,687.0192 116.9872,696.6346 114.1026" fill="#000000" stroke="none" stroke-opacity="0" />
<polygon id="B2-1014" points="680.6089 95.51282,687.0192 116.9872,677.2435 119.7115,671.6346 97.75641" fill="#000000" stroke="none" stroke-opacity="0" />
<polygon id="B2-1015" points="671.6346 97.91666,661.8589 100.641,664.7435 112.5,674.9999 109.9359" fill="#000000" stroke="none" stroke-opacity="0" />
<polygon id="B2-1016" points="662.0192 100.641,652.2435 103.0449,655.1282 114.9038,664.9038 112.3397" fill="#000000" stroke="none" stroke-opacity="0" />
<polygon id="B2-1017" points="646.7948 104.0064,652.5641 125.9615,638.3013 129.6474,633.3333 107.5321" fill="#000000" stroke="none" stroke-opacity="0" />
<polygon id="B2-1018" points="633.4935 107.5321,623.8782 109.7756,628.2051 131.5705,638.3013 129.6474" fill="#000000" stroke="none" stroke-opacity="0" />
<polygon id="B2-1019" points="624.1987 109.9359,614.2628 112.0192,618.1089 133.9743,628.3654 131.5705" fill="#000000" stroke="none" stroke-opacity="0" />
<polygon id="B2-1020" points="614.423 112.0192,604.4871 114.1026,608.6538 135.8974,618.2692 133.6538" fill="#000000" stroke="none" stroke-opacity="0" />
<polygon id="B2-1021" points="604.8077 114.2628,594.7115 115.8654,598.2371 137.8205,608.8141 135.7372" fill="#000000" stroke="none" stroke-opacity="0" />
<polygon id="B2-1022" points="586.8589 124.8397,595.8333 122.5962,598.5577 137.6602,589.2628 139.5833" fill="#000000" stroke="none" stroke-opacity="0" />
<polygon id="B2-1023" points="547.5961 130.9295,548.718 145.6731,539.1025 146.9551,537.8204 132.0513" fill="#000000" stroke="none" stroke-opacity="0" />
<polygon id="B2-1024" points="537.1794 124.6795,539.1025 146.6346,525 148.8782,522.9166 126.1218" fill="#000000" stroke="none" stroke-opacity="0" />
<polygon id="B2-1025" points="507.8526 127.8846,508.0128 140.3846,518.2692 140.0641,518.1089 127.2436" fill="#000000" stroke="none" stroke-opacity="0" />
<polygon id="B2-1026" points="507.8526 127.8846,508.0128 140.2243,498.8782 141.1859,498.3974 129.0064" fill="#000000" stroke="none" stroke-opacity="0" />
<polygon id="B2-1027" points="498.5577 129.0064,499.0385 151.4423,489.4231 151.7628,488.141 129.9679" fill="#000000" stroke="none" stroke-opacity="0" />
<polygon id="B2-1028" points="488.3013 130.1282,478.0449 130.9295,479.4872 152.7244,489.2628 151.923" fill="#000000" stroke="none" stroke-opacity="0" />
<polygon id="B2-1029" points="468.9102 131.7307,469.2308 153.0449,479.8077 152.7243,478.3654 130.7692" fill="#000000" stroke="none" stroke-opacity="0" />
<polygon id="B2-1030" points="469.0705 131.7308,458.8141 132.0513,459.6154 153.6859,469.391 153.3654" fill="#000000" stroke="none" stroke-opacity="0" />
<polygon id="B2-1031" points="458.9744 132.0513,449.1987 132.2115,448.8782 144.8718,459.1346 144.7115" fill="#000000" stroke="none" stroke-opacity="0" />
<polygon id="B2-1032" points="439.1026 132.0513,439.1026 144.8718,448.8782 144.7115,449.1987 132.2115" fill="#000000" stroke="none" stroke-opacity="0" />
<polygon id="B2-1033" points="439.2628 144.5513,459.4551 144.5513,459.6154 154.4872,439.4231 154.9679" fill="#000000" stroke="none" stroke-opacity="0" />
<polygon id="B2-1034" points="439.5833 154.9679,439.5833 165.2243,460.0962 165.2243,459.9359 154.3269" fill="#000000" stroke="none" stroke-opacity="0" />
<polygon id="B2-1035" points="439.9038 170.9936,450.4808 170.8333,450.641 185.0961,440.5449 185.2564" fill="#000000" stroke="none" stroke-opacity="0" />
<polygon id="B2-1036" points="440.7051 185.0961,461.0577 184.7756,461.218 194.5513,440.8654 194.8718" fill="#000000" stroke="none" stroke-opacity="0" />
<polygon id="B2-1037" points="440.8654 194.7115,461.3782 194.7115,461.6987 205.1282,441.1859 204.9679" fill="#000000" stroke="none" stroke-opacity="0" />
<polygon id="B2-1038" points="441.5064 204.6474,441.0256 215.0641,462.0192 214.7436,461.859 204.6474" fill="#000000" stroke="none" stroke-opacity="0" />
<polygon id="B2-1039" points="441.5064 214.9038,441.6667 224.8397,462.1795 225.3205,462.0192 214.7436" fill="#000000" stroke="none" stroke-opacity="0" />
<polygon id="B2-1040" points="441.9872 224.8397,463.3013 224.6795,463.4615 234.9359,441.8269 234.9359" fill="#000000" stroke="none" stroke-opacity="0" />
<polygon id="B2-1041" points="442.1474 234.9359,441.8269 244.8718,463.782 244.2308,463.6218 234.6154" fill="#000000" stroke="none" stroke-opacity="0" />
<polygon id="B2-1042" points="441.9872 244.7115,463.9423 244.0705,464.1026 254.9679,442.1474 254.9679" fill="#000000" stroke="none" stroke-opacity="0" />
<polygon id="B2-1043" points="442.3077 254.9679,442.6282 265.2243,464.5833 264.9038,464.2628 254.9679" fill="#000000" stroke="none" stroke-opacity="0" />
<polygon id="B2-1044" points="444.391 305.2885,443.9102 319.0705,468.2692 319.0705,467.468 304.9679" fill="#000000" stroke="none" stroke-opacity="0" />
<polygon id="B2-1045" points="444.7115 325.3205,444.7115 335.4167,468.4295 335.0961,468.2692 325.1602" fill="#000000" stroke="none" stroke-opacity="0" />
<polygon id="B2-1046" points="444.8718 335.2564,445.1923 345.1923,468.5898 344.8718,468.4295 334.9359" fill="#000000" stroke="none" stroke-opacity="0" />
<polygon id="B2-1047" points="445.5128 345.032,445.032 366.3462,457.3718 366.3462,457.2115 345.1923" fill="#000000" stroke="none" stroke-opacity="0" />
<polygon id="B2-1048" points="457.3718 344.8718,457.532 366.0256,469.7115 366.1859,468.9102 344.7115" fill="#000000" stroke="none" stroke-opacity="0" />
<polygon id="B2-1049" points="469.0705 344.7115,481.25 344.391,482.0513 364.7436,469.8718 365.7051" fill="#000000" stroke="none" stroke-opacity="0" />
<polygon id="B2-1050" points="481.25 344.391,492.468 343.75,494.391 364.2628,482.0513 364.4231" fill="#000000" stroke="none" stroke-opacity="0" />
<polygon id="B2-1051" points="492.468 343.75,505.1282 342.7885,506.7307 362.8205,494.391 363.9423" fill="#000000" stroke="none" stroke-opacity="0" />
<polygon id="B2-1052" points="505.1282 342.7885,516.5064 341.6667,518.4294 362.0192,506.7308 362.9807" fill="#000000" stroke="none" stroke-opacity="0" />
<polygon id="B2-1053" points="516.5064 341.6667,528.5256 340.3846,530.7692 361.0577,518.1089 362.1795" fill="#000000" stroke="none" stroke-opacity="0" />
<polygon id="B2-1054" points="528.5256 340.5449,540.3846 339.2628,542.3077 360.2564,530.4487 361.218" fill="#000000" stroke="none" stroke-opacity="0" />
<polygon id="B2-1055" points="540.3846 339.4231,552.4038 338.3013,554.6475 359.6154,542.1474 360.7372" fill="#000000" stroke="none" stroke-opacity="0" />
<polygon id="B2-1056" points="552.2436 338.3013,564.423 336.859,566.9872 358.4936,554.6474 360.0961" fill="#000000" stroke="none" stroke-opacity="0" />
<polygon id="B2-1057" points="564.2628 336.6987,575.8013 335.2564,579.1667 356.7307,566.9872 358.6538" fill="#000000" stroke="none" stroke-opacity="0" />
<polygon id="B2-1058" points="575.8013 334.9359,587.9808 333.1731,591.186 355.1282,578.8461 356.891" fill="#000000" stroke="none" stroke-opacity="0" />
<polygon id="B2-1059" points="587.8205 333.1731,605.1282 330.4487,608.8141 352.5641,591.1859 355.1282" fill="#000000" stroke="none" stroke-opacity="0" />
<polygon id="B2-1060" points="611.218 329.3269,614.5833 350,626.4423 347.7564,623.0769 326.7628" fill="#000000" stroke="none" stroke-opacity="0" />
<polygon id="B2-1061" points="622.9166 326.7628,634.7756 324.3589,638.6218 345.3525,626.6025 347.4359" fill="#000000" stroke="none" stroke-opacity="0" />
<polygon id="B2-1062" points="634.9359 324.3589,645.9936 322.2756,650.641 342.7885,638.782 345.1923" fill="#000000" stroke="none" stroke-opacity="0" />
<polygon id="B2-1063" points="645.9936 322.2756,657.8525 319.5513,662.3397 340.3846,650.641 342.3077" fill="#000000" stroke="none" stroke-opacity="0" />
<polygon id="B2-1064" points="657.8525 319.5513,669.5513 316.9872,674.3589 337.5,662.3397 340.0641" fill="#000000" stroke="none" stroke-opacity="0" />
<polygon id="B2-1065" points="669.5513 316.9872,680.9294 314.7436,685.8974 334.6154,674.3589 337.1795" fill="#000000" stroke="none" stroke-opacity="0" />
<polygon id="B2-1066" points="680.9294 314.7436,692.9487 312.3397,697.4359 331.5705,685.8974 334.4551" fill="#000000" stroke="none" stroke-opacity="0" />
<polygon id="B2-1067" points="692.9487 312.1795,704.6474 309.1346,709.6154 328.3654,697.4359 331.7307" fill="#000000" stroke="none" stroke-opacity="0" />
<polygon id="B2-1068" points="716.0256 306.5705,727.7243 303.6859,732.8525 323.3974,721.3141 326.282" fill="#000000" stroke="none" stroke-opacity="0" />
<polygon id="B2-1069" points="728.0448 303.8462,737.0192 301.4423,733.814 286.5385,753.8461 281.0897,755.2884 287.0192,745.032 306.4102,729.6474 310.7372" fill="#000000" stroke="none" stroke-opacity="0" />
<polygon id="B2-1070" points="734.1346 259.6154,747.1154 257.2115,752.2435 275.4808,740.2243 279.1667" fill="#000000" stroke="none" stroke-opacity="0" />
<polygon id="B2-1071" points="434.2949 332.0513,435.2564 352.5641,426.7628 352.8846,420.6731 346.9551" fill="#000000" stroke="none" stroke-opacity="0" />
<polygon id="B2-1072" points="420.8333 346.9551,414.7436 341.6667,427.4038 325.8013,434.4551 331.891" fill="#000000" stroke="none" stroke-opacity="0" />
<polygon id="B2-1073" points="414.9038 341.5064,408.4936 336.218,420.673 320.5128,427.4038 325.8013" fill="#000000" stroke="none" stroke-opacity="0" />
<polygon id="B2-1074" points="408.8141 336.218,401.7628 331.891,413.141 314.5833,420.8333 320.673" fill="#000000" stroke="none" stroke-opacity="0" />
<polygon id="B2-1075" points="413.3013 314.7436,405.6089 310.4167,395.3525 327.5641,402.0833 331.891" fill="#000000" stroke="none" stroke-opacity="0" />
<polygon id="B2-1076" points="395.5128 327.5641,405.6089 310.4167,397.7564 305.9295,388.3013 323.2372" fill="#000000" stroke="none" stroke-opacity="0" />
<polygon id="B2-1077" points="397.7564 305.9295,388.3013 323.0769,381.5706 319.8718,389.7435 302.0833" fill="#000000" stroke="none" stroke-opacity="0" />
<polygon id="B2-1078" points="389.5833 302.4038,381.25 320.9936,377.8846 325.641,371.7949 329.968,363.141 330.7692,354.8077 326.282,351.1218 320.5128,350.3205 311.3782,355.2885 291.0256,371.9551 294.8718" fill="#000000" stroke="none" stroke-opacity="0" />
<polygon id="B2-1079" points="353.8462 275.8013,354.968 280.2885,363.6218 282.3718,372.2756 284.9359,379.968 289.2628,382.0513 287.0192,376.1218 276.6026,380.1282 274.359,375.3205 266.5064,366.5064 271.3141" fill="#000000" stroke="none" stroke-opacity="0" />
<polygon id="B2-1080" points="376.1218 276.6026,383.6538 271.9551,390.0641 281.0898,382.0513 287.0192" fill="#000000" stroke="none" stroke-opacity="0" />
<polygon id="B2-1081" points="383.6538 271.9551,390.2243 266.3462,398.3974 274.6795,390.0641 280.9295" fill="#000000" stroke="none" stroke-opacity="0" />
<polygon id="B2-1082" points="390.0641 266.3462,396.9551 260.2564,405.1282 267.7885,398.2372 274.8398" fill="#000000" stroke="none" stroke-opacity="0" />
<polygon id="B2-1083" points="395.8333 247.7564,400.1602 241.6667,416.9872 251.9231,411.859 260.0962" fill="#000000" stroke="none" stroke-opacity="0" />
<polygon id="B2-1084" points="400.1602 241.6667,403.8462 234.4551,422.2756 243.5898,416.9872 251.9231" fill="#000000" stroke="none" stroke-opacity="0" />
<polygon id="B2-1085" points="404.1667 234.4551,406.5705 227.8846,426.1218 233.9744,422.2756 243.4295" fill="#000000" stroke="none" stroke-opacity="0" />
<polygon id="B2-1086" points="406.891 227.8846,408.9744 220.032,428.6859 224.5192,426.1218 233.9743" fill="#000000" stroke="none" stroke-opacity="0" />
<polygon id="B2-1087" points="409.1346 219.8718,410.5769 211.859,430.7692 214.2628,428.6859 224.6795" fill="#000000" stroke="none" stroke-opacity="0" />
<polygon id="B2-1088" points="410.7372 212.0192,411.0577 204.1667,431.25 204.6474,430.609 214.5833" fill="#000000" stroke="none" stroke-opacity="0" />
<polygon id="B2-1089" points="411.0577 204.1667,411.0577 196.1538,430.9295 195.1923,431.25 204.8077" fill="#000000" stroke="none" stroke-opacity="0" />
<polygon id="B2-1090" points="411.218 196.1538,410.0962 188.3013,429.4872 185.0962,430.7692 195.3526" fill="#000000" stroke="none" stroke-opacity="0" />
<polygon id="B2-1091" points="419.391 186.859,417.3077 178.0449,427.0833 175.1603,429.3269 185.4167" fill="#000000" stroke="none" stroke-opacity="0" />
<polygon id="B2-1092" points="417.6282 178.2051,414.1026 169.5513,423.8782 165.8654,427.0833 175.1603" fill="#000000" stroke="none" stroke-opacity="0" />
<polygon id="B2-1093" points="409.2949 162.3397,418.75 156.7308,413.9423 148.0769,404.3269 155.1282" fill="#000000" stroke="none" stroke-opacity="0" />
<polygon id="B2-1094" points="404.4872 155.1282,413.9423 148.0769,407.532 140.3846,399.1987 148.0769" fill="#000000" stroke="none" stroke-opacity="0" />
<polygon id="B2-1095" points="399.5192 148.0769,407.6923 140.3846,400.3205 133.1731,387.0192 147.7564,390.5449 151.4423,396.9551 145.5128" fill="#000000" stroke="none" stroke-opacity="0" />
<polygon id="B2-1096" points="387.3398 147.7564,400.3205 133.1731,378.3654 132.0512,374.6795 138.3013" fill="#000000" stroke="none" stroke-opacity="0" />
<polygon id="B2-1097" points="378.3654 132.2115,354.4872 132.2115,350.4808 137.5,347.7564 142.9487,346.3141 148.3974,355.4487 151.4423,364.1026 155.7692" fill="#000000" stroke="none" stroke-opacity="0" />
<polygon id="B2-1098" points="374.6795 138.3013,364.2628 155.7692,370.9936 160.7372,384.4551 145.6731" fill="#000000" stroke="none" stroke-opacity="0" />
<polygon id="B2-1099" points="371.1538 160.7372,384.4551 145.5128,392.3077 153.6859,377.0833 166.9872" fill="#000000" stroke="none" stroke-opacity="0" />
<polygon id="B2-1100" points="377.0833 166.9872,392.3077 153.5256,397.2756 159.7756,401.4423 166.3461,383.9744 176.4423" fill="#000000" stroke="none" stroke-opacity="0" />
<polygon id="B2-1101" points="386.3782 181.25,405.2885 174.0385,408.8141 184.2949,389.1026 189.7436" fill="#000000" stroke="none" stroke-opacity="0" />
<polygon id="B2-1102" points="389.2628 189.7436,408.8141 184.1346,410.5769 196.4743,390.7051 198.3974" fill="#000000" stroke="none" stroke-opacity="0" />
<polygon id="B2-1103" points="410.5769 196.4743,410.7372 208.0128,390.8654 207.0513,390.8654 198.0769" fill="#000000" stroke="none" stroke-opacity="0" />
<polygon id="B2-1104" points="390.8654 207.0513,389.4231 215.3846,408.9744 220.1923,410.5769 208.1731" fill="#000000" stroke="none" stroke-opacity="0" />
<polygon id="B2-1105" points="389.5833 215.2243,408.9744 220.1923,407.2115 225.9615,405.4487 231.25,386.6987 223.5577" fill="#000000" stroke="none" stroke-opacity="0" />
<polygon id="B2-1106" points="386.859 223.5577,405.2885 231.0897,400.1602 241.8269,382.8526 231.25" fill="#000000" stroke="none" stroke-opacity="0" />
<polygon id="B2-1107" points="371.9551 244.8718,384.6154 258.9744,375.4808 266.6667,364.9038 250" fill="#000000" stroke="none" stroke-opacity="0" />
<polygon id="B2-1108" points="364.9038 250.1603,375.3205 266.5064,364.9038 271.9551,357.6923 253.8462" fill="#000000" stroke="none" stroke-opacity="0" />
<polygon id="B2-1109" points="357.6923 254.0064,348.8782 256.5705,353.6859 275.9615,364.9038 271.7949" fill="#000000" stroke="none" stroke-opacity="0" />
<polygon id="B2-1110" points="349.0385 256.7308,339.7436 257.6923,341.1859 277.7244,355.1282 280.2885" fill="#000000" stroke="none" stroke-opacity="0" />
<polygon id="B2-1111" points="460.2564 153.2051,469.2308 344.2308,516.6666 341.0256,563.4615 337.1795,612.1795 329.4872,717.3077 305.7692,737.8205 301.282,733.3333 286.5385,742.9487 283.3333,735.2564 259.6154,739.1026 258.9743,696.7949 114.1026,651.282 126.9231,545.5128 146.1538,498.718 151.9231" fill="#000000" stroke="none" stroke-opacity="0" />
<polygon id="B3-1001" points="295.5128 52.88461,314.4231 54.80769,325.9615 69.87179,323.3974 88.14102,308.0128 99.67948,291.0256 98.39743,283.3333 89.10256,268.2692 87.17948,271.1538 69.55128,280.4487 70.83333,281.4102 64.42307" fill="#000000" stroke="none" stroke-opacity="0" />
<polygon id="B3-1002" points="264.4231 48.07692,261.5385 67.94871,281.0897 70.83333,281.7308 64.10255,270.1923 48.39743" fill="#000000" stroke="none" stroke-opacity="0" />
<polygon id="B3-1003" points="265.0641 48.39743,256.4102 46.47435,252.5641 66.02563,261.859 68.26923" fill="#000000" stroke="none" stroke-opacity="0" />
<polygon id="B3-1004" points="250.641 45.51281,238.141 42.94871,236.859 51.92307,249.0385 54.48717" fill="#000000" stroke="none" stroke-opacity="0" />
<polygon id="B3-1005" points="238.141 42.94871,233.9743 63.14102,225.3205 61.21795,229.1667 41.66666" fill="#000000" stroke="none" stroke-opacity="0" />
<polygon id="B3-1006" points="229.8077 41.98717,220.5128 39.74358,215.7051 59.61538,225.641 61.53846" fill="#000000" stroke="none" stroke-opacity="0" />
<polygon id="B3-1007" points="221.1538 40.0641,211.5385 37.82051,207.0513 57.6923,215.7051 59.61538" fill="#000000" stroke="none" stroke-opacity="0" />
<polygon id="B3-1008" points="202.5641 35.57692,193.9102 33.65384,189.1026 53.52563,198.3974 56.08974" fill="#000000" stroke="none" stroke-opacity="0" />
<polygon id="B3-1009" points="194.2308 33.97435,184.9359 31.41025,180.1282 50.64102,189.4231 53.52563" fill="#000000" stroke="none" stroke-opacity="0" />
<polygon id="B3-1010" points="173.0769 28.52564,169.2308 42.6282,181.4102 45.83333,184.9359 31.73076" fill="#000000" stroke="none" stroke-opacity="0" />
<polygon id="B3-1011" points="167.6282 26.60256,161.5385 46.15384,144.2308 40.70512,146.1538 34.29486,162.1795 25" fill="#000000" stroke="none" stroke-opacity="0" />
<polygon id="B3-1012" points="137.8205 18.26923,120.5128 12.82051,103.2051 21.15384,97.4359 38.14102,106.7308 56.08974,123.0769 61.53846,133.6538 55.76923,148.3974 60.57692,153.5256 43.58974,144.2308 40.70512,146.7949 34.29486" fill="#000000" stroke="none" stroke-opacity="0" />
<polygon id="B3-1013" points="153.5256 43.58974,148.7179 60.2564,157.6923 62.82051,162.5 46.47435" fill="#000000" stroke="none" stroke-opacity="0" />
<polygon id="B3-1014" points="161.5385 50.96153,157.6923 62.5,166.3461 65.38461,170.1923 53.52563" fill="#000000" stroke="none" stroke-opacity="0" />
<polygon id="B3-1015" points="169.8718 53.52563,166.0256 65.38461,175.9615 67.94871,178.8461 56.08974" fill="#000000" stroke="none" stroke-opacity="0" />
<polygon id="B3-1016" points="180.4487 50.64102,175.9615 67.6282,185.2564 70.51282,189.4231 53.52563" fill="#000000" stroke="none" stroke-opacity="0" />
<polygon id="B3-1017" points="189.4231 53.52563,184.9359 70.1923,193.5897 72.7564,198.3974 56.41025" fill="#000000" stroke="none" stroke-opacity="0" />
<polygon id="B3-1018" points="207.0513 58.01282,203.5256 74.03845,212.5 76.60255,216.0256 59.93589" fill="#000000" stroke="none" stroke-opacity="0" />
<polygon id="B3-1019" points="216.0256 59.61538,212.8205 76.60255,221.4743 78.84615,225.3205 61.53846" fill="#000000" stroke="none" stroke-opacity="0" />
<polygon id="B3-1020" points="225.641 61.53846,221.7949 78.52563,230.7692 80.76923,234.2949 63.46153" fill="#000000" stroke="none" stroke-opacity="0" />
<polygon id="B3-1021" points="233.6538 67.94871,231.0897 80.76923,239.7436 82.37179,242.3077 69.23077" fill="#000000" stroke="none" stroke-opacity="0" />
<polygon id="B3-1022" points="242.6282 69.23077,240.3846 82.05128,250 83.97435,251.6026 71.15384" fill="#000000" stroke="none" stroke-opacity="0" />
<polygon id="B3-1023" points="252.8846 65.70512,250 83.65384,259.2949 85.57692,261.859 67.94871" fill="#000000" stroke="none" stroke-opacity="0" />
<polygon id="B3-1024" points="262.1795 67.94871,259.2949 85.2564,268.5897 87.17948,271.4744 69.23077" fill="#000000" stroke="none" stroke-opacity="0" />
<polygon id="B4-1001" points="315.0641 254.1667,324.359 257.0513,319.8718 275.9615,305.4487 276.9231" fill="#000000" stroke="none" stroke-opacity="0" />
<polygon id="B4-1002" points="315.0641 254.1667,307.3718 272.4359,297.1154 266.9872,308.6538 248.0769" fill="#000000" stroke="none" stroke-opacity="0" />
<polygon id="B4-1003" points="300.3205 245.1923,287.8205 260.2564,297.4359 266.9872,307.3718 250.3205" fill="#000000" stroke="none" stroke-opacity="0" />
<polygon id="B4-1004" points="300.641 245.1923,295.1923 240.7051,290.0641 234.6154,274.359 245.5128,280.7692 253.8462,288.4615 260.2564" fill="#000000" stroke="none" stroke-opacity="0" />
<polygon id="B4-1005" points="269.5513 239.1026,262.8205 220.8333,282.3718 216.0256,287.1795 229.8077" fill="#000000" stroke="none" stroke-opacity="0" />
<polygon id="B4-1006" points="282.3718 216.0256,281.0897 207.6923,261.2179 208.9744,263.141 220.5128" fill="#000000" stroke="none" stroke-opacity="0" />
<polygon id="B4-1007" points="261.5385 208.9744,261.2179 198.0769,281.0897 198.7179,281.0897 208.0128" fill="#000000" stroke="none" stroke-opacity="0" />
<polygon id="B4-1008" points="281.4102 199.0385,282.0513 189.7436,262.5 185.5769,261.5385 198.3974" fill="#000000" stroke="none" stroke-opacity="0" />
<polygon id="B4-1009" points="262.8205 185.2564,266.3461 174.6795,284.9359 182.0513,282.0513 189.7436" fill="#000000" stroke="none" stroke-opacity="0" />
<polygon id="B4-1010" points="266.6667 174.359,271.4744 164.4231,288.4615 174.6795,284.9359 182.3718" fill="#000000" stroke="none" stroke-opacity="0" />
<polygon id="B4-1011" points="276.282 157.0513,291.9872 169.8718,299.6795 161.2179,286.859 146.1538" fill="#000000" stroke="none" stroke-opacity="0" />
<polygon id="B4-1012" points="287.1795 146.4743,296.7949 139.7436,306.4102 156.0897,299.359 161.5385" fill="#000000" stroke="none" stroke-opacity="0" />
<polygon id="B4-1013" points="296.4744 138.782,306.7308 155.7692,314.7436 151.282,306.7308 133.6538" fill="#000000" stroke="none" stroke-opacity="0" />
<polygon id="B4-1014" points="303.8462 126.9231,314.7436 150.9615,323.3974 148.7179,332.3718 147.4359,330.7692 130.1282" fill="#000000" stroke="none" stroke-opacity="0" />
<polygon id="B4-1015" points="304.1667 126.9231,281.4102 123.3974,288.141 133.3333,284.2949 136.5384,289.4231 143.2692,307.0513 133.6538" fill="#000000" stroke="none" stroke-opacity="0" />
<polygon id="B4-1016" points="281.4102 123.3974,272.1154 130.7692,281.0897 139.4231,288.141 133.0128" fill="#000000" stroke="none" stroke-opacity="0" />
<polygon id="B4-1017" points="272.4359 130.4487,265.7051 137.5,275 146.4743,281.7308 139.4231" fill="#000000" stroke="none" stroke-opacity="0" />
<polygon id="B4-1018" points="266.0256 137.1795,259.6154 145.1923,269.2308 152.5641,275 146.4743" fill="#000000" stroke="none" stroke-opacity="0" />
<polygon id="B4-1019" points="254.1667 153.5256,271.7949 164.1026,268.2692 170.8333,249.359 162.1795" fill="#000000" stroke="none" stroke-opacity="0" />
<polygon id="B4-1020" points="249.6795 162.1795,268.2692 170.5128,265.3846 178.2051,245.8333 171.4743" fill="#000000" stroke="none" stroke-opacity="0" />
<polygon id="B4-1021" points="246.1538 171.1538,243.2692 181.0897,262.5 185.5769,265.3846 178.2051" fill="#000000" stroke="none" stroke-opacity="0" />
<polygon id="B4-1022" points="262.8205 185.5769,261.859 192.9487,241.3461 191.0256,243.5897 181.0897" fill="#000000" stroke="none" stroke-opacity="0" />
<polygon id="B4-1023" points="241.3461 191.0256,240.7051 201.282,261.2179 201.282,262.1795 192.9487" fill="#000000" stroke="none" stroke-opacity="0" />
<polygon id="B4-1024" points="261.2179 200.9615,241.3461 201.282,241.6667 210.8974,261.2179 208.9744" fill="#000000" stroke="none" stroke-opacity="0" />
<polygon id="B4-1025" points="261.2179 208.9744,241.9872 210.8974,242.6282 221.1538,262.1795 216.9872" fill="#000000" stroke="none" stroke-opacity="0" />
<polygon id="B4-1026" points="262.1795 216.6667,242.9487 221.4744,245.5128 230.4487,264.4231 224.6795" fill="#000000" stroke="none" stroke-opacity="0" />
<polygon id="B4-1027" points="264.4231 224.359,245.8333 230.1282,248.3974 239.7436,267.3077 232.0513" fill="#000000" stroke="none" stroke-opacity="0" />
<polygon id="B4-1028" points="266.6667 232.3718,249.0385 239.4231,252.8846 248.7179,270.1923 239.1026" fill="#000000" stroke="none" stroke-opacity="0" />
<polygon id="B4-1029" points="266.9872 250.641,257.6923 257.6923,263.782 265.7051,272.4359 258.0128" fill="#000000" stroke="none" stroke-opacity="0" />
<polygon id="B4-1030" points="272.4359 258.0128,263.782 265.3846,270.5128 272.7564,278.8461 264.1025" fill="#000000" stroke="none" stroke-opacity="0" />
<polygon id="B4-1031" points="278.5256 264.1025,270.5128 272.1154,278.8461 279.1667,285.2564 270.1923" fill="#000000" stroke="none" stroke-opacity="0" />
<polygon id="B4-1032" points="287.5 259.9359,282.0513 266.9872,284.9359 270.8334,279.1667 279.1667,281.0897 280.7692,291.3462 278.2051,305.7692 276.9231,307.3718 272.1154,298.3974 267.6282" fill="#000000" stroke="none" stroke-opacity="0" />
<polygon id="B4-1033" points="303.8462 287.5,306.0898 308.3333,304.8077 314.1026,300.641 320.1923,294.8718 325,286.218 325,277.8846 319.8718,273.718 311.5385,269.2308 293.2692,279.8077 290.3846,291.6667 288.141" fill="#000000" stroke="none" stroke-opacity="0" />
<polygon id="B4-1034" points="269.5513 293.2692,259.6154 296.7949,266.0256 315.3846,274.6795 312.5" fill="#000000" stroke="none" stroke-opacity="0" />
<polygon id="B4-1035" points="251.2821 299.6795,259.6154 317.6282,252.5641 321.1538,244.2308 302.8846" fill="#000000" stroke="none" stroke-opacity="0" />
<polygon id="B4-1036" points="243.9103 303.2051,252.2436 321.1538,244.8718 324.6795,235.2564 307.0513" fill="#000000" stroke="none" stroke-opacity="0" />
<polygon id="B4-1037" points="226.9231 311.5385,237.8205 328.5256,244.8718 324.6795,235.2564 307.0513" fill="#000000" stroke="none" stroke-opacity="0" />
<polygon id="B4-1038" points="230.1282 333.3334,219.2308 317.3076,226.9231 311.859,237.8205 328.5257" fill="#000000" stroke="none" stroke-opacity="0" />
<polygon id="B4-1039" points="219.2308 317.3077,230.4487 333.3333,223.7179 339.1025,216.3462 337.8206" fill="#000000" stroke="none" stroke-opacity="0" />
<polygon id="B4-1040" points="207.0513 328.2051,184.2949 324.359,186.2179 310.8974,209.2949 315.0641" fill="#000000" stroke="none" stroke-opacity="0" />
<polygon id="B4-1041" points="187.8205 304.8077,189.7436 294.5513,212.5 299.359,210.5769 308.6538" fill="#000000" stroke="none" stroke-opacity="0" />
<polygon id="B4-1042" points="190.0641 294.8718,191.6667 284.2949,214.4231 288.782,212.1795 299.359" fill="#000000" stroke="none" stroke-opacity="0" />
<polygon id="B4-1043" points="198.7179 245.8333,201.282 235.8974,223.0769 239.1026,220.8333 250" fill="#000000" stroke="none" stroke-opacity="0" />
<polygon id="B4-1044" points="201.282 235.8974,202.8846 225.641,224.0385 229.4872,222.7564 239.1026" fill="#000000" stroke="none" stroke-opacity="0" />
<polygon id="B4-1045" points="203.2051 225.641,204.8077 215.7051,225.9615 219.2308,224.0385 229.8077" fill="#000000" stroke="none" stroke-opacity="0" />
<polygon id="B4-1046" points="204.8077 215.7051,207.0513 206.4103,227.8846 210.2564,225.9615 219.2308" fill="#000000" stroke="none" stroke-opacity="0" />
<polygon id="B4-1047" points="207.0513 206.4103,208.9744 196.1539,229.4872 200,227.8846 210.5769" fill="#000000" stroke="none" stroke-opacity="0" />
<polygon id="B4-1048" points="229.1667 200.641,231.0897 190.0641,210.8974 186.218,209.2949 196.4744" fill="#000000" stroke="none" stroke-opacity="0" />
<polygon id="B4-1049" points="210.8974 186.218,212.8205 176.9231,232.3718 180.4487,231.0897 190.3846" fill="#000000" stroke="none" stroke-opacity="0" />
<polygon id="B4-1050" points="232.0513 180.4487,234.2949 170.5128,215.0641 166.6667,213.141 177.2436" fill="#000000" stroke="none" stroke-opacity="0" />
<polygon id="B4-1051" points="224.359 168.5897,226.282 158.6538,236.2179 160.5769,234.2949 170.8333" fill="#000000" stroke="none" stroke-opacity="0" />
<polygon id="B4-1052" points="226.6026 158.6538,228.2051 148.3974,238.4615 150.3205,236.2179 160.8974" fill="#000000" stroke="none" stroke-opacity="0" />
<polygon id="B4-1053" points="239.4231 144.5513,241.6667 130.7692,222.1154 126.9231,219.2308 140.3846" fill="#000000" stroke="none" stroke-opacity="0" />
<polygon id="B4-1054" points="241.6667 130.7692,243.5897 118.2692,233.9744 116.6667,232.0513 129.1667" fill="#000000" stroke="none" stroke-opacity="0" />
<polygon id="B4-1055" points="224.359 115.3846,222.1154 126.9231,232.0513 128.8461,234.2949 116.9872" fill="#000000" stroke="none" stroke-opacity="0" />
<polygon id="B4-1056" points="224.359 115.0641,219.5513 136.859,210.2564 134.6154,214.7436 113.4615" fill="#000000" stroke="none" stroke-opacity="0" />
<polygon id="B4-1057" points="215.0641 113.7821,205.1282 111.5385,200.3205 132.6923,209.9359 134.6154" fill="#000000" stroke="none" stroke-opacity="0" />
<polygon id="B4-1058" points="205.4487 112.1795,195.1923 109.6154,190.3846 130.7692,200.3205 133.0128" fill="#000000" stroke="none" stroke-opacity="0" />
<polygon id="B4-1059" points="157.3718 99.67949,148.0769 97.11539,141.6667 118.5897,151.282 121.7949" fill="#000000" stroke="none" stroke-opacity="0" />
<polygon id="B4-1060" points="141.6667 118.5897,131.7308 116.0256,138.4615 93.91026,147.7564 97.4359" fill="#000000" stroke="none" stroke-opacity="0" />
<polygon id="B4-1061" points="138.4615 93.91026,129.8077 91.66666,122.7564 112.8205,131.7308 116.3462" fill="#000000" stroke="none" stroke-opacity="0" />
<polygon id="B4-1062" points="130.1282 91.98718,119.8718 88.78205,112.8205 109.6154,123.0769 112.8205" fill="#000000" stroke="none" stroke-opacity="0" />
<polygon id="B4-1063" points="119.8718 89.42308,110.2564 85.89744,103.5256 107.3718,113.141 110.2564" fill="#000000" stroke="none" stroke-opacity="0" />
<polygon id="B4-1064" points="112.5 78.20513,103.5256 106.7308,93.58974 103.8462,102.8846 76.28205" fill="#000000" stroke="none" stroke-opacity="0" />
<polygon id="B4-1065" points="102.8846 76.60256,93.91025 103.8462,84.29486 100.9615,92.6282 76.92308" fill="#000000" stroke="none" stroke-opacity="0" />
<polygon id="B4-1066" points="92.94871 76.92308,69.55127 84.61539,64.10255 82.69231,61.21794 91.98722,84.61538 100.9615" fill="#000000" stroke="none" stroke-opacity="0" />
<polygon id="B4-1067" points="61.53846 91.98718,58.33332 102.2436,80.76923 110.2564,84.61538 100.641" fill="#000000" stroke="none" stroke-opacity="0" />
<polygon id="B4-1068" points="61.85897 103.5256,55.44871 122.1154,65.38461 126.2821,71.79486 107.0513" fill="#000000" stroke="none" stroke-opacity="0" />
<polygon id="B4-1069" points="52.88461 128.8461,48.07692 140.7051,68.26922 148.3974,72.43589 136.2179" fill="#000000" stroke="none" stroke-opacity="0" />
<polygon id="B4-1070" points="48.71794 140.7756,44.87179 150,64.92307 157.6923,67.94871 148.4679" fill="#000000" stroke="none" stroke-opacity="0" xmlns="http://www.w3.org/2000/svg" />
<polygon id="B4-1071" points="45.1923 149.6795,64.74358 157.6218,61.53846 167.5577,41.34615 159.9359" fill="#000000" stroke="none" stroke-opacity="0" xmlns="http://www.w3.org/2000/svg" />
<polygon id="B4-1072" points="41.98717 159.9359,37.49999 171.7949,57.37179 179.4872,61.85897 166.6667" fill="#000000" stroke="none" stroke-opacity="0" />
<polygon id="B4-1073" points="34.29486 178.8461,28.20512 197.4359,37.49999 200.9615,43.26922 182.0513" fill="#000000" stroke="none" stroke-opacity="0" />
<polygon id="B4-1074" points="28.52563 197.4359,49.03845 205.4487,45.51281 214.4231,24.35897 207.0513" fill="#000000" stroke="none" stroke-opacity="0" />
<polygon id="B4-1075" points="24.67948 207.0513,21.15384 216.3462,42.30769 224.0385,45.51281 214.7436" fill="#000000" stroke="none" stroke-opacity="0" />
<polygon id="B4-1076" points="21.79486 216.0256,17.30768 225.9615,38.78204 234.2949,41.98717 223.718" fill="#000000" stroke="none" stroke-opacity="0" />
<polygon id="B4-1077" points="17.94871 225.9615,14.10256 235.2564,35.89743 243.5898,38.78204 234.6154" fill="#000000" stroke="none" stroke-opacity="0" />
<polygon id="B4-1078" points="10.57692 234.6154,35.89743 243.5898,32.37179 252.8846,6.410249 243.5898" fill="#000000" stroke="none" stroke-opacity="0" />
<polygon id="B4-1079" points="6.730762 243.2692,2.564095 253.2051,28.84615 262.5,32.05127 253.1346" fill="#000000" stroke="none" stroke-opacity="0" xmlns="http://www.w3.org/2000/svg" />
<polygon id="B4-1080" points="21.79486 260.2564,51.92307 269.5513,42.6282 295.8333,27.88461 291.0256,18.26922 271.4744" fill="#000000" stroke="none" stroke-opacity="0" />
<polygon id="B4-1081" points="50.5 290.5,46 302.75,41.25 301.25,39.25 307.75,50.75 312,57.25 292.75" fill="#000000" stroke="none" />
<polygon id="B4-1082" points="57.25 293,51 311.75,61.75 315.75,68 296" fill="#000000" stroke="none" stroke-opacity="0" />
<polygon id="B4-1083" points="68 295.75,79.25 299.25,73.5 318.75,61.75 315.5" fill="#000000" stroke="none" stroke-opacity="0" />
<polygon id="B4-1084" points="79.5 299.25,91.25 302.25,85.5 322.5,73.25 318.75" fill="#000000" stroke="none" stroke-opacity="0" />
<polygon id="B4-1085" points="91.5 302.25,102.75 305.25,97.25 325.5,85.5 322" fill="#000000" stroke="none" stroke-opacity="0" />
<polygon id="B4-1086" points="102.75 305.5,113.75 308.5,108.25 329,97 325.5" fill="#000000" stroke="none" stroke-opacity="0" />
<polygon id="B4-1087" points="114 308.5,126 311.5,120.25 333.25,108 329.25" fill="#000000" stroke="none" stroke-opacity="0" />
<polygon id="B4-1088" points="126 311.5,137.25 314.25,132 335.5,120.25 333" fill="#000000" stroke="none" stroke-opacity="0" />
<polygon id="B4-1089" points="137 314.25,149 317.25,143.25 338.75,131.75 335.75" fill="#000000" stroke="none" stroke-opacity="0" />
<polygon id="B4-1090" points="149 317.25,160.5 319.75,156 341,143.25 338.75" fill="#000000" stroke="none" stroke-opacity="0" />
<polygon id="B4-1091" points="160.5 319.75,172.5 322.25,168 343.75,155.75 341.25" fill="#000000" stroke="none" stroke-opacity="0" />
<polygon id="B4-1092" points="172.25 322.25,184.5 324.25,179.75 345,168.25 343.5" fill="#000000" stroke="none" stroke-opacity="0" />
<polygon id="B4-1093" points="184.25 324.5,195.5 326.5,191.75 346.25,180.25 344" fill="#000000" stroke="none" stroke-opacity="0" />
<polygon id="B4-1094" points="191.75 346,203.75 348.5,207.5 328.25,195.5 326.5" fill="#000000" stroke="none" stroke-opacity="0" />
<polygon id="B4-1095" points="84.5 101,151.25 121.5,154.25 111.75,192.5 121.5,190.5 130.25,220 136.75,218 141.25,239.25 144.5,238.25 150.5,228.25 148.5,224.75 168.25,215.25 166.5,199.25 246,210.25 248.25,203 286.25,192 284.25,183.5 326,50.25 292.5,53.75 281.5,67.25 285.25,70.75 275.75,29.25 262.25" fill="#000000" stroke="none" stroke-opacity="0" />
</svg>
