<?xml version="1.0" encoding="UTF-8" standalone="no"?>
<!-- Created with Inkscape (http://www.inkscape.org/) -->

<svg xmlns:dc="http://purl.org/dc/elements/1.1/" xmlns:cc="http://creativecommons.org/ns#" xmlns:rdf="http://www.w3.org/1999/02/22-rdf-syntax-ns#" xmlns:svg="http://www.w3.org/2000/svg" xmlns="http://www.w3.org/2000/svg" xmlns:xlink="http://www.w3.org/1999/xlink" xmlns:sodipodi="http://sodipodi.sourceforge.net/DTD/sodipodi-0.dtd" xmlns:inkscape="http://www.inkscape.org/namespaces/inkscape" width="770" height="800" id="svg2" version="1.1" inkscape:version="0.47pre4 " sodipodi:docname="test.svg" style="display:inline" stroke="#000000">
<defs id="defs4">
<inkscape:perspective sodipodi:type="inkscape:persp3d" inkscape:vp_x="0 : 526.18109 : 1" inkscape:vp_y="0 : 1000 : 0" inkscape:vp_z="744.09448 : 526.18109 : 1" inkscape:persp3d-origin="372.04724 : 350.78739 : 1" id="perspective10" />
<inkscape:perspective id="perspective2832" inkscape:persp3d-origin="0.5 : 0.33333333 : 1" inkscape:vp_z="1 : 0.5 : 1" inkscape:vp_y="0 : 1000 : 0" inkscape:vp_x="0 : 0.5 : 1" sodipodi:type="inkscape:persp3d" />
<script type="text/ecmascript" id="script6">
		var fdat="",sdat="";
		function onAreaOver(evt){
			var ele=evt.target; 
			fdat=ele.getAttribute('fill'); 
			sdat=ele.getAttribute('stroke');
			ele.setAttribute('fill','#006fb6');//多边形填充颜色
			ele.setAttribute('stroke','#006fb6');//stroke 多边形 边框颜色
			
		}
		function onAreaOut(evt){
			var ele=evt.target; 
			ele.setAttribute('fill',fdat);
			ele.setAttribute('stroke',sdat);
		}
		</script>
<symbol overflow="visible" id="symbol" style="overflow:visible">
<path d="m 626,156 2,-2 2,-4 0,-3 -1,-3 -4,-3 -6,-3 -5,-2 -4,-2 -4,8 -6,14" id="path9" style="fill:#000000;stroke:none" />
</symbol>
</defs>
<sodipodi:namedview id="base" pagecolor="#ffffff" bordercolor="#666666" borderopacity="1.0" inkscape:pageopacity="0.0" inkscape:pageshadow="2" inkscape:zoom="5.6" inkscape:cx="583.1007" inkscape:cy="273.63795" inkscape:document-units="px" inkscape:current-layer="svg2" showgrid="false" inkscape:window-width="1280" inkscape:window-height="740" inkscape:window-x="-4" inkscape:window-y="-4" inkscape:window-maximized="1" />
<metadata id="metadata7">
<rdf:RDF>
<cc:Work>
<dc:format>
				image/svg+xml</dc:format>
<dc:type rdf:resource="http://purl.org/dc/dcmitype/StillImage" />
<dc:title>
</dc:title>
</cc:Work>
</rdf:RDF>
</metadata>
<image xlink:href="qdchengyang_mall_2f_a.png" width="770" height="800" id="image2834" x="-485" y="255.93361" transform="translate(485,-255.9336)" inkscape:label="Layer 1" inkscape:groupmode="layer" style="display:inline" />
<polygon id="2002" points="704 42,706 95,748.5 93.5,749 39.5" fill="#000000" stroke="#000000" />
<polygon id="2003" points="671.5 42,673.5 79,686.5 79,689.5 94.5,705.5 95.5,704 41" fill="#000000" stroke="#000000" />
<polygon id="2004" points="635.5 28,644 101,690.5 94.5,687 80,676.5 79.5,673 26.5" fill="#000000" stroke="#000000" />
<polygon id="2005" points="602 32.5,609.5 81,600.5 82.5,604 102.5,644 102,635 27" fill="#000000" stroke="#000000" />
<polygon id="2006" points="573 54,580.5 105,595.5 103,590.5 52" fill="#000000" stroke="#000000" />
<polygon id="2007" points="557 56.5,563.5 108,581 106,573 54" fill="#000000" stroke="#000000" />
<polygon id="2008" points="540 59,549 110,563 107.5,556.5 57" fill="#000000" stroke="#000000" />
<polygon id="2009" points="507 63.5,517 116.5,549 110,540.5 58.5" fill="#000000" stroke="#000000" />
<polygon id="2010" points="491.5 67,501.5 118,518.5 114.5,507 64" fill="#000000" stroke="#000000" />
<polygon id="2011" points="475 69,482.5 100,473.5 104,481 121.5,501.5 119,491.5 66.5" fill="#000000" stroke="#000000" />
<polygon id="2012" points="443 77.5,455.5 128.5,471.5 123.5,461.5 73" fill="#000000" stroke="#000000" />
<polygon id="2013" points="427 81,439.5 131.5,454 128,441.5 76.5" fill="#000000" stroke="#000000" />
<polygon id="2014" points="410.5 84.5,424 134,439.5 132,427.5 80.5" fill="#000000" stroke="#000000" />
<polygon id="2015" points="379 93,395 144.5,424 135,409.5 84.5" fill="#000000" stroke="#000000" />
<polygon id="2016" points="364 97,378 146.5,395.5 140,378 92" fill="#000000" stroke="#000000" />
<polygon id="2017" points="364 97,378 145.5,362.5 150.5,347 101" fill="#000000" stroke="#000000" />
<polygon id="2018" points="332 106,347.5 157,363.5 152,348 100.5" fill="#000000" stroke="#000000" />
<polygon id="2019" points="315.5 111.5,333.5 161.5,348 157,332 105.5" fill="#000000" stroke="#000000" />
<polygon id="2020" points="285 121.5,301.5 171,333 160.5,316 111" fill="#000000" stroke="#000000" />
<polygon id="2021" points="268 128.5,287.5 176,302 172,286 121.5" fill="#000000" stroke="#000000" />
<polygon id="2022" points="68.5 202,76.5 179.5,106 166,130.5 173.5,134 182,193.5 156.5,188.5 146,199 124,231 112.5,251 121.5,272.5 181,229.5 197,177.5 220,128.5 242,97 258" fill="#000000" stroke="#000000" />
<polygon id="2023" points="22.5 241.5,23 285,71.5 286,73 272.5,98 259,72.5 212" fill="#000000" stroke="#000000" />
<polygon id="2024" points="21.5 284,22 301.5,72.5 299.5,71.5 286.5" fill="#000000" stroke="#000000" />
<polygon id="2025" points="22.5 299,22.5 313.5,72.5 314,72.5 299" fill="#000000" stroke="#000000" />
<polygon id="2026" points="21.5 312,22.5 345.5,53 345.5,53 353,72 352.5,72 313.5" fill="#000000" stroke="#000000" />
<polygon id="2027" points="59 360,59 376,71 375,71 359.5" fill="#000000" stroke="#000000" />
<polygon id="2028" points="52.5 374,52 391,70.5 391,71 375" fill="#000000" stroke="#000000" />
<polygon id="2029" points="15 389.5,15.5 407,71 406,70.5 389" fill="#000000" stroke="#000000" />
<polygon id="2030" points="33 406,33.5 435,70 436.5,72 406" fill="#000000" stroke="#000000" />
<polygon id="2031" points="33.5 434.5,34 449,71 450,70.5 435.5" fill="#000000" stroke="#000000" />
<polygon id="2032" points="33.5 448,33 466.5,71 464,71 448.5" fill="#000000" stroke="#000000" />
<polygon id="2033" points="33 463.5,33 479.5,70.5 480,71.5 464" fill="#000000" stroke="#000000" />
<polygon id="2034" points="33 478,33.5 495.5,70 495,71 479" fill="#000000" stroke="#000000" />
<polygon id="2035" points="15.5 493.5,15.5 524,24 526,21 585.5,71.5 584,71.5 495" fill="#000000" stroke="#000000" />
<polygon id="2036" points="20.5 586,23 674,52.5 674,52.5 682.5,43.5 682,29 694,30 715,44 727.5,62.5 727,75 714,82.5 704.5,114 705.5,114 684,97.5 684.5,74.5 654.5,71 585" fill="#000000" stroke="#000000" />
<polygon id="2037" points="82.5 717,82.5 735,114 736.5,112 718" fill="#000000" stroke="#000000" />
<polygon id="2038" points="131 684.5,132 734.5,232.5 737,232 685" fill="#000000" stroke="#000000" />
<polygon id="2039" points="233 685,261.5 684,261.5 700,247.5 700.5,247 705.5,233.5 705" fill="#000000" stroke="#000000" />
<polygon id="2040" points="284.5 685,299 693.5,316.5 693,328.5 685,381 684.5,382.5 734,269 734.5,269.5 684.5" fill="#000000" stroke="#000000" />
<polygon id="2041" points="381.75 684,395.75 684.5,395 714.75,382 716" fill="#000000" stroke="#000000" />
<polygon id="2042" points="396 684.25,412.5 684.5,412.25 707.25,394.5 707.25" fill="#000000" stroke="#000000" />
<polygon id="2043" points="418.75 684.5,418.75 704.75,441 703.75,459.5 711.5,463.75 697,463 690,456 684.75" fill="#000000" stroke="#000000" />
<polygon id="2044" points="418.5 704.75,418.75 730.25,453.25 735.75,459.25 711.75,441.5 703.25" fill="#000000" stroke="#000000" />
<polygon id="2045" points="404.5 734.25,402 745,401.5 755.5,449.75 760.25,453 743.25" fill="#000000" stroke="#000000" />
<polygon id="2046" points="401.25 755,400.25 763.25,400.25 772.75,449.25 775,450.25 767.25,450.5 760.5" fill="#000000" stroke="#000000" />
<polygon id="2047" points="400.5 772.75,399.25 783.75,399.75 792.75,449 793,448.75 782.5,449.25 774.75" fill="#000000" stroke="#000000" />
<polygon id="2118" points="279 230,278 247,281.25 253.5,287.25 260,317.75 260.5,303.25 221" fill="#000000" stroke="none" stroke-opacity="0" />
<polygon id="2119" points="303.25 220.75,317.5 215.75,329 246.5,314.25 251.5" fill="#000000" stroke="none" stroke-opacity="0" />
<polygon id="2120" points="327.75 243.25,341.5 238.5,332.25 211,317.25 215.5" fill="#000000" stroke="none" stroke-opacity="0" />
<polygon id="2121" points="332.5 211,342.5 241.25,357.5 237.25,347.25 206" fill="#000000" stroke="none" stroke-opacity="0" />
<polygon id="2122" points="346.75 206,364 260.25,388.75 260.5,397.25 257.75,375.75 197.25" fill="#000000" stroke="none" stroke-opacity="0" />
<polygon id="2123" points="376 197.25,385.75 228,399.75 224,390.25 192.75" fill="#000000" stroke="none" stroke-opacity="0" />
<polygon id="2124" points="390 193.25,400 223.75,414.25 219.75,405.75 189.25" fill="#000000" stroke="none" stroke-opacity="0" />
<polygon id="2125" points="405 188.75,414.25 219.75,429 215.5,421 185" fill="#000000" stroke="none" stroke-opacity="0" />
<polygon id="2126" points="420.25 184.75,444.25 179,448.5 195.75,425.25 201.5" fill="#000000" stroke="none" stroke-opacity="0" />
<polygon id="2127" points="456.5 176.25,463.25 208.25,486.5 202.75,480.25 171" fill="#000000" stroke="none" stroke-opacity="0" />
<polygon id="2128" points="480.25 171,496 167.5,502.75 197,485.75 199.75" fill="#000000" stroke="none" stroke-opacity="0" />
<polygon id="2129" points="495.5 168,508.5 230,537.25 225.25,525.5 162.25,510.25 164.25" fill="#000000" stroke="none" stroke-opacity="0" />
<polygon id="2130" points="525 162,547.25 157.75,552.5 190.5,530.75 193.75" fill="#000000" stroke="#000000" />
<polygon id="2131" points="555.25 158,557.5 174.5,589 170.5,587.25 152" fill="#000000" stroke="#000000" />
<polygon id="2132" points="588 152,597 152.5,607.25 157,615.25 163.75,618.5 169.75,622.25 180,608 197.75,588.75 184" fill="#000000" stroke="#000000" />
<polygon id="2133" points="576 186.5,579.5 217.75,593.25 217,608.5 198,588.75 183.5" fill="#000000" stroke="#000000" />
<polygon id="2134" points="560.25 188.75,565.25 219.75,579 218.5,575.5 185.75" fill="#000000" stroke="#000000" />
<polygon id="2135" points="545.75 191,551.5 222.25,565.25 220.25,559.75 188.75" fill="#000000" stroke="#000000" />
<polygon id="2137" points="467 222,471 239,509 230,505 213.25" fill="#000000" stroke="#000000" />
<polygon id="2138" points="432.25 230.5,436.5 247,459.75 241.75,455 223.75" fill="#000000" stroke="#000000" />
<polygon id="2139" points="414 219.5,422 250.25,436.25 247,429 215" fill="#000000" stroke="#000000" />
<polygon id="2140" points="399.5 224,408.25 255,422 251.25,413.25 219.25" fill="#000000" stroke="#000000" />
<polygon id="2141" points="386 227.5,396.5 257.5,408.25 255.5,398.75 223.5" fill="#000000" stroke="#000000" />
<polygon id="2142" points="314 251.25,318 260.75,364.25 260.25,356.25 236.5" fill="#000000" stroke="#000000" />
<polygon id="2136" points="531.5 193.5,538 225.75,551.75 223.25,545 191.5" fill="#000000" stroke="#000000" />
<polygon id="2048" points="172 282.75,171.75 304.75,187.25 305,187 283" fill="#000000" stroke="#000000" />
<polygon id="2049" points="157 282.5,157 307.25,171.75 307.25,172 282.25" fill="#000000" stroke="#000000" />
<polygon id="2050" points="142 282.75,142 314,157.25 314.25,157 282.25" fill="#000000" stroke="#000000" />
<polygon id="2051" points="123.5 283,123.5 302.5,142.25 301.75,141.75 282.75" fill="#000000" stroke="#000000" />
<polygon id="2052" points="122.75 324.25,131.5 324.25,131.5 337.25,138.25 337.25,138 344.5,123 345.5" fill="#000000" stroke="#000000" />
<polygon id="2053" points="123.25 374.5,123.25 390.75,157.75 390,156.75 374.75" fill="#000000" stroke="none" stroke-opacity="0" />
<polygon id="2054" points="123.25 390,123.5 405.25,158 405.25,158 388.75" fill="#000000" stroke="none" stroke-opacity="0" />
<polygon id="2055" points="123.5 404.5,123.5 420,158 420,158 404.75" fill="#000000" stroke="none" stroke-opacity="0" />
<polygon id="2056" points="123.75 419.5,123.75 435,158 435,158 419.5" fill="#000000" stroke="none" stroke-opacity="0" />
<polygon id="2057" points="123.25 434.25,123.25 449.5,157.75 449.5,157.75 433.75" fill="#000000" stroke="none" stroke-opacity="0" />
<polygon id="2058" points="123.5 448.5,123.5 464.25,158 464.25,158 449.25" fill="#000000" stroke="none" stroke-opacity="0" />
<polygon id="2059" points="123.5 463.75,123.25 479.75,157.75 479,157.75 463.75" fill="#000000" stroke="none" stroke-opacity="0" />
<polygon id="2060" points="123.25 478.5,123.25 494.5,156.75 495,157.25 478.25" fill="#000000" stroke="none" stroke-opacity="0" />
<polygon id="2061" points="123 499,122.75 522,142.5 521.75,142.25 499.5" fill="#000000" stroke="none" stroke-opacity="0" />
<polygon id="2062" points="123 535.75,123.25 555,157.25 555,157.25 536" fill="#000000" stroke="none" stroke-opacity="0" />
<polygon id="2063" points="122.75 554.75,123 569.25,144.75 569.25,144.75 554" fill="#000000" stroke="none" stroke-opacity="0" />
<polygon id="2064" points="123 569.25,123.25 584,145.75 584.5,144.75 568" fill="#000000" stroke="none" stroke-opacity="0" />
<polygon id="2065" points="123.25 583.5,123.5 600,145.5 599.75,146.5 584" fill="#000000" stroke="none" stroke-opacity="0" />
<polygon id="2066" points="171.75 598.5,172.25 632.25,187.5 632.25,187.5 598.5" fill="#000000" stroke="none" stroke-opacity="0" />
<polygon id="2067" points="187 598.5,187 632.25,202.75 632.25,202.75 598.5" fill="#000000" stroke="none" stroke-opacity="0" />
<polygon id="2068" points="202.25 598.5,202.25 632.75,217 632.75,217 598.5" fill="#000000" stroke="none" stroke-opacity="0" />
<polygon id="2069" points="216.5 598.75,216.5 632.75,232.5 632.75,232.5 598.75" fill="#000000" stroke="none" stroke-opacity="0" />
<polygon id="2070" points="232 614.25,247 614.25,247 633.25,232 633.25" fill="#000000" stroke="none" stroke-opacity="0" />
<polygon id="2071" points="246.75 614.5,246.75 633.5,258.75 633.5,258.75 613.75" fill="#000000" stroke="none" stroke-opacity="0" />
<polygon id="2072" points="270 598.75,270 633.5,284.25 633.5,292.25 626.5,292.25 599" fill="#000000" stroke="none" stroke-opacity="0" />
<polygon id="2073" points="291.5 599,291.5 627.5,308.25 623.75,308.25 598.75" fill="#000000" stroke="none" stroke-opacity="0" />
<polygon id="2074" points="307.5 598.75,307.5 624,322 627.75,322 598.5" fill="#000000" stroke="none" stroke-opacity="0" />
<polygon id="2075" points="321.5 627,329 632.25,343.5 632.25,343.5 614,322.5 614" fill="#000000" stroke="none" stroke-opacity="0" />
<polygon id="2076" points="351 613.75,351 633.25,366.25 633.25,366.25 613.75" fill="#000000" stroke="none" stroke-opacity="0" />
<polygon id="2077" points="366.25 614,366.25 633.25,382 633.25,382 614" fill="#000000" stroke="none" stroke-opacity="0" />
<polygon id="2078" points="389 598.75,389 633,411.25 633,411.25 599" fill="#000000" stroke="none" stroke-opacity="0" />
<polygon id="2079" points="411 603.5,426.25 603.5,426.25 633,410 633" fill="#000000" stroke="none" stroke-opacity="0" />
<polygon id="2080" points="426 603.75,441.5 603.75,441.5 632.25,426 632.25" fill="#000000" stroke="none" stroke-opacity="0" />
<polygon id="2081" points="440.75 599,440.75 633,456.5 633,456.5 598.75" fill="#000000" stroke="none" stroke-opacity="0" />
<polygon id="2082" points="456.5 598.75,456.5 633.75,475.5 633.25,475.75 613.5,481.25 604.5,473.25 598.5" fill="#000000" stroke="#000000" />
<polygon id="2083" points="481.75 604,476 614,476.25 634.25,490.5 632.75,501.25 616.75" fill="#000000" stroke="#000000" />
<polygon id="2084" points="495.5 594.25,486.5 607.75,500.25 618.5,510.25 604.75" fill="#000000" stroke="#000000" />
<polygon id="2085" points="482.25 584.5,509.75 604.5,520.5 591.25,494.25 569" fill="#000000" stroke="#000000" />
<polygon id="2086" points="494.25 569.25,506.25 554.75,530.75 578.5,519.25 592" fill="#000000" stroke="#000000" />
<polygon id="2087" points="506.75 555,519.5 542.5,541.75 566.5,530 578.5" fill="#000000" stroke="#000000" />
<polygon id="2088" points="519.5 542,528.75 533,542.75 533,543 540.5,554.5 554.75,541.75 567" fill="#000000" stroke="#000000" />
<polygon id="2089" points="543.25 524.5,543.25 541.75,554.75 555.5,565 546.75,564 524" fill="#000000" stroke="#000000" />
<polygon id="2090" points="546 497.5,546 525,564 524.5,564.25 497.75" fill="#000000" stroke="#000000" />
<polygon id="2091" points="530.25 464,530.25 486.25,565.5 486.25,565.25 464.5" fill="#000000" stroke="#000000" />
<polygon id="2092" points="535.25 449.25,534.75 465,565.5 464.75,565 449" fill="#000000" stroke="#000000" />
<polygon id="2093" points="535 433.75,535.25 449.5,565 450.25,565.25 433.75" fill="#000000" stroke="#000000" />
<polygon id="2094" points="531 419.25,530 435,566.25 434.75,564.75 419.25" fill="#000000" stroke="#000000" />
<polygon id="2095" points="531 404.5,531.25 421.75,565.5 421,565.75 404.5" fill="#000000" stroke="#000000" />
<polygon id="2096" points="530.75 390.25,530.75 404.25,565.5 404,565.5 389.75" fill="#000000" stroke="#000000" />
<polygon id="2097" points="530.75 374,531 390.5,565.25 391,565.25 374.5" fill="#000000" stroke="#000000" />
<polygon id="2098" points="531 330,531 345.75,565.25 345.5,565 330" fill="#000000" stroke="#000000" />
<polygon id="2099" points="530.75 314.25,531.25 330.5,565.5 330.5,565 313" fill="#000000" stroke="#000000" />
<polygon id="2100" points="530.75 298.25,530.5 314,565.5 314.25,565 296.5" fill="#000000" stroke="#000000" />
<polygon id="2101" points="530.5 283,530.5 297.75,564.75 297.25,564.75 282.75" fill="#000000" stroke="#000000" />
<polygon id="2102" points="516 283.25,516 313.75,530.5 313.75,530.5 283" fill="#000000" stroke="#000000" />
<polygon id="2103" points="500.5 283.25,500.5 314.25,515.25 314.25,515.25 282.5" fill="#000000" stroke="#000000" />
<polygon id="2104" points="486 283,486 308.75,501.25 308.75,501.25 282.75" fill="#000000" stroke="#000000" />
<polygon id="2105" points="470.75 283,470.75 314.5,486.75 314.5,486.75 283.25" fill="#000000" stroke="#000000" />
<polygon id="2106" points="455.5 282.75,455.5 314.75,471.25 314.75,471.25 282.75" fill="#000000" stroke="#000000" />
<polygon id="2107" points="441.25 283.25,441.25 313.75,456 313.75,456 282.75" fill="#000000" stroke="#000000" />
<polygon id="2108" points="419.25 283,419.25 308,441 308,441 282.5" fill="#000000" stroke="#000000" />
<polygon id="2109" points="381.5 282.75,381.5 297,404.75 297,404.75 282.25" fill="#000000" stroke="#000000" />
<polygon id="2110" points="366 283.25,366 309.5,381.75 309.5,381.75 282" fill="#000000" stroke="#000000" />
<polygon id="2111" points="351 282.5,366.75 282.5,366.75 314.25,351.25 314.25" fill="#000000" stroke="#000000" />
<polygon id="2112" points="336 283,336 313.5,351 313.5,351 283.25" fill="#000000" stroke="#000000" />
<polygon id="2113" points="321.25 282.5,321.25 313.75,336.5 313.75,336.5 282.75" fill="#000000" stroke="#000000" />
<polygon id="2114" points="306.75 283,306.75 314,322 314,322 283.25" fill="#000000" stroke="#000000" />
<polygon id="2115" points="291.5 283.25,291.5 313.75,306.25 313.75,306.25 284.25" fill="#000000" stroke="#000000" />
<polygon id="2116" points="262 283,262 297.25,291 297.25,291 282" fill="#000000" stroke="#000000" />
<polygon id="2117" points="246.5 283.25,246.5 306.25,255 306.25,255 283.25" fill="#000000" stroke="#000000" />
<polygon id="2386" points="694.75 451.75,706.5 458.5,719.5 463,708 492,694 487.25,678.5 478.5" fill="#000000" stroke="none" stroke-opacity="0" />
<polygon id="2387" points="665.25 471,678.5 478.75,695.25 451.5,684.5 444.75" fill="#000000" stroke="none" stroke-opacity="0" />
<polygon id="2388" points="673.5 437,684.5 445.5,665.75 470.5,653.75 460.75" fill="#000000" stroke="none" stroke-opacity="0" />
<polygon id="2389" points="636.25 445,644.25 453.75,653.25 461,664.75 448.5,655.75 440.5,649.75 434" fill="#000000" stroke="none" stroke-opacity="0" />
<polygon id="2390" points="621 426.5,626 434.25,631.5 438.75,656.75 419,647.75 408.75" fill="#000000" stroke="#000000" />
<polygon id="2391" points="612.75 412.25,616.5 420.5,621 427,648.25 408.75,640.25 396.75" fill="#000000" stroke="#000000" />
<polygon id="2392" points="594.5 368.75,598.5 383,603.75 393.75,633 381,628.25 369.5,625.5 360.75" fill="#000000" stroke="#000000" />
<polygon id="2393" points="591.5 353.75,593.5 369.25,626.5 361.75,622.25 348.25" fill="#000000" stroke="#000000" />
<polygon id="2394" points="589.5 322.5,589 339.25,592.25 354.25,623.25 349,621 336,621 322.5" fill="#000000" stroke="#000000" />
<polygon id="2395" points="589.25 307.25,588.25 315,588.75 322.75,621.25 323.25,620.75 310" fill="#000000" stroke="#000000" />
<polygon id="2396" points="591.5 291.25,589 298,589.75 306.75,621.25 310.25,622.25 296.75" fill="#000000" stroke="#000000" />
<polygon id="2397" points="595.25 275.25,592 283.75,592 290.75,622.5 297.5,624.75 283.75" fill="#000000" stroke="#000000" />
<polygon id="2398" points="600.25 260,628.75 271.25,625.25 285,594.5 275.25,595.75 266.5" fill="#000000" stroke="#000000" />
<polygon id="2399" points="600.25 259.25,601.75 251.25,605.5 246.75,633.5 260,629 272.25" fill="#000000" stroke="#000000" />
<polygon id="2400" points="605.25 246,608.25 237.5,613.5 231.25,640.5 247,633.25 261.75" fill="#000000" stroke="#000000" />
<polygon id="2401" points="627 210.75,652 230.5,663.75 216.5,642.25 193.5,633.5 201.75" fill="#000000" stroke="#000000" />
<polygon id="2402" points="642.25 193.25,647.75 188.5,653.5 183.75,673.75 207.5,664.5 216.5" fill="#000000" stroke="#000000" />
<polygon id="2403" points="653.25 181.75,665.75 173.5,683.75 199.75,674.5 208.25" fill="#000000" stroke="#000000" />
<polygon id="2404" points="665.75 173,678.75 165,695.5 193.25,684.25 199.75" fill="#000000" stroke="#000000" />
<polygon id="2405" points="678.75 165.5,693.75 158,706.25 187,696.5 192.75" fill="#000000" stroke="#000000" />
<polygon id="2406" points="694 157.5,707.75 152,719 182.25,707.25 186.75" fill="#000000" stroke="#000000" />
<polygon id="2407" points="708.5 151.75,725.75 146.5,733.5 177.5,719.5 182.25" fill="#000000" stroke="#000000" />
<polygon id="2408" points="726 146,736 143.25,746 143,750 173,734 177.5" fill="#000000" stroke="#000000" />
<polygon id="2427" points="695.25 451,706.25 458,720 463.25,730.25 435,709.5 426.25" fill="#000000" stroke="#000000" />
<polygon id="2428" points="678.5 440.5,685.5 446.5,694.75 451.25,709.5 425.5,697 417.25" fill="#000000" stroke="#000000" />
<polygon id="2429" points="664 428.25,671 435.5,677.75 441,696.75 417,684.5 406.5" fill="#000000" stroke="#000000" />
<polygon id="2430" points="652.5 412.75,657 420.5,664 428,684.75 406.25,675 394.5" fill="#000000" stroke="#000000" />
<polygon id="2431" points="640.75 395.25,645.25 404.75,651.75 412.75,674.5 394.75,666 380.5" fill="#000000" stroke="#000000" />
<polygon id="2432" points="626.75 361.25,629.5 372.5,633.75 381,660.5 369.25,654.25 353" fill="#000000" stroke="#000000" />
<polygon id="2433" points="623.25 347.75,652.75 342.75,654.5 353.25,626.5 361.5" fill="#000000" stroke="#000000" />
<polygon id="2434" points="639.75 333.75,640.5 344,653 342.25,651.75 334.25" fill="#000000" stroke="#000000" />
<polygon id="2435" points="625.25 283.5,654 291.5,651.75 303.75,650 320.25,621 319.75,621.75 303" fill="#000000" stroke="#000000" />
<polygon id="2436" points="632.25 264.75,659 276.25,654 291.5,625.75 283.75,628 272.75" fill="#000000" stroke="#000000" />
<polygon id="2437" points="632.5 264.25,636 253.5,641.5 246.75,666.75 262,659.5 276" fill="#000000" stroke="#000000" />
<polygon id="2438" points="652.25 231.25,676 249.25,685 238.25,664.5 217" fill="#000000" stroke="#000000" />
<polygon id="2439" points="664.75 216.5,685.25 238,693.25 230.75,674.5 207.25" fill="#000000" stroke="#000000" />
<polygon id="2440" points="688.75 214,699.25 226.5,710.25 218.75,701.75 205.75" fill="#000000" stroke="#000000" />
<polygon id="2441" points="694.5 192.75,711 219.75,719.75 214.5,706.5 186.5" fill="#000000" stroke="#000000" />
<polygon id="2442" points="707.25 186.75,720.5 214.25,729 210,719 182" fill="#000000" stroke="#000000" />
<polygon id="2443" points="719.5 182,729.5 210.25,740.75 206.5,733.25 177.5" fill="#000000" stroke="#000000" />
<polygon id="2444" points="733.5 177.5,741 206.5,754.75 204.5,750.25 173.25" fill="#000000" stroke="#000000" />
<polygon id="2494" points="502 772,500.5 788.25,502.75 816,561.25 812.75,560.5 790.5,560.5 776.75" fill="#000000" stroke="#000000" xmlns="http://www.w3.org/2000/svg" />
<polygon id="2495" points="504.75 751.25,533.75 755.75,532.25 765.75,531.25 773.75,502.5 772.25,503 761" fill="#000000" stroke="#000000" />
<polygon id="2496" points="507.25 736,504.5 750.25,534.25 756,535.5 742.75" fill="#000000" stroke="#000000" />
<polygon id="2497" points="510.25 723.25,538.5 731,536.25 742.75,507 736" fill="#000000" stroke="#000000" />
<polygon id="2498" points="510 722.75,515 709,542.75 719.25,538.25 732" fill="#000000" stroke="#000000" />
<polygon id="2499" points="515 708.25,518.25 699.5,527.25 698,538.5 689.5,551.25 695,542.25 720.5" fill="#000000" stroke="#000000" />
<polygon id="2500" points="545.75 644.75,549 652,550.5 661.25,549.75 668,562.75 674.5,576.5 652,552.75 635" fill="#000000" stroke="#000000" />
<polygon id="2501" points="552.75 634.25,560.5 623.5,570.5 613.5,592.25 633,582.75 642.5,577 652.25" fill="#000000" stroke="#000000" />
<polygon id="2502" points="570.5 612.75,580 602.5,590 613.75,581.25 623.25" fill="#000000" stroke="#000000" />
<polygon id="2503" points="580.25 602,590.75 593.25,600 604.75,590.5 613.75" fill="#000000" stroke="#000000" />
<polygon id="2504" points="590.75 592.25,601 584.25,610 596.25,601 604.75" fill="#000000" stroke="#000000" />
<polygon id="2505" points="618.25 571,625.75 581.25,640.5 570.75,636.5 559.5,626.25 565.25" fill="#000000" stroke="#000000" />
<polygon id="2506" points="636.5 558.75,648 554,658.75 575.75,647.75 581" fill="#000000" stroke="#000000" />
<polygon id="2507" points="648.5 553.25,661.5 581,673 575.5,660.25 547.5" fill="#000000" stroke="#000000" />
<polygon id="2508" points="660.5 547,673.25 575.5,661.5 581.75,675.75 607,690 600.25,705.5 594,686.5 538,673.5 541.25" fill="#000000" stroke="#000000" />
<polygon id="2509" points="687 537.5,696.5 566,708.75 562.25,700.5 533.75" fill="#000000" stroke="#000000" />
<polygon id="2510" points="700.75 533.5,715.25 530.25,721.75 560,709 562.5" fill="#000000" stroke="#000000" />
<polygon id="2511" points="696.75 566,706 594.75,716.25 591.25,724.75 587.25,725.5 579.25,722.5 560.5" fill="#000000" stroke="#000000" />
<polygon id="2563" points="644.75 589.25,661 615.25,675.75 607,660.5 579.75,652 583.75" fill="#000000" stroke="#000000" />
<polygon id="2562" points="629.75 598.75,648.75 623.25,661.25 615,644.5 589,637 593.25" fill="#000000" stroke="#000000" />
<polygon id="2561" points="611.5 635.25,621.5 645.75,637.75 630.75,628.25 618.25" fill="#000000" stroke="#000000" />
<polygon id="2554" points="534.25 755.75,562.75 760.5,561 776.75,531.25 774.25,532.25 763" fill="#000000" stroke="#000000" />
<polygon id="2555" points="537.75 737.75,566 744.5,562.75 761,535 755.5,535.5 745" fill="#000000" stroke="#000000" />
<polygon id="2556" points="543 719.25,570.75 729,566.25 745,537.75 737.75,540 727" fill="#000000" stroke="#000000" />
<polygon id="2557" points="551.75 695,578.75 707.5,575.25 718.75,571 728.5,543.25 719.25,546.5 705.75" fill="#000000" stroke="#000000" />
<polygon id="2558" points="576.75 653,599.75 671,593.5 680.75,587.75 690,563.25 675.25,569.75 663" fill="#000000" stroke="#000000" />
<polygon id="2559" points="598.5 648.5,610 658.5,600 670.25,588 662.25" fill="#000000" stroke="#000000" />
<polygon id="2560" points="603.5 642.75,614.25 653.5,621.75 646.5,611.25 634.75" fill="#000000" stroke="#000000" />
<polygon id="2143" points="142.5 495,142 535,157.5 536.5,157.5 555,145.5 555,145 600.5,475 600,489 575,507.5 554,531 532.5,544.5 532,546.5 486.5,531 487,530 374,547 374.5,546.5 345.5,531 345.5,529.5 315,419.5 313.5,418 297,382.5 298.5,381 307.5,290.5 312.5,291 297.5,261 298.5,255 305.5,246.5 306.5,246.5 296,188 297,187 304.5,158 307.5,157.5 314.5,142 315,132.5 314,131.5 337.5,140.5 337.5,136 373.5,154.5 373.5,155 495" fill="#000000" stroke="#000000" xmlns="http://www.w3.org/2000/svg" />
</svg>
