<?xml version="1.0" encoding="UTF-8" standalone="no"?>
<!-- Created with Inkscape (http://www.inkscape.org/) -->

<svg xmlns:dc="http://purl.org/dc/elements/1.1/" xmlns:cc="http://creativecommons.org/ns#" xmlns:rdf="http://www.w3.org/1999/02/22-rdf-syntax-ns#" xmlns:svg="http://www.w3.org/2000/svg" xmlns="http://www.w3.org/2000/svg" xmlns:xlink="http://www.w3.org/1999/xlink" xmlns:sodipodi="http://sodipodi.sourceforge.net/DTD/sodipodi-0.dtd" xmlns:inkscape="http://www.inkscape.org/namespaces/inkscape" width="770" height="800" id="svg2" version="1.1" inkscape:version="0.47pre4 " sodipodi:docname="test.svg" style="display:inline" stroke="#000000">
<defs id="defs4">
<inkscape:perspective sodipodi:type="inkscape:persp3d" inkscape:vp_x="0 : 526.18109 : 1" inkscape:vp_y="0 : 1000 : 0" inkscape:vp_z="744.09448 : 526.18109 : 1" inkscape:persp3d-origin="372.04724 : 350.78739 : 1" id="perspective10" />
<inkscape:perspective id="perspective2832" inkscape:persp3d-origin="0.5 : 0.33333333 : 1" inkscape:vp_z="1 : 0.5 : 1" inkscape:vp_y="0 : 1000 : 0" inkscape:vp_x="0 : 0.5 : 1" sodipodi:type="inkscape:persp3d" />
<script type="text/ecmascript" id="script6">
		var fdat="",sdat="";
		function onAreaOver(evt){
			var ele=evt.target; 
			fdat=ele.getAttribute('fill'); 
			sdat=ele.getAttribute('stroke');
			ele.setAttribute('fill','#006fb6');//多边形填充颜色
			ele.setAttribute('stroke','#006fb6');//stroke 多边形 边框颜色
			
		}
		function onAreaOut(evt){
			var ele=evt.target; 
			ele.setAttribute('fill',fdat);
			ele.setAttribute('stroke',sdat);
		}
		</script>
<symbol overflow="visible" id="symbol" style="overflow:visible">
<path d="m 626,156 2,-2 2,-4 0,-3 -1,-3 -4,-3 -6,-3 -5,-2 -4,-2 -4,8 -6,14" id="path9" style="fill:#000000;stroke:none" />
</symbol>
</defs>
<sodipodi:namedview id="base" pagecolor="#ffffff" bordercolor="#666666" borderopacity="1.0" inkscape:pageopacity="0.0" inkscape:pageshadow="2" inkscape:zoom="5.6" inkscape:cx="583.1007" inkscape:cy="273.63795" inkscape:document-units="px" inkscape:current-layer="svg2" showgrid="false" inkscape:window-width="1280" inkscape:window-height="740" inkscape:window-x="-4" inkscape:window-y="-4" inkscape:window-maximized="1" />
<metadata id="metadata7">
<rdf:RDF>
<cc:Work>
<dc:format>
				image/svg+xml</dc:format>
<dc:type rdf:resource="http://purl.org/dc/dcmitype/StillImage" />
<dc:title>
</dc:title>
</cc:Work>
</rdf:RDF>
</metadata>
<image xlink:href="qdchengyang_mall_2f_b.png" width="770" height="800" id="image2834" x="-485" y="255.93361" transform="translate(485,-255.9336)" inkscape:label="Layer 1" inkscape:groupmode="layer" style="display:inline" />
<polygon id="2001" points="22 40.5,21 92,0 92.5,-25.5 92.5,-26.5 40,-3 39.5" fill="#000000" stroke="none" />
<polygon id="2144" points="22 40,65.5 41.5,63 93.5,21.5 91.5" fill="#000000" stroke="none" stroke-opacity="0" />
<polygon id="2145" points="65.5 42,98 43.5,94.5 94.5,62.5 93.5" fill="#000000" stroke="none" stroke-opacity="0" />
<polygon id="2146" points="99.5 30,95 94,127 97,132.5 33" fill="#000000" stroke="none" stroke-opacity="0" />
<polygon id="2147" points="132.5 33,165.5 36.5,160 81,168.5 82,166.5 95,159 94,158.5 100.5,126 97" fill="#000000" stroke="none" stroke-opacity="0" />
<polygon id="2148" points="179 52,173 102,190.5 105,196.5 54" fill="#000000" stroke="none" stroke-opacity="0" />
<polygon id="2149" points="196.5 54,212.5 56.5,205.5 106.5,191 104.5" fill="#000000" stroke="none" stroke-opacity="0" />
<polygon id="2150" points="212.5 57,230 59.5,221 108.5,205.5 106" fill="#000000" stroke="none" stroke-opacity="0" />
<polygon id="2151" points="229.5 59.5,261 64,252.5 115,221 108.5" fill="#000000" stroke="none" stroke-opacity="0" />
<polygon id="2152" points="261 65,277.5 68,268 117,252.5 114.5" fill="#000000" stroke="none" stroke-opacity="0" />
<polygon id="2153" points="277.5 68.5,294 71.5,286 107,292.5 108,290 121.5,268.5 117.5" fill="#000000" stroke="none" stroke-opacity="0" />
<polygon id="2154" points="308.5 74,326 77.5,315 127,299 123.5" fill="#000000" stroke="none" stroke-opacity="0" />
<polygon id="2155" points="326 77.5,342 81,330.5 130.5,315.5 127" fill="#000000" stroke="none" stroke-opacity="0" />
<polygon id="2156" points="342 81,358.5 85,346 134,330.5 130.5" fill="#000000" stroke="none" stroke-opacity="0" />
<polygon id="2157" points="358.5 85,390 93,376.5 142.5,346 134.5" fill="#000000" stroke="none" stroke-opacity="0" />
<polygon id="2158" points="390 93,406 98,392 146,377 142" fill="#000000" stroke="none" stroke-opacity="0" />
<polygon id="2159" points="406 98.5,421 102,406.5 151,392.5 146.5" fill="#000000" stroke="none" stroke-opacity="0" />
<polygon id="2160" points="421.5 102,437.5 107.5,422 155.5,407 150.5" fill="#000000" stroke="none" stroke-opacity="0" />
<polygon id="2161" points="437.5 107,452.5 112,437.5 159.5,423 155" fill="#000000" stroke="none" stroke-opacity="0" />
<polygon id="2162" points="453 112,483 122.5,468 170,438 159.5" fill="#000000" stroke="none" stroke-opacity="0" />
<polygon id="2163" points="483.5 122.5,501 128,489 162,485.5 160.5,480.5 175,468.5 171" fill="#000000" stroke="none" stroke-opacity="0" />
<polygon id="2164" points="497 180,518.5 122,541 112.5,571.5 124.5,581.5 146.5,576.5 157,636 183.5,639.5 173.5,663 165.5,692.5 180.5,701 202.5,695 213.5,680 205,666.5 232,673 236.5,663.5 255" fill="#000000" stroke="none" stroke-opacity="0" />
<polygon id="2165" points="694.5 212.5,671.5 258.5,698.5 272.5,697.5 285.5,748 284.5,748 242" fill="#000000" stroke="none" stroke-opacity="0" />
<polygon id="2166" points="698 285.5,747 285,748 299.5,698.5 300.5" fill="#000000" stroke="none" stroke-opacity="0" />
<polygon id="2167" points="698.5 300.5,747.5 299.5,748 314.5,698 314" fill="#000000" stroke="none" stroke-opacity="0" />
<polygon id="2168" points="698.5 314.5,747 314.5,748 344.5,717 344.5,716.5 351.5,698.5 351.5" fill="#000000" stroke="none" stroke-opacity="0" />
<polygon id="2169" points="698.5 360,710.5 360.5,710 375,718.5 375,718 390,698.5 389.5" fill="#000000" stroke="none" stroke-opacity="0" />
<polygon id="2170" points="698.5 389,755 390,754 406,699 404.5" fill="#000000" stroke="none" stroke-opacity="0" />
<polygon id="2171" points="699 404,737 405.5,737 420,698.5 420.5" fill="#000000" stroke="none" stroke-opacity="0" />
<polygon id="2172" points="699 420,736.5 420,737 435,699 435" fill="#000000" stroke="none" stroke-opacity="0" />
<polygon id="2173" points="699 435,736.5 435,737 449.5,699 449.5" fill="#000000" stroke="none" stroke-opacity="0" />
<polygon id="2174" points="699 449.5,736 449.5,736 464.5,698.5 465" fill="#000000" stroke="none" stroke-opacity="0" />
<polygon id="2175" points="698.5 465,736 464.5,737 480,699 480" fill="#000000" stroke="none" stroke-opacity="0" />
<polygon id="2176" points="698.5 480.5,737 480.5,737 494.5,698.5 495" fill="#000000" stroke="none" stroke-opacity="0" />
<polygon id="2177" points="698.5 495,754.5 494,754.5 525.5,746 525.5,747.5 583,698.5 584.5" fill="#000000" stroke="none" stroke-opacity="0" />
<polygon id="2178" points="699 584,748.5 584.5,747.5 674.5,715 673.5,715 681,726 681.5,739.5 695,738.5 713,726.5 725,708.5 726.5,694.5 713.5,688.5 713,688.5 703,657 703,656.5 685.5,673 685,697.5 659.5" fill="#000000" stroke="none" stroke-opacity="0" />
<polygon id="2179" points="657 719,687 719,687 734.5,657.5 734.5" fill="#000000" stroke="none" stroke-opacity="0" />
<polygon id="2180" points="538 685,638 685,638.5 735,537.5 734.5" fill="#000000" stroke="none" stroke-opacity="0" />
<polygon id="2181" points="508.5 685,537.5 685,537.5 704,522.5 704,522.5 696,508.5 696" fill="#000000" stroke="none" stroke-opacity="0" />
<polygon id="2182" points="388 685,440 685,449.5 690.5,464 693.5,475.5 692,486 685,499.5 685,499.5 702.5,493 703,493 735,389 735" fill="#000000" stroke="none" stroke-opacity="0" />
<polygon id="2183" points="375.5 685,388 685,388 713,375 713" fill="#000000" stroke="none" stroke-opacity="0" />
<polygon id="2184" points="358 685,375.5 685,375.5 707.5,358 707.5" fill="#000000" stroke="none" stroke-opacity="0" />
<polygon id="2185" points="350 685,350 703.5,308.5 703.5,306.5 696,308.5 689.5,315 685" fill="#000000" stroke="none" stroke-opacity="0" />
<polygon id="2186" points="308.5 703,328.5 703,328.5 712.5,349.5 712.5,349.5 730,316 735" fill="#000000" stroke="none" stroke-opacity="0" />
<polygon id="2187" points="317.5 743,319 759.5,368.5 754.5,365.5 735,357 734.5,356 737" fill="#000000" stroke="none" stroke-opacity="0" />
<polygon id="2188" points="319.5 759,368.5 754.5,369.5 772,321 775.5" fill="#000000" stroke="none" stroke-opacity="0" />
<polygon id="2189" points="321 775.5,369.5 772.5,370 794,320.5 794" fill="#000000" stroke="none" stroke-opacity="0" />
<polygon id="2190" points="357.5 283.5,387.5 283.5,388 297,358 297" fill="#000000" stroke="none" stroke-opacity="0" />
<polygon id="2191" points="357.5 283.5,357.5 314,342.5 314,342.5 283" fill="#000000" stroke="none" stroke-opacity="0" />
<polygon id="2192" points="328.5 283.5,342.5 283.5,342.5 313.5,328 313.5" fill="#000000" stroke="none" stroke-opacity="0" />
<polygon id="2193" points="314 283.5,314 313.5,328.5 313.5,328.5 283.5" fill="#000000" stroke="none" stroke-opacity="0" />
<polygon id="2194" points="314 283.5,299 283.5,299 313,314 313" fill="#000000" stroke="none" stroke-opacity="0" />
<polygon id="2195" points="298.5 283,298.5 313,283.5 313,283.5 283" fill="#000000" stroke="none" stroke-opacity="0" />
<polygon id="2196" points="283.5 283,283.5 313,269 313,269 283" fill="#000000" stroke="none" stroke-opacity="0" />
<polygon id="2197" points="238 283.5,269 283.5,269 297.5,238 297.5" fill="#000000" stroke="none" stroke-opacity="0" />
<polygon id="2198" points="204 283.5,227.5 283.5,227.5 297.5,204.5 297.5" fill="#000000" stroke="none" stroke-opacity="0" />
<polygon id="2199" points="204 297.5,227.5 297.5,227.5 313.5,204 313.5" fill="#000000" stroke="none" stroke-opacity="0" />
<polygon id="2201" points="204.5 313,204.5 330.5,239 330.5,239 323,230.5 323,230.5 313" fill="#000000" stroke="none" stroke-opacity="0" />
<polygon id="2200" points="204 330,239.5 330,239.5 345.5,204 345.5" fill="#000000" stroke="none" stroke-opacity="0" />
<polygon id="2202" points="204.5 345,238.5 345,238.5 360,204 360" fill="#000000" stroke="none" stroke-opacity="0" />
<polygon id="2203" points="204.5 360,239 360,239 374.5,204.5 374.5" fill="#000000" stroke="none" stroke-opacity="0" />
<polygon id="2204" points="205 375,239 375,239 389.5,204.5 389.5" fill="#000000" stroke="none" stroke-opacity="0" />
<polygon id="2205" points="204.5 390.5,239 390.5,239 405.5,205 405.5" fill="#000000" stroke="none" stroke-opacity="0" />
<polygon id="2206" points="205 434,238.5 434,238.5 449,204.5 449" fill="#000000" stroke="none" stroke-opacity="0" />
<polygon id="2207" points="204.5 449.5,238.5 449.5,238.5 465.5,204 465.5" fill="#000000" stroke="none" stroke-opacity="0" />
<polygon id="2208" points="204 465.5,239 465.5,239 486,204.5 486" fill="#000000" stroke="none" stroke-opacity="0" />
<polygon id="2209" points="204.5 497.5,224 497.5,224 525.5,204.5 525.5" fill="#000000" stroke="none" stroke-opacity="0" />
<polygon id="2210" points="204.5 525,231 525,231.5 535.5,215.5 554,204.5 545.5" fill="#000000" stroke="none" stroke-opacity="0" />
<polygon id="2211" points="215.5 554.5,227.5 565.5,250.5 542.5,241 532.5,231.5 532.5,231.5 536.5" fill="#000000" stroke="none" stroke-opacity="0" />
<polygon id="2212" points="227.5 566,239.5 578.5,263.5 556,250.5 542.5" fill="#000000" stroke="none" stroke-opacity="0" />
<polygon id="2213" points="239.5 578.5,263 556.5,275.5 570,250 591" fill="#000000" stroke="none" stroke-opacity="0" />
<polygon id="2214" points="250.5 591.5,275.5 570,286.5 585.5,260 604.5" fill="#000000" stroke="none" stroke-opacity="0" />
<polygon id="2215" points="260 604.5,269.5 617.5,288 606,286 603,294.5 596.5,287 586" fill="#000000" stroke="none" stroke-opacity="0" />
<polygon id="2216" points="288 606,292.5 613.5,299 613,299 633,284.5 633.5,276 629.5,272 624.5,269.5 618" fill="#000000" stroke="none" stroke-opacity="0" />
<polygon id="2217" points="299.5 603,314 603,314 633.5,298.5 633.5" fill="#000000" stroke="none" stroke-opacity="0" />
<polygon id="2218" points="314.5 605.5,328.5 605.5,328.5 632.5,313.5 632.5" fill="#000000" stroke="none" stroke-opacity="0" />
<polygon id="2219" points="329 599.5,329 632.5,343 632.5,343 599" fill="#000000" stroke="none" stroke-opacity="0" />
<polygon id="2220" points="343.5 602,357.5 602,357.5 633,343.5 633" fill="#000000" stroke="none" stroke-opacity="0" />
<polygon id="2221" points="357.5 613.5,357.5 632.5,385.5 632.5,385.5 614" fill="#000000" stroke="none" stroke-opacity="0" />
<polygon id="2222" points="396 603,418 603,418 632,396 632,395.5 626,399 625.5,399 613.5,396 613.5" fill="#000000" stroke="none" stroke-opacity="0" />
<polygon id="2223" points="418 598.5,418 632,433 632,433 599" fill="#000000" stroke="none" stroke-opacity="0" />
<polygon id="2224" points="433.5 606,448 606,448 632,433 632" fill="#000000" stroke="none" stroke-opacity="0" />
<polygon id="2225" points="478 603,478 632.5,500 632.5,500 602.5" fill="#000000" stroke="none" stroke-opacity="0" />
<polygon id="2226" points="508 613.5,508 632,538 632,538 613.5" fill="#000000" stroke="none" stroke-opacity="0" />
<polygon id="2227" points="538 606,538 632.5,553 632.5,553 606" fill="#000000" stroke="none" stroke-opacity="0" />
<polygon id="2228" points="553 599,553 632,569 632,569 598.5" fill="#000000" stroke="none" stroke-opacity="0" />
<polygon id="2229" points="568.5 599,568.5 632,582.5 632,582.5 599" fill="#000000" stroke="none" stroke-opacity="0" />
<polygon id="2230" points="582.5 599,598 599,598 631.5,583 631.5" fill="#000000" stroke="none" stroke-opacity="0" />
<polygon id="2231" points="621.5 584.5,646 584.5,646 599,621 599" fill="#000000" stroke="none" stroke-opacity="0" />
<polygon id="2232" points="614 584.5,646 584.5,646 553.5,627 553.5,627 576.5,614.5 576.5" fill="#000000" stroke="#000000" />
<polygon id="2233" points="617 535.5,617 554.5,646.5 554.5,646.5 535" fill="#000000" stroke="#000000" />
<polygon id="2234" points="627 521,627 493.5,645.5 493.5,645.5 521" fill="#000000" stroke="#000000" />
<polygon id="2235" points="612.5 493,646 493,646 478,612.5 478" fill="#000000" stroke="#000000" />
<polygon id="2236" points="612.5 477.5,612.5 464,645.5 464,645.5 477" fill="#000000" stroke="#000000" />
<polygon id="2237" points="612 434,612 419.5,645.5 419.5,645.5 434" fill="#000000" stroke="#000000" />
<polygon id="2238" points="612 419,612 403.5,645.5 403.5,645.5 418.5" fill="#000000" stroke="#000000" />
<polygon id="2239" points="612 403,612 389.5,646 389.5,646 403.5" fill="#000000" stroke="#000000" />
<polygon id="2240" points="616.5 389,616.5 374.5,645.5 374.5,645.5 389" fill="#000000" stroke="#000000" />
<polygon id="2241" points="612.5 374,646 374,646 359,612 359" fill="#000000" stroke="#000000" />
<polygon id="2242" points="612 358.5,612 344,646 344,646 358.5" fill="#000000" stroke="#000000" />
<polygon id="2243" points="627.5 283.5,645.5 283.5,645.5 314,627.5 314" fill="#000000" stroke="#000000" />
<polygon id="2244" points="612.5 283.5,626.5 283.5,626.5 313.5,612.5 313.5" fill="#000000" stroke="#000000" />
<polygon id="2245" points="612 283,597 283,597 314,612.5 314" fill="#000000" stroke="#000000" />
<polygon id="2246" points="597 283,582.5 283,582.5 313.5,597 313.5" fill="#000000" stroke="#000000" />
<polygon id="2247" points="466 221.5,452 259.5,481.5 260.5,488.5 253,490 246.5,490 230" fill="#000000" stroke="#000000" />
<polygon id="2248" points="466 221.5,454.5 250.5,441.5 245.5,451.5 216" fill="#000000" stroke="#000000" />
<polygon id="2249" points="451 216,438 211.5,427.5 241.5,441 246.5" fill="#000000" stroke="#000000" />
<polygon id="2250" points="422.5 207,437.5 211.5,427 241.5,413 236.5" fill="#000000" stroke="#000000" />
<polygon id="2251" points="422.5 207,405.5 260,380.5 259.5,375 258.5,393 198" fill="#000000" stroke="#000000" />
<polygon id="2252" points="379 193.5,370 224,383.5 228,393 198" fill="#000000" stroke="#000000" />
<polygon id="2253" points="378.5 193.5,369 224,356 219.5,363.5 189.5" fill="#000000" stroke="#000000" />
<polygon id="2254" points="363.5 189.5,355 220,341 216,349 185.5" fill="#000000" stroke="#000000" />
<polygon id="2255" points="348.5 186,344 202,321 196,325.5 179.5" fill="#000000" stroke="#000000" />
<polygon id="2256" points="289.5 171.5,312.5 176,305 207.5,282.5 202.5" fill="#000000" stroke="#000000" />
<polygon id="2257" points="273.5 168.5,267 198.5,282.5 202.5,289 171.5" fill="#000000" stroke="#000000" />
<polygon id="2258" points="244 163,273.5 168,260.5 229.5,233 224.5" fill="#000000" stroke="#000000" />
<polygon id="2259" points="223 159,243.5 163,238 193.5,218 190.5" fill="#000000" stroke="#000000" />
<polygon id="2260" points="183 153,180.5 170,212 174,214 158" fill="#000000" stroke="#000000" />
<polygon id="2261" points="182.5 153,179 185,161.5 197.5,147.5 180.5,150.5 170.5,157.5 160.5,168.5 154" fill="#000000" stroke="#000000" />
<polygon id="2262" points="179 184.5,194 186.5,189 218.5,177.5 217,162.5 197.5" fill="#000000" stroke="#000000" />
<polygon id="2263" points="194.5 187,209 189,204 220.5,189.5 219" fill="#000000" stroke="#000000" />
<polygon id="2264" points="210 189,223.5 191.5,218.5 222.5,204 220" fill="#000000" stroke="#000000" />
<polygon id="2265" points="224.5 192,238 194.5,232.5 225,219.5 223" fill="#000000" stroke="#000000" />
<polygon id="2266" points="264.5 213.5,302.5 222,299.5 238,261.5 230.5" fill="#000000" stroke="#000000" />
<polygon id="2267" points="314.5 224.5,310.5 241,333 247,336.5 231" fill="#000000" stroke="#000000" />
<polygon id="2268" points="341.5 216,333 247,347.5 250.5,356 220.5" fill="#000000" stroke="#000000" />
<polygon id="2269" points="356.5 220.5,369.5 224.5,361 254.5,347.5 250.5" fill="#000000" stroke="#000000" />
<polygon id="2270" points="370 225,383.5 228.5,374.5 258,361.5 254.5" fill="#000000" stroke="#000000" />
<polygon id="2271" points="413.5 237.5,454 251.5,451 259.5,405.5 260.5" fill="#000000" stroke="#000000" />
<polygon id="2272" points="239 313,239 404,224 404,224 433,241 433,238 531,260 551.5,278 572.5,297 599,448.5 599,448.5 620.5,477.5 621.5,478 599,613.5 599,612 463.5,635 463.5,634.5 434.5,612 434.5,612.5 315,582 314,582 283,523 283,523 296.5,463.5 296.5,463.5 282.5,396 282.5,396 313.5" fill="#000000" stroke="#000000" />
<polygon id="2363" points="25 143,20 174,35.5 177.5,43.5 146.5" fill="#000000" stroke="#000000" />
<polygon id="2364" points="36 177,51 182,61.5 152.5,44 147" fill="#000000" stroke="#000000" />
<polygon id="2365" points="62 152.5,76.5 159,63 187,52 182.5" fill="#000000" stroke="#000000" />
<polygon id="2366" points="63.5 187.5,74.5 192.5,90 166.5,77 158.5" fill="#000000" stroke="#000000" />
<polygon id="2367" points="75 193,90.5 166,103.5 174,86 200.5" fill="#000000" stroke="#000000" />
<polygon id="2368" points="86.5 201,103.5 174.5,116 183.5,96 208" fill="#000000" stroke="#000000" />
<polygon id="2369" points="96 207.5,115.5 184,127.5 195,105.5 216.5" fill="#000000" stroke="#000000" />
<polygon id="2370" points="106 217,128 195,143 211,118 230" fill="#000000" stroke="#000000" />
<polygon id="2371" points="129 247,156 231.5,163.5 245.5,135.5 259" fill="#000000" stroke="#000000" />
<polygon id="2372" points="135.5 259.5,140 271,170 261,163.5 245.5" fill="#000000" stroke="#000000" />
<polygon id="2373" points="140.5 272,144.5 283.5,174.5 275.5,169.5 261.5" fill="#000000" stroke="#000000" />
<polygon id="2374" points="144.5 284,147 296,178 291,175 275.5" fill="#000000" stroke="#000000" />
<polygon id="2375" points="147.5 296.5,149 309,180 307,178 291" fill="#000000" stroke="#000000" />
<polygon id="2376" points="149 309,149 322.5,180.5 323.5,180 307" fill="#000000" stroke="#000000" />
<polygon id="2377" points="149 323,180.5 323.5,180.5 337.5,178.5 354,147.5 348.5" fill="#000000" stroke="#000000" />
<polygon id="2378" points="147.5 349.5,178 354.5,175 369.5,144.5 361" fill="#000000" stroke="#000000" />
<polygon id="2379" points="144.5 361.5,137.5 380.5,166.5 393.5,175 370" fill="#000000" stroke="#000000" />
<polygon id="2380" points="129 396.5,156.5 413,148.5 427,122.5 408.5" fill="#000000" stroke="#000000" />
<polygon id="2381" points="122 409,148 427,139 439,114.5 419" fill="#000000" stroke="#000000" />
<polygon id="2382" points="120 434.5,133.5 445,125 453.5,116.5 461.5,106 448" fill="#000000" stroke="#000000" />
<polygon id="2383" points="96 437,116 461.5,103.5 471,86 445" fill="#000000" stroke="#000000" />
<polygon id="2384" points="85.5 445,103.5 471.5,90.5 479,74.5 451.5" fill="#000000" stroke="#000000" />
<polygon id="2385" points="74.5 452,90 479.5,77.5 486.5,68 491,59.5 490.5,50 464" fill="#000000" stroke="#000000" />
<polygon id="2409" points="19.5 174.5,36 178.5,28.5 206.5,15 203.5" fill="#000000" stroke="#000000" />
<polygon id="2410" points="37 178,29 206,40.5 210,51.5 182.5" fill="#000000" stroke="#000000" />
<polygon id="2411" points="51.5 183,62.5 188,51 213.5,40.5 210" fill="#000000" stroke="#000000" />
<polygon id="2412" points="51 214.5,63 187.5,74.5 193.5,59.5 219.5" fill="#000000" stroke="#000000" />
<polygon id="2413" points="60 219,70 226.5,80 214.5,68 206" fill="#000000" stroke="#000000" />
<polygon id="2414" points="77.5 229.5,96 208,105 217.5,83.5 238.5" fill="#000000" stroke="#000000" />
<polygon id="2415" points="83.5 238.5,93 248.5,118 230.5,106 217.5" fill="#000000" stroke="#000000" />
<polygon id="2416" points="103 261.5,127.5 247,137 265,110.5 277" fill="#000000" stroke="#000000" />
<polygon id="2417" points="110.5 277,115.5 292,143.5 283,137.5 265" fill="#000000" stroke="#000000" />
<polygon id="2418" points="116.5 292.5,118.5 320,148 319.5,148 302.5,144.5 283" fill="#000000" stroke="#000000" />
<polygon id="2419" points="118 334.5,117.5 343.5,129.5 345.5,130.5 334" fill="#000000" stroke="#000000" />
<polygon id="2420" points="117.5 343,116 353.5,143.5 361.5,146.5 347.5" fill="#000000" stroke="#000000" />
<polygon id="2421" points="115.5 353.5,110 369,136.5 381.5,143.5 362" fill="#000000" stroke="#000000" />
<polygon id="2422" points="103.5 381.5,128.5 396,117.5 413.5,94.5 395.5" fill="#000000" stroke="#000000" />
<polygon id="2423" points="94.5 395,84.5 407,104.5 429,117.5 413.5" fill="#000000" stroke="#000000" />
<polygon id="2424" points="84.5 406.5,103.5 429,90 441,72.5 417.5" fill="#000000" stroke="#000000" />
<polygon id="2425" points="72 417,60 425.5,74 451,90 441" fill="#000000" stroke="#000000" />
<polygon id="2426" points="60 425,39.5 435.5,49.5 463.5,73.5 451.5" fill="#000000" stroke="#000000" />
<polygon id="2445" points="49 559,54.5 530,69 534.5,62 562.5" fill="#000000" stroke="#000000" />
<polygon id="2446" points="70 534.5,83 538,74 566,62.5 563" fill="#000000" stroke="#000000" />
<polygon id="2447" points="84 538.5,109 548,97.5 575,108 580.5,95.5 606.5,65 594" fill="#000000" stroke="#000000" />
<polygon id="2448" points="100.5 570,111 575.5,121.5 554.5,109 548" fill="#000000" stroke="#000000" />
<polygon id="2449" points="121.5 554.5,134 560.5,119 586,108.5 580.5" fill="#000000" stroke="#000000" />
<polygon id="2450" points="134.5 560.5,151 572,143 582,127.5 573.5" fill="#000000" stroke="#000000" />
<polygon id="2451" points="169 584.5,179.5 594,160 616,150.5 607" fill="#000000" stroke="#000000" />
<polygon id="2452" points="160.5 615.5,169 624.5,189.5 603.5,180 594" fill="#000000" stroke="#000000" />
<polygon id="2453" points="190 603.5,199.5 613.5,177.5 633,169.5 625" fill="#000000" stroke="#000000" />
<polygon id="2454" points="178.5 633,193 652,216.5 635.5,199.5 613.5" fill="#000000" stroke="#000000" />
<polygon id="2455" points="197 650.5,210.5 672,219 667,219 658,220.5 651.5,223 645,216.5 635.5" fill="#000000" stroke="#000000" />
<polygon id="2456" points="217.5 696,230.5 689.5,238.5 695,252 700,254.5 709.5,227 719" fill="#000000" stroke="#000000" />
<polygon id="2457" points="227.5 719,255 710,259 724,231.5 731" fill="#000000" stroke="#000000" />
<polygon id="2458" points="231.5 732,259 724.5,262 737.5,234 744" fill="#000000" stroke="#000000" />
<polygon id="2459" points="234.5 744.5,236.5 756,265 750.5,262.5 738" fill="#000000" stroke="#000000" />
<polygon id="2460" points="236.5 756.5,238.5 774.5,267 773,265 750.5" fill="#000000" stroke="#000000" />
<polygon id="2461" points="267.5 773,268 789,267.5 816,208 814,209 791.5,209 777" fill="#000000" stroke="#000000" />
<polygon id="2512" points="48.5 559.5,73.5 566.5,64 594.5,49 590,43.5 584.5" fill="#000000" stroke="#000000" />
<polygon id="2513" points="96 607,108.5 580.5,124.5 589.5,109.5 614.5" fill="#000000" stroke="#000000" />
<polygon id="2514" points="110 614.5,125.5 589.5,139.5 599.5,121.5 623" fill="#000000" stroke="#000000" />
<polygon id="2515" points="132 630,140 638,160 615.5,150.5 606.5" fill="#000000" stroke="#000000" />
<polygon id="2516" points="140.5 638.5,148 644.5,168.5 624.5,161 616" fill="#000000" stroke="#000000" />
<polygon id="2517" points="148.5 644.5,156 653.5,177.5 633.5,169 624.5" fill="#000000" stroke="#000000" />
<polygon id="2518" points="160.5 658.5,170 669.5,181.5 662,171.5 650" fill="#000000" stroke="#000000" />
<polygon id="2519" points="170 670,194 653.5,206.5 673.5,182 689" fill="#000000" stroke="#000000" />
<polygon id="2520" points="190.5 707.5,217 695.5,227 719.5,199 729.5" fill="#000000" stroke="#000000" />
<polygon id="2521" points="199 730,227 720,232.5 738,204 744.5" fill="#000000" stroke="#000000" />
<polygon id="2522" points="204 744.5,232.5 738,236 755,207.5 760" fill="#000000" stroke="#000000" />
<polygon id="2523" points="207.5 760,235.5 755.5,238 774.5,208.5 776.5" fill="#000000" stroke="#000000" />
</svg>
