<?xml version="1.0" encoding="UTF-8" standalone="no"?>
<!-- Created with Inkscape (http://www.inkscape.org/) -->

<svg xmlns:dc="http://purl.org/dc/elements/1.1/" xmlns:cc="http://creativecommons.org/ns#" xmlns:rdf="http://www.w3.org/1999/02/22-rdf-syntax-ns#" xmlns:svg="http://www.w3.org/2000/svg" xmlns="http://www.w3.org/2000/svg" xmlns:xlink="http://www.w3.org/1999/xlink" xmlns:sodipodi="http://sodipodi.sourceforge.net/DTD/sodipodi-0.dtd" xmlns:inkscape="http://www.inkscape.org/namespaces/inkscape" width="770" height="800" id="svg2" version="1.1" inkscape:version="0.47pre4 " sodipodi:docname="test.svg" style="display:inline" stroke="#000000">
<defs id="defs4">
<inkscape:perspective sodipodi:type="inkscape:persp3d" inkscape:vp_x="0 : 526.18109 : 1" inkscape:vp_y="0 : 1000 : 0" inkscape:vp_z="744.09448 : 526.18109 : 1" inkscape:persp3d-origin="372.04724 : 350.78739 : 1" id="perspective10" />
<inkscape:perspective id="perspective2832" inkscape:persp3d-origin="0.5 : 0.33333333 : 1" inkscape:vp_z="1 : 0.5 : 1" inkscape:vp_y="0 : 1000 : 0" inkscape:vp_x="0 : 0.5 : 1" sodipodi:type="inkscape:persp3d" />
<script type="text/ecmascript" id="script6">
		var fdat="",sdat="";
		function onAreaOver(evt){
			var ele=evt.target; 
			fdat=ele.getAttribute('fill'); 
			sdat=ele.getAttribute('stroke');
			ele.setAttribute('fill','#006fb6');//多边形填充颜色
			ele.setAttribute('stroke','#006fb6');//stroke 多边形 边框颜色
			
		}
		function onAreaOut(evt){
			var ele=evt.target; 
			ele.setAttribute('fill',fdat);
			ele.setAttribute('stroke',sdat);
		}
		</script>
<symbol overflow="visible" id="symbol" style="overflow:visible">
<path d="m 626,156 2,-2 2,-4 0,-3 -1,-3 -4,-3 -6,-3 -5,-2 -4,-2 -4,8 -6,14" id="path9" style="fill:#000000;stroke:none" />
</symbol>
</defs>
<sodipodi:namedview id="base" pagecolor="#ffffff" bordercolor="#666666" borderopacity="1.0" inkscape:pageopacity="0.0" inkscape:pageshadow="2" inkscape:zoom="5.6" inkscape:cx="583.1007" inkscape:cy="273.63795" inkscape:document-units="px" inkscape:current-layer="svg2" showgrid="false" inkscape:window-width="1280" inkscape:window-height="740" inkscape:window-x="-4" inkscape:window-y="-4" inkscape:window-maximized="1" />
<metadata id="metadata7">
<rdf:RDF>
<cc:Work>
<dc:format>
				image/svg+xml</dc:format>
<dc:type rdf:resource="http://purl.org/dc/dcmitype/StillImage" />
<dc:title>
</dc:title>
</cc:Work>
</rdf:RDF>
</metadata>
<image xlink:href="qdchengyang_mall_3f_a.png" width="770" height="800" id="image2834" x="-485" y="255.93361" transform="translate(485,-255.9336)" inkscape:label="Layer 1" inkscape:groupmode="layer" style="display:inline" />
<polygon id="3001" points="600.5 34,605 103.5,701.5 96.5,771 94.5,770.5 41,737 41,695 42,673 45,674 28" fill="#000000" stroke="#000000" />
<polygon id="3002" points="557 55.5,565 109,598 107,596.5 91.5,589 80.5,578 80.5,574 53.5" fill="#000000" stroke="#000000" />
<polygon id="3003" points="540 59,548 112.5,565 109.5,557 55.5" fill="#000000" stroke="#000000" />
<polygon id="3004" points="508 65,519 117,548.5 111.5,539.5 58" fill="#000000" stroke="#000000" />
<polygon id="3005" points="492.5 68.5,503.5 119,519.5 116.5,507.5 64.5" fill="#000000" stroke="#000000" />
<polygon id="3006" points="476.5 71.5,477 104,481.5 125,503.5 120.5,492.5 69" fill="#000000" stroke="#000000" />
<polygon id="3007" points="443.5 78.5,456.5 128.5,472 125.5,462 74" fill="#000000" stroke="#000000" />
<polygon id="3008" points="428.5 82,439.5 132.5,456.5 130,444 78" fill="#000000" stroke="#000000" />
<polygon id="3009" points="380 94,394.5 144,435.5 133.5,429 110,420.5 110,413 85.5" fill="#000000" stroke="#000000" />
<polygon id="3010" points="364.5 99,379 147.5,394.5 144,380 93" fill="#000000" stroke="#000000" />
<polygon id="3011" points="348 101.5,363.5 152.5,379.5 149,364 98" fill="#000000" stroke="#000000" />
<polygon id="3012" points="333 106.5,349 157,363.5 152.5,348 101" fill="#000000" stroke="#000000" />
<polygon id="3013" points="317 112,334 161.5,348.5 156.5,333 106" fill="#000000" stroke="#000000" />
<polygon id="3014" points="285.5 122,304.5 173,335 161,316.5 111" fill="#000000" stroke="#000000" />
<polygon id="3015" points="269.5 127,288.5 176,303 171.5,286.5 122" fill="#000000" stroke="#000000" />
<polygon id="3016" points="69 204,77 181.5,107 167,130 174,136.5 185.5,194.5 158,190 147.5,199.5 125,229 114,253.5 123.5,274 181.5,231.5 199.5,167 226,98 259" fill="#000000" stroke="#000000" />
<polygon id="3017" points="61.5 221,85 268,98 258.5,74 215" fill="#000000" stroke="#000000" />
<polygon id="3018" points="61 221,23 242.5,24 286.5,73 286.5,73.5 272.5,84.5 267" fill="#000000" stroke="#000000" />
<polygon id="3019" points="24 285.5,24 302.5,73 302.5,73.5 287.5" fill="#000000" stroke="#000000" />
<polygon id="3020" points="23 302,23.5 315,74 315.5,74 303.5" fill="#000000" stroke="#000000" />
<polygon id="3021" points="23.5 314,23.5 347,54.5 345.5,55 352,73.5 352.5,74 316" fill="#000000" stroke="#000000" />
<polygon id="3022" points="61 360.5,62 375,72.5 376,72.5 361" fill="#000000" stroke="#000000" />
<polygon id="3023" points="54 374.5,53 390,73 391,73.5 374.5" fill="#000000" stroke="#000000" />
<polygon id="3024" points="16.5 390.5,73 390.5,72.5 404.5,17 407.5" fill="#000000" stroke="#000000" />
<polygon id="3025" points="35 404.5,35 436.5,73.5 436.5,73.5 404.5" fill="#000000" stroke="#000000" />
<polygon id="3026" points="34.5 435,35.5 451,72.5 451,72.5 436" fill="#000000" stroke="#000000" />
<polygon id="3027" points="35 450.5,35 464.5,72.5 465.5,73 450" fill="#000000" stroke="#000000" />
<polygon id="3028" points="35 464,35 480.5,72.5 480.5,72.5 465" fill="#000000" stroke="#000000" />
<polygon id="3029" points="34.5 480,34.5 494.5,73 494.5,73 479.5" fill="#000000" stroke="#000000" />
<polygon id="3030" points="16.5 495,16.5 525,25 525.5,25 584,72.5 584,72.5 494" fill="#000000" stroke="#000000" />
<polygon id="3031" points="23.5 583,23.5 675.5,53.5 674,53.5 682,44.5 682,31.5 695.5,31.5 712,45.5 727.5,63 727,78.5 713,81 704,115.5 705,115.5 685,100 685.5,72.5 657.5,72 583" fill="#000000" stroke="#000000" />
<polygon id="3032" points="83 719,114.5 719,114.5 734,83.5 734" fill="#000000" stroke="#000000" />
<polygon id="3033" points="132 684.5,132 735.5,233 735.5,233 684.5" fill="#000000" stroke="#000000" />
<polygon id="3034" points="233.5 703.5,248 703.5,248 696.5,262.5 696.5,262.5 684,234 684" fill="#000000" stroke="#000000" />
<polygon id="3035" points="271.5 685,271.5 734.5,382 734.5,382 684.5" fill="#000000" stroke="#000000" />
<polygon id="3036" points="382.5 714.5,395.5 714.5,395.5 684,382.5 684" fill="#000000" stroke="#000000" />
<polygon id="3037" points="396 685,413.5 685,413.5 708,396.5 708" fill="#000000" stroke="#000000" />
<polygon id="3038" points="420 684.5,420 705,441.5 705,459.5 711,464 698.5,462 689.5,455.5 684.5" fill="#000000" stroke="#000000" />
<polygon id="3039" points="419.5 705,420.5 730,454 735,460.5 712,441.5 704" fill="#000000" stroke="#000000" />
<polygon id="3040" points="405.5 734.5,402 754,452 759.5,453.5 743" fill="#000000" stroke="#000000" />
<polygon id="3041" points="402 754,400.5 772.5,450.5 775,452 759" fill="#000000" stroke="#000000" />
<polygon id="3042" points="400.5 773,399.5 802,450 799.5,450.5 776" fill="#000000" stroke="#000000" />
<polygon id="3113" points="280.5 231,280 250,288.5 261.5,319 262,303 222" fill="#000000" stroke="#000000" />
<polygon id="3114" points="303.5 222,318.5 217,329.5 248,315.5 252.5" fill="#000000" stroke="#000000" />
<polygon id="3115" points="318.5 216,334 211,342 239.5,329 245" fill="#000000" stroke="#000000" />
<polygon id="3116" points="334 211.5,348.5 207,358 238.5,344.5 243" fill="#000000" stroke="#000000" />
<polygon id="3117" points="349 207.5,365 262,389 261,396 259.5,378 198" fill="#000000" stroke="#000000" />
<polygon id="3118" points="378 197.5,392.5 194,401 224.5,388 229" fill="#000000" stroke="#000000" />
<polygon id="3119" points="392.5 193.5,407.5 190.5,415 221,401.5 225.5" fill="#000000" stroke="#000000" />
<polygon id="3120" points="408 190,422.5 187,429.5 215.5,416.5 220.5" fill="#000000" stroke="#000000" />
<polygon id="3121" points="422 186.5,445 180,450 197.5,427 204" fill="#000000" stroke="#000000" />
<polygon id="3122" points="458 177,465 209.5,488 204.5,482 171.5" fill="#000000" stroke="#000000" />
<polygon id="3123" points="487.5 199.5,503 197.5,498 169,483 171.5" fill="#000000" stroke="#000000" />
<polygon id="3124" points="497.5 168.5,510 233.5,538 227,527 163" fill="#000000" stroke="#000000" />
<polygon id="3125" points="527 162.5,548 159.5,553 192,533 196" fill="#000000" stroke="#000000" />
<polygon id="3126" points="555.5 158.5,558.5 176,590.5 171.5,588.5 154" fill="#000000" stroke="#000000" />
<polygon id="3127" points="589 154,591 187.5,608.5 199,622.5 182,620.5 171.5,613.5 161,600.5 155.5" fill="#000000" stroke="#000000" />
<polygon id="3128" points="576 187,581 220,593 219,608 200,591 185" fill="#000000" stroke="#000000" />
<polygon id="3129" points="561 190,566.5 223,581 220.5,575.5 187" fill="#000000" stroke="#000000" />
<polygon id="3130" points="546 192.5,551 224.5,566.5 223,561 189" fill="#000000" stroke="#000000" />
<polygon id="3131" points="532.5 195,538.5 227,551 225,546 193.5" fill="#000000" stroke="#000000" />
<polygon id="3132" points="468 223,471.5 240,510 232.5,506.5 213.5" fill="#000000" stroke="#000000" />
<polygon id="3133" points="433 230.5,456.5 224,461 243,438.5 249" fill="#000000" stroke="#000000" />
<polygon id="3134" points="415.5 220,429.5 215.5,438 248.5,423 252" fill="#000000" stroke="#000000" />
<polygon id="3135" points="400.5 224.5,410 257.5,422 253,415.5 220.5" fill="#000000" stroke="#000000" />
<polygon id="3136" points="387.5 230,397 259.5,408.5 256,400 224.5" fill="#000000" stroke="#000000" />
<polygon id="3137" points="319 262,365 262.5,357 239.5,314.5 253" fill="#000000" stroke="#000000" />
<polygon id="3043" points="173.75 284,173.75 306,189 306,189 284" fill="#000000" stroke="#000000" />
<polygon id="3044" points="158.5 284,158.5 308.25,174.5 308.25,174.5 283.75" fill="#000000" stroke="#000000" />
<polygon id="3045" points="143.5 283.5,143.5 315,159.25 315,159.25 283.75" fill="#000000" stroke="#000000" />
<polygon id="3046" points="124.5 284.5,124.5 303,143.5 303,143.5 283.75" fill="#000000" stroke="#000000" />
<polygon id="3047" points="124.75 375.25,124.75 390,159 390,159 374.5" fill="#000000" stroke="#000000" />
<polygon id="3048" points="124.75 390,124.75 404.75,158.5 404.75,158.5 390.75" fill="#000000" stroke="#000000" />
<polygon id="3049" points="124.5 405,124.5 419.5,159.5 419.5,159.5 405" fill="#000000" stroke="#000000" />
<polygon id="3050" points="124.5 419,124.5 435.5,159.75 435.5,159.75 419" fill="#000000" stroke="#000000" />
<polygon id="3051" points="124.5 435.75,124.5 450,160 450,160 435.25" fill="#000000" stroke="#000000" />
<polygon id="3052" points="124.25 450.25,124.25 465.25,160.25 465.25,160.25 449.25" fill="#000000" stroke="#000000" />
<polygon id="3053" points="124.5 465,124.5 480,159.75 480,159.75 465" fill="#000000" stroke="#000000" />
<polygon id="3054" points="124.5 480,124.5 495,160 495,160 479.5" fill="#000000" stroke="#000000" />
<polygon id="3056" points="124.75 499,124.75 521.75,144 521.75,144 499" fill="#000000" stroke="#000000" />
<polygon id="3057" points="125 536,125 555.25,159.25 555.25,159.25 535.75" fill="#000000" stroke="#000000" />
<polygon id="3058" points="124.75 555,124.75 569.25,144.5 569.25,144.5 555.25" fill="#000000" stroke="#000000" />
<polygon id="3059" points="124.75 569,124.75 584.5,147 584.5,147 570" fill="#000000" stroke="#000000" />
<polygon id="3060" points="124.75 584,124.75 599.75,147.75 599.75,147.75 585" fill="#000000" stroke="#000000" />
<polygon id="3061" points="173 598.75,173 633.5,189 633.5,189 599.5" fill="#000000" stroke="#000000" />
<polygon id="3062" points="188.75 599.25,188.75 633.25,203.5 633.25,203.5 599.25" fill="#000000" stroke="#000000" />
<polygon id="3063" points="203.75 603.25,218 603.25,218 632.5,203.5 632.5" fill="#000000" stroke="#000000" />
<polygon id="3064" points="218 599,218 632.75,233.25 632.75,233.25 599.25" fill="#000000" stroke="#000000" />
<polygon id="3065" points="233.75 616.75,248 616.75,248 632.75,233.25 632.75" fill="#000000" stroke="#000000" />
<polygon id="3066" points="248 614.25,248 633.25,260.75 633.25,260.75 613.5" fill="#000000" stroke="#000000" />
<polygon id="3067" points="270.75 598.75,270.75 632.5,292.5 632.5,292.5 599.75" fill="#000000" stroke="#000000" />
<polygon id="3068" points="293 599.25,293 633.5,308.75 633.5,308.75 599.25" fill="#000000" stroke="#000000" />
<polygon id="3069" points="308.5 598.75,322 598.75,322 633.25,309.75 633.25" fill="#000000" stroke="#000000" />
<polygon id="3070" points="322 614.25,345 614.25,345 633.5,321.5 633.5" fill="#000000" stroke="#000000" />
<polygon id="3071" points="352.25 614,352.25 633.75,368.5 633.75,368.5 613.75" fill="#000000" stroke="#000000" />
<polygon id="3072" points="368.5 614,368.5 633.5,382.5 633.5,382.5 613.75" fill="#000000" stroke="#000000" />
<polygon id="3073" points="389.75 599,389.75 633,412 633,412 599" fill="#000000" stroke="#000000" />
<polygon id="3074" points="412.5 603.75,427 603.75,427 632.75,412.5 632.75" fill="#000000" stroke="#000000" />
<polygon id="3075" points="427.5 603.5,442.5 603.5,442.5 632.75,426.5 632.75" fill="#000000" stroke="#000000" />
<polygon id="3076" points="442.25 599,442.25 633.75,457.25 633.75,457.25 599" fill="#000000" stroke="#000000" />
<polygon id="3077" points="457.5 598.5,474 598.5,482.75 604.25,476 613,476.5 632.5,457.75 633.25" fill="#000000" stroke="#000000" />
<polygon id="3078" points="476 613,483.75 604.5,501.25 617.25,494.25 629,487.25 633.5,476.75 632.75" fill="#000000" stroke="#000000" />
<polygon id="3079" points="497.25 594.25,510.5 604.75,502 617.5,487.25 607.25" fill="#000000" stroke="#000000" />
<polygon id="3080" points="483.25 584.75,510.5 604.75,521 591,494.75 570.25" fill="#000000" stroke="#000000" />
<polygon id="3081" points="494.75 570,506.75 555.75,531.5 578.25,521.25 591.75" fill="#000000" stroke="#000000" />
<polygon id="3082" points="507 555.75,520 541.75,543.75 566,531.75 578" fill="#000000" stroke="#000000" />
<polygon id="3083" points="520 542,531.5 531.5,542.75 533.25,543.25 539.75,555.5 555.75,543.25 565.5" fill="#000000" stroke="#000000" />
<polygon id="3084" points="543.25 525,544 540.5,555.5 555.75,565.75 545.75,565.75 525.25" fill="#000000" stroke="#000000" />
<polygon id="3085" points="545.75 498,545.75 525.25,566.25 525.25,566.25 497.75" fill="#000000" stroke="#000000" />
<polygon id="3086" points="530.5 464.75,530.5 487.5,566.75 487.5,566.75 464.75" fill="#000000" stroke="#000000" />
<polygon id="3087" points="535.75 450.25,535.75 465.5,567 465.5,567 450" fill="#000000" stroke="#000000" />
<polygon id="3088" points="536 434.75,536 450.5,565.75 450.5,565.75 434.5" fill="#000000" stroke="#000000" />
<polygon id="3089" points="531 419.25,531 435.5,566.25 435.5,566.25 420.25" fill="#000000" stroke="#000000" />
<polygon id="3090" points="531.25 405,531.25 420.5,565.5 420.5,565.5 405" fill="#000000" stroke="#000000" />
<polygon id="3091" points="531.5 390.25,531.5 404.75,566.25 404.75,566.25 390.25" fill="#000000" stroke="#000000" />
<polygon id="3092" points="531 374,531 390.75,566.75 390.75,566.75 374" fill="#000000" stroke="#000000" />
<polygon id="3093" points="531.25 330.75,531.25 346.5,565.75 346.5,565.75 331" fill="#000000" stroke="#000000" />
<polygon id="3094" points="531.25 314.25,531.25 331.25,566.25 331.25,566.25 314.75" fill="#000000" stroke="#000000" />
<polygon id="3095" points="531.25 297.75,531.25 314,566 314,566 298.25" fill="#000000" stroke="#000000" />
<polygon id="3096" points="530.75 284,530.75 298.25,566.25 298.25,566.25 284.75" fill="#000000" stroke="#000000" />
<polygon id="3097" points="515.75 284,515.75 314.5,531 314.5,531 284" fill="#000000" stroke="#000000" />
<polygon id="3098" points="501.25 283.75,501.25 314.5,515.75 314.5,515.75 284" fill="#000000" stroke="#000000" />
<polygon id="3099" points="486.75 284,501.75 284,501.75 309,487 309" fill="#000000" stroke="#000000" />
<polygon id="3100" points="472 283.75,472 314.75,487 314.75,487 283.25" fill="#000000" stroke="#000000" />
<polygon id="3101" points="457 284,457 315,471.5 315,471.5 283.25" fill="#000000" stroke="#000000" />
<polygon id="3102" points="441.75 283.75,441.75 315,457.25 315,457.25 283.75" fill="#000000" stroke="#000000" />
<polygon id="3103" points="424.5 283.5,424.5 309.25,441.75 309.25,441.75 284.25" fill="#000000" stroke="#000000" />
<polygon id="3104" points="381.75 283.75,381.75 298.25,406 298.25,406 284.25" fill="#000000" stroke="#000000" />
<polygon id="3105" points="367 283.5,367 311,382.5 311,382.5 283.25" fill="#000000" stroke="#000000" />
<polygon id="3106" points="352 284,352 314,367.25 314,367.25 283.25" fill="#000000" stroke="#000000" />
<polygon id="3107" points="337 284,337 314,352.25 314,352.25 284" fill="#000000" stroke="#000000" />
<polygon id="3108" points="322.25 284,322.25 314.5,336.25 314.5,336.25 283.75" fill="#000000" stroke="#000000" />
<polygon id="3109" points="307.25 284,307.25 314.25,322.5 314.25,322.5 283.75" fill="#000000" stroke="#000000" />
<polygon id="3110" points="292.75 284,292.75 314.5,306.5 314.5,306.5 284" fill="#000000" stroke="#000000" />
<polygon id="3111" points="263 284,263 299.25,292.5 299.25,292.5 283" fill="#000000" stroke="#000000" />
<polygon id="3112" points="248 284,248 307.75,254.75 307.5,254.75 284" fill="#000000" stroke="#000000" />
<polygon id="3371" points="726.5 147.5,734 178.5,750.5 176,745.75 144.25" fill="#000000" stroke="#000000" />
<polygon id="3372" points="707.75 153,718.75 184,734.25 179,726.25 147.5,716.5 149.25" fill="#000000" stroke="#000000" />
<polygon id="3373" points="685.25 162.75,693 177.25,703.75 171.5,712.75 168,708 153,696.25 156.75" fill="#000000" stroke="#000000" />
<polygon id="3374" points="666.5 175.5,683.75 201.75,696 193.75,680 166.75" fill="#000000" stroke="#000000" />
<polygon id="3375" points="653.75 185,674 209.25,684.25 201.5,665.5 174.5" fill="#000000" stroke="#000000" />
<polygon id="3376" points="652.75 185.25,647.5 190,642 195.5,665.5 219,673 208.5" fill="#000000" stroke="#000000" />
<polygon id="3377" points="641.5 195,635 203.5,628.5 213,654.5 232,664 219" fill="#000000" stroke="#000000" />
<polygon id="3378" points="613.5 231.5,641 247.5,635 261.5,606 246.5" fill="#000000" stroke="#000000" />
<polygon id="3379" points="606.5 246.5,603.5 254,601 262,629 273,635.5 262.5" fill="#000000" stroke="#000000" />
<polygon id="3380" points="600.5 261,597 268,595.5 276.5,625.5 285,628.5 272.5" fill="#000000" stroke="#000000" />
<polygon id="3381" points="595.5 275,592 285,592.5 291.5,623 298,626.5 283.5" fill="#000000" stroke="#000000" />
<polygon id="3382" points="592 291,589 300,591 309.5,621.5 311.5,623 298" fill="#000000" stroke="#000000" />
<polygon id="3383" points="590 309,588.5 318,588.5 325,621.5 324.5,621 312" fill="#000000" stroke="#000000" />
<polygon id="3384" points="589.5 325,589 340.5,592 354.5,622.5 349.5,622.5 338,622 325" fill="#000000" stroke="#000000" />
<polygon id="3385" points="592 354,596 370.5,627 363,623 350" fill="#000000" stroke="#000000" />
<polygon id="3386" points="594 371.5,604 394,633.5 381,627.5 363" fill="#000000" stroke="#000000" />
<polygon id="3387" points="613.5 412.5,621.5 428,647.5 409.5,641 397" fill="#000000" stroke="#000000" />
<polygon id="3388" points="622 427.5,634 441.5,656.5 419,648 410" fill="#000000" stroke="#000000" />
<polygon id="3389" points="637.5 447.5,646 456,655 463,665 449.5,650.5 434.5" fill="#000000" stroke="#000000" />
<polygon id="3390" points="654.5 462,666.5 472.5,685.5 445.5,675.5 437" fill="#000000" stroke="#000000" />
<polygon id="3391" points="667 471.5,681.5 480.5,695.5 452,685 445.5" fill="#000000" stroke="#000000" />
<polygon id="3392" points="682 480.5,693.5 489.5,705.5 493.5,711.5 488.5,720 463.5,706 458.5,696 452.5" fill="#000000" stroke="#000000" />
<polygon id="3415" points="734 178,742 209,754 205.5,751 176" fill="#000000" stroke="#000000" />
<polygon id="3416" points="719 182.5,730 211.5,741 209,734.5 179" fill="#000000" stroke="#000000" />
<polygon id="3417" points="707 187.5,719.5 216.5,730.5 212.5,718.5 182" fill="#000000" stroke="#000000" />
<polygon id="3418" points="696 194,710 221.5,719.5 216.5,707 188" fill="#000000" stroke="#000000" />
<polygon id="3419" points="690 215.5,702.5 207,710.5 222.5,700 228" fill="#000000" stroke="#000000" />
<polygon id="3420" points="673.5 209,693 233.5,685.5 240.5,664 216.5" fill="#000000" stroke="#000000" />
<polygon id="3421" points="664 219,653.5 232,676.5 250.5,685 240.5" fill="#000000" stroke="#000000" />
<polygon id="3422" points="654 255,667 263,660.5 278,646 271.5" fill="#000000" stroke="#000000" />
<polygon id="3423" points="645.5 271,644 278.5,630.5 271,626.5 283,655 294,660 278.5" fill="#000000" stroke="#000000" />
<polygon id="3424" points="627 282.5,655 293.5,652 307.5,650.5 320,622.5 321,622 302.5" fill="#000000" stroke="#000000" />
<polygon id="3425" points="636.5 334.5,636.5 347,652.5 345,652 333.5" fill="#000000" stroke="#000000" />
<polygon id="3426" points="623 348.5,653 343.5,654.5 354,627 363" fill="#000000" stroke="#000000" />
<polygon id="3427" points="626 363,633.5 382.5,661 370,655.5 353.5" fill="#000000" stroke="#000000" />
<polygon id="3428" points="654.5 388,668 408,679 399.5,665.5 381.5" fill="#000000" stroke="#000000" />
<polygon id="3429" points="656.5 419.5,664.5 428.5,686 407.5,678 398.5" fill="#000000" stroke="#000000" />
<polygon id="3430" points="664.5 429,681 441.5,698 418.5,686.5 407.5" fill="#000000" stroke="#000000" />
<polygon id="3431" points="681.5 442,695.5 451,710.5 426.5,698.5 418" fill="#000000" stroke="#000000" />
<polygon id="3432" points="695.5 451.5,707.5 458,721 463.5,730 436,710.5 426.5" fill="#000000" stroke="#000000" />
<polygon id="3451" points="701.5 534.5,708 563,722 560,715.5 531" fill="#000000" stroke="#000000" />
<polygon id="3452" points="686.5 538,697.5 566.5,707.5 563,700.5 534" fill="#000000" stroke="#000000" />
<polygon id="3453" points="661 548,673 576,662.5 580.5,675 608.5,690.5 600,706 595,686.5 538,674 542" fill="#000000" stroke="#000000" />
<polygon id="3454" points="648.5 554.5,662 581,674 575.5,660.5 547.5" fill="#000000" stroke="#000000" />
<polygon id="3455" points="635.5 561.5,648.5 583.5,659 576,649 554" fill="#000000" stroke="#000000" />
<polygon id="3456" points="619 571,626 582,641.5 571,635.5 560.5" fill="#000000" stroke="#000000" />
<polygon id="3457" points="590.5 593.5,601 606,611.5 596.5,601.5 585" fill="#000000" stroke="#000000" />
<polygon id="3458" points="590.5 594,581 603,590.5 614.5,600 604.5" fill="#000000" stroke="#000000" />
<polygon id="3459" points="581 602.5,571.5 614.5,582.5 623,590 615.5" fill="#000000" stroke="#000000" />
<polygon id="3460" points="571 612.5,592.5 634.5,577 654,552 636,559.5 624.5" fill="#000000" stroke="#000000" />
<polygon id="3461" points="551.5 636,547 643.5,550.5 656,550.5 668,563 675,576.5 654" fill="#000000" stroke="#000000" />
<polygon id="3462" points="518.5 699.5,529 697,539 690,552 696.5,544 719.5,515.5 712.5" fill="#000000" stroke="#000000" />
<polygon id="3463" points="514.5 710.5,510 724,539 732.5,544 720" fill="#000000" stroke="#000000" />
<polygon id="3464" points="510.5 723.5,508 731.5,508.5 739.5,536 743,539.5 732.5" fill="#000000" stroke="#000000" />
<polygon id="3465" points="508 737,505.5 750.5,535 755.5,536.5 743.5" fill="#000000" stroke="#000000" />
<polygon id="3466" points="506 750,502.5 761.5,503 773.5,533 775.5,535 755" fill="#000000" stroke="#000000" />
<polygon id="3467" points="502 775,502.5 802,563 802,561.5 778" fill="#000000" stroke="#000000" />
<polygon id="3515" points="696.5 566.5,706.5 594,721.5 590.5,726 582,722.5 560.5" fill="#000000" stroke="#000000" />
<polygon id="3516" points="651 586.5,662.5 580.5,673.5 606.5,664.5 612.5" fill="#000000" stroke="#000000" />
<polygon id="3517" points="641 612.5,649 623,665.5 612.5,658 601.5" fill="#000000" stroke="#000000" />
<polygon id="3518" points="612.5 635,622 645.5,638.5 630,629 619" fill="#000000" stroke="#000000" />
<polygon id="3519" points="603.5 643,615 654,622 646,612 633.5" fill="#000000" stroke="#000000" />
<polygon id="3520" points="598.5 648,587.5 661.5,601 670.5,610 659" fill="#000000" stroke="#000000" />
<polygon id="3521" points="577.5 653.5,601 670,589 689,564 676" fill="#000000" stroke="#000000" />
<polygon id="3522" points="553 695,579.5 709,571.5 728,544.5 720.5" fill="#000000" stroke="#000000" />
<polygon id="3523" points="543.5 719.5,537.5 736.5,567 745.5,571.5 728" fill="#000000" stroke="#000000" />
<polygon id="3524" points="537.5 737.5,535.5 756,563 761.5,567.5 747" fill="#000000" stroke="#000000" />
<polygon id="3525" points="535 754.5,532.5 777,562 778,562 762" fill="#000000" stroke="#000000" />
<polygon id="3138" points="126 304.5,143 303,144 315.5,159 316,159.5 308.5,189 306.5,189.5 298.5,246.5 298,292 298.5,293.5 314.5,382 313.5,384 300,425 298,425.5 309.5,442.5 310,443 316,531 315,532.5 348,563.5 347,566.5 374.5,532 374.5,529.5 489.5,563.5 488,563 497,548 498.5,543.5 527.5,527.5 533,496.5 567.5,483 587,474.5 599,389.5 598.5,389.5 613.5,323 615,320.5 600,271 597.5,270.5 613.5,235 614,233 599.5,171.5 598.5,148.5 600,146 557.5,160 553.5,160 536,145.5 534,145.5 495.5,161.5 496.5,160 374.5,127 374" fill="#000000" stroke="#000000" />
</svg>
