<?xml version="1.0" encoding="UTF-8" standalone="no"?>
<!-- Created with Inkscape (http://www.inkscape.org/) -->

<svg xmlns:dc="http://purl.org/dc/elements/1.1/" xmlns:cc="http://creativecommons.org/ns#" xmlns:rdf="http://www.w3.org/1999/02/22-rdf-syntax-ns#" xmlns:svg="http://www.w3.org/2000/svg" xmlns="http://www.w3.org/2000/svg" xmlns:xlink="http://www.w3.org/1999/xlink" xmlns:sodipodi="http://sodipodi.sourceforge.net/DTD/sodipodi-0.dtd" xmlns:inkscape="http://www.inkscape.org/namespaces/inkscape" width="770" height="800" id="svg2" version="1.1" inkscape:version="0.47pre4 " sodipodi:docname="test.svg" style="display:inline" stroke="#000000">
<defs id="defs4">
<inkscape:perspective sodipodi:type="inkscape:persp3d" inkscape:vp_x="0 : 526.18109 : 1" inkscape:vp_y="0 : 1000 : 0" inkscape:vp_z="744.09448 : 526.18109 : 1" inkscape:persp3d-origin="372.04724 : 350.78739 : 1" id="perspective10" />
<inkscape:perspective id="perspective2832" inkscape:persp3d-origin="0.5 : 0.33333333 : 1" inkscape:vp_z="1 : 0.5 : 1" inkscape:vp_y="0 : 1000 : 0" inkscape:vp_x="0 : 0.5 : 1" sodipodi:type="inkscape:persp3d" />
<script type="text/ecmascript" id="script6">
		var fdat="",sdat="";
		function onAreaOver(evt){
			var ele=evt.target; 
			fdat=ele.getAttribute('fill'); 
			sdat=ele.getAttribute('stroke');
			ele.setAttribute('fill','#006fb6');//多边形填充颜色
			ele.setAttribute('stroke','#006fb6');//stroke 多边形 边框颜色
			
		}
		function onAreaOut(evt){
			var ele=evt.target; 
			ele.setAttribute('fill',fdat);
			ele.setAttribute('stroke',sdat);
		}
		</script>
<symbol overflow="visible" id="symbol" style="overflow:visible">
<path d="m 626,156 2,-2 2,-4 0,-3 -1,-3 -4,-3 -6,-3 -5,-2 -4,-2 -4,8 -6,14" id="path9" style="fill:#000000;stroke:none" />
</symbol>
</defs>
<sodipodi:namedview id="base" pagecolor="#ffffff" bordercolor="#666666" borderopacity="1.0" inkscape:pageopacity="0.0" inkscape:pageshadow="2" inkscape:zoom="5.6" inkscape:cx="583.1007" inkscape:cy="273.63795" inkscape:document-units="px" inkscape:current-layer="svg2" showgrid="false" inkscape:window-width="1280" inkscape:window-height="740" inkscape:window-x="-4" inkscape:window-y="-4" inkscape:window-maximized="1" />
<metadata id="metadata7">
<rdf:RDF>
<cc:Work>
<dc:format>
				image/svg+xml</dc:format>
<dc:type rdf:resource="http://purl.org/dc/dcmitype/StillImage" />
<dc:title>
</dc:title>
</cc:Work>
</rdf:RDF>
</metadata>
<image xlink:href="qdchengyang_mall_1f_d.png" width="770" height="800" id="image2834" x="-485" y="255.93361" transform="translate(485,-255.9336)" inkscape:label="Layer 1" inkscape:groupmode="layer" style="display:inline" />
<polygon id="1338" points="306 37,304 48.5,302 57,331.5 63,334.5 47.5,336.5 37.5" fill="#000000" stroke="none" />
<polygon id="1339" points="302 57,340.5 65,340 84,298 73.5" fill="#000000" stroke="none" stroke-opacity="0" />
<polygon id="1340" points="298.5 73,339.5 84,340.5 101,298 101.5,292.5 100,290 96.5" fill="#000000" stroke="none" stroke-opacity="0" />
<polygon id="1341" points="341 68.5,358.5 68.5,358.5 101.5,340 101.5" fill="#000000" stroke="none" stroke-opacity="0" />
<polygon id="1342" points="358.5 68,387.5 68,387.5 101,358.5 101" fill="#000000" stroke="none" stroke-opacity="0" />
<polygon id="1343" points="417.5 83,432 83,432 101.5,417.5 101.5" fill="#000000" stroke="none" stroke-opacity="0" />
<polygon id="1344" points="432 83,455 83,455 90.5,445.5 94,439.5 101.5,432 101.5" fill="#000000" stroke="none" />
<polygon id="1345" points="470.5 83,512.5 83,512.5 101,485 101,481 96.5,470.5 91" fill="#000000" stroke="none" stroke-opacity="0" />
<polygon id="1346" points="522 83,537.5 83,537.5 101.5,522 101.5" fill="#000000" stroke="none" stroke-opacity="0" />
<polygon id="1347" points="537 83,552.5 83,552.5 101.5,537 101.5" fill="#000000" stroke="none" stroke-opacity="0" />
<polygon id="1348" points="552.5 83,565.5 83,565.5 101.5,553 101.5" fill="#000000" stroke="none" stroke-opacity="0" />
<polygon id="1349" points="596.5 83,611.5 83,611.5 102,596.5 102" fill="#000000" stroke="none" stroke-opacity="0" />
<polygon id="1350" points="612 83,626.5 83,626.5 101,611.5 101" fill="#000000" stroke="none" stroke-opacity="0" />
<polygon id="1351" points="671 142,686 142,686 173,671.5 173" fill="#000000" stroke="none" stroke-opacity="0" />
<polygon id="1352" points="656.5 142,671 142,671 172.5,656.5 172.5" fill="#000000" stroke="none" stroke-opacity="0" />
<polygon id="1353" points="612 159,620.5 159,620.5 172.5,611.5 172.5" fill="#000000" stroke="none" stroke-opacity="0" />
<polygon id="1354" points="596.5 135,611.5 135,611.5 173,596.5 173" fill="#000000" stroke="none" stroke-opacity="0" />
<polygon id="1355" points="576 135,597 135,597 172.5,576 172.5" fill="#000000" stroke="none" stroke-opacity="0" />
<polygon id="1356" points="537.5 135.5,566.5 135.5,566.5 156,537.5 156" fill="#000000" stroke="none" stroke-opacity="0" />
<polygon id="1357" points="522.5 135.5,537.5 135.5,537.5 172.5,522 172.5" fill="#000000" stroke="none" stroke-opacity="0" />
<polygon id="1358" points="507 135,523 135,523 172,507 172" fill="#000000" stroke="none" stroke-opacity="0" />
<polygon id="1359" points="492 135,507.5 135,507.5 173,492 173" fill="#000000" stroke="none" stroke-opacity="0" />
<polygon id="1360" points="476.5 141.5,483.5 135,492.5 134.5,492.5 172.5,477.5 172.5" fill="#000000" stroke="none" stroke-opacity="0" />
<polygon id="1361" points="432 135,441.5 134.5,448 141.5,447.5 172,432 172" fill="#000000" stroke="none" stroke-opacity="0" />
<polygon id="1362" points="417.5 135,431.5 135,432 172.5,417 172.5" fill="#000000" stroke="none" stroke-opacity="0" />
<polygon id="1363" points="402 135.5,417 135.5,417 172,402 172" fill="#000000" stroke="none" stroke-opacity="0" />
<polygon id="1364" points="388 135.5,402 135,402 172,387.5 172" fill="#000000" stroke="none" stroke-opacity="0" />
<polygon id="1365" points="358 134.5,388 134.5,387 172,358 172" fill="#000000" stroke="none" stroke-opacity="0" />
<polygon id="1366" points="337 134.5,358 135,358 160.5,337.5 160.5" fill="#000000" stroke="none" stroke-opacity="0" />
<polygon id="1367" points="312.5 135,313.5 166.5,328 166.5,328 134.5" fill="#000000" stroke="none" stroke-opacity="0" />
<polygon id="1368" points="298 135.5,312 135,313 166.5,298.5 166" fill="#000000" stroke="none" stroke-opacity="0" />
<polygon id="1369" points="273 135,298.5 135.5,297.5 163,293 166,266 146.5" fill="#000000" stroke="none" stroke-opacity="0" />
<polygon id="1370" points="266.5 146.5,257.5 160.5,284.5 178.5,293 165.5" fill="#000000" stroke="none" stroke-opacity="0" />
<polygon id="1371" points="249 195.5,263.5 206.5,250 222.5,249 220.5,238 231,240 233,236.5 236.5,224 221.5" fill="#000000" stroke="none" stroke-opacity="0" />
<polygon id="1372" points="275 238.5,261.5 254,297.5 291.5,298 261.5" fill="#000000" stroke="none" stroke-opacity="0" />
<polygon id="1373" points="298.5 262,313 261.5,312.5 291.5,298 291.5" fill="#000000" stroke="none" stroke-opacity="0" />
<polygon id="1374" points="313 262,328 262,328 292,313 291.5" fill="#000000" stroke="none" stroke-opacity="0" />
<polygon id="1375" points="346 341.5,346 351,368 351.5,368.5 377.5,353 393,332 392,317 377.5,317.5 355.5,332 340.5" fill="#000000" stroke="#000000" />
<polygon id="1376" points="369 351.5,388 351.5,388 367,369 367" fill="#000000" stroke="none" />
<polygon id="1377" points="387.5 351.5,402 351.5,402 381.5,386.5 381.5" fill="#000000" stroke="none" stroke-opacity="0" />
<polygon id="1378" points="402 351.5,417.5 351.5,417.5 381.5,402 381.5" fill="#000000" stroke="none" stroke-opacity="0" />
<polygon id="1379" points="417 351.5,432 351.5,432 381,417.5 381" fill="#000000" stroke="none" stroke-opacity="0" />
<polygon id="1380" points="432 351.5,447.5 351.5,447.5 381.5,432 381.5" fill="#000000" stroke="none" stroke-opacity="0" />
<polygon id="1381" points="447.5 352,461.5 352,461.5 381.5,447.5 381.5" fill="#000000" stroke="none" stroke-opacity="0" />
<polygon id="1382" points="461.5 352,477 352,477 381.5,461 381.5" fill="#000000" stroke="none" stroke-opacity="0" />
<polygon id="1383" points="477 352.5,492 352.5,492 382,476.5 382" fill="#000000" stroke="none" stroke-opacity="0" />
<polygon id="1384" points="492 352,507 352,507 382,491.5 382" fill="#000000" stroke="none" stroke-opacity="0" />
<polygon id="1385" points="567 351.5,567 381.5,581 381.5,581 351" fill="#000000" stroke="none" stroke-opacity="0" />
<polygon id="1386" points="581.5 351.5,581.5 381,596 381,596 358,589.5 358,589 351.5" fill="#000000" stroke="none" stroke-opacity="0" />
<polygon id="1387" points="596.5 358,596.5 381,612 381,612 351.5,604.5 351.5,604.5 357.5" fill="#000000" stroke="none" stroke-opacity="0" />
<polygon id="1388" points="612 351.5,612 381,626.5 381,626.5 351" fill="#000000" stroke="none" stroke-opacity="0" />
<polygon id="1389" points="626.5 351.5,626.5 381.5,641.5 381.5,641.5 351.5" fill="#000000" stroke="none" stroke-opacity="0" />
<polygon id="1390" points="641.5 352,641.5 381,656.5 381,656.5 357,648.5 357,648.5 352" fill="#000000" stroke="none" stroke-opacity="0" />
<polygon id="1391" points="656.5 357.5,656.5 381,671.5 381,671.5 351,663 351,663.5 357" fill="#000000" stroke="none" stroke-opacity="0" />
<polygon id="1392" points="671.5 351.5,686 351,686.5 381.5,671 381" fill="#000000" stroke="none" stroke-opacity="0" />
<polygon id="1502" points="48.75 226.75,61.25 223.5,68.75 252.25,54.75 255.5" fill="#000000" stroke="none" stroke-opacity="0" />
<polygon id="1503" points="61.25 223.75,73 220,82.5 247.5,68.75 252" fill="#000000" stroke="none" stroke-opacity="0" />
<polygon id="1504" points="73 220.25,84.75 216.25,95.5 243.25,82.5 248.25" fill="#000000" stroke="none" stroke-opacity="0" />
<polygon id="1505" points="84.5 216.25,96 211.25,108.75 237.75,95.25 243" fill="#000000" stroke="none" stroke-opacity="0" />
<polygon id="1506" points="96 211.25,107.75 205.75,121.5 231.75,108.75 238" fill="#000000" stroke="none" stroke-opacity="0" />
<polygon id="1507" points="107.75 205.75,118.75 200,134 224.5,121.5 232" fill="#000000" stroke="none" stroke-opacity="0" />
<polygon id="1508" points="126.5 212.5,142 203.5,150 214.5,144 219.25,134.5 224.75" fill="#000000" stroke="none" stroke-opacity="0" />
<polygon id="1509" points="140.25 186.25,150 178.5,168 201.5,157.25 209.75" fill="#000000" stroke="none" stroke-opacity="0" />
<polygon id="1510" points="150.25 178.5,160 170,179.5 192,167.75 201.25" fill="#000000" stroke="none" stroke-opacity="0" />
<polygon id="1511" points="176.5 153.5,185 144,208 161.75,198.25 174.25" fill="#000000" stroke="none" stroke-opacity="0" />
<polygon id="1512" points="185 144.25,192.25 133.25,216.75 150.5,208 161.75" fill="#000000" stroke="none" stroke-opacity="0" />
<polygon id="1513" points="192.5 133.75,200 123.5,224.5 139,216.25 151" fill="#000000" stroke="none" stroke-opacity="0" />
<polygon id="1514" points="200.25 123.5,206.25 112.75,232 126.75,224.75 139" fill="#000000" stroke="none" stroke-opacity="0" />
<polygon id="1515" points="206.5 113,217.75 90.75,244.25 102.5,232 126.75" fill="#000000" stroke="none" stroke-opacity="0" />
<polygon id="1516" points="218 91,227 67.5,254.75 76,244.25 102.25" fill="#000000" stroke="none" stroke-opacity="0" />
<polygon id="1517" points="240.5 71.5,245.25 53.5,260 57,254.5 75.75" fill="#000000" stroke="none" stroke-opacity="0" />
<polygon id="1518" points="233.25 42.5,261.5 49,264 35.25,235.25 30.5" fill="#000000" stroke="none" stroke-opacity="0" />
<polygon id="1564" points="28.75 183.5,44.75 180.25,50.25 203.25,33 207.75" fill="#000000" stroke="none" stroke-opacity="0" />
<polygon id="1565" points="50.75 203,66.5 198.75,58.75 176.5,44.75 180.25" fill="#000000" stroke="none" stroke-opacity="0" />
<polygon id="1566" points="43.75 205,66 198.25,73.25 220.25,49 226.75" fill="#000000" stroke="none" stroke-opacity="0" />
<polygon id="1567" points="59 176.5,73.5 220.25,90.75 213.5,73 171" fill="#000000" stroke="none" stroke-opacity="0" />
<polygon id="1568" points="73.25 171,87.5 164.75,107.75 205.75,90.75 213.5" fill="#000000" stroke="none" stroke-opacity="0" />
<polygon id="1569" points="87.5 164.25,108 205.75,124 196.25,100.25 157.25" fill="#000000" stroke="none" stroke-opacity="0" />
<polygon id="1570" points="100.25 157.25,112.75 148.5,140 186.25,124.25 196.25" fill="#000000" stroke="none" stroke-opacity="0" />
<polygon id="1571" points="113 148.75,129.25 135.5,159.75 170.5,150.25 178.25,140.25 186.25" fill="#000000" stroke="none" stroke-opacity="0" />
<polygon id="1572" points="142 123,155.5 106.5,180.5 124.5,164.25 144.5" fill="#000000" stroke="none" stroke-opacity="0" />
<polygon id="1573" points="155.25 106.75,166.25 89.5,206.5 112.25,200.5 123.5,192 133.75" fill="#000000" stroke="none" stroke-opacity="0" />
<polygon id="1574" points="166.5 89.5,175.25 72,217.75 90.25,206.75 112.25" fill="#000000" stroke="none" stroke-opacity="0" />
<polygon id="1575" points="175.25 72,182.5 52.5,227 67.25,218 90" fill="#000000" stroke="none" stroke-opacity="0" />
<polygon id="1576" points="205.25 60,213.5 27,235.75 30.5,231.75 49.5,226.5 67.25" fill="#000000" stroke="#000000" />
<polygon id="1577" points="190 22.75,213.25 26.5,204.75 60,183 52.25,187.25 38" fill="#000000" stroke="#000000" />
<polygon id="1590" points="194.25 232.75,213.75 256.75,198.5 267.75,181 242.75" fill="#000000" stroke="#000000" />
<polygon id="1591" points="180.75 243,198.25 268,184.5 278,167.75 252.5" fill="#000000" stroke="#000000" />
<polygon id="1592" points="140 268.25,153.75 296,137.75 303,125.25 275.25" fill="#000000" stroke="#000000" />
<polygon id="1593" points="125 275.25,137.25 303.5,121 309.75,110.25 281.75" fill="#000000" stroke="#000000" />
<polygon id="1594" points="109.75 281.75,120.75 309.75,104.5 315.25,95 287.25" fill="#000000" stroke="#000000" />
<polygon id="1595" points="94.75 287.25,104.5 315.5,87.25 320.5,79.5 291.75" fill="#000000" stroke="#000000" />
<polygon id="1596" points="79 291.5,87.25 320.5,70 325,63.75 295.75" fill="#000000" stroke="#000000" />
<polygon id="1597" points="63.25 295.5,69.75 325.5,52.75 328.75,47.75 298.5" fill="#000000" stroke="#000000" />
<polygon id="1598" points="47.25 298.25,52.5 329,35 330.75,32 300.5" fill="#000000" stroke="#000000" />
<polygon id="1599" points="31.75 300.5,34.75 330.75,16.5 332.25,15.5 302" fill="#000000" stroke="#000000" />
<polygon id="1623" points="16.75 332.5,18 362.5,38.5 360.75,35 331" fill="#000000" stroke="#000000" />
<polygon id="1624" points="35.5 331.25,38.75 361,57.5 358.5,52.25 329" fill="#000000" stroke="#000000" />
<polygon id="1625" points="53.25 329.5,59 369.75,79 365,70.25 325.75" fill="#000000" stroke="#000000" />
<polygon id="1626" points="70.75 325.5,79.75 365,98 360.75,87.25 321.25" fill="#000000" stroke="#000000" />
<polygon id="1627" points="87.5 321.25,98.75 361,117.75 355,114 344,117.25 343,107.25 315" fill="#000000" stroke="#000000" />
<polygon id="1628" points="121 310.25,138 303.25,154.5 340.75,136.5 348.5" fill="#000000" stroke="#000000" />
<polygon id="1629" points="138.5 303.25,154.25 296.25,172.25 332.25,155 340.75" fill="#000000" stroke="#000000" />
<polygon id="1630" points="140.25 268,167.25 252.75,206.5 312.5,172.75 332.25" fill="#000000" stroke="#000000" />
<polygon id="1631" points="184.75 278.5,199.5 267.75,222.5 300.75,207 312.75" fill="#000000" stroke="#000000" />
<polygon id="1632" points="199.75 267.5,214.5 257.25,239.25 288,223 300.75" fill="#000000" stroke="#000000" />
<polygon id="640" points="686 73.5,686.5 112.5,716.5 113,716 105.5,725 106,739.5 92,738.5 73,726 61,708 60,694 74" fill="#000000" stroke="#000000" />
<polygon id="640-1" points="655.5 51.5,686.5 52,685.5 82.5,656 82.5" fill="#000000" stroke="#000000" />
<polygon id="640-2" points="636 52,637 82.5,612 83,611.5 52.5" fill="#000000" stroke="#000000" />
<polygon id="640-3" points="611.5 52.5,596 52.5,596.5 83,612 83" fill="#000000" stroke="#000000" />
<polygon id="640-4" points="567 38,596 38,596 101,565.5 101,565 83,567 83" fill="#000000" stroke="#000000" />
<polygon id="640-5" points="551.5 38,567 38,567 82.5,552 82.5" fill="#000000" stroke="#000000" />
<polygon id="640-6" points="551.5 38.5,537 38.5,537 83,551.5 83" fill="#000000" stroke="#000000" />
<polygon id="640-7" points="537 38,522 38,522 83,536.5 83" fill="#000000" stroke="#000000" />
<polygon id="640-8" points="507 38,522.5 38,522.5 52.5,507 52.5" fill="#000000" stroke="#000000" />
<polygon id="640-9" points="506.5 37.5,506.5 82.5,491.5 82.5,491.5 38.5" fill="#000000" stroke="#000000" />
<polygon id="640-10" points="491 38.5,491 83,470 83,470 52.5,476.5 52,477.5 38.5" fill="#000000" stroke="#000000" />
<polygon id="640-11" points="432.5 83,454.5 83,454.5 52,447 51.5,447 37.5,431.5 38" fill="#000000" stroke="#000000" />
<polygon id="640-12" points="417.5 38,417.5 83,432.5 83,432.5 37.5" fill="#000000" stroke="#000000" />
<polygon id="640-13" points="388 37.5,388 100.5,417.5 100.5,417.5 37.5" fill="#000000" stroke="#000000" />
<polygon id="640-14" points="368 37.5,368 52,388 52,388 37" fill="#000000" stroke="#000000" />
<polygon id="640-15" points="336.5 38,357.5 38,357.5 68,340.5 68,340.5 65,331.5 63" fill="#000000" stroke="#000000" />
<polygon id="644" points="686 127,716.5 127,716.5 142.5,686.5 142.5" fill="#000000" stroke="#000000" />
<polygon id="646" points="686.5 143.5,717 143,717 157.5,686 157.5" fill="#000000" stroke="#000000" xmlns="http://www.w3.org/2000/svg" />
<polygon id="648" points="686.5 158,717 158,717 173,686 173" fill="#000000" stroke="#000000" xmlns="http://www.w3.org/2000/svg" />
<polygon id="650" points="684.5 187.5,716.5 187.5,716.5 232,685.5 232" fill="#000000" stroke="#000000" xmlns="http://www.w3.org/2000/svg" />
<polygon id="652" points="686 232,716 232,716 247,685.5 247" fill="#000000" stroke="#000000" xmlns="http://www.w3.org/2000/svg" />
<polygon id="654" points="686 247,686 262,716 262,716 247" fill="#000000" stroke="#000000" xmlns="http://www.w3.org/2000/svg" />
<polygon id="656" points="686 291.5,716 291.5,716 307,686 307" fill="#000000" stroke="#000000" xmlns="http://www.w3.org/2000/svg" />
<polygon id="658" points="685.5 307.5,716 307.5,716 321.5,686 321.5" fill="#000000" stroke="#000000" xmlns="http://www.w3.org/2000/svg" />
<polygon id="660" points="686 322,715.5 322,715.5 336.5,686 336.5" fill="#000000" stroke="#000000" xmlns="http://www.w3.org/2000/svg" />
<polygon id="662" points="687 337.5,716 337.5,716 351.5,686.5 351.5" fill="#000000" stroke="#000000" xmlns="http://www.w3.org/2000/svg" />
<polygon id="664" points="686.5 352,716 352,716 365.5,686.5 365.5" fill="#000000" stroke="#000000" xmlns="http://www.w3.org/2000/svg" />
<polygon id="666" points="687 366.5,716 366.5,716 381,687 381" fill="#000000" stroke="#000000" xmlns="http://www.w3.org/2000/svg" />
<polygon id="1636" points="249 221,270.5 243.5,275.5 238.5,299 261.5,328 261.5,328.5 291,351.5 291,351.5 321,369 322,369 351,507 351,507 374.5,536.5 374.5,536.5 351,686.5 351,686.5 291,700 291,700 262,686 262,685.5 173,653 172.5,653 158.5,627.5 159,627.5 172.5,477 173,476 141.5,466.5 145.5,459.5 146,448.5 141,447.5 172,298 172.5,289 173,270.5 198.5" fill="#000000" stroke="#000000" xmlns="http://www.w3.org/2000/svg" />

</svg>
