<?xml version="1.0" encoding="UTF-8" standalone="no"?>
<!-- Created with Inkscape (http://www.inkscape.org/) -->

<svg xmlns:dc="http://purl.org/dc/elements/1.1/" xmlns:cc="http://creativecommons.org/ns#" xmlns:rdf="http://www.w3.org/1999/02/22-rdf-syntax-ns#" xmlns:svg="http://www.w3.org/2000/svg" xmlns="http://www.w3.org/2000/svg" xmlns:xlink="http://www.w3.org/1999/xlink" xmlns:sodipodi="http://sodipodi.sourceforge.net/DTD/sodipodi-0.dtd" xmlns:inkscape="http://www.inkscape.org/namespaces/inkscape" width="770" height="800" id="svg2" version="1.1" inkscape:version="0.47pre4 " sodipodi:docname="test.svg" style="display:inline" stroke="#000000">
<defs id="defs4">
<inkscape:perspective sodipodi:type="inkscape:persp3d" inkscape:vp_x="0 : 526.18109 : 1" inkscape:vp_y="0 : 1000 : 0" inkscape:vp_z="744.09448 : 526.18109 : 1" inkscape:persp3d-origin="372.04724 : 350.78739 : 1" id="perspective10" />
<inkscape:perspective id="perspective2832" inkscape:persp3d-origin="0.5 : 0.33333333 : 1" inkscape:vp_z="1 : 0.5 : 1" inkscape:vp_y="0 : 1000 : 0" inkscape:vp_x="0 : 0.5 : 1" sodipodi:type="inkscape:persp3d" />
<script type="text/ecmascript" id="script6">
		var fdat="",sdat="";
		function onAreaOver(evt){
			var ele=evt.target; 
			fdat=ele.getAttribute('fill'); 
			sdat=ele.getAttribute('stroke');
			ele.setAttribute('fill','#006fb6');//多边形填充颜色
			ele.setAttribute('stroke','#006fb6');//stroke 多边形 边框颜色
			
		}
		function onAreaOut(evt){
			var ele=evt.target; 
			ele.setAttribute('fill',fdat);
			ele.setAttribute('stroke',sdat);
		}
		</script>
<symbol overflow="visible" id="symbol" style="overflow:visible">
<path d="m 626,156 2,-2 2,-4 0,-3 -1,-3 -4,-3 -6,-3 -5,-2 -4,-2 -4,8 -6,14" id="path9" style="fill:#000000;stroke:none" />
</symbol>
</defs>
<sodipodi:namedview id="base" pagecolor="#ffffff" bordercolor="#666666" borderopacity="1.0" inkscape:pageopacity="0.0" inkscape:pageshadow="2" inkscape:zoom="5.6" inkscape:cx="583.1007" inkscape:cy="273.63795" inkscape:document-units="px" inkscape:current-layer="svg2" showgrid="false" inkscape:window-width="1280" inkscape:window-height="740" inkscape:window-x="-4" inkscape:window-y="-4" inkscape:window-maximized="1" />
<metadata id="metadata7">
<rdf:RDF>
<cc:Work>
<dc:format>
				image/svg+xml</dc:format>
<dc:type rdf:resource="http://purl.org/dc/dcmitype/StillImage" />
<dc:title>
</dc:title>
</cc:Work>
</rdf:RDF>
</metadata>
<image xlink:href="qdchengyang_mall_1f_a.png" width="770" height="800" id="image2834" x="-485" y="255.93361" transform="translate(485,-255.9336)" inkscape:label="Layer 1" inkscape:groupmode="layer" style="display:inline" />
<polygon id="1001" points="705.25 73.75,733.25 72.75,732.75 93,706 94.5" fill="#000000" stroke="none" stroke-opacity="0" />
<polygon id="1002" points="680 75,680 95.75,706.75 95.75,706.75 73.25" fill="#000000" stroke="none" stroke-opacity="0" />
<polygon id="1003" points="577.5 85.25,579.75 105.75,604 102.75,602.25 83.75" fill="#000000" stroke="none" stroke-opacity="0" />
<polygon id="1004" points="560.5 86.75,563.75 107.5,580.25 106,577.25 84.75" fill="#000000" stroke="none" stroke-opacity="0" />
<polygon id="1005" points="544.75 89.75,548.5 111,564.25 107.75,560.25 87.75" fill="#000000" stroke="none" stroke-opacity="0" />
<polygon id="1006" points="497.75 98,502 118.5,518 115.5,514.25 94.75" fill="#000000" stroke="none" stroke-opacity="0" />
<polygon id="1007" points="481.5 101.75,485.75 122,502 118.75,498 97.75" fill="#000000" stroke="none" stroke-opacity="0" />
<polygon id="1008" points="450.5 107.5,455.25 127.5,486 121.25,482.25 100.75" fill="#000000" stroke="none" stroke-opacity="0" />
<polygon id="1009" points="418.75 115.5,423.5 135.25,439.75 131.75,435 111.5" fill="#000000" stroke="none" stroke-opacity="0" />
<polygon id="1010" points="372.25 127.75,378.75 147.25,393.5 143,388.5 123" fill="#000000" stroke="none" stroke-opacity="0" />
<polygon id="1011" points="356.75 131.5,362.5 151.75,379 146.75,372.75 127.5" fill="#000000" stroke="none" stroke-opacity="0" />
<polygon id="1012" points="341 136.5,347.75 157.25,363 151.75,357.75 131.5" fill="#000000" stroke="none" stroke-opacity="0" />
<polygon id="1013" points="326.25 141.5,331.75 161.75,347.75 156.25,342 136.75" fill="#000000" stroke="none" stroke-opacity="0" />
<polygon id="1014" points="274 159.75,281.5 178.5,303.25 171,296.25 151.5" fill="#000000" stroke="none" stroke-opacity="0" />
<polygon id="1015" points="249 167.75,257 188,281.25 178.75,274 159.5" fill="#000000" stroke="none" stroke-opacity="0" />
<polygon id="1016" points="234.75 173.5,242.75 193.5,257.5 187.75,249.5 167.75" fill="#000000" stroke="none" stroke-opacity="0" />
<polygon id="1017" points="204.75 185.5,214 205.5,243.5 193,235.25 173.25" fill="#000000" stroke="none" stroke-opacity="0" />
<polygon id="1018" points="117.25 225.75,126.75 245.25,156.25 230.75,147 210.75" fill="#000000" stroke="none" stroke-opacity="0" />
<polygon id="1019" points="103.75 232.5,114 251.75,127 244.25,118 225.25" fill="#000000" stroke="none" stroke-opacity="0" />
<polygon id="1020" points="53 255,52.75 266.25,86.5 266.5,99 258.75,89.5 239.5,60.5 256" fill="#000000" stroke="none" stroke-opacity="0" />
<polygon id="1021" points="53.25 285,53.25 301,85.25 301,84.75 284.75" fill="#000000" stroke="none" stroke-opacity="0" />
<polygon id="1022" points="53 300.5,53 314.5,85 313.75,85.5 300.25" fill="#000000" stroke="none" stroke-opacity="0" />
<polygon id="1023" points="52.5 345,52.5 376.5,73 375.75,72.25 344.25" fill="#000000" stroke="none" stroke-opacity="0" />
<polygon id="1024" points="53.5 374.75,53.5 390.25,73 390.25,73 375.5" fill="#000000" stroke="none" stroke-opacity="0" />
<polygon id="1025" points="53 389.5,53 405.75,71.75 405.75,71.75 388.75" fill="#000000" stroke="none" stroke-opacity="0" />
<polygon id="1026" points="53 405.5,53 420.25,72.5 420.75,71.75 405.25" fill="#000000" stroke="none" stroke-opacity="0" />
<polygon id="1027" points="53 419.75,53 436.5,72.25 436.5,72.25 419.5" fill="#000000" stroke="#000000" />
<polygon id="1028" points="53 463.75,53 480.25,85.5 480.25,85.5 463.25" fill="#000000" stroke="#000000" />
<polygon id="1029" points="53 479.5,53 495.25,85.5 495.25,85.5 479.75" fill="#000000" stroke="#000000" />
<polygon id="1030" points="53 493.75,53 510,85.25 510,85.25 494.75" fill="#000000" stroke="#000000" />
<polygon id="1031" points="53.25 509.75,53.25 525,85.25 525,85.25 509.5" fill="#000000" stroke="#000000" />
<polygon id="1032" points="52.75 524.25,52.75 540.25,85.25 540.25,85.25 524.25" fill="#000000" stroke="#000000" />
<polygon id="1033" points="52.75 539.75,52.75 555.25,85.5 555.25,85.5 539.25" fill="#000000" stroke="#000000" />
<polygon id="1034" points="53 583.5,53 599.75,84.75 599.75,84.75 582.75" fill="#000000" stroke="#000000" />
<polygon id="1035" points="52.75 599,52.75 614.25,85.5 614.25,85.5 598.5" fill="#000000" stroke="#000000" />
<polygon id="1036" points="53 614,53 629,85.5 629,85.5 614" fill="#000000" stroke="#000000" />
<polygon id="1037" points="53 628.5,53 645.25,85.5 645.25,85.5 628.75" fill="#000000" stroke="#000000" />
<polygon id="1038" points="53 658.5,53 674.5,83 674.5,83 658.75" fill="#000000" stroke="#000000" />
<polygon id="1039" points="83 672.5,83 704.25,98.5 704.25,98.5 672.75" fill="#000000" stroke="#000000" />
<polygon id="1040" points="99 672.5,113.25 672.5,113.25 704.25,99 704.25" fill="#000000" stroke="#000000" />
<polygon id="1041" points="131.75 684.5,131.75 704.25,143.5 704.25,143.5 684.5" fill="#000000" stroke="#000000" />
<polygon id="1042" points="143.5 684.5,158 684.5,158 704,143 704" fill="#000000" stroke="#000000" />
<polygon id="1043" points="158 684.25,172.75 684.25,172.75 703.75,157.75 703.75" fill="#000000" stroke="#000000" />
<polygon id="1044" points="232 671.5,232 703.75,247.5 703.75,247.5 671.5" fill="#000000" stroke="#000000" />
<polygon id="1045" points="247.5 671.25,262.5 671.25,262.5 704,246.75 704" fill="#000000" stroke="#000000" />
<polygon id="1046" points="262.5 671,277.25 671,277.25 704.5,262.75 704.5" fill="#000000" stroke="#000000" />
<polygon id="1047" points="277.5 671,299.75 671,299.75 704.5,277.25 704.5" fill="#000000" stroke="#000000" />
<polygon id="1048" points="314.25 671.5,314.25 703.75,337.5 703.75,337.5 671.75" fill="#000000" stroke="#000000" />
<polygon id="1049" points="337.5 671.5,352 671.5,352 704.5,336.5 704.5" fill="#000000" stroke="#000000" />
<polygon id="1050" points="380.75 671.75,380.75 715.25,395.5 715.25,395.5 672" fill="#000000" stroke="#000000" />
<polygon id="1051" points="395.75 706.75,411.25 706.75,411.25 671.25,395.5 671.25" fill="#000000" stroke="#000000" />
<polygon id="1052" points="411.75 671.5,426 671.5,426 695.5,412.5 695.5" fill="#000000" stroke="#000000" />
<polygon id="1053" points="425.75 671.25,426 704.25,441.25 704,440.5 671.75" fill="#000000" stroke="#000000" />
<polygon id="1054" points="441 671.25,467.75 672.5,475.5 677.75,479.5 687.25,473.5 704.75,441.25 704.25" fill="#000000" stroke="#000000" />
<polygon id="1055" points="425.25 704.25,426 716.5,435 716,435.25 749.5,464.25 748.5,467 727.75,474 704.25" fill="#000000" stroke="#000000" />
<polygon id="1056" points="172 283.5,172.75 305.75,187.25 306.25,187 283.25" fill="#000000" stroke="#000000" />
<polygon id="1057" points="157 283.75,157 309.25,173.25 309,172.5 283.75" fill="#000000" stroke="#000000" />
<polygon id="1058" points="142.25 283.75,142.75 314,157.75 314.75,157.5 284.25" fill="#000000" stroke="#000000" />
<polygon id="1059" points="129.25 283.5,129.25 310.5,142.75 310.5,142.75 283" fill="#000000" stroke="#000000" />
<polygon id="1060" points="110.75 283.25,110.75 306,129.25 306,129.25 283.5" fill="#000000" stroke="#000000" />
<polygon id="1061" points="111 324.5,111 345.75,138 345.75,137.75 338.25,131.25 338,131.25 324.75" fill="#000000" stroke="#000000" />
<polygon id="1062" points="110.75 344.75,110.75 360,158.25 360,158.25 344.75" fill="#000000" stroke="#000000" />
<polygon id="1063" points="110.5 360,110.5 375.5,158 375.5,158 360.25" fill="#000000" stroke="#000000" />
<polygon id="1064" points="110.75 375.25,110.75 390.75,158.25 390.75,158.25 375.75" fill="#000000" stroke="#000000" />
<polygon id="1065" points="110.75 390.25,110.75 404.75,157.75 404.75,157.75 390" fill="#000000" stroke="#000000" />
<polygon id="1066" points="111 404.5,111 420,158.25 420,158.25 404" fill="#000000" stroke="#000000" />
<polygon id="1067" points="111.25 420,111.25 435.5,159 435.5,159 419.75" fill="#000000" stroke="#000000" />
<polygon id="1068" points="111 435,111 449.75,158.25 449.75,158.25 435.25" fill="#000000" stroke="#000000" />
<polygon id="1069" points="111 449.5,111 465,158.75 465,158.75 449.5" fill="#000000" stroke="#000000" />
<polygon id="1070" points="110.75 464.25,110.75 480.25,158.75 480.25,158.75 464.5" fill="#000000" stroke="#000000" />
<polygon id="1071" points="110.5 480,110.5 495,158.75 495,158.75 479.75" fill="#000000" stroke="#000000" />
<polygon id="1072" points="124 499.25,124 521.5,143.25 521.5,143.25 499.75" fill="#000000" stroke="#000000" />
<polygon id="1073" points="124.25 535.75,124.25 553.75,157.5 553.75,157.5 535.25" fill="#000000" stroke="#000000" />
<polygon id="1074" points="111.25 553.25,111.25 569.25,143.75 569.25,143.75 553.5" fill="#000000" stroke="#000000" />
<polygon id="1075" points="111.25 569.25,145.25 570,146.75 584.5,110.5 585.5" fill="#000000" stroke="#000000" />
<polygon id="1076" points="110.5 584,110.75 600.25,146.25 599.25,146 584" fill="#000000" stroke="#000000" />
<polygon id="1077" points="171 598.75,171 646.5,187.5 646.5,187.5 598.25" fill="#000000" stroke="#000000" />
<polygon id="1078" points="187.5 598.5,202.5 598.5,202.5 646,188 646" fill="#000000" stroke="#000000" />
<polygon id="1079" points="203 598.5,217.25 598.5,217.25 646.25,202.25 646.25" fill="#000000" stroke="#000000" />
<polygon id="1080" points="217.75 598.25,217.75 647.25,232.5 647.25,232.5 599.5" fill="#000000" stroke="#000000" />
<polygon id="1081" points="232.75 614.5,247 614.5,247 646.25,233.25 646.25" fill="#000000" stroke="#000000" />
<polygon id="1082" points="247.375 614,262.375 614,262.375 646.25,247.75 646.25" fill="#000000" stroke="#000000" />
<polygon id="1083" points="269.875 598.75,269.875 646.25,292.875 646.25,292.875 598.5" fill="#000000" stroke="#000000" />
<polygon id="1084" points="321 614,321 644.25,337.375 644.25,337.375 613.25" fill="#000000" stroke="#000000" />
<polygon id="1085" points="336.375 613.625,351.875 613.625,351.875 644.875,336.625 644.875" fill="#000000" stroke="#000000" />
<polygon id="1086" points="351.75 613.875,366.5 613.875,366.5 643.875,352.25 643.875" fill="#000000" stroke="#000000" />
<polygon id="1087" points="367.125 613.5,382.625 613.5,382.625 644,366.75 644" fill="#000000" stroke="#000000" />
<polygon id="1088" points="409.875 603.75,409.875 633.375,426.125 633.375,426.125 603.625" fill="#000000" stroke="#000000" />
<polygon id="1089" points="426 603.625,441.375 603.625,441.375 633.25,426.25 633.25" fill="#000000" stroke="#000000" />
<polygon id="1090" points="440.875 599.125,440.875 633.125,456.375 633.125,456.375 598.5" fill="#000000" stroke="#000000" />
<polygon id="1091" points="456.375 598.75,473.125 598.75,481.25 604.625,476.25 613.875,476.25 632.75,456.625 633.125" fill="#000000" stroke="#000000" />
<polygon id="1092" points="481.75 604.5,500.875 618.125,494.875 628.5,487.5 633.25,476.625 633.125,476.625 614" fill="#000000" stroke="#000000" />
<polygon id="1093" points="486.5 607.375,496 594.125,509.75 604.875,501 618.125" fill="#000000" stroke="#000000" />
<polygon id="1094" points="488.625 589.25,510.375 604.875,531.25 578.375,512.125 561.375" fill="#000000" stroke="#000000" />
<polygon id="1095" points="529.75 532.5,541.875 533,541.75 540.625,554.75 555,544.25 564.25,537 572.5,511.75 549.75,521.625 539.75" fill="#000000" stroke="#000000" />
<polygon id="1096" points="541.875 525,542.125 540.75,555.5 555,564 546.875,563.75 525" fill="#000000" stroke="#000000" />
<polygon id="1097" points="545.375 498.125,545.25 524.75,564.25 524.75,564 497.75" fill="#000000" stroke="#000000" />
<polygon id="1098" points="530.25 464.75,531 487,564 486.75,563.75 464.875" fill="#000000" stroke="#000000" />
<polygon id="1099" points="535 449.875,535 464.375,564.125 464.875,564.125 449.5" fill="#000000" stroke="#000000" />
<polygon id="1100" points="535.125 434.875,534.75 449.25,564.25 449.25,563.875 435" fill="#000000" stroke="#000000" />
<polygon id="1101" points="530.75 389.75,531 405,565 405.5,564.75 389.75" fill="#000000" stroke="#000000" />
<polygon id="1102" points="530.25 374.25,531 389.75,565.75 389.5,565.25 375.5" fill="#000000" stroke="#000000" />
<polygon id="1103" points="530.75 360,530.75 375.25,565 375.25,565 360.25" fill="#000000" stroke="#000000" />
<polygon id="1104" points="530.75 344.75,530.75 361.25,565.5 361.25,565.5 345.25" fill="#000000" stroke="#000000" />
<polygon id="1105" points="530.25 330.5,530.25 346,565 346,565 329.75" fill="#000000" stroke="#000000" />
<polygon id="1106" points="530.25 313.75,530.25 330.75,564.5 330.75,564.5 313" fill="#000000" stroke="#000000" />
<polygon id="1107" points="530.25 298,530.25 313.5,565.25 313.5,565.25 296.75" fill="#000000" stroke="#000000" />
<polygon id="1108" points="530.75 283.75,530.75 298,565 298,565 282.75" fill="#000000" stroke="#000000" />
<polygon id="1109" points="501 283.5,501 298.25,531 298.25,531 283.75" fill="#000000" stroke="#000000" />
<polygon id="1110" points="419 283.5,419 309,442.5 309,442.5 283" fill="#000000" stroke="#000000" />
<polygon id="1111" points="380.5 283.25,380.5 299.25,404 299.25,404 283.5" fill="#000000" stroke="#000000" />
<polygon id="1112" points="365.75 283.25,365.75 311,381 311,381 283.75" fill="#000000" stroke="#000000" />
<polygon id="1113" points="351.5 284,351.5 314,366.5 314,366.5 284" fill="#000000" stroke="#000000" />
<polygon id="1114" points="336.5 284.25,336.5 314,351.25 314,351.25 284" fill="#000000" stroke="#000000" />
<polygon id="1115" points="322 283.75,322 314.25,336.75 314.25,336.75 283.75" fill="#000000" stroke="#000000" />
<polygon id="1116" points="306.75 283.75,306.75 314.25,322.25 314.25,322.25 284.25" fill="#000000" stroke="#000000" />
<polygon id="1117" points="292 283.25,292 314.25,306.5 314.25,306.5 284" fill="#000000" stroke="#000000" />
<polygon id="1118" points="262 283.25,262 298.5,292 298.5,292 284" fill="#000000" stroke="#000000" />
<polygon id="1119" points="246.5 283.25,247.25 306.5,253.75 306.5,253.5 283.5" fill="#000000" stroke="#000000" />
<polygon id="1120" points="279.25 230.75,279 250.75,288.25 261,318.5 261.75,303 221.5" fill="#000000" stroke="none" stroke-opacity="0" />
<polygon id="1121" points="303 221,314.25 252.25,329 247.25,317.75 216" fill="#000000" stroke="none" stroke-opacity="0" />
<polygon id="1122" points="318 216,333 211.5,341.25 238.25,327.75 243.5" fill="#000000" stroke="none" stroke-opacity="0" />
<polygon id="1123" points="332.75 211.25,342.25 242.5,357.5 237.5,346.75 206.75" fill="#000000" stroke="none" stroke-opacity="0" />
<polygon id="1124" points="346.5 206.75,364 262,388.5 261.25,395.75 259.25,376.25 196.75" fill="#000000" stroke="none" stroke-opacity="0" />
<polygon id="1125" points="376.5 197,391 193.25,400.25 224.25,385.75 228.75" fill="#000000" stroke="none" stroke-opacity="0" />
<polygon id="1126" points="391.25 193.25,405.75 189.5,414.25 220.25,400.25 224" fill="#000000" stroke="none" stroke-opacity="0" />
<polygon id="1127" points="405.5 189.5,421 185.75,429 216.5,414 220.75" fill="#000000" stroke="none" stroke-opacity="0" />
<polygon id="1128" points="420.5 185.5,425.5 202.5,448.75 196.25,443.75 179.25" fill="#000000" stroke="none" stroke-opacity="0" />
<polygon id="1129" points="456 176.5,463 209.25,488 202.5,480.5 172" fill="#000000" stroke="none" stroke-opacity="0" />
<polygon id="1130" points="480.25 171.5,487 200.25,502.75 197,495.5 168" fill="#000000" stroke="none" stroke-opacity="0" />
<polygon id="1131" points="495.75 168.25,509 232.25,538 226,525.75 162.75" fill="#000000" stroke="none" stroke-opacity="0" />
<polygon id="1132" points="525.25 162.75,547.25 159.25,552 191,531.5 195" fill="#000000" stroke="none" stroke-opacity="0" />
<polygon id="1133" points="556.5 157.5,557.25 175.75,589.5 171,587.5 153.5" fill="#000000" stroke="none" stroke-opacity="0" />
<polygon id="1134" points="587.25 153.25,590.5 186,607.75 198.25,620.5 181.25,619.25 170.75,612.75 161.75,600.75 154.25" fill="#000000" stroke="none" stroke-opacity="0" />
<polygon id="1135" points="575.25 186.75,578.75 219.5,592.75 217.75,608.25 198,589.75 184.25" fill="#000000" stroke="none" stroke-opacity="0" />
<polygon id="1136" points="560 189,565.5 221,579 219.5,575.5 186.75" fill="#000000" stroke="none" stroke-opacity="0" />
<polygon id="1137" points="545.5 191.25,551.5 223.5,566 220.5,560 189.5" fill="#000000" stroke="none" stroke-opacity="0" />
<polygon id="1138" points="532 194.25,537.75 225.5,552 223.25,546 191.75" fill="#000000" stroke="none" stroke-opacity="0" />
<polygon id="1139" points="466.5 222.5,471 239.75,509 230.75,505 214" fill="#000000" stroke="none" stroke-opacity="0" />
<polygon id="1140" points="432.75 231,436.75 248.25,460.5 241.75,455.25 224.25" fill="#000000" stroke="none" stroke-opacity="0" />
<polygon id="1141" points="429 215.75,436.75 247.5,422.75 252.25,413.75 219" fill="#000000" stroke="none" stroke-opacity="0" />
<polygon id="1142" points="414.75 219.5,423.5 252.25,410.25 255.5,399.25 224.5" fill="#000000" stroke="none" stroke-opacity="0" />
<polygon id="1143" points="395.5 259.5,410.5 255.5,399.25 223.25,385.75 229.25" fill="#000000" stroke="none" stroke-opacity="0" />
<polygon id="1144" points="314.75 251.5,318.25 262.75,364.25 262.25,356.25 237.75" fill="#000000" stroke="none" stroke-opacity="0" />
<polygon id="1393" points="677.75 166.25,687.75 181.5,700 174.5,715.25 168.5,709 151.5,692.25 158" fill="#000000" stroke="#000000" />
<polygon id="1394" points="677.25 165.5,694.75 194,683.75 200.5,665.25 175" fill="#000000" stroke="#000000" />
<polygon id="1395" points="653 183.75,674.25 208.75,684.25 201.25,664.75 174.5" fill="#000000" stroke="#000000" />
<polygon id="1396" points="652.5 184,641.5 194.75,663.75 217.75,673.5 208.5" fill="#000000" stroke="#000000" />
<polygon id="1397" points="641.5 194.5,626.75 211.25,652.5 232,663.75 217.25" fill="#000000" stroke="#000000" />
<polygon id="1398" points="613 231.25,641.25 248,634.25 260,605.25 246.25" fill="#000000" stroke="#000000" />
<polygon id="1399" points="604.75 245.75,599.25 260.25,629.25 272.25,634.75 260.75" fill="#000000" stroke="#000000" />
<polygon id="1400" points="629 271.75,625.25 284.5,595 275.75,600 260.25" fill="#000000" stroke="#000000" />
<polygon id="1401" points="625 284,623 297.5,591.25 292,593.5 275.75" fill="#000000" stroke="#000000" />
<polygon id="1402" points="591.25 291.75,588.5 309,589 323,666.5 324,667.75 310.5,669.75 296.75,625.75 284.25,622.25 298.25" fill="#000000" stroke="#000000" />
<polygon id="1403" points="589 322.75,587.75 340.5,592.75 355.25,623.25 349.25,620.25 334,620.75 323.25" fill="#000000" stroke="#000000" />
<polygon id="1404" points="591.5 354.5,592.25 364,595.5 370.5,626 362,622.25 348.75" fill="#000000" stroke="#000000" />
<polygon id="1405" points="595.5 370.25,598 384.25,603.25 393.25,633 381.5,628.75 370.25,625.5 361.75" fill="#000000" stroke="#000000" />
<polygon id="1406" points="640 397,647.25 409,621.25 427.25,611.5 412.25" fill="#000000" stroke="#000000" />
<polygon id="1407" points="621 427.5,631.75 439.25,655.5 419.25,647.25 408.5" fill="#000000" stroke="#000000" />
<polygon id="1408" points="636 445.25,645 454.75,653 462,663.75 449,655 440.25,649.25 434" fill="#000000" stroke="#000000" />
<polygon id="1409" points="652.75 462,665.5 470.75,684.5 445.5,673.5 436.75" fill="#000000" stroke="#000000" />
<polygon id="1410" points="684 445.75,695 452,679 479.75,665 471" fill="#000000" stroke="#000000" />
<polygon id="1411" points="694.75 451.75,708.5 459.5,692.5 487,680 480" fill="#000000" stroke="#000000" />
<polygon id="1412" points="692.25 487.25,703.75 491.25,712.75 491.75,721.75 485.5,727.75 472.5,728.75 466.25,709 458.75" fill="#000000" stroke="#000000" />
<polygon id="1433" points="687.75 181.25,695.75 194.5,720.25 182.25,715.75 167.5" fill="#000000" stroke="#000000" />
<polygon id="1434" points="695.25 194.25,705.75 213,727.75 203.75,721.5 181.75" fill="#000000" stroke="#000000" />
<polygon id="1435" points="705.5 212.75,718.25 234.5,736.75 226.25,728 202.75" fill="#000000" stroke="#000000" />
<polygon id="1436" points="688 216.75,702.25 206.75,718.25 234.5,707.25 242" fill="#000000" stroke="#000000" />
<polygon id="1437" points="674 227.75,696.25 250.75,707 242.5,687 216.25" fill="#000000" stroke="#000000" />
<polygon id="1438" points="670 223.25,696.25 251.5,688.5 260.75,658.5 237" fill="#000000" stroke="#000000" />
<polygon id="1439" points="642.25 247.75,681.25 271.25,674.5 284,631.5 265.75" fill="#000000" stroke="#000000" />
<polygon id="1440" points="632 265.75,674.5 284.5,670.25 297.25,626.5 283.75" fill="#000000" stroke="#000000" />
<polygon id="1441" points="635.75 330.75,639.75 358.25,671 350,667 330.75" fill="#000000" stroke="#000000" />
<polygon id="1442" points="647.25 356.25,652.75 372.75,675.25 363.5,671 350.25" fill="#000000" stroke="#000000" />
<polygon id="1443" points="625.75 361.25,646.75 355.75,652 373,633.5 382.5" fill="#000000" stroke="#000000" />
<polygon id="1444" points="640.25 396,645.75 406.5,651.75 414,688.25 386,680 373" fill="#000000" stroke="#000000" />
<polygon id="1445" points="652.25 414,663.75 428,697.25 395.75,688 385" fill="#000000" stroke="#000000" />
<polygon id="1446" points="664 428,679 441.5,706.5 403.75,697.75 396" fill="#000000" stroke="#000000" />
<polygon id="1447" points="679 441,686.75 446.5,695.5 451.25,718.75 411.75,706.5 402.5" fill="#000000" stroke="#000000" />
<polygon id="1448" points="706.25 433,719.25 439.25,734.75 443.75,729 466.5,709.5 460.5,696.25 452.25" fill="#000000" stroke="#000000" />
<polygon id="1449" points="707.5 433,719.25 439.75,734.25 444.5,741.25 421.25,718.5 412" fill="#000000" stroke="#000000" />
<polygon id="1467" points="699.5 534,707.25 563.5,720.75 559.75,714 530" fill="#000000" stroke="#000000" />
<polygon id="1468" points="686 538,695 567.75,706.75 564.25,699.5 534.5" fill="#000000" stroke="#000000" />
<polygon id="1469" points="685.25 538,711 610.25,695.25 616.5,682 622.25,661.75 581,672 575.25,660 548.5,672.25 542.75" fill="#000000" stroke="#000000" />
<polygon id="1470" points="647 554.25,661.25 580.5,671.5 576.25,660 548.25" fill="#000000" stroke="#000000" />
<polygon id="1471" points="634.5 561.25,647.5 581.75,658.25 575.75,647.25 554.25" fill="#000000" stroke="#000000" />
<polygon id="1472" points="611.25 595.25,627.5 583.25,642.25 574.25,634.5 561,618.5 571.75,600.75 583.75" fill="#000000" stroke="#000000" />
<polygon id="1473" points="591.75 594,610.75 616.25,601 624.75,580.5 604.5" fill="#000000" stroke="#000000" />
<polygon id="1474" points="580.5 603.5,571.25 614.75,592.5 634.25,601.75 625" fill="#000000" stroke="#000000" />
<polygon id="1475" points="570.5 615,592.5 633.25,584 643.25,562 625.5" fill="#000000" stroke="#000000" />
<polygon id="1476" points="561.5 625.75,554.5 637,576.75 653.5,583.75 643.5" fill="#000000" stroke="#000000" />
<polygon id="1477" points="553.5 636,545.5 648,569 663.75,576.75 654.25" fill="#000000" stroke="#000000" />
<polygon id="1478" points="544.75 648.25,538.75 660.75,562.75 674,569.25 663.75" fill="#000000" stroke="#000000" />
<polygon id="1479" points="538.5 660,525.75 684.75,551.75 695.75,562.5 674.5" fill="#000000" stroke="#000000" />
<polygon id="1480" points="525.25 684.25,519.75 698,546.75 707.75,552 696.75" fill="#000000" stroke="#000000" />
<polygon id="1481" points="519.75 697.25,514.5 712,543 719.75,545.75 708.25" fill="#000000" stroke="#000000" />
<polygon id="1482" points="515 711.75,512.75 724,539.5 732,543.75 719.5" fill="#000000" stroke="#000000" />
<polygon id="1483" points="512 724,509.5 738,536.25 743.75,539 732.25" fill="#000000" stroke="#000000" />
<polygon id="1484" points="509.25 737.25,506.25 754.5,534 757.5,536.5 743.5" fill="#000000" stroke="#000000" />
<polygon id="1537" points="696.25 567.5,703.5 589,725.75 580.75,721.75 560.25" fill="#000000" stroke="#000000" />
<polygon id="1538" points="719 582.75,724.5 606.75,741.75 602.5,737.75 579" fill="#000000" stroke="#000000" />
<polygon id="1539" points="703.75 588.75,711.5 610.25,724.5 607.25,718.25 583" fill="#000000" stroke="#000000" />
<polygon id="1540" points="644.75 590,661 580.25,681.5 623,668.75 629.75" fill="#000000" stroke="#000000" />
<polygon id="1541" points="630.75 599.25,646.75 620,639 626.5,652.5 641.25,668.5 629.75,643.75 589.5" fill="#000000" stroke="#000000" />
<polygon id="1542" points="595.75 629.5,612.75 645.5,625.5 631.75,610.5 614.5" fill="#000000" stroke="#000000" />
<polygon id="1543" points="612.75 645.75,630 661,641 650,625.5 631.75" fill="#000000" stroke="#000000" />
<polygon id="1544" points="601.75 645,625.5 666.75,614.25 680.75,587 662.25" fill="#000000" stroke="#000000" />
<polygon id="1545" points="576.75 653.5,613.75 681.25,602.25 697.5,562.75 674.75" fill="#000000" stroke="#000000" />
<polygon id="1546" points="562.75 674.5,602 697.5,594 715.25,551.75 696.75" fill="#000000" stroke="#000000" />
<polygon id="1547" points="551.5 696.5,594.25 715,586.5 733.25,543.25 720.25" fill="#000000" stroke="#000000" />
<polygon id="1548" points="543.25 719.75,564.25 726.25,558.5 743.75,556.25 761,533.75 757.5" fill="#000000" stroke="#000000" />
<polygon id="1549" points="564.75 727,586.5 733.5,581.5 750,579 764.5,556.75 761.25,558.5 742" fill="#000000" stroke="#000000" />
<polygon id="462-21" points="52.5 674.75,52.5 681.5,44 681.5,31 694,30.75 714.5,44 726.25,62.25 726.75,74.75 713,82.5 712.75,82.25 674.5" fill="#000000" stroke="#000000" />
<polygon id="462-1" points="22.5 285,23.25 301,53.5 301,53.5 284.75" fill="#000000" stroke="#000000" />
<polygon id="462-2" points="23 300.5,23 315,53.75 315,53.75 300.75" fill="#000000" stroke="#000000" />
<polygon id="462-3" points="22.5 314.75,22.5 345.5,85.25 345.5,85.25 313.5" fill="#000000" stroke="#000000" />
<polygon id="462-4" points="23 359.75,23 374.75,53.25 374.75,53.25 358.75" fill="#000000" stroke="#000000" />
<polygon id="462-5" points="15.5 374,15.5 390.25,53.5 390.25,53.5 374" fill="#000000" stroke="#000000" />
<polygon id="462-6" points="15.5 390,15.5 406.75,53.5 406.75,53.5 390.25" fill="#000000" stroke="#000000" />
<polygon id="462-7" points="33.75 406.25,34 420.25,53 420,53 407" fill="#000000" stroke="#000000" />
<polygon id="462-8" points="33.75 420,34.25 436.75,52.75 437,52 420" fill="#000000" stroke="#000000" />
<polygon id="462-9" points="34 463.75,33.75 480,53 480,52.75 463.5" fill="#000000" stroke="#000000" />
<polygon id="462-10" points="33.25 479.5,34.25 493.5,53 494.25,53 479.75" fill="#000000" stroke="#000000" />
<polygon id="462-11" points="15.75 493.5,15.75 510.75,52.25 510.75,52.25 493.75" fill="#000000" stroke="#000000" />
<polygon id="462-12" points="16 510.25,16 526,52.75 526,52.75 510.75" fill="#000000" stroke="#000000" />
<polygon id="462-13" points="22.75 525.5,22.75 540.25,53 540.25,53 525.25" fill="#000000" stroke="#000000" />
<polygon id="462-14" points="22.75 540.25,22.75 554.25,52.75 554.25,52.75 540.25" fill="#000000" stroke="#000000" />
<polygon id="462-15" points="22.75 553.5,22.75 585,85 585,85 553.75" fill="#000000" stroke="#000000" />
<polygon id="462-16" points="22.25 584.25,22.25 599.5,53 599.5,53 585" fill="#000000" stroke="#000000" />
<polygon id="462-17" points="22.75 599.75,22.75 614.5,52.5 614.5,52.5 599.5" fill="#000000" stroke="#000000" />
<polygon id="462-18" points="22.75 614.25,22.75 630,52.75 630,52.75 614.75" fill="#000000" stroke="#000000" />
<polygon id="462-19" points="22.75 629.5,22.75 645.5,52.5 645.5,52.5 629.75" fill="#000000" stroke="#000000" />
<polygon id="462-20" points="23 658.25,23 675.25,53 675.25,53 658" fill="#000000" stroke="#000000" />
<polygon id="464" points="22 241.5,22.75 266,53 266.25,53 241.5,46 227.75" fill="#000000" stroke="#000000" />
<polygon id="466" points="46.5 227.5,53.25 241.75,53.25 255.5,62.5 256,89.75 240.25,75.25 212.5" fill="#000000" stroke="#000000" />
<polygon id="468" points="69.75 203.75,90 239.75,147.5 211.25,129.5 172.75,105.75 165.5,76.75 178.25" fill="#000000" stroke="#000000" />
<polygon id="470" points="188 146.5,205 186.5,266.5 163.75,251.75 123.5,230 112.5,197.5 122.75" fill="#000000" stroke="#000000" />
<polygon id="472" points="268.75 129.25,277.5 151.5,294.75 146,286 121.25" fill="#000000" stroke="#000000" />
<polygon id="474" points="286.25 121.25,303.5 171.75,332.25 162.25,316.75 111" fill="#000000" stroke="#000000" />
<polygon id="476" points="317 110.75,327 142,342.5 137,332.75 107.5" fill="#000000" stroke="#000000" />
<polygon id="478" points="332.75 106.75,348.5 101.75,357.75 132,343 136.5" fill="#000000" stroke="#000000" />
<polygon id="480" points="349 101.5,364.25 98,373 127.75,357.5 132.5" fill="#000000" stroke="#000000" />
<polygon id="482" points="364.25 97.75,380.25 93.5,386.75 118,371 122" fill="#000000" stroke="#000000" />
<polygon id="484" points="380.25 93,412.25 85,423.5 135.5,393 143.25" fill="#000000" stroke="#000000" />
<polygon id="486" points="411.75 84.25,427.75 81.5,435.25 113,420 116" fill="#000000" stroke="#000000" />
<polygon id="488" points="443.5 78.5,450.25 108.5,467 104.75,461.5 73.75" fill="#000000" stroke="#000000" />
<polygon id="490" points="475.5 71.75,481.25 101.5,498 98.75,491.75 68" fill="#000000" stroke="#000000" />
<polygon id="492" points="492.25 67.5,499 98.75,514.25 96.25,508.75 64.25" fill="#000000" stroke="#000000" />
<polygon id="494" points="508.75 64.25,541.25 58.75,548.75 111,518 115.5" fill="#000000" stroke="#000000" />
<polygon id="496" points="541.5 58.75,557.25 57.25,560 82.25,545.5 84.5" fill="#000000" stroke="#000000" />
<polygon id="498" points="557.5 56.75,574 55.25,577.25 85.5,560.75 87.5" fill="#000000" stroke="#000000" />
<polygon id="500" points="574.25 54.75,592.25 53.5,594.75 84.5,578 85.75" fill="#000000" stroke="#000000" />
<polygon id="502" points="603.25 36.5,610.75 102.75,643.25 99.5,636.75 32.5" fill="#000000" stroke="#000000" />
<polygon id="504" points="636.75 32.25,671.75 30.5,673.75 96.75,644 100.25" fill="#000000" stroke="#000000" />
<polygon id="506" points="678.5 44.75,680.5 75.5,705 74,704.75 43.25" fill="#000000" stroke="#000000" />
<polygon id="508" points="704.75 43.25,733 42.75,733.25 74,705.5 74" fill="#000000" stroke="#000000" />
<polygon id="638-15" points="419.5 716.25,419.25 749,435 749.75,434.75 716" fill="#000000" stroke="#000000" />
<polygon id="638-16" points="380.75 732.75,411.5 733,412 749.25,381.5 749.5" fill="#000000" stroke="#000000" />
<polygon id="638-17" points="351.75 671,351.25 749.5,381.75 750.25,380 671.25" fill="#000000" stroke="#000000" />
<polygon id="638-18" points="335.75 704.25,335.75 749.5,351.75 750.25,350.75 704.5" fill="#000000" stroke="#000000" />
<polygon id="638-19" points="313.75 703.5,313.75 734.5,322.25 733.75,321.75 748.5,335.5 749.5,335.25 704.25" fill="#000000" stroke="#000000" />
<polygon id="638-20" points="277 704.25,276.5 750,292.25 750,292.25 732.75,301 733.25,301 703.75" fill="#000000" stroke="#000000" />
<polygon id="638-21" points="247 703.75,247 749.5,262.5 749.5,262.5 703.25" fill="#000000" stroke="#000000" />
<polygon id="638-22" points="232 703.25,232 749.5,246.5 749.5,246.5 704.5" fill="#000000" stroke="#000000" />
<polygon id="638-23" points="173.25 684,231.5 684,231.5 749.5,172 749.5" fill="#000000" stroke="#000000" />
<polygon id="638-24" points="157 703.5,157 736.75,172.5 736.75,172.5 704" fill="#000000" stroke="#000000" />
<polygon id="638-25" points="142 703.75,142 735.75,156.5 735.75,156.5 703.75" fill="#000000" stroke="#000000" />
<polygon id="638-26" points="131.5 704.25,131.5 735.5,141.5 735.5,141.5 704.5" fill="#000000" stroke="#000000" />
<polygon id="638-27" points="82.75 718.25,82.5 737,114 736.75,113.5 718" fill="#000000" stroke="#000000" />
<polygon id="1633" points="160 308,156 600,473 601,501 561,532 531,532 311" fill="#000000" stroke="#000000" />
</svg>
