<?xml version="1.0" encoding="UTF-8" standalone="no"?>
<!-- Created with Inkscape (http://www.inkscape.org/) -->

<svg xmlns:dc="http://purl.org/dc/elements/1.1/" xmlns:cc="http://creativecommons.org/ns#" xmlns:rdf="http://www.w3.org/1999/02/22-rdf-syntax-ns#" xmlns:svg="http://www.w3.org/2000/svg" xmlns="http://www.w3.org/2000/svg" xmlns:xlink="http://www.w3.org/1999/xlink" xmlns:sodipodi="http://sodipodi.sourceforge.net/DTD/sodipodi-0.dtd" xmlns:inkscape="http://www.inkscape.org/namespaces/inkscape" width="770" height="800" id="svg2" version="1.1" inkscape:version="0.47pre4 " sodipodi:docname="test.svg" style="display:inline" stroke="#000000">
<defs id="defs4">
<inkscape:perspective sodipodi:type="inkscape:persp3d" inkscape:vp_x="0 : 526.18109 : 1" inkscape:vp_y="0 : 1000 : 0" inkscape:vp_z="744.09448 : 526.18109 : 1" inkscape:persp3d-origin="372.04724 : 350.78739 : 1" id="perspective10" />
<inkscape:perspective id="perspective2832" inkscape:persp3d-origin="0.5 : 0.33333333 : 1" inkscape:vp_z="1 : 0.5 : 1" inkscape:vp_y="0 : 1000 : 0" inkscape:vp_x="0 : 0.5 : 1" sodipodi:type="inkscape:persp3d" />
<script type="text/ecmascript" id="script6">
		var fdat="",sdat="";
		function onAreaOver(evt){
			var ele=evt.target; 
			fdat=ele.getAttribute('fill'); 
			sdat=ele.getAttribute('stroke');
			ele.setAttribute('fill','#006fb6');//多边形填充颜色
			ele.setAttribute('stroke','#006fb6');//stroke 多边形 边框颜色
			
		}
		function onAreaOut(evt){
			var ele=evt.target; 
			ele.setAttribute('fill',fdat);
			ele.setAttribute('stroke',sdat);
		}
		</script>
<symbol overflow="visible" id="symbol" style="overflow:visible">
<path d="m 626,156 2,-2 2,-4 0,-3 -1,-3 -4,-3 -6,-3 -5,-2 -4,-2 -4,8 -6,14" id="path9" style="fill:#000000;stroke:none" />
</symbol>
</defs>
<sodipodi:namedview id="base" pagecolor="#ffffff" bordercolor="#666666" borderopacity="1.0" inkscape:pageopacity="0.0" inkscape:pageshadow="2" inkscape:zoom="5.6" inkscape:cx="583.1007" inkscape:cy="273.63795" inkscape:document-units="px" inkscape:current-layer="svg2" showgrid="false" inkscape:window-width="1280" inkscape:window-height="740" inkscape:window-x="-4" inkscape:window-y="-4" inkscape:window-maximized="1" />
<metadata id="metadata7">
<rdf:RDF>
<cc:Work>
<dc:format>
				image/svg+xml</dc:format>
<dc:type rdf:resource="http://purl.org/dc/dcmitype/StillImage" />
<dc:title>
</dc:title>
</cc:Work>
</rdf:RDF>
</metadata>
<image xlink:href="qdchengyang_mall_1f_b.png" width="770" height="800" id="image2834" x="-485" y="255.93361" transform="translate(485,-255.9336)" inkscape:label="Layer 1" inkscape:groupmode="layer" style="display:inline" />
<polygon id="1145" points="36 93,36 73,64 73.5,62.5 94" fill="#000000" stroke="none" />
<polygon id="1146" points="63.5 73.5,96.5 75,95 95.5,62.5 93.5" fill="#000000" stroke="none" stroke-opacity="0" />
<polygon id="1147" points="167 83,165.5 102.5,189 105,192 85" fill="#000000" stroke="none" stroke-opacity="0" />
<polygon id="1148" points="192 85,208 87.5,205 107.5,189.5 105.5" fill="#000000" stroke="none" stroke-opacity="0" />
<polygon id="1149" points="208 87.5,224 90,221 110,204.5 107" fill="#000000" stroke="none" stroke-opacity="0" />
<polygon id="1150" points="256 95,271.5 97.5,268 118,252.5 114.5" fill="#000000" stroke="none" stroke-opacity="0" />
<polygon id="1151" points="271.5 98,287 101,282.5 121,268 117.5" fill="#000000" stroke="none" stroke-opacity="0" />
<polygon id="1152" points="287 100.5,318.5 107.5,314 127.5,283.5 121.5" fill="#000000" stroke="none" stroke-opacity="0" />
<polygon id="1153" points="334.5 111.5,350 115,345 135,329.5 130.5" fill="#000000" stroke="none" stroke-opacity="0" />
<polygon id="1154" points="381 122.5,396.5 128,390.5 147.5,375.5 142.5" fill="#000000" stroke="none" stroke-opacity="0" />
<polygon id="1155" points="396.5 127.5,412 132,406 151.5,391 146.5" fill="#000000" stroke="none" stroke-opacity="0" />
<polygon id="1156" points="412 132,427.5 136,421.5 156,406.5 152" fill="#000000" stroke="none" stroke-opacity="0" />
<polygon id="1157" points="427.5 137,443 141.5,437 161,421.5 157" fill="#000000" stroke="none" stroke-opacity="0" />
<polygon id="1158" points="473.5 151,487 155.5,478.5 175.5,467 170.5" fill="#000000" stroke="none" stroke-opacity="0" />
<polygon id="1159" points="495.5 160.5,519.5 168,512 188,489 178" fill="#000000" stroke="none" stroke-opacity="0" />
<polygon id="1160" points="519.5 168,534 173.5,526.5 193,512.5 188" fill="#000000" stroke="none" stroke-opacity="0" />
<polygon id="1161" points="534 173.5,564 185.5,555 205,526.5 193" fill="#000000" stroke="none" stroke-opacity="0" />
<polygon id="1162" points="622 211.5,613 230,642 245,651.5 225.5" fill="#000000" stroke="none" stroke-opacity="0" />
<polygon id="1163" points="651.5 226.5,643 245,656.5 252,665.5 232.5" fill="#000000" stroke="none" stroke-opacity="0" />
<polygon id="1164" points="680.5 241,671 258.5,684.5 265.5,717 266,716.5 256.5,707 255.5" fill="#000000" stroke="none" stroke-opacity="0" />
<polygon id="1165" points="684.5 285.5,716 285,716 300.5,684 300.5" fill="#000000" stroke="none" stroke-opacity="0" />
<polygon id="1166" points="684.5 300.5,684.5 314,716.5 314,716 300.5" fill="#000000" stroke="none" stroke-opacity="0" />
<polygon id="1167" points="697 345,716 345,716 360,697 360" fill="#000000" stroke="none" stroke-opacity="0" />
<polygon id="1168" points="697.5 360,716.5 360,716.5 375,697.5 375" fill="#000000" stroke="none" stroke-opacity="0" />
<polygon id="1169" points="697.5 375,697.5 389.5,716 389.5,716 374.5" fill="#000000" stroke="none" stroke-opacity="0" />
<polygon id="1170" points="697.5 388.5,697 404.5,716 405.5,716.5 388.5" fill="#000000" stroke="none" stroke-opacity="0" />
<polygon id="1171" points="697 404.5,716.5 404.5,716.5 420.5,697.5 420.5" fill="#000000" stroke="none" stroke-opacity="0" />
<polygon id="1172" points="697.5 420.5,716.5 420.5,716.5 436.5,696.5 436.5" fill="#000000" stroke="none" stroke-opacity="0" />
<polygon id="1173" points="684 480,716 480,716 495,684.5 495" fill="#000000" stroke="none" stroke-opacity="0" />
<polygon id="1174" points="684.5 495,715.5 495,715.5 509.5,684.5 509.5" fill="#000000" stroke="none" stroke-opacity="0" />
<polygon id="1175" points="684.5 509.5,684.5 524.5,716.5 524.5,716.5 509.5" fill="#000000" stroke="none" stroke-opacity="0" />
<polygon id="1176" points="684 554,716.5 554,716.5 569.5,684.5 569.5" fill="#000000" stroke="none" stroke-opacity="0" />
<polygon id="1177" points="684.5 569,684.5 584,715.5 584,715.5 569" fill="#000000" stroke="none" stroke-opacity="0" />
<polygon id="1178" points="684 584,684 599,716 599,716 583" fill="#000000" stroke="none" stroke-opacity="0" />
<polygon id="1179" points="684 599,684 614.5,716 614.5,716 598.5" fill="#000000" stroke="none" stroke-opacity="0" />
<polygon id="1180" points="684.5 614.5,684.5 628.5,716 628.5,716 614" fill="#000000" stroke="none" stroke-opacity="0" />
<polygon id="1181" points="684 628.5,715.5 628.5,715.5 645,684.5 645" fill="#000000" stroke="none" stroke-opacity="0" />
<polygon id="1182" points="685.5 659,716 659,716 673.5,686 673.5" fill="#000000" stroke="none" stroke-opacity="0" />
<polygon id="1183" points="671 673,686 673,686 704,670.5 704" fill="#000000" stroke="none" stroke-opacity="0" />
<polygon id="1184" points="655.5 672.5,670.5 672.5,670.5 703,655.5 703" fill="#000000" stroke="none" stroke-opacity="0" />
<polygon id="1185" points="611.5 685.5,611.5 704,637.5 704,637.5 685.5" fill="#000000" stroke="none" stroke-opacity="0" />
<polygon id="1186" points="596.5 685.5,610.5 685.5,610.5 704,596.5 704" fill="#000000" stroke="none" stroke-opacity="0" />
<polygon id="1187" points="522 673,522 704,538 704,538 673" fill="#000000" stroke="none" stroke-opacity="0" />
<polygon id="1188" points="507 674,522 674,522 703.5,507 703.5" fill="#000000" stroke="none" stroke-opacity="0" />
<polygon id="1189" points="492.5 673.5,506.5 673.5,506.5 704,492 704" fill="#000000" stroke="none" stroke-opacity="0" />
<polygon id="1190" points="470 673,470 704,492.5 704,492.5 673.5" fill="#000000" stroke="none" stroke-opacity="0" />
<polygon id="1191" points="455 672,455 704,431.5 704,431.5 672" fill="#000000" stroke="none" stroke-opacity="0" />
<polygon id="1192" points="417 672,431.5 672,431.5 703.5,417 703.5" fill="#000000" stroke="none" stroke-opacity="0" />
<polygon id="1193" points="374 672,388.5 672,388.5 715,374 715" fill="#000000" stroke="none" stroke-opacity="0" />
<polygon id="1194" points="358 672,373 672,373 707,358 707" fill="#000000" stroke="none" stroke-opacity="0" />
<polygon id="1195" points="343.5 672,358.5 672,358.5 703,342.5 703" fill="#000000" stroke="none" stroke-opacity="0" />
<polygon id="1196" points="328.5 672,343.5 672,343.5 704,327 704" fill="#000000" stroke="none" stroke-opacity="0" />
<polygon id="1197" points="329 672.5,329 704,295 704,290 687,292 681.5,295.5 677,301 672.5" fill="#000000" stroke="none" stroke-opacity="0" />
<polygon id="1198" points="357.5 283.5,388 283.5,388 298,356.5 298" fill="#000000" stroke="none" stroke-opacity="0" />
<polygon id="1199" points="343.5 284,343.5 313.5,358.5 313.5,358.5 283.5" fill="#000000" stroke="none" stroke-opacity="0" />
<polygon id="1200" points="328 283.5,328 313.5,344 313.5,343.5 283.5" fill="#000000" stroke="none" stroke-opacity="0" />
<polygon id="1201" points="313.5 284,328 284,328 313.5,313 314.5" fill="#000000" stroke="none" stroke-opacity="0" />
<polygon id="1202" points="298 284,313 283.5,313 313.5,298 314" fill="#000000" stroke="none" stroke-opacity="0" />
<polygon id="1203" points="283 284,283 314,298.5 314,298 284" fill="#000000" stroke="none" stroke-opacity="0" />
<polygon id="1204" points="283 284,268 283.5,268.5 313.5,283.5 314" fill="#000000" stroke="none" stroke-opacity="0" />
<polygon id="1205" points="239 283.5,238.5 297.5,268 298.5,268 283.5" fill="#000000" stroke="none" stroke-opacity="0" />
<polygon id="1206" points="204 284,230.5 283.5,230 298,204.5 298" fill="#000000" stroke="none" stroke-opacity="0" />
<polygon id="1207" points="204.5 297.5,204 314,229 314,229.5 298" fill="#000000" stroke="none" stroke-opacity="0" />
<polygon id="1208" points="204.5 313,238.5 314,238 331,204.5 330.5" fill="#000000" stroke="none" stroke-opacity="0" />
<polygon id="1209" points="205 331,204 345.5,238.5 346,238 331.5" fill="#000000" stroke="none" stroke-opacity="0" />
<polygon id="1210" points="205 345.5,204.5 359.5,238.5 360,237.5 346.5" fill="#000000" stroke="none" stroke-opacity="0" />
<polygon id="1211" points="204 359,204 374.5,238 375,238 359.5" fill="#000000" stroke="none" stroke-opacity="0" />
<polygon id="1212" points="204.5 374.5,204 390,238.5 390.5,238.5 374.5" fill="#000000" stroke="none" stroke-opacity="0" />
<polygon id="1213" points="204.5 390,204 405.5,238.5 405.5,238 391" fill="#000000" stroke="none" stroke-opacity="0" />
<polygon id="1214" points="204 435,238.5 435,238.5 450,204 450" fill="#000000" stroke="none" stroke-opacity="0" />
<polygon id="1215" points="204.5 450.5,204.5 465,238.5 465,238.5 450" fill="#000000" stroke="none" stroke-opacity="0" />
<polygon id="1216" points="204 465,237.5 465,237.5 487,204 487" fill="#000000" stroke="none" stroke-opacity="0" />
<polygon id="1217" points="204.5 495,223.5 495,223.5 524.5,204 524.5" fill="#000000" stroke="none" stroke-opacity="0" />
<polygon id="1218" points="204.5 524,231 524,231 536,215 555,204 545" fill="#000000" stroke="none" stroke-opacity="0" />
<polygon id="1219" points="215 555,231.5 535.5,240 534,257 550,232.5 572.5" fill="#000000" stroke="none" stroke-opacity="0" />
<polygon id="1220" points="238 578.5,259 604,279.5 589.5,257 561.5" fill="#000000" stroke="none" stroke-opacity="0" />
<polygon id="1221" points="259.5 604,286 585,294 596.5,285 603,287.5 607.5,269 619" fill="#000000" stroke="none" stroke-opacity="0" />
<polygon id="1222" points="288 607.5,292.5 613.5,298.5 613.5,298.5 632.5,284 633.5,275.5 629.5,269 619" fill="#000000" stroke="none" stroke-opacity="0" />
<polygon id="1223" points="298 599,298 633,314 633,314 598.5" fill="#000000" stroke="#000000" />
<polygon id="1224" points="315 599.5,328 599.5,328 632.5,314 632.5" fill="#000000" stroke="#000000" />
<polygon id="1225" points="329 599.5,343 599.5,343 632.5,327.5 632.5" fill="#000000" stroke="#000000" />
<polygon id="1226" points="343.5 599,357.5 599,357.5 632,343.5 632" fill="#000000" stroke="#000000" />
<polygon id="1227" points="359 614,385.5 614,385.5 632,358 632" fill="#000000" stroke="#000000" />
<polygon id="1228" points="395.5 599,395.5 645.5,417.5 645.5,417.5 598.5" fill="#000000" stroke="#000000" />
<polygon id="1229" points="418 598.5,418 646,432 646,432 599" fill="#000000" stroke="#000000" />
<polygon id="1230" points="432.5 598.5,447 598.5,447 646,431.5 646" fill="#000000" stroke="#000000" />
<polygon id="1231" points="477.5 599,477 645,499 646,499 598.5" fill="#000000" stroke="#000000" />
<polygon id="1232" points="507.5 614.5,507 645.5,522 646,522 614" fill="#000000" stroke="#000000" />
<polygon id="1233" points="522.5 614.5,537 614.5,537 646,523 646" fill="#000000" stroke="#000000" />
<polygon id="1234" points="536.5 599,537.5 645.5,551.5 646.5,551.5 599.5" fill="#000000" stroke="#000000" />
<polygon id="1235" points="552 599,567.5 599,567 646,552 645.5" fill="#000000" stroke="#000000" />
<polygon id="1236" points="567.5 599,581.5 599.5,582 646,567.5 645.5" fill="#000000" stroke="#000000" />
<polygon id="1237" points="582 599,597 599,597.5 646.5,583 646" fill="#000000" stroke="#000000" />
<polygon id="1238" points="612 599,612 584,658 584,658.5 599.5" fill="#000000" stroke="#000000" />
<polygon id="1239" points="612.5 583,613 566,657.5 566,658 583.5" fill="#000000" stroke="#000000" />
<polygon id="1240" points="626.5 565.5,625.5 554,644.5 554.5,644.5 565.5" fill="#000000" stroke="#000000" />
<polygon id="1241" points="615.5 555,616 532,645 533,645 554" fill="#000000" stroke="#000000" />
<polygon id="1242" points="626.5 524.5,626.5 494,645.5 494,645.5 524.5" fill="#000000" stroke="#000000" />
<polygon id="1243" points="656.5 494.5,611.5 494.5,611.5 480,657 480" fill="#000000" stroke="#000000" />
<polygon id="1244" points="657 479.5,657 463.5,611.5 463.5,611.5 479" fill="#000000" stroke="#000000" />
<polygon id="1245" points="611.5 436,611.5 420,658 420,658 435.5" fill="#000000" stroke="#000000" />
<polygon id="1246" points="611 419.5,611 405,658 405,658 420" fill="#000000" stroke="#000000" />
<polygon id="1247" points="611 404,611 389,657.5 389,657.5 404.5" fill="#000000" stroke="#000000" />
<polygon id="1248" points="611 388.5,611 375,658 375,658 388.5" fill="#000000" stroke="#000000" />
<polygon id="1249" points="611 374.5,611 359.5,657.5 359.5,657.5 374.5" fill="#000000" stroke="#000000" />
<polygon id="1250" points="611 359,611 345,657.5 345,657.5 359.5" fill="#000000" stroke="#000000" />
<polygon id="1251" points="627 345,627 324.5,657.5 324.5,657.5 345" fill="#000000" stroke="#000000" />
<polygon id="1252" points="642 304,642 283.5,657.5 283.5,657.5 304" fill="#000000" stroke="#000000" />
<polygon id="1253" points="641.5 314,641.5 283,626 283,626 314" fill="#000000" stroke="#000000" />
<polygon id="1254" points="611 284,611 314,626 314,626 283.5" fill="#000000" stroke="none" />
<polygon id="1255" points="596 284,610.5 284,610.5 313.5,596 313.5" fill="#000000" stroke="none" stroke-opacity="0" />
<polygon id="1256" points="581.5 284,596.5 284,596.5 314,581 314" fill="#000000" stroke="none" stroke-opacity="0" />
<polygon id="1257" points="465.5 222.5,489 231.5,489 249,486.5 255,480.5 260,451 260.5" fill="#000000" stroke="none" stroke-opacity="0" />
<polygon id="1258" points="451.5 217,441 246,454 252,465.5 222" fill="#000000" stroke="none" stroke-opacity="0" />
<polygon id="1259" points="436.5 212.5,451 217.5,441 246.5,426.5 241.5" fill="#000000" stroke="none" stroke-opacity="0" />
<polygon id="1260" points="422.5 207,412 237,426 242,436.5 212.5" fill="#000000" stroke="none" stroke-opacity="0" />
<polygon id="1261" points="392 199,374.5 258.5,380.5 260.5,404.5 260.5,422 207" fill="#000000" stroke="none" stroke-opacity="0" />
<polygon id="1262" points="378 194.5,369 224,383 228.5,392.5 198.5" fill="#000000" stroke="none" stroke-opacity="0" />
<polygon id="1263" points="363.5 190,354.5 220,369 224.5,378.5 194" fill="#000000" stroke="none" stroke-opacity="0" />
<polygon id="1264" points="348.5 186,340.5 216.5,355 220.5,364 190.5" fill="#000000" stroke="none" stroke-opacity="0" />
<polygon id="1265" points="325 180.5,320.5 196.5,344 202.5,348.5 186" fill="#000000" stroke="none" stroke-opacity="0" />
<polygon id="1266" points="289 172,281.5 203,305.5 208.5,312 177" fill="#000000" stroke="none" stroke-opacity="0" />
<polygon id="1267" points="272.5 169.5,266.5 199.5,281.5 202.5,289 172" fill="#000000" stroke="none" stroke-opacity="0" />
<polygon id="1268" points="243.5 163.5,232.5 225,260 230,272.5 169.5" fill="#000000" stroke="none" stroke-opacity="0" />
<polygon id="1269" points="221.5 160.5,216.5 189.5,238 194.5,244.5 164" fill="#000000" stroke="none" stroke-opacity="0" />
<polygon id="1270" points="182.5 154,180 170,211.5 174.5,213.5 158" fill="#000000" stroke="none" stroke-opacity="0" />
<polygon id="1271" points="183 154,178.5 185,162 197.5,147 180,152 169,160 160,171.5 154" fill="#000000" stroke="none" stroke-opacity="0" />
<polygon id="1272" points="179 185,193 188,188.5 218.5,177 217.5,162 198" fill="#000000" stroke="none" stroke-opacity="0" />
<polygon id="1273" points="193 188,189 217,203.5 220,209 190" fill="#000000" stroke="none" stroke-opacity="0" />
<polygon id="1274" points="208.5 189,203 220,218 223.5,223.5 191" fill="#000000" stroke="none" stroke-opacity="0" />
<polygon id="1275" points="224 192,218 223,232.5 225.5,237.5 195" fill="#000000" stroke="none" stroke-opacity="0" />
<polygon id="1276" points="263.5 214.5,260 229.5,298 239,302 222" fill="#000000" stroke="none" stroke-opacity="0" />
<polygon id="1277" points="315 225,308.5 241.5,332.5 248,336.5 232" fill="#000000" stroke="none" stroke-opacity="0" />
<polygon id="1278" points="340 216,331.5 247,347 252,355 220.5" fill="#000000" stroke="none" stroke-opacity="0" />
<polygon id="1279" points="355 220,347.5 251,360.5 255,369.5 224.5" fill="#000000" stroke="none" stroke-opacity="0" />
<polygon id="1280" points="370 225,361 255.5,374 260.5,383 229" fill="#000000" stroke="none" stroke-opacity="0" />
<polygon id="1281" points="414 237,404.5 260,451 260.5,454 252" fill="#000000" stroke="none" stroke-opacity="0" />
<polygon id="1413" points="41 466,61 458.5,76.5 487,65 492,56 491,47.5 485.5,43.5 477.5" fill="#000000" stroke="none" stroke-opacity="0" />
<polygon id="1414" points="61 459,73.5 452,89.5 479,76 486.5" fill="#000000" stroke="none" stroke-opacity="0" />
<polygon id="1415" points="73.5 452.5,85 444.5,102.5 471,90.5 479" fill="#000000" stroke="none" stroke-opacity="0" />
<polygon id="1416" points="85.5 445,96.5 437,115.5 460.5,102.5 470.5" fill="#000000" stroke="none" stroke-opacity="0" />
<polygon id="1417" points="105.5 448,120 435.5,132.5 445,116 460" fill="#000000" stroke="none" stroke-opacity="0" />
<polygon id="1418" points="114 418.5,122.5 408.5,147 426.5,138.5 438.5" fill="#000000" stroke="none" stroke-opacity="0" />
<polygon id="1419" points="122.5 408.5,129 396.5,156.5 413,147.5 426.5" fill="#000000" stroke="none" stroke-opacity="0" />
<polygon id="1420" points="137 381,143.5 361,174.5 370,166 393.5" fill="#000000" stroke="none" stroke-opacity="0" />
<polygon id="1421" points="144.5 361.5,146.5 348.5,178 354.5,174 370" fill="#000000" stroke="none" stroke-opacity="0" />
<polygon id="1422" points="146 348.5,149.5 323,180.5 323,177.5 354.5" fill="#000000" stroke="none" stroke-opacity="0" />
<polygon id="1423" points="146.5 297,143.5 284,175 276,177.5 291.5" fill="#000000" stroke="none" stroke-opacity="0" />
<polygon id="1424" points="143.5 284,140 272.5,169 261,174.5 276.5" fill="#000000" stroke="none" stroke-opacity="0" />
<polygon id="1425" points="141 272.5,135 260.5,163 246.5,168.5 261" fill="#000000" stroke="none" stroke-opacity="0" />
<polygon id="1426" points="135.5 260,128.5 247.5,155.5 231.5,162.5 246.5" fill="#000000" stroke="none" stroke-opacity="0" />
<polygon id="1427" points="116.5 230.5,105.5 217,127.5 195.5,141.5 212" fill="#000000" stroke="none" stroke-opacity="0" />
<polygon id="1428" points="105.5 217,127.5 195.5,115.5 184.5,95.5 208" fill="#000000" stroke="none" stroke-opacity="0" />
<polygon id="1429" points="95.5 208.5,115.5 185.5,104 174.5,86 200" fill="#000000" stroke="none" stroke-opacity="0" />
<polygon id="1430" points="85.5 199.5,103.5 175,89.5 166.5,74 193.5" fill="#000000" stroke="none" stroke-opacity="0" />
<polygon id="1431" points="81 181,55 168.5,59.5 153,75 158.5,90 166" fill="#000000" stroke="none" stroke-opacity="0" />
<polygon id="1432" points="54 168,80.5 181,74 193.5,48.5 182" fill="#000000" stroke="none" stroke-opacity="0" />
<polygon id="1450" points="34.5 444.5,54.5 437.5,63.5 433,73.5 452,63 457.5,41 466.5" fill="#000000" stroke="none" stroke-opacity="0" />
<polygon id="1451" points="28 421.5,34.5 445,55 437,63.5 432.5,50.5 412" fill="#000000" stroke="none" stroke-opacity="0" />
<polygon id="1452" points="51 411.5,74 451.5,90.5 441,61.5 404" fill="#000000" stroke="none" stroke-opacity="0" />
<polygon id="1453" points="62 404,90 440.5,105 428.5,72.5 396" fill="#000000" stroke="none" stroke-opacity="0" />
<polygon id="1454" points="72 395.5,105 428,118 414,81 385.5" fill="#000000" stroke="none" stroke-opacity="0" />
<polygon id="1455" points="81 385,88.5 374,128.5 396.5,117.5 414" fill="#000000" stroke="none" stroke-opacity="0" />
<polygon id="1456" points="93.5 362.5,117 373.5,122.5 355.5,99 349.5" fill="#000000" stroke="none" stroke-opacity="0" />
<polygon id="1457" points="122.5 355.5,143.5 361,136.5 381.5,117.5 373.5" fill="#000000" stroke="none" stroke-opacity="0" />
<polygon id="1458" points="98.5 349.5,130 357.5,133.5 330.5,101.5 331" fill="#000000" stroke="none" stroke-opacity="0" />
<polygon id="1459" points="101.5 322.5,101 309,98.5 296,143.5 284,146 296.5,177.5 291,180 306,180 322.5" fill="#000000" stroke="none" stroke-opacity="0" />
<polygon id="1460" points="99.5 296,95 283.5,137.5 265,144 284" fill="#000000" stroke="none" stroke-opacity="0" />
<polygon id="1461" points="94 283.5,88.5 271,128.5 248,137 266" fill="#000000" stroke="none" stroke-opacity="0" />
<polygon id="1462" points="80.5 260,72 251,98.5 224.5,109 237" fill="#000000" stroke="none" stroke-opacity="0" />
<polygon id="1463" points="61 242,81 216,95 228,71.5 250.5" fill="#000000" stroke="none" stroke-opacity="0" />
<polygon id="1464" points="61.5 241.5,81 216.5,66 207,50.5 233.5" fill="#000000" stroke="none" stroke-opacity="0" />
<polygon id="1465" points="40.5 203,63 213,50.5 234,33 226" fill="#000000" stroke="none" stroke-opacity="0" />
<polygon id="1466" points="40.5 203.5,48 182.5,74 194,63 212.5" fill="#000000" stroke="none" stroke-opacity="0" />
<polygon id="1519" points="235 757,233 742.5,262 737,264.5 751.5" fill="#000000" stroke="none" stroke-opacity="0" />
<polygon id="1520" points="233 742.5,230 731,258 723.5,261.5 737" fill="#000000" stroke="none" stroke-opacity="0" />
<polygon id="1521" points="230 731,226.5 719.5,255 710.5,258 723.5" fill="#000000" stroke="none" stroke-opacity="0" />
<polygon id="1522" points="232 718,227.5 705.5,249.5 697,255 710.5" fill="#000000" stroke="none" stroke-opacity="0" />
<polygon id="1523" points="249.5 697.5,222 708,217.5 696,244 683.5" fill="#000000" stroke="none" stroke-opacity="0" />
<polygon id="1524" points="243.5 684,232 659,206.5 673.5,218 696.5" fill="#000000" stroke="none" stroke-opacity="0" />
<polygon id="1525" points="205.5 673,232 659.5,224.5 647.5,200 663" fill="#000000" stroke="none" stroke-opacity="0" />
<polygon id="1526" points="200 663,192 653,216 635,224.5 647.5" fill="#000000" stroke="none" stroke-opacity="0" />
<polygon id="1527" points="193 652.5,185.5 643,208 625,216.5 635.5" fill="#000000" stroke="none" stroke-opacity="0" />
<polygon id="1528" points="208 625.5,198.5 613.5,177.5 633,186 642.5" fill="#000000" stroke="none" stroke-opacity="0" />
<polygon id="1529" points="177 633,168.5 624,189 604,199 614.5" fill="#000000" stroke="none" stroke-opacity="0" />
<polygon id="1530" points="168.5 624,159.5 615.5,178.5 593.5,189.5 604.5" fill="#000000" stroke="none" stroke-opacity="0" />
<polygon id="1531" points="134 561,167.5 583.5,157.5 595,127 573" fill="#000000" stroke="none" stroke-opacity="0" />
<polygon id="1532" points="121.5 554.5,108 581,119.5 587,134.5 561" fill="#000000" stroke="none" stroke-opacity="0" />
<polygon id="1533" points="109 548,96 575,108.5 581,121.5 554.5" fill="#000000" stroke="none" stroke-opacity="0" />
<polygon id="1534" points="82.5 539.5,59.5 608,87.5 621.5,108 581,97 576,108.5 548.5" fill="#000000" stroke="none" stroke-opacity="0" />
<polygon id="1535" points="82 538.5,73.5 565.5,61 562.5,68 535" fill="#000000" stroke="none" stroke-opacity="0" />
<polygon id="1536" points="69.5 534,61 562.5,49 559.5,54.5 531" fill="#000000" stroke="none" stroke-opacity="0" />
<polygon id="1578" points="190 764,182.5 733.5,204.5 726,213.5 761" fill="#000000" stroke="none" stroke-opacity="0" />
<polygon id="1579" points="204.5 726,213.5 760,236 757,231 734,226.5 719" fill="#000000" stroke="none" stroke-opacity="0" />
<polygon id="1580" points="182.5 733.5,175.5 715.5,217.5 695.5,226 719.5" fill="#000000" stroke="none" stroke-opacity="0" />
<polygon id="1581" points="176.5 715,166.5 696.5,206.5 674.5,216.5 696" fill="#000000" stroke="none" stroke-opacity="0" />
<polygon id="1582" points="205.5 674,167 697,156 680.5,193 653" fill="#000000" stroke="none" stroke-opacity="0" />
<polygon id="1583" points="155.5 681,145 666.5,167.5 646,180.5 662.5" fill="#000000" stroke="none" stroke-opacity="0" />
<polygon id="1584" points="138.5 660,174 629.5,159.5 615,127.5 649.5" fill="#000000" stroke="none" stroke-opacity="0" />
<polygon id="1585" points="117 641,130 625.5,122.5 620.5,138.5 598.5,124 589.5,100 629.5" fill="#000000" stroke="none" stroke-opacity="0" />
<polygon id="1586" points="87.5 622,108 581,124 590,101 630.5" fill="#000000" stroke="none" stroke-opacity="0" />
<polygon id="1587" points="50 583,66 587.5,59 609.5,44.5 606" fill="#000000" stroke="none" stroke-opacity="0" />
<polygon id="1588" points="31.5 579.5,28 602.5,44.5 606.5,50.5 583.5" fill="#000000" stroke="none" stroke-opacity="0" />
<polygon id="1589" points="44.5 581.5,48.5 559,73.5 566,66.5 587" fill="#000000" stroke="none" stroke-opacity="0" />
<polygon id="512" points="36.5 43,36.5 73,64 73,64 43" fill="#000000" stroke="none" stroke-opacity="0" />
<polygon id="514" points="64.5 43,64 73,89 75,91 45" fill="#000000" stroke="none" stroke-opacity="0" />
<polygon id="516" points="99 31.5,94.5 95,126.5 98,132 33.5" fill="#000000" stroke="none" stroke-opacity="0" />
<polygon id="518" points="132 33.5,165 36.5,159.5 82,168 83,164.5 102,127.5 98.5" fill="#000000" stroke="none" stroke-opacity="0" />
<polygon id="520" points="178 53,175 83.5,192 86,196.5 55" fill="#000000" stroke="none" stroke-opacity="0" />
<polygon id="522" points="196.5 55,212 57.5,208.5 88,192.5 85" fill="#000000" stroke="none" stroke-opacity="0" />
<polygon id="524" points="212.5 57.5,208.5 87,224 89.5,228.5 59" fill="#000000" stroke="none" stroke-opacity="0" />
<polygon id="526" points="228.5 59.5,261 64.5,252.5 114.5,221 110" fill="#000000" stroke="none" stroke-opacity="0" />
<polygon id="528" points="261 64.5,255.5 95,272 98.5,277 68" fill="#000000" stroke="none" stroke-opacity="0" />
<polygon id="530" points="277 68,271.5 98,287 101.5,293.5 71" fill="#000000" stroke="none" stroke-opacity="0" />
<polygon id="532" points="307.5 75,301.5 104.5,318.5 108.5,325.5 78" fill="#000000" stroke="none" stroke-opacity="0" />
<polygon id="534" points="342 82.5,334.5 111,350 115.5,357.5 85.5" fill="#000000" stroke="none" stroke-opacity="0" />
<polygon id="536" points="357 85.5,389.5 93.5,375 142,345.5 135" fill="#000000" stroke="none" stroke-opacity="0" />
<polygon id="538" points="389 94,405.5 98.5,396.5 128,381.5 122.5" fill="#000000" stroke="none" stroke-opacity="0" />
<polygon id="540" points="405.5 99,420 103.5,412 131.5,397 127.5" fill="#000000" stroke="none" stroke-opacity="0" />
<polygon id="542" points="421.5 103,412.5 131.5,428 137,436.5 108" fill="#000000" stroke="none" stroke-opacity="0" />
<polygon id="544" points="437 108.5,452.5 112.5,443 142,428 137" fill="#000000" stroke="none" stroke-opacity="0" />
<polygon id="546" points="452.5 112.5,483.5 122,466 171,437.5 161" fill="#000000" stroke="none" stroke-opacity="0" />
<polygon id="548" points="484 123,474 151.5,488.5 156,500 130" fill="#000000" stroke="#000000" />
<polygon id="550" points="517 122.5,503.5 162,563.5 186,580.5 147.5,570 124.5,540.5 113.5" fill="#000000" stroke="#000000" />
<polygon id="552" points="663.5 166.5,691.5 180,701.5 203.5,694.5 214,678.5 206,665.5 232.5,622 211.5,639.5 173.5" fill="#000000" stroke="#000000" />
<polygon id="554" points="694 214,680 240,693.5 248.5,709 221.5" fill="#000000" stroke="#000000" />
<polygon id="556" points="709.5 221.5,723.5 228.5,716 241,716.5 256,707.5 255.5,694 248.5" fill="#000000" stroke="#000000" />
<polygon id="558" points="724.5 229.5,747.5 241.5,746.5 265.5,717.5 266,716.5 241.5" fill="#000000" stroke="#000000" />
<polygon id="598" points="716 285.5,746.5 284.5,746.5 300.5,716 301" fill="#000000" stroke="#000000" />
<polygon id="600" points="716.5 302,716.5 314,747 314,746.5 301" fill="#000000" stroke="#000000" />
<polygon id="602" points="685 314.5,685 345,747 345,747 314" fill="#000000" stroke="#000000" />
<polygon id="604" points="716.5 360,746 360,746 375,716 375" fill="#000000" stroke="none" />
<polygon id="606" points="716 375,753 375,753 390,716.5 390" fill="#000000" stroke="none" stroke-opacity="0" />
<polygon id="608" points="716.5 390.5,754 390.5,754 406.5,716.5 406.5" fill="#000000" stroke="none" stroke-opacity="0" />
<polygon id="610" points="717 406.5,735 406.5,735 420,716.5 420" fill="#000000" stroke="none" stroke-opacity="0" />
<polygon id="612" points="716.5 420.5,735 420.5,735 435,716 435" fill="#000000" stroke="none" stroke-opacity="0" />
<polygon id="614" points="684.5 464,684.5 480,735 480,735 463.5" fill="#000000" stroke="#000000" />
<polygon id="616" points="716.5 481,735 481,735 494.5,716.5 494.5" fill="#000000" stroke="#000000" />
<polygon id="618" points="716 495,753 495,753 509.5,715.5 509.5" fill="#000000" stroke="#000000" />
<polygon id="620" points="716.5 510.5,753.5 510.5,753.5 525,716.5 525" fill="#000000" stroke="#000000" />
<polygon id="622" points="685 525,684.5 554.5,746 554.5,746 525.5" fill="#000000" stroke="#000000" />
<polygon id="624" points="716.5 554.5,746.5 554,746.5 569.5,716 570" fill="#000000" stroke="#000000" />
<polygon id="626" points="716 570.5,746.5 569.5,746.5 584,716 584" fill="#000000" stroke="#000000" />
<polygon id="628" points="716.5 584.5,746.5 584,746.5 598.5,716.5 598.5" fill="#000000" stroke="#000000" />
<polygon id="630" points="716 599,747 599,747 615,716 615" fill="#000000" stroke="#000000" />
<polygon id="632" points="716.5 615.5,746.5 615.5,746.5 629,716 629" fill="#000000" stroke="none" />
<polygon id="634" points="716 629,743.5 629,744 637,746 637,746 644.5,715.5 644.5" fill="#000000" stroke="none" stroke-opacity="0" />
<polygon id="636" points="716 659,746.5 659,746.5 674,715.5 674" fill="#000000" stroke="none" stroke-opacity="0" xmlns="http://www.w3.org/2000/svg" />
<polygon id="638" points="686 673,716.5 673,716 681,724.5 681,738.5 694.5,738 712.5,725.5 726,707 726,694 713,686 713.5" fill="#000000" stroke="none" stroke-opacity="0" xmlns="http://www.w3.org/2000/svg" />
<polygon id="638-1" points="655.5 718.5,687 718.5,687 734,655.5 734" fill="#000000" stroke="none" stroke-opacity="0" xmlns="http://www.w3.org/2000/svg" />
<polygon id="638-2" points="626.5 704,637.5 704,637 735.5,627 735" fill="#000000" stroke="#000000" xmlns="http://www.w3.org/2000/svg" />
<polygon id="638-3" points="611.5 704,611.5 735.5,626.5 735.5,626.5 703.5" fill="#000000" stroke="#000000" xmlns="http://www.w3.org/2000/svg" />
<polygon id="638-4" points="596.5 704,610.5 704,610.5 736,595.5 736" fill="#000000" stroke="#000000" xmlns="http://www.w3.org/2000/svg" />
<polygon id="638-5" points="538 685,596 685,596 748.5,537 748.5" fill="#000000" stroke="#000000" xmlns="http://www.w3.org/2000/svg" />
<polygon id="638-6" points="522 703,537 703,537 749,521 749" fill="#000000" stroke="#000000" xmlns="http://www.w3.org/2000/svg" />
<polygon id="638-7" points="507 703,521.5 703,521.5 749.5,507 749.5" fill="#000000" stroke="#000000" xmlns="http://www.w3.org/2000/svg" />
<polygon id="638-8" points="469.5 704,492.5 704,492.5 749,477 749,477 734,469.5 734" fill="#000000" stroke="#000000" xmlns="http://www.w3.org/2000/svg" />
<polygon id="638-9" points="432.5 703.5,432.5 748.5,446.5 748.5,446.5 734,455.5 734,455.5 703.5" fill="#000000" stroke="#000000" xmlns="http://www.w3.org/2000/svg" />
<polygon id="638-10" points="417 703,432 703,432 748.5,417.5 748.5" fill="#000000" stroke="#000000" xmlns="http://www.w3.org/2000/svg" />
<polygon id="638-11" points="388.5 672,417 672,417 749,387 749" fill="#000000" stroke="#000000" xmlns="http://www.w3.org/2000/svg" />
<polygon id="638-12" points="358 733,387 733,387 749.5,357.5 749.5" fill="#000000" stroke="#000000" xmlns="http://www.w3.org/2000/svg" />
<polygon id="638-13" points="335 713,350 713,350 748.5,335 748.5" fill="#000000" stroke="#000000" xmlns="http://www.w3.org/2000/svg" />
<polygon id="638-14" points="295 704,327.5 704,327.5 713,334.5 713,334.5 749.5,305 748.5,301.5 728" fill="#000000" stroke="#000000" xmlns="http://www.w3.org/2000/svg" />
</svg>
