<?xml version="1.0" encoding="UTF-8" standalone="no"?>
<!-- Created with Inkscape (http://www.inkscape.org/) -->

<svg xmlns:dc="http://purl.org/dc/elements/1.1/" xmlns:cc="http://creativecommons.org/ns#" xmlns:rdf="http://www.w3.org/1999/02/22-rdf-syntax-ns#" xmlns:svg="http://www.w3.org/2000/svg" xmlns="http://www.w3.org/2000/svg" xmlns:xlink="http://www.w3.org/1999/xlink" xmlns:sodipodi="http://sodipodi.sourceforge.net/DTD/sodipodi-0.dtd" xmlns:inkscape="http://www.inkscape.org/namespaces/inkscape" width="770" height="800" id="svg2" version="1.1" inkscape:version="0.47pre4 " sodipodi:docname="test.svg" style="display:inline" stroke="#000000">
<defs id="defs4">
<inkscape:perspective sodipodi:type="inkscape:persp3d" inkscape:vp_x="0 : 526.18109 : 1" inkscape:vp_y="0 : 1000 : 0" inkscape:vp_z="744.09448 : 526.18109 : 1" inkscape:persp3d-origin="372.04724 : 350.78739 : 1" id="perspective10" />
<inkscape:perspective id="perspective2832" inkscape:persp3d-origin="0.5 : 0.33333333 : 1" inkscape:vp_z="1 : 0.5 : 1" inkscape:vp_y="0 : 1000 : 0" inkscape:vp_x="0 : 0.5 : 1" sodipodi:type="inkscape:persp3d" />
<script type="text/ecmascript" id="script6">
		var fdat="",sdat="";
		function onAreaOver(evt){
			var ele=evt.target; 
			fdat=ele.getAttribute('fill'); 
			sdat=ele.getAttribute('stroke');
			ele.setAttribute('fill','#006fb6');//多边形填充颜色
			ele.setAttribute('stroke','#006fb6');//stroke 多边形 边框颜色
			
		}
		function onAreaOut(evt){
			var ele=evt.target; 
			ele.setAttribute('fill',fdat);
			ele.setAttribute('stroke',sdat);
		}
		</script>
<symbol overflow="visible" id="symbol" style="overflow:visible">
<path d="m 626,156 2,-2 2,-4 0,-3 -1,-3 -4,-3 -6,-3 -5,-2 -4,-2 -4,8 -6,14" id="path9" style="fill:#000000;stroke:none" />
</symbol>
</defs>
<sodipodi:namedview id="base" pagecolor="#ffffff" bordercolor="#666666" borderopacity="1.0" inkscape:pageopacity="0.0" inkscape:pageshadow="2" inkscape:zoom="5.6" inkscape:cx="583.1007" inkscape:cy="273.63795" inkscape:document-units="px" inkscape:current-layer="svg2" showgrid="false" inkscape:window-width="1280" inkscape:window-height="740" inkscape:window-x="-4" inkscape:window-y="-4" inkscape:window-maximized="1" />
<metadata id="metadata7">
<rdf:RDF>
<cc:Work>
<dc:format>
				image/svg+xml</dc:format>
<dc:type rdf:resource="http://purl.org/dc/dcmitype/StillImage" />
<dc:title>
</dc:title>
</cc:Work>
</rdf:RDF>
</metadata>
<image xlink:href="qdchengyang_mall_b1.png" width="770" height="800" id="image2834" x="-485" y="255.93361" transform="translate(485,-255.9336)" inkscape:label="Layer 1" inkscape:groupmode="layer" style="display:inline" />
<polygon id="0001" points="372.75 101,396.25 101,396.25 127.75,372.75 128" fill="#000000" stroke="none" stroke-opacity="0" />
<polygon id="0002" points="344.75 118,372.75 117,373 128,345.25 129" fill="#000000" stroke="none" stroke-opacity="0" />
<polygon id="0003" points="313 95.75,331 94,332.25 119,336.25 119,337 129.75,331.75 130.25,316.25 131.25" fill="#000000" stroke="none" stroke-opacity="0" />
<polygon id="0004" points="295 98,313 96,315.75 131,295 133.25,293.75 122,297.75 121.5" fill="#000000" stroke="none" stroke-opacity="0" />
<polygon id="0005" points="288 106.75,290.25 133.5,281 134.5,278.25 108" fill="#000000" stroke="none" stroke-opacity="0" />
<polygon id="0006" points="278.5 108,281 134.25,272.5 135.25,269 109" fill="#000000" stroke="none" stroke-opacity="0" />
<polygon id="0007" points="269.25 109,273 135.75,264 137,260.5 110.5" fill="#000000" stroke="none" stroke-opacity="0" />
<polygon id="0008" points="260.5 110.5,264.25 136.75,255.75 138.25,251.5 111.75" fill="#000000" stroke="none" stroke-opacity="0" />
<polygon id="0009" points="251.75 111.75,255.75 138.5,247.25 139.75,242.75 113.5" fill="#000000" stroke="none" stroke-opacity="0" />
<polygon id="0010" points="243 113.75,247.25 140,238.75 141.5,234.5 115.25" fill="#000000" stroke="none" stroke-opacity="0" />
<polygon id="0011" points="234.75 115.25,239 141.5,228 144,225.5 135,229 133.75,226 117" fill="#000000" stroke="none" stroke-opacity="0" />
<polygon id="0012" points="217.25 118,222.75 145,214 146.75,207.75 120" fill="#000000" stroke="none" stroke-opacity="0" />
<polygon id="0013" points="208 120.25,214.5 146.5,205.75 148.75,199.25 122.5" fill="#000000" stroke="none" stroke-opacity="0" />
<polygon id="0014" points="199.5 122.5,206 148.25,197.25 150.5,190.75 124.75" fill="#000000" stroke="none" stroke-opacity="0" />
<polygon id="0015" points="190.75 124.75,181.75 127,188.5 153,197.75 150.25" fill="#000000" stroke="none" stroke-opacity="0" />
<polygon id="0016" points="182 127,173.25 128.75,180.25 155,188.75 152.25" fill="#000000" stroke="none" stroke-opacity="0" />
<polygon id="0017" points="173.5 129,180.5 155,172 157.5,164.5 131.5" fill="#000000" stroke="none" stroke-opacity="0" />
<polygon id="0018" points="164.5 131.75,172.25 157.75,163.75 160.25,156 134.25" fill="#000000" stroke="none" stroke-opacity="0" />
<polygon id="0019" points="156 133.75,164 159.75,155.5 162.25,147.5 136.5" fill="#000000" stroke="none" stroke-opacity="0" />
<polygon id="0020" points="147.75 136.5,156 162,147.5 165,139.25 139.25" fill="#000000" stroke="none" stroke-opacity="0" />
<polygon id="0021" points="139.25 139,147.5 165,139 167.5,130.75 141.75" fill="#000000" stroke="none" stroke-opacity="0" />
<polygon id="0022" points="131 142,139.25 167.75,130.75 170.25,122.25 144.75" fill="#000000" stroke="none" stroke-opacity="0" />
<polygon id="0023" points="112.75 148.25,122 144.5,130.75 170.5,123.75 173.25,120.75 165.5,118.75 166.75" fill="#000000" stroke="none" stroke-opacity="0" />
<polygon id="0024" points="102.75 169.5,111.25 166,115 176,106.5 179.5" fill="#000000" stroke="none" stroke-opacity="0" />
<polygon id="0025" points="113.5 232.25,125 232,125 239.25,113.25 239.25" fill="#000000" stroke="none" stroke-opacity="0" />
<polygon id="0026" points="125 232.25,125 248.25,133.75 248.25,133.75 232.5" fill="#000000" stroke="none" stroke-opacity="0" />
<polygon id="0027" points="133.5 232.25,133.5 248,142.75 248.25,142.5 232.25" fill="#000000" stroke="none" stroke-opacity="0" />
<polygon id="0028" points="142.75 232,142.75 248,150 248,150 232" fill="#000000" stroke="none" stroke-opacity="0" />
<polygon id="0029" points="150 232,150 248.25,158 248.5,157.75 232" fill="#000000" stroke="none" stroke-opacity="0" />
<polygon id="0030" points="157.75 232,157.75 248.25,166.25 248.25,166.25 232.25" fill="#000000" stroke="none" stroke-opacity="0" />
<polygon id="0031" points="166.25 232,166.25 248,174 248.25,174 232" fill="#000000" stroke="none" stroke-opacity="0" />
<polygon id="0032" points="173.75 232.25,189.75 232.25,189.75 240,174 240" fill="#000000" stroke="none" stroke-opacity="0" />
<polygon id="0033" points="198 232.25,207 232.25,207 248.75,194.75 248.75,194.75 245,197.75 245" fill="#000000" stroke="none" stroke-opacity="0" />
<polygon id="0034" points="222.25 231.75,222 248.75,230.75 248.75,230.75 231.5" fill="#000000" stroke="none" stroke-opacity="0" />
<polygon id="0035" points="230.75 231.75,239.25 231.75,239.25 249,230.5 249" fill="#000000" stroke="none" stroke-opacity="0" />
<polygon id="0036" points="239.25 232,255.25 232,255.25 239.75,239.25 239.75" fill="#000000" stroke="none" stroke-opacity="0" />
<polygon id="0037" points="259.25 232,259.25 248,272 248,272 231.75" fill="#000000" stroke="none" stroke-opacity="0" />
<polygon id="0038" points="271.75 232.25,271.75 248.25,280.5 248.25,280.5 232.25" fill="#000000" stroke="none" stroke-opacity="0" />
<polygon id="0039" points="280.5 232,280.5 248,289.25 248,289.25 232" fill="#000000" stroke="none" stroke-opacity="0" />
<polygon id="0040" points="180.75 218.75,188.75 212.5,195.5 191.25,193.5 189.5,175.5 210" fill="#000000" stroke="none" stroke-opacity="0" />
<polygon id="0041" points="195.75 190.25,188.5 212.5,192.5 216.75,200 211.75,203.25 193.75,199 188.5" fill="#000000" stroke="none" stroke-opacity="0" />
<polygon id="0042" points="203 194.75,206.25 191.5,209.5 195.75,211.5 209.5,203.25 217,199.75 211.75" fill="#000000" stroke="none" stroke-opacity="0" />
<polygon id="0043" points="217.75 199.75,219 208,227.75 206.5,226.25 197.75" fill="#000000" stroke="none" stroke-opacity="0" />
<polygon id="0044" points="226.25 197.75,232.5 196.25,233.75 201.75,227 203" fill="#000000" stroke="none" stroke-opacity="0" />
<polygon id="0045" points="241 194.5,232.5 196.25,233.5 201.5,241.75 200" fill="#000000" stroke="none" stroke-opacity="0" />
<polygon id="0046" points="241.5 199.25,239.75 186.25,255.25 183.5,260.75 187.75,261.75 195,258.25 200.25,249.75 202.5,245.5 199" fill="#000000" stroke="none" stroke-opacity="0" />
<polygon id="0047" points="229 175.75,231.25 188.25,219.25 191.25,215 186.5,214.75 181,218.5 177.25" fill="#000000" stroke="none" stroke-opacity="0" />
<polygon id="0048" points="229 175.75,231 188,239.5 186.5,237.5 174.25" fill="#000000" stroke="none" stroke-opacity="0" />
<polygon id="0049" points="237.5 174.25,248 172.25,255.75 177.75,255.5 184,239.75 186.5" fill="#000000" stroke="none" stroke-opacity="0" />
<polygon id="0050" points="271.75 180.75,287.75 178.5,290 194.75,273.5 197" fill="#000000" stroke="none" stroke-opacity="0" />
<polygon id="0051" points="287.5 178.5,303.5 176.75,313.75 186.5,309.5 191.25,290 194.5" fill="#000000" stroke="none" stroke-opacity="0" />
<polygon id="0052" points="285.5 162.5,288 178.5,303.75 177,303.5 170.25,298.25 170.75,297.25 165,291.25 162.5" fill="#000000" stroke="none" stroke-opacity="0" />
<polygon id="0053" points="273.75 164.25,285.75 162.75,287 170,274.25 171.5" fill="#000000" stroke="none" stroke-opacity="0" />
<polygon id="0054" points="303.5 170.5,303.75 175.75,313.75 186.5,327.5 174.5,321.25 168.5,316.5 173,311.25 167.75" fill="#000000" stroke="none" stroke-opacity="0" />
<polygon id="0055" points="325.25 176.5,335.25 189,320.5 204,314 199.5,315.25 197,309.25 191.25" fill="#000000" stroke="none" stroke-opacity="0" />
<polygon id="0056" points="330.5 199.75,325 205.75,329.25 210.25,338.25 210.25,350 200.75,350.25 194,348 190.5,332.75 202" fill="#000000" stroke="none" stroke-opacity="0" />
<polygon id="0057" points="325.75 176.75,335 189,344.25 183,339.5 174.5,327 174.75" fill="#000000" stroke="none" stroke-opacity="0" />
<polygon id="0058" points="339.25 174.75,344.25 182.75,356.75 176.75,361.5 172,351.5 161.25,346.75 166.75" fill="#000000" stroke="none" stroke-opacity="0" />
<polygon id="0059" points="355.75 199.5,353.25 204.5,357.25 213,365.75 213,371.5 205.5,367.25 197.25,360.25 196.5" fill="#000000" stroke="none" stroke-opacity="0" />
<polygon id="0060" points="403 196.75,398 205.25,401 210.75,405.5 213.25,411.25 212.5,416 205,413.25 198.5,407.5 195.5" fill="#000000" stroke="none" stroke-opacity="0" />
<polygon id="0061" points="412.25 176.5,425.25 182.75,433 169.25,421.75 164,419 161,414.75 161.5,413.5 165,415.25 167.5" fill="#000000" stroke="none" stroke-opacity="0" />
<polygon id="0062" points="421.25 190.5,436.25 201.75,438.25 200,444.25 206.5,435.75 214,430.25 207.5,424.25 206.75,418.5 199.5,418.5 194.25" fill="#000000" stroke="none" stroke-opacity="0" />
<polygon id="0063" points="442.5 196.25,453.5 184.25,460.75 193,456.5 197.5,456.5 202,448 204" fill="#000000" stroke="none" stroke-opacity="0" />
<polygon id="0064" points="442.5 196.75,453.5 184.5,445.75 177.25,435.25 189.75" fill="#000000" stroke="none" stroke-opacity="0" />
<polygon id="0065" points="445.75 169.25,445.75 177.25,453.5 184.75,461.75 176.75,456.75 168.75" fill="#000000" stroke="none" stroke-opacity="0" />
<polygon id="0066" points="461.25 177.25,453.75 185,461 193,471 183.75,472 177" fill="#000000" stroke="none" stroke-opacity="0" />
<polygon id="0067" points="462 177.25,471.75 177.5,472.5 166.75,468.25 161,459.25 163.5,456.75 169" fill="#000000" stroke="none" stroke-opacity="0" />
<polygon id="0068" points="483 170.25,482.25 178.75,493.25 179.5,492.5 184,497.25 184.75,499.25 171.25" fill="#000000" stroke="none" stroke-opacity="0" />
<polygon id="0069" points="483 170.5,483.75 162.25,495.5 163.25,495 171.25" fill="#000000" stroke="none" stroke-opacity="0" />
<polygon id="0070" points="482.5 178.75,481 186.75,492 189,493.25 179.25" fill="#000000" stroke="none" stroke-opacity="0" />
<polygon id="0071" points="500.25 168.25,511 170,508.75 182.25,498.5 180.25" fill="#000000" stroke="none" stroke-opacity="0" />
<polygon id="0072" points="511 170.25,522.5 171.75,520.25 184.5,508.75 182.25" fill="#000000" stroke="none" stroke-opacity="0" />
<polygon id="0073" points="522.5 172,533 174.5,530.75 187,520 184.5" fill="#000000" stroke="none" stroke-opacity="0" />
<polygon id="0074" points="533 174.75,542.75 176.25,541.25 188.75,531 187.25" fill="#000000" stroke="none" stroke-opacity="0" />
<polygon id="0075" points="544 172.25,541.25 188.75,551 190.5,554.25 179.25,549.25 172.75" fill="#000000" stroke="none" stroke-opacity="0" />
<polygon id="0076" points="566.25 179,578 183.5,574.75 190.5,564 186.25" fill="#000000" stroke="none" stroke-opacity="0" />
<polygon id="0077" points="530.75 195.25,542.25 197.25,541 205.5,529 203.5" fill="#000000" stroke="none" stroke-opacity="0" />
<polygon id="0078" points="516.75 187,515.75 193.25,528 195.75,528.75 189" fill="#000000" stroke="none" stroke-opacity="0" />
<polygon id="0079" points="496.75 198.5,509.25 200.25,508.25 207.5,496.25 205.5" fill="#000000" stroke="none" stroke-opacity="0" />
<polygon id="0080" points="481 196.25,493.75 197,492.5 204.75,481 203.75" fill="#000000" stroke="none" stroke-opacity="0" />
<polygon id="0081" points="469.75 199.25,472.5 205,479 202.25,476.25 196" fill="#000000" stroke="none" stroke-opacity="0" />
<polygon id="0082" points="593.5 202.25,609 207.5,613.25 191,609.75 188.5,607 186.25,602 184.75,599 190,600 195,596 194.25" fill="#000000" stroke="none" stroke-opacity="0" />
<polygon id="0083" points="613.25 191,608.75 206.75,624.5 212,630 196.75" fill="#000000" stroke="#000000" />
<polygon id="0084" points="630.5 196.75,625 212,632.5 214.5,638 199" fill="#000000" stroke="#000000" />
<polygon id="0085" points="594 202,624.25 212.75,621.75 219.25,613.25 216,612.25 220.25,594.25 214.5,595.75 211.25,591.5 209.5" fill="#000000" stroke="#000000" />
<polygon id="0086" points="660.75 232.75,660.5 248.75,651.75 248.75,651.75 232.5" fill="#000000" stroke="#000000" />
<polygon id="0087" points="651.25 232.25,651.25 249,644.5 249.25,644.5 232" fill="#000000" stroke="#000000" />
<polygon id="0088" points="636.25 232.5,636.25 248.75,644.75 249,644.75 232.75" fill="#000000" stroke="#000000" />
<polygon id="0089" points="635.75 232.25,635.75 248.75,627 248.75,627 232.25" fill="#000000" stroke="#000000" />
<polygon id="0090" points="626.5 232.25,626.5 249.5,620.25 249.5,620.25 231.75" fill="#000000" stroke="#000000" />
<polygon id="0091" points="619.75 232.25,619.75 249,611.25 249.5,611.25 232.5" fill="#000000" stroke="#000000" />
<polygon id="0092" points="611 232,599.5 232,599.5 248.75,610.75 248.75" fill="#000000" stroke="#000000" />
<polygon id="0093" points="579 232.25,579 240.25,595.75 240.25,595.75 231.75" fill="#000000" stroke="#000000" />
<polygon id="0094" points="571 232,571 248.5,579.5 248.5,579.5 232" fill="#000000" stroke="#000000" />
<polygon id="0095" points="563.25 232,563.25 248.25,570.75 248.25,571 232" fill="#000000" stroke="#000000" />
<polygon id="0096" points="538.5 232.25,538.5 248.5,547.5 248.5,547.5 232.5" fill="#000000" stroke="#000000" />
<polygon id="0097" points="538.25 232,538.25 248.75,529.5 248.75,529.5 231.75" fill="#000000" stroke="#000000" />
<polygon id="0098" points="514.25 232,514.25 239.75,529 239.75,529 231.5" fill="#000000" stroke="#000000" />
<polygon id="0099" points="510 232.5,510 249.25,498 249.25,498 232" fill="#000000" stroke="#000000" />
<polygon id="0100" points="497.75 232,497.75 249.25,488.75 249.25,488.75 232" fill="#000000" stroke="#000000" />
<polygon id="0101" points="488.25 231.75,488.25 249,479.5 249,479.5 231.75" fill="#000000" stroke="#000000" />
<polygon id="0102" points="659 165.75,654 176.25,662.75 180.5,667.75 169.5" fill="#000000" stroke="#000000" />
<polygon id="0103" points="648 144.5,638.25 170.25,647 173.75,657 147.75" fill="#000000" stroke="#000000" />
<polygon id="0104" points="647.5 144.5,638 170,629.5 167.5,638.75 141.75" fill="#000000" stroke="#000000" />
<polygon id="0105" points="638 141.75,629.75 139,621.25 164.75,629.75 167.75" fill="#000000" stroke="#000000" />
<polygon id="0106" points="621.75 136.25,613.5 162,621.5 164.75,629.5 138.75" fill="#000000" stroke="#000000" />
<polygon id="0107" points="621.5 136,613.25 162,606.25 160.25,613.75 133.75" fill="#000000" stroke="#000000" />
<polygon id="0108" points="613.5 134,605 131.25,597.25 157.25,606 160.5" fill="#000000" stroke="#000000" />
<polygon id="0109" points="604.5 131.25,597.5 157.75,588.75 155.5,596 128.75" fill="#000000" stroke="#000000" />
<polygon id="0110" points="595.75 128.75,588.5 155.25,580 153,587 126.5" fill="#000000" stroke="#000000" />
<polygon id="0111" points="579.25 124.5,572.5 150.75,579 152.75,586.25 126.5" fill="#000000" stroke="#000000" />
<polygon id="0112" points="578.75 124.5,572.25 151,563.75 149,570.25 122.5" fill="#000000" stroke="#000000" />
<polygon id="0113" points="570 122.25,563.25 149.25,556 147.25,562 120.5" fill="#000000" stroke="#000000" />
<polygon id="0114" points="561.75 120.25,552 118.25,546.75 145.25,555.5 147" fill="#000000" stroke="#000000" />
<polygon id="0115" points="544 116.75,535.5 115.25,530 142,541.75 144.5,543.25 135.75,540.75 135" fill="#000000" stroke="#000000" />
<polygon id="0116" points="535.25 115,529.75 142.25,521.25 140.75,526.5 113.5" fill="#000000" stroke="#000000" />
<polygon id="0117" points="526.25 113.25,520.75 140.5,513.25 139,518.25 111.75" fill="#000000" stroke="#000000" />
<polygon id="0118" points="517.75 111.5,509 110,504.75 137.25,513.25 139.25" fill="#000000" stroke="#000000" />
<polygon id="0119" points="508.75 110.5,500.25 108.75,495.75 136,504.75 137.25" fill="#000000" stroke="#000000" />
<polygon id="0120" points="500 108.75,491.5 108.25,488 135,496.5 136" fill="#000000" stroke="#000000" />
<polygon id="0121" points="491.5 108,482.25 106.75,478.5 134,488.25 135" fill="#000000" stroke="#000000" />
<polygon id="0122" points="474.75 98,471.75 124.5,474.75 124.75,474.5 133.5,453.5 131.5,456.75 96" fill="#000000" stroke="none" stroke-opacity="0" />
<polygon id="0123" points="438 94.5,437.25 119,432.75 118.75,432 129.75,453.5 131.5,456.75 96" fill="#000000" stroke="none" stroke-opacity="0" />
<polygon id="0124" points="420.25 101.5,418.75 128.75,428 129.75,430.25 102.25" fill="#000000" stroke="none" stroke-opacity="0" />
<polygon id="0125" points="420 101.5,418.5 129,396.25 127.75,396 101" fill="#000000" stroke="none" stroke-opacity="0" />
<polygon id="0126" points="311.75 257.75,328.75 257.25,330.75 267.75,313.5 272.25" fill="#000000" stroke="none" stroke-opacity="0" />
<polygon id="0127" points="306.5 274.5,330.5 267.5,333.25 274.5,310 284.75" fill="#000000" stroke="none" stroke-opacity="0" />
<polygon id="0128" points="310.25 284.75,332.5 274.75,337 281.25,314.75 294.25" fill="#000000" stroke="none" stroke-opacity="0" />
<polygon id="0129" points="315.25 294,336.75 281.5,341.75 288.5,322.5 305.25" fill="#000000" stroke="none" stroke-opacity="0" />
<polygon id="0130" points="345.5 292.5,336.25 302,350.25 313,357.5 301.75" fill="#000000" stroke="none" stroke-opacity="0" />
<polygon id="0131" points="357.75 302,350.25 312.75,358.5 317,367 320.25,370.25 306.75" fill="#000000" stroke="none" stroke-opacity="0" />
<polygon id="0132" points="350.5 313,344.25 323.25,353.25 328,363.75 332.25,366.75 320.25" fill="#000000" stroke="none" stroke-opacity="0" />
<polygon id="0133" points="344.25 323.25,338.75 333.25,360.5 343.5,363.75 332.25" fill="#000000" stroke="none" stroke-opacity="0" />
<polygon id="0134" points="406 331.5,415.5 328.25,422.75 345.25,409.5 342.5" fill="#000000" stroke="none" stroke-opacity="0" />
<polygon id="0135" points="406.25 331.5,403 319.25,412.25 316.5,419.5 312.75,425 323.75,417 328" fill="#000000" stroke="none" stroke-opacity="0" />
<polygon id="0136" points="403.25 319.75,399.5 307,412.5 301.5,419.5 313" fill="#000000" stroke="none" stroke-opacity="0" />
<polygon id="0137" points="412.75 301.25,424.25 292.5,433 302.25,427.25 307.25,419.25 312.75" fill="#000000" stroke="none" stroke-opacity="0" />
<polygon id="0138" points="427.75 288.25,446.5 305.25,454.5 294.75,433.5 281.25" fill="#000000" stroke="none" stroke-opacity="0" />
<polygon id="0139" points="433.5 281.5,436.75 274.5,459.25 284,454.5 294.75" fill="#000000" stroke="none" stroke-opacity="0" />
<polygon id="0140" points="436.75 274.5,459.25 284.25,462.75 274.25,438.75 267.75" fill="#000000" stroke="none" stroke-opacity="0" />
<polygon id="0141" points="439.25 268,440.5 257.5,457 257.5,455.5 272.5" fill="#000000" stroke="none" stroke-opacity="0" />
<polygon id="0142" points="334.75 354.25,337.25 362.25,347 359.5,357.75 357.5,359.75 351.5,357 349,347.25 351" fill="#000000" stroke="none" stroke-opacity="0" />
<polygon id="0143" points="337.75 362.25,340 371.5,356.5 367,357.5 357.5" fill="#000000" stroke="none" stroke-opacity="0" />
<polygon id="0144" points="340.5 371.75,342.75 378.25,358 374,356.25 366.75" fill="#000000" stroke="none" stroke-opacity="0" />
<polygon id="0145" points="343 378.5,344.75 385.5,362 380.75,358.25 373.5" fill="#000000" stroke="none" stroke-opacity="0" />
<polygon id="0146" points="345 385.25,349.25 397,367 392.5,361.75 380.5" fill="#000000" stroke="none" stroke-opacity="0" />
<polygon id="0147" points="349.5 397,352.25 408.75,369.5 404.75,367 392.25" fill="#000000" stroke="none" stroke-opacity="0" />
<polygon id="0148" points="345.25 385.5,352.75 408.25,345 412.75,335.25 389.5" fill="#000000" stroke="none" stroke-opacity="0" />
<polygon id="0149" points="335.5 389.5,345 412.25,336.25 416,326 393.25" fill="#000000" stroke="none" stroke-opacity="0" />
<polygon id="0150" points="331 404.25,316.75 413.5,323.75 423.5,336.25 415.75" fill="#000000" stroke="none" stroke-opacity="0" />
<polygon id="0151" points="306.25 415,317 428,310 434.25,298.5 422.5" fill="#000000" stroke="none" stroke-opacity="0" />
<polygon id="0152" points="298.75 422.5,289.5 433.25,302.25 442.75,310 434.25" fill="#000000" stroke="none" stroke-opacity="0" />
<polygon id="0153" points="279.5 433.5,299.75 447.25,293.75 456.25,272.75 443.5" fill="#000000" stroke="none" stroke-opacity="0" />
<polygon id="0154" points="282.5 449.5,293.75 456.5,288.75 466.25,277.25 461" fill="#000000" stroke="none" stroke-opacity="0" />
<polygon id="0155" points="277.5 461,272.75 472.75,284.75 477.25,288.75 466.5" fill="#000000" stroke="none" stroke-opacity="0" />
<polygon id="0156" points="273 545,277.5 556.75,289 551.5,285.5 541" fill="#000000" stroke="none" stroke-opacity="0" />
<polygon id="0157" points="277.75 556.5,282.5 567,293.75 560.75,289 551.5" fill="#000000" stroke="none" stroke-opacity="0" />
<polygon id="0158" points="294 560.75,272 573.5,279.5 585,300 570" fill="#000000" stroke="none" stroke-opacity="0" />
<polygon id="0159" points="299.5 570,286.5 580,295.25 590.25,307 578.75" fill="#000000" stroke="none" stroke-opacity="0" />
<polygon id="0160" points="315 586.5,298 605,293.25 600.25,310.25 581.5" fill="#000000" stroke="none" stroke-opacity="0" />
<polygon id="0161" points="314.75 587,298 605.25,308.5 613.75,323.5 593.25" fill="#000000" stroke="none" stroke-opacity="0" />
<polygon id="0162" points="323.25 593.5,308.75 613.5,320.25 621.25,332.25 599.25" fill="#000000" stroke="none" stroke-opacity="0" />
<polygon id="0163" points="337.25 602,331.5 613.25,348.5 621,352.5 608.5" fill="#000000" stroke="none" stroke-opacity="0" />
<polygon id="0164" points="401.25 612.25,404.75 637,415 635,409.75 610.5" fill="#000000" stroke="none" stroke-opacity="0" />
<polygon id="0165" points="409.75 610.25,414.75 634.75,425 632,417.25 608.25" fill="#000000" stroke="none" stroke-opacity="0" />
<polygon id="0166" points="417.5 608.25,424.75 631.5,434.5 628,424.75 605.75" fill="#000000" stroke="none" stroke-opacity="0" />
<polygon id="0167" points="424.75 605.5,434.25 627.75,443.5 623.75,432.25 602" fill="#000000" stroke="none" stroke-opacity="0" />
<polygon id="0168" points="432.25 602,438.25 613.5,446.5 608.5,439.75 597.75" fill="#000000" stroke="none" stroke-opacity="0" />
<polygon id="0169" points="439.75 598,446.25 608.75,453.75 603.5,446.25 593.25" fill="#000000" stroke="none" stroke-opacity="0" />
<polygon id="0170" points="450.75 590.25,456.75 584.75,468.5 597.25,461.75 603.75" fill="#000000" stroke="none" stroke-opacity="0" />
<polygon id="0171" points="456.75 584.75,462.75 578.5,475 590,468.25 597.25" fill="#000000" stroke="none" stroke-opacity="0" />
<polygon id="0172" points="465.25 576,478.25 586.5,483 580.25,469.5 570.25" fill="#000000" stroke="none" stroke-opacity="0" />
<polygon id="0173" points="469.75 570.25,489.5 585,496.75 573.25,475.75 561" fill="#000000" stroke="none" stroke-opacity="0" />
<polygon id="0174" points="475.75 561.25,486.75 567.25,491.75 557,480.75 551.25" fill="#000000" stroke="none" stroke-opacity="0" />
<polygon id="0175" points="480.75 551.25,491.5 557.25,496.5 545.25,484.5 540.75" fill="#000000" stroke="none" stroke-opacity="0" />
<polygon id="0176" points="484.75 477,496.5 472.5,491.75 460.5,480.5 466" fill="#000000" stroke="none" stroke-opacity="0" />
<polygon id="0177" points="480.75 466,475.75 456.5,486.5 449.75,491.75 460.5" fill="#000000" stroke="none" stroke-opacity="0" />
<polygon id="0178" points="475.75 456.5,497.25 444,489.5 433.25,469.25 447.75" fill="#000000" stroke="none" stroke-opacity="0" />
<polygon id="0179" points="469.5 448,483.75 437.5,474.75 427.5,462.5 438.75" fill="#000000" stroke="none" stroke-opacity="0" />
<polygon id="0180" points="458.75 434.75,476.5 417,468.75 410.25,452.5 429" fill="#000000" stroke="none" stroke-opacity="0" />
<polygon id="0181" points="452.5 429,469.25 410.25,461.5 403.75,446.5 424" fill="#000000" stroke="none" stroke-opacity="0" />
<polygon id="0182" points="441.5 420.75,448.75 410.5,437.75 404,432.25 415.5" fill="#000000" stroke="none" stroke-opacity="0" />
<polygon id="0183" points="428.5 413.5,417 409.5,425.25 385.25,437.25 390.25,432 401,434.75 402.5" fill="#000000" stroke="none" stroke-opacity="0" />
<polygon id="0184" points="421.25 397,417 408.75,401.5 405.75,402.25 392.75" fill="#000000" stroke="none" stroke-opacity="0" />
<polygon id="0185" points="402.25 392.5,408 380.5,424.75 385.25,421.75 397" fill="#000000" stroke="none" stroke-opacity="0" />
<polygon id="0186" points="407.75 380.25,410.75 373.5,427.25 377.5,425 385" fill="#000000" stroke="none" stroke-opacity="0" />
<polygon id="0187" points="410.75 373.75,413.75 366.75,430 370.75,427 377.5" fill="#000000" stroke="none" stroke-opacity="0" />
<polygon id="0188" points="414.25 366.75,411.25 357,432 362.25,429.25 370.75" fill="#000000" stroke="none" stroke-opacity="0" />
<polygon id="0189" points="432 362,434.5 354.5,412.25 348.25,409.75 350.25,409.75 354.5,412.25 357.5" fill="#000000" stroke="none" stroke-opacity="0" />
<polygon id="0190" points="102.25 169,109.25 186.75,109 248.75,28.5 248.5,28.25 232,0.75 180.5,24 168.25,37.5 172.25,40.25 177.75,72 163.25,78.25 177.75" fill="#000000" stroke="none" stroke-opacity="0" />
<polygon id="0191" points="668.25 169.25,690.75 178.75,697.5 163.5,729.25 178.25,732.5 172,744.75 168,768.5 180.5,742.25 232.25,741.75 248.25,660.75 249,659.75 187.25" fill="#000000" stroke="none" stroke-opacity="0" />
<polygon id="0192" points="190.75 248.25,207 248.75,207.5 236.25,222.25 236,222 248.75,289.5 248.5,289.5 236,304.75 239.25,303.75 251.5,304.25 266.5,307.25 277.5,314.25 292.25,323 305.5,311 314.75,190 314" fill="#000000" stroke="none" stroke-opacity="0" />
<polygon id="0193" points="464.75 238.75,479 235.5,479.25 249,547.75 248.75,548.25 235.75,562.75 235.75,562.75 248.75,579.75 249,579.25 314,460.25 315,446.75 305.5,453.25 297.5,458.25 287.75,462.5 278.75,464.75 268,465.75 256.5,465.75 247.25" fill="#000000" stroke="none" stroke-opacity="0" />
<polygon id="0194" points="174.5 459.75,174.5 557.25,234.5 557.25,261.25 548.75,258 535.75,255.5 518.5,255.5 499.25,256.5 485.75,261 468.25,234.5 459.25" fill="#000000" stroke="none" stroke-opacity="0" />
<polygon id="0195" points="507.75 468.75,534.25 460,595.75 460,595.75 557,535 557,508.5 548.25,512 536.5,513.25 519.25,514.25 498.5,511.75 481.25" fill="#000000" stroke="none" stroke-opacity="0" />
</svg>
