<?xml version="1.0" encoding="UTF-8" standalone="no"?>
<!-- Created with Inkscape (http://www.inkscape.org/) -->

<svg xmlns:dc="http://purl.org/dc/elements/1.1/" xmlns:cc="http://creativecommons.org/ns#" xmlns:rdf="http://www.w3.org/1999/02/22-rdf-syntax-ns#" xmlns:svg="http://www.w3.org/2000/svg" xmlns="http://www.w3.org/2000/svg" xmlns:xlink="http://www.w3.org/1999/xlink" xmlns:sodipodi="http://sodipodi.sourceforge.net/DTD/sodipodi-0.dtd" xmlns:inkscape="http://www.inkscape.org/namespaces/inkscape" width="770" height="800" id="svg2" version="1.1" inkscape:version="0.47pre4 " sodipodi:docname="test.svg" style="display:inline" stroke="#000000">
<defs id="defs4">
<inkscape:perspective sodipodi:type="inkscape:persp3d" inkscape:vp_x="0 : 526.18109 : 1" inkscape:vp_y="0 : 1000 : 0" inkscape:vp_z="744.09448 : 526.18109 : 1" inkscape:persp3d-origin="372.04724 : 350.78739 : 1" id="perspective10" />
<inkscape:perspective id="perspective2832" inkscape:persp3d-origin="0.5 : 0.33333333 : 1" inkscape:vp_z="1 : 0.5 : 1" inkscape:vp_y="0 : 1000 : 0" inkscape:vp_x="0 : 0.5 : 1" sodipodi:type="inkscape:persp3d" />
<script type="text/ecmascript" id="script6">
		var fdat="",sdat="";
		function onAreaOver(evt){
			var ele=evt.target; 
			fdat=ele.getAttribute('fill'); 
			sdat=ele.getAttribute('stroke');
			ele.setAttribute('fill','#006fb6');//多边形填充颜色
			ele.setAttribute('stroke','#006fb6');//stroke 多边形 边框颜色
			
		}
		function onAreaOut(evt){
			var ele=evt.target; 
			ele.setAttribute('fill',fdat);
			ele.setAttribute('stroke',sdat);
		}
		</script>
<symbol overflow="visible" id="symbol" style="overflow:visible">
<path d="m 626,156 2,-2 2,-4 0,-3 -1,-3 -4,-3 -6,-3 -5,-2 -4,-2 -4,8 -6,14" id="path9" style="fill:#000000;stroke:none" />
</symbol>
</defs>
<sodipodi:namedview id="base" pagecolor="#ffffff" bordercolor="#666666" borderopacity="1.0" inkscape:pageopacity="0.0" inkscape:pageshadow="2" inkscape:zoom="5.6" inkscape:cx="583.1007" inkscape:cy="273.63795" inkscape:document-units="px" inkscape:current-layer="svg2" showgrid="false" inkscape:window-width="1280" inkscape:window-height="740" inkscape:window-x="-4" inkscape:window-y="-4" inkscape:window-maximized="1" />
<metadata id="metadata7">
<rdf:RDF>
<cc:Work>
<dc:format>
				image/svg+xml</dc:format>
<dc:type rdf:resource="http://purl.org/dc/dcmitype/StillImage" />
<dc:title>
</dc:title>
</cc:Work>
</rdf:RDF>
</metadata>
<image xlink:href="qdchengyang_mall_3f_b.png" width="770" height="800" id="image2834" x="-485" y="255.93361" transform="translate(485,-255.9336)" inkscape:label="Layer 1" inkscape:groupmode="layer" style="display:inline" />
<polygon id="3001" points="99.5 32,165 37.5,160 82.5,168.5 83.5,165.5 103,105 96.5,49.5 93.5,-50 94,-106.5 97,-166.5 102,-167.5 85,-160.5 84,-165.5 37.5,-99.5 31.5,-98 42,10.5 41,97.5 44" fill="#000000" stroke="none" stroke-opacity="0" />
<polygon id="3139" points="196.5 54,193.5 82,182.5 81,180.5 92.5,175 92,173 103.5,205.5 108,212.5 56" fill="#000000" stroke="none" stroke-opacity="0" />
<polygon id="3140" points="212.5 57,205 107.5,221 110.5,229 59" fill="#000000" stroke="none" stroke-opacity="0" />
<polygon id="3141" points="229 59,260.5 65,252 115.5,220.5 109.5" fill="#000000" stroke="none" stroke-opacity="0" />
<polygon id="3142" points="260 65,277 68.5,268.5 119,251.5 115" fill="#000000" stroke="none" stroke-opacity="0" />
<polygon id="3143" points="277 68.5,293 71.5,287 102.5,293.5 103.5,289.5 123,268.5 119" fill="#000000" stroke="none" stroke-opacity="0" />
<polygon id="3144" points="308 75,298 124.5,314.5 128,326 79" fill="#000000" stroke="none" stroke-opacity="0" />
<polygon id="3145" points="326 79.5,341.5 82.5,330 132,314.5 128" fill="#000000" stroke="none" stroke-opacity="0" />
<polygon id="3146" points="357 86.5,351 112.5,341.5 110.5,335.5 133,375.5 143,389 95" fill="#000000" stroke="none" stroke-opacity="0" />
<polygon id="3147" points="389 94.5,375.5 143,391.5 147.5,405 99" fill="#000000" stroke="none" stroke-opacity="0" />
<polygon id="3148" points="405 99,421.5 103.5,406.5 152,391.5 147" fill="#000000" stroke="none" stroke-opacity="0" />
<polygon id="3149" points="422 103,406.5 151.5,421 156,436 107.5" fill="#000000" stroke="none" stroke-opacity="0" />
<polygon id="3150" points="436.5 106.5,421 155.5,435.5 162,452.5 112" fill="#000000" stroke="none" stroke-opacity="0" />
<polygon id="3151" points="452 112,484 122,466.5 171,435.5 161" fill="#000000" stroke="none" stroke-opacity="0" />
<polygon id="3152" points="483.5 122,500 128,488.5 162,484.5 160,479.5 175.5,466 171.5" fill="#000000" stroke="none" stroke-opacity="0" />
<polygon id="3153" points="497.5 181.5,517 123,539.5 113,570.5 126.5,580 148,576.5 158.5,634.5 184,639 174.5,662.5 166,692 182,700.5 204,695 214,679.5 206,665 233.5,662 232.5,652.5 250" fill="#000000" stroke="none" stroke-opacity="0" />
<polygon id="3154" points="694 214,670.5 259,684.5 266.5,708 221.5" fill="#000000" stroke="none" stroke-opacity="0" />
<polygon id="3155" points="708 222,746 243,746 271,699.5 271,697 274.5,684.5 266" fill="#000000" stroke="none" stroke-opacity="0" />
<polygon id="3156" points="697 286.5,746 286.5,746 271,699.5 271,697 274" fill="#000000" stroke="none" stroke-opacity="0" />
<polygon id="3157" points="697.5 286.5,746 286.5,746.5 301.5,697.5 301" fill="#000000" stroke="none" stroke-opacity="0" />
<polygon id="3158" points="698 301,746 301.5,746.5 315,697.5 314.5" fill="#000000" stroke="none" stroke-opacity="0" />
<polygon id="3159" points="697 314.5,746.5 315,746.5 345,715.5 345,715.5 352,697 352.5" fill="#000000" stroke="none" stroke-opacity="0" />
<polygon id="3160" points="697 360.5,709 361,709 374.5,716.5 374.5,716.5 390,697 390.5" fill="#000000" stroke="none" stroke-opacity="0" />
<polygon id="3161" points="697.5 390,753 390.5,753 405.5,697.5 405.5" fill="#000000" stroke="none" stroke-opacity="0" />
<polygon id="3162" points="697.5 405,735 405,735 420,697.5 420" fill="#000000" stroke="none" stroke-opacity="0" />
<polygon id="3163" points="697.5 419.5,735 419.5,735 434.5,697.5 434.5" fill="#000000" stroke="none" stroke-opacity="0" />
<polygon id="3164" points="697 434,735.5 434,735.5 450,697 450" fill="#000000" stroke="none" stroke-opacity="0" />
<polygon id="3165" points="697 449.5,735 449.5,735 465,697 465" fill="#000000" stroke="none" stroke-opacity="0" />
<polygon id="3166" points="697.5 464.5,735 464.5,735 480,697 480" fill="#000000" stroke="none" stroke-opacity="0" />
<polygon id="3167" points="697.5 480,735 480,735 495,697.5 495" fill="#000000" stroke="none" stroke-opacity="0" />
<polygon id="3168" points="697.5 495,753 494,753 524.5,746 525.5,747.5 583.5,697 583.5" fill="#000000" stroke="none" stroke-opacity="0" />
<polygon id="3169" points="697 583,747 583,747 674,714 674,714 680.5,724.5 680.5,738.5 694.5,738.5 712.5,725 725.5,706.5 725.5,694 713,685.5 713.5,685 703.5,655.5 703.5,655.5 684.5,671.5 684.5,697 659.5" fill="#000000" stroke="none" stroke-opacity="0" />
<polygon id="3170" points="656 719,686 719,686 734.5,656.5 734.5" fill="#000000" stroke="none" stroke-opacity="0" />
<polygon id="3171" points="537 685,537 733.5,637.5 733.5,637.5 684" fill="#000000" stroke="none" stroke-opacity="0" />
<polygon id="3172" points="507.5 685,537 685,537 704,521.5 704,521.5 696.5,507 696.5" fill="#000000" stroke="none" stroke-opacity="0" />
<polygon id="3173" points="498.5 685.5,498.5 702,492 702,492 734,387.5 734,387.5 685" fill="#000000" stroke="none" stroke-opacity="0" />
<polygon id="3174" points="374 685,374 718,387.5 718,387.5 684.5" fill="#000000" stroke="none" stroke-opacity="0" />
<polygon id="3175" points="374 685,374 707,357 707,357 684.5" fill="#000000" stroke="none" stroke-opacity="0" />
<polygon id="3176" points="350 703,350 685,315.5 685,308.5 690,306 697,308 704.5" fill="#000000" stroke="#000000" />
<polygon id="3177" points="308.5 704.5,350 704,349.5 729.5,315.5 735" fill="#000000" stroke="#000000" />
<polygon id="3178" points="317 742.5,364.5 735,367.5 754.5,319.5 758.5" fill="#000000" stroke="#000000" />
<polygon id="3179" points="319.5 759,367.5 754.5,368.5 773,320.5 775" fill="#000000" stroke="#000000" />
<polygon id="3180" points="320.5 775.5,369.5 773.5,371 812,344.5 812.5,344.5 799.5,320 799" fill="#000000" stroke="#000000" />
<polygon id="3181" points="388 284,387.5 297.5,360 297.5,360 284" fill="#000000" stroke="#000000" />
<polygon id="3182" points="357 284.5,357 314,342.5 314,342.5 284" fill="#000000" stroke="#000000" />
<polygon id="3183" points="342.5 284,342.5 314.5,328.5 314.5,328.5 284" fill="#000000" stroke="#000000" />
<polygon id="3184" points="328 284,313 284,313 314.5,328 314.5" fill="#000000" stroke="#000000" />
<polygon id="3185" points="298.5 284.5,298.5 315,312.5 315,312.5 283.5" fill="#000000" stroke="#000000" />
<polygon id="3186" points="298 284,298 314.5,283.5 314.5,283.5 284" fill="#000000" stroke="#000000" />
<polygon id="3187" points="269.5 284.5,283 284.5,283 314.5,269 314.5" fill="#000000" stroke="#000000" />
<polygon id="3188" points="240.5 284.5,240.5 298.5,268.5 298.5,268.5 284" fill="#000000" stroke="#000000" />
<polygon id="3189" points="204.5 284.5,204.5 298,230.5 298,230.5 285" fill="#000000" stroke="#000000" />
<polygon id="3190" points="204 298,204 314.5,230 314.5,230 299" fill="#000000" stroke="#000000" />
<polygon id="3191" points="204 315,230.5 314.5,230.5 323.5,239 324,239 330.5,204.5 330" fill="#000000" stroke="#000000" />
<polygon id="3192" points="204.5 330.5,239 331,239 346,204.5 345" fill="#000000" stroke="#000000" />
<polygon id="3193" points="204.5 345.5,239 346,238.5 361,205 360.5" fill="#000000" stroke="#000000" />
<polygon id="3194" points="204.5 361,238.5 361,239 375.5,205 375.5" fill="#000000" stroke="#000000" />
<polygon id="3195" points="205 375.5,239 376,239 390,204.5 390" fill="#000000" stroke="#000000" />
<polygon id="3196" points="204.5 390,239 390,238.5 405,205 405.5" fill="#000000" stroke="#000000" />
<polygon id="3197" points="204.5 434.5,239 434.5,238.5 450,204.5 450" fill="#000000" stroke="#000000" />
<polygon id="3198" points="204.5 450.5,204.5 464.5,239 465.5,238.5 451" fill="#000000" stroke="#000000" />
<polygon id="3199" points="204.5 464.5,204.5 486,239 486.5,238.5 465.5" fill="#000000" stroke="#000000" />
<polygon id="3200" points="204.5 495.5,204.5 525.5,224 525.5,223.5 495.5" fill="#000000" stroke="#000000" />
<polygon id="3201" points="204.5 525.5,204 545.5,214.5 555,231.5 536.5,230.5 525.5" fill="#000000" stroke="#000000" />
<polygon id="3202" points="215 555.5,226.5 566.5,250 542.5,240.5 533.5,232 533.5,232 537" fill="#000000" stroke="#000000" />
<polygon id="3203" points="227.5 566.5,238.5 578,263 556,250.5 543" fill="#000000" stroke="#000000" />
<polygon id="3204" points="239 578,249.5 591,275 570,263 556" fill="#000000" stroke="#000000" />
<polygon id="3205" points="249.5 591.5,275.5 570.5,286 585,260 604.5" fill="#000000" stroke="#000000" />
<polygon id="3206" points="260 604.5,286 585.5,294.5 595.5,285.5 602.5,287.5 606.5,269 618" fill="#000000" stroke="#000000" />
<polygon id="3207" points="288 607,292 614,297.5 613,298.5 632.5,284.5 633,276 629.5,269 618.5" fill="#000000" stroke="#000000" />
<polygon id="3208" points="298.5 599,298.5 632,313.5 633,313.5 599" fill="#000000" stroke="#000000" />
<polygon id="3209" points="314 605.5,328 605.5,328 632.5,314 633.5" fill="#000000" stroke="#000000" />
<polygon id="3210" points="328 599,328.5 632.5,343 633.5,343 598.5" fill="#000000" stroke="#000000" />
<polygon id="3211" points="343.5 598.5,343.5 633,358 633.5,357.5 599" fill="#000000" stroke="#000000" />
<polygon id="3212" points="358.5 614.5,385 614,385.5 633,358.5 633" fill="#000000" stroke="#000000" />
<polygon id="3213" points="396 599,417.5 599,417.5 633,397 633.5" fill="#000000" stroke="#000000" />
<polygon id="3214" points="418 598.5,418 633,432.5 633,432.5 599" fill="#000000" stroke="#000000" />
<polygon id="3215" points="433.5 605.5,447 606,447.5 632.5,433.5 633.5" fill="#000000" stroke="#000000" />
<polygon id="3216" points="477.5 599,477.5 632.5,499 632.5,499.5 598.5" fill="#000000" stroke="#000000" />
<polygon id="3217" points="507 614.5,507 632,537 632.5,537 614" fill="#000000" stroke="#000000" />
<polygon id="3218" points="537 599,537.5 632,552 633,552 599" fill="#000000" stroke="#000000" />
<polygon id="3219" points="552.5 599,552.5 632.5,567.5 633,566.5 599" fill="#000000" stroke="#000000" />
<polygon id="3220" points="567 599.5,581.5 599.5,582 632.5,568 633.5" fill="#000000" stroke="#000000" />
<polygon id="3221" points="582 599,597 599,597 631.5,583 633.5" fill="#000000" stroke="#000000" />
<polygon id="3222" points="620 584,620 599,645.5 599.5,645 584" fill="#000000" stroke="#000000" />
<polygon id="3223" points="625.5 555,645 554.5,645.5 583,613 584.5,613 577,625.5 577" fill="#000000" stroke="#000000" />
<polygon id="3224" points="644.5 553.5,645.5 533.5,611.5 532.5,611 554.5" fill="#000000" stroke="#000000" />
<polygon id="3225" points="626.5 494.5,645 494,645.5 521.5,627 521.5" fill="#000000" stroke="#000000" />
<polygon id="3226" points="611.5 493.5,645.5 493.5,645 479.5,611.5 479.5" fill="#000000" stroke="#000000" />
<polygon id="3227" points="611 479,611.5 465,645 464.5,645 479" fill="#000000" stroke="#000000" />
<polygon id="3228" points="611.5 434.5,611.5 420,645 419.5,645.5 434.5" fill="#000000" stroke="#000000" />
<polygon id="3229" points="611 419.5,611 405,644.5 405,644.5 419" fill="#000000" stroke="#000000" />
<polygon id="3230" points="611 404,611 390,645 390,645 404" fill="#000000" stroke="#000000" />
<polygon id="3231" points="615 375,615 389,645 389.5,644.5 374.5" fill="#000000" stroke="#000000" />
<polygon id="3232" points="611.5 375.5,611.5 360.5,645 360.5,645 375" fill="#000000" stroke="#000000" />
<polygon id="3233" points="611 360,611 345.5,644.5 345,645 359" fill="#000000" stroke="#000000" />
<polygon id="3234" points="626 314,627 284.5,645.5 284,645.5 314" fill="#000000" stroke="#000000" />
<polygon id="3235" points="611.5 284,611.5 314,626 314,626.5 284" fill="#000000" stroke="#000000" />
<polygon id="3236" points="597 284,597 314,611 314.5,611.5 284" fill="#000000" stroke="#000000" />
<polygon id="3237" points="582 284,581.5 308.5,595.5 308.5,597 284" fill="#000000" stroke="#000000" />
<polygon id="3238" points="465.5 222.5,451.5 260.5,480.5 261.5,489 251.5,490 244,490 231.5" fill="#000000" stroke="#000000" />
<polygon id="3239" points="451.5 217.5,440.5 247,454.5 252,465 222" fill="#000000" stroke="#000000" />
<polygon id="3240" points="436.5 212.5,426 242.5,440.5 247,451 217" fill="#000000" stroke="#000000" />
<polygon id="3241" points="422 207.5,412.5 238,426 242.5,436.5 212.5" fill="#000000" stroke="#000000" />
<polygon id="3242" points="392.5 199,375 259,379.5 260.5,405 260.5,422 207.5" fill="#000000" stroke="#000000" />
<polygon id="3243" points="378 195,369 224.5,383.5 229.5,392.5 198.5" fill="#000000" stroke="#000000" />
<polygon id="3244" points="377.5 194.5,369 224.5,355 221,363.5 190.5" fill="#000000" stroke="#000000" />
<polygon id="3245" points="348 186.5,340 216.5,354.5 220.5,363.5 190" fill="#000000" stroke="#000000" />
<polygon id="3246" points="325 180,321 195.5,343 202.5,348 186.5" fill="#000000" stroke="#000000" />
<polygon id="3247" points="289 172,282.5 203,305 208.5,312.5 178" fill="#000000" stroke="#000000" />
<polygon id="3248" points="272.5 169,267.5 197,283 200,289 172" fill="#000000" stroke="#000000" />
<polygon id="3249" points="244 163.5,233.5 225,260.5 230.5,272 169" fill="#000000" stroke="#000000" />
<polygon id="3250" points="222.5 160,217.5 191,238.5 195.5,243.5 163.5" fill="#000000" stroke="#000000" />
<polygon id="3251" points="182.5 154,213.5 158.5,211.5 175,180.5 171" fill="#000000" stroke="#000000" />
<polygon id="3252" points="182 154,178.5 186,161.5 198,147.5 182,150.5 171.5,156 163,163 157.5,172.5 154" fill="#000000" stroke="#000000" />
<polygon id="3253" points="179.5 186,194 187.5,190 219,177.5 219,162.5 199" fill="#000000" stroke="#000000" />
<polygon id="3254" points="194.5 187.5,208.5 190,204 220.5,191 219" fill="#000000" stroke="#000000" />
<polygon id="3255" points="208.5 190,223 193,218.5 223,204.5 220.5" fill="#000000" stroke="#000000" />
<polygon id="3256" points="224 193,237.5 196.5,233 225.5,219.5 223" fill="#000000" stroke="#000000" />
<polygon id="3257" points="264.5 214.5,302 222.5,298.5 239,261 231.5" fill="#000000" stroke="#000000" />
<polygon id="3258" points="315 224.5,310 241,333 248,336.5 232" fill="#000000" stroke="#000000" />
<polygon id="3259" points="340 216.5,333.5 248,347 251.5,354.5 221.5" fill="#000000" stroke="#000000" />
<polygon id="3260" points="355 221.5,347.5 251.5,361 255,369.5 225" fill="#000000" stroke="#000000" />
<polygon id="3261" points="370 225.5,361 255,374 259.5,382.5 230" fill="#000000" stroke="#000000" />
<polygon id="3262" points="413 239,405.5 261,450.5 261,454 252" fill="#000000" stroke="#000000" />
<polygon id="3263" points="239 314,239 405.5,223.5 405.5,223.5 433.5,240 433.5,240 532.5,265 557.5,296.5 599,447 599,448 622,477 622,477 598.5,612 599.5,610.5 465.5,633.5 464,634 435,612 435,612 315,582 315,582 284,521.5 284,521.5 296,461.5 296,461.5 312" fill="#000000" stroke="#000000" />
<polygon id="3393" points="50.5 463.5,63 458.5,74.5 452,90 480,69 490.5,60.5 491.5" fill="#000000" stroke="#000000" />
<polygon id="3394" points="75 451.5,85.5 445,104 471,90.5 480" fill="#000000" stroke="#000000" />
<polygon id="3395" points="86 445,96.5 438,116 461.5,105 470.5" fill="#000000" stroke="#000000" />
<polygon id="3396" points="106 449.5,121 435,133.5 445.5,116.5 462" fill="#000000" stroke="#000000" />
<polygon id="3397" points="114 419,122.5 408.5,148 426.5,138 440" fill="#000000" stroke="#000000" />
<polygon id="3398" points="122.5 408,129.5 397.5,157 413,149 426" fill="#000000" stroke="#000000" />
<polygon id="3399" points="138 382,144 362,174.5 370,167 394.5" fill="#000000" stroke="#000000" />
<polygon id="3400" points="144 361,146.5 349.5,178 354.5,175 369.5" fill="#000000" stroke="#000000" />
<polygon id="3401" points="146.5 349.5,149 323,180.5 323,178.5 354" fill="#000000" stroke="#000000" />
<polygon id="3402" points="149 322.5,149 310,180 308,181 322.5" fill="#000000" stroke="#000000" />
<polygon id="3403" points="148.5 309.5,147 297.5,178 292,180.5 308.5" fill="#000000" stroke="#000000" />
<polygon id="3404" points="147 298,144 284,174.5 276.5,178.5 292" fill="#000000" stroke="#000000" />
<polygon id="3405" points="144.5 284,140.5 272.5,169.5 261.5,174.5 276" fill="#000000" stroke="#000000" />
<polygon id="3406" points="169.5 261,163.5 247,135.5 260.5,140 272.5" fill="#000000" stroke="#000000" />
<polygon id="3407" points="135.5 260.5,129 248.5,156.5 232.5,164 246.5" fill="#000000" stroke="#000000" />
<polygon id="3408" points="118 231,105.5 217.5,127.5 195.5,142 211.5" fill="#000000" stroke="#000000" />
<polygon id="3409" points="105 217.5,96 209,116 184.5,127.5 195" fill="#000000" stroke="#000000" />
<polygon id="3410" points="103.5 175,85 201,95.5 209,116 184.5" fill="#000000" stroke="#000000" />
<polygon id="3411" points="90.5 167,74.5 193.5,84.5 200.5,103.5 174.5" fill="#000000" stroke="#000000" />
<polygon id="3412" points="56.5 167,62.5 153.5,84 163,77 176" fill="#000000" stroke="#000000" />
<polygon id="3413" points="62.5 153,51 182.5,36.5 178.5,44.5 147.5" fill="#000000" stroke="#000000" />
<polygon id="3414" points="24.5 143.5,20 175,35.5 179,44 148" fill="#000000" stroke="#000000" />
<polygon id="3433" points="40 436,50 463.5,62.5 458,74 452,59.5 426.5" fill="#000000" stroke="#000000" />
<polygon id="3434" points="60 426,72.5 418,90.5 441,74 451" fill="#000000" stroke="#000000" />
<polygon id="3435" points="73 417.5,91 440.5,105.5 428.5,84.5 408" fill="#000000" stroke="#000000" />
<polygon id="3436" points="84 407.5,91 400,114 418.5,106 428" fill="#000000" stroke="#000000" />
<polygon id="3437" points="91 399,103.5 382,115.5 388.5,102 408.5" fill="#000000" stroke="#000000" />
<polygon id="3438" points="110 369.5,137.5 382,143.5 361.5,115.5 354" fill="#000000" stroke="#000000" />
<polygon id="3439" points="115.5 353.5,117.5 344,146 349,144 361.5" fill="#000000" stroke="#000000" />
<polygon id="3440" points="118 335,132.5 335,132 346,117.5 344" fill="#000000" stroke="#000000" />
<polygon id="3441" points="119.5 320.5,118 306.5,115.5 292.5,144 284.5,147 298,148.5 310.5,148 320" fill="#000000" stroke="#000000" />
<polygon id="3442" points="115.5 292,111 277.5,124.5 271.5,127 277,140 272.5,144 283.5" fill="#000000" stroke="#000000" />
<polygon id="3443" points="103 262.5,116 255,124.5 271,110.5 277.5" fill="#000000" stroke="#000000" />
<polygon id="3444" points="85 239,105 217.5,117.5 231.5,94 250" fill="#000000" stroke="#000000" />
<polygon id="3445" points="77 232,95.5 209.5,104 217.5,84.5 239" fill="#000000" stroke="#000000" />
<polygon id="3446" points="67 207.5,80 215.5,70.5 227,60 219.5" fill="#000000" stroke="#000000" />
<polygon id="3447" points="74.5 193,59.5 219.5,51 215.5,63 188" fill="#000000" stroke="#000000" />
<polygon id="3448" points="51 183,40.5 210.5,50.5 215.5,63 188" fill="#000000" stroke="#000000" />
<polygon id="3449" points="51 182.5,40 210.5,28.5 207.5,36.5 179" fill="#000000" stroke="#000000" />
<polygon id="3450" points="19.5 175.5,15.5 204.5,27.5 207.5,35.5 179.5" fill="#000000" stroke="#000000" />
<polygon id="3499" points="237.5 775.5,235.5 756,265 751.5,267 773.5" fill="#000000" stroke="#000000" />
<polygon id="3500" points="235.5 756,233 744.5,262 737,265 751" fill="#000000" stroke="#000000" />
<polygon id="3501" points="233 744,230.5 732,258.5 723.5,262 736.5" fill="#000000" stroke="#000000" />
<polygon id="3502" points="230 731.5,226.5 719,254.5 710,258.5 723" fill="#000000" stroke="#000000" />
<polygon id="3503" points="226 719,217.5 695.5,230 689.5,238 695,250.5 699.5,254.5 709.5" fill="#000000" stroke="#000000" />
<polygon id="3504" points="207.5 674.5,193 653,216.5 635.5,223 645,219.5 656,219 667.5" fill="#000000" stroke="#000000" />
<polygon id="3505" points="177.5 634,199 614.5,216 635,193 652" fill="#000000" stroke="#000000" />
<polygon id="3506" points="177.5 633.5,168 624.5,189 603.5,199.5 614.5" fill="#000000" stroke="#000000" />
<polygon id="3507" points="179 593.5,159.5 616,168 624.5,189 603" fill="#000000" stroke="#000000" />
<polygon id="3508" points="168.5 585,150 608,159 616,178 593.5" fill="#000000" stroke="#000000" />
<polygon id="3509" points="133.5 561.5,128.5 570.5,144 580,151 572" fill="#000000" stroke="#000000" />
<polygon id="3510" points="134 561,119.5 587,108 580,121.5 554.5" fill="#000000" stroke="#000000" />
<polygon id="3511" points="122 554.5,108 580,97.5 575.5,108.5 548" fill="#000000" stroke="#000000" />
<polygon id="3512" points="83 538.5,65 593,80.5 599.5,95.5 606.5,108.5 581,97.5 577,108 548" fill="#000000" stroke="#000000" />
<polygon id="3513" points="69.5 535,62 562.5,73 566.5,83 538" fill="#000000" stroke="#000000" />
<polygon id="3514" points="69.5 534,61 562.5,49 559.5,54.5 531.5" fill="#000000" stroke="#000000" />
<polygon id="3558" points="209 777.5,268 773.5,268.5 800,267.5 815.5,209.5 815.5,210.5 796.5" fill="#000000" stroke="#000000" />
<polygon id="3559" points="207 760,235 755.5,236.5 775,209.5 777.5" fill="#000000" stroke="#000000" />
<polygon id="3560" points="203.5 744,231 737.5,234.5 755,207.5 760" fill="#000000" stroke="#000000" />
<polygon id="3561" points="203.5 743.5,199.5 728,226 719,231.5 737" fill="#000000" stroke="#000000" />
<polygon id="3562" points="199 728,190 707,216.5 695,225.5 718.5" fill="#000000" stroke="#000000" />
<polygon id="3563" points="181.5 689,208 675,193 652.5,170 669.5" fill="#000000" stroke="#000000" />
<polygon id="3564" points="160 658,171 649,181 661,169.5 670.5" fill="#000000" stroke="#000000" />
<polygon id="3565" points="155 652.5,176.5 633,168 625,148 645.5" fill="#000000" stroke="#000000" />
<polygon id="3566" points="140 637.5,159 616.5,167.5 624.5,148 645.5" fill="#000000" stroke="#000000" />
<polygon id="3567" points="131.5 631,149 609,158.5 616.5,140 637.5" fill="#000000" stroke="#000000" />
<polygon id="3568" points="110.5 601.5,128.5 612,121 623,105 612" fill="#000000" stroke="#000000" />
<polygon id="3569" points="119.5 587,104 612,96.5 607.5,109 582" fill="#000000" stroke="#000000" />
<polygon id="3570" points="48.5 560,73 566.5,64 593.5,48.5 589.5,44 585.5,44 579" fill="#000000" stroke="#000000" />
</svg>
