<?xml version="1.0" encoding="UTF-8" standalone="no"?>
<!-- Created with Inkscape (http://www.inkscape.org/) -->

<svg xmlns:dc="http://purl.org/dc/elements/1.1/" xmlns:cc="http://creativecommons.org/ns#" xmlns:rdf="http://www.w3.org/1999/02/22-rdf-syntax-ns#" xmlns:svg="http://www.w3.org/2000/svg" xmlns="http://www.w3.org/2000/svg" xmlns:xlink="http://www.w3.org/1999/xlink" xmlns:sodipodi="http://sodipodi.sourceforge.net/DTD/sodipodi-0.dtd" xmlns:inkscape="http://www.inkscape.org/namespaces/inkscape" width="770" height="800" id="svg2" version="1.1" inkscape:version="0.47pre4 " sodipodi:docname="test.svg" style="display:inline" stroke="#000000">
<defs id="defs4">
<inkscape:perspective sodipodi:type="inkscape:persp3d" inkscape:vp_x="0 : 526.18109 : 1" inkscape:vp_y="0 : 1000 : 0" inkscape:vp_z="744.09448 : 526.18109 : 1" inkscape:persp3d-origin="372.04724 : 350.78739 : 1" id="perspective10" />
<inkscape:perspective id="perspective2832" inkscape:persp3d-origin="0.5 : 0.33333333 : 1" inkscape:vp_z="1 : 0.5 : 1" inkscape:vp_y="0 : 1000 : 0" inkscape:vp_x="0 : 0.5 : 1" sodipodi:type="inkscape:persp3d" />
<script type="text/ecmascript" id="script6">
		var fdat="",sdat="";
		function onAreaOver(evt){
			var ele=evt.target; 
			fdat=ele.getAttribute('fill'); 
			sdat=ele.getAttribute('stroke');
			ele.setAttribute('fill','#006fb6');//多边形填充颜色
			ele.setAttribute('stroke','#006fb6');//stroke 多边形 边框颜色
			
		}
		function onAreaOut(evt){
			var ele=evt.target; 
			ele.setAttribute('fill',fdat);
			ele.setAttribute('stroke',sdat);
		}
		</script>
<symbol overflow="visible" id="symbol" style="overflow:visible">
<path d="m 626,156 2,-2 2,-4 0,-3 -1,-3 -4,-3 -6,-3 -5,-2 -4,-2 -4,8 -6,14" id="path9" style="fill:#000000;stroke:none" />
</symbol>
</defs>
<sodipodi:namedview id="base" pagecolor="#ffffff" bordercolor="#666666" borderopacity="1.0" inkscape:pageopacity="0.0" inkscape:pageshadow="2" inkscape:zoom="5.6" inkscape:cx="583.1007" inkscape:cy="273.63795" inkscape:document-units="px" inkscape:current-layer="svg2" showgrid="false" inkscape:window-width="1280" inkscape:window-height="740" inkscape:window-x="-4" inkscape:window-y="-4" inkscape:window-maximized="1" />
<metadata id="metadata7">
<rdf:RDF>
<cc:Work>
<dc:format>
				image/svg+xml</dc:format>
<dc:type rdf:resource="http://purl.org/dc/dcmitype/StillImage" />
<dc:title>
</dc:title>
</cc:Work>
</rdf:RDF>
</metadata>
<image xlink:href="qdchengyang_mall_1f_c.png" width="770" height="800" id="image2834" x="-485" y="255.93361" transform="translate(485,-255.9336)" inkscape:label="Layer 1" inkscape:groupmode="layer" style="display:inline" />
<polygon id="1283" points="429 61.75,429 84,441.5 81.75,471.5 73.75,467.25 58,445.25 62" fill="#000000" stroke="#000000" />
<polygon id="1284" points="428.75 83.5,429 102,475.25 102,478.25 97,471.5 73.75,442.75 82" fill="#000000" stroke="#000000" />
<polygon id="1285" points="411.75 68,411.25 101.5,429.25 102.5,429.25 67.75" fill="#000000" stroke="#000000" />
<polygon id="1286" points="396 67.75,396.25 102,411.25 102,412 68" fill="#000000" stroke="#000000" />
<polygon id="1287" points="381 72.25,381 102.75,397.25 102.75,397.25 71.75" fill="#000000" stroke="#000000" />
<polygon id="1288" points="336.5 82.75,336.75 101.75,352 102.5,352 83.75" fill="#000000" stroke="#000000" />
<polygon id="1289" points="313.75 82.5,314 91.5,323 95.25,329.5 101.75,336.5 102.25,335.75 82.75" fill="#000000" stroke="#000000" />
<polygon id="1290" points="276.75 83,277.25 102.25,284.75 102,292 94.5,300.5 90.5,300 82.25" fill="#000000" stroke="#000000" />
<polygon id="1291" points="261.75 82.5,261.5 102.5,277.25 102.25,276.75 83" fill="#000000" stroke="#000000" />
<polygon id="1292" points="247 68.25,246.5 102.5,262 102,262.25 67.75" fill="#000000" stroke="#000000" />
<polygon id="1293" points="232 67.5,232 101.25,247 101.5,246.75 67" fill="#000000" stroke="#000000" />
<polygon id="1294" points="217 83,217.25 102,232.25 102,231.25 82.5" fill="#000000" stroke="#000000" />
<polygon id="1295" points="201.75 83,202 102.25,217.5 102.75,217 82.75" fill="#000000" stroke="#000000" />
<polygon id="1296" points="157.25 82.75,156.75 102.25,173 102.25,172.75 82.5" fill="#000000" stroke="#000000" />
<polygon id="1297" points="141.75 82.75,142.25 102.75,157.75 103,157.25 82.5" fill="#000000" stroke="#000000" />
<polygon id="1298" points="82.75 67.75,114.5 67.75,113.75 84.25,83.5 84" fill="#000000" stroke="#000000" />
<polygon id="1299" points="82.75 141.75,82.75 173,98.5 173,98.5 141.75" fill="#000000" stroke="#000000" />
<polygon id="1300" points="99 141.5,113 141.25,113 173.25,99.25 173.25" fill="#000000" stroke="#000000" />
<polygon id="1301" points="142.25 157.25,142.25 173.5,157.75 173.5,157.75 157.75" fill="#000000" stroke="#000000" />
<polygon id="1302" points="157.25 134.75,157.25 169,169.5 169,169.5 134.5" fill="#000000" stroke="#000000" />
<polygon id="1303" points="170 134.75,188 134.5,188 172.75,171.25 173.25" fill="#000000" stroke="#000000" />
<polygon id="1304" points="201.5 135.25,202.25 173.25,217.25 173.75,217.25 134.75" fill="#000000" stroke="#000000" />
<polygon id="1305" points="216.75 134.75,217.5 172.75,232.5 172.5,232 134.75" fill="#000000" stroke="#000000" />
<polygon id="1306" points="232.25 167.25,247.5 167.25,247.25 135,232.5 134.25" fill="#000000" stroke="#000000" />
<polygon id="1307" points="247.5 134.5,261.75 135,262.25 167.25,247.5 167" fill="#000000" stroke="#000000" />
<polygon id="1308" points="273 134.75,273 157,286.25 157,286.25 134.25" fill="#000000" stroke="#000000" />
<polygon id="1309" points="327.25 134.75,321 141.25,321 169.5,351.75 169.5,351.75 134.5" fill="#000000" stroke="#000000" />
<polygon id="1310" points="352 134.25,352 173.25,367 173.25,367 134.75" fill="#000000" stroke="#000000" />
<polygon id="1311" points="366.25 134.5,366.25 173.5,381.75 173.5,381.75 134.75" fill="#000000" stroke="#000000" />
<polygon id="1312" points="381.25 134.75,381.25 172.75,397 172.75,397 135.5" fill="#000000" stroke="#000000" />
<polygon id="1313" points="396.75 134.75,411.25 134.75,411.25 173.75,396.75 173.75" fill="#000000" stroke="#000000" />
<polygon id="1314" points="411.5 134.25,433 134.25,433 152.25,412 152.25" fill="#000000" stroke="#000000" />
<polygon id="1315" points="440.75 134.75,440.75 157.5,471.25 157.5,471.25 134.75" fill="#000000" stroke="#000000" />
<polygon id="1316" points="471.75 140.5,471.75 173,484.5 178.5,500.75 168,484.25 139.75" fill="#000000" stroke="#000000" />
<polygon id="1317" points="504 206.5,516.75 219.5,532 236.75,546 222.75,532 207.75,519.5 194" fill="#000000" stroke="#000000" />
<polygon id="1318" points="493.5 239.25,508.5 254.75,471.5 292.25,470.25 261.5" fill="#000000" stroke="#000000" />
<polygon id="1319" points="456 261.75,456.25 292.75,472 292.25,469.5 261.5" fill="#000000" stroke="#000000" />
<polygon id="1320" points="441 262,441.25 293.25,456.25 294,455.75 261.5" fill="#000000" stroke="#000000" />
<polygon id="1321" points="400 343,436.75 341,451.75 355.25,452.5 378.25,436.75 393.25,416 393.75,400 378" fill="#000000" stroke="#000000" />
<polygon id="1322" points="381.5 351.75,400.25 352,400 367.75,381 367.5" fill="#000000" stroke="#000000" />
<polygon id="1323" points="365.5 351.25,366 381.5,383 381.5,382.25 351.75" fill="#000000" stroke="#000000" />
<polygon id="1324" points="351.25 351.25,351 382.75,366.75 381.75,365.5 351.25" fill="#000000" stroke="#000000" />
<polygon id="1325" points="336.25 351.25,336.25 382.25,351.5 382.25,350.75 351.5" fill="#000000" stroke="#000000" />
<polygon id="1326" points="321.75 351.5,321.75 382,336.25 382,336.25 351.5" fill="#000000" stroke="#000000" />
<polygon id="1327" points="308.5 350.75,308.5 382,321.75 382,321.75 351.25" fill="#000000" stroke="#000000" />
<polygon id="1328" points="277.25 350.75,277.25 381.75,292.25 381.75,292.25 350.75" fill="#000000" stroke="#000000" />
<polygon id="1329" points="262 357.5,262 380.75,277.5 380.75,277.5 357" fill="#000000" stroke="#000000" />
<polygon id="1330" points="246.75 357,246.75 382.5,262 382.5,262 356.5" fill="#000000" stroke="#000000" />
<polygon id="1331" points="232.25 351.25,232.25 381.75,246.5 381.75,246.75 356.75,238.25 357.75,238.5 351.25" fill="#000000" stroke="#000000" />
<polygon id="1332" points="186.75 351.25,186.75 381.75,203 381.75,203 350.5" fill="#000000" stroke="#000000" />
<polygon id="1333" points="156.75 350.75,157.25 366.5,172.5 367,172 382,187 382.25,186.25 350.5" fill="#000000" stroke="#000000" />
<polygon id="1334" points="128 351.25,127.5 381,142.25 381.5,143.5 366.25,156.75 366.75,156.75 350.5" fill="#000000" stroke="#000000" />
<polygon id="1335" points="112.5 350.75,112.5 382,128 382,128 350.75" fill="#000000" stroke="#000000" />
<polygon id="1336" points="97.75 350.75,97.75 382.75,113 382.75,113 350.75" fill="#000000" stroke="#000000" />
<polygon id="1337" points="83 350.5,83 383,97.75 383,97.75 350" fill="#000000" stroke="#000000" />
<polygon id="1485" points="504.75 34.75,507.25 49,536.25 43.75,533.75 31" fill="#000000" stroke="#000000" />
<polygon id="1486" points="509.5 57,519.75 55,525.5 72.5,514.5 77" fill="#000000" stroke="#000000" />
<polygon id="1487" points="514.5 76,518 89.5,525.25 102.5,552.25 90.5,546.75 78.25,542.5 66.5" fill="#000000" stroke="#000000" />
<polygon id="1488" points="524.5 101.25,530.75 116.75,538.25 128.25,563.25 112.5,557.5 101.75,552.75 90" fill="#000000" stroke="#000000" />
<polygon id="1489" points="537.75 128,544.75 140.25,569.75 123.25,562.5 111.5" fill="#000000" stroke="#000000" />
<polygon id="1490" points="544.5 140.25,553 152,576.75 133.25,569.75 123.5" fill="#000000" stroke="#000000" />
<polygon id="1491" points="553 152.25,561.5 162.5,584 144,577.25 132.5" fill="#000000" stroke="#000000" />
<polygon id="1492" points="561.5 162.5,571 174,594 153.5,584.75 144.25" fill="#000000" stroke="#000000" />
<polygon id="1493" points="609 169.5,619.5 179,601 202,588.25 191.75" fill="#000000" stroke="#000000" />
<polygon id="1494" points="600.25 201.25,612.5 210,629.5 186,619 177.5" fill="#000000" stroke="#000000" />
<polygon id="1495" points="620.75 198.5,627.75 204,636 208.5,627.5 222,618.5 215.75,612.25 209.5" fill="#000000" stroke="#000000" />
<polygon id="1496" points="635 224.75,648 232.75,662 205.75,649.75 199.5" fill="#000000" stroke="#000000" />
<polygon id="1497" points="662.25 205.75,673.5 211.5,660 238.5,647.5 233.25" fill="#000000" stroke="#000000" />
<polygon id="1498" points="673 211.25,684.5 216.25,674 243.75,659.25 237.75" fill="#000000" stroke="#000000" />
<polygon id="1499" points="684.25 215.5,696.5 220.75,687 248.5,674.25 243.75" fill="#000000" stroke="#000000" />
<polygon id="1500" points="696.5 220.5,708.25 223.75,700.25 252,687.25 247.75" fill="#000000" stroke="#000000" />
<polygon id="1501" points="708 223.5,720.5 226.5,714.5 255.5,699.5 252.5" fill="#000000" stroke="#000000" />
<polygon id="1550" points="534 30.5,555.75 26.5,564 60,543.25 67" fill="#000000" stroke="#000000" />
<polygon id="1551" points="555.5 25.75,578.5 22.5,585.75 53.25,564.25 60.25" fill="#000000" stroke="#000000" />
<polygon id="1552" points="543 66.25,547 78.5,552.5 91.25,593.25 72,586.5 53.75" fill="#000000" stroke="#000000" />
<polygon id="1553" points="553.25 90.75,558.25 103,564.25 113.5,603.25 90,593.5 72" fill="#000000" stroke="#000000" />
<polygon id="1554" points="564.5 113.75,569.5 123.5,577.75 133,613.75 105.75,603.75 90.25" fill="#000000" stroke="#000000" />
<polygon id="1555" points="589 124.5,602 142.25,626.75 122.5,614 105.5" fill="#000000" stroke="#000000" />
<polygon id="1556" points="609.75 168.75,619.5 178.5,629.75 186,656.5 149.25,640 135.5" fill="#000000" stroke="#000000" />
<polygon id="1557" points="629.25 186.5,645.25 197.25,669.25 157.75,656.5 148.75" fill="#000000" stroke="#000000" />
<polygon id="1558" points="646 197.25,662.5 205.75,682 164.75,669.25 157.5" fill="#000000" stroke="#000000" />
<polygon id="1559" points="662.75 205.75,678.75 213,696 171.5,682.5 164.5" fill="#000000" stroke="#000000" />
<polygon id="1560" points="678 213.75,696.25 220,709.5 176,695.25 171.25" fill="#000000" stroke="#000000" />
<polygon id="1561" points="696.5 220,721 227,725.75 205.25,703.25 199.75" fill="#000000" stroke="#000000" />
<polygon id="1562" points="709.75 176.25,724.5 180.25,719.25 204,703.25 199.5" fill="#000000" stroke="#000000" />
<polygon id="1563" points="725 179.5,740.75 183,736.5 207.75,719.5 203.75" fill="#000000" stroke="#000000" />
<polygon id="1600" points="737.5 300.5,754.5 301.5,753.5 333,734.5 330" fill="#000000" stroke="#000000" />
<polygon id="1601" points="720.75 298,716 329,735 331,737.25 300.25" fill="#000000" stroke="#000000" />
<polygon id="1602" points="704.75 295.25,698.5 325.5,716.25 329.25,721.25 298" fill="#000000" stroke="#000000" />
<polygon id="1603" points="689.5 291,682.5 320.75,699 325.5,705 295.25" fill="#000000" stroke="#000000" />
<polygon id="1604" points="674 287,664.75 315,682.5 320.5,689.5 290.75" fill="#000000" stroke="#000000" />
<polygon id="1605" points="659.25 281.25,648.25 309.5,665 315.25,674 287" fill="#000000" stroke="#000000" />
<polygon id="1606" points="643.75 275,631.5 303,648.5 310,659.5 281.25" fill="#000000" stroke="#000000" />
<polygon id="1607" points="629.25 268,615.75 295.5,631.5 303.25,644.75 275.25" fill="#000000" stroke="#000000" />
<polygon id="1608" points="615 260.5,599.5 287,616 296,629.5 268.25" fill="#000000" stroke="#000000" />
<polygon id="1609" points="602 252,584 277.25,599.75 287.5,615.75 261.25" fill="#000000" stroke="#000000" />
<polygon id="1610" points="588.25 243,570 267.75,585.25 278.75,602.75 253.5" fill="#000000" stroke="#000000" />
<polygon id="1611" points="574.25 232.5,555.25 255.5,570.25 269,588.5 243.25" fill="#000000" stroke="#000000" />
<polygon id="1612" points="555 256,529.25 287.25,546.75 301.75,569.75 269" fill="#000000" stroke="#000000" />
<polygon id="1613" points="569.25 268,546.5 302,562.25 313.25,585 279.25" fill="#000000" stroke="#000000" />
<polygon id="1614" points="585 277.25,599.5 287.75,579.25 323.25,560.75 311.75" fill="#000000" stroke="#000000" />
<polygon id="1615" points="599.25 287.25,615.5 295,597 332.75,579.5 323.25" fill="#000000" stroke="#000000" />
<polygon id="1616" points="615.25 295.75,631.25 303.25,615 341.25,597 333.5" fill="#000000" stroke="#000000" />
<polygon id="1617" points="631.5 303.5,648.25 309.5,632.75 348.5,614.5 341.25" fill="#000000" stroke="#000000" />
<polygon id="1618" points="662 314.75,650.5 343.5,654.5 348,651.75 355,671.5 361.25,682 320.75" fill="#000000" stroke="#000000" />
<polygon id="1619" points="682.5 320.5,670.5 361.75,691.25 365.25,699 326" fill="#000000" stroke="#000000" />
<polygon id="1620" points="699.25 325.25,690.75 365.5,711.75 369.5,716 329.5" fill="#000000" stroke="#000000" />
<polygon id="1621" points="716.5 329.25,713.25 358.5,731.25 360.75,733.5 331" fill="#000000" stroke="#000000" />
<polygon id="1622" points="734 330.75,732 361.5,751.75 362.25,753.5 332.25" fill="#000000" stroke="#000000" />
<polygon id="1282" points="434.25 37.75,433.75 61.5,445.5 62.25,467 57.75,465.25 37.25" fill="#000000" stroke="#000000" />
<polygon id="640-16" points="412 37.25,412.5 67.75,429.25 68,428.75 61.25,434 61,433.5 37.25" fill="#000000" stroke="#000000" />
<polygon id="640-17" points="381 37,381.25 52.25,401.25 53.25,401.25 38" fill="#000000" stroke="#000000" />
<polygon id="640-18" points="351.75 38.25,352.5 102.75,381 102.25,381 37.25" fill="#000000" stroke="#000000" />
<polygon id="640-19" points="336.5 38,336.25 77.25,352.25 77.5,352 38.25" fill="#000000" stroke="#000000" />
<polygon id="640-20" points="321.5 37.75,322.5 52.5,313 53.75,313.75 82.5,329.25 83,328.75 77,337.75 78,335.25 38.25" fill="#000000" stroke="#000000" />
<polygon id="640-21" points="277.5 37.5,292 37.5,292 52,300.5 52.75,300.5 82.25,277 82.75" fill="#000000" stroke="#000000" />
<polygon id="640-22" points="262 38,262 82.75,277.5 83.25,277.25 37.75" fill="#000000" stroke="#000000" />
<polygon id="640-23" points="232.25 37.75,232 53.5,252.25 52.75,252.25 37.5" fill="#000000" stroke="#000000" />
<polygon id="640-24" points="217.25 38,216.75 83.25,232.25 83,231.75 37.5" fill="#000000" stroke="#000000" />
<polygon id="640-25" points="202.25 38,202 83,217.25 83.25,217.25 37.5" fill="#000000" stroke="#000000" />
<polygon id="640-26" points="172.25 37.5,172.75 102.5,202.25 103,201.75 37.75" fill="#000000" stroke="#000000" />
<polygon id="640-27" points="157.75 51.5,157.5 82.75,173 82.75,172 51" fill="#000000" stroke="#000000" />
<polygon id="640-28" points="132.25 52.25,131.25 83.25,158 82.75,157.5 51.25" fill="#000000" stroke="#000000" />
<polygon id="640-29" points="83 51.75,82.75 67.75,114.5 68.25,113.75 51.75" fill="#000000" stroke="#000000" />
<polygon id="462-22" points="30.25 72.25,30 93.25,42.5 106.25,52.75 105.75,53.25 113,83.75 113.25,84.25 74,75.25 73.25,62 59,43.75 58.75" fill="#000000" stroke="#000000" />
<polygon id="462-23" points="53 127.5,53 142.5,83 142.25,82.5 127.75" fill="#000000" stroke="#000000" />
<polygon id="462-24" points="52.5 142.5,53 157.5,82.5 157.75,82.75 141.75" fill="#000000" stroke="#000000" />
<polygon id="462-25" points="53 157.5,53.25 172.5,83 173,82 158" fill="#000000" stroke="#000000" />
<polygon id="462-26" points="53.25 186.75,53.25 203,83.75 203,83.75 187" fill="#000000" stroke="#000000" />
<polygon id="462-27" points="53 202.75,53 217,83.5 217,83.5 202.75" fill="#000000" stroke="#000000" />
<polygon id="462-28" points="53 217,53 232.25,83.75 232.25,83.75 216.75" fill="#000000" stroke="#000000" />
<polygon id="462-29" points="52.75 231.75,53.5 247,83.25 246.75,84 232.5" fill="#000000" stroke="#000000" />
<polygon id="462-30" points="53 246.25,53 262,77.75 262.5,77 247.5" fill="#000000" stroke="#000000" />
<polygon id="462-31" points="52.75 321.5,52.75 337.25,83 337.25,83 320.5" fill="#000000" stroke="#000000" />
<polygon id="462-32" points="53 337.25,53.25 352,83.5 352,82.75 337.5" fill="#000000" stroke="#000000" />
<polygon id="462-33" points="53 351,53 366.75,82.75 367,83.25 351.25" fill="#000000" stroke="#000000" />
<polygon id="462-34" points="53 366.75,52.5 381.5,83 381.5,82.75 367" fill="#000000" stroke="#000000" />
</svg>
