<?xml version="1.0" encoding="UTF-8" standalone="no"?>
<!-- Created with Inkscape (http://www.inkscape.org/) -->

<svg xmlns:dc="http://purl.org/dc/elements/1.1/" xmlns:cc="http://creativecommons.org/ns#" xmlns:rdf="http://www.w3.org/1999/02/22-rdf-syntax-ns#" xmlns:svg="http://www.w3.org/2000/svg" xmlns="http://www.w3.org/2000/svg" xmlns:xlink="http://www.w3.org/1999/xlink" xmlns:sodipodi="http://sodipodi.sourceforge.net/DTD/sodipodi-0.dtd" xmlns:inkscape="http://www.inkscape.org/namespaces/inkscape" width="770" height="800" id="svg2" version="1.1" inkscape:version="0.47pre4 " sodipodi:docname="test.svg" style="display:inline" stroke="#000000">
<defs id="defs4">
<inkscape:perspective sodipodi:type="inkscape:persp3d" inkscape:vp_x="0 : 526.18109 : 1" inkscape:vp_y="0 : 1000 : 0" inkscape:vp_z="744.09448 : 526.18109 : 1" inkscape:persp3d-origin="372.04724 : 350.78739 : 1" id="perspective10" />
<inkscape:perspective id="perspective2832" inkscape:persp3d-origin="0.5 : 0.33333333 : 1" inkscape:vp_z="1 : 0.5 : 1" inkscape:vp_y="0 : 1000 : 0" inkscape:vp_x="0 : 0.5 : 1" sodipodi:type="inkscape:persp3d" />
<script type="text/ecmascript" id="script6">
		var fdat="",sdat="";
		function onAreaOver(evt){
			var ele=evt.target; 
			fdat=ele.getAttribute('fill'); 
			sdat=ele.getAttribute('stroke');
			ele.setAttribute('fill','#006fb6');//多边形填充颜色
			ele.setAttribute('stroke','#006fb6');//stroke 多边形 边框颜色
			
		}
		function onAreaOut(evt){
			var ele=evt.target; 
			ele.setAttribute('fill',fdat);
			ele.setAttribute('stroke',sdat);
		}
		</script>
<symbol overflow="visible" id="symbol" style="overflow:visible">
<path d="m 626,156 2,-2 2,-4 0,-3 -1,-3 -4,-3 -6,-3 -5,-2 -4,-2 -4,8 -6,14" id="path9" style="fill:#000000;stroke:none" />
</symbol>
</defs>
<sodipodi:namedview id="base" pagecolor="#ffffff" bordercolor="#666666" borderopacity="1.0" inkscape:pageopacity="0.0" inkscape:pageshadow="2" inkscape:zoom="5.6" inkscape:cx="583.1007" inkscape:cy="273.63795" inkscape:document-units="px" inkscape:current-layer="svg2" showgrid="false" inkscape:window-width="1280" inkscape:window-height="740" inkscape:window-x="-4" inkscape:window-y="-4" inkscape:window-maximized="1" />
<metadata id="metadata7">
<rdf:RDF>
<cc:Work>
<dc:format>
				image/svg+xml</dc:format>
<dc:type rdf:resource="http://purl.org/dc/dcmitype/StillImage" />
<dc:title>
</dc:title>
</cc:Work>
</rdf:RDF>
</metadata>
<image xlink:href="qdchengyang_mall_2f_c.png" width="770" height="800" id="image2834" x="-485" y="255.93361" transform="translate(485,-255.9336)" inkscape:label="Layer 1" inkscape:groupmode="layer" style="display:inline" />
<polygon id="2273" points="399.5 -9,400.5 13,448.5 10,447 -7.5" fill="#000000" stroke="#000000" xmlns="http://www.w3.org/2000/svg" />
<polygon id="2274" points="400.5 12.5,401 32.5,450.5 27,449.5 10" fill="#000000" stroke="#000000" />
<polygon id="2275" points="401 32.5,404.5 53,419 54,452.5 44,450.5 27.5" fill="#000000" stroke="#000000" />
<polygon id="2276" points="410 63.5,410.5 83.5,437.5 83.5,459 75.5,454 51" fill="#000000" stroke="#000000" />
<polygon id="2277" points="411 83,411 103,452.5 101,461 100.5,465 92.5,460.5 76.5,438 83.5" fill="#000000" stroke="#000000" />
<polygon id="2278" points="381 67,381 102.5,402 102.5,402 68.5" fill="#000000" stroke="#000000" />
<polygon id="2279" points="351.5 52.5,351.5 102.5,381.5 102.5,381.5 51.5" fill="#000000" stroke="#000000" />
<polygon id="2280" points="336.5 52,336.5 103,351.5 103,351.5 51.5" fill="#000000" stroke="#000000" />
<polygon id="2281" points="321.5 51.5,321.5 93.5,330.5 102,337 102.5,335.5 51" fill="#000000" stroke="#000000" />
<polygon id="2282" points="306.5 52.5,307 90,320.5 93,321 51.5" fill="#000000" stroke="#000000" />
<polygon id="2283" points="292.5 93.5,306.5 89,306 51.5,291.5 51.5" fill="#000000" stroke="#000000" />
<polygon id="2284" points="277 84,277 102.25,284 102.5,292 94,291.75 83.75" fill="#000000" stroke="#000000" />
<polygon id="2285" points="261.75 83.75,262 102.5,276.75 102.75,277 84" fill="#000000" stroke="#000000" />
<polygon id="2286" points="231.25 71.75,231.5 101.75,254.5 102.25,253.75 72.25" fill="#000000" stroke="#000000" />
<polygon id="2287" points="217 52,217.25 102,231.25 102,230.75 52" fill="#000000" stroke="#000000" />
<polygon id="2288" points="202 51.75,202 102.5,217.25 102,217 51.75" fill="#000000" stroke="#000000" />
<polygon id="2289" points="186.75 51.5,186.75 102.5,201.5 102.75,201.25 51.5" fill="#000000" stroke="#000000" />
<polygon id="2290" points="172 51.75,172 103,186 102.75,186.25 51.75" fill="#000000" stroke="#000000" />
<polygon id="2291" points="157.25 51.75,157 102.75,172.25 102.75,172 51.5" fill="#000000" stroke="#000000" />
<polygon id="2292" points="131.75 51.75,131.25 83.75,156.75 83.25,157 51.5" fill="#000000" stroke="#000000" />
<polygon id="2293" points="82.5 51.75,82.25 67.5,115.5 68,115 52" fill="#000000" stroke="#000000" />
<polygon id="2294" points="81.75 68,81.75 83.5,115 83.25,115.75 68.5" fill="#000000" stroke="#000000" />
<polygon id="2295" points="30 73.5,43.25 61,60.75 60.5,74.75 73.5,82 74,83 113.25,53.5 113.25,53 105.75,42.75 105,29.5 93.25" fill="#000000" stroke="#000000" />
<polygon id="2296" points="52.75 113.5,52.75 128.5,82.25 128.75,82.25 113" fill="#000000" stroke="none" stroke-opacity="0" />
<polygon id="2297" points="52.75 127.5,52.75 143.25,83 143.25,83 127.25" fill="#000000" stroke="none" stroke-opacity="0" />
<polygon id="2298" points="53.25 142.75,53 157.75,81.75 157.5,81.75 141.5" fill="#000000" stroke="none" stroke-opacity="0" />
<polygon id="2299" points="52.75 157.5,52.25 172.75,83.25 173,82 157.5" fill="#000000" stroke="none" stroke-opacity="0" />
<polygon id="2300" points="157 134.75,156.75 169.5,169 169,169 134.75" fill="#000000" stroke="none" stroke-opacity="0" />
<polygon id="2301" points="172 134.75,172 163,188.25 163,187.25 135" fill="#000000" stroke="none" stroke-opacity="0" />
<polygon id="2302" points="187.25 134.75,217.25 135,217.5 173.75,202.5 173,202 144,187.75 143.5" fill="#000000" stroke="none" stroke-opacity="0" />
<polygon id="2303" points="217 135,231.75 135,232.25 173.25,217 172.5" fill="#000000" stroke="none" stroke-opacity="0" />
<polygon id="2304" points="232.25 166.75,247.5 167.25,246.75 134.75,231.25 135" fill="#000000" stroke="none" stroke-opacity="0" />
<polygon id="2305" points="246.5 134.75,247.25 167.75,261.5 167.75,261.5 134.5" fill="#000000" stroke="none" stroke-opacity="0" />
<polygon id="2306" points="273 134.75,273 157.25,286 157.25,286 134.25" fill="#000000" stroke="none" stroke-opacity="0" />
<polygon id="2307" points="321 143,329.75 142.75,329.75 135,351.5 135,351.5 169,321.5 169" fill="#000000" stroke="none" stroke-opacity="0" />
<polygon id="2308" points="351.5 134.75,351.5 173.25,366.75 173.25,366.75 134.75" fill="#000000" stroke="none" stroke-opacity="0" />
<polygon id="2309" points="366.5 134.75,366.5 173.25,381.75 173.25,381.75 134.5" fill="#000000" stroke="none" stroke-opacity="0" />
<polygon id="2310" points="381.5 134.75,396.25 134.75,396.25 173.25,381.5 173.25" fill="#000000" stroke="none" stroke-opacity="0" />
<polygon id="2311" points="395.75 134.5,395.75 172.75,412 172.75,412 134.25" fill="#000000" stroke="none" stroke-opacity="0" />
<polygon id="2312" points="411.75 135,432.5 135,432.5 151.75,412 151.75" fill="#000000" stroke="none" stroke-opacity="0" />
<polygon id="2313" points="440.75 134.5,440.75 158.25,471.25 158.25,471.25 135" fill="#000000" stroke="none" stroke-opacity="0" />
<polygon id="2314" points="471.25 140.5,485.25 140.5,501 168.25,485.5 179.25,470.5 172" fill="#000000" stroke="none" stroke-opacity="0" />
<polygon id="2315" points="505.75 206.75,523.75 227.25,536 213.5,520 194.5" fill="#000000" stroke="none" stroke-opacity="0" />
<polygon id="2578" points="753.25 313.5,769.75 314,770 365,750.25 364" fill="#000000" stroke="#000000" />
<polygon id="2579" points="736 312.75,730.5 362.5,750 364.25,753 313.75" fill="#000000" stroke="#000000" />
<polygon id="2580" points="719.5 310.25,711 361.75,730.5 363,736 312.5" fill="#000000" stroke="#000000" />
<polygon id="2581" points="703 307.5,719 310,710.75 360.25,693 356.25" fill="#000000" stroke="#000000" />
<polygon id="2582" points="686.75 303.5,702.25 307.5,692.25 356.25,673.5 352.25" fill="#000000" stroke="#000000" />
<polygon id="2583" points="651 344.25,673.25 351.75,686.75 303.25,669 297.75" fill="#000000" stroke="#000000" />
<polygon id="2584" points="661 295.5,654.75 311.5,648 310.5,637 339.75,618.25 330.75,601.5 323.5,624.25 280,641.75 287.5" fill="#000000" stroke="#000000" />
<polygon id="2585" points="584.75 313.75,601.5 324,624.25 279.5,610 271.5" fill="#000000" stroke="#000000" />
<polygon id="2586" points="568.25 303.5,584.5 313.75,609.5 271.75,594.5 262.5" fill="#000000" stroke="#000000" />
<polygon id="2587" points="580.5 253,595.25 263.25,568 304,552.5 292.5" fill="#000000" stroke="#000000" />
<polygon id="2588" points="536 281,552.25 292.25,581 253.5,567.75 243" fill="#000000" stroke="#000000" />
<polygon id="2589" points="555.25 232,568 242.75,535.75 281.25,522.75 269" fill="#000000" stroke="#000000" />
<polygon id="2590" points="507.75 254.75,522.5 268.5,555.25 230.75,542.25 219.25" fill="#000000" stroke="#000000" />
<polygon id="2477" points="708.25 224.5,721.5 227.25,714.75 256.5,700.5 252.5" fill="#000000" stroke="#000000" />
<polygon id="2478" points="696 220.25,708 224.5,700 252.5,686.5 248.75" fill="#000000" stroke="#000000" />
<polygon id="2479" points="673.5 243.75,686.25 249,696 220.25,684.25 217.25" fill="#000000" stroke="#000000" />
<polygon id="2480" points="673 211.25,684.75 217.25,673 244,660.75 237.25" fill="#000000" stroke="#000000" />
<polygon id="2481" points="661.25 206,672.75 212,660.5 238.25,648 232" fill="#000000" stroke="#000000" />
<polygon id="2482" points="650.25 200,661.25 206.25,647.75 232.25,636 225.75" fill="#000000" stroke="#000000" />
<polygon id="2483" points="620.75 198.75,636 208.75,628.5 222,611.25 209.75" fill="#000000" stroke="#000000" />
<polygon id="2484" points="630.25 149,646.5 163,611 210.5,590 192.25" fill="#000000" stroke="#000000" />
<polygon id="2485" points="601 162,609.75 171,590 192.25,580.5 182.5" fill="#000000" stroke="#000000" />
<polygon id="2486" points="569.5 172.25,580.25 183.75,601 162,591.75 152.25" fill="#000000" stroke="#000000" />
<polygon id="2487" points="561.25 162,569.5 172.5,592.25 152.75,583.75 143.25" fill="#000000" stroke="#000000" />
<polygon id="2488" points="552.25 150.5,561 162.5,583.75 143.75,576.5 133.25" fill="#000000" stroke="#000000" />
<polygon id="2489" points="550.25 119.25,549 130.75,546.25 141.5,552 150.5,576.5 133.25,562.5 111.5" fill="#000000" stroke="#000000" />
<polygon id="2490" points="518 87,528.75 91.25,538.25 97,552.25 90.75,542.25 66.75,514.5 76.25" fill="#000000" stroke="#000000" />
<polygon id="2491" points="508.75 56.75,511.5 68,514.75 75.5,525.5 72.25,519.75 54.25" fill="#000000" stroke="#000000" />
<polygon id="2492" points="505.25 35,505.75 43.25,508.75 50.25,536.25 43.5,533.75 30.25" fill="#000000" stroke="#000000" />
<polygon id="2493" points="502 13.5,502.75 24.75,505.25 35,534 30.75,532 11" fill="#000000" stroke="#000000" />
<polygon id="2540" points="713.5 225.75,723.5 228,732.25 224.75,736.25 211.75,738 200.25,721 197.25" fill="#000000" stroke="#000000" xmlns="http://www.w3.org/2000/svg" />
<polygon id="2541" points="705.25 192.5,696 220.25,713.5 225.5,720.75 197.25" fill="#000000" stroke="#000000" xmlns="http://www.w3.org/2000/svg" />
<polygon id="2542" points="689.75 187,678 214,685.75 218.25,696 220.25,705.5 192.25" fill="#000000" stroke="#000000" xmlns="http://www.w3.org/2000/svg" />
<polygon id="2543" points="662 205.5,677.75 214.25,690.5 186.5,675.25 180" fill="#000000" stroke="#000000" xmlns="http://www.w3.org/2000/svg" />
<polygon id="2544" points="650 199.5,664.5 174.5,675.25 180,661.75 206.5" fill="#000000" stroke="#000000" xmlns="http://www.w3.org/2000/svg" />
<polygon id="2545" points="628.75 186,643.5 197.25,658.25 170.5,647.5 163.25" fill="#000000" stroke="#000000" xmlns="http://www.w3.org/2000/svg" />
<polygon id="2546" points="601.25 161.5,621.75 141,629.5 149,610.25 170.5" fill="#000000" stroke="#000000" xmlns="http://www.w3.org/2000/svg" />
<polygon id="2547" points="588.5 124.75,594.75 134.25,602.25 141.75,612.25 132.5,600.75 116.5" fill="#000000" stroke="#000000" xmlns="http://www.w3.org/2000/svg" />
<polygon id="2548" points="563 111,588.25 96.5,593.5 106.75,600.5 116.25,577.5 133" fill="#000000" stroke="#000000" xmlns="http://www.w3.org/2000/svg" />
<polygon id="2549" points="542.75 66.5,552.25 91,578.5 79,570.75 57.75" fill="#000000" stroke="#000000" xmlns="http://www.w3.org/2000/svg" />
<polygon id="2550" points="538.5 55.75,541.75 67,570.75 58,566.75 47.25" fill="#000000" stroke="#000000" xmlns="http://www.w3.org/2000/svg" />
<polygon id="2551" points="536.5 43,538.75 55.25,567 47.5,564.75 36.5" fill="#000000" stroke="#000000" xmlns="http://www.w3.org/2000/svg" />
<polygon id="2552" points="534.5 30.5,562.5 26,565.5 36.25,536.5 42.5" fill="#000000" stroke="#000000" xmlns="http://www.w3.org/2000/svg" />
<polygon id="2553" points="532.5 12,534.5 31,562.75 26.5,561.5 9" fill="#000000" stroke="#000000" xmlns="http://www.w3.org/2000/svg" />
<polygon id="2316" points="51.5 173,52 383.5,382 384.5,382 367.5,400.5 367,401 382,416 393,437 393.5,453 378.5,453 358,442 345,442.5 293,470.5 294,529.5 232,486.5 178.5,471.5 171.5" fill="#000000" stroke="#000000" xmlns="http://www.w3.org/2000/svg" />
</svg>
