<?xml version="1.0" encoding="UTF-8" standalone="no"?>
<!-- Created with Inkscape (http://www.inkscape.org/) -->

<svg xmlns:dc="http://purl.org/dc/elements/1.1/" xmlns:cc="http://creativecommons.org/ns#" xmlns:rdf="http://www.w3.org/1999/02/22-rdf-syntax-ns#" xmlns:svg="http://www.w3.org/2000/svg" xmlns="http://www.w3.org/2000/svg" xmlns:xlink="http://www.w3.org/1999/xlink" xmlns:sodipodi="http://sodipodi.sourceforge.net/DTD/sodipodi-0.dtd" xmlns:inkscape="http://www.inkscape.org/namespaces/inkscape" width="770" height="250" id="svg2" version="1.1" inkscape:version="0.47pre4 " sodipodi:docname="test.svg" style="display:inline">
<defs id="defs4">
<inkscape:perspective sodipodi:type="inkscape:persp3d" inkscape:vp_x="0 : 526.18109 : 1" inkscape:vp_y="0 : 1000 : 0" inkscape:vp_z="744.09448 : 526.18109 : 1" inkscape:persp3d-origin="372.04724 : 350.78739 : 1" id="perspective10" />
<inkscape:perspective id="perspective2832" inkscape:persp3d-origin="0.5 : 0.33333333 : 1" inkscape:vp_z="1 : 0.5 : 1" inkscape:vp_y="0 : 1000 : 0" inkscape:vp_x="0 : 0.5 : 1" sodipodi:type="inkscape:persp3d" />
<script type="text/ecmascript" id="script6">
		var fdat="",sdat="";
		function onAreaOver(evt){
			var ele=evt.target; 
			fdat=ele.getAttribute('fill'); 
			sdat=ele.getAttribute('stroke');
			ele.setAttribute('fill','#006fb6');//多边形填充颜色
			ele.setAttribute('stroke','#006fb6');//stroke 多边形 边框颜色
			
		}
		function onAreaOut(evt){
			var ele=evt.target; 
			ele.setAttribute('fill',fdat);
			ele.setAttribute('stroke',sdat);
		}
		</script>
<symbol overflow="visible" id="symbol" style="overflow:visible">
<path d="m 626,156 2,-2 2,-4 0,-3 -1,-3 -4,-3 -6,-3 -5,-2 -4,-2 -4,8 -6,14" id="path9" style="fill:#000000;stroke:none" />
</symbol>
</defs>
<sodipodi:namedview id="base" pagecolor="#ffffff" bordercolor="#666666" borderopacity="1.0" inkscape:pageopacity="0.0" inkscape:pageshadow="2" inkscape:zoom="5.6" inkscape:cx="583.1007" inkscape:cy="273.63795" inkscape:document-units="px" inkscape:current-layer="svg2" showgrid="false" inkscape:window-width="1280" inkscape:window-height="740" inkscape:window-x="-4" inkscape:window-y="-4" inkscape:window-maximized="1" />
<metadata id="metadata7">
<rdf:RDF>
<cc:Work>
<dc:format>
image/svg+xml</dc:format>
<dc:type rdf:resource="http://purl.org/dc/dcmitype/StillImage" />
<dc:title>
</dc:title>
</cc:Work>
</rdf:RDF>
</metadata>
<image xlink:href="bengbu_b_blm.jpg" width="770" height="250" id="image2834" x="-485" y="255.93361" transform="translate(485,-255.9336)" inkscape:label="Layer 1" inkscape:groupmode="layer" style="display:inline" />
<polygon id="B-11" points="697 97,697 128.5,714 128.5,714 96.5" fill="#000000" stroke="none" stroke-opacity="0" />
<polygon id="B-12" points="675 96.5,675 127.5,693 127.5,693 96.5" fill="#000000" stroke="none" stroke-opacity="0" />
<polygon id="B-13" points="632 96.5,632 129,649 129,649 96" fill="#000000" stroke="none" stroke-opacity="0" />
<polygon id="B-14" points="502 96.5,502 128.5,519.5 128.5,519.5 96.5" fill="#000000" stroke="none" stroke-opacity="0" />
<polygon id="B-15" points="459 96.5,459 128.5,475.5 128.5,475.5 96" fill="#000000" stroke="none" stroke-opacity="0" />
<polygon id="B-16" points="404.5 96.5,404.5 127.5,413.5 127.5,413.5 96.5" fill="#000000" stroke="none" stroke-opacity="0" />
<polygon id="B-17" points="390.5 96.5,390.5 129,400 129,400 96" fill="#000000" stroke="none" stroke-opacity="0" />
<polygon id="B-18" points="259 97,259 128.5,269 128.5,269 97" fill="#000000" stroke="none" stroke-opacity="0" />
<polygon id="B-19" points="245 97,245 127.5,254.5 127.5,254.5 97" fill="#000000" stroke="none" stroke-opacity="0" />
<polygon id="B-20" points="73.5 97,73.5 128.5,91.5 128.5,91.5 97" fill="#000000" stroke="none" stroke-opacity="0" />
<polygon id="B-21" points="53 96.5,53 128.5,70 128.5,70 96.5" fill="#000000" stroke="none" stroke-opacity="0" />
<polygon id="B-22" points="37 96,37 128,50.5 128,50.5 96" fill="#000000" stroke="none" stroke-opacity="0" />
</svg>

