<?xml version="1.0" encoding="UTF-8" standalone="no"?>
<!-- Created with Inkscape (http://www.inkscape.org/) -->

<svg xmlns:dc="http://purl.org/dc/elements/1.1/" xmlns:cc="http://creativecommons.org/ns#" xmlns:rdf="http://www.w3.org/1999/02/22-rdf-syntax-ns#" xmlns:svg="http://www.w3.org/2000/svg" xmlns="http://www.w3.org/2000/svg" xmlns:xlink="http://www.w3.org/1999/xlink" xmlns:sodipodi="http://sodipodi.sourceforge.net/DTD/sodipodi-0.dtd" xmlns:inkscape="http://www.inkscape.org/namespaces/inkscape" width="770" height="800" id="svg2" version="1.1" inkscape:version="0.47pre4 " sodipodi:docname="test.svg" style="display:inline" stroke="#000000">
<defs id="defs4">
<inkscape:perspective sodipodi:type="inkscape:persp3d" inkscape:vp_x="0 : 526.18109 : 1" inkscape:vp_y="0 : 1000 : 0" inkscape:vp_z="744.09448 : 526.18109 : 1" inkscape:persp3d-origin="372.04724 : 350.78739 : 1" id="perspective10" />
<inkscape:perspective id="perspective2832" inkscape:persp3d-origin="0.5 : 0.33333333 : 1" inkscape:vp_z="1 : 0.5 : 1" inkscape:vp_y="0 : 1000 : 0" inkscape:vp_x="0 : 0.5 : 1" sodipodi:type="inkscape:persp3d" />
<script type="text/ecmascript" id="script6">
		var fdat="",sdat="";
		function onAreaOver(evt){
			var ele=evt.target; 
			fdat=ele.getAttribute('fill'); 
			sdat=ele.getAttribute('stroke');
			ele.setAttribute('fill','#006fb6');//多边形填充颜色
			ele.setAttribute('stroke','#006fb6');//stroke 多边形 边框颜色
			
		}
		function onAreaOut(evt){
			var ele=evt.target; 
			ele.setAttribute('fill',fdat);
			ele.setAttribute('stroke',sdat);
		}
		</script>
<symbol overflow="visible" id="symbol" style="overflow:visible">
<path d="m 626,156 2,-2 2,-4 0,-3 -1,-3 -4,-3 -6,-3 -5,-2 -4,-2 -4,8 -6,14" id="path9" style="fill:#000000;stroke:none" />
</symbol>
</defs>
<sodipodi:namedview id="base" pagecolor="#ffffff" bordercolor="#666666" borderopacity="1.0" inkscape:pageopacity="0.0" inkscape:pageshadow="2" inkscape:zoom="5.6" inkscape:cx="583.1007" inkscape:cy="273.63795" inkscape:document-units="px" inkscape:current-layer="svg2" showgrid="false" inkscape:window-width="1280" inkscape:window-height="740" inkscape:window-x="-4" inkscape:window-y="-4" inkscape:window-maximized="1" />
<metadata id="metadata7">
<rdf:RDF>
<cc:Work>
<dc:format>
				image/svg+xml</dc:format>
<dc:type rdf:resource="http://purl.org/dc/dcmitype/StillImage" />
<dc:title>
</dc:title>
</cc:Work>
</rdf:RDF>
</metadata>
<image xlink:href="qdchengyang_mall_3f_d.png" width="770" height="800" id="image2834" x="-485" y="255.93361" transform="translate(485,-255.9336)" inkscape:label="Layer 1" inkscape:groupmode="layer" style="display:inline" />
<polygon id="3317" points="50 310.5,57.5 359,66 357.5,70 360.5,77.5 358.5,67 307" fill="#000000" stroke="#000000" />
<polygon id="3318" points="67.5 306.5,83.5 303,95.5 350.5,87 352.5,84.5 357,78 358.5" fill="#000000" stroke="#000000" />
<polygon id="3319" points="84 303,101.5 298,119.5 346.5,109 351,104 349,96 350.5" fill="#000000" stroke="#000000" />
<polygon id="3320" points="109 295.5,145.5 279,168 322.5,159.5 326,158 331.5,146.5 337.5,140.5 335,132 338,121.5 309.5,115 311.5" fill="#000000" stroke="#000000" />
<polygon id="3321" points="151.5 275,163 299.5,174 294.5,187 316.5,193 312.5,194 307.5,202 303,174.5 261.5" fill="#000000" stroke="#000000" />
<polygon id="3322" points="175 261.5,188.5 252.5,219.5 295,214 299.5,208.5 298.5,202.5 302.5" fill="#000000" stroke="#000000" />
<polygon id="3323" points="189 252,202 242,232 281,226 285.5,225.5 291.5,220.5 295" fill="#000000" stroke="#000000" />
<polygon id="3324" points="202 241.5,214.5 231.5,250 270.5,245.5 276,239.5 275.5,232.5 280.5" fill="#000000" stroke="#000000" />
<polygon id="3325" points="214.5 231,250.5 270.5,255 266,255 260.5,261 254.5,238.5 234,236.5 236.5,223 223.5" fill="#000000" stroke="#000000" />
<polygon id="3326" points="237.5 209,250.5 222.5,263.5 206.5,249 195" fill="#000000" stroke="#000000" />
<polygon id="3327" points="269 167,287.5 135,298.5 135,297.5 168,290 168,284 178" fill="#000000" stroke="#000000" />
<polygon id="3328" points="299 135,313 135,313 172,298 172" fill="#000000" stroke="#000000" />
<polygon id="3329" points="314 160.5,328 161,328.5 134.5,314.5 135.5" fill="#000000" stroke="#000000" />
<polygon id="3330" points="338 135,358 134.5,358 160.5,337.5 160" fill="#000000" stroke="#000000" />
<polygon id="3331" points="359 134.5,373 134.5,373 172,358 172" fill="#000000" stroke="#000000" />
<polygon id="3332" points="373.5 134.5,388 135,388 172,373.5 172" fill="#000000" stroke="#000000" />
<polygon id="3333" points="388.5 135,403 135,403 172,389 172" fill="#000000" stroke="#000000" />
<polygon id="3334" points="403.5 135,418 135,418 172,403.5 172" fill="#000000" stroke="#000000" />
<polygon id="3335" points="418.5 134.5,433.5 134.5,433.5 149,418.5 149" fill="#000000" stroke="#000000" />
<polygon id="3336" points="433.5 134,433.5 171.5,448 171.5,448 140.5,441.5 134" fill="#000000" stroke="#000000" />
<polygon id="3337" points="477.5 140.5,477.5 172,492 172,492 135,483 135" fill="#000000" stroke="#000000" />
<polygon id="3338" points="492.5 135,507 135,507 172.5,492 172.5" fill="#000000" stroke="#000000" />
<polygon id="3339" points="507.5 135,522 135,522 172.5,507.5 172.5" fill="#000000" stroke="#000000" />
<polygon id="3340" points="523 135,536.5 135,536.5 156,535 156,536 172.5,523 172.5" fill="#000000" stroke="#000000" />
<polygon id="3341" points="551.5 135.5,551.5 156.5,563.5 156.5,563.5 135" fill="#000000" stroke="#000000" />
<polygon id="3342" points="575.5 135,575.5 171.5,596 171.5,596 134.5" fill="#000000" stroke="#000000" />
<polygon id="3343" points="596.5 134.5,611 134.5,611 171.5,596 171.5" fill="#000000" stroke="#000000" />
<polygon id="3344" points="612 157.5,621.5 157.5,621.5 172.5,612 172.5" fill="#000000" stroke="#000000" />
<polygon id="3345" points="656 157.5,677.5 157.5,677.5 172.5,656.5 172.5" fill="#000000" stroke="#000000" />
<polygon id="3346" points="686.5 172,716.5 172,716.5 141.5,686 141.5" fill="#000000" stroke="#000000" />
<polygon id="3347" points="686 141,686 127.5,716 127.5,716 141.5" fill="#000000" stroke="#000000" />
<polygon id="3348" points="686 127,686 112.5,716 112.5,716 127" fill="#000000" stroke="#000000" />
<polygon id="3349" points="686.5 112.5,686.5 82.5,695 82.5,694.5 73,706.5 60.5,724.5 60.5,738 74,738 92.5,725 106,716.5 105.5,716 112.5" fill="#000000" stroke="#000000" />
<polygon id="3350" points="655.5 83,655.5 67.5,686.5 67.5,686.5 83" fill="#000000" stroke="#000000" />
<polygon id="3351" points="655.5 67,655.5 52,686 52,686 67" fill="#000000" stroke="#000000" />
<polygon id="3352" points="611.5 67.5,611.5 51.5,637 51.5,637 67.5" fill="#000000" stroke="#000000" />
<polygon id="3353" points="611.5 67.5,611.5 83.5,637 83.5,637 68" fill="#000000" stroke="#000000" />
<polygon id="3354" points="596.5 52.5,611 52.5,611 101,596 101" fill="#000000" stroke="#000000" />
<polygon id="3355" points="567 52.5,596 52.5,596 101.5,581 101.5,581 82.5,567 82.5" fill="#000000" stroke="#000000" />
<polygon id="3356" points="552 52.5,566 52.5,566 101.5,551.5 101.5" fill="#000000" stroke="#000000" />
<polygon id="3357" points="527 84,551 84,551 101,527 101" fill="#000000" stroke="#000000" />
<polygon id="3358" points="492 52,507 52,507 101,491.5 101" fill="#000000" stroke="#000000" />
<polygon id="3359" points="477 51.5,491.5 51.5,491.5 101,483 101.5,477.5 93.5" fill="#000000" stroke="#000000" />
<polygon id="3360" points="462.5 52,476.5 52,476.5 93,468 90,462.5 89.5" fill="#000000" stroke="#000000" />
<polygon id="3361" points="462 51.5,446.5 51.5,446.5 93.5,454.5 90,462 90" fill="#000000" stroke="#000000" />
<polygon id="3362" points="432 52,445.5 52,445.5 95.5,440 101.5,431.5 101" fill="#000000" stroke="#000000" />
<polygon id="3363" points="417.5 52.5,431.5 52.5,431.5 100.5,417.5 100.5" fill="#000000" stroke="#000000" />
<polygon id="3364" points="417.5 52,387.5 52,387.5 101,417.5 101" fill="#000000" stroke="#000000" />
<polygon id="3365" points="367 82.5,387 82.5,387 100.5,367 100.5" fill="#000000" stroke="#000000" />
<polygon id="3366" points="358 101,358 82.5,334.5 83,310 76.5,304.5 93,308 101.5" fill="#000000" stroke="#000000" />
<polygon id="3367" points="309.5 76,334.5 82.5,358 82.5,356.5 62,315 51.5" fill="#000000" stroke="#000000" />
<polygon id="3368" points="316.5 43.5,318.5 26.5,368 31.5,365.5 52,351.5 53.5" fill="#000000" stroke="#000000" />
<polygon id="3369" points="319 26,320 10,369 12,368 31" fill="#000000" stroke="#000000" />
<polygon id="3370" points="285.5 175.5,275.5 189.5,264 206.5,250 222,271 243,261 254,298 292,343 291.5,343.5 340.5,332 340.5,317.5 355,318 376.5,333 391.5,353.5 391.5,368 376.5,368.5 366.5,387.5 366,387.5 381.5,536.5 381.5,536.5 350.5,567.5 350.5,567.5 382.5,715.5 382.5,715.5 187,678.5 187,678.5 172.5,653 171.5,653 157,627 157.5,627 170.5,477.5 172.5,477.5 140,469 143.5,459.5 144.5,449 141,449 171,317 171,317 176.5" fill="#000000" stroke="none" stroke-opacity="0" />
<polygon id="3180" points="344 10.5,369.5 12,369.5 -12.5,368 -30,320 -29.5,320 -2.5,344.5 -2" fill="#000000" stroke="#000000" />
<polygon id="3484" points="53.75 225.75,54.75 230,49.75 231.25,54.75 255.5,69.25 252,61.75 223.5" fill="#000000" stroke="none" stroke-opacity="0" />
<polygon id="3485" points="61.75 223.5,73.75 220,82.75 247.75,69.25 251.75" fill="#000000" stroke="none" stroke-opacity="0" />
<polygon id="3486" points="85.25 232,89.75 245.5,99 241.75,109 237.25,103 224.25" fill="#000000" stroke="none" stroke-opacity="0" />
<polygon id="3487" points="103 224.25,114.5 218.25,121.75 231.25,109 237.25" fill="#000000" stroke="none" stroke-opacity="0" />
<polygon id="3488" points="114.5 218.25,126.75 212,133.75 224.25,122 231" fill="#000000" stroke="none" stroke-opacity="0" />
<polygon id="3489" points="126.75 212.5,142.5 202.25,150.75 214.75,134.25 224.5" fill="#000000" stroke="none" stroke-opacity="0" />
<polygon id="3490" points="122.5 162.75,140 148.25,179 191.75,169.75 200.5,157.5 209.75" fill="#000000" stroke="none" stroke-opacity="0" />
<polygon id="3491" points="173.25 175,186.75 161.5,198.75 172.5,184.25 187.25" fill="#000000" stroke="none" stroke-opacity="0" />
<polygon id="3492" points="177.25 152.5,185.5 143.5,208 161.25,198.75 172.75" fill="#000000" stroke="none" stroke-opacity="0" />
<polygon id="3493" points="185.75 143.5,193.25 133.75,216 150.5,208 161.75" fill="#000000" stroke="none" stroke-opacity="0" />
<polygon id="3494" points="193.25 133.75,207 111.75,219 118.5,219.25 126.5,220.75 135.5,223 141.5,216 150.5" fill="#000000" stroke="none" stroke-opacity="0" />
<polygon id="3495" points="226.5 67,217.5 90.75,230.5 96.75,235.25 92.5,244.25 88,251.25 86.75,254.75 75.75" fill="#000000" stroke="none" stroke-opacity="0" />
<polygon id="3496" points="249.25 54.5,260.25 56.5,254.75 75.5,244 72.25" fill="#000000" stroke="none" stroke-opacity="0" />
<polygon id="3497" points="233 43,235.25 30.25,264 35.75,263.25 42.75,262.25 49.5" fill="#000000" stroke="none" stroke-opacity="0" />
<polygon id="3498" points="252 12.75,251.75 25.75,266 27.25,267 13" fill="#000000" stroke="none" stroke-opacity="0" />
<polygon id="3542" points="48.75 196.5,55.75 225.25,47.25 227,38.75 224.5,34.5 218.25,32 200" fill="#000000" stroke="none" stroke-opacity="0" xmlns="http://www.w3.org/2000/svg" />
<polygon id="3543" points="48.75 196.5,64.5 192.25,73.75 220.25,55.75 225" fill="#000000" stroke="none" stroke-opacity="0" xmlns="http://www.w3.org/2000/svg" />
<polygon id="3544" points="64.25 192,79.5 186.25,85.5 199.5,69.5 206.25" fill="#000000" stroke="none" stroke-opacity="0" xmlns="http://www.w3.org/2000/svg" />
<polygon id="3545" points="79.75 186.75,94.75 179.25,101 192,85.5 199.25" fill="#000000" stroke="none" stroke-opacity="0" xmlns="http://www.w3.org/2000/svg" />
<polygon id="3546" points="94.75 179.25,104.25 174,111.25 186.25,101 192" fill="#000000" stroke="none" stroke-opacity="0" xmlns="http://www.w3.org/2000/svg" />
<polygon id="3547" points="104.25 174.25,116.5 166.5,133.5 190.75,119 200" fill="#000000" stroke="none" stroke-opacity="0" xmlns="http://www.w3.org/2000/svg" />
<polygon id="3548" points="140 148.5,147.75 140.75,168.5 162,159.5 170.5" fill="#000000" stroke="none" stroke-opacity="0" xmlns="http://www.w3.org/2000/svg" />
<polygon id="3549" points="157 131,169.75 115.75,180.75 124.5,167.5 140.75" fill="#000000" stroke="none" stroke-opacity="0" xmlns="http://www.w3.org/2000/svg" />
<polygon id="3550" points="169.75 116,193.25 134,200.25 123,175.25 107" fill="#000000" stroke="none" stroke-opacity="0" xmlns="http://www.w3.org/2000/svg" />
<polygon id="3551" points="175.25 107,181.75 97,207 111.75,200 123" fill="#000000" stroke="none" stroke-opacity="0" xmlns="http://www.w3.org/2000/svg" />
<polygon id="3552" points="190.75 79,217.75 91,222.25 78.75,195.5 68" fill="#000000" stroke="none" stroke-opacity="0" xmlns="http://www.w3.org/2000/svg" />
<polygon id="3553" points="195.75 68,199.25 57.75,226.75 66.75,222 78.5" fill="#000000" stroke="none" stroke-opacity="0" xmlns="http://www.w3.org/2000/svg" />
<polygon id="3554" points="199.25 57.75,202.75 47.25,230.5 54.5,226.75 67" fill="#000000" stroke="none" stroke-opacity="0" xmlns="http://www.w3.org/2000/svg" />
<polygon id="3555" points="202.75 47.25,204.75 36.75,233 42.75,230.5 54.5" fill="#000000" stroke="none" stroke-opacity="0" xmlns="http://www.w3.org/2000/svg" />
<polygon id="3556" points="205 37,206.75 25.75,235.25 30.25,232.75 42.75" fill="#000000" stroke="none" stroke-opacity="0" xmlns="http://www.w3.org/2000/svg" />
<polygon id="3557" points="208.75 9.25,237.75 11.25,235.5 30.5,207 26" fill="#000000" stroke="none" stroke-opacity="0" xmlns="http://www.w3.org/2000/svg" />
<polygon id="3558" points="209 9.5,208.5 -4.75,207.5 -22.25,267 -26.25,267.75 -6.25,267 13.25" fill="#000000" stroke="none" stroke-opacity="0" xmlns="http://www.w3.org/2000/svg" />
</svg>
