<?xml version="1.0" encoding="UTF-8" standalone="no"?>
<!-- Created with Inkscape (http://www.inkscape.org/) -->

<svg xmlns:dc="http://purl.org/dc/elements/1.1/" xmlns:cc="http://creativecommons.org/ns#" xmlns:rdf="http://www.w3.org/1999/02/22-rdf-syntax-ns#" xmlns:svg="http://www.w3.org/2000/svg" xmlns="http://www.w3.org/2000/svg" xmlns:xlink="http://www.w3.org/1999/xlink" xmlns:sodipodi="http://sodipodi.sourceforge.net/DTD/sodipodi-0.dtd" xmlns:inkscape="http://www.inkscape.org/namespaces/inkscape" width="770" height="800" id="svg2" version="1.1" inkscape:version="0.47pre4 " sodipodi:docname="test.svg" style="display:inline" stroke="#000000">
<defs id="defs4">
<inkscape:perspective sodipodi:type="inkscape:persp3d" inkscape:vp_x="0 : 526.18109 : 1" inkscape:vp_y="0 : 1000 : 0" inkscape:vp_z="744.09448 : 526.18109 : 1" inkscape:persp3d-origin="372.04724 : 350.78739 : 1" id="perspective10" />
<inkscape:perspective id="perspective2832" inkscape:persp3d-origin="0.5 : 0.33333333 : 1" inkscape:vp_z="1 : 0.5 : 1" inkscape:vp_y="0 : 1000 : 0" inkscape:vp_x="0 : 0.5 : 1" sodipodi:type="inkscape:persp3d" />
<script type="text/ecmascript" id="script6">
		var fdat="",sdat="";
		function onAreaOver(evt){
			var ele=evt.target; 
			fdat=ele.getAttribute('fill'); 
			sdat=ele.getAttribute('stroke');
			ele.setAttribute('fill','#006fb6');//多边形填充颜色
			ele.setAttribute('stroke','#006fb6');//stroke 多边形 边框颜色
			
		}
		function onAreaOut(evt){
			var ele=evt.target; 
			ele.setAttribute('fill',fdat);
			ele.setAttribute('stroke',sdat);
		}
		</script>
<symbol overflow="visible" id="symbol" style="overflow:visible">
<path d="m 626,156 2,-2 2,-4 0,-3 -1,-3 -4,-3 -6,-3 -5,-2 -4,-2 -4,8 -6,14" id="path9" style="fill:#000000;stroke:none" />
</symbol>
</defs>
<sodipodi:namedview id="base" pagecolor="#ffffff" bordercolor="#666666" borderopacity="1.0" inkscape:pageopacity="0.0" inkscape:pageshadow="2" inkscape:zoom="5.6" inkscape:cx="583.1007" inkscape:cy="273.63795" inkscape:document-units="px" inkscape:current-layer="svg2" showgrid="false" inkscape:window-width="1280" inkscape:window-height="740" inkscape:window-x="-4" inkscape:window-y="-4" inkscape:window-maximized="1" />
<metadata id="metadata7">
<rdf:RDF>
<cc:Work>
<dc:format>
				image/svg+xml</dc:format>
<dc:type rdf:resource="http://purl.org/dc/dcmitype/StillImage" />
<dc:title>
</dc:title>
</cc:Work>
</rdf:RDF>
</metadata>
<image xlink:href="qdchengyang_mall_2f_d.png" width="770" height="800" id="image2834" x="-485" y="255.93361" transform="translate(485,-255.9336)" inkscape:label="Layer 1" inkscape:groupmode="layer" style="display:inline" />
<polygon id="2317" points="321 9.5,321 -7,370.5 -7,369.5 13" fill="#000000" stroke="#000000" />
<polygon id="2318" points="321 9,319 26,367.5 31.5,369.5 13" fill="#000000" stroke="#000000" />
<polygon id="2319" points="319.5 26.5,317 44,351 53.5,365.5 53.5,367.5 32" fill="#000000" stroke="#000000" />
<polygon id="2320" points="315.5 52.5,351.5 61.5,358 61.5,358 82.5,333.5 83,310 76.5" fill="#000000" stroke="#000000" />
<polygon id="2321" points="310 76.5,333 83.5,358 83,358.5 102,309 102.5,305 93.5" fill="#000000" stroke="#000000" />
<polygon id="2322" points="368 68.5,388 68,388 101.5,368 102" fill="#000000" stroke="#000000" />
<polygon id="2323" points="388.5 52.5,388 101.5,418 101.5,417.5 52.5" fill="#000000" stroke="#000000" />
<polygon id="2324" points="418.5 52.5,433 52.5,433 101.5,418 101.5" fill="#000000" stroke="#000000" />
<polygon id="2325" points="433.5 52.5,449 52.5,449 94.5,441 101,432.5 101.5" fill="#000000" stroke="#000000" />
<polygon id="2326" points="450 52,463.5 52,463.5 90,449.5 94" fill="#000000" stroke="#000000" />
<polygon id="2327" points="464 52,478 52,478 93.5,464.5 90" fill="#000000" stroke="#000000" />
<polygon id="2328" points="479 52,479 95,486 102,492.5 102,492.5 52" fill="#000000" stroke="#000000" />
<polygon id="2329" points="493.5 52,508.5 52,508.5 102,493 102" fill="#000000" stroke="#000000" />
<polygon id="2330" points="528 84,553 84,553 102.5,527.5 102.5" fill="#000000" stroke="#000000" />
<polygon id="2331" points="553 53,567.5 53,567.5 101.5,553.5 101.5" fill="#000000" stroke="#000000" />
<polygon id="2332" points="568 52.5,598 52.5,598 101,568 101" fill="#000000" stroke="#000000" />
<polygon id="2333" points="598.5 52.5,612 52.5,612 102,598 102" fill="#000000" stroke="#000000" />
<polygon id="2334" points="612.5 67.5,638 67.5,638 83,613 83" fill="#000000" stroke="#000000" />
<polygon id="2335" points="613 67,613 51.5,638 51.5,638 67.5" fill="#000000" stroke="#000000" />
<polygon id="2336" points="657 52.5,688 52.5,688 68,656.5 68" fill="#000000" stroke="#000000" />
<polygon id="2337" points="656.5 68,688 68,688 83,656.5 83" fill="#000000" stroke="#000000" />
<polygon id="2338" points="688 84,688 113,718 113,718 105,726.5 105,739 92,739 73.5,726.5 60.5,707.5 60.5,695 73.5,688 73.5" fill="#000000" stroke="#000000" />
<polygon id="2339" points="687 113.5,718 113.5,718 128,687 128" fill="#000000" stroke="#000000" />
<polygon id="2340" points="687.5 128,718.5 128,718.5 143,687.5 143" fill="#000000" stroke="#000000" />
<polygon id="2341" points="687.5 142.5,687.5 172.5,717.5 172.5,717.5 143" fill="#000000" stroke="#000000" />
<polygon id="2342" points="657 158,657 173,679 173,679 157" fill="#000000" stroke="#000000" />
<polygon id="2343" points="613 157.5,627.5 157.5,627.5 172.5,612.5 172.5" fill="#000000" stroke="#000000" />
<polygon id="2344" points="597.5 135,597.5 172.5,612.5 172.5,612.5 135" fill="#000000" stroke="#000000" />
<polygon id="2345" points="576.5 135.5,576.5 173,597.5 173,597.5 134.5" fill="#000000" stroke="#000000" />
<polygon id="2346" points="553.5 135,553.5 157,565 157,565 135" fill="#000000" stroke="#000000" />
<polygon id="2347" points="538.5 135,538.5 156.5,552.5 156.5,552.5 134.5" fill="#000000" stroke="#000000" />
<polygon id="2348" points="538 134.5,538 173.5,523 173.5,523 135" fill="#000000" stroke="#000000" />
<polygon id="2349" points="523 135,523 173.5,508 173.5,508 135" fill="#000000" stroke="#000000" />
<polygon id="2350" points="508 135,508 172.5,493 172.5,493 135.5" fill="#000000" stroke="#000000" />
<polygon id="2351" points="492.5 135.5,492.5 173,478 173,478 142,484 135.5" fill="#000000" stroke="#000000" />
<polygon id="2352" points="442 135,449 141.5,449 173,433 173,433 135.5" fill="#000000" stroke="#000000" />
<polygon id="2353" points="433 135,433 173.5,418.5 173.5,418.5 135" fill="#000000" stroke="#000000" />
<polygon id="2354" points="418 135,403 135,403 172.5,418 172.5" fill="#000000" stroke="#000000" />
<polygon id="2355" points="388 135,388 173,403 173,403 134.5" fill="#000000" stroke="#000000" />
<polygon id="2356" points="388 135.5,372.5 135.5,372.5 172.5,388 172.5" fill="#000000" stroke="#000000" />
<polygon id="2357" points="359.5 135.5,359.5 173,372.5 173,372.5 136" fill="#000000" stroke="#000000" />
<polygon id="2358" points="338 135.5,338 161.5,358.5 161.5,358.5 135" fill="#000000" stroke="#000000" />
<polygon id="2359" points="314 135,314 160.5,329 160.5,329 136.5" fill="#000000" stroke="#000000" />
<polygon id="2360" points="313.5 135,299.5 135,299.5 172.5,314.5 172.5" fill="#000000" stroke="#000000" />
<polygon id="2361" points="299 135,288 135,269 168.5,284.5 179.5,291 169.5,299 169.5" fill="#000000" stroke="#000000" />
<polygon id="2362" points="251 222,264 207.5,287 176,314 177,314.5 172.5,449.5 172.5,449.5 141.5,459 145,469 145,477.5 141,477.5 173,627.5 173,627.5 156.5,654 156.5,654 172.5,679 172.5,679 187.5,716.5 187.5,716.5 382.5,568 382.5,568 351,532 351,532 384.5,387 384.5,387 367,369 367,369 377.5,354 392.5,333 392.5,318 379,318 355.5,332 341,368.5 341,368.5 321,343.5 321,343.5 291,299 291,261.5 253.5,271.5 243" fill="#000000" stroke="#000000" />
<polygon id="2461" points="208.5 9.5,208.5 -9,206.5 -27.5,268 -32.5,269 -7.5,267 13.5" fill="#000000" stroke="#000000" />
<polygon id="2462" points="238.5 12,236 30.5,264.5 35,267 14" fill="#000000" stroke="#000000" />
<polygon id="2463" points="235.5 31.5,233.5 43,262 49.5,264.5 35" fill="#000000" stroke="#000000" />
<polygon id="2464" points="246.5 54,242 71.5,255 76,260.5 57" fill="#000000" stroke="#000000" />
<polygon id="2465" points="227.5 68,218.5 90.5,231 97.5,241 90.5,252 86.5,255.5 77.5" fill="#000000" stroke="#000000" />
<polygon id="2466" points="207.5 112.5,219.5 119.5,220.5 132.5,223 142.5,217 151,193 133.5" fill="#000000" stroke="#000000" />
<polygon id="2467" points="193 133.5,186 144.5,208 162.5,217 152.5" fill="#000000" stroke="#000000" />
<polygon id="2468" points="185 144.5,207.5 163,199.5 173,177.5 153.5" fill="#000000" stroke="#000000" />
<polygon id="2469" points="177.5 153,169 163,189 184.5,199 174" fill="#000000" stroke="#000000" />
<polygon id="2470" points="169 162.5,159.5 171.5,179 192.5,188.5 184" fill="#000000" stroke="#000000" />
<polygon id="2471" points="142 204.5,150.5 215.5,133.5 226.5,127 213" fill="#000000" stroke="#000000" />
<polygon id="2472" points="126.5 212.5,115 219,121 233,133 227" fill="#000000" stroke="#000000" />
<polygon id="2473" points="115 219,103 225.5,108.5 238.5,121.5 233" fill="#000000" stroke="#000000" />
<polygon id="2474" points="102.5 225.5,85 233,90 247,109 239" fill="#000000" stroke="#000000" />
<polygon id="2475" points="61 224.5,74 220,82.5 247,69.5 252.5" fill="#000000" stroke="#000000" />
<polygon id="2476" points="49 228,60.5 224.5,68.5 252.5,55 255.5" fill="#000000" stroke="#000000" />
<polygon id="2524" points="208 10,237.5 11.5,235.5 30,206.5 26" fill="#000000" stroke="#000000" />
<polygon id="2525" points="206.5 26,204.5 36.5,233.5 43,235.5 30" fill="#000000" stroke="#000000" />
<polygon id="2526" points="204.5 36.5,234 43,230.5 55,202 47" fill="#000000" stroke="#000000" />
<polygon id="2527" points="202 47,230.5 55,227 67,199 58.5" fill="#000000" stroke="#000000" />
<polygon id="2528" points="198.5 58,227 67.5,222.5 79,195 68" fill="#000000" stroke="#000000" />
<polygon id="2529" points="195 68,190.5 78.5,218 91.5,222.5 79" fill="#000000" stroke="#000000" />
<polygon id="2530" points="182 97,206.5 112,192.5 133.5,169 117" fill="#000000" stroke="#000000" />
<polygon id="2531" points="168.5 117.5,157.5 132,168 142,181 126" fill="#000000" stroke="#000000" />
<polygon id="2532" points="149 141.5,168.5 162,160 171.5,140 150" fill="#000000" stroke="#000000" />
<polygon id="2533" points="139.5 149.5,179 193.5,157 210.5,123 163" fill="#000000" stroke="#000000" />
<polygon id="2534" points="117 167.5,134 191.5,119.5 201,105 175" fill="#000000" stroke="#000000" />
<polygon id="2535" points="95 180.5,101.5 192.5,112 187.5,104.5 175" fill="#000000" stroke="#000000" />
<polygon id="2536" points="95 180.5,101 193,86 200.5,79.5 187" fill="#000000" stroke="#000000" />
<polygon id="2537" points="79 187,64.5 193.5,69.5 206,86 200" fill="#000000" stroke="#000000" />
<polygon id="2538" points="64.5 193,73.5 219.5,56 225,49 197" fill="#000000" stroke="#000000" />
<polygon id="2539" points="48 197,55.5 226,46.5 228,38 225.5,34.5 219,32 200.5" fill="#000000" stroke="#000000" />
<polygon id="2564" points="249.5 195.5,263.5 206.5,250.5 222.5,237.5 210" fill="#000000" stroke="#000000" xmlns="http://www.w3.org/2000/svg" />
<polygon id="2565" points="224.5 223.5,238 236,241 234.5,259.5 256,247.5 269,215 232" fill="#000000" stroke="#000000" xmlns="http://www.w3.org/2000/svg" />
<polygon id="2566" points="214.5 232,247 269.5,233.5 281.5,202 243.5" fill="#000000" stroke="#000000" xmlns="http://www.w3.org/2000/svg" />
<polygon id="2567" points="201 243,233 282.5,218 293,188.5 253.5" fill="#000000" stroke="#000000" xmlns="http://www.w3.org/2000/svg" />
<polygon id="2568" points="188.5 253,218 293,201.5 303.5,175.5 263" fill="#000000" stroke="#000000" xmlns="http://www.w3.org/2000/svg" />
<polygon id="2569" points="174.5 262.5,201 304.5,185.5 314,161 271.5" fill="#000000" stroke="#000000" xmlns="http://www.w3.org/2000/svg" />
<polygon id="2570" points="160.5 271.5,184.5 314.5,169 323.5,146.5 280" fill="#000000" stroke="#000000" xmlns="http://www.w3.org/2000/svg" />
<polygon id="2571" points="146 279.5,168.5 323,132.5 339.5,122 310.5,115 313,108.5 295.5,127 288.5" fill="#000000" stroke="#000000" xmlns="http://www.w3.org/2000/svg" />
<polygon id="2572" points="100.5 298.5,118 343.5,96.5 351,82.5 304" fill="#000000" stroke="#000000" xmlns="http://www.w3.org/2000/svg" />
<polygon id="2573" points="82 303.5,95.5 351,77.5 356,67 308" fill="#000000" stroke="#000000" xmlns="http://www.w3.org/2000/svg" />
<polygon id="2574" points="66.5 308,76.5 355.5,58 358.5,50.5 311" fill="#000000" stroke="#000000" xmlns="http://www.w3.org/2000/svg" />
<polygon id="2575" points="50 311,57.5 359,38.5 362,33.5 313.5" fill="#000000" stroke="#000000" xmlns="http://www.w3.org/2000/svg" />
<polygon id="2576" points="33 313.5,38 362.5,19 364,17 314.5" fill="#000000" stroke="#000000" xmlns="http://www.w3.org/2000/svg" />
<polygon id="2577" points="17 314.5,19 364,0 364,-0.5 314.5" fill="#000000" stroke="#000000" xmlns="http://www.w3.org/2000/svg" />
</svg>
