<?xml version="1.0" encoding="UTF-8" standalone="no"?>
<!-- Created with Inkscape (http://www.inkscape.org/) -->

<svg xmlns:dc="http://purl.org/dc/elements/1.1/" xmlns:cc="http://creativecommons.org/ns#" xmlns:rdf="http://www.w3.org/1999/02/22-rdf-syntax-ns#" xmlns:svg="http://www.w3.org/2000/svg" xmlns="http://www.w3.org/2000/svg" xmlns:xlink="http://www.w3.org/1999/xlink" xmlns:sodipodi="http://sodipodi.sourceforge.net/DTD/sodipodi-0.dtd" xmlns:inkscape="http://www.inkscape.org/namespaces/inkscape" width="770" height="410" id="svg2" version="1.1" inkscape:version="0.47pre4 " sodipodi:docname="test.svg" style="display:inline">
<defs id="defs4">
<inkscape:perspective sodipodi:type="inkscape:persp3d" inkscape:vp_x="0 : 526.18109 : 1" inkscape:vp_y="0 : 1000 : 0" inkscape:vp_z="744.09448 : 526.18109 : 1" inkscape:persp3d-origin="372.04724 : 350.78739 : 1" id="perspective10" />
<inkscape:perspective id="perspective2832" inkscape:persp3d-origin="0.5 : 0.33333333 : 1" inkscape:vp_z="1 : 0.5 : 1" inkscape:vp_y="0 : 1000 : 0" inkscape:vp_x="0 : 0.5 : 1" sodipodi:type="inkscape:persp3d" />
<script type="text/ecmascript" id="script6">
		var fdat="",sdat="";
		function onAreaOver(evt){
			var ele=evt.target; 
			fdat=ele.getAttribute('fill'); 
			sdat=ele.getAttribute('stroke');
			ele.setAttribute('fill','#006fb6');//多边形填充颜色
			ele.setAttribute('stroke','#006fb6');//stroke 多边形 边框颜色
			
		}
		function onAreaOut(evt){
			var ele=evt.target; 
			ele.setAttribute('fill',fdat);
			ele.setAttribute('stroke',sdat);
		}
		</script>
<symbol overflow="visible" id="symbol" style="overflow:visible">
<path d="m 626,156 2,-2 2,-4 0,-3 -1,-3 -4,-3 -6,-3 -5,-2 -4,-2 -4,8 -6,14" id="path9" style="fill:#000000;stroke:none" />
</symbol>
</defs>
<sodipodi:namedview id="base" pagecolor="#ffffff" bordercolor="#666666" borderopacity="1.0" inkscape:pageopacity="0.0" inkscape:pageshadow="2" inkscape:zoom="5.6" inkscape:cx="583.1007" inkscape:cy="273.63795" inkscape:document-units="px" inkscape:current-layer="svg2" showgrid="false" inkscape:window-width="1280" inkscape:window-height="740" inkscape:window-x="-4" inkscape:window-y="-4" inkscape:window-maximized="1" />
<metadata id="metadata7">
<rdf:RDF>
<cc:Work>
<dc:format>
image/svg+xml</dc:format>
<dc:type rdf:resource="http://purl.org/dc/dcmitype/StillImage" />
<dc:title>
</dc:title>
</cc:Work>
</rdf:RDF>
</metadata>
<image xlink:href="qingdaolicang_mall_4f.png" width="770" height="410" id="image2834" x="-485" y="255.93361" transform="translate(485,-255.9336)" inkscape:label="Layer 1" inkscape:groupmode="layer" style="display:inline" />
<polygon id="4001" points="15.5 172,15.5 245,80.5 245,80.5 269,102.5 269,102.5 247.5,137 247.5,154.5 247.5,154.5 150,121 150,121 172" fill="#000000" stroke="none" stroke-opacity="0" />
<polygon id="4002" points="154.5 150,154.5 246.5,163.5 248,165 270,186 268.5,186 247.5,200 247.5,228.5 248,249.5 248,249.5 258,291.5 258,291.5 149.5" fill="#000000" stroke="none" stroke-opacity="0" xmlns="http://www.w3.org/2000/svg" />
<polygon id="4004" points="652.5 86,696.5 86,738.5 132,739 318.75,701.75 353.5,653.75 356.25,654 314.25,674.75 314.25,695.25 297,695.25 277.75,653.5 279.5" fill="#000000" stroke="none" stroke-opacity="0" />
<polygon id="4005" points="15.5 244,16 316.5,45 347,80.5 315.5,61 296.5,61 243.5" fill="#000000" stroke="none" stroke-opacity="0" />
<polygon id="4006" points="102 313.5,102 357,152 357,152 328.5,159 330,160 313.5" fill="#000000" stroke="none" stroke-opacity="0" />
<polygon id="4007" points="165 315,164.5 355,229.5 355,229.5 314" fill="#000000" stroke="none" stroke-opacity="0" />
<polygon id="4008" points="228.5 314.5,270.5 314.5,270.5 355.5,228.5 355.5" fill="#000000" stroke="none" stroke-opacity="0" />
<polygon id="4050" points="270.5 313.75,290.75 313.75,290.75 355.75,270.25 355.75" fill="#000000" stroke="none" stroke-opacity="0" />
<polygon id="4009" points="290.5 313.75,313 314,313.5 356,291 355.25" fill="#000000" stroke="none" stroke-opacity="0" />
<polygon id="4012" points="463 313.5,463.25 356,526.75 356,525.75 314" fill="#000000" stroke="none" stroke-opacity="0" />
<polygon id="4013" points="525.5 314,590 313.75,589.5 356.75,526.5 356" fill="#000000" stroke="none" stroke-opacity="0" />
<polygon id="4014" points="604 332.5,604 355.75,653.75 355.75,653.75 314,631.5 314,631.5 333" fill="#000000" stroke="none" stroke-opacity="0" />
<polygon id="4016" points="61 244.75,80.75 244.75,80.75 279.75,60.75 279.75" fill="#000000" stroke="none" stroke-opacity="0" />
<polygon id="4020" points="186 247,186 279,200.25 279,200.25 247" fill="#000000" stroke="none" stroke-opacity="0" />
<polygon id="4022-4023" points="228.5 247.5,228.5 279,270.5 279,270.5 257.5,249.5 257.5,249.5 247.5" fill="#000000" stroke="none" stroke-opacity="0" />
<polygon id="4026" points="311 235.5,311 249.75,323.5 249.75,323.5 236" fill="#000000" stroke="none" stroke-opacity="0" />
<polygon id="4031-4032-4033" points="333.25 65.75,333.25 131.25,401 131.25,401 65.5" fill="#000000" stroke="none" stroke-opacity="0" />
<polygon id="4034-4035-4015" points="401 130.5,442.25 130.5,442.25 65.75,401.25 65.75" fill="#000000" stroke="none" stroke-opacity="0" />
<polygon id="4036" points="452.25 125.75,452.25 152.5,485.25 152.5,485.25 126" fill="#000000" stroke="none" stroke-opacity="0" />
<polygon id="4037" points="451.75 159.75,451.75 173,464.75 173,464.75 159.5" fill="#000000" stroke="none" stroke-opacity="0" />
<polygon id="4017-4018" points="102.5 246.75,102.5 278.5,136.25 278.5,136.25 247.5" fill="#000000" stroke="none" stroke-opacity="0" />
<polygon id="4024-4025" points="270 257.25,270 279.75,323.75 279.75,323.75 257.5" fill="#000000" stroke="none" stroke-opacity="0" />
<polygon id="4027-4028-4029-4030" points="291.5 150,324.25 150,324.25 228.5,291.5 228.5" fill="#000000" stroke="none" stroke-opacity="0" />
<polygon id="4038-4039-4040" points="452.25 180.75,452.25 228.5,485.25 228.5,485.25 181" fill="#000000" stroke="none" stroke-opacity="0" />
<polygon id="4041" points="451.75 235.75,451.75 250,464.5 250,464.5 236" fill="#000000" stroke="none" stroke-opacity="0" />
<polygon id="4042-4043-4044" points="452 257.75,452 279,526 279,526 259.5" fill="#000000" stroke="none" stroke-opacity="0" />
<polygon id="4045" points="526 260,526 279.25,548.75 279.25,548.75 260.25" fill="#000000" stroke="none" stroke-opacity="0" />
<polygon id="4046" points="596.75 273,596.75 279.75,612 279.75,612 272.5" fill="#000000" stroke="none" stroke-opacity="0" />
<polygon id="4047-4048" points="598.5 246.5,654 246.5,654 279.75,619.75 279.75,619.75 257.75,597.5 257.75" fill="#000000" stroke="none" stroke-opacity="0" />
<polygon id="4049" points="597 313.25,631.75 313.25,631.75 333.25,596.5 333.25" fill="#000000" stroke="none" stroke-opacity="0" />
<polygon id="4051" points="79 315,102.5 313.75,102.5 357,60.5 357,46.75 343.25" fill="#000000" stroke="none" stroke-opacity="0" />
<polygon id="4010-4011" points="320.25 313.25,320.25 356.25,457.5 356.25,457.5 313.25" fill="#000000" stroke="none" stroke-opacity="0" />
<polygon id="4003" points="484 87,484 258,549 258,549 269,589 269,589 259,598 258,599 246,654 246,654 86" fill="red" stroke="none" stroke-opacity="0" />
<polygon id="4021" points="207 272,220 273,220 279,207 280" fill="red" stroke="none" stroke-opacity="0" />
</svg>
