<?xml version="1.0" encoding="UTF-8" standalone="no"?>
<!-- Created with Inkscape (http://www.inkscape.org/) -->

<svg xmlns:dc="http://purl.org/dc/elements/1.1/" xmlns:cc="http://creativecommons.org/ns#" xmlns:rdf="http://www.w3.org/1999/02/22-rdf-syntax-ns#" xmlns:svg="http://www.w3.org/2000/svg" xmlns="http://www.w3.org/2000/svg" xmlns:xlink="http://www.w3.org/1999/xlink" xmlns:sodipodi="http://sodipodi.sourceforge.net/DTD/sodipodi-0.dtd" xmlns:inkscape="http://www.inkscape.org/namespaces/inkscape" width="770" height="800" id="svg2" version="1.1" inkscape:version="0.47pre4 " sodipodi:docname="test.svg" style="display:inline">
<defs id="defs4">
<inkscape:perspective sodipodi:type="inkscape:persp3d" inkscape:vp_x="0 : 526.18109 : 1" inkscape:vp_y="0 : 1000 : 0" inkscape:vp_z="744.09448 : 526.18109 : 1" inkscape:persp3d-origin="372.04724 : 350.78739 : 1" id="perspective10" />
<inkscape:perspective id="perspective2832" inkscape:persp3d-origin="0.5 : 0.33333333 : 1" inkscape:vp_z="1 : 0.5 : 1" inkscape:vp_y="0 : 1000 : 0" inkscape:vp_x="0 : 0.5 : 1" sodipodi:type="inkscape:persp3d" />
<script type="text/ecmascript" id="script6">
		var fdat="",sdat="";
		function onAreaOver(evt){
			var ele=evt.target; 
			fdat=ele.getAttribute('fill'); 
			sdat=ele.getAttribute('stroke');
			ele.setAttribute('fill','#006fb6');//多边形填充颜色
			ele.setAttribute('stroke','#006fb6');//stroke 多边形 边框颜色
			
		}
		function onAreaOut(evt){
			var ele=evt.target; 
			ele.setAttribute('fill',fdat);
			ele.setAttribute('stroke',sdat);
		}
		</script>
<symbol overflow="visible" id="symbol" style="overflow:visible" xmlns="http://www.w3.org/2000/svg">
<path d="m 626,156 2,-2 2,-4 0,-3 -1,-3 -4,-3 -6,-3 -5,-2 -4,-2 -4,8 -6,14" id="path9" style="fill:#000000;stroke:none" />
</symbol>
</defs>
<sodipodi:namedview id="base" pagecolor="#ffffff" bordercolor="#666666" borderopacity="1.0" inkscape:pageopacity="0.0" inkscape:pageshadow="2" inkscape:zoom="5.6" inkscape:cx="583.1007" inkscape:cy="273.63795" inkscape:document-units="px" inkscape:current-layer="svg2" showgrid="false" inkscape:window-width="1280" inkscape:window-height="740" inkscape:window-x="-4" inkscape:window-y="-4" inkscape:window-maximized="1" />
<metadata id="metadata7">
<rdf:RDF>
<cc:Work>
<dc:format>
image/svg+xml</dc:format>
<dc:type rdf:resource="http://purl.org/dc/dcmitype/StillImage" />
<dc:title>
</dc:title>
</cc:Work>
</rdf:RDF>
</metadata>
<image xlink:href="qdchengyang_2_s.jpg" width="770" height="800" id="image2834" x="-485" y="255.93361" transform="translate(485,-255.9336)" inkscape:label="Layer 1" inkscape:groupmode="layer" style="display:inline" />
<polygon id="S01" points="99 307.5,99 342.5,119 342.5,119 307" fill="#000000" stroke="none" />
<polygon id="S02" points="138 308,138 342.5,158 342.5,158 307.5" fill="#000000" stroke="none" stroke-opacity="0" />
<polygon id="S03" points="176 307.5,176 342,197 342,197 307.5" fill="#000000" stroke="none" stroke-opacity="0" />
<polygon id="S04" points="215.5 308,215.5 342.5,236.5 342.5,236.5 308" fill="#000000" stroke="none" stroke-opacity="0" />
<polygon id="S05" points="254 308,254 342.5,274.5 342.5,274.5 307.5" fill="#000000" stroke="none" stroke-opacity="0" />
<polygon id="S06" points="293 308.5,293 342.5,314 342.5,314 308" fill="#000000" stroke="none" stroke-opacity="0" />
<polygon id="S07" points="332 308,332 342.5,352.5 342.5,352.5 308" fill="#000000" stroke="none" stroke-opacity="0" />
<polygon id="S08" points="370.5 308,370.5 342.5,391.5 342.5,391.5 308" fill="#000000" stroke="none" stroke-opacity="0" />
<polygon id="S09" points="409 308.5,409 342.5,430.5 342.5,430.5 308.5" fill="#000000" stroke="none" stroke-opacity="0" />
<polygon id="S10" points="448.5 307.5,448.5 343,469 343,469 307.5" fill="#000000" stroke="none" stroke-opacity="0" />
<polygon id="S11" points="487.5 308,487.5 342,508 342,508 308.5" fill="#000000" stroke="none" stroke-opacity="0" />
<polygon id="S12" points="523.5 307.5,523.5 343,538.5 343,538.5 307.5" fill="#000000" stroke="none" stroke-opacity="0" />
<polygon id="S13" points="612.5 308,612.5 342,625 342,625 308" fill="#000000" stroke="none" stroke-opacity="0" />
<polygon id="S14" points="642.5 308,642.5 342,663.5 342,663.5 308" fill="#000000" stroke="none" stroke-opacity="0" />
<polygon id="S15" points="97.5 644,97.5 679,133.5 679,133.5 643.5" fill="#000000" stroke="none" stroke-opacity="0" />
<polygon id="S16" points="151 644,151 678.5,165.5 678.5,165.5 644" fill="#000000" stroke="none" stroke-opacity="0" />
<polygon id="S17" points="235.5 644,235.5 678.5,252 678.5,252 644" fill="#000000" stroke="none" stroke-opacity="0" />
<polygon id="S18" points="266 644.5,266 679,287 679,287 644.5" fill="#000000" stroke="none" stroke-opacity="0" />
<polygon id="S19" points="304.5 644.5,304.5 679,326 679,326 644" fill="#000000" stroke="none" stroke-opacity="0" />
<polygon id="S20" points="496 644.5,496 679,516.5 679,516.5 645" fill="#000000" stroke="none" stroke-opacity="0" />
<polygon id="S21" points="534.5 644.5,534.5 679,556 679,556 644" fill="#000000" stroke="none" stroke-opacity="0" />
<polygon id="S22" points="573.5 644.5,573.5 678.5,593.5 678.5,593.5 645" fill="#000000" stroke="none" stroke-opacity="0" />
<polygon id="S23" points="611 644.5,611 678.5,632.5 678.5,632.5 644" fill="#000000" stroke="none" stroke-opacity="0" />

</svg>

