<?xml version="1.0" encoding="UTF-8" standalone="no"?>
<!-- Created with Inkscape (http://www.inkscape.org/) -->

<svg xmlns:dc="http://purl.org/dc/elements/1.1/" xmlns:cc="http://creativecommons.org/ns#" xmlns:rdf="http://www.w3.org/1999/02/22-rdf-syntax-ns#" xmlns:svg="http://www.w3.org/2000/svg" xmlns="http://www.w3.org/2000/svg" xmlns:xlink="http://www.w3.org/1999/xlink" xmlns:sodipodi="http://sodipodi.sourceforge.net/DTD/sodipodi-0.dtd" xmlns:inkscape="http://www.inkscape.org/namespaces/inkscape" width="770" height="800" id="svg2" version="1.1" inkscape:version="0.47pre4 " sodipodi:docname="test.svg" style="display:inline">
<defs id="defs4">
<inkscape:perspective sodipodi:type="inkscape:persp3d" inkscape:vp_x="0 : 526.18109 : 1" inkscape:vp_y="0 : 1000 : 0" inkscape:vp_z="744.09448 : 526.18109 : 1" inkscape:persp3d-origin="372.04724 : 350.78739 : 1" id="perspective10" />
<inkscape:perspective id="perspective2832" inkscape:persp3d-origin="0.5 : 0.33333333 : 1" inkscape:vp_z="1 : 0.5 : 1" inkscape:vp_y="0 : 1000 : 0" inkscape:vp_x="0 : 0.5 : 1" sodipodi:type="inkscape:persp3d" />
<script type="text/ecmascript" id="script6">
		var fdat="",sdat="";
		function onAreaOver(evt){
			var ele=evt.target; 
			fdat=ele.getAttribute('fill'); 
			sdat=ele.getAttribute('stroke');
			ele.setAttribute('fill','#006fb6');//多边形填充颜色
			ele.setAttribute('stroke','#006fb6');//stroke 多边形 边框颜色
			
		}
		function onAreaOut(evt){
			var ele=evt.target; 
			ele.setAttribute('fill',fdat);
			ele.setAttribute('stroke',sdat);
		}
		</script>
<symbol overflow="visible" id="symbol" style="overflow:visible" xmlns="http://www.w3.org/2000/svg">
<path d="m 626,156 2,-2 2,-4 0,-3 -1,-3 -4,-3 -6,-3 -5,-2 -4,-2 -4,8 -6,14" id="path9" style="fill:#000000;stroke:none" />
</symbol>
</defs>
<sodipodi:namedview id="base" pagecolor="#ffffff" bordercolor="#666666" borderopacity="1.0" inkscape:pageopacity="0.0" inkscape:pageshadow="2" inkscape:zoom="5.6" inkscape:cx="583.1007" inkscape:cy="273.63795" inkscape:document-units="px" inkscape:current-layer="svg2" showgrid="false" inkscape:window-width="1280" inkscape:window-height="740" inkscape:window-x="-4" inkscape:window-y="-4" inkscape:window-maximized="1" />
<metadata id="metadata7">
<rdf:RDF>
<cc:Work>
<dc:format>
image/svg+xml</dc:format>
<dc:type rdf:resource="http://purl.org/dc/dcmitype/StillImage" />
<dc:title>
</dc:title>
</cc:Work>
</rdf:RDF>
</metadata>
<image xlink:href="qdchengyang_3_w.jpg" width="770" height="800" id="image2834" x="-485" y="255.93361" transform="translate(485,-255.9336)" inkscape:label="Layer 1" inkscape:groupmode="layer" style="display:inline" />
<polygon id="W01" points="34.5 98,34 130.5,53.5 131,53.5 98.5" fill="#000000" stroke="none" stroke-opacity="0" />
<polygon id="W02" points="70.5 98,70.5 130.5,89.5 130.5,89.5 98" fill="#000000" stroke="none" stroke-opacity="0" />
<polygon id="W03" points="107 98.5,107 130,126.5 130,126.5 98.5" fill="#000000" stroke="none" stroke-opacity="0" />
<polygon id="W04" points="143.5 98.5,143.5 129.5,162 129.5,162 98" fill="#000000" stroke="none" stroke-opacity="0" />
<polygon id="W05" points="359 98.5,359 130.5,378.5 130.5,378.5 98" fill="#000000" stroke="none" stroke-opacity="0" />
<polygon id="W06" points="503 99,503 130,521.5 130,521.5 98.5" fill="#000000" stroke="none" stroke-opacity="0" />
<polygon id="W07" points="104 281,104 314.5,124 314.5,124 281" fill="#000000" stroke="none" stroke-opacity="0" />
<polygon id="W08" points="489 278.5,489 310,507 310,507 278" fill="#000000" stroke="none" stroke-opacity="0" />
<polygon id="W09" points="517.5 279,517.5 310.5,535.5 310.5,535.5 278.5" fill="#000000" stroke="none" stroke-opacity="0" />
<polygon id="W10" points="545 279,545 310,562.5 310,562.5 280" fill="#000000" stroke="none" stroke-opacity="0" />
<polygon id="W11" points="395.5 454.5,395.5 487,415 487,415 454.5" fill="#000000" stroke="none" stroke-opacity="0" />
<polygon id="W12" points="232 648.5,232 680,251 680,251 648" fill="#000000" stroke="none" stroke-opacity="0" />
<polygon id="W13" points="268 648.5,268 679.5,286.5 679.5,286.5 648.5" fill="#000000" stroke="none" stroke-opacity="0" />
<polygon id="W14" points="303.5 648.5,303.5 679.5,322.5 679.5,322.5 648.5" fill="#000000" stroke="none" stroke-opacity="0" />
<polygon id="W15" points="339 648.5,339 680.5,358.5 680.5,358.5 648.5" fill="#000000" stroke="none" stroke-opacity="0" />
<polygon id="W16" points="375 648.5,375 680,393.5 680,393.5 647.5" fill="#000000" stroke="none" stroke-opacity="0" />
<polygon id="W17" points="410.5 648,410.5 680.5,429.5 680.5,429.5 648.5" fill="#000000" stroke="none" stroke-opacity="0" />
<polygon id="W18" points="446.5 648.5,446.5 680,466 680,466 648" fill="#000000" stroke="none" stroke-opacity="0" />
<polygon id="W19" points="482 648.5,482 680,536 680,536 648" fill="#000000" stroke="none" stroke-opacity="0" />

</svg>

