<?xml version="1.0" encoding="UTF-8" standalone="no"?>
<!-- Created with Inkscape (http://www.inkscape.org/) -->

<svg xmlns:dc="http://purl.org/dc/elements/1.1/" xmlns:cc="http://creativecommons.org/ns#" xmlns:rdf="http://www.w3.org/1999/02/22-rdf-syntax-ns#" xmlns:svg="http://www.w3.org/2000/svg" xmlns="http://www.w3.org/2000/svg" xmlns:xlink="http://www.w3.org/1999/xlink" xmlns:sodipodi="http://sodipodi.sourceforge.net/DTD/sodipodi-0.dtd" xmlns:inkscape="http://www.inkscape.org/namespaces/inkscape" width="770" height="410" id="svg2" version="1.1" inkscape:version="0.47pre4 " sodipodi:docname="test.svg" style="display:inline">
<defs id="defs4">
<inkscape:perspective sodipodi:type="inkscape:persp3d" inkscape:vp_x="0 : 526.18109 : 1" inkscape:vp_y="0 : 1000 : 0" inkscape:vp_z="744.09448 : 526.18109 : 1" inkscape:persp3d-origin="372.04724 : 350.78739 : 1" id="perspective10" />
<inkscape:perspective id="perspective2832" inkscape:persp3d-origin="0.5 : 0.33333333 : 1" inkscape:vp_z="1 : 0.5 : 1" inkscape:vp_y="0 : 1000 : 0" inkscape:vp_x="0 : 0.5 : 1" sodipodi:type="inkscape:persp3d" />
<script type="text/ecmascript" id="script6">
		var fdat="",sdat="";
		function onAreaOver(evt){
			var ele=evt.target; 
			fdat=ele.getAttribute('fill'); 
			sdat=ele.getAttribute('stroke');
			ele.setAttribute('fill','#006fb6');//多边形填充颜色
			ele.setAttribute('stroke','#006fb6');//stroke 多边形 边框颜色
			
		}
		function onAreaOut(evt){
			var ele=evt.target; 
			ele.setAttribute('fill',fdat);
			ele.setAttribute('stroke',sdat);
		}
		</script>
<symbol overflow="visible" id="symbol" style="overflow:visible">
<path d="m 626,156 2,-2 2,-4 0,-3 -1,-3 -4,-3 -6,-3 -5,-2 -4,-2 -4,8 -6,14" id="path9" style="fill:#000000;stroke:none" />
</symbol>
</defs>
<sodipodi:namedview id="base" pagecolor="#ffffff" bordercolor="#666666" borderopacity="1.0" inkscape:pageopacity="0.0" inkscape:pageshadow="2" inkscape:zoom="5.6" inkscape:cx="583.1007" inkscape:cy="273.63795" inkscape:document-units="px" inkscape:current-layer="svg2" showgrid="false" inkscape:window-width="1280" inkscape:window-height="740" inkscape:window-x="-4" inkscape:window-y="-4" inkscape:window-maximized="1" />
<metadata id="metadata7">
<rdf:RDF>
<cc:Work>
<dc:format>
image/svg+xml</dc:format>
<dc:type rdf:resource="http://purl.org/dc/dcmitype/StillImage" />
<dc:title>
</dc:title>
</cc:Work>
</rdf:RDF>
</metadata>
<image xlink:href="luoyang2_2_3f_b.png" width="770" height="410" id="image2834" x="-485" y="255.93361" transform="translate(485,-255.9336)" inkscape:label="Layer 1" inkscape:groupmode="layer" style="display:inline" />
<polygon id="B3-02" points="459 180.5,460 396.5,745.5 396.5,745.5 190.5,660 190.5,660 181" fill="#000000" stroke="none" stroke-opacity="0" />
<polygon id="B3-03" points="283.5 113,283.5 16,331 16,331 13.5,354.5 13.5,354.5 89.5,318.5 89.5,302.5 112.5" fill="#000000" stroke="none" stroke-opacity="0" />
<polygon id="B3-04" points="354.5 13.5,354.5 88.5,391.5 88.5,391.5 13.5" fill="#000000" stroke="none" stroke-opacity="0" />
<polygon id="B3-05" points="497 14.5,497 53.5,516.5 53.5,516.5 64.5,497.5 64.5,497.5 87.5,534 87.5,534 14.5" fill="#000000" stroke="none" stroke-opacity="0" />
<polygon id="B3-06" points="534.5 15.5,534.5 87,602.5 87,602.5 15" fill="#000000" stroke="none" stroke-opacity="0" />
<polygon id="B3-07" points="603 15.5,603 89.5,639 89.5,673 123.5,673 144.5,710 144.5,710 157,747.5 157,747.5 112.5,739 106,744 96.5,748.5 87,749.5 76.5,750 65.5,748 54,743.5 43,734.5 31,723.5 21,709 14.5,699 11.5,686.5 12,677 13,665 19,656.5 24,652.5 19.5,651.5 15.5" fill="#000000" stroke="none" stroke-opacity="0" />
<polygon id="B3-08" points="356.5 144.5,373 144.5,373 180.5,355.5 180.5" fill="#000000" stroke="none" stroke-opacity="0" />
<polygon id="B3-09" points="373.5 144.5,391.5 144.5,391.5 180,373.5 180" fill="#000000" stroke="none" stroke-opacity="0" />
<polygon id="B3-10" points="425.5 143.5,425.5 179.5,442.5 179.5,442.5 143.5" fill="#000000" stroke="none" stroke-opacity="0" />
<polygon id="B3-11" points="442.5 143.5,460.5 143.5,460.5 180,442 180" fill="#000000" stroke="none" stroke-opacity="0" />
<polygon id="B3-12" points="460.5 144,479.5 144,479.5 180.5,460.5 180.5" fill="#000000" stroke="none" stroke-opacity="0" />
<polygon id="B3-13" points="480 144,497.5 144,497.5 181,479 181" fill="#000000" stroke="none" stroke-opacity="0" />
<polygon id="B3-14" points="497.5 144,514 144,514 181,497.5 181" fill="#000000" stroke="none" stroke-opacity="0" />
<polygon id="B3-15" points="514.5 145,531.5 145,531.5 181,514 181" fill="#000000" stroke="none" stroke-opacity="0" />
<polygon id="B3-16" points="532 144.5,549.5 144.5,549.5 181.5,531.5 181.5" fill="#000000" stroke="none" stroke-opacity="0" />
<polygon id="B3-17" points="549 144.5,568.5 144.5,568.5 181.5,549.5 181.5" fill="#000000" stroke="none" stroke-opacity="0" />
<polygon id="B3-18" points="568.5 144.5,585 144.5,585 181,568.5 181" fill="#000000" stroke="none" stroke-opacity="0" />
<polygon id="B3-19" points="585.5 144.5,603.5 144.5,603.5 181.5,585 181.5" fill="#000000" stroke="none" stroke-opacity="0" />
<polygon id="B3-01" points="392 163,425.5 163,425.5 179,459.5 179,459.5 356.5,414.5 356.5,414.5 393.5,355.5 393.5,355.5 194,342 194,342 180.5,392 180.5" fill="#000000" stroke="none" stroke-opacity="0" />
<polygon id="B3-01-1" points="319.5 182.5,342 182.5,342 193.5,356 193.5,356 286,302.5 286,302.5 193,319 193" fill="#000000" stroke="none" stroke-opacity="0" />
</svg>
