<?xml version="1.0" encoding="UTF-8" standalone="no"?>
<!-- Created with Inkscape (http://www.inkscape.org/) -->

<svg xmlns:dc="http://purl.org/dc/elements/1.1/" xmlns:cc="http://creativecommons.org/ns#" xmlns:rdf="http://www.w3.org/1999/02/22-rdf-syntax-ns#" xmlns:svg="http://www.w3.org/2000/svg" xmlns="http://www.w3.org/2000/svg" xmlns:xlink="http://www.w3.org/1999/xlink" xmlns:sodipodi="http://sodipodi.sourceforge.net/DTD/sodipodi-0.dtd" xmlns:inkscape="http://www.inkscape.org/namespaces/inkscape" width="770" height="410" id="svg2" version="1.1" inkscape:version="0.47pre4 " sodipodi:docname="test.svg" style="display:inline">
<defs id="defs4">
<inkscape:perspective sodipodi:type="inkscape:persp3d" inkscape:vp_x="0 : 526.18109 : 1" inkscape:vp_y="0 : 1000 : 0" inkscape:vp_z="744.09448 : 526.18109 : 1" inkscape:persp3d-origin="372.04724 : 350.78739 : 1" id="perspective10" />
<inkscape:perspective id="perspective2832" inkscape:persp3d-origin="0.5 : 0.33333333 : 1" inkscape:vp_z="1 : 0.5 : 1" inkscape:vp_y="0 : 1000 : 0" inkscape:vp_x="0 : 0.5 : 1" sodipodi:type="inkscape:persp3d" />
<script type="text/ecmascript" id="script6">
		var fdat="",sdat="";
		function onAreaOver(evt){
			var ele=evt.target; 
			fdat=ele.getAttribute('fill'); 
			sdat=ele.getAttribute('stroke');
			ele.setAttribute('fill','#006fb6');//多边形填充颜色
			ele.setAttribute('stroke','#006fb6');//stroke 多边形 边框颜色
			
		}
		function onAreaOut(evt){
			var ele=evt.target; 
			ele.setAttribute('fill',fdat);
			ele.setAttribute('stroke',sdat);
		}
		</script>
<symbol overflow="visible" id="symbol" style="overflow:visible">
<path d="m 626,156 2,-2 2,-4 0,-3 -1,-3 -4,-3 -6,-3 -5,-2 -4,-2 -4,8 -6,14" id="path9" style="fill:#000000;stroke:none" />
</symbol>
</defs>
<sodipodi:namedview id="base" pagecolor="#ffffff" bordercolor="#666666" borderopacity="1.0" inkscape:pageopacity="0.0" inkscape:pageshadow="2" inkscape:zoom="5.6" inkscape:cx="583.1007" inkscape:cy="273.63795" inkscape:document-units="px" inkscape:current-layer="svg2" showgrid="false" inkscape:window-width="1280" inkscape:window-height="740" inkscape:window-x="-4" inkscape:window-y="-4" inkscape:window-maximized="1" />
<metadata id="metadata7">
<rdf:RDF>
<cc:Work>
<dc:format>
image/svg+xml</dc:format>
<dc:type rdf:resource="http://purl.org/dc/dcmitype/StillImage" />
<dc:title>
</dc:title>
</cc:Work>
</rdf:RDF>
</metadata>
<image xlink:href="luoyang2_2_2f_a.png" width="770" height="410" id="image2834" x="-485" y="255.93361" transform="translate(485,-255.9336)" inkscape:label="Layer 1" inkscape:groupmode="layer" style="display:inline" />
<polygon id="A2-01" points="12.5 147.5,61.5 147.5,61.5 192,94.5 192,94.5 181.5,117 181.5,117 163.5,149 163.5,149 180.5,482 180.5,482 383.5,361.5 383.5,361.5 347.5,314 347.5,314 382.5,182.5 382.5,182.5 349,115.5 349,115.5 383.5,15.5 383.5,15 280.5,50 280.5,50 236,12 236" fill="#000000" stroke="none" stroke-opacity="0" />
<polygon id="A2-02" points="114.5 26,114.5 95,82.5 127,82.5 147.5,12 147.5,12 111,18.5 104,16 99.5,12.5 90.5,11.5 80.5,12 70,15.5 58.5,20.5 49.5,27 41,36 32.5,49.5 26.5,61.5 24,72 24.5,82.5 25,93 30,99 25.5" fill="#000000" stroke="none" stroke-opacity="0" />
<polygon id="A2-03" points="114.5 26.5,114.5 94.5,204 94.5,204 26.5" fill="#000000" stroke="none" stroke-opacity="0" />
<polygon id="A2-04" points="215 82,238.5 82,238.5 96,215 96" fill="#000000" stroke="none" stroke-opacity="0" />
<polygon id="A2-05" points="248.5 26.5,314.5 26.5,314.5 94,248 94" fill="#000000" stroke="none" stroke-opacity="0" />
<polygon id="A2-06" points="314.5 26,351 26,351 60.5,333 60.5,333 72,348.5 72,348.5 94,314 94" fill="#000000" stroke="none" stroke-opacity="0" />
<polygon id="A2-07" points="449.5 23.5,539.5 23.5,539.5 60,553.5 60,553.5 94,450.5 94" fill="#000000" stroke="none" stroke-opacity="0" />
<polygon id="A2-08" points="148.5 147,183.5 147,183.5 181.5,148.5 181.5" fill="#000000" stroke="none" stroke-opacity="0" />
<polygon id="A2-09" points="183 147,216 147,216 181.5,182.5 181.5" fill="#000000" stroke="none" stroke-opacity="0" />
<polygon id="A2-10" points="216.5 147,249 147,249 181,215.5 181" fill="#000000" stroke="none" stroke-opacity="0" />
<polygon id="A2-11" points="249 147,282.5 147,282.5 180.5,249.5 180.5" fill="#000000" stroke="none" stroke-opacity="0" />
<polygon id="A2-12" points="282.5 147,314.5 147,314.5 181.5,281.5 181.5" fill="#000000" stroke="none" stroke-opacity="0" />
<polygon id="A2-13" points="314.5 147,349 147,349 181,314.5 181" fill="#000000" stroke="none" stroke-opacity="0" />
<polygon id="A2-14" points="349.5 147,383 147,383 180.5,349 180.5" fill="#000000" stroke="none" stroke-opacity="0" />
<polygon id="A2-15" points="383 147,416.5 147,416.5 180.5,382.5 180.5" fill="#000000" stroke="none" stroke-opacity="0" />
<polygon id="A2-16" points="416.5 147,416.5 171.5,449.5 171.5,449.5 146.5" fill="#000000" stroke="none" stroke-opacity="0" />
<polygon id="A2-17" points="449.5 147,449.5 181,482.5 181,482.5 147" fill="#000000" stroke="none" stroke-opacity="0" />
<polygon id="A2-18" points="495 185.5,517 185.5,517 193.5,532.5 193.5,532.5 216,482 216,482 193,494.5 193" fill="#000000" stroke="none" stroke-opacity="0" />
<polygon id="A2-19" points="482 215.5,482 248.5,533 248.5,533 216" fill="#000000" stroke="none" stroke-opacity="0" />
<polygon id="A2-20" points="482 248,533 248,533 280,482 280" fill="#000000" stroke="none" stroke-opacity="0" />
<polygon id="A2-21" points="516 279.5,516 296,533 296,533 279" fill="#000000" stroke="none" stroke-opacity="0" />
<polygon id="A2-22" points="516.5 347.5,550.5 347.5,550.5 383.5,516.5 383.5" fill="#000000" stroke="none" stroke-opacity="0" />
<polygon id="A2-23" points="550.5 330.5,550.5 383.5,587 383.5,587 330.5" fill="#000000" stroke="none" stroke-opacity="0" />
<polygon id="A2-24" points="587.5 331,587.5 383.5,622 383.5,622 330.5" fill="#000000" stroke="none" stroke-opacity="0" />
<polygon id="A2-25" points="622 331,622 383,654.5 383,654.5 331.5" fill="#000000" stroke="none" stroke-opacity="0" />
<polygon id="A2-26" points="655 331,689 331,689 383,655 383" fill="#000000" stroke="none" stroke-opacity="0" />
<polygon id="A2-27" points="689.5 331.5,723.5 331.5,723.5 383.5,689.5 383.5" fill="#000000" stroke="none" stroke-opacity="0" />
<polygon id="A2-28" points="724 331.5,760.5 331.5,760.5 384,724 384" fill="#000000" stroke="none" stroke-opacity="0" />

</svg>
