<?xml version="1.0" encoding="UTF-8" standalone="no"?>
<!-- Created with Inkscape (http://www.inkscape.org/) -->

<svg xmlns:dc="http://purl.org/dc/elements/1.1/" xmlns:cc="http://creativecommons.org/ns#" xmlns:rdf="http://www.w3.org/1999/02/22-rdf-syntax-ns#" xmlns:svg="http://www.w3.org/2000/svg" xmlns="http://www.w3.org/2000/svg" xmlns:xlink="http://www.w3.org/1999/xlink" xmlns:sodipodi="http://sodipodi.sourceforge.net/DTD/sodipodi-0.dtd" xmlns:inkscape="http://www.inkscape.org/namespaces/inkscape" width="770" height="410" id="svg2" version="1.1" inkscape:version="0.47pre4 " sodipodi:docname="test.svg" style="display:inline">
<defs id="defs4">
<inkscape:perspective sodipodi:type="inkscape:persp3d" inkscape:vp_x="0 : 526.18109 : 1" inkscape:vp_y="0 : 1000 : 0" inkscape:vp_z="744.09448 : 526.18109 : 1" inkscape:persp3d-origin="372.04724 : 350.78739 : 1" id="perspective10" />
<inkscape:perspective id="perspective2832" inkscape:persp3d-origin="0.5 : 0.33333333 : 1" inkscape:vp_z="1 : 0.5 : 1" inkscape:vp_y="0 : 1000 : 0" inkscape:vp_x="0 : 0.5 : 1" sodipodi:type="inkscape:persp3d" />
<script type="text/ecmascript" id="script6">
		var fdat="",sdat="";
		function onAreaOver(evt){
			var ele=evt.target; 
			fdat=ele.getAttribute('fill'); 
			sdat=ele.getAttribute('stroke');
			ele.setAttribute('fill','#006fb6');//多边形填充颜色
			ele.setAttribute('stroke','#006fb6');//stroke 多边形 边框颜色
			
		}
		function onAreaOut(evt){
			var ele=evt.target; 
			ele.setAttribute('fill',fdat);
			ele.setAttribute('stroke',sdat);
		}
		</script>
<symbol overflow="visible" id="symbol" style="overflow:visible">
<path d="m 626,156 2,-2 2,-4 0,-3 -1,-3 -4,-3 -6,-3 -5,-2 -4,-2 -4,8 -6,14" id="path9" style="fill:#000000;stroke:none" />
</symbol>
</defs>
<sodipodi:namedview id="base" pagecolor="#ffffff" bordercolor="#666666" borderopacity="1.0" inkscape:pageopacity="0.0" inkscape:pageshadow="2" inkscape:zoom="5.6" inkscape:cx="583.1007" inkscape:cy="273.63795" inkscape:document-units="px" inkscape:current-layer="svg2" showgrid="false" inkscape:window-width="1280" inkscape:window-height="740" inkscape:window-x="-4" inkscape:window-y="-4" inkscape:window-maximized="1" />
<metadata id="metadata7">
<rdf:RDF>
<cc:Work>
<dc:format>
image/svg+xml</dc:format>
<dc:type rdf:resource="http://purl.org/dc/dcmitype/StillImage" />
<dc:title>
</dc:title>
</cc:Work>
</rdf:RDF>
</metadata>
<image xlink:href="luoyang2_2_3f_a.png" width="770" height="410" id="image2834" x="-485" y="255.93361" transform="translate(485,-255.9336)" inkscape:label="Layer 1" inkscape:groupmode="layer" style="display:inline" />
<polygon id="A3-02" points="116.5 24,116.5 94,83 127,83 147.5,11.5 147.5,11.5 111.5,19 106,15 100,12.5 92.5,12.5 86.5,11 81.5,11.5 76.5,11 70,14.5 64,14 58.5,17 54,19.5 48,25.5 40.5,32.5 35.5,38.5 30.5,48 27,58 24.5,66.5 23.5,75 25,84.5 27,93 27.5,99.5 24" fill="#000000" stroke="none" stroke-opacity="0" />
<polygon id="A3-03" points="116.5 24,205 24,205 94.5,116.5 94.5" fill="#000000" stroke="none" stroke-opacity="0" />
<polygon id="A3-04" points="215 82.5,237.5 82.5,237.5 95,215 95" fill="#000000" stroke="none" stroke-opacity="0" />
<polygon id="A3-05" points="248 26,314.5 26,314.5 94.5,248.5 94.5" fill="#000000" stroke="none" stroke-opacity="0" />
<polygon id="A3-06" points="315 24,315 94,349 94,349 23.5" fill="#000000" stroke="none" stroke-opacity="0" />
<polygon id="A3-07" points="448 24,448 94.5,484 94.5,484 24" fill="#000000" stroke="none" stroke-opacity="0" />
<polygon id="A3-08" points="484 24,505.5 24,505.5 26,550 26,550 118,533 118,516.5 94.5,484.5 94.5" fill="#000000" stroke="none" stroke-opacity="0" />
<polygon id="A3-09" points="550.5 60,621.5 60,621.5 118,550 118" fill="#000000" stroke="none" stroke-opacity="0" />
<polygon id="A3-10" points="621.5 60,688 60,688 118.5,621.5 118.5" fill="#000000" stroke="none" stroke-opacity="0" />
<polygon id="A3-11" points="688 60,760 60,760 117.5,688.5 117.5" fill="#000000" stroke="none" stroke-opacity="0" />
<polygon id="A3-12" points="148.5 147.5,148.5 182,166 182,166 147.5" fill="#000000" stroke="none" stroke-opacity="0" />
<polygon id="A3-13" points="166 147.5,182.5 147.5,182.5 182.5,165.5 182.5" fill="#000000" stroke="none" stroke-opacity="0" />
<polygon id="A3-14" points="182.5 147.5,199.5 147.5,199.5 182,183 182" fill="#000000" stroke="none" stroke-opacity="0" />
<polygon id="A3-15" points="199.5 147.5,216.5 147.5,216.5 183,199 183" fill="#000000" stroke="none" stroke-opacity="0" />
<polygon id="A3-16" points="216.5 148,232.5 148,232.5 182,216.5 182" fill="#000000" stroke="none" stroke-opacity="0" />
<polygon id="A3-17" points="233 147.5,249.5 147.5,249.5 182,232 182" fill="#000000" stroke="none" stroke-opacity="0" />
<polygon id="A3-18" points="249 147.5,265.5 147.5,265.5 182,249 182" fill="#000000" stroke="none" stroke-opacity="0" />
<polygon id="A3-19" points="265.5 147,282.5 147,282.5 182.5,265 182.5" fill="#000000" stroke="none" stroke-opacity="0" />
<polygon id="A3-20" points="282.5 147.5,299.5 147.5,299.5 182.5,282 182.5" fill="#000000" stroke="none" stroke-opacity="0" />
<polygon id="A3-21" points="299.5 148,315 148,315 182,299 182" fill="#000000" stroke="none" stroke-opacity="0" />
<polygon id="A3-22" points="314.5 147.5,333 147.5,333 181.5,314.5 181.5" fill="#000000" stroke="none" stroke-opacity="0" />
<polygon id="A3-23" points="333 147.5,349 147.5,349 182,332.5 182" fill="#000000" stroke="none" stroke-opacity="0" />
<polygon id="A3-24" points="349 147.5,366.5 147.5,366.5 182.5,348.5 182.5" fill="#000000" stroke="none" stroke-opacity="0" />
<polygon id="A3-25" points="366.5 147.5,382.5 147.5,382.5 182.5,366.5 182.5" fill="#000000" stroke="none" stroke-opacity="0" />
<polygon id="A3-26" points="382.5 147.5,399 147.5,399 182,382 182" fill="#000000" stroke="none" stroke-opacity="0" />
<polygon id="A3-27" points="399.5 148,416.5 148,416.5 182,399 182" fill="#000000" stroke="none" stroke-opacity="0" />
<polygon id="A3-28" points="416.5 148,432 148,432 172,416.5 172" fill="#000000" stroke="none" stroke-opacity="0" />
<polygon id="A3-29" points="432.5 148.5,449.5 148.5,449.5 173.5,432 173.5" fill="#000000" stroke="none" stroke-opacity="0" />
<polygon id="A3-30" points="450 148,467 148,467 182,449 182" fill="#000000" stroke="none" stroke-opacity="0" />
<polygon id="A3-31" points="466.5 147.5,482 147.5,482 181.5,466.5 181.5" fill="#000000" stroke="none" stroke-opacity="0" />
<polygon id="A3-32" points="481.5 194.5,481.5 215,533 215,533 193,516 193.5,516 185.5,494.5 185.5,494.5 194.5" fill="#000000" stroke="none" stroke-opacity="0" />
<polygon id="A3-33" points="482 215,533 215,533 232,481.5 232" fill="#000000" stroke="none" stroke-opacity="0" />
<polygon id="A3-34" points="482.5 232,482.5 248.5,532.5 248.5,532.5 231.5" fill="#000000" stroke="none" stroke-opacity="0" />
<polygon id="A3-35" points="483 248,483 266,532.5 266,532.5 247.5" fill="#000000" stroke="none" stroke-opacity="0" />
<polygon id="A3-36" points="483 265.5,483 282,532.5 282,532.5 265" fill="#000000" stroke="none" stroke-opacity="0" />
<polygon id="A3-37" points="514.5 282,514.5 295.5,532 295.5,532 281.5" fill="#000000" stroke="none" stroke-opacity="0" />
<polygon id="A3-38" points="516 348.5,550.5 348.5,550.5 332,760 332,760 383.5,516 383.5" fill="#000000" stroke="none" stroke-opacity="0" />
<polygon id="A3-01" points="13 148,13 236,49.5 236,49.5 283,12.5 283,12.5 385.5,138 385.5,138 349,183.5 349,183.5 384.5,314 384.5,314 348.5,361 348.5,361 385,516 385,516 349,483.5 349,483.5 181,149 181,149 165,116.5 165,116.5 148" fill="#000000" stroke="none" stroke-opacity="0" />
</svg>
